<svg width="71" height="20" viewBox="0 0 71 20" fill="none" xmlns="http://www.w3.org/2000/svg">
<path fill-rule="evenodd" clip-rule="evenodd" d="M0 10V20H3.23944H6.47887V14.0845C6.47887 8.75373 6.48979 8.16901 6.58951 8.16901C6.75577 8.16901 6.90141 8.34754 6.90141 8.55134C6.90141 8.65092 6.9331 8.73239 6.97183 8.73239C7.01056 8.73239 7.04225 8.82747 7.04225 8.94366C7.04225 9.05986 7.07394 9.15493 7.11268 9.15493C7.15141 9.15493 7.1831 9.25 7.1831 9.3662C7.1831 9.48239 7.21479 9.57747 7.25352 9.57747C7.29225 9.57747 7.32394 9.70423 7.32394 9.85916C7.32394 10.0141 7.35563 10.1408 7.39437 10.1408C7.4331 10.1408 7.46479 10.2359 7.46479 10.3521C7.46479 10.4683 7.49648 10.5634 7.53521 10.5634C7.57394 10.5634 7.60563 10.6585 7.60563 10.7746C7.60563 10.8908 7.63732 10.9859 7.67606 10.9859C7.71479 10.9859 7.74648 11.081 7.74648 11.1972C7.74648 11.3134 7.77817 11.4085 7.8169 11.4085C7.85563 11.4085 7.88732 11.5352 7.88732 11.6901C7.88732 11.8451 7.91901 11.9718 7.95775 11.9718C7.99648 11.9718 8.02817 12.0669 8.02817 12.1831C8.02817 12.2993 8.05986 12.3944 8.09859 12.3944C8.13732 12.3944 8.16901 12.4894 8.16901 12.6056C8.16901 12.7218 8.2007 12.8169 8.23944 12.8169C8.27817 12.8169 8.30986 12.9437 8.30986 13.0986C8.30986 13.2535 8.34155 13.3803 8.38028 13.3803C8.41901 13.3803 8.4507 13.4754 8.4507 13.5915C8.4507 13.7077 8.48239 13.8028 8.52113 13.8028C8.55986 13.8028 8.59155 13.8979 8.59155 14.0141C8.59155 14.1303 8.62324 14.2254 8.66197 14.2254C8.7007 14.2254 8.73239 14.3204 8.73239 14.4366C8.73239 14.5528 8.76408 14.6479 8.80282 14.6479C8.84155 14.6479 8.87324 14.7746 8.87324 14.9296C8.87324 15.0845 8.90493 15.2113 8.94366 15.2113C8.98239 15.2113 9.01408 15.3063 9.01408 15.4225C9.01408 15.5387 9.04577 15.6338 9.08451 15.6338C9.12324 15.6338 9.15493 15.7289 9.15493 15.8451C9.15493 15.9613 9.18662 16.0563 9.22535 16.0563C9.26408 16.0563 9.29577 16.1514 9.29577 16.2676C9.29577 16.3838 9.32746 16.4789 9.3662 16.4789C9.40493 16.4789 9.43662 16.6056 9.43662 16.7606C9.43662 16.9155 9.46831 17.0423 9.50704 17.0423C9.54577 17.0423 9.57746 17.1373 9.57746 17.2535C9.57746 17.3697 9.60915 17.4648 9.64789 17.4648C9.68662 17.4648 9.71831 17.5599 9.71831 17.6761C9.71831 17.7923 9.75 17.8873 9.78873 17.8873C9.82746 17.8873 9.85915 17.9824 9.85915 18.0986C9.85915 18.2148 9.89084 18.3099 9.92958 18.3099C9.96831 18.3099 10 18.4366 10 18.5916C10 18.7465 10.0317 18.8732 10.0704 18.8732C10.1092 18.8732 10.1408 18.9683 10.1408 19.0845C10.1408 19.2007 10.1725 19.2958 10.2113 19.2958C10.25 19.2958 10.2817 19.3908 10.2817 19.507C10.2817 19.6232 10.3134 19.7183 10.3521 19.7183C10.3908 19.7183 10.4225 19.7817 10.4225 19.8592C10.4225 19.9972 10.4695 20 12.7465 20H15.0704V19.7887C15.0704 19.6725 15.1021 19.5775 15.1408 19.5775C15.1796 19.5775 15.2113 19.4507 15.2113 19.2958C15.2113 19.1408 15.243 19.0141 15.2817 19.0141C15.3204 19.0141 15.3521 18.919 15.3521 18.8028C15.3521 18.6866 15.3838 18.5916 15.4225 18.5916C15.4613 18.5916 15.493 18.4965 15.493 18.3803C15.493 18.2641 15.5246 18.169 15.5634 18.169C15.6021 18.169 15.6338 18.0739 15.6338 17.9577C15.6338 17.8416 15.6655 17.7465 15.7042 17.7465C15.743 17.7465 15.7746 17.6197 15.7746 17.4648C15.7746 17.3099 15.8063 17.1831 15.8451 17.1831C15.8838 17.1831 15.9155 17.088 15.9155 16.9718C15.9155 16.8556 15.9472 16.7606 15.9859 16.7606C16.0246 16.7606 16.0563 16.6655 16.0563 16.5493C16.0563 16.4331 16.088 16.338 16.1268 16.338C16.1655 16.338 16.1972 16.243 16.1972 16.1268C16.1972 16.0106 16.2289 15.9155 16.2676 15.9155C16.3063 15.9155 16.338 15.7887 16.338 15.6338C16.338 15.4789 16.3697 15.3521 16.4084 15.3521C16.4472 15.3521 16.4789 15.257 16.4789 15.1408C16.4789 15.0246 16.5106 14.9296 16.5493 14.9296C16.588 14.9296 16.6197 14.8345 16.6197 14.7183C16.6197 14.6021 16.6514 14.507 16.6901 14.507C16.7289 14.507 16.7606 14.412 16.7606 14.2958C16.7606 14.1796 16.7923 14.0845 16.831 14.0845C16.8697 14.0845 16.9014 13.9577 16.9014 13.8028C16.9014 13.6479 16.9331 13.5211 16.9718 13.5211C17.0106 13.5211 17.0423 13.4261 17.0423 13.3099C17.0423 13.1937 17.0739 13.0986 17.1127 13.0986C17.1514 13.0986 17.1831 13.0035 17.1831 12.8873C17.1831 12.7711 17.2148 12.6761 17.2535 12.6761C17.2923 12.6761 17.3239 12.581 17.3239 12.4648C17.3239 12.3486 17.3556 12.2535 17.3944 12.2535C17.4331 12.2535 17.4648 12.1268 17.4648 11.9718C17.4648 11.8169 17.4965 11.6901 17.5352 11.6901C17.5739 11.6901 17.6056 11.5951 17.6056 11.4789C17.6056 11.3627 17.6373 11.2676 17.6761 11.2676C17.7148 11.2676 17.7465 11.1725 17.7465 11.0563C17.7465 10.9401 17.7782 10.8451 17.8169 10.8451C17.8556 10.8451 17.8873 10.75 17.8873 10.6338C17.8873 10.5176 17.919 10.4225 17.9577 10.4225C17.9965 10.4225 18.0282 10.3275 18.0282 10.2113C18.0282 10.0951 18.0599 10 18.0986 10C18.1373 10 18.169 9.87324 18.169 9.71831C18.169 9.56338 18.2007 9.43662 18.2394 9.43662C18.2782 9.43662 18.3099 9.34155 18.3099 9.22535C18.3099 9.10916 18.3415 9.01408 18.3803 9.01408C18.419 9.01408 18.4507 8.91901 18.4507 8.80282C18.4507 8.68662 18.4824 8.59155 18.5211 8.59155C18.5599 8.59155 18.5915 8.49648 18.5915 8.38028C18.5915 8.23514 18.6262 8.16901 18.7022 8.16901C19.0218 8.16901 19.0141 8.02042 19.0141 14.1851V20H22.1831H25.3521V10V0H21.9014C19.6479 0 18.4507 0.0244366 18.4507 0.0704225C18.4507 0.109155 18.3239 0.140845 18.169 0.140845C18.0141 0.140845 17.8873 0.172535 17.8873 0.211268C17.8873 0.25 17.7992 0.28169 17.6916 0.28169C17.5767 0.28169 17.454 0.339859 17.3944 0.422535C17.3385 0.5 17.2365 0.56338 17.1675 0.56338C17.0987 0.56338 17.0423 0.59507 17.0423 0.633803C17.0423 0.672535 16.9939 0.704225 16.9348 0.704225C16.8037 0.704225 16.1972 1.29803 16.1972 1.42627C16.1972 1.47683 16.1338 1.56387 16.0563 1.61972C15.9789 1.67556 15.9155 1.77761 15.9155 1.84655C15.9155 1.91542 15.8838 1.97183 15.8451 1.97183C15.8063 1.97183 15.7746 2.03521 15.7746 2.11268C15.7746 2.19014 15.743 2.25352 15.7042 2.25352C15.6655 2.25352 15.6338 2.3169 15.6338 2.39437C15.6338 2.47183 15.6021 2.53521 15.5634 2.53521C15.5246 2.53521 15.493 2.63028 15.493 2.74648C15.493 2.86268 15.4613 2.95775 15.4225 2.95775C15.3838 2.95775 15.3521 3.08451 15.3521 3.23944C15.3521 3.39437 15.3204 3.52113 15.2817 3.52113C15.243 3.52113 15.2113 3.64789 15.2113 3.80282C15.2113 3.95775 15.1796 4.08451 15.1408 4.08451C15.1021 4.08451 15.0704 4.17958 15.0704 4.29577C15.0704 4.41197 15.0387 4.50704 15 4.50704C14.9613 4.50704 14.9296 4.60211 14.9296 4.71831C14.9296 4.83451 14.8979 4.92958 14.8592 4.92958C14.8204 4.92958 14.7887 5.05634 14.7887 5.21127C14.7887 5.3662 14.757 5.49296 14.7183 5.49296C14.6796 5.49296 14.6479 5.61972 14.6479 5.77465C14.6479 5.92958 14.6162 6.05634 14.5775 6.05634C14.5387 6.05634 14.507 6.15141 14.507 6.26761C14.507 6.3838 14.4754 6.47887 14.4366 6.47887C14.3979 6.47887 14.3662 6.57394 14.3662 6.69014C14.3662 6.80634 14.3345 6.90141 14.2958 6.90141C14.257 6.90141 14.2254 7.02817 14.2254 7.1831C14.2254 7.33803 14.1937 7.46479 14.1549 7.46479C14.1162 7.46479 14.0845 7.55986 14.0845 7.67606C14.0845 7.79225 14.0528 7.88732 14.0141 7.88732C13.9754 7.88732 13.9437 8.01408 13.9437 8.16901C13.9437 8.32394 13.912 8.4507 13.8732 8.4507C13.8345 8.4507 13.8028 8.54578 13.8028 8.66197C13.8028 8.77817 13.7711 8.87324 13.7324 8.87324C13.6937 8.87324 13.662 9 13.662 9.15493C13.662 9.30986 13.6303 9.43662 13.5915 9.43662C13.5528 9.43662 13.5211 9.53169 13.5211 9.64789C13.5211 9.76408 13.4894 9.85916 13.4507 9.85916C13.412 9.85916 13.3803 9.98592 13.3803 10.1408C13.3803 10.2958 13.3486 10.4225 13.3099 10.4225C13.2711 10.4225 13.2394 10.5176 13.2394 10.6338C13.2394 10.75 13.2077 10.8451 13.169 10.8451C13.1303 10.8451 13.0986 10.9718 13.0986 11.1268C13.0986 11.2817 13.0669 11.4085 13.0282 11.4085C12.9894 11.4085 12.9577 11.4582 12.9577 11.5191C12.9577 11.6614 12.7882 11.831 12.6458 11.831C12.5822 11.831 12.5352 11.7713 12.5352 11.6901C12.5352 11.6127 12.5035 11.5493 12.4648 11.5493C12.4261 11.5493 12.3944 11.4542 12.3944 11.338C12.3944 11.2218 12.3627 11.1268 12.3239 11.1268C12.2852 11.1268 12.2535 11 12.2535 10.8451C12.2535 10.6901 12.2218 10.5634 12.1831 10.5634C12.1444 10.5634 12.1127 10.4683 12.1127 10.3521C12.1127 10.2359 12.081 10.1408 12.0423 10.1408C12.0035 10.1408 11.9718 10.0141 11.9718 9.85916C11.9718 9.70423 11.9401 9.57747 11.9014 9.57747C11.8627 9.57747 11.831 9.48239 11.831 9.3662C11.831 9.25 11.7993 9.15493 11.7606 9.15493C11.7218 9.15493 11.6901 9.02817 11.6901 8.87324C11.6901 8.71831 11.6585 8.59155 11.6197 8.59155C11.581 8.59155 11.5493 8.49648 11.5493 8.38028C11.5493 8.26408 11.5176 8.16901 11.4789 8.16901C11.4401 8.16901 11.4085 8.04225 11.4085 7.88732C11.4085 7.73239 11.3768 7.60563 11.338 7.60563C11.2993 7.60563 11.2676 7.51056 11.2676 7.39437C11.2676 7.27817 11.2359 7.1831 11.1972 7.1831C11.1585 7.1831 11.1268 7.05634 11.1268 6.90141C11.1268 6.74648 11.0951 6.61972 11.0563 6.61972C11.0176 6.61972 10.9859 6.52465 10.9859 6.40845C10.9859 6.29225 10.9542 6.19718 10.9155 6.19718C10.8768 6.19718 10.8451 6.07042 10.8451 5.91549C10.8451 5.76056 10.8134 5.6338 10.7746 5.6338C10.7359 5.6338 10.7042 5.53873 10.7042 5.42254C10.7042 5.30634 10.6725 5.21127 10.6338 5.21127C10.5951 5.21127 10.5634 5.1162 10.5634 5C10.5634 4.8838 10.5317 4.78873 10.493 4.78873C10.4542 4.78873 10.4225 4.66197 10.4225 4.50704C10.4225 4.35211 10.3908 4.22535 10.3521 4.22535C10.3134 4.22535 10.2817 4.09859 10.2817 3.94366C10.2817 3.78873 10.25 3.66197 10.2113 3.66197C10.1725 3.66197 10.1408 3.5669 10.1408 3.4507C10.1408 3.33451 10.1092 3.23944 10.0704 3.23944C10.0317 3.23944 10 3.14437 10 3.02817C10 2.91197 9.96831 2.8169 9.92958 2.8169C9.89084 2.8169 9.85915 2.69014 9.85915 2.53521C9.85915 2.38028 9.82746 2.25352 9.78873 2.25352C9.75 2.25352 9.71831 2.19711 9.71831 2.12824C9.71831 2.0593 9.65493 1.95725 9.57746 1.90141C9.5 1.84556 9.43662 1.75887 9.43662 1.70866C9.43662 1.58056 8.40563 0.56338 8.27577 0.56338C8.21704 0.56338 8.16901 0.53169 8.16901 0.492958C8.16901 0.454225 8.10563 0.422535 8.02817 0.422535C7.9507 0.422535 7.88732 0.390845 7.88732 0.352113C7.88732 0.31338 7.82394 0.28169 7.74648 0.28169C7.66901 0.28169 7.60563 0.25 7.60563 0.211268C7.60563 0.172535 7.47887 0.140845 7.32394 0.140845C7.16901 0.140845 7.04225 0.109155 7.04225 0.0704225C7.04225 0.0244366 5.82162 0 3.52113 0H0V10ZM28.0282 10V20H31.0563C33.0282 20 34.0845 19.9754 34.0845 19.9296C34.0845 19.8908 34.2113 19.8592 34.3662 19.8592C34.5211 19.8592 34.6479 19.8275 34.6479 19.7887C34.6479 19.75 34.7113 19.7183 34.7887 19.7183C34.8662 19.7183 34.9296 19.6866 34.9296 19.6479C34.9296 19.6092 34.993 19.5775 35.0704 19.5775C35.1479 19.5775 35.2113 19.5458 35.2113 19.507C35.2113 19.4683 35.2593 19.4366 35.318 19.4366C35.4572 19.4366 36.4789 18.4149 36.4789 18.2758C36.4789 18.217 36.5106 18.169 36.5493 18.169C36.588 18.169 36.6197 18.1056 36.6197 18.0282C36.6197 17.9507 36.6514 17.8873 36.6901 17.8873C36.7289 17.8873 36.7606 17.8239 36.7606 17.7465C36.7606 17.669 36.7923 17.6056 36.831 17.6056C36.8697 17.6056 36.9014 17.5423 36.9014 17.4648C36.9014 17.3873 36.9331 17.3239 36.9718 17.3239C37.0106 17.3239 37.0423 17.2606 37.0423 17.1831C37.0423 17.1056 37.0739 17.0423 37.1127 17.0423C37.1514 17.0423 37.1831 16.9789 37.1831 16.9014C37.1831 16.8239 37.2148 16.7606 37.2535 16.7606C37.2923 16.7606 37.3239 16.6972 37.3239 16.6197C37.3239 16.5423 37.3556 16.4789 37.3944 16.4789C37.4331 16.4789 37.4648 16.3838 37.4648 16.2676C37.4648 16.1514 37.4965 16.0563 37.5352 16.0563C37.5739 16.0563 37.6056 15.993 37.6056 15.9155C37.6056 15.838 37.6373 15.7746 37.6761 15.7746C37.7148 15.7746 37.7465 15.7113 37.7465 15.6338C37.7465 15.5563 37.7782 15.493 37.8169 15.493C37.8556 15.493 37.8873 15.4296 37.8873 15.3521C37.8873 15.2746 37.919 15.2113 37.9577 15.2113C37.9965 15.2113 38.0282 15.1479 38.0282 15.0704C38.0282 14.993 38.0599 14.9296 38.0986 14.9296C38.1373 14.9296 38.169 14.8662 38.169 14.7887C38.169 14.7113 38.2007 14.6479 38.2394 14.6479C38.2782 14.6479 38.3099 14.5845 38.3099 14.507C38.3099 14.4296 38.3415 14.3662 38.3803 14.3662C38.419 14.3662 38.4507 14.2711 38.4507 14.1549C38.4507 14.0387 38.4824 13.9437 38.5211 13.9437C38.5599 13.9437 38.5915 13.8803 38.5915 13.8028C38.5915 13.7254 38.6232 13.662 38.662 13.662C38.7007 13.662 38.7324 13.5986 38.7324 13.5211C38.7324 13.4437 38.7641 13.3803 38.8028 13.3803C38.8415 13.3803 38.8732 13.3169 38.8732 13.2394C38.8732 13.162 38.9049 13.0986 38.9437 13.0986C38.9824 13.0986 39.0141 13.0352 39.0141 12.9577C39.0141 12.8803 39.0458 12.8169 39.0845 12.8169C39.1232 12.8169 39.1549 12.7218 39.1549 12.6056C39.1549 12.4894 39.1866 12.3944 39.2253 12.3944C39.2641 12.3944 39.2958 12.331 39.2958 12.2535C39.2958 12.1761 39.3275 12.1127 39.3662 12.1127C39.4049 12.1127 39.4366 12.0493 39.4366 11.9718C39.4366 11.8944 39.4683 11.831 39.507 11.831C39.5458 11.831 39.5775 11.7676 39.5775 11.6901C39.5775 11.6127 39.6092 11.5493 39.6479 11.5493C39.6866 11.5493 39.7183 11.4859 39.7183 11.4085C39.7183 11.331 39.75 11.2676 39.7887 11.2676C39.8275 11.2676 39.8592 11.2042 39.8592 11.1268C39.8592 11.0493 39.8908 10.9859 39.9296 10.9859C39.9683 10.9859 40 10.8908 40 10.7746C40 10.6585 40.0317 10.5634 40.0704 10.5634C40.1092 10.5634 40.1408 10.5 40.1408 10.4225C40.1408 10.3451 40.1725 10.2817 40.2113 10.2817C40.25 10.2817 40.2817 10.2183 40.2817 10.1408C40.2817 10.0634 40.3134 10 40.3521 10C40.3908 10 40.4225 9.93662 40.4225 9.85916C40.4225 9.78169 40.4542 9.71831 40.493 9.71831C40.5317 9.71831 40.5634 9.65493 40.5634 9.57747C40.5634 9.5 40.5951 9.43662 40.6338 9.43662C40.6725 9.43662 40.7042 9.37324 40.7042 9.29578C40.7042 9.21831 40.7359 9.15493 40.7746 9.15493C40.8134 9.15493 40.8451 9.05986 40.8451 8.94366C40.8451 8.82747 40.8768 8.73239 40.9155 8.73239C40.9542 8.73239 40.9859 8.68345 40.9859 8.62359C40.9859 8.48268 41.2996 8.16901 41.4405 8.16901C41.5377 8.16901 41.5493 8.79592 41.5493 14.0845V20H44.7183H47.8873V10V0H44.9296C43.0047 0 41.9718 0.0245775 41.9718 0.0704225C41.9718 0.109155 41.8451 0.140845 41.6901 0.140845C41.5352 0.140845 41.4084 0.172535 41.4084 0.211268C41.4084 0.25 41.3134 0.28169 41.1972 0.28169C41.081 0.28169 40.9859 0.31338 40.9859 0.352113C40.9859 0.390845 40.9295 0.422535 40.8606 0.422535C40.7917 0.422535 40.6896 0.485916 40.6338 0.56338C40.578 0.640845 40.4911 0.704225 40.4407 0.704225C40.3125 0.704225 39.5775 1.45246 39.5775 1.58296C39.5775 1.6419 39.5458 1.69014 39.507 1.69014C39.4683 1.69014 39.4366 1.74655 39.4366 1.81542C39.4366 1.88437 39.3732 1.98641 39.2958 2.04225C39.2131 2.1019 39.1549 2.22458 39.1549 2.33951C39.1549 2.44711 39.1232 2.53521 39.0845 2.53521C39.0458 2.53521 39.0141 2.59859 39.0141 2.67606C39.0141 2.75352 38.9824 2.8169 38.9437 2.8169C38.9049 2.8169 38.8732 2.88028 38.8732 2.95775C38.8732 3.03521 38.8415 3.09859 38.8028 3.09859C38.7641 3.09859 38.7324 3.16197 38.7324 3.23944C38.7324 3.3169 38.7007 3.38028 38.662 3.38028C38.6232 3.38028 38.5915 3.44366 38.5915 3.52113C38.5915 3.59859 38.5599 3.66197 38.5211 3.66197C38.4824 3.66197 38.4507 3.75704 38.4507 3.87324C38.4507 3.98944 38.419 4.08451 38.3803 4.08451C38.3415 4.08451 38.3099 4.14789 38.3099 4.22535C38.3099 4.30282 38.2782 4.3662 38.2394 4.3662C38.2007 4.3662 38.169 4.42958 38.169 4.50704C38.169 4.58451 38.1373 4.64789 38.0986 4.64789C38.0599 4.64789 38.0282 4.71127 38.0282 4.78873C38.0282 4.8662 37.9965 4.92958 37.9577 4.92958C37.919 4.92958 37.8873 4.99296 37.8873 5.07042C37.8873 5.14789 37.8556 5.21127 37.8169 5.21127C37.7782 5.21127 37.7465 5.27465 37.7465 5.35211C37.7465 5.42958 37.7148 5.49296 37.6761 5.49296C37.6373 5.49296 37.6056 5.55634 37.6056 5.6338C37.6056 5.71127 37.5739 5.77465 37.5352 5.77465C37.4965 5.77465 37.4648 5.86972 37.4648 5.98592C37.4648 6.10211 37.4331 6.19718 37.3944 6.19718C37.3556 6.19718 37.3239 6.26056 37.3239 6.33803C37.3239 6.41549 37.2923 6.47887 37.2535 6.47887C37.2148 6.47887 37.1831 6.54225 37.1831 6.61972C37.1831 6.69718 37.1514 6.76056 37.1127 6.76056C37.0739 6.76056 37.0423 6.82394 37.0423 6.90141C37.0423 6.97887 37.0106 7.04225 36.9718 7.04225C36.9331 7.04225 36.9014 7.10563 36.9014 7.1831C36.9014 7.26056 36.8697 7.32394 36.831 7.32394C36.7923 7.32394 36.7606 7.38732 36.7606 7.46479C36.7606 7.54225 36.7289 7.60563 36.6901 7.60563C36.6514 7.60563 36.6197 7.7007 36.6197 7.8169C36.6197 7.9331 36.588 8.02817 36.5493 8.02817C36.5106 8.02817 36.4789 8.09155 36.4789 8.16901C36.4789 8.24648 36.4472 8.30986 36.4084 8.30986C36.3697 8.30986 36.338 8.37324 36.338 8.4507C36.338 8.52817 36.3063 8.59155 36.2676 8.59155C36.2289 8.59155 36.1972 8.65493 36.1972 8.73239C36.1972 8.80986 36.1655 8.87324 36.1268 8.87324C36.088 8.87324 36.0563 8.93662 36.0563 9.01408C36.0563 9.09155 36.0246 9.15493 35.9859 9.15493C35.9472 9.15493 35.9155 9.25 35.9155 9.3662C35.9155 9.48239 35.8838 9.57747 35.8451 9.57747C35.8063 9.57747 35.7746 9.64085 35.7746 9.71831C35.7746 9.79578 35.743 9.85916 35.7042 9.85916C35.6655 9.85916 35.6338 9.92254 35.6338 10C35.6338 10.0775 35.6021 10.1408 35.5634 10.1408C35.5246 10.1408 35.493 10.2042 35.493 10.2817C35.493 10.3592 35.4613 10.4225 35.4225 10.4225C35.3838 10.4225 35.3521 10.4859 35.3521 10.5634C35.3521 10.6408 35.3204 10.7042 35.2817 10.7042C35.243 10.7042 35.2113 10.7676 35.2113 10.8451C35.2113 10.9225 35.1796 10.9859 35.1408 10.9859C35.1021 10.9859 35.0704 11.081 35.0704 11.1972C35.0704 11.3134 35.0387 11.4085 35 11.4085C34.9613 11.4085 34.9296 11.4582 34.9296 11.5191C34.9296 11.6481 34.7644 11.831 34.6479 11.831C34.3632 11.831 34.3662 11.8941 34.3662 5.81486V0H31.1972H28.0282V10ZM50.2817 0.633803C50.2817 1.00937 50.3103 1.26761 50.3521 1.26761C50.3908 1.26761 50.4225 1.39437 50.4225 1.5493C50.4225 1.70423 50.4542 1.83099 50.493 1.83099C50.5317 1.83099 50.5634 1.95775 50.5634 2.11268C50.5634 2.26761 50.5951 2.39437 50.6338 2.39437C50.6725 2.39437 50.7042 2.45775 50.7042 2.53521C50.7042 2.61268 50.7359 2.67606 50.7746 2.67606C50.8134 2.67606 50.8451 2.77113 50.8451 2.88732C50.8451 3.00352 50.8768 3.09859 50.9155 3.09859C50.9542 3.09859 50.9859 3.16197 50.9859 3.23944C50.9859 3.3169 51.0176 3.38028 51.0563 3.38028C51.0951 3.38028 51.1268 3.44366 51.1268 3.52113C51.1268 3.59859 51.1584 3.66197 51.1972 3.66197C51.2359 3.66197 51.2676 3.71838 51.2676 3.78725C51.2676 3.8562 51.331 3.95824 51.4084 4.01408C51.4859 4.06993 51.5493 4.165 51.5493 4.22535C51.5493 4.2857 51.6127 4.38077 51.6901 4.43662C51.7676 4.49247 51.831 4.58113 51.831 4.63373C51.831 4.68634 51.9577 4.85113 52.1127 5C52.2676 5.14887 52.3944 5.30563 52.3944 5.34845C52.3944 5.44972 53.001 6.05634 53.1022 6.05634C53.1451 6.05634 53.3018 6.1831 53.4507 6.33803C53.5996 6.49296 53.7644 6.61972 53.817 6.61972C53.8696 6.61972 53.9582 6.6831 54.0141 6.76056C54.0699 6.83803 54.165 6.90141 54.2253 6.90141C54.2857 6.90141 54.3808 6.96479 54.4366 7.04225C54.4925 7.11972 54.5945 7.1831 54.6634 7.1831C54.7323 7.1831 54.7887 7.21479 54.7887 7.25352C54.7887 7.29225 54.8521 7.32394 54.9296 7.32394C55.007 7.32394 55.0704 7.35563 55.0704 7.39437C55.0704 7.4331 55.1338 7.46479 55.2113 7.46479C55.2887 7.46479 55.3521 7.49648 55.3521 7.53521C55.3521 7.57394 55.4155 7.60563 55.493 7.60563C55.5704 7.60563 55.6338 7.63732 55.6338 7.67606C55.6338 7.71479 55.7289 7.74648 55.8451 7.74648C55.9613 7.74648 56.0563 7.77817 56.0563 7.8169C56.0563 7.85563 56.1514 7.88732 56.2676 7.88732C56.3838 7.88732 56.4789 7.91901 56.4789 7.95775C56.4789 7.99648 56.6056 8.02817 56.7606 8.02817C56.9155 8.02817 57.0422 8.05986 57.0422 8.09859C57.0422 8.13732 57.2007 8.16901 57.3944 8.16901C57.588 8.16901 57.7465 8.2007 57.7465 8.23944C57.7465 8.28585 59.9765 8.30986 64.2958 8.30986H70.8451V8.02817C70.8451 7.87324 70.8768 7.74648 70.9155 7.74648C70.9577 7.74648 70.9859 7.46479 70.9859 7.04225C70.9859 6.61972 70.9577 6.33803 70.9155 6.33803C70.8763 6.33803 70.8451 6.15021 70.8451 5.91549C70.8451 5.68077 70.8138 5.49296 70.7746 5.49296C70.7359 5.49296 70.7042 5.39789 70.7042 5.28169C70.7042 5.16549 70.6725 5.07042 70.6338 5.07042C70.5951 5.07042 70.5634 4.97535 70.5634 4.85916C70.5634 4.74296 70.5317 4.64789 70.493 4.64789C70.4542 4.64789 70.4225 4.55282 70.4225 4.43662C70.4225 4.32042 70.3908 4.22535 70.3521 4.22535C70.3134 4.22535 70.2817 4.16197 70.2817 4.08451C70.2817 4.00704 70.25 3.94366 70.2113 3.94366C70.1725 3.94366 70.1408 3.88028 70.1408 3.80282C70.1408 3.72535 70.1091 3.66197 70.0704 3.66197C70.0317 3.66197 70 3.60556 70 3.53669C70 3.46775 69.9366 3.3657 69.8591 3.30986C69.7817 3.25401 69.7183 3.16465 69.7183 3.11127C69.7183 3.05796 69.6232 2.92542 69.507 2.8169C69.3908 2.70838 69.2958 2.58402 69.2958 2.54064C69.2958 2.43782 68.5481 1.69014 68.4453 1.69014C68.4019 1.69014 68.2775 1.59507 68.169 1.47887C68.0605 1.36268 67.9279 1.26761 67.8746 1.26761C67.8213 1.26761 67.7319 1.20423 67.676 1.12676C67.6202 1.0493 67.5182 0.985916 67.4492 0.985916C67.3803 0.985916 67.3239 0.954225 67.3239 0.915493C67.3239 0.876761 67.2606 0.84507 67.1831 0.84507C67.1056 0.84507 67.0423 0.81338 67.0423 0.774648C67.0423 0.735916 66.9789 0.704225 66.9014 0.704225C66.8239 0.704225 66.7606 0.672535 66.7606 0.633803C66.7606 0.59507 66.6972 0.56338 66.6197 0.56338C66.5423 0.56338 66.4789 0.53169 66.4789 0.492958C66.4789 0.454225 66.3838 0.422535 66.2676 0.422535C66.1514 0.422535 66.0563 0.390845 66.0563 0.352113C66.0563 0.31338 65.9613 0.28169 65.8451 0.28169C65.7289 0.28169 65.6338 0.25 65.6338 0.211268C65.6338 0.172113 65.446 0.140845 65.2113 0.140845C64.9765 0.140845 64.7887 0.109577 64.7887 0.0704225C64.7887 0.0239437 62.3239 0 57.5352 0H50.2817V0.633803ZM50.5634 14.7183V20H53.7324H56.9014V17.0423V14.0845H60.7042C63.1925 14.0845 64.507 14.0601 64.507 14.0141C64.507 13.9749 64.6949 13.9437 64.9296 13.9437C65.1643 13.9437 65.3521 13.9124 65.3521 13.8732C65.3521 13.8345 65.4472 13.8028 65.5634 13.8028C65.6796 13.8028 65.7746 13.7711 65.7746 13.7324C65.7746 13.6937 65.8697 13.662 65.9859 13.662C66.1021 13.662 66.1972 13.6303 66.1972 13.5915C66.1972 13.5528 66.2923 13.5211 66.4084 13.5211C66.5246 13.5211 66.6197 13.4894 66.6197 13.4507C66.6197 13.412 66.6831 13.3803 66.7606 13.3803C66.838 13.3803 66.9014 13.3486 66.9014 13.3099C66.9014 13.2711 66.9648 13.2394 67.0423 13.2394C67.1197 13.2394 67.1831 13.2077 67.1831 13.169C67.1831 13.1303 67.2395 13.0986 67.3084 13.0986C67.3773 13.0986 67.4794 13.0352 67.5352 12.9577C67.591 12.8803 67.6861 12.8169 67.7465 12.8169C67.8068 12.8169 67.9019 12.7535 67.9577 12.6761C68.0136 12.5986 68.1022 12.5352 68.1549 12.5352C68.2075 12.5352 68.3722 12.4085 68.5211 12.2535C68.67 12.0986 68.827 11.9718 68.8701 11.9718C68.9727 11.9718 69.4366 11.5067 69.4366 11.4039C69.4366 11.36 69.5317 11.2353 69.6479 11.1268C69.7641 11.0182 69.8591 10.8857 69.8591 10.8324C69.8591 10.779 69.9225 10.6896 70 10.6338C70.0775 10.578 70.1408 10.4759 70.1408 10.407C70.1408 10.3381 70.1725 10.2817 70.2113 10.2817C70.25 10.2817 70.2817 10.2183 70.2817 10.1408C70.2817 10.0634 70.3134 10 70.3521 10C70.3908 10 70.4225 9.93662 70.4225 9.85916C70.4225 9.78169 70.4542 9.71831 70.493 9.71831C70.5317 9.71831 70.5634 9.65493 70.5634 9.57747C70.5634 9.43725 70.5164 9.43662 60.5634 9.43662H50.5634V14.7183Z" fill="#F0F0F0"/>
</svg>
