<svg width="114" height="20" viewBox="0 0 114 20" fill="none" xmlns="http://www.w3.org/2000/svg">
<path fill-rule="evenodd" clip-rule="evenodd" d="M8.94737 0.131579C8.94737 0.204737 8.59645 0.263158 8.1579 0.263158C7.71934 0.263158 7.36842 0.321579 7.36842 0.394737C7.36842 0.467105 7.19079 0.526316 6.97368 0.526316C6.75658 0.526316 6.57895 0.585526 6.57895 0.657895C6.57895 0.730263 6.46053 0.789474 6.31579 0.789474C6.17105 0.789474 6.05263 0.848684 6.05263 0.921053C6.05263 0.993421 5.93421 1.05263 5.78947 1.05263C5.64474 1.05263 5.52632 1.11184 5.52632 1.18421C5.52632 1.25658 5.4079 1.31579 5.26316 1.31579C5.11842 1.31579 5 1.375 5 1.44737C5 1.51974 4.8946 1.57895 4.76592 1.57895C4.6371 1.57895 4.44645 1.69737 4.34211 1.84211C4.23776 1.98684 4.07553 2.10526 3.98171 2.10526C3.75921 2.10526 2.10526 3.75921 2.10526 3.98171C2.10526 4.07553 1.98684 4.23776 1.84211 4.34211C1.69737 4.44645 1.57895 4.63711 1.57895 4.76592C1.57895 4.89461 1.51974 5 1.44737 5C1.375 5 1.31579 5.11842 1.31579 5.26316C1.31579 5.4079 1.25658 5.52632 1.18421 5.52632C1.11184 5.52632 1.05263 5.64474 1.05263 5.78947C1.05263 5.93421 0.993421 6.05263 0.921053 6.05263C0.848684 6.05263 0.789474 6.17105 0.789474 6.31579C0.789474 6.46053 0.730263 6.57895 0.657895 6.57895C0.585526 6.57895 0.526316 6.81579 0.526316 7.10526C0.526316 7.39474 0.467105 7.63158 0.394737 7.63158C0.321579 7.63158 0.263158 7.9825 0.263158 8.42105C0.263158 8.85961 0.204737 9.21053 0.131579 9.21053C0.0564474 9.21053 0 9.60526 0 10.1316C0 10.6579 0.0564474 11.0526 0.131579 11.0526C0.204737 11.0526 0.263158 11.4036 0.263158 11.8421C0.263158 12.2807 0.321579 12.6316 0.394737 12.6316C0.467105 12.6316 0.526316 12.8092 0.526316 13.0263C0.526316 13.2434 0.585526 13.4211 0.657895 13.4211C0.730263 13.4211 0.789474 13.5395 0.789474 13.6842C0.789474 13.8289 0.848684 13.9474 0.921053 13.9474C0.993421 13.9474 1.05263 14.112 1.05263 14.313C1.05263 14.5278 1.16132 14.757 1.31579 14.8684C1.46053 14.9728 1.57895 15.1504 1.57895 15.2632C1.57895 15.3759 1.69737 15.5536 1.84211 15.6579C1.98684 15.7622 2.10526 15.9242 2.10526 16.018C2.10526 16.2403 4.02289 18.1579 4.24513 18.1579C4.33895 18.1579 4.50092 18.2763 4.60526 18.4211C4.70961 18.5658 4.90026 18.6842 5.02908 18.6842C5.15776 18.6842 5.26316 18.7434 5.26316 18.8158C5.26316 18.8882 5.38158 18.9474 5.52632 18.9474C5.67105 18.9474 5.78947 19.0066 5.78947 19.0789C5.78947 19.1513 5.9079 19.2105 6.05263 19.2105C6.19737 19.2105 6.31579 19.2697 6.31579 19.3421C6.31579 19.4145 6.49342 19.4737 6.71053 19.4737C6.92763 19.4737 7.10526 19.5329 7.10526 19.6053C7.10526 19.6776 7.40132 19.7368 7.76316 19.7368C8.125 19.7368 8.42105 19.7961 8.42105 19.8684C8.42105 19.9488 9.03513 20 10 20C10.9649 20 11.5789 19.9488 11.5789 19.8684C11.5789 19.7961 11.875 19.7368 12.2368 19.7368C12.5987 19.7368 12.8947 19.6776 12.8947 19.6053C12.8947 19.5329 13.0724 19.4737 13.2895 19.4737C13.5066 19.4737 13.6842 19.4145 13.6842 19.3421C13.6842 19.2697 13.8026 19.2105 13.9474 19.2105C14.0921 19.2105 14.2105 19.1513 14.2105 19.0789C14.2105 19.0066 14.3289 18.9474 14.4737 18.9474C14.6184 18.9474 14.7368 18.8882 14.7368 18.8158C14.7368 18.7434 14.8299 18.6842 14.9436 18.6842C15.0574 18.6842 15.2386 18.5961 15.3463 18.4883C15.5197 18.3149 15.4359 18.1875 14.6132 17.3762C14.1022 16.8724 13.6842 16.3814 13.6842 16.2854C13.6842 16.1893 13.5658 16.0254 13.4211 15.9211C13.2763 15.8167 13.1579 15.6261 13.1579 15.4972C13.1579 15.3686 13.0987 15.2632 13.0263 15.2632C12.9539 15.2632 12.8947 15.1447 12.8947 15C12.8947 14.8553 12.8355 14.7368 12.7632 14.7368C12.6908 14.7368 12.6316 14.6184 12.6316 14.4737C12.6316 14.3289 12.5724 14.2105 12.5 14.2105C12.4276 14.2105 12.3684 14.0329 12.3684 13.8158C12.3684 13.5987 12.3092 13.4211 12.2368 13.4211C12.1645 13.4211 12.1053 13.2434 12.1053 13.0263C12.1053 12.8092 12.0461 12.6316 11.9737 12.6316C11.9013 12.6316 11.8421 12.3355 11.8421 11.9737C11.8421 11.6118 11.7829 11.3158 11.7105 11.3158C11.6316 11.3158 11.5789 10.7895 11.5789 10C11.5789 9.21053 11.6316 8.68421 11.7105 8.68421C11.7829 8.68421 11.8421 8.38816 11.8421 8.02632C11.8421 7.66447 11.9013 7.36842 11.9737 7.36842C12.0461 7.36842 12.1053 7.19079 12.1053 6.97368C12.1053 6.75658 12.1645 6.57895 12.2368 6.57895C12.3092 6.57895 12.3684 6.40132 12.3684 6.18421C12.3684 5.96711 12.4276 5.78947 12.5 5.78947C12.5724 5.78947 12.6316 5.67105 12.6316 5.52632C12.6316 5.38158 12.6908 5.26316 12.7632 5.26316C12.8355 5.26316 12.8947 5.15776 12.8947 5.02908C12.8947 4.90026 13.0132 4.70961 13.1579 4.60526C13.3026 4.50092 13.4211 4.32329 13.4211 4.21053C13.4211 4.09776 13.5395 3.92013 13.6842 3.81579C13.8289 3.71145 13.9474 3.54711 13.9474 3.45053C13.9474 3.35395 14.3026 2.92618 14.7368 2.5C15.1711 2.07382 15.5263 1.69224 15.5263 1.65197C15.5263 1.61184 15.4209 1.57895 15.2922 1.57895C15.1634 1.57895 14.9728 1.46053 14.8684 1.31579C14.7641 1.17105 14.5734 1.05263 14.4446 1.05263C14.3159 1.05263 14.2105 0.993421 14.2105 0.921053C14.2105 0.848684 14.0329 0.789474 13.8158 0.789474C13.5987 0.789474 13.4211 0.730263 13.4211 0.657895C13.4211 0.585526 13.2434 0.526316 13.0263 0.526316C12.8092 0.526316 12.6316 0.467105 12.6316 0.394737C12.6316 0.321579 12.2807 0.263158 11.8421 0.263158C11.4036 0.263158 11.0526 0.204737 11.0526 0.131579C11.0526 0.0548684 10.6141 0 10 0C9.38592 0 8.94737 0.0548684 8.94737 0.131579ZM21.3158 0.131579C21.3158 0.204737 20.9649 0.263158 20.5263 0.263158C20.0878 0.263158 19.7368 0.321579 19.7368 0.394737C19.7368 0.467105 19.5592 0.526316 19.3421 0.526316C19.125 0.526316 18.9474 0.585526 18.9474 0.657895C18.9474 0.730263 18.7697 0.789474 18.5526 0.789474C18.3355 0.789474 18.1579 0.848684 18.1579 0.921053C18.1579 0.993421 18.0525 1.05263 17.9238 1.05263C17.795 1.05263 17.6043 1.17105 17.5 1.31579C17.3957 1.46053 17.205 1.57895 17.0762 1.57895C16.9475 1.57895 16.8421 1.61184 16.8421 1.65197C16.8421 1.69224 17.1974 2.07382 17.6316 2.5C18.0658 2.92618 18.4211 3.35395 18.4211 3.45053C18.4211 3.54711 18.5395 3.71145 18.6842 3.81579C18.8289 3.92013 18.9474 4.09776 18.9474 4.21053C18.9474 4.32329 19.0658 4.50092 19.2105 4.60526C19.3553 4.70961 19.4737 4.90026 19.4737 5.02908C19.4737 5.15776 19.5329 5.26316 19.6053 5.26316C19.6776 5.26316 19.7368 5.38158 19.7368 5.52632C19.7368 5.67105 19.7961 5.78947 19.8684 5.78947C19.9408 5.78947 20 5.96711 20 6.18421C20 6.40132 20.0592 6.57895 20.1316 6.57895C20.2039 6.57895 20.2632 6.75658 20.2632 6.97368C20.2632 7.19079 20.3224 7.36842 20.3947 7.36842C20.4671 7.36842 20.5263 7.66447 20.5263 8.02632C20.5263 8.38816 20.5855 8.68421 20.6579 8.68421C20.7368 8.68421 20.7895 9.21053 20.7895 10C20.7895 10.7895 20.7368 11.3158 20.6579 11.3158C20.5855 11.3158 20.5263 11.6118 20.5263 11.9737C20.5263 12.3355 20.4671 12.6316 20.3947 12.6316C20.3224 12.6316 20.2632 12.8092 20.2632 13.0263C20.2632 13.2434 20.2039 13.4211 20.1316 13.4211C20.0592 13.4211 20 13.5987 20 13.8158C20 14.0329 19.9408 14.2105 19.8684 14.2105C19.7961 14.2105 19.7368 14.3289 19.7368 14.4737C19.7368 14.6184 19.6776 14.7368 19.6053 14.7368C19.5329 14.7368 19.4737 14.8553 19.4737 15C19.4737 15.1447 19.4145 15.2632 19.3421 15.2632C19.2697 15.2632 19.2105 15.3686 19.2105 15.4972C19.2105 15.6261 19.0921 15.8167 18.9474 15.9211C18.8026 16.0254 18.6842 16.1893 18.6842 16.2854C18.6842 16.3814 18.2662 16.8724 17.7553 17.3762C16.9325 18.1875 16.8487 18.3149 17.0221 18.4883C17.1299 18.5961 17.3111 18.6842 17.4249 18.6842C17.5386 18.6842 17.6316 18.7434 17.6316 18.8158C17.6316 18.8882 17.75 18.9474 17.8947 18.9474C18.0395 18.9474 18.1579 19.0066 18.1579 19.0789C18.1579 19.1513 18.2763 19.2105 18.4211 19.2105C18.5658 19.2105 18.6842 19.2697 18.6842 19.3421C18.6842 19.4145 18.8618 19.4737 19.0789 19.4737C19.2961 19.4737 19.4737 19.5329 19.4737 19.6053C19.4737 19.6776 19.7697 19.7368 20.1316 19.7368C20.4934 19.7368 20.7895 19.7961 20.7895 19.8684C20.7895 19.9488 21.4036 20 22.3684 20C23.3333 20 23.9474 19.9488 23.9474 19.8684C23.9474 19.7961 24.2434 19.7368 24.6053 19.7368C24.9671 19.7368 25.2632 19.6776 25.2632 19.6053C25.2632 19.5329 25.4408 19.4737 25.6579 19.4737C25.875 19.4737 26.0526 19.4145 26.0526 19.3421C26.0526 19.2697 26.1711 19.2105 26.3158 19.2105C26.4605 19.2105 26.5789 19.1513 26.5789 19.0789C26.5789 19.0066 26.6974 18.9474 26.8421 18.9474C26.9868 18.9474 27.1053 18.8882 27.1053 18.8158C27.1053 18.7434 27.2107 18.6842 27.3393 18.6842C27.4682 18.6842 27.6588 18.5658 27.7632 18.4211C27.8675 18.2763 28.0295 18.1579 28.123 18.1579C28.3624 18.1579 30.5263 15.9678 30.5263 15.7255C30.5263 15.6159 30.5855 15.5263 30.6579 15.5263C30.7303 15.5263 30.7895 15.4209 30.7895 15.2922C30.7895 15.1634 30.9079 14.9728 31.0526 14.8684C31.1974 14.7641 31.3158 14.5734 31.3158 14.4446C31.3158 14.3159 31.375 14.2105 31.4474 14.2105C31.5197 14.2105 31.5789 14.0329 31.5789 13.8158C31.5789 13.5987 31.6382 13.4211 31.7105 13.4211C31.7829 13.4211 31.8421 13.2434 31.8421 13.0263C31.8421 12.8092 31.9013 12.6316 31.9737 12.6316C32.0468 12.6316 32.1053 12.2807 32.1053 11.8421C32.1053 11.4036 32.1637 11.0526 32.2368 11.0526C32.3136 11.0526 32.3684 10.6141 32.3684 10C32.3684 9.38592 32.3136 8.94737 32.2368 8.94737C32.1637 8.94737 32.1053 8.59645 32.1053 8.1579C32.1053 7.71934 32.0468 7.36842 31.9737 7.36842C31.9013 7.36842 31.8421 7.19079 31.8421 6.97368C31.8421 6.75658 31.7829 6.57895 31.7105 6.57895C31.6382 6.57895 31.5789 6.46053 31.5789 6.31579C31.5789 6.17105 31.5197 6.05263 31.4474 6.05263C31.375 6.05263 31.3158 5.93421 31.3158 5.78947C31.3158 5.64474 31.2566 5.52632 31.1842 5.52632C31.1118 5.52632 31.0526 5.4079 31.0526 5.26316C31.0526 5.11842 30.9934 5 30.9211 5C30.8487 5 30.7895 4.89461 30.7895 4.76592C30.7895 4.63711 30.6711 4.44645 30.5263 4.34211C30.3816 4.23776 30.2632 4.07553 30.2632 3.98171C30.2632 3.75921 28.6092 2.10526 28.3867 2.10526C28.2929 2.10526 28.1307 1.98684 28.0263 1.84211C27.922 1.69737 27.7313 1.57895 27.6025 1.57895C27.4738 1.57895 27.3684 1.51974 27.3684 1.44737C27.3684 1.375 27.25 1.31579 27.1053 1.31579C26.9605 1.31579 26.8421 1.25658 26.8421 1.18421C26.8421 1.11184 26.7237 1.05263 26.5789 1.05263C26.4342 1.05263 26.3158 0.993421 26.3158 0.921053C26.3158 0.848684 26.1974 0.789474 26.0526 0.789474C25.9079 0.789474 25.7895 0.730263 25.7895 0.657895C25.7895 0.585526 25.6118 0.526316 25.3947 0.526316C25.1776 0.526316 25 0.467105 25 0.394737C25 0.321579 24.6491 0.263158 24.2105 0.263158C23.772 0.263158 23.4211 0.204737 23.4211 0.131579C23.4211 0.0548684 22.9825 0 22.3684 0C21.7543 0 21.3158 0.0548684 21.3158 0.131579ZM15.1645 3.10026C14.6397 3.63632 14.2105 4.15158 14.2105 4.24526C14.2105 4.33895 14.0921 4.50092 13.9474 4.60526C13.8026 4.70961 13.6842 4.90026 13.6842 5.02908C13.6842 5.15776 13.625 5.26316 13.5526 5.26316C13.4803 5.26316 13.4211 5.38158 13.4211 5.52632C13.4211 5.67105 13.3618 5.78947 13.2895 5.78947C13.2171 5.78947 13.1579 5.9079 13.1579 6.05263C13.1579 6.19737 13.0987 6.31579 13.0263 6.31579C12.9539 6.31579 12.8947 6.49342 12.8947 6.71053C12.8947 6.92763 12.8355 7.10526 12.7632 7.10526C12.6908 7.10526 12.6316 7.40132 12.6316 7.76316C12.6316 8.125 12.5724 8.42105 12.5 8.42105C12.4196 8.42105 12.3684 9.03513 12.3684 10C12.3684 10.9649 12.4196 11.5789 12.5 11.5789C12.5724 11.5789 12.6316 11.875 12.6316 12.2368C12.6316 12.5987 12.6908 12.8947 12.7632 12.8947C12.8355 12.8947 12.8947 13.0724 12.8947 13.2895C12.8947 13.5066 12.9539 13.6842 13.0263 13.6842C13.0987 13.6842 13.1579 13.8026 13.1579 13.9474C13.1579 14.0921 13.2171 14.2105 13.2895 14.2105C13.3618 14.2105 13.4211 14.3289 13.4211 14.4737C13.4211 14.6184 13.4803 14.7368 13.5526 14.7368C13.625 14.7368 13.6842 14.8422 13.6842 14.9709C13.6842 15.0997 13.8026 15.2904 13.9474 15.3947C14.0921 15.4991 14.2105 15.6611 14.2105 15.7549C14.2105 15.8486 14.6546 16.3693 15.1974 16.9121L16.1842 17.8989L17.1711 16.9121C17.7138 16.3693 18.1579 15.8486 18.1579 15.7549C18.1579 15.6611 18.2763 15.4991 18.4211 15.3947C18.5658 15.2904 18.6842 15.0997 18.6842 14.9709C18.6842 14.8422 18.7434 14.7368 18.8158 14.7368C18.8882 14.7368 18.9474 14.6184 18.9474 14.4737C18.9474 14.3289 19.0066 14.2105 19.0789 14.2105C19.1513 14.2105 19.2105 14.0921 19.2105 13.9474C19.2105 13.8026 19.2697 13.6842 19.3421 13.6842C19.4145 13.6842 19.4737 13.5066 19.4737 13.2895C19.4737 13.0724 19.5329 12.8947 19.6053 12.8947C19.6776 12.8947 19.7368 12.5987 19.7368 12.2368C19.7368 11.875 19.7961 11.5789 19.8684 11.5789C19.9488 11.5789 20 10.9649 20 10C20 9.03513 19.9488 8.42105 19.8684 8.42105C19.7961 8.42105 19.7368 8.125 19.7368 7.76316C19.7368 7.40132 19.6776 7.10526 19.6053 7.10526C19.5329 7.10526 19.4737 6.92763 19.4737 6.71053C19.4737 6.49342 19.4145 6.31579 19.3421 6.31579C19.2697 6.31579 19.2105 6.19737 19.2105 6.05263C19.2105 5.9079 19.1513 5.78947 19.0789 5.78947C19.0066 5.78947 18.9474 5.67105 18.9474 5.52632C18.9474 5.38158 18.8882 5.26316 18.8158 5.26316C18.7434 5.26316 18.6842 5.15776 18.6842 5.02908C18.6842 4.90026 18.5658 4.70961 18.4211 4.60526C18.2763 4.50092 18.1579 4.33895 18.1579 4.24513C18.1579 4.10224 16.2591 2.08474 16.1534 2.11539C16.1342 2.12105 15.6892 2.56421 15.1645 3.10026ZM110 5.78947C110 6.6579 109.954 7.36842 109.898 7.36842C109.841 7.36842 109.71 7.25 109.605 7.10526C109.501 6.96053 109.31 6.84211 109.181 6.84211C109.053 6.84211 108.947 6.7829 108.947 6.71053C108.947 6.63382 108.509 6.57895 107.895 6.57895C107.281 6.57895 106.842 6.63382 106.842 6.71053C106.842 6.7829 106.724 6.84211 106.579 6.84211C106.434 6.84211 106.316 6.90132 106.316 6.97368C106.316 7.04605 106.224 7.10526 106.113 7.10526C105.864 7.10526 105.263 7.6854 105.263 7.92553C105.263 8.02132 105.145 8.18513 105 8.28947C104.817 8.42158 104.737 8.63013 104.737 8.97645C104.737 9.24987 104.678 9.47368 104.605 9.47368C104.533 9.47368 104.474 9.71053 104.474 10C104.474 10.2895 104.533 10.5263 104.605 10.5263C104.678 10.5263 104.737 10.7632 104.737 11.0526C104.737 11.3421 104.796 11.5789 104.868 11.5789C104.941 11.5789 105 11.6693 105 11.7797C105 12.0409 106.117 13.1579 106.378 13.1579C106.489 13.1579 106.579 13.2171 106.579 13.2895C106.579 13.3684 107.105 13.4211 107.895 13.4211C108.684 13.4211 109.211 13.3684 109.211 13.2895C109.211 13.2171 109.329 13.1579 109.474 13.1579C109.618 13.1579 109.737 13.0987 109.737 13.0263C109.737 12.9539 109.796 12.8947 109.868 12.8947C109.941 12.8947 110 13.0132 110 13.1579C110 13.3859 110.088 13.4211 110.658 13.4211H111.316V8.81579V4.21053H110.658H110V5.78947ZM67.1053 5.60145C67.1053 6.60974 66.9468 6.84211 66.2593 6.84211H65.7895V7.5V8.1579H66.4474H67.1053V10.2632C67.1053 11.5789 67.1546 12.3684 67.2368 12.3684C67.3092 12.3684 67.3684 12.4599 67.3684 12.5717C67.3684 12.6836 67.5138 12.9204 67.6915 13.098C67.9917 13.3984 68.1076 13.4211 69.3455 13.4211C70.8341 13.4211 71.0526 13.32 71.0526 12.6316C71.0526 12.4041 70.968 12.1334 70.8646 12.0301C70.6491 11.8145 70.2632 11.7783 70.2632 11.9737C70.2632 12.0461 69.9925 12.1053 69.6617 12.1053C69.0408 12.1053 68.6842 11.8928 68.6842 11.5225C68.6842 11.4088 68.625 11.3158 68.5526 11.3158C68.4722 11.3158 68.4211 10.7017 68.4211 9.73684V8.1579H69.6053H70.7895V7.5V6.84211H69.7933C68.5303 6.84211 68.4211 6.74342 68.4211 5.60145V4.73684H67.7632H67.1053V5.60145ZM41.3158 6.71053C41.3158 6.7829 41.1974 6.84211 41.0526 6.84211C40.9079 6.84211 40.7895 6.90132 40.7895 6.97368C40.7895 7.04605 40.6711 7.10526 40.5263 7.10526C40.3816 7.10526 40.2632 7.04605 40.2632 6.97368C40.2632 6.90132 39.9671 6.84211 39.6053 6.84211H38.9474V10.1316V13.4211H39.6053H40.2632V11.4474C40.2632 10.2193 40.3129 9.47368 40.3947 9.47368C40.4671 9.47368 40.5263 9.32303 40.5263 9.13882C40.5263 8.76947 41.0559 8.1579 41.3757 8.1579C41.4875 8.1579 41.5789 8.09868 41.5789 8.02632C41.5789 7.95395 41.7566 7.89474 41.9737 7.89474C42.1908 7.89474 42.3684 7.95395 42.3684 8.02632C42.3684 8.09868 42.4615 8.1579 42.5751 8.1579C42.8411 8.1579 43.1579 8.47474 43.1579 8.74066C43.1579 8.85434 43.2171 8.94737 43.2895 8.94737C43.372 8.94737 43.4211 9.78066 43.4211 11.1842V13.4211H44.0789H44.7368V11.5789C44.7368 10.4386 44.787 9.73684 44.8684 9.73684C44.9408 9.73684 45 9.52697 45 9.2704C45 8.77158 45.4686 8.1579 45.8493 8.1579C45.9612 8.1579 46.0526 8.09868 46.0526 8.02632C46.0526 7.95395 46.2303 7.89474 46.4474 7.89474C46.6645 7.89474 46.8421 7.95395 46.8421 8.02632C46.8421 8.09868 46.9351 8.1579 47.0488 8.1579C47.3147 8.1579 47.6316 8.47474 47.6316 8.74066C47.6316 8.85434 47.6908 8.94737 47.7632 8.94737C47.8457 8.94737 47.8947 9.78066 47.8947 11.1842V13.4211H48.6842H49.4737V11.0526C49.4737 9.56145 49.425 8.68421 49.3421 8.68421C49.2697 8.68421 49.2105 8.50658 49.2105 8.28947C49.2105 8.07237 49.1513 7.89474 49.0789 7.89474C49.0066 7.89474 48.9474 7.80171 48.9474 7.68803C48.9474 7.42211 48.6305 7.10526 48.3646 7.10526C48.2509 7.10526 48.1579 7.04605 48.1579 6.97368C48.1579 6.90132 48.0395 6.84211 47.8947 6.84211C47.75 6.84211 47.6316 6.7829 47.6316 6.71053C47.6316 6.6354 47.2368 6.57895 46.7105 6.57895C46.1842 6.57895 45.7895 6.6354 45.7895 6.71053C45.7895 6.7829 45.6711 6.84211 45.5263 6.84211C45.3816 6.84211 45.2632 6.90132 45.2632 6.97368C45.2632 7.04605 45.1447 7.10526 45 7.10526C44.8246 7.10526 44.7368 7.19303 44.7368 7.36842C44.7368 7.75382 44.3737 7.69329 43.9474 7.23684C43.7446 7.01974 43.4839 6.84211 43.3683 6.84211C43.2525 6.84211 43.1579 6.7829 43.1579 6.71053C43.1579 6.6354 42.7632 6.57895 42.2368 6.57895C41.7105 6.57895 41.3158 6.6354 41.3158 6.71053ZM52.8947 6.71053C52.8947 6.7829 52.7763 6.84211 52.6316 6.84211C52.4868 6.84211 52.3684 6.90132 52.3684 6.97368C52.3684 7.04605 52.277 7.10526 52.1651 7.10526C51.9018 7.10526 51.3158 7.69132 51.3158 7.95461C51.3158 8.06645 51.2566 8.1579 51.1842 8.1579C51.1118 8.1579 51.0526 8.27632 51.0526 8.42105C51.0526 8.56579 50.9934 8.68421 50.9211 8.68421C50.8487 8.68421 50.7895 8.92105 50.7895 9.21053C50.7895 9.5 50.7303 9.73684 50.6579 9.73684C50.5855 9.73684 50.5263 9.85526 50.5263 10C50.5263 10.1447 50.5855 10.2632 50.6579 10.2632C50.7303 10.2632 50.7895 10.5592 50.7895 10.9211C50.7895 11.2829 50.8487 11.5789 50.9211 11.5789C50.9934 11.5789 51.0526 11.6693 51.0526 11.7797C51.0526 11.8903 51.3175 12.2455 51.6413 12.5692C51.965 12.893 52.3203 13.1579 52.4308 13.1579C52.5412 13.1579 52.6316 13.2171 52.6316 13.2895C52.6316 13.3684 53.1579 13.4211 53.9474 13.4211C54.7368 13.4211 55.2632 13.3684 55.2632 13.2895C55.2632 13.2171 55.3816 13.1579 55.5263 13.1579C55.6711 13.1579 55.7895 13.0987 55.7895 13.0263C55.7895 12.9539 55.8487 12.8947 55.9211 12.8947C55.9934 12.8947 56.0526 13.0132 56.0526 13.1579C56.0526 13.3859 56.1404 13.4211 56.7105 13.4211H57.3684V10.1316V6.84211H56.7105C56.1404 6.84211 56.0526 6.87724 56.0526 7.10526C56.0526 7.25 56.0065 7.36842 55.9501 7.36842C55.8937 7.36842 55.7622 7.25 55.6579 7.10526C55.5536 6.96053 55.3629 6.84211 55.2341 6.84211C55.1054 6.84211 55 6.7829 55 6.71053C55 6.63382 54.5615 6.57895 53.9474 6.57895C53.3333 6.57895 52.8947 6.63382 52.8947 6.71053ZM60.7895 6.71053C60.7895 6.7829 60.6711 6.84211 60.5263 6.84211C60.3816 6.84211 60.2632 6.90132 60.2632 6.97368C60.2632 7.04605 60.1701 7.10526 60.0564 7.10526C59.7905 7.10526 59.4737 7.42211 59.4737 7.68803C59.4737 7.80171 59.4145 7.89474 59.3421 7.89474C59.2678 7.89474 59.2105 8.26947 59.2105 8.75592C59.2105 9.495 59.2563 9.66303 59.5336 9.94013C59.7112 10.1178 59.948 10.2632 60.0599 10.2632C60.1717 10.2632 60.2632 10.3224 60.2632 10.3947C60.2632 10.4671 60.5 10.5263 60.7895 10.5263C61.0789 10.5263 61.3158 10.5855 61.3158 10.6579C61.3158 10.7303 61.6118 10.7895 61.9737 10.7895C62.3355 10.7895 62.6316 10.8487 62.6316 10.9211C62.6316 10.9934 62.75 11.0526 62.8947 11.0526C63.0896 11.0526 63.1579 11.1404 63.1579 11.3909C63.1579 11.8226 62.8753 12.1053 62.4436 12.1053C62.2575 12.1053 62.1053 12.1645 62.1053 12.2368C62.1053 12.3092 61.9276 12.3684 61.7105 12.3684C61.4934 12.3684 61.3158 12.3092 61.3158 12.2368C61.3158 12.1645 61.0789 12.1053 60.7895 12.1053C60.5 12.1053 60.2632 12.0461 60.2632 11.9737C60.2632 11.9013 60.1497 11.8421 60.0109 11.8421C59.8722 11.8421 59.7343 11.7687 59.7043 11.6788C59.6318 11.4614 59.2105 11.8734 59.2105 12.1617C59.2105 12.2754 59.1513 12.3684 59.0789 12.3684C59.0066 12.3684 58.9474 12.4868 58.9474 12.6316C58.9474 12.807 59.0351 12.8947 59.2105 12.8947C59.3553 12.8947 59.4737 12.9539 59.4737 13.0263C59.4737 13.0987 59.5921 13.1579 59.7368 13.1579C59.8816 13.1579 60 13.2171 60 13.2895C60 13.3704 60.6579 13.4211 61.7105 13.4211C62.7632 13.4211 63.4211 13.3704 63.4211 13.2895C63.4211 13.2171 63.5125 13.1579 63.6243 13.1579C63.8876 13.1579 64.4737 12.5718 64.4737 12.3086C64.4737 12.1967 64.5329 12.1053 64.6053 12.1053C64.6776 12.1053 64.7368 11.7776 64.7368 11.3772C64.7368 10.7218 64.6913 10.6036 64.2807 10.193C64.0299 9.94211 63.7338 9.73684 63.6228 9.73684C63.5118 9.73684 63.4211 9.67763 63.4211 9.60526C63.4211 9.5329 63.125 9.47368 62.7632 9.47368C62.4013 9.47368 62.1053 9.41447 62.1053 9.34211C62.1053 9.26974 61.8938 9.21053 61.6354 9.21053C61.0808 9.21053 60.7895 8.96447 60.7895 8.49618C60.7895 8.24566 60.8578 8.1579 61.0526 8.1579C61.1974 8.1579 61.3158 8.09868 61.3158 8.02632C61.3158 7.95316 61.6667 7.89474 62.1053 7.89474C62.5438 7.89474 62.8947 7.95316 62.8947 8.02632C62.8947 8.09868 63.0724 8.1579 63.2895 8.1579C63.5066 8.1579 63.6842 8.21711 63.6842 8.28947C63.6842 8.36184 63.8026 8.42105 63.9474 8.42105C64.1228 8.42105 64.2105 8.33329 64.2105 8.1579C64.2105 8.01316 64.2697 7.89474 64.3421 7.89474C64.4145 7.89474 64.4737 7.71711 64.4737 7.5C64.4737 7.19303 64.4153 7.10526 64.2105 7.10526C64.0658 7.10526 63.9474 7.04605 63.9474 6.97368C63.9474 6.90132 63.7697 6.84211 63.5526 6.84211C63.3355 6.84211 63.1579 6.7829 63.1579 6.71053C63.1579 6.6325 62.6754 6.57895 61.9737 6.57895C61.272 6.57895 60.7895 6.6325 60.7895 6.71053ZM74.4737 6.71053C74.4737 6.7829 74.3091 6.84211 74.108 6.84211C73.8933 6.84211 73.6641 6.95079 73.5526 7.10526C73.4483 7.25 73.2576 7.36842 73.1288 7.36842C72.9921 7.36842 72.8947 7.46579 72.8947 7.6025C72.8947 7.73132 72.7763 7.92197 72.6316 8.02632C72.4868 8.13066 72.3684 8.32132 72.3684 8.45013C72.3684 8.57882 72.3092 8.68421 72.2368 8.68421C72.1579 8.68421 72.1053 9.21053 72.1053 10C72.1053 10.7895 72.1579 11.3158 72.2368 11.3158C72.3092 11.3158 72.3684 11.4342 72.3684 11.5789C72.3684 11.7237 72.4276 11.8421 72.5 11.8421C72.5724 11.8421 72.6316 11.9329 72.6316 12.0438C72.6316 12.3058 73.4837 13.1579 73.7457 13.1579C73.8566 13.1579 73.9474 13.2171 73.9474 13.2895C73.9474 13.3699 74.5614 13.4211 75.5263 13.4211C76.4912 13.4211 77.1053 13.3699 77.1053 13.2895C77.1053 13.2171 77.2237 13.1579 77.3684 13.1579C77.5132 13.1579 77.6316 13.0987 77.6316 13.0263C77.6316 12.9539 77.75 12.8947 77.8947 12.8947C78.0701 12.8947 78.1579 12.807 78.1579 12.6316C78.1579 12.4868 78.0987 12.3684 78.0263 12.3684C77.9539 12.3684 77.8947 12.2754 77.8947 12.1617C77.8947 12.0479 77.8101 11.8703 77.7067 11.767C77.4912 11.5513 77.1053 11.5151 77.1053 11.7105C77.1053 11.7829 76.9868 11.8421 76.8421 11.8421C76.6974 11.8421 76.5789 11.9013 76.5789 11.9737C76.5789 12.0461 76.4013 12.1053 76.1842 12.1053C75.9671 12.1053 75.7895 12.1645 75.7895 12.2368C75.7895 12.3092 75.6711 12.3684 75.5263 12.3684C75.3816 12.3684 75.2632 12.3092 75.2632 12.2368C75.2632 12.1645 75.1132 12.1053 74.9299 12.1053C74.4854 12.1053 73.6842 11.3041 73.6842 10.8596V10.5263H76.0526H78.4211V9.60526C78.4211 9.07895 78.3646 8.68421 78.2895 8.68421C78.2171 8.68421 78.1579 8.56579 78.1579 8.42105C78.1579 8.27632 78.0987 8.1579 78.0263 8.1579C77.9539 8.1579 77.8947 8.06645 77.8947 7.95461C77.8947 7.69132 77.3087 7.10526 77.0454 7.10526C76.9336 7.10526 76.8421 7.04605 76.8421 6.97368C76.8421 6.90132 76.7237 6.84211 76.5789 6.84211C76.4342 6.84211 76.3158 6.7829 76.3158 6.71053C76.3158 6.6354 75.9211 6.57895 75.3947 6.57895C74.8684 6.57895 74.4737 6.6354 74.4737 6.71053ZM82.3684 6.71053C82.3684 6.7829 82.25 6.84211 82.1053 6.84211C81.9605 6.84211 81.8421 6.90132 81.8421 6.97368C81.8421 7.04605 81.7237 7.10526 81.5789 7.10526C81.4342 7.10526 81.3158 7.04605 81.3158 6.97368C81.3158 6.90132 81.0197 6.84211 80.6579 6.84211H80V10.1316V13.4211H80.6579H81.3158V11.4474C81.3158 10.2193 81.3655 9.47368 81.4474 9.47368C81.5197 9.47368 81.5789 9.29605 81.5789 9.07895C81.5789 8.86184 81.6382 8.68421 81.7105 8.68421C81.7829 8.68421 81.8421 8.56579 81.8421 8.42105C81.8421 8.21632 81.9299 8.1579 82.2368 8.1579C82.4539 8.1579 82.6316 8.09868 82.6316 8.02632C82.6316 7.95395 82.75 7.89474 82.8947 7.89474C83.0395 7.89474 83.1579 7.95395 83.1579 8.02632C83.1579 8.22171 83.5438 8.18553 83.7593 7.96987C83.8628 7.86658 83.9474 7.63461 83.9474 7.45461C83.9474 7.27447 84.0208 7.10276 84.1107 7.07276C84.2295 7.03316 84.2141 6.95842 84.0543 6.79868C83.8095 6.55382 82.3684 6.47855 82.3684 6.71053ZM87.1053 6.71053C87.1053 6.7829 86.9407 6.84211 86.7396 6.84211C86.5249 6.84211 86.2957 6.95079 86.1842 7.10526C86.0799 7.25 85.9146 7.36842 85.8168 7.36842C85.5759 7.36842 85.2632 7.6975 85.2632 7.95118C85.2632 8.06487 85.2039 8.1579 85.1316 8.1579C85.0592 8.1579 85 8.27632 85 8.42105C85 8.56579 84.9408 8.68421 84.8684 8.68421C84.7961 8.68421 84.7368 8.92105 84.7368 9.21053C84.7368 9.5 84.6776 9.73684 84.6053 9.73684C84.5329 9.73684 84.4737 9.91447 84.4737 10.1316C84.4737 10.3487 84.5329 10.5263 84.6053 10.5263C84.6776 10.5263 84.7368 10.7632 84.7368 11.0526C84.7368 11.3421 84.7961 11.5789 84.8684 11.5789C84.9408 11.5789 85 11.6693 85 11.7797C85 12.0409 86.117 13.1579 86.3782 13.1579C86.4886 13.1579 86.5789 13.2171 86.5789 13.2895C86.5789 13.3699 87.193 13.4211 88.1579 13.4211C89.1228 13.4211 89.7368 13.3699 89.7368 13.2895C89.7368 13.2171 89.8299 13.1579 89.9436 13.1579C90.2318 13.1579 90.6438 12.7366 90.4265 12.6641C90.3366 12.6341 90.2632 12.4962 90.2632 12.3575C90.2632 12.2187 90.2039 12.1053 90.1316 12.1053C90.0592 12.1053 90 11.9868 90 11.8421C90 11.6667 89.9122 11.5789 89.7368 11.5789C89.5921 11.5789 89.4737 11.6382 89.4737 11.7105C89.4737 11.7829 89.3553 11.8421 89.2105 11.8421C89.0658 11.8421 88.9474 11.9013 88.9474 11.9737C88.9474 12.048 88.5732 12.1053 88.0878 12.1053C87.2822 12.1053 87.1993 12.0764 86.772 11.6491C86.4916 11.3687 86.3158 11.0646 86.3158 10.8596C86.3158 10.6763 86.2566 10.5263 86.1842 10.5263C86.1118 10.5263 86.0526 10.2895 86.0526 10C86.0526 9.71053 86.1118 9.47368 86.1842 9.47368C86.2566 9.47368 86.3158 9.3829 86.3158 9.27197C86.3158 9.01 87.1679 8.1579 87.4299 8.1579C87.5408 8.1579 87.6316 8.09868 87.6316 8.02632C87.6316 7.95395 87.8092 7.89474 88.0263 7.89474C88.2434 7.89474 88.4211 7.95395 88.4211 8.02632C88.4211 8.09868 88.5987 8.1579 88.8158 8.1579C89.0329 8.1579 89.2105 8.21711 89.2105 8.28947C89.2105 8.48921 89.8616 8.44671 90.0751 8.23303C90.1786 8.12974 90.2632 7.95697 90.2632 7.84934C90.2632 7.74158 90.3355 7.62934 90.424 7.59987C90.6921 7.51053 89.9174 6.84211 89.5454 6.84211C89.3612 6.84211 89.2105 6.7829 89.2105 6.71053C89.2105 6.63382 88.772 6.57895 88.1579 6.57895C87.5438 6.57895 87.1053 6.63382 87.1053 6.71053ZM93.6842 6.71053C93.6842 6.7829 93.5196 6.84211 93.3186 6.84211C93.1038 6.84211 92.8746 6.95079 92.7632 7.10526C92.6588 7.25 92.4682 7.36842 92.3393 7.36842C92.2026 7.36842 92.1053 7.46579 92.1053 7.6025C92.1053 7.73132 91.9868 7.92197 91.8421 8.02632C91.6974 8.13066 91.5789 8.32132 91.5789 8.45013C91.5789 8.57882 91.5197 8.68421 91.4474 8.68421C91.3676 8.68421 91.3158 9.25434 91.3158 10.1316C91.3158 11.0088 91.3676 11.5789 91.4474 11.5789C91.5197 11.5789 91.5789 11.6693 91.5789 11.7797C91.5789 12.0409 92.6959 13.1579 92.9571 13.1579C93.0675 13.1579 93.1579 13.2171 93.1579 13.2895C93.1579 13.3684 93.6842 13.4211 94.4737 13.4211C95.2632 13.4211 95.7895 13.3684 95.7895 13.2895C95.7895 13.2171 95.9079 13.1579 96.0526 13.1579C96.1974 13.1579 96.3158 13.0987 96.3158 13.0263C96.3158 12.9539 96.375 12.8947 96.4474 12.8947C96.5197 12.8947 96.5789 13.0132 96.5789 13.1579C96.5789 13.3918 96.6667 13.4211 97.3684 13.4211H98.1579V10.1316V6.84211H97.3684C96.6667 6.84211 96.5789 6.87132 96.5789 7.10526C96.5789 7.25 96.5328 7.36842 96.4765 7.36842C96.42 7.36842 96.2886 7.25 96.1842 7.10526C96.0799 6.96053 95.8892 6.84211 95.7604 6.84211C95.6317 6.84211 95.5263 6.7829 95.5263 6.71053C95.5263 6.6354 95.1316 6.57895 94.6053 6.57895C94.0789 6.57895 93.6842 6.6354 93.6842 6.71053ZM102.368 6.71053C102.368 6.7829 102.25 6.84211 102.105 6.84211C101.961 6.84211 101.842 6.90132 101.842 6.97368C101.842 7.04605 101.724 7.10526 101.579 7.10526C101.434 7.10526 101.316 7.04605 101.316 6.97368C101.316 6.90132 101.02 6.84211 100.658 6.84211H100V10.1316V13.4211H100.658H101.316V11.3158C101.316 10 101.365 9.21053 101.447 9.21053C101.52 9.21053 101.579 9.05829 101.579 8.87224C101.579 8.44053 101.862 8.1579 102.293 8.1579C102.479 8.1579 102.632 8.09868 102.632 8.02632C102.632 7.95395 102.75 7.89474 102.895 7.89474C103.039 7.89474 103.158 7.95395 103.158 8.02632C103.158 8.22171 103.544 8.18553 103.759 7.96987C103.863 7.86658 103.947 7.63461 103.947 7.45461C103.947 7.27447 104.021 7.10276 104.111 7.07276C104.229 7.03316 104.214 6.95842 104.054 6.79868C103.809 6.55382 102.368 6.47855 102.368 6.71053ZM54.4737 8.02632C54.4737 8.09868 54.6243 8.1579 54.8086 8.1579C55.1779 8.1579 55.7895 8.6875 55.7895 9.00724C55.7895 9.11908 55.8487 9.21053 55.9211 9.21053C55.9954 9.21053 56.0526 9.58447 56.0526 10.0692C56.0526 10.9108 56.0409 10.9397 55.464 11.5166C54.8963 12.0842 54.8468 12.1053 54.078 12.1053C53.3437 12.1053 53.2446 12.0692 52.8246 11.6491C52.5737 11.3983 52.3684 11.1022 52.3684 10.9912C52.3684 10.8803 52.3092 10.7895 52.2368 10.7895C52.1645 10.7895 52.1053 10.4934 52.1053 10.1316C52.1053 9.76974 52.1645 9.47368 52.2368 9.47368C52.3092 9.47368 52.3684 9.3829 52.3684 9.27197C52.3684 9.01 53.2205 8.1579 53.4825 8.1579C53.5934 8.1579 53.6842 8.09868 53.6842 8.02632C53.6842 7.95395 53.8618 7.89474 54.0789 7.89474C54.2961 7.89474 54.4737 7.95395 54.4737 8.02632ZM75.7895 8.02632C75.7895 8.09868 75.8809 8.1579 75.9928 8.1579C76.3125 8.1579 76.8421 8.76947 76.8421 9.13882V9.47368H75.2632C73.772 9.47368 73.6842 9.45908 73.6842 9.21053C73.6842 9.06579 73.7434 8.94737 73.8158 8.94737C73.8882 8.94737 73.9474 8.85434 73.9474 8.74066C73.9474 8.62684 74.032 8.44921 74.1354 8.34592C74.2387 8.2425 74.4163 8.1579 74.5301 8.1579C74.6438 8.1579 74.7368 8.09868 74.7368 8.02632C74.7368 7.95395 74.9737 7.89474 75.2632 7.89474C75.5526 7.89474 75.7895 7.95395 75.7895 8.02632ZM95 8.02632C95 8.09868 95.15 8.1579 95.3333 8.1579C95.8487 8.1579 96.5789 8.95895 96.5789 9.52408C96.5789 9.77382 96.653 10.0126 96.7434 10.0549C96.875 10.1162 96.875 10.147 96.7434 10.2083C96.653 10.2505 96.5789 10.4578 96.5789 10.6688C96.5789 10.88 96.5197 11.0526 96.4474 11.0526C96.375 11.0526 96.3158 11.1457 96.3158 11.2593C96.3158 11.5253 95.9989 11.8421 95.733 11.8421C95.6193 11.8421 95.5263 11.9013 95.5263 11.9737C95.5263 12.0468 95.1754 12.1053 94.7368 12.1053C94.2983 12.1053 93.9474 12.0468 93.9474 11.9737C93.9474 11.9013 93.8559 11.8421 93.7441 11.8421C93.4243 11.8421 92.8947 11.2305 92.8947 10.8612C92.8947 10.677 92.8355 10.5263 92.7632 10.5263C92.6908 10.5263 92.6316 10.3487 92.6316 10.1316C92.6316 9.91447 92.6908 9.73684 92.7632 9.73684C92.8355 9.73684 92.8947 9.58684 92.8947 9.40355C92.8947 9.0329 93.6772 8.1579 94.0088 8.1579C94.1197 8.1579 94.2105 8.09868 94.2105 8.02632C94.2105 7.95395 94.3882 7.89474 94.6053 7.89474C94.8224 7.89474 95 7.95395 95 8.02632ZM108.421 8.02632C108.421 8.09868 108.572 8.1579 108.756 8.1579C109.125 8.1579 109.737 8.6875 109.737 9.00724C109.737 9.11908 109.796 9.21053 109.868 9.21053C109.943 9.21053 110 9.58447 110 10.0692C110 10.9108 109.988 10.9397 109.411 11.5166C108.844 12.0842 108.794 12.1053 108.025 12.1053C107.291 12.1053 107.192 12.0692 106.772 11.6491C106.521 11.3983 106.316 11.1022 106.316 10.9912C106.316 10.8803 106.257 10.7895 106.184 10.7895C106.112 10.7895 106.053 10.4934 106.053 10.1316C106.053 9.76974 106.112 9.47368 106.184 9.47368C106.257 9.47368 106.316 9.35526 106.316 9.21053C106.316 9.06579 106.375 8.94737 106.447 8.94737C106.52 8.94737 106.579 8.82895 106.579 8.68421C106.579 8.50882 106.667 8.42105 106.842 8.42105C106.987 8.42105 107.105 8.36184 107.105 8.28947C107.105 8.21711 107.224 8.1579 107.368 8.1579C107.513 8.1579 107.632 8.09868 107.632 8.02632C107.632 7.95395 107.809 7.89474 108.026 7.89474C108.243 7.89474 108.421 7.95395 108.421 8.02632ZM112.632 13.1014C112.632 13.2153 112.716 13.3929 112.82 13.4962C113.144 13.8211 113.421 13.7259 113.421 13.2895C113.421 12.9386 113.377 12.8947 113.026 12.8947C112.755 12.8947 112.632 12.9595 112.632 13.1014ZM31.3158 15.8646C31.3158 15.9624 31.6692 16.3158 31.767 16.3158C31.8083 16.3158 31.8421 16.1974 31.8421 16.0526C31.8421 15.8772 31.7543 15.7895 31.5789 15.7895C31.4342 15.7895 31.3158 15.8233 31.3158 15.8646Z" fill="#F0F0F0"/>
</svg>
