<svg width="20" height="20" viewBox="0 0 20 20" fill="none" xmlns="http://www.w3.org/2000/svg">
<path d="M10 11.25C13.3375 11.25 20 12.925 20 16.25V20H0V16.25C0 12.925 6.6625 11.25 10 11.25ZM10 0C11.3261 0 12.5979 0.526784 13.5355 1.46447C14.4732 2.40215 15 3.67392 15 5C15 6.32608 14.4732 7.59785 13.5355 8.53553C12.5979 9.47322 11.3261 10 10 10C8.67392 10 7.40215 9.47322 6.46447 8.53553C5.52678 7.59785 5 6.32608 5 5C5 3.67392 5.52678 2.40215 6.46447 1.46447C7.40215 0.526784 8.67392 0 10 0ZM10 13.625C6.2875 13.625 2.375 15.45 2.375 16.25V17.625H17.625V16.25C17.625 15.45 13.7125 13.625 10 13.625ZM10 2.375C9.30381 2.375 8.63613 2.65156 8.14384 3.14384C7.65156 3.63613 7.375 4.30381 7.375 5C7.375 5.69619 7.65156 6.36387 8.14384 6.85616C8.63613 7.34844 9.30381 7.625 10 7.625C10.6962 7.625 11.3639 7.34844 11.8562 6.85616C12.3484 6.36387 12.625 5.69619 12.625 5C12.625 4.30381 12.3484 3.63613 11.8562 3.14384C11.3639 2.65156 10.6962 2.375 10 2.375Z" fill="#29BBF3"/>
</svg>
