<svg width="26" height="26" viewBox="0 0 26 26" fill="none" xmlns="http://www.w3.org/2000/svg">
<path fill-rule="evenodd" clip-rule="evenodd" d="M0.964844 0.0253906C0.964844 0.0393555 0.930566 0.0507812 0.888672 0.0507812C0.846777 0.0507812 0.8125 0.062207 0.8125 0.0761719C0.8125 0.0901367 0.780736 0.101562 0.741939 0.101562C0.700502 0.101562 0.656272 0.122535 0.634766 0.152344C0.614631 0.180273 0.583324 0.203125 0.565221 0.203125C0.522285 0.203125 0.203125 0.522285 0.203125 0.565221C0.203125 0.583324 0.180273 0.614631 0.152344 0.634766C0.122535 0.656272 0.101562 0.700502 0.101562 0.741939C0.101562 0.780736 0.0901367 0.8125 0.0761719 0.8125C0.062207 0.8125 0.0507812 0.846777 0.0507812 0.888672C0.0507812 0.930566 0.0393555 0.964844 0.0253906 0.964844C0.00853125 0.964844 0 3.08072 0 7.26172C0 11.4427 0.00853125 13.5586 0.0253906 13.5586C0.0393555 13.5586 0.0507812 13.5762 0.0507812 13.5978C0.0507812 13.6486 0.163871 13.7617 0.214678 13.7617C0.23626 13.7617 0.253906 13.7731 0.253906 13.7871C0.253906 13.8037 0.660156 13.8125 1.42188 13.8125C2.18359 13.8125 2.58984 13.8037 2.58984 13.7871C2.58984 13.7731 2.60749 13.7617 2.62907 13.7617C2.67988 13.7617 2.79297 13.6486 2.79297 13.5978C2.79297 13.5762 2.80439 13.5586 2.81836 13.5586C2.83509 13.5586 2.84375 12.7715 2.84375 11.248V8.9375H4.08789C4.90039 8.9375 5.33203 8.92869 5.33203 8.91211C5.33203 8.89761 5.4082 8.88672 5.50977 8.88672C5.61133 8.88672 5.6875 8.87583 5.6875 8.86133C5.6875 8.84736 5.74463 8.83594 5.81445 8.83594C5.88428 8.83594 5.94141 8.82451 5.94141 8.81055C5.94141 8.79658 5.98711 8.78516 6.04297 8.78516C6.09883 8.78516 6.14453 8.77373 6.14453 8.75977C6.14453 8.7458 6.17881 8.73438 6.2207 8.73438C6.2626 8.73438 6.29688 8.72295 6.29688 8.70898C6.29688 8.69502 6.33115 8.68359 6.37305 8.68359C6.41494 8.68359 6.44922 8.67217 6.44922 8.6582C6.44922 8.64424 6.47207 8.63281 6.5 8.63281C6.52793 8.63281 6.55078 8.62139 6.55078 8.60742C6.55078 8.59346 6.58506 8.58203 6.62695 8.58203C6.66885 8.58203 6.70312 8.57061 6.70312 8.55664C6.70312 8.54268 6.72598 8.53125 6.75391 8.53125C6.78184 8.53125 6.80469 8.51982 6.80469 8.50586C6.80469 8.49189 6.82754 8.48047 6.85547 8.48047C6.8834 8.48047 6.90625 8.46904 6.90625 8.45508C6.90625 8.44111 6.92659 8.42969 6.95142 8.42969C6.97628 8.42969 7.01307 8.40684 7.0332 8.37891C7.05334 8.35098 7.09013 8.32812 7.11499 8.32812C7.13982 8.32812 7.16016 8.3167 7.16016 8.30273C7.16016 8.28877 7.18049 8.27734 7.20533 8.27734C7.23018 8.27734 7.26697 8.25449 7.28711 8.22656C7.30724 8.19863 7.34152 8.17578 7.36328 8.17578C7.38504 8.17578 7.41932 8.15293 7.43945 8.125C7.45959 8.09707 7.49156 8.07422 7.51052 8.07422C7.52949 8.07422 7.5889 8.02852 7.64258 7.97266C7.69625 7.9168 7.75262 7.87109 7.76786 7.87109C7.80404 7.87109 8.27734 7.39779 8.27734 7.36161C8.27734 7.34637 8.32305 7.29 8.37891 7.23633C8.43477 7.18265 8.48047 7.12324 8.48047 7.10427C8.48047 7.08531 8.50332 7.05334 8.53125 7.0332C8.55918 7.01307 8.58203 6.97879 8.58203 6.95703C8.58203 6.93527 8.60488 6.90099 8.63281 6.88086C8.66074 6.86072 8.68359 6.82393 8.68359 6.79908C8.68359 6.77424 8.69502 6.75391 8.70898 6.75391C8.72295 6.75391 8.73438 6.73357 8.73438 6.70874C8.73438 6.68388 8.75723 6.64709 8.78516 6.62695C8.81309 6.60682 8.83594 6.57003 8.83594 6.54517C8.83594 6.52034 8.84736 6.5 8.86133 6.5C8.87529 6.5 8.88672 6.47715 8.88672 6.44922C8.88672 6.42129 8.89814 6.39844 8.91211 6.39844C8.92607 6.39844 8.9375 6.36416 8.9375 6.32227C8.9375 6.28037 8.94893 6.24609 8.96289 6.24609C8.97686 6.24609 8.98828 6.22324 8.98828 6.19531C8.98828 6.16738 8.99971 6.14453 9.01367 6.14453C9.02764 6.14453 9.03906 6.12168 9.03906 6.09375C9.03906 6.06582 9.05049 6.04297 9.06445 6.04297C9.07842 6.04297 9.08984 6.00869 9.08984 5.9668C9.08984 5.9249 9.10127 5.89062 9.11523 5.89062C9.1292 5.89062 9.14062 5.84492 9.14062 5.78906C9.14062 5.7332 9.15205 5.6875 9.16602 5.6875C9.17998 5.6875 9.19141 5.65322 9.19141 5.61133C9.19141 5.56943 9.20283 5.53516 9.2168 5.53516C9.23076 5.53516 9.24219 5.47803 9.24219 5.4082C9.24219 5.33838 9.25361 5.28125 9.26758 5.28125C9.28208 5.28125 9.29297 5.20508 9.29297 5.10352C9.29297 5.00195 9.30386 4.92578 9.31836 4.92578C9.33436 4.92578 9.34375 4.7565 9.34375 4.46875C9.34375 4.181 9.33436 4.01172 9.31836 4.01172C9.30386 4.01172 9.29297 3.93555 9.29297 3.83398C9.29297 3.73242 9.28208 3.65625 9.26758 3.65625C9.25361 3.65625 9.24219 3.59912 9.24219 3.5293C9.24219 3.45947 9.23076 3.40234 9.2168 3.40234C9.20283 3.40234 9.19141 3.35664 9.19141 3.30078C9.19141 3.24492 9.17998 3.19922 9.16602 3.19922C9.15205 3.19922 9.14062 3.16494 9.14062 3.12305C9.14062 3.08115 9.1292 3.04688 9.11523 3.04688C9.10127 3.04688 9.08984 3.0126 9.08984 2.9707C9.08984 2.92881 9.07842 2.89453 9.06445 2.89453C9.05049 2.89453 9.03906 2.87168 9.03906 2.84375C9.03906 2.81582 9.02764 2.79297 9.01367 2.79297C8.99971 2.79297 8.98828 2.77012 8.98828 2.74219C8.98828 2.71426 8.97686 2.69141 8.96289 2.69141C8.94893 2.69141 8.9375 2.65713 8.9375 2.61523C8.9375 2.57334 8.92607 2.53906 8.91211 2.53906C8.89814 2.53906 8.88672 2.51621 8.88672 2.48828C8.88672 2.46035 8.87529 2.4375 8.86133 2.4375C8.84736 2.4375 8.83594 2.41716 8.83594 2.39233C8.83594 2.36747 8.81309 2.33068 8.78516 2.31055C8.75723 2.29041 8.73438 2.25362 8.73438 2.22876C8.73438 2.20393 8.72295 2.18359 8.70898 2.18359C8.69502 2.18359 8.68359 2.16326 8.68359 2.13842C8.68359 2.11357 8.66074 2.07678 8.63281 2.05664C8.60488 2.03651 8.58203 2.00223 8.58203 1.98047C8.58203 1.95871 8.55918 1.92443 8.53125 1.9043C8.50332 1.88416 8.48047 1.8522 8.48047 1.83323C8.48047 1.81426 8.43477 1.75485 8.37891 1.70117C8.32305 1.6475 8.27734 1.59113 8.27734 1.57589C8.27734 1.53971 7.80404 1.06641 7.76786 1.06641C7.75262 1.06641 7.69625 1.0207 7.64258 0.964844C7.5889 0.908984 7.52949 0.863281 7.51052 0.863281C7.49156 0.863281 7.45959 0.84043 7.43945 0.8125C7.41932 0.78457 7.38504 0.761719 7.36328 0.761719C7.34152 0.761719 7.30724 0.738867 7.28711 0.710938C7.26697 0.683008 7.2327 0.660156 7.21094 0.660156C7.18918 0.660156 7.1549 0.637305 7.13477 0.609375C7.11463 0.581445 7.07784 0.558594 7.05298 0.558594C7.02815 0.558594 7.00781 0.547168 7.00781 0.533203C7.00781 0.519238 6.98496 0.507812 6.95703 0.507812C6.9291 0.507812 6.90625 0.496387 6.90625 0.482422C6.90625 0.468457 6.8834 0.457031 6.85547 0.457031C6.82754 0.457031 6.80469 0.445605 6.80469 0.431641C6.80469 0.417676 6.77041 0.40625 6.72852 0.40625C6.68662 0.40625 6.65234 0.394824 6.65234 0.380859C6.65234 0.366895 6.62949 0.355469 6.60156 0.355469C6.57363 0.355469 6.55078 0.344043 6.55078 0.330078C6.55078 0.316113 6.52793 0.304688 6.5 0.304688C6.47207 0.304688 6.44922 0.293262 6.44922 0.279297C6.44922 0.265332 6.41494 0.253906 6.37305 0.253906C6.33115 0.253906 6.29688 0.24248 6.29688 0.228516C6.29688 0.214551 6.2626 0.203125 6.2207 0.203125C6.17881 0.203125 6.14453 0.191699 6.14453 0.177734C6.14453 0.16377 6.09883 0.152344 6.04297 0.152344C5.98711 0.152344 5.94141 0.140918 5.94141 0.126953C5.94141 0.112988 5.88428 0.101562 5.81445 0.101562C5.74463 0.101562 5.6875 0.0901367 5.6875 0.0761719C5.6875 0.0616738 5.61133 0.0507812 5.50977 0.0507812C5.4082 0.0507812 5.33203 0.0398887 5.33203 0.0253906C5.33203 0.0086582 4.58725 0 3.14844 0C1.70963 0 0.964844 0.0086582 0.964844 0.0253906ZM5.28125 0.837891C5.28125 0.852389 5.35742 0.863281 5.45898 0.863281C5.56055 0.863281 5.63672 0.874174 5.63672 0.888672C5.63672 0.902637 5.68242 0.914062 5.73828 0.914062C5.79414 0.914062 5.83984 0.925488 5.83984 0.939453C5.83984 0.953418 5.87412 0.964844 5.91602 0.964844C5.95791 0.964844 5.99219 0.97627 5.99219 0.990234C5.99219 1.0042 6.02646 1.01562 6.06836 1.01562C6.11025 1.01562 6.14453 1.02705 6.14453 1.04102C6.14453 1.05498 6.17881 1.06641 6.2207 1.06641C6.2626 1.06641 6.29688 1.07783 6.29688 1.0918C6.29688 1.10576 6.31973 1.11719 6.34766 1.11719C6.37559 1.11719 6.39844 1.12861 6.39844 1.14258C6.39844 1.15654 6.42129 1.16797 6.44922 1.16797C6.47715 1.16797 6.5 1.17939 6.5 1.19336C6.5 1.20732 6.52285 1.21875 6.55078 1.21875C6.57871 1.21875 6.60156 1.23018 6.60156 1.24414C6.60156 1.25811 6.6219 1.26953 6.64673 1.26953C6.67159 1.26953 6.70838 1.29238 6.72852 1.32031C6.74865 1.34824 6.78293 1.37109 6.80469 1.37109C6.82645 1.37109 6.86072 1.39395 6.88086 1.42188C6.90099 1.4498 6.93527 1.47266 6.95703 1.47266C6.97879 1.47266 7.01307 1.49551 7.0332 1.52344C7.05334 1.55137 7.08454 1.57422 7.10254 1.57422C7.14525 1.57422 7.76953 2.1985 7.76953 2.2412C7.76953 2.25921 7.79238 2.29041 7.82031 2.31055C7.84824 2.33068 7.87109 2.36496 7.87109 2.38672C7.87109 2.40848 7.89395 2.44276 7.92188 2.46289C7.9498 2.48303 7.97266 2.5173 7.97266 2.53906C7.97266 2.56082 7.99551 2.5951 8.02344 2.61523C8.05137 2.63537 8.07422 2.67216 8.07422 2.69702C8.07422 2.72185 8.08564 2.74219 8.09961 2.74219C8.11357 2.74219 8.125 2.76504 8.125 2.79297C8.125 2.8209 8.13643 2.84375 8.15039 2.84375C8.16436 2.84375 8.17578 2.8666 8.17578 2.89453C8.17578 2.92246 8.18721 2.94531 8.20117 2.94531C8.21514 2.94531 8.22656 2.96816 8.22656 2.99609C8.22656 3.02402 8.23799 3.04688 8.25195 3.04688C8.26592 3.04688 8.27734 3.08115 8.27734 3.12305C8.27734 3.16494 8.28877 3.19922 8.30273 3.19922C8.3167 3.19922 8.32812 3.2335 8.32812 3.27539C8.32812 3.31729 8.33955 3.35156 8.35352 3.35156C8.36748 3.35156 8.37891 3.38584 8.37891 3.42773C8.37891 3.46963 8.39033 3.50391 8.4043 3.50391C8.41826 3.50391 8.42969 3.54961 8.42969 3.60547C8.42969 3.66133 8.44111 3.70703 8.45508 3.70703C8.46958 3.70703 8.48047 3.7832 8.48047 3.88477C8.48047 3.98633 8.49136 4.0625 8.50586 4.0625C8.52173 4.0625 8.53125 4.21484 8.53125 4.46875C8.53125 4.72266 8.52173 4.875 8.50586 4.875C8.49136 4.875 8.48047 4.95117 8.48047 5.05273C8.48047 5.1543 8.46958 5.23047 8.45508 5.23047C8.44111 5.23047 8.42969 5.27617 8.42969 5.33203C8.42969 5.38789 8.41826 5.43359 8.4043 5.43359C8.39033 5.43359 8.37891 5.46787 8.37891 5.50977C8.37891 5.55166 8.36748 5.58594 8.35352 5.58594C8.33955 5.58594 8.32812 5.62021 8.32812 5.66211C8.32812 5.704 8.3167 5.73828 8.30273 5.73828C8.28877 5.73828 8.27734 5.77256 8.27734 5.81445C8.27734 5.85635 8.26592 5.89062 8.25195 5.89062C8.23799 5.89062 8.22656 5.91348 8.22656 5.94141C8.22656 5.96934 8.21514 5.99219 8.20117 5.99219C8.18721 5.99219 8.17578 6.01504 8.17578 6.04297C8.17578 6.0709 8.16436 6.09375 8.15039 6.09375C8.13643 6.09375 8.125 6.1166 8.125 6.14453C8.125 6.17246 8.11357 6.19531 8.09961 6.19531C8.08564 6.19531 8.07422 6.21565 8.07422 6.24048C8.07422 6.26534 8.05137 6.30213 8.02344 6.32227C7.99551 6.3424 7.97266 6.37668 7.97266 6.39844C7.97266 6.4202 7.9498 6.45447 7.92188 6.47461C7.89395 6.49474 7.87109 6.52902 7.87109 6.55078C7.87109 6.57254 7.84824 6.60682 7.82031 6.62695C7.79238 6.64709 7.76953 6.67829 7.76953 6.69629C7.76953 6.739 7.14525 7.36328 7.10254 7.36328C7.08454 7.36328 7.05334 7.38613 7.0332 7.41406C7.01307 7.44199 6.97879 7.46484 6.95703 7.46484C6.93527 7.46484 6.90099 7.4877 6.88086 7.51562C6.86072 7.54355 6.82645 7.56641 6.80469 7.56641C6.78293 7.56641 6.74865 7.58926 6.72852 7.61719C6.70838 7.64512 6.67159 7.66797 6.64673 7.66797C6.6219 7.66797 6.60156 7.67939 6.60156 7.69336C6.60156 7.70732 6.57871 7.71875 6.55078 7.71875C6.52285 7.71875 6.5 7.73018 6.5 7.74414C6.5 7.75811 6.47715 7.76953 6.44922 7.76953C6.42129 7.76953 6.39844 7.78096 6.39844 7.79492C6.39844 7.80889 6.37559 7.82031 6.34766 7.82031C6.31973 7.82031 6.29688 7.83174 6.29688 7.8457C6.29688 7.85967 6.2626 7.87109 6.2207 7.87109C6.17881 7.87109 6.14453 7.88252 6.14453 7.89648C6.14453 7.91045 6.11025 7.92188 6.06836 7.92188C6.02646 7.92188 5.99219 7.9333 5.99219 7.94727C5.99219 7.96123 5.95791 7.97266 5.91602 7.97266C5.87412 7.97266 5.83984 7.98408 5.83984 7.99805C5.83984 8.01201 5.79414 8.02344 5.73828 8.02344C5.68242 8.02344 5.63672 8.03486 5.63672 8.04883C5.63672 8.06333 5.56055 8.07422 5.45898 8.07422C5.35742 8.07422 5.28125 8.08511 5.28125 8.09961C5.28125 8.11624 4.76498 8.125 3.7832 8.125C2.80142 8.125 2.28516 8.13376 2.28516 8.15039C2.28516 8.16436 2.26751 8.17578 2.24593 8.17578C2.19512 8.17578 2.08203 8.28887 2.08203 8.33968C2.08203 8.36126 2.07061 8.37891 2.05664 8.37891C2.03991 8.37891 2.03125 9.16602 2.03125 10.6895V13H1.42188H0.8125V7.0332C0.8125 3.07227 0.821031 1.06641 0.837891 1.06641C0.851855 1.06641 0.863281 1.04876 0.863281 1.02718C0.863281 1.0056 0.891338 0.959893 0.925615 0.925615C0.959893 0.891338 1.0056 0.863281 1.02718 0.863281C1.04876 0.863281 1.06641 0.851855 1.06641 0.837891C1.06641 0.821158 1.7858 0.8125 3.17383 0.8125C4.56186 0.8125 5.28125 0.821158 5.28125 0.837891ZM2.28516 2.05664C2.28516 2.07061 2.26751 2.08203 2.24593 2.08203C2.19512 2.08203 2.08203 2.19512 2.08203 2.24593C2.08203 2.26751 2.07061 2.28516 2.05664 2.28516C2.03991 2.28516 2.03125 3.02994 2.03125 4.46875C2.03125 5.90756 2.03991 6.65234 2.05664 6.65234C2.07061 6.65234 2.08203 6.66999 2.08203 6.69157C2.08203 6.74238 2.19512 6.85547 2.24593 6.85547C2.26751 6.85547 2.28516 6.86689 2.28516 6.88086C2.28516 6.89749 2.79297 6.90625 3.75781 6.90625C4.72266 6.90625 5.23047 6.89749 5.23047 6.88086C5.23047 6.86689 5.2876 6.85547 5.35742 6.85547C5.42725 6.85547 5.48438 6.84404 5.48438 6.83008C5.48438 6.81611 5.51865 6.80469 5.56055 6.80469C5.60244 6.80469 5.63672 6.79326 5.63672 6.7793C5.63672 6.76533 5.671 6.75391 5.71289 6.75391C5.75479 6.75391 5.78906 6.74248 5.78906 6.72852C5.78906 6.71455 5.81191 6.70312 5.83984 6.70312C5.86777 6.70312 5.89062 6.6917 5.89062 6.67773C5.89062 6.66377 5.91348 6.65234 5.94141 6.65234C5.96934 6.65234 5.99219 6.64092 5.99219 6.62695C5.99219 6.61299 6.01504 6.60156 6.04297 6.60156C6.0709 6.60156 6.09375 6.59014 6.09375 6.57617C6.09375 6.56221 6.11409 6.55078 6.13892 6.55078C6.16378 6.55078 6.20057 6.52793 6.2207 6.5C6.24084 6.47207 6.27204 6.44922 6.29007 6.44922C6.3081 6.44922 6.44269 6.32937 6.58917 6.18292C6.73562 6.03644 6.85547 5.90185 6.85547 5.88382C6.85547 5.86579 6.87832 5.83459 6.90625 5.81445C6.93418 5.79432 6.95703 5.75753 6.95703 5.73267C6.95703 5.70784 6.96846 5.6875 6.98242 5.6875C6.99639 5.6875 7.00781 5.66465 7.00781 5.63672C7.00781 5.60879 7.01924 5.58594 7.0332 5.58594C7.04717 5.58594 7.05859 5.56309 7.05859 5.53516C7.05859 5.50723 7.07002 5.48438 7.08398 5.48438C7.09795 5.48438 7.10938 5.46152 7.10938 5.43359C7.10938 5.40566 7.1208 5.38281 7.13477 5.38281C7.14873 5.38281 7.16016 5.34854 7.16016 5.30664C7.16016 5.26475 7.17158 5.23047 7.18555 5.23047C7.19951 5.23047 7.21094 5.19619 7.21094 5.1543C7.21094 5.1124 7.22236 5.07812 7.23633 5.07812C7.25029 5.07812 7.26172 5.021 7.26172 4.95117C7.26172 4.88135 7.27314 4.82422 7.28711 4.82422C7.30283 4.82422 7.3125 4.68881 7.3125 4.46875C7.3125 4.24869 7.30283 4.11328 7.28711 4.11328C7.27314 4.11328 7.26172 4.05615 7.26172 3.98633C7.26172 3.9165 7.25029 3.85938 7.23633 3.85938C7.22236 3.85938 7.21094 3.8251 7.21094 3.7832C7.21094 3.74131 7.19951 3.70703 7.18555 3.70703C7.17158 3.70703 7.16016 3.67275 7.16016 3.63086C7.16016 3.58896 7.14873 3.55469 7.13477 3.55469C7.1208 3.55469 7.10938 3.53184 7.10938 3.50391C7.10938 3.47598 7.09795 3.45312 7.08398 3.45312C7.07002 3.45312 7.05859 3.43027 7.05859 3.40234C7.05859 3.37441 7.04717 3.35156 7.0332 3.35156C7.01924 3.35156 7.00781 3.32871 7.00781 3.30078C7.00781 3.27285 6.99639 3.25 6.98242 3.25C6.96846 3.25 6.95703 3.22966 6.95703 3.20483C6.95703 3.17997 6.93418 3.14318 6.90625 3.12305C6.87832 3.10291 6.85547 3.07171 6.85547 3.05368C6.85547 3.0109 6.33285 2.48828 6.29007 2.48828C6.27204 2.48828 6.24084 2.46543 6.2207 2.4375C6.20057 2.40957 6.16378 2.38672 6.13892 2.38672C6.11409 2.38672 6.09375 2.37529 6.09375 2.36133C6.09375 2.34736 6.0709 2.33594 6.04297 2.33594C6.01504 2.33594 5.99219 2.32451 5.99219 2.31055C5.99219 2.29658 5.96934 2.28516 5.94141 2.28516C5.91348 2.28516 5.89062 2.27373 5.89062 2.25977C5.89062 2.2458 5.86777 2.23438 5.83984 2.23438C5.81191 2.23438 5.78906 2.22295 5.78906 2.20898C5.78906 2.19502 5.75479 2.18359 5.71289 2.18359C5.671 2.18359 5.63672 2.17217 5.63672 2.1582C5.63672 2.14424 5.60244 2.13281 5.56055 2.13281C5.51865 2.13281 5.48438 2.12139 5.48438 2.10742C5.48438 2.09346 5.42725 2.08203 5.35742 2.08203C5.2876 2.08203 5.23047 2.07061 5.23047 2.05664C5.23047 2.04001 4.72266 2.03125 3.75781 2.03125C2.79297 2.03125 2.28516 2.04001 2.28516 2.05664ZM5.12891 2.86914C5.12891 2.88311 5.18604 2.89453 5.25586 2.89453C5.32568 2.89453 5.38281 2.90596 5.38281 2.91992C5.38281 2.93389 5.40566 2.94531 5.43359 2.94531C5.46152 2.94531 5.48438 2.95674 5.48438 2.9707C5.48438 2.98467 5.50723 2.99609 5.53516 2.99609C5.56309 2.99609 5.58594 3.00752 5.58594 3.02148C5.58594 3.03545 5.60879 3.04688 5.63672 3.04688C5.66465 3.04688 5.6875 3.0583 5.6875 3.07227C5.6875 3.08623 5.70784 3.09766 5.73267 3.09766C5.75753 3.09766 5.79432 3.12051 5.81445 3.14844C5.83459 3.17637 5.86597 3.19922 5.8842 3.19922C5.92734 3.19922 6.14453 3.41641 6.14453 3.45955C6.14453 3.47778 6.16738 3.50916 6.19531 3.5293C6.22324 3.54943 6.24609 3.58622 6.24609 3.61108C6.24609 3.63591 6.25752 3.65625 6.27148 3.65625C6.28545 3.65625 6.29688 3.6791 6.29688 3.70703C6.29688 3.73496 6.3083 3.75781 6.32227 3.75781C6.33623 3.75781 6.34766 3.78066 6.34766 3.80859C6.34766 3.83652 6.35908 3.85938 6.37305 3.85938C6.38701 3.85938 6.39844 3.88223 6.39844 3.91016C6.39844 3.93809 6.40986 3.96094 6.42383 3.96094C6.43779 3.96094 6.44922 4.01807 6.44922 4.08789C6.44922 4.15771 6.46064 4.21484 6.47461 4.21484C6.48984 4.21484 6.5 4.31641 6.5 4.46875C6.5 4.62109 6.48984 4.72266 6.47461 4.72266C6.46064 4.72266 6.44922 4.77979 6.44922 4.84961C6.44922 4.91943 6.43779 4.97656 6.42383 4.97656C6.40986 4.97656 6.39844 4.99941 6.39844 5.02734C6.39844 5.05527 6.38701 5.07812 6.37305 5.07812C6.35908 5.07812 6.34766 5.10098 6.34766 5.12891C6.34766 5.15684 6.33623 5.17969 6.32227 5.17969C6.3083 5.17969 6.29688 5.20254 6.29688 5.23047C6.29688 5.2584 6.28545 5.28125 6.27148 5.28125C6.25752 5.28125 6.24609 5.30159 6.24609 5.32642C6.24609 5.35128 6.22324 5.38807 6.19531 5.4082C6.16738 5.42834 6.14453 5.45972 6.14453 5.47795C6.14453 5.52109 5.92734 5.73828 5.8842 5.73828C5.86597 5.73828 5.83459 5.76113 5.81445 5.78906C5.79432 5.81699 5.75753 5.83984 5.73267 5.83984C5.70784 5.83984 5.6875 5.85127 5.6875 5.86523C5.6875 5.8792 5.66465 5.89062 5.63672 5.89062C5.60879 5.89062 5.58594 5.90205 5.58594 5.91602C5.58594 5.92998 5.56309 5.94141 5.53516 5.94141C5.50723 5.94141 5.48438 5.95283 5.48438 5.9668C5.48438 5.98076 5.46152 5.99219 5.43359 5.99219C5.40566 5.99219 5.38281 6.00361 5.38281 6.01758C5.38281 6.03154 5.32568 6.04297 5.25586 6.04297C5.18604 6.04297 5.12891 6.05439 5.12891 6.06836C5.12891 6.08491 4.73111 6.09375 3.98633 6.09375H2.84375V4.46875V2.84375H3.98633C4.73111 2.84375 5.12891 2.85259 5.12891 2.86914ZM8.98828 10.2324C8.98828 10.2464 8.94258 10.2578 8.88672 10.2578C8.83086 10.2578 8.78516 10.2692 8.78516 10.2832C8.78516 10.2972 8.75088 10.3086 8.70898 10.3086C8.66709 10.3086 8.63281 10.32 8.63281 10.334C8.63281 10.3479 8.60996 10.3594 8.58203 10.3594C8.5541 10.3594 8.53125 10.3708 8.53125 10.3848C8.53125 10.3987 8.5084 10.4102 8.48047 10.4102C8.45254 10.4102 8.42969 10.4216 8.42969 10.4355C8.42969 10.4495 8.40935 10.4609 8.38452 10.4609C8.35966 10.4609 8.32287 10.4838 8.30273 10.5117C8.2826 10.5396 8.25137 10.5625 8.23332 10.5625C8.19053 10.5625 7.71875 11.0343 7.71875 11.0771C7.71875 11.0951 7.6959 11.1263 7.66797 11.1465C7.64004 11.1666 7.61719 11.2034 7.61719 11.2283C7.61719 11.2531 7.60576 11.2734 7.5918 11.2734C7.57783 11.2734 7.56641 11.2963 7.56641 11.3242C7.56641 11.3521 7.55498 11.375 7.54102 11.375C7.52705 11.375 7.51562 11.4093 7.51562 11.4512C7.51562 11.4931 7.5042 11.5273 7.49023 11.5273C7.47627 11.5273 7.46484 11.5616 7.46484 11.6035C7.46484 11.6454 7.45342 11.6797 7.43945 11.6797C7.42549 11.6797 7.41406 11.7025 7.41406 11.7305C7.41406 11.7584 7.40264 11.7812 7.38867 11.7812C7.37471 11.7812 7.36328 11.8041 7.36328 11.832C7.36328 11.86 7.35186 11.8828 7.33789 11.8828C7.32393 11.8828 7.3125 11.9057 7.3125 11.9336C7.3125 11.9615 7.30107 11.9844 7.28711 11.9844C7.27314 11.9844 7.26172 12.0187 7.26172 12.0605C7.26172 12.1024 7.25029 12.1367 7.23633 12.1367C7.22236 12.1367 7.21094 12.1596 7.21094 12.1875C7.21094 12.2154 7.19951 12.2383 7.18555 12.2383C7.17158 12.2383 7.16016 12.2611 7.16016 12.2891C7.16016 12.317 7.14873 12.3398 7.13477 12.3398C7.1208 12.3398 7.10938 12.3741 7.10938 12.416C7.10938 12.4579 7.09795 12.4922 7.08398 12.4922C7.07002 12.4922 7.05859 12.515 7.05859 12.543C7.05859 12.5709 7.04717 12.5938 7.0332 12.5938C7.01924 12.5938 7.00781 12.6166 7.00781 12.6445C7.00781 12.6725 6.99639 12.6953 6.98242 12.6953C6.96846 12.6953 6.95703 12.7182 6.95703 12.7461C6.95703 12.774 6.94561 12.7969 6.93164 12.7969C6.91768 12.7969 6.90625 12.8312 6.90625 12.873C6.90625 12.9149 6.89482 12.9492 6.88086 12.9492C6.86689 12.9492 6.85547 12.9721 6.85547 13C6.85547 13.0279 6.84404 13.0508 6.83008 13.0508C6.81611 13.0508 6.80469 13.0736 6.80469 13.1016C6.80469 13.1295 6.79326 13.1523 6.7793 13.1523C6.76533 13.1523 6.75391 13.1752 6.75391 13.2031C6.75391 13.2311 6.74248 13.2539 6.72852 13.2539C6.71455 13.2539 6.70312 13.2882 6.70312 13.3301C6.70312 13.372 6.6917 13.4062 6.67773 13.4062C6.66377 13.4062 6.65234 13.4291 6.65234 13.457C6.65234 13.485 6.64092 13.5078 6.62695 13.5078C6.61299 13.5078 6.60156 13.5307 6.60156 13.5586C6.60156 13.5865 6.59014 13.6094 6.57617 13.6094C6.56221 13.6094 6.55078 13.6437 6.55078 13.6855C6.55078 13.7274 6.53936 13.7617 6.52539 13.7617C6.51143 13.7617 6.5 13.7846 6.5 13.8125C6.5 13.8404 6.48857 13.8633 6.47461 13.8633C6.46064 13.8633 6.44922 13.8861 6.44922 13.9141C6.44922 13.942 6.43779 13.9648 6.42383 13.9648C6.40986 13.9648 6.39844 13.9877 6.39844 14.0156C6.39844 14.0436 6.38701 14.0664 6.37305 14.0664C6.35908 14.0664 6.34766 14.1007 6.34766 14.1426C6.34766 14.1845 6.33623 14.2188 6.32227 14.2188C6.3083 14.2188 6.29688 14.2416 6.29688 14.2695C6.29688 14.2975 6.28545 14.3203 6.27148 14.3203C6.25752 14.3203 6.24609 14.3432 6.24609 14.3711C6.24609 14.399 6.23467 14.4219 6.2207 14.4219C6.20674 14.4219 6.19531 14.4447 6.19531 14.4727C6.19531 14.5006 6.18389 14.5234 6.16992 14.5234C6.15596 14.5234 6.14453 14.5577 6.14453 14.5996C6.14453 14.6415 6.13311 14.6758 6.11914 14.6758C6.10518 14.6758 6.09375 14.6986 6.09375 14.7266C6.09375 14.7545 6.08232 14.7773 6.06836 14.7773C6.05439 14.7773 6.04297 14.8002 6.04297 14.8281C6.04297 14.8561 6.03154 14.8789 6.01758 14.8789C6.00361 14.8789 5.99219 14.9132 5.99219 14.9551C5.99219 14.997 5.98076 15.0312 5.9668 15.0312C5.95283 15.0312 5.94141 15.0541 5.94141 15.082C5.94141 15.11 5.92998 15.1328 5.91602 15.1328C5.90205 15.1328 5.89062 15.1557 5.89062 15.1836C5.89062 15.2115 5.8792 15.2344 5.86523 15.2344C5.85127 15.2344 5.83984 15.2572 5.83984 15.2852C5.83984 15.3131 5.82842 15.3359 5.81445 15.3359C5.80049 15.3359 5.78906 15.3702 5.78906 15.4121C5.78906 15.454 5.77764 15.4883 5.76367 15.4883C5.74971 15.4883 5.73828 15.5111 5.73828 15.5391C5.73828 15.567 5.72686 15.5898 5.71289 15.5898C5.69893 15.5898 5.6875 15.6127 5.6875 15.6406C5.6875 15.6686 5.67607 15.6914 5.66211 15.6914C5.64814 15.6914 5.63672 15.7143 5.63672 15.7422C5.63672 15.7701 5.62529 15.793 5.61133 15.793C5.59736 15.793 5.58594 15.8272 5.58594 15.8691C5.58594 15.911 5.57451 15.9453 5.56055 15.9453C5.54658 15.9453 5.53516 15.9682 5.53516 15.9961C5.53516 16.024 5.52373 16.0469 5.50977 16.0469C5.4958 16.0469 5.48438 16.0697 5.48438 16.0977C5.48438 16.1256 5.47295 16.1484 5.45898 16.1484C5.44502 16.1484 5.43359 16.1664 5.43359 16.1883C5.43359 16.2545 5.36638 16.3008 5.27036 16.3008C5.22049 16.3008 5.17969 16.3122 5.17969 16.3262C5.17969 16.3401 5.15684 16.3516 5.12891 16.3516C5.10098 16.3516 5.07812 16.363 5.07812 16.377C5.07812 16.3909 5.05527 16.4023 5.02734 16.4023C4.99941 16.4023 4.97656 16.4138 4.97656 16.4277C4.97656 16.4417 4.95371 16.4531 4.92578 16.4531C4.89785 16.4531 4.875 16.4646 4.875 16.4785C4.875 16.4925 4.85466 16.5039 4.82983 16.5039C4.80497 16.5039 4.76818 16.5268 4.74805 16.5547C4.72791 16.5826 4.69653 16.6055 4.6783 16.6055C4.63516 16.6055 4.41797 16.8227 4.41797 16.8658C4.41797 16.884 4.39512 16.9154 4.36719 16.9355C4.33926 16.9557 4.31641 16.99 4.31641 17.0117C4.31641 17.0335 4.29355 17.0678 4.26562 17.0879C4.23582 17.1094 4.21484 17.1536 4.21484 17.1951C4.21484 17.2339 4.20342 17.2656 4.18945 17.2656C4.17549 17.2656 4.16406 17.2885 4.16406 17.3164C4.16406 17.3443 4.15264 17.3672 4.13867 17.3672C4.12471 17.3672 4.11328 17.4129 4.11328 17.4688C4.11328 17.5246 4.10186 17.5703 4.08789 17.5703C4.07108 17.5703 4.0625 18.8314 4.0625 21.3027C4.0625 23.7741 4.07108 25.0352 4.08789 25.0352C4.10186 25.0352 4.11328 25.0694 4.11328 25.1113C4.11328 25.1532 4.12471 25.1875 4.13867 25.1875C4.15264 25.1875 4.16406 25.2193 4.16406 25.2581C4.16406 25.2995 4.18504 25.3437 4.21484 25.3652C4.24277 25.3854 4.26562 25.4167 4.26562 25.4348C4.26562 25.4777 4.58479 25.7969 4.62772 25.7969C4.64582 25.7969 4.67713 25.8197 4.69727 25.8477C4.71877 25.8775 4.763 25.8984 4.80444 25.8984C4.84324 25.8984 4.875 25.9099 4.875 25.9238C4.875 25.9378 4.90928 25.9492 4.95117 25.9492C4.99307 25.9492 5.02734 25.9606 5.02734 25.9746C5.02734 25.9912 5.53516 26 6.5 26C7.46484 26 7.97266 25.9912 7.97266 25.9746C7.97266 25.9606 8.00693 25.9492 8.04883 25.9492C8.09072 25.9492 8.125 25.9378 8.125 25.9238C8.125 25.9099 8.15676 25.8984 8.19556 25.8984C8.237 25.8984 8.28123 25.8775 8.30273 25.8477C8.32287 25.8197 8.35418 25.7969 8.37228 25.7969C8.41521 25.7969 8.73438 25.4777 8.73438 25.4348C8.73438 25.4167 8.75723 25.3854 8.78516 25.3652C8.81497 25.3437 8.83594 25.2995 8.83594 25.2581C8.83594 25.2193 8.84736 25.1875 8.86133 25.1875C8.87529 25.1875 8.88672 25.1532 8.88672 25.1113C8.88672 25.0694 8.89814 25.0352 8.91211 25.0352C8.92823 25.0352 8.9375 24.8405 8.9375 24.502V23.9688H15.0312H21.125V24.502C21.125 24.8405 21.1343 25.0352 21.1504 25.0352C21.1644 25.0352 21.1758 25.0694 21.1758 25.1113C21.1758 25.1532 21.1872 25.1875 21.2012 25.1875C21.2151 25.1875 21.2266 25.2193 21.2266 25.2581C21.2266 25.2995 21.2475 25.3437 21.2773 25.3652C21.3053 25.3854 21.3281 25.4167 21.3281 25.4348C21.3281 25.4777 21.6473 25.7969 21.6902 25.7969C21.7083 25.7969 21.7396 25.8197 21.7598 25.8477C21.7813 25.8775 21.8255 25.8984 21.8669 25.8984C21.9057 25.8984 21.9375 25.9099 21.9375 25.9238C21.9375 25.9378 21.9718 25.9492 22.0137 25.9492C22.0556 25.9492 22.0898 25.9606 22.0898 25.9746C22.0898 25.9912 22.5977 26 23.5625 26C24.5273 26 25.0352 25.9912 25.0352 25.9746C25.0352 25.9606 25.0694 25.9492 25.1113 25.9492C25.1532 25.9492 25.1875 25.9378 25.1875 25.9238C25.1875 25.9099 25.2193 25.8984 25.2581 25.8984C25.2995 25.8984 25.3437 25.8775 25.3652 25.8477C25.3854 25.8197 25.4167 25.7969 25.4348 25.7969C25.4777 25.7969 25.7969 25.4777 25.7969 25.4348C25.7969 25.4167 25.8197 25.3854 25.8477 25.3652C25.8775 25.3437 25.8984 25.2995 25.8984 25.2581C25.8984 25.2193 25.9099 25.1875 25.9238 25.1875C25.9378 25.1875 25.9492 25.1532 25.9492 25.1113C25.9492 25.0694 25.9606 25.0352 25.9746 25.0352C25.9914 25.0352 26 23.7741 26 21.3027C26 18.8314 25.9914 17.5703 25.9746 17.5703C25.9606 17.5703 25.9492 17.5246 25.9492 17.4688C25.9492 17.4129 25.9378 17.3672 25.9238 17.3672C25.9099 17.3672 25.8984 17.3443 25.8984 17.3164C25.8984 17.2885 25.887 17.2656 25.873 17.2656C25.8591 17.2656 25.8477 17.2428 25.8477 17.2148C25.8477 17.1869 25.8362 17.1641 25.8223 17.1641C25.8083 17.1641 25.7969 17.1412 25.7969 17.1133C25.7969 17.0854 25.7854 17.0625 25.7715 17.0625C25.7575 17.0625 25.7461 17.0422 25.7461 17.0173C25.7461 16.9925 25.7232 16.9557 25.6953 16.9355C25.6674 16.9154 25.6445 16.884 25.6445 16.8658C25.6445 16.8476 25.5934 16.7815 25.5309 16.7191C25.4685 16.6566 25.4024 16.6055 25.3842 16.6055C25.366 16.6055 25.3346 16.5826 25.3145 16.5547C25.2943 16.5268 25.26 16.5039 25.2383 16.5039C25.2165 16.5039 25.1822 16.4811 25.1621 16.4531C25.1406 16.4233 25.0964 16.4023 25.0549 16.4023C25.0161 16.4023 24.9844 16.3909 24.9844 16.377C24.9844 16.363 24.9615 16.3516 24.9336 16.3516C24.9057 16.3516 24.8828 16.3401 24.8828 16.3262C24.8828 16.3122 24.842 16.3008 24.7921 16.3008C24.6961 16.3008 24.6289 16.2545 24.6289 16.1883C24.6289 16.1664 24.6175 16.1484 24.6035 16.1484C24.5896 16.1484 24.5781 16.1256 24.5781 16.0977C24.5781 16.0697 24.5667 16.0469 24.5527 16.0469C24.5388 16.0469 24.5273 16.024 24.5273 15.9961C24.5273 15.9682 24.5159 15.9453 24.502 15.9453C24.488 15.9453 24.4766 15.9225 24.4766 15.8945C24.4766 15.8666 24.4651 15.8438 24.4512 15.8438C24.4372 15.8438 24.4258 15.8095 24.4258 15.7676C24.4258 15.7257 24.4144 15.6914 24.4004 15.6914C24.3864 15.6914 24.375 15.6686 24.375 15.6406C24.375 15.6127 24.3636 15.5898 24.3496 15.5898C24.3356 15.5898 24.3242 15.567 24.3242 15.5391C24.3242 15.5111 24.3128 15.4883 24.2988 15.4883C24.2849 15.4883 24.2734 15.454 24.2734 15.4121C24.2734 15.3702 24.262 15.3359 24.248 15.3359C24.2341 15.3359 24.2227 15.3131 24.2227 15.2852C24.2227 15.2572 24.2112 15.2344 24.1973 15.2344C24.1833 15.2344 24.1719 15.2115 24.1719 15.1836C24.1719 15.1557 24.1604 15.1328 24.1465 15.1328C24.1325 15.1328 24.1211 15.11 24.1211 15.082C24.1211 15.0541 24.1097 15.0312 24.0957 15.0312C24.0817 15.0312 24.0703 14.997 24.0703 14.9551C24.0703 14.9132 24.0589 14.8789 24.0449 14.8789C24.031 14.8789 24.0195 14.8561 24.0195 14.8281C24.0195 14.8002 24.0081 14.7773 23.9941 14.7773C23.9802 14.7773 23.9688 14.7545 23.9688 14.7266C23.9688 14.6986 23.9573 14.6758 23.9434 14.6758C23.9294 14.6758 23.918 14.6415 23.918 14.5996C23.918 14.5577 23.9065 14.5234 23.8926 14.5234C23.8786 14.5234 23.8672 14.5006 23.8672 14.4727C23.8672 14.4447 23.8558 14.4219 23.8418 14.4219C23.8278 14.4219 23.8164 14.399 23.8164 14.3711C23.8164 14.3432 23.805 14.3203 23.791 14.3203C23.7771 14.3203 23.7656 14.2975 23.7656 14.2695C23.7656 14.2416 23.7542 14.2188 23.7402 14.2188C23.7263 14.2188 23.7148 14.1845 23.7148 14.1426C23.7148 14.1007 23.7034 14.0664 23.6895 14.0664C23.6755 14.0664 23.6641 14.0436 23.6641 14.0156C23.6641 13.9877 23.6526 13.9648 23.6387 13.9648C23.6247 13.9648 23.6133 13.942 23.6133 13.9141C23.6133 13.8861 23.6019 13.8633 23.5879 13.8633C23.5739 13.8633 23.5625 13.8404 23.5625 13.8125C23.5625 13.7846 23.5511 13.7617 23.5371 13.7617C23.5231 13.7617 23.5117 13.7274 23.5117 13.6855C23.5117 13.6437 23.5003 13.6094 23.4863 13.6094C23.4724 13.6094 23.4609 13.5865 23.4609 13.5586C23.4609 13.5307 23.4495 13.5078 23.4355 13.5078C23.4216 13.5078 23.4102 13.485 23.4102 13.457C23.4102 13.4291 23.3987 13.4062 23.3848 13.4062C23.3708 13.4062 23.3594 13.372 23.3594 13.3301C23.3594 13.2882 23.3479 13.2539 23.334 13.2539C23.32 13.2539 23.3086 13.2311 23.3086 13.2031C23.3086 13.1752 23.2972 13.1523 23.2832 13.1523C23.2692 13.1523 23.2578 13.1295 23.2578 13.1016C23.2578 13.0736 23.2464 13.0508 23.2324 13.0508C23.2185 13.0508 23.207 13.0279 23.207 13C23.207 12.9721 23.1956 12.9492 23.1816 12.9492C23.1677 12.9492 23.1562 12.9149 23.1562 12.873C23.1562 12.8312 23.1448 12.7969 23.1309 12.7969C23.1169 12.7969 23.1055 12.774 23.1055 12.7461C23.1055 12.7182 23.094 12.6953 23.0801 12.6953C23.0661 12.6953 23.0547 12.6725 23.0547 12.6445C23.0547 12.6166 23.0433 12.5938 23.0293 12.5938C23.0153 12.5938 23.0039 12.5595 23.0039 12.5176C23.0039 12.4757 22.9925 12.4414 22.9785 12.4414C22.9646 12.4414 22.9531 12.4186 22.9531 12.3906C22.9531 12.3627 22.9417 12.3398 22.9277 12.3398C22.9138 12.3398 22.9023 12.317 22.9023 12.2891C22.9023 12.2611 22.8909 12.2383 22.877 12.2383C22.863 12.2383 22.8516 12.2154 22.8516 12.1875C22.8516 12.1596 22.8401 12.1367 22.8262 12.1367C22.8122 12.1367 22.8008 12.1024 22.8008 12.0605C22.8008 12.0187 22.7894 11.9844 22.7754 11.9844C22.7614 11.9844 22.75 11.9615 22.75 11.9336C22.75 11.9057 22.7386 11.8828 22.7246 11.8828C22.7106 11.8828 22.6992 11.86 22.6992 11.832C22.6992 11.8041 22.6878 11.7812 22.6738 11.7812C22.6599 11.7812 22.6484 11.7584 22.6484 11.7305C22.6484 11.7025 22.637 11.6797 22.623 11.6797C22.6091 11.6797 22.5977 11.6454 22.5977 11.6035C22.5977 11.5616 22.5862 11.5273 22.5723 11.5273C22.5583 11.5273 22.5469 11.4931 22.5469 11.4512C22.5469 11.4093 22.5354 11.375 22.5215 11.375C22.5075 11.375 22.4961 11.3521 22.4961 11.3242C22.4961 11.2963 22.4847 11.2734 22.4707 11.2734C22.4567 11.2734 22.4453 11.2531 22.4453 11.2283C22.4453 11.2034 22.4225 11.1666 22.3945 11.1465C22.3666 11.1263 22.3438 11.0951 22.3438 11.0771C22.3438 11.0343 21.872 10.5625 21.8292 10.5625C21.8111 10.5625 21.7799 10.5396 21.7598 10.5117C21.7396 10.4838 21.7028 10.4609 21.678 10.4609C21.6532 10.4609 21.6328 10.4495 21.6328 10.4355C21.6328 10.4216 21.61 10.4102 21.582 10.4102C21.5541 10.4102 21.5312 10.3987 21.5312 10.3848C21.5312 10.3708 21.5084 10.3594 21.4805 10.3594C21.4525 10.3594 21.4297 10.3479 21.4297 10.334C21.4297 10.32 21.3954 10.3086 21.3535 10.3086C21.3116 10.3086 21.2773 10.2972 21.2773 10.2832C21.2773 10.2692 21.2316 10.2578 21.1758 10.2578C21.1199 10.2578 21.0742 10.2464 21.0742 10.2324C21.0742 10.2156 19.043 10.207 15.0312 10.207C11.0195 10.207 8.98828 10.2156 8.98828 10.2324ZM20.9727 11.0449C20.9727 11.0589 21.0069 11.0703 21.0488 11.0703C21.0907 11.0703 21.125 11.0817 21.125 11.0957C21.125 11.1097 21.1479 11.1211 21.1758 11.1211C21.2037 11.1211 21.2266 11.1325 21.2266 11.1465C21.2266 11.1604 21.2448 11.1719 21.2672 11.1719C21.2895 11.1719 21.3398 11.2062 21.3789 11.248C21.418 11.2899 21.4634 11.3242 21.4798 11.3242C21.5181 11.3242 21.582 11.3881 21.582 11.4265C21.582 11.4428 21.6163 11.4882 21.6582 11.5273C21.7001 11.5665 21.7344 11.6168 21.7344 11.6391C21.7344 11.6614 21.7458 11.6797 21.7598 11.6797C21.7737 11.6797 21.7852 11.7025 21.7852 11.7305C21.7852 11.7584 21.7966 11.7812 21.8105 11.7812C21.8245 11.7812 21.8359 11.8155 21.8359 11.8574C21.8359 11.8993 21.8474 11.9336 21.8613 11.9336C21.8753 11.9336 21.8867 11.9679 21.8867 12.0098C21.8867 12.0517 21.8981 12.0859 21.9121 12.0859C21.9261 12.0859 21.9375 12.1088 21.9375 12.1367C21.9375 12.1646 21.9489 12.1875 21.9629 12.1875C21.9769 12.1875 21.9883 12.2104 21.9883 12.2383C21.9883 12.2662 21.9997 12.2891 22.0137 12.2891C22.0276 12.2891 22.0391 12.3119 22.0391 12.3398C22.0391 12.3678 22.0505 12.3906 22.0645 12.3906C22.0784 12.3906 22.0898 12.4249 22.0898 12.4668C22.0898 12.5087 22.1013 12.543 22.1152 12.543C22.1292 12.543 22.1406 12.5658 22.1406 12.5938C22.1406 12.6217 22.1521 12.6445 22.166 12.6445C22.18 12.6445 22.1914 12.6674 22.1914 12.6953C22.1914 12.7232 22.2028 12.7461 22.2168 12.7461C22.2308 12.7461 22.2422 12.7689 22.2422 12.7969C22.2422 12.8248 22.2536 12.8477 22.2676 12.8477C22.2815 12.8477 22.293 12.8819 22.293 12.9238C22.293 12.9657 22.3044 13 22.3184 13C22.3323 13 22.3438 13.0229 22.3438 13.0508C22.3438 13.0787 22.3552 13.1016 22.3691 13.1016C22.3831 13.1016 22.3945 13.1244 22.3945 13.1523C22.3945 13.1803 22.406 13.2031 22.4199 13.2031C22.4339 13.2031 22.4453 13.2374 22.4453 13.2793C22.4453 13.3212 22.4567 13.3555 22.4707 13.3555C22.4847 13.3555 22.4961 13.3783 22.4961 13.4062C22.4961 13.4342 22.5075 13.457 22.5215 13.457C22.5354 13.457 22.5469 13.4799 22.5469 13.5078C22.5469 13.5357 22.5583 13.5586 22.5723 13.5586C22.5862 13.5586 22.5977 13.5814 22.5977 13.6094C22.5977 13.6373 22.6091 13.6602 22.623 13.6602C22.637 13.6602 22.6484 13.6944 22.6484 13.7363C22.6484 13.7782 22.6599 13.8125 22.6738 13.8125C22.6878 13.8125 22.6992 13.8354 22.6992 13.8633C22.6992 13.8912 22.7106 13.9141 22.7246 13.9141C22.7386 13.9141 22.75 13.9369 22.75 13.9648C22.75 13.9928 22.7614 14.0156 22.7754 14.0156C22.7894 14.0156 22.8008 14.0385 22.8008 14.0664C22.8008 14.0943 22.8122 14.1172 22.8262 14.1172C22.8401 14.1172 22.8516 14.1515 22.8516 14.1934C22.8516 14.2353 22.863 14.2695 22.877 14.2695C22.8909 14.2695 22.9023 14.2924 22.9023 14.3203C22.9023 14.3482 22.9138 14.3711 22.9277 14.3711C22.9417 14.3711 22.9531 14.3939 22.9531 14.4219C22.9531 14.4498 22.9646 14.4727 22.9785 14.4727C22.9925 14.4727 23.0039 14.5069 23.0039 14.5488C23.0039 14.5907 23.0153 14.625 23.0293 14.625C23.0433 14.625 23.0547 14.6479 23.0547 14.6758C23.0547 14.7037 23.0661 14.7266 23.0801 14.7266C23.094 14.7266 23.1055 14.7494 23.1055 14.7773C23.1055 14.8053 23.1169 14.8281 23.1309 14.8281C23.1448 14.8281 23.1562 14.851 23.1562 14.8789C23.1562 14.9068 23.1677 14.9297 23.1816 14.9297C23.1956 14.9297 23.207 14.964 23.207 15.0059C23.207 15.0478 23.2185 15.082 23.2324 15.082C23.2464 15.082 23.2578 15.1049 23.2578 15.1328C23.2578 15.1607 23.2692 15.1836 23.2832 15.1836C23.2972 15.1836 23.3086 15.2064 23.3086 15.2344C23.3086 15.2623 23.32 15.2852 23.334 15.2852C23.3479 15.2852 23.3594 15.3194 23.3594 15.3613C23.3594 15.4032 23.3708 15.4375 23.3848 15.4375C23.3987 15.4375 23.4102 15.4604 23.4102 15.4883C23.4102 15.5162 23.4216 15.5391 23.4355 15.5391C23.4495 15.5391 23.4609 15.5619 23.4609 15.5898C23.4609 15.6178 23.4724 15.6406 23.4863 15.6406C23.5003 15.6406 23.5117 15.6635 23.5117 15.6914C23.5117 15.7193 23.5231 15.7422 23.5371 15.7422C23.5511 15.7422 23.5625 15.7765 23.5625 15.8184C23.5625 15.8603 23.5739 15.8945 23.5879 15.8945C23.6019 15.8945 23.6133 15.9174 23.6133 15.9453C23.6133 15.9732 23.6247 15.9961 23.6387 15.9961C23.6526 15.9961 23.6641 16.0189 23.6641 16.0469C23.6641 16.0748 23.6755 16.0977 23.6895 16.0977C23.7034 16.0977 23.7148 16.1319 23.7148 16.1738V16.25H15.0059C9.2168 16.25 6.29688 16.2415 6.29688 16.2246C6.29688 16.2106 6.3083 16.1992 6.32227 16.1992C6.33623 16.1992 6.34766 16.1764 6.34766 16.1484C6.34766 16.1205 6.35908 16.0977 6.37305 16.0977C6.38701 16.0977 6.39844 16.0748 6.39844 16.0469C6.39844 16.0189 6.40986 15.9961 6.42383 15.9961C6.43779 15.9961 6.44922 15.9732 6.44922 15.9453C6.44922 15.9174 6.46064 15.8945 6.47461 15.8945C6.48857 15.8945 6.5 15.8603 6.5 15.8184C6.5 15.7765 6.51143 15.7422 6.52539 15.7422C6.53936 15.7422 6.55078 15.7193 6.55078 15.6914C6.55078 15.6635 6.56221 15.6406 6.57617 15.6406C6.59014 15.6406 6.60156 15.6178 6.60156 15.5898C6.60156 15.5619 6.61299 15.5391 6.62695 15.5391C6.64092 15.5391 6.65234 15.5162 6.65234 15.4883C6.65234 15.4604 6.66377 15.4375 6.67773 15.4375C6.6917 15.4375 6.70312 15.4032 6.70312 15.3613C6.70312 15.3194 6.71455 15.2852 6.72852 15.2852C6.74248 15.2852 6.75391 15.2623 6.75391 15.2344C6.75391 15.2064 6.76533 15.1836 6.7793 15.1836C6.79326 15.1836 6.80469 15.1607 6.80469 15.1328C6.80469 15.1049 6.81611 15.082 6.83008 15.082C6.84404 15.082 6.85547 15.0478 6.85547 15.0059C6.85547 14.964 6.86689 14.9297 6.88086 14.9297C6.89482 14.9297 6.90625 14.9068 6.90625 14.8789C6.90625 14.851 6.91768 14.8281 6.93164 14.8281C6.94561 14.8281 6.95703 14.8053 6.95703 14.7773C6.95703 14.7494 6.96846 14.7266 6.98242 14.7266C6.99639 14.7266 7.00781 14.7037 7.00781 14.6758C7.00781 14.6479 7.01924 14.625 7.0332 14.625C7.04717 14.625 7.05859 14.5907 7.05859 14.5488C7.05859 14.5069 7.07002 14.4727 7.08398 14.4727C7.09795 14.4727 7.10938 14.4498 7.10938 14.4219C7.10938 14.3939 7.1208 14.3711 7.13477 14.3711C7.14873 14.3711 7.16016 14.3482 7.16016 14.3203C7.16016 14.2924 7.17158 14.2695 7.18555 14.2695C7.19951 14.2695 7.21094 14.2467 7.21094 14.2188C7.21094 14.1908 7.22236 14.168 7.23633 14.168C7.25029 14.168 7.26172 14.1337 7.26172 14.0918C7.26172 14.0499 7.27314 14.0156 7.28711 14.0156C7.30107 14.0156 7.3125 13.9928 7.3125 13.9648C7.3125 13.9369 7.32393 13.9141 7.33789 13.9141C7.35186 13.9141 7.36328 13.8912 7.36328 13.8633C7.36328 13.8354 7.37471 13.8125 7.38867 13.8125C7.40264 13.8125 7.41406 13.7782 7.41406 13.7363C7.41406 13.6944 7.42549 13.6602 7.43945 13.6602C7.45342 13.6602 7.46484 13.6373 7.46484 13.6094C7.46484 13.5814 7.47627 13.5586 7.49023 13.5586C7.5042 13.5586 7.51562 13.5357 7.51562 13.5078C7.51562 13.4799 7.52705 13.457 7.54102 13.457C7.55498 13.457 7.56641 13.4342 7.56641 13.4062C7.56641 13.3783 7.57783 13.3555 7.5918 13.3555C7.60576 13.3555 7.61719 13.3212 7.61719 13.2793C7.61719 13.2374 7.62861 13.2031 7.64258 13.2031C7.65654 13.2031 7.66797 13.1803 7.66797 13.1523C7.66797 13.1244 7.67939 13.1016 7.69336 13.1016C7.70732 13.1016 7.71875 13.0787 7.71875 13.0508C7.71875 13.0229 7.73018 13 7.74414 13C7.75811 13 7.76953 12.9657 7.76953 12.9238C7.76953 12.8819 7.78096 12.8477 7.79492 12.8477C7.80889 12.8477 7.82031 12.8248 7.82031 12.7969C7.82031 12.7689 7.83174 12.7461 7.8457 12.7461C7.85967 12.7461 7.87109 12.7232 7.87109 12.6953C7.87109 12.6674 7.88252 12.6445 7.89648 12.6445C7.91045 12.6445 7.92188 12.6217 7.92188 12.5938C7.92188 12.5658 7.9333 12.543 7.94727 12.543C7.96123 12.543 7.97266 12.5087 7.97266 12.4668C7.97266 12.4249 7.98408 12.3906 7.99805 12.3906C8.01201 12.3906 8.02344 12.3678 8.02344 12.3398C8.02344 12.3119 8.03486 12.2891 8.04883 12.2891C8.06279 12.2891 8.07422 12.2662 8.07422 12.2383C8.07422 12.2104 8.08564 12.1875 8.09961 12.1875C8.11357 12.1875 8.125 12.1532 8.125 12.1113C8.125 12.0694 8.13643 12.0352 8.15039 12.0352C8.16436 12.0352 8.17578 12.0123 8.17578 11.9844C8.17578 11.9564 8.18721 11.9336 8.20117 11.9336C8.21514 11.9336 8.22656 11.8993 8.22656 11.8574C8.22656 11.8155 8.23799 11.7812 8.25195 11.7812C8.26592 11.7812 8.27734 11.7584 8.27734 11.7305C8.27734 11.7025 8.28877 11.6797 8.30273 11.6797C8.3167 11.6797 8.32812 11.6614 8.32812 11.6391C8.32812 11.6168 8.3624 11.5665 8.4043 11.5273C8.44619 11.4882 8.48047 11.4428 8.48047 11.4265C8.48047 11.4101 8.49679 11.3804 8.51675 11.3605C8.53668 11.3405 8.56639 11.3242 8.58272 11.3242C8.59907 11.3242 8.64447 11.2899 8.68359 11.248C8.72272 11.2062 8.77302 11.1719 8.79534 11.1719C8.81768 11.1719 8.83594 11.1604 8.83594 11.1465C8.83594 11.1325 8.85879 11.1211 8.88672 11.1211C8.91465 11.1211 8.9375 11.1097 8.9375 11.0957C8.9375 11.0817 8.97178 11.0703 9.01367 11.0703C9.05557 11.0703 9.08984 11.0589 9.08984 11.0449C9.08984 11.0281 11.0872 11.0195 15.0312 11.0195C18.9753 11.0195 20.9727 11.0281 20.9727 11.0449ZM24.5781 17.0879C24.5781 17.1019 24.6124 17.1133 24.6543 17.1133C24.6962 17.1133 24.7305 17.1247 24.7305 17.1387C24.7305 17.1526 24.7479 17.1641 24.7691 17.1641C24.8194 17.1641 25.0859 17.4306 25.0859 17.4809C25.0859 17.5021 25.0974 17.5195 25.1113 17.5195C25.1253 17.5195 25.1367 17.5538 25.1367 17.5957C25.1367 17.6376 25.1481 17.6719 25.1621 17.6719C25.1789 17.6719 25.1875 18.5013 25.1875 20.1094C25.1875 21.7174 25.1789 22.5469 25.1621 22.5469C25.1481 22.5469 25.1367 22.5812 25.1367 22.623C25.1367 22.6649 25.1253 22.6992 25.1113 22.6992C25.0974 22.6992 25.0859 22.7166 25.0859 22.7379C25.0859 22.7881 24.8194 23.0547 24.7691 23.0547C24.7479 23.0547 24.7305 23.0661 24.7305 23.0801C24.7305 23.094 24.6962 23.1055 24.6543 23.1055C24.6124 23.1055 24.5781 23.1169 24.5781 23.1309C24.5781 23.1476 23.7608 23.1562 22.1769 23.1562C19.6287 23.1562 19.7031 23.1596 19.7031 23.0438C19.7031 23.0219 19.6917 23.0039 19.6777 23.0039C19.6638 23.0039 19.6523 22.9811 19.6523 22.9531C19.6523 22.9252 19.6409 22.9023 19.627 22.9023C19.613 22.9023 19.6016 22.8795 19.6016 22.8516C19.6016 22.8236 19.5901 22.8008 19.5762 22.8008C19.5622 22.8008 19.5508 22.7779 19.5508 22.75C19.5508 22.7221 19.5394 22.6992 19.5254 22.6992C19.5114 22.6992 19.5 22.6764 19.5 22.6484C19.5 22.6205 19.4886 22.5977 19.4746 22.5977C19.4606 22.5977 19.4492 22.5748 19.4492 22.5469C19.4492 22.5189 19.4378 22.4961 19.4238 22.4961C19.4099 22.4961 19.3984 22.4732 19.3984 22.4453C19.3984 22.4174 19.387 22.3945 19.373 22.3945C19.3591 22.3945 19.3477 22.3717 19.3477 22.3438C19.3477 22.3158 19.3362 22.293 19.3223 22.293C19.3083 22.293 19.2969 22.2701 19.2969 22.2422C19.2969 22.2143 19.2854 22.1914 19.2715 22.1914C19.2575 22.1914 19.2461 22.1686 19.2461 22.1406C19.2461 22.1127 19.2347 22.0898 19.2207 22.0898C19.2067 22.0898 19.1953 22.067 19.1953 22.0391C19.1953 22.0111 19.1839 21.9883 19.1699 21.9883C19.156 21.9883 19.1445 21.9654 19.1445 21.9375C19.1445 21.9096 19.1331 21.8867 19.1191 21.8867C19.1052 21.8867 19.0938 21.8639 19.0938 21.8359C19.0938 21.808 19.0823 21.7852 19.0684 21.7852C19.0544 21.7852 19.043 21.7675 19.043 21.7459C19.043 21.6951 18.9299 21.582 18.8791 21.582C18.8575 21.582 18.8398 21.5706 18.8398 21.5566C18.8398 21.5398 17.5534 21.5312 15.0312 21.5312C12.5091 21.5312 11.2227 21.5398 11.2227 21.5566C11.2227 21.5706 11.205 21.582 11.1834 21.582C11.1326 21.582 11.0195 21.6951 11.0195 21.7459C11.0195 21.7675 11.0081 21.7852 10.9941 21.7852C10.9802 21.7852 10.9688 21.808 10.9688 21.8359C10.9688 21.8639 10.9573 21.8867 10.9434 21.8867C10.9294 21.8867 10.918 21.9096 10.918 21.9375C10.918 21.9654 10.9065 21.9883 10.8926 21.9883C10.8786 21.9883 10.8672 22.0111 10.8672 22.0391C10.8672 22.067 10.8558 22.0898 10.8418 22.0898C10.8278 22.0898 10.8164 22.1127 10.8164 22.1406C10.8164 22.1686 10.805 22.1914 10.791 22.1914C10.7771 22.1914 10.7656 22.2143 10.7656 22.2422C10.7656 22.2701 10.7542 22.293 10.7402 22.293C10.7263 22.293 10.7148 22.3158 10.7148 22.3438C10.7148 22.3717 10.7034 22.3945 10.6895 22.3945C10.6755 22.3945 10.6641 22.4174 10.6641 22.4453C10.6641 22.4732 10.6526 22.4961 10.6387 22.4961C10.6247 22.4961 10.6133 22.5189 10.6133 22.5469C10.6133 22.5748 10.6019 22.5977 10.5879 22.5977C10.5739 22.5977 10.5625 22.6205 10.5625 22.6484C10.5625 22.6764 10.5511 22.6992 10.5371 22.6992C10.5231 22.6992 10.5117 22.7221 10.5117 22.75C10.5117 22.7779 10.5003 22.8008 10.4863 22.8008C10.4724 22.8008 10.4609 22.8236 10.4609 22.8516C10.4609 22.8795 10.4495 22.9023 10.4355 22.9023C10.4216 22.9023 10.4102 22.9252 10.4102 22.9531C10.4102 22.9811 10.3987 23.0039 10.3848 23.0039C10.3708 23.0039 10.3594 23.0219 10.3594 23.0438C10.3594 23.1596 10.4338 23.1562 7.88559 23.1562C6.3017 23.1562 5.48438 23.1476 5.48438 23.1309C5.48438 23.1169 5.4501 23.1055 5.4082 23.1055C5.36631 23.1055 5.33203 23.094 5.33203 23.0801C5.33203 23.0661 5.31464 23.0547 5.29339 23.0547C5.24311 23.0547 4.97656 22.7881 4.97656 22.7379C4.97656 22.7166 4.96514 22.6992 4.95117 22.6992C4.93721 22.6992 4.92578 22.6649 4.92578 22.623C4.92578 22.5812 4.91436 22.5469 4.90039 22.5469C4.88363 22.5469 4.875 21.7174 4.875 20.1094C4.875 18.5013 4.88363 17.6719 4.90039 17.6719C4.91436 17.6719 4.92578 17.6376 4.92578 17.5957C4.92578 17.5538 4.93721 17.5195 4.95117 17.5195C4.96514 17.5195 4.97656 17.5021 4.97656 17.4809C4.97656 17.4306 5.24311 17.1641 5.29339 17.1641C5.31464 17.1641 5.33203 17.1526 5.33203 17.1387C5.33203 17.1247 5.36631 17.1133 5.4082 17.1133C5.4501 17.1133 5.48438 17.1019 5.48438 17.0879C5.48438 17.071 8.68359 17.0625 15.0312 17.0625C21.3789 17.0625 24.5781 17.071 24.5781 17.0879ZM5.94141 18.3066C5.94141 18.3206 5.92376 18.332 5.90218 18.332C5.85137 18.332 5.73828 18.4451 5.73828 18.4959C5.73828 18.5175 5.72686 18.5352 5.71289 18.5352C5.69667 18.5352 5.6875 18.7552 5.6875 19.1445C5.6875 19.5338 5.69667 19.7539 5.71289 19.7539C5.72686 19.7539 5.73828 19.7882 5.73828 19.8301C5.73828 19.872 5.74971 19.9062 5.76367 19.9062C5.77764 19.9062 5.78906 19.938 5.78906 19.9768C5.78906 20.0182 5.81004 20.0625 5.83984 20.084C5.86777 20.1041 5.89062 20.1354 5.89062 20.1535C5.89062 20.1965 6.20979 20.5156 6.25272 20.5156C6.27082 20.5156 6.30213 20.5385 6.32227 20.5664C6.34377 20.5962 6.388 20.6172 6.42944 20.6172C6.46824 20.6172 6.5 20.6286 6.5 20.6426C6.5 20.6565 6.53428 20.668 6.57617 20.668C6.61807 20.668 6.65234 20.6794 6.65234 20.6934C6.65234 20.71 7.14322 20.7188 8.07422 20.7188C9.00522 20.7188 9.49609 20.71 9.49609 20.6934C9.49609 20.6794 9.51374 20.668 9.53532 20.668C9.58613 20.668 9.69922 20.5549 9.69922 20.5041C9.69922 20.4825 9.71064 20.4648 9.72461 20.4648C9.74083 20.4648 9.75 20.2448 9.75 19.8555C9.75 19.4662 9.74083 19.2461 9.72461 19.2461C9.71064 19.2461 9.69922 19.2118 9.69922 19.1699C9.69922 19.128 9.68779 19.0938 9.67383 19.0938C9.65986 19.0938 9.64844 19.062 9.64844 19.0232C9.64844 18.9818 9.62747 18.9375 9.59766 18.916C9.56973 18.8959 9.54688 18.8646 9.54688 18.8465C9.54688 18.8035 9.22771 18.4844 9.18478 18.4844C9.16668 18.4844 9.13537 18.4615 9.11523 18.4336C9.09373 18.4038 9.0495 18.3828 9.00806 18.3828C8.96926 18.3828 8.9375 18.3714 8.9375 18.3574C8.9375 18.3435 8.90322 18.332 8.86133 18.332C8.81943 18.332 8.78516 18.3206 8.78516 18.3066C8.78516 18.29 8.29428 18.2812 7.36328 18.2812C6.43228 18.2812 5.94141 18.29 5.94141 18.3066ZM21.2773 18.3066C21.2773 18.3206 21.2431 18.332 21.2012 18.332C21.1593 18.332 21.125 18.3435 21.125 18.3574C21.125 18.3714 21.0932 18.3828 21.0544 18.3828C21.013 18.3828 20.9688 18.4038 20.9473 18.4336C20.9271 18.4615 20.8958 18.4844 20.8777 18.4844C20.8596 18.4844 20.7707 18.5584 20.6802 18.6489C20.5897 18.7394 20.5156 18.8283 20.5156 18.8465C20.5156 18.8646 20.4928 18.8959 20.4648 18.916C20.435 18.9375 20.4141 18.9818 20.4141 19.0232C20.4141 19.062 20.4026 19.0938 20.3887 19.0938C20.3747 19.0938 20.3633 19.128 20.3633 19.1699C20.3633 19.2118 20.3519 19.2461 20.3379 19.2461C20.3217 19.2461 20.3125 19.4662 20.3125 19.8555C20.3125 20.2448 20.3217 20.4648 20.3379 20.4648C20.3519 20.4648 20.3633 20.4825 20.3633 20.5041C20.3633 20.5549 20.4764 20.668 20.5272 20.668C20.5488 20.668 20.5664 20.6794 20.5664 20.6934C20.5664 20.71 21.0573 20.7188 21.9883 20.7188C22.9193 20.7188 23.4102 20.71 23.4102 20.6934C23.4102 20.6794 23.4444 20.668 23.4863 20.668C23.5282 20.668 23.5625 20.6565 23.5625 20.6426C23.5625 20.6286 23.5943 20.6172 23.6331 20.6172C23.6745 20.6172 23.7187 20.5962 23.7402 20.5664C23.7604 20.5385 23.7917 20.5156 23.8098 20.5156C23.8279 20.5156 23.9168 20.4416 24.0073 20.3511C24.0978 20.2606 24.1719 20.1717 24.1719 20.1535C24.1719 20.1354 24.1947 20.1041 24.2227 20.084C24.2525 20.0625 24.2734 20.0182 24.2734 19.9768C24.2734 19.938 24.2849 19.9062 24.2988 19.9062C24.3128 19.9062 24.3242 19.872 24.3242 19.8301C24.3242 19.7882 24.3356 19.7539 24.3496 19.7539C24.3658 19.7539 24.375 19.5338 24.375 19.1445C24.375 18.7552 24.3658 18.5352 24.3496 18.5352C24.3356 18.5352 24.3242 18.5175 24.3242 18.4959C24.3242 18.4451 24.2111 18.332 24.1603 18.332C24.1387 18.332 24.1211 18.3206 24.1211 18.3066C24.1211 18.29 23.6302 18.2812 22.6992 18.2812C21.7682 18.2812 21.2773 18.29 21.2773 18.3066ZM8.68359 19.1191C8.68359 19.1331 8.70124 19.1445 8.72282 19.1445C8.77363 19.1445 8.88672 19.2576 8.88672 19.3084C8.88672 19.33 8.89814 19.3477 8.91211 19.3477C8.9275 19.3477 8.9375 19.4577 8.9375 19.627V19.9062H7.8457C7.13477 19.9062 6.75391 19.8974 6.75391 19.8809C6.75391 19.8669 6.73626 19.8555 6.71468 19.8555C6.66387 19.8555 6.55078 19.7424 6.55078 19.6916C6.55078 19.67 6.53936 19.6523 6.52539 19.6523C6.51 19.6523 6.5 19.5423 6.5 19.373V19.0938H7.5918C8.30273 19.0938 8.68359 19.1026 8.68359 19.1191ZM23.5625 19.373C23.5625 19.5423 23.5525 19.6523 23.5371 19.6523C23.5231 19.6523 23.5117 19.67 23.5117 19.6916C23.5117 19.7424 23.3986 19.8555 23.3478 19.8555C23.3262 19.8555 23.3086 19.8669 23.3086 19.8809C23.3086 19.8974 22.9277 19.9062 22.2168 19.9062H21.125V19.627C21.125 19.4577 21.135 19.3477 21.1504 19.3477C21.1644 19.3477 21.1758 19.33 21.1758 19.3084C21.1758 19.2868 21.2038 19.2411 21.2381 19.2069C21.2724 19.1726 21.3181 19.1445 21.3397 19.1445C21.3613 19.1445 21.3789 19.1331 21.3789 19.1191C21.3789 19.1026 21.7598 19.0938 22.4707 19.0938H23.5625V19.373ZM11.2227 19.9316C11.2227 19.9456 11.205 19.957 11.1834 19.957C11.1326 19.957 11.0195 20.0701 11.0195 20.1209C11.0195 20.1425 11.0081 20.1602 10.9941 20.1602C10.98 20.1602 10.9688 20.2279 10.9688 20.3125C10.9688 20.3971 10.98 20.4648 10.9941 20.4648C11.0081 20.4648 11.0195 20.4825 11.0195 20.5041C11.0195 20.5549 11.1326 20.668 11.1834 20.668C11.205 20.668 11.2227 20.6794 11.2227 20.6934C11.2227 20.7102 12.5091 20.7188 15.0312 20.7188C17.5534 20.7188 18.8398 20.7102 18.8398 20.6934C18.8398 20.6794 18.8575 20.668 18.8791 20.668C18.9299 20.668 19.043 20.5549 19.043 20.5041C19.043 20.4825 19.0544 20.4648 19.0684 20.4648C19.0825 20.4648 19.0938 20.3971 19.0938 20.3125C19.0938 20.2279 19.0825 20.1602 19.0684 20.1602C19.0544 20.1602 19.043 20.1425 19.043 20.1209C19.043 20.0701 18.9299 19.957 18.8791 19.957C18.8575 19.957 18.8398 19.9456 18.8398 19.9316C18.8398 19.9148 17.5534 19.9062 15.0312 19.9062C12.5091 19.9062 11.2227 19.9148 11.2227 19.9316ZM7.56641 21.5566C7.56641 21.5706 7.54876 21.582 7.52718 21.582C7.47637 21.582 7.36328 21.6951 7.36328 21.7459C7.36328 21.7675 7.35186 21.7852 7.33789 21.7852C7.32377 21.7852 7.3125 21.8529 7.3125 21.9375C7.3125 22.0221 7.32377 22.0898 7.33789 22.0898C7.35186 22.0898 7.36328 22.1075 7.36328 22.1291C7.36328 22.1799 7.47637 22.293 7.52718 22.293C7.54876 22.293 7.56641 22.3044 7.56641 22.3184C7.56641 22.3348 7.90494 22.3438 8.53125 22.3438C9.15756 22.3438 9.49609 22.3348 9.49609 22.3184C9.49609 22.3044 9.51374 22.293 9.53532 22.293C9.58613 22.293 9.69922 22.1799 9.69922 22.1291C9.69922 22.1075 9.71064 22.0898 9.72461 22.0898C9.73873 22.0898 9.75 22.0221 9.75 21.9375C9.75 21.8529 9.73873 21.7852 9.72461 21.7852C9.71064 21.7852 9.69922 21.7675 9.69922 21.7459C9.69922 21.6951 9.58613 21.582 9.53532 21.582C9.51374 21.582 9.49609 21.5706 9.49609 21.5566C9.49609 21.5402 9.15756 21.5312 8.53125 21.5312C7.90494 21.5312 7.56641 21.5402 7.56641 21.5566ZM20.5664 21.5566C20.5664 21.5706 20.5488 21.582 20.5272 21.582C20.5056 21.582 20.4599 21.6101 20.4256 21.6444C20.3913 21.6786 20.3633 21.7243 20.3633 21.7459C20.3633 21.7675 20.3519 21.7852 20.3379 21.7852C20.3238 21.7852 20.3125 21.8529 20.3125 21.9375C20.3125 22.0221 20.3238 22.0898 20.3379 22.0898C20.3519 22.0898 20.3633 22.1075 20.3633 22.1291C20.3633 22.1799 20.4764 22.293 20.5272 22.293C20.5488 22.293 20.5664 22.3044 20.5664 22.3184C20.5664 22.3348 20.9049 22.3438 21.5312 22.3438C22.1576 22.3438 22.4961 22.3348 22.4961 22.3184C22.4961 22.3044 22.5137 22.293 22.5353 22.293C22.5861 22.293 22.6992 22.1799 22.6992 22.1291C22.6992 22.1075 22.7106 22.0898 22.7246 22.0898C22.7387 22.0898 22.75 22.0221 22.75 21.9375C22.75 21.8529 22.7387 21.7852 22.7246 21.7852C22.7106 21.7852 22.6992 21.7675 22.6992 21.7459C22.6992 21.6951 22.5861 21.582 22.5353 21.582C22.5137 21.582 22.4961 21.5706 22.4961 21.5566C22.4961 21.5402 22.1576 21.5312 21.5312 21.5312C20.9049 21.5312 20.5664 21.5402 20.5664 21.5566ZM18.4481 22.38C18.468 22.4 18.4844 22.4342 18.4844 22.4562C18.4844 22.4781 18.4958 22.4961 18.5098 22.4961C18.5237 22.4961 18.5352 22.5189 18.5352 22.5469C18.5352 22.5748 18.5466 22.5977 18.5605 22.5977C18.5745 22.5977 18.5859 22.6205 18.5859 22.6484C18.5859 22.6764 18.5974 22.6992 18.6113 22.6992C18.6253 22.6992 18.6367 22.7221 18.6367 22.75C18.6367 22.7779 18.6481 22.8008 18.6621 22.8008C18.6761 22.8008 18.6875 22.8236 18.6875 22.8516C18.6875 22.8795 18.6989 22.9023 18.7129 22.9023C18.7269 22.9023 18.7383 22.9252 18.7383 22.9531C18.7383 22.9811 18.7497 23.0039 18.7637 23.0039C18.7776 23.0039 18.7891 23.0268 18.7891 23.0547C18.7891 23.0826 18.8005 23.1055 18.8145 23.1055C18.8284 23.1055 18.8398 23.1169 18.8398 23.1309C18.8398 23.1477 17.5534 23.1562 15.0312 23.1562C12.5091 23.1562 11.2227 23.1477 11.2227 23.1309C11.2227 23.1169 11.2341 23.1055 11.248 23.1055C11.262 23.1055 11.2734 23.0826 11.2734 23.0547C11.2734 23.0268 11.2849 23.0039 11.2988 23.0039C11.3128 23.0039 11.3242 22.9811 11.3242 22.9531C11.3242 22.9252 11.3356 22.9023 11.3496 22.9023C11.3636 22.9023 11.375 22.8795 11.375 22.8516C11.375 22.8236 11.3864 22.8008 11.4004 22.8008C11.4144 22.8008 11.4258 22.7779 11.4258 22.75C11.4258 22.7221 11.4372 22.6992 11.4512 22.6992C11.4651 22.6992 11.4766 22.6764 11.4766 22.6484C11.4766 22.6205 11.488 22.5977 11.502 22.5977C11.5159 22.5977 11.5273 22.5748 11.5273 22.5469C11.5273 22.5189 11.5388 22.4961 11.5527 22.4961C11.5667 22.4961 11.5781 22.4785 11.5781 22.4569C11.5781 22.341 11.4313 22.3457 15.0267 22.3447C17.9275 22.3439 18.417 22.3489 18.4481 22.38ZM4.97656 23.791C4.97656 23.805 4.99941 23.8164 5.02734 23.8164C5.05527 23.8164 5.07812 23.8278 5.07812 23.8418C5.07812 23.8558 5.1124 23.8672 5.1543 23.8672C5.19619 23.8672 5.23047 23.8786 5.23047 23.8926C5.23047 23.9065 5.27617 23.918 5.33203 23.918C5.38789 23.918 5.43359 23.9294 5.43359 23.9434C5.43359 23.96 5.89908 23.9688 6.7793 23.9688H8.125V24.4512C8.125 24.7559 8.11566 24.9336 8.09961 24.9336C8.08564 24.9336 8.07422 24.9512 8.07422 24.9728C8.07422 25.0236 7.96113 25.1367 7.91032 25.1367C7.88874 25.1367 7.87109 25.1481 7.87109 25.1621C7.87109 25.1787 7.39713 25.1875 6.5 25.1875C5.60287 25.1875 5.12891 25.1787 5.12891 25.1621C5.12891 25.1481 5.11126 25.1367 5.08968 25.1367C5.03887 25.1367 4.92578 25.0236 4.92578 24.9728C4.92578 24.9512 4.91436 24.9336 4.90039 24.9336C4.88419 24.9336 4.875 24.722 4.875 24.3496C4.875 23.7826 4.87647 23.7656 4.92578 23.7656C4.95371 23.7656 4.97656 23.7771 4.97656 23.791ZM25.1875 24.3496C25.1875 24.722 25.1783 24.9336 25.1621 24.9336C25.1481 24.9336 25.1367 24.9512 25.1367 24.9728C25.1367 25.0236 25.0236 25.1367 24.9728 25.1367C24.9512 25.1367 24.9336 25.1481 24.9336 25.1621C24.9336 25.1787 24.4596 25.1875 23.5625 25.1875C22.6654 25.1875 22.1914 25.1787 22.1914 25.1621C22.1914 25.1481 22.1738 25.1367 22.1522 25.1367C22.1014 25.1367 21.9883 25.0236 21.9883 24.9728C21.9883 24.9512 21.9769 24.9336 21.9629 24.9336C21.9468 24.9336 21.9375 24.7559 21.9375 24.4512V23.9688H23.2832C24.1634 23.9688 24.6289 23.96 24.6289 23.9434C24.6289 23.9294 24.6746 23.918 24.7305 23.918C24.7863 23.918 24.832 23.9065 24.832 23.8926C24.832 23.8786 24.8663 23.8672 24.9082 23.8672C24.9501 23.8672 24.9844 23.8558 24.9844 23.8418C24.9844 23.8278 25.0072 23.8164 25.0352 23.8164C25.0631 23.8164 25.0859 23.805 25.0859 23.791C25.0859 23.7771 25.1088 23.7656 25.1367 23.7656C25.186 23.7656 25.1875 23.7826 25.1875 24.3496Z" fill="#0089B1"/>
</svg>
