<svg width="18" height="21" viewBox="0 0 18 21" fill="none" xmlns="http://www.w3.org/2000/svg">
<path fill-rule="evenodd" clip-rule="evenodd" d="M0.667969 0.0205078C0.667969 0.0317871 0.644238 0.0410156 0.615234 0.0410156C0.58623 0.0410156 0.5625 0.0502441 0.5625 0.0615234C0.5625 0.0728027 0.54051 0.0820312 0.51365 0.0820312C0.484963 0.0820312 0.454342 0.0989707 0.439453 0.123047C0.425514 0.145605 0.40384 0.164062 0.391307 0.164062C0.361582 0.164062 0.140625 0.421846 0.140625 0.456524C0.140625 0.471146 0.124805 0.496433 0.105469 0.512695C0.084832 0.530065 0.0703125 0.56579 0.0703125 0.599259C0.0703125 0.630595 0.0624023 0.65625 0.0527344 0.65625C0.0430664 0.65625 0.0351562 0.683936 0.0351562 0.717773C0.0351562 0.751611 0.0272461 0.779297 0.0175781 0.779297C0.00590625 0.779297 0 2.48827 0 5.86523C0 9.24219 0.00590625 10.9512 0.0175781 10.9512C0.0272461 10.9512 0.0351562 10.9654 0.0351562 10.9829C0.0351562 11.0239 0.113449 11.1152 0.148623 11.1152C0.163564 11.1152 0.175781 11.1245 0.175781 11.1357C0.175781 11.1491 0.457031 11.1562 0.984375 11.1562C1.51172 11.1562 1.79297 11.1491 1.79297 11.1357C1.79297 11.1245 1.80519 11.1152 1.82013 11.1152C1.8553 11.1152 1.93359 11.0239 1.93359 10.9829C1.93359 10.9654 1.9415 10.9512 1.95117 10.9512C1.96276 10.9512 1.96875 10.3154 1.96875 9.08496V7.21875H2.83008C3.39258 7.21875 3.69141 7.21163 3.69141 7.19824C3.69141 7.18653 3.74414 7.17773 3.81445 7.17773C3.88477 7.17773 3.9375 7.16894 3.9375 7.15723C3.9375 7.14595 3.97705 7.13672 4.02539 7.13672C4.07373 7.13672 4.11328 7.12749 4.11328 7.11621C4.11328 7.10493 4.14492 7.0957 4.18359 7.0957C4.22227 7.0957 4.25391 7.08647 4.25391 7.0752C4.25391 7.06392 4.27764 7.05469 4.30664 7.05469C4.33564 7.05469 4.35938 7.04546 4.35938 7.03418C4.35938 7.0229 4.3831 7.01367 4.41211 7.01367C4.44111 7.01367 4.46484 7.00444 4.46484 6.99316C4.46484 6.98188 4.48066 6.97266 4.5 6.97266C4.51934 6.97266 4.53516 6.96343 4.53516 6.95215C4.53516 6.94087 4.55889 6.93164 4.58789 6.93164C4.61689 6.93164 4.64062 6.92241 4.64062 6.91113C4.64062 6.89985 4.65645 6.89062 4.67578 6.89062C4.69512 6.89062 4.71094 6.8814 4.71094 6.87012C4.71094 6.85884 4.72676 6.84961 4.74609 6.84961C4.76543 6.84961 4.78125 6.84038 4.78125 6.8291C4.78125 6.81782 4.79533 6.80859 4.81252 6.80859C4.82973 6.80859 4.8552 6.79014 4.86914 6.76758C4.88308 6.74502 4.90855 6.72656 4.92576 6.72656C4.94295 6.72656 4.95703 6.71733 4.95703 6.70605C4.95703 6.69478 4.97111 6.68555 4.9883 6.68555C5.00551 6.68555 5.03098 6.66709 5.04492 6.64453C5.05886 6.62197 5.08259 6.60352 5.09766 6.60352C5.11272 6.60352 5.13645 6.58506 5.15039 6.5625C5.16433 6.53994 5.18646 6.52148 5.19959 6.52148C5.21272 6.52148 5.25386 6.48457 5.29102 6.43945C5.32818 6.39434 5.3672 6.35742 5.37775 6.35742C5.40279 6.35742 5.73047 5.97514 5.73047 5.94591C5.73047 5.93361 5.76211 5.88808 5.80078 5.84473C5.83945 5.80137 5.87109 5.75339 5.87109 5.73807C5.87109 5.72275 5.88691 5.69693 5.90625 5.68066C5.92559 5.6644 5.94141 5.63672 5.94141 5.61914C5.94141 5.60157 5.95723 5.57388 5.97656 5.55762C5.9959 5.54135 6.01172 5.51164 6.01172 5.49156C6.01172 5.4715 6.01963 5.45508 6.0293 5.45508C6.03896 5.45508 6.04687 5.43865 6.04687 5.41859C6.04687 5.39852 6.0627 5.3688 6.08203 5.35254C6.10137 5.33628 6.11719 5.30656 6.11719 5.28648C6.11719 5.26643 6.1251 5.25 6.13477 5.25C6.14443 5.25 6.15234 5.23154 6.15234 5.20898C6.15234 5.18643 6.16025 5.16797 6.16992 5.16797C6.17959 5.16797 6.1875 5.14028 6.1875 5.10644C6.1875 5.07261 6.19541 5.04492 6.20508 5.04492C6.21475 5.04492 6.22266 5.02646 6.22266 5.00391C6.22266 4.98135 6.23057 4.96289 6.24023 4.96289C6.2499 4.96289 6.25781 4.94443 6.25781 4.92188C6.25781 4.89932 6.26572 4.88086 6.27539 4.88086C6.28506 4.88086 6.29297 4.85317 6.29297 4.81934C6.29297 4.7855 6.30088 4.75781 6.31055 4.75781C6.32021 4.75781 6.32812 4.7209 6.32812 4.67578C6.32812 4.63066 6.33603 4.59375 6.3457 4.59375C6.35537 4.59375 6.36328 4.56606 6.36328 4.53223C6.36328 4.49839 6.37119 4.4707 6.38086 4.4707C6.39053 4.4707 6.39844 4.42456 6.39844 4.36816C6.39844 4.31177 6.40635 4.26562 6.41602 4.26562C6.42605 4.26562 6.43359 4.2041 6.43359 4.12207C6.43359 4.04004 6.44113 3.97852 6.45117 3.97852C6.46225 3.97852 6.46875 3.84179 6.46875 3.60938C6.46875 3.37696 6.46225 3.24023 6.45117 3.24023C6.44113 3.24023 6.43359 3.17871 6.43359 3.09668C6.43359 3.01465 6.42605 2.95312 6.41602 2.95312C6.40635 2.95312 6.39844 2.90698 6.39844 2.85059C6.39844 2.79419 6.39053 2.74805 6.38086 2.74805C6.37119 2.74805 6.36328 2.71113 6.36328 2.66602C6.36328 2.6209 6.35537 2.58398 6.3457 2.58398C6.33603 2.58398 6.32812 2.5563 6.32812 2.52246C6.32812 2.48862 6.32021 2.46094 6.31055 2.46094C6.30088 2.46094 6.29297 2.43325 6.29297 2.39941C6.29297 2.36558 6.28506 2.33789 6.27539 2.33789C6.26572 2.33789 6.25781 2.31943 6.25781 2.29688C6.25781 2.27432 6.2499 2.25586 6.24023 2.25586C6.23057 2.25586 6.22266 2.2374 6.22266 2.21484C6.22266 2.19229 6.21475 2.17383 6.20508 2.17383C6.19541 2.17383 6.1875 2.14614 6.1875 2.1123C6.1875 2.07847 6.17959 2.05078 6.16992 2.05078C6.16025 2.05078 6.15234 2.03232 6.15234 2.00977C6.15234 1.98721 6.14443 1.96875 6.13477 1.96875C6.1251 1.96875 6.11719 1.95232 6.11719 1.93227C6.11719 1.91219 6.10137 1.88247 6.08203 1.86621C6.0627 1.84995 6.04687 1.82023 6.04687 1.80016C6.04687 1.7801 6.03896 1.76367 6.0293 1.76367C6.01963 1.76367 6.01172 1.74725 6.01172 1.72719C6.01172 1.70711 5.9959 1.6774 5.97656 1.66113C5.95723 1.64487 5.94141 1.61718 5.94141 1.59961C5.94141 1.58203 5.92559 1.55435 5.90625 1.53809C5.88691 1.52182 5.87109 1.496 5.87109 1.48068C5.87109 1.46537 5.83945 1.41738 5.80078 1.37402C5.76211 1.33067 5.73047 1.28514 5.73047 1.27284C5.73047 1.24361 5.40279 0.861328 5.37775 0.861328C5.3672 0.861328 5.32818 0.824414 5.29102 0.779297C5.25386 0.73418 5.21272 0.697266 5.19959 0.697266C5.18646 0.697266 5.16433 0.678809 5.15039 0.65625C5.13645 0.633691 5.11272 0.615234 5.09766 0.615234C5.08259 0.615234 5.05886 0.596777 5.04492 0.574219C5.03098 0.55166 5.00725 0.533203 4.99219 0.533203C4.97712 0.533203 4.95339 0.514746 4.93945 0.492188C4.92551 0.469629 4.90004 0.451172 4.88283 0.451172C4.86564 0.451172 4.85156 0.441943 4.85156 0.430664C4.85156 0.419385 4.83574 0.410156 4.81641 0.410156C4.79707 0.410156 4.78125 0.400928 4.78125 0.389648C4.78125 0.378369 4.76543 0.369141 4.74609 0.369141C4.72676 0.369141 4.71094 0.359912 4.71094 0.348633C4.71094 0.337353 4.68721 0.328125 4.6582 0.328125C4.6292 0.328125 4.60547 0.318896 4.60547 0.307617C4.60547 0.296338 4.58965 0.287109 4.57031 0.287109C4.55098 0.287109 4.53516 0.277881 4.53516 0.266602C4.53516 0.255322 4.51934 0.246094 4.5 0.246094C4.48066 0.246094 4.46484 0.236865 4.46484 0.225586C4.46484 0.214307 4.44111 0.205078 4.41211 0.205078C4.3831 0.205078 4.35938 0.19585 4.35938 0.18457C4.35938 0.173291 4.33564 0.164062 4.30664 0.164062C4.27764 0.164062 4.25391 0.154834 4.25391 0.143555C4.25391 0.132275 4.22227 0.123047 4.18359 0.123047C4.14492 0.123047 4.11328 0.113818 4.11328 0.102539C4.11328 0.0912598 4.07373 0.0820312 4.02539 0.0820312C3.97705 0.0820312 3.9375 0.0728027 3.9375 0.0615234C3.9375 0.0498135 3.88477 0.0410156 3.81445 0.0410156C3.74414 0.0410156 3.69141 0.0322178 3.69141 0.0205078C3.69141 0.00699316 3.17579 0 2.17969 0C1.18359 0 0.667969 0.00699316 0.667969 0.0205078ZM3.65625 0.676758C3.65625 0.688468 3.70898 0.697266 3.7793 0.697266C3.84961 0.697266 3.90234 0.706063 3.90234 0.717773C3.90234 0.729053 3.93398 0.738281 3.97266 0.738281C4.01133 0.738281 4.04297 0.74751 4.04297 0.758789C4.04297 0.770068 4.0667 0.779297 4.0957 0.779297C4.12471 0.779297 4.14844 0.788525 4.14844 0.799805C4.14844 0.811084 4.17217 0.820312 4.20117 0.820312C4.23018 0.820312 4.25391 0.829541 4.25391 0.84082C4.25391 0.8521 4.27764 0.861328 4.30664 0.861328C4.33564 0.861328 4.35938 0.870557 4.35938 0.881836C4.35938 0.893115 4.3752 0.902344 4.39453 0.902344C4.41387 0.902344 4.42969 0.911572 4.42969 0.922852C4.42969 0.934131 4.44551 0.943359 4.46484 0.943359C4.48418 0.943359 4.5 0.952588 4.5 0.963867C4.5 0.975146 4.51582 0.984375 4.53516 0.984375C4.55449 0.984375 4.57031 0.993604 4.57031 1.00488C4.57031 1.01616 4.58439 1.02539 4.60158 1.02539C4.61879 1.02539 4.64426 1.04385 4.6582 1.06641C4.67214 1.08896 4.69587 1.10742 4.71094 1.10742C4.726 1.10742 4.74973 1.12588 4.76367 1.14844C4.77761 1.171 4.80134 1.18945 4.81641 1.18945C4.83147 1.18945 4.8552 1.20791 4.86914 1.23047C4.88308 1.25303 4.90468 1.27148 4.91715 1.27148C4.94671 1.27148 5.37891 1.77571 5.37891 1.8102C5.37891 1.82474 5.39473 1.84995 5.41406 1.86621C5.4334 1.88247 5.44922 1.91016 5.44922 1.92773C5.44922 1.94531 5.46504 1.973 5.48438 1.98926C5.50371 2.00552 5.51953 2.03321 5.51953 2.05078C5.51953 2.06836 5.53535 2.09604 5.55469 2.1123C5.57402 2.12857 5.58984 2.15828 5.58984 2.17836C5.58984 2.19842 5.59775 2.21484 5.60742 2.21484C5.61709 2.21484 5.625 2.2333 5.625 2.25586C5.625 2.27842 5.63291 2.29688 5.64258 2.29688C5.65225 2.29688 5.66016 2.31533 5.66016 2.33789C5.66016 2.36045 5.66807 2.37891 5.67773 2.37891C5.6874 2.37891 5.69531 2.39736 5.69531 2.41992C5.69531 2.44248 5.70322 2.46094 5.71289 2.46094C5.72256 2.46094 5.73047 2.48862 5.73047 2.52246C5.73047 2.5563 5.73838 2.58398 5.74805 2.58398C5.75771 2.58398 5.76562 2.61167 5.76562 2.64551C5.76562 2.67935 5.77353 2.70703 5.7832 2.70703C5.79287 2.70703 5.80078 2.73472 5.80078 2.76855C5.80078 2.80239 5.80869 2.83008 5.81836 2.83008C5.82803 2.83008 5.83594 2.86699 5.83594 2.91211C5.83594 2.95723 5.84385 2.99414 5.85352 2.99414C5.86355 2.99414 5.87109 3.05566 5.87109 3.1377C5.87109 3.21973 5.87863 3.28125 5.88867 3.28125C5.89966 3.28125 5.90625 3.4043 5.90625 3.60938C5.90625 3.81445 5.89966 3.9375 5.88867 3.9375C5.87863 3.9375 5.87109 3.99902 5.87109 4.08105C5.87109 4.16309 5.86355 4.22461 5.85352 4.22461C5.84385 4.22461 5.83594 4.26152 5.83594 4.30664C5.83594 4.35176 5.82803 4.38867 5.81836 4.38867C5.80869 4.38867 5.80078 4.41636 5.80078 4.45019C5.80078 4.48403 5.79287 4.51172 5.7832 4.51172C5.77353 4.51172 5.76562 4.5394 5.76562 4.57324C5.76562 4.60708 5.75771 4.63477 5.74805 4.63477C5.73838 4.63477 5.73047 4.66245 5.73047 4.69629C5.73047 4.73013 5.72256 4.75781 5.71289 4.75781C5.70322 4.75781 5.69531 4.77627 5.69531 4.79883C5.69531 4.82139 5.6874 4.83984 5.67773 4.83984C5.66807 4.83984 5.66016 4.8583 5.66016 4.88086C5.66016 4.90342 5.65225 4.92188 5.64258 4.92188C5.63291 4.92188 5.625 4.94033 5.625 4.96289C5.625 4.98545 5.61709 5.00391 5.60742 5.00391C5.59775 5.00391 5.58984 5.02033 5.58984 5.04039C5.58984 5.06047 5.57402 5.09018 5.55469 5.10644C5.53535 5.12271 5.51953 5.15039 5.51953 5.16797C5.51953 5.18554 5.50371 5.21323 5.48438 5.22949C5.46504 5.24575 5.44922 5.27344 5.44922 5.29102C5.44922 5.30859 5.4334 5.33628 5.41406 5.35254C5.39473 5.3688 5.37891 5.39401 5.37891 5.40855C5.37891 5.44304 4.94671 5.94727 4.91715 5.94727C4.90468 5.94727 4.88308 5.96572 4.86914 5.98828C4.8552 6.01084 4.83147 6.0293 4.81641 6.0293C4.80134 6.0293 4.77761 6.04775 4.76367 6.07031C4.74973 6.09287 4.726 6.11133 4.71094 6.11133C4.69587 6.11133 4.67214 6.12979 4.6582 6.15234C4.64426 6.1749 4.61879 6.19336 4.60158 6.19336C4.58439 6.19336 4.57031 6.20259 4.57031 6.21387C4.57031 6.22515 4.55449 6.23438 4.53516 6.23438C4.51582 6.23438 4.5 6.2436 4.5 6.25488C4.5 6.26616 4.48418 6.27539 4.46484 6.27539C4.44551 6.27539 4.42969 6.28462 4.42969 6.2959C4.42969 6.30718 4.41387 6.31641 4.39453 6.31641C4.3752 6.31641 4.35938 6.32563 4.35938 6.33691C4.35938 6.34819 4.33564 6.35742 4.30664 6.35742C4.27764 6.35742 4.25391 6.36665 4.25391 6.37793C4.25391 6.38921 4.23018 6.39844 4.20117 6.39844C4.17217 6.39844 4.14844 6.40767 4.14844 6.41895C4.14844 6.43022 4.12471 6.43945 4.0957 6.43945C4.0667 6.43945 4.04297 6.44868 4.04297 6.45996C4.04297 6.47124 4.01133 6.48047 3.97266 6.48047C3.93398 6.48047 3.90234 6.4897 3.90234 6.50098C3.90234 6.51269 3.84961 6.52148 3.7793 6.52148C3.70898 6.52148 3.65625 6.53028 3.65625 6.54199C3.65625 6.55542 3.29883 6.5625 2.61914 6.5625C1.93945 6.5625 1.58203 6.56958 1.58203 6.58301C1.58203 6.59429 1.56981 6.60352 1.55487 6.60352C1.5197 6.60352 1.44141 6.69486 1.44141 6.73589C1.44141 6.75332 1.4335 6.76758 1.42383 6.76758C1.41224 6.76758 1.40625 7.40332 1.40625 8.63379V10.5H0.984375H0.5625V5.68066C0.5625 2.48145 0.568406 0.861328 0.580078 0.861328C0.589746 0.861328 0.597656 0.847075 0.597656 0.829644C0.597656 0.812212 0.61708 0.775298 0.64081 0.747612C0.664541 0.719927 0.696182 0.697266 0.711123 0.697266C0.726064 0.697266 0.738281 0.688037 0.738281 0.676758C0.738281 0.663243 1.23632 0.65625 2.19727 0.65625C3.15821 0.65625 3.65625 0.663243 3.65625 0.676758ZM1.58203 1.66113C1.58203 1.67241 1.56981 1.68164 1.55487 1.68164C1.5197 1.68164 1.44141 1.77298 1.44141 1.81402C1.44141 1.83145 1.4335 1.8457 1.42383 1.8457C1.41224 1.8457 1.40625 2.44726 1.40625 3.60938C1.40625 4.77149 1.41224 5.37305 1.42383 5.37305C1.4335 5.37305 1.44141 5.3873 1.44141 5.40473C1.44141 5.44577 1.5197 5.53711 1.55487 5.53711C1.56981 5.53711 1.58203 5.54634 1.58203 5.55762C1.58203 5.57105 1.93359 5.57812 2.60156 5.57812C3.26953 5.57812 3.62109 5.57105 3.62109 5.55762C3.62109 5.54634 3.66064 5.53711 3.70898 5.53711C3.75732 5.53711 3.79687 5.52788 3.79687 5.5166C3.79687 5.50532 3.82061 5.49609 3.84961 5.49609C3.87861 5.49609 3.90234 5.48687 3.90234 5.47559C3.90234 5.46431 3.92607 5.45508 3.95508 5.45508C3.98408 5.45508 4.00781 5.44585 4.00781 5.43457C4.00781 5.42329 4.02363 5.41406 4.04297 5.41406C4.0623 5.41406 4.07812 5.40483 4.07812 5.39355C4.07812 5.38228 4.09395 5.37305 4.11328 5.37305C4.13262 5.37305 4.14844 5.36382 4.14844 5.35254C4.14844 5.34126 4.16426 5.33203 4.18359 5.33203C4.20293 5.33203 4.21875 5.3228 4.21875 5.31152C4.21875 5.30024 4.23283 5.29102 4.25002 5.29102C4.26723 5.29102 4.2927 5.27256 4.30664 5.25C4.32058 5.22744 4.34218 5.20898 4.35466 5.20898C4.36714 5.20898 4.46033 5.11219 4.56173 4.9939C4.66312 4.87559 4.74609 4.76688 4.74609 4.75232C4.74609 4.73776 4.76191 4.71255 4.78125 4.69629C4.80059 4.68003 4.81641 4.65031 4.81641 4.63023C4.81641 4.61018 4.82432 4.59375 4.83398 4.59375C4.84365 4.59375 4.85156 4.57529 4.85156 4.55273C4.85156 4.53018 4.85947 4.51172 4.86914 4.51172C4.87881 4.51172 4.88672 4.49326 4.88672 4.4707C4.88672 4.44814 4.89463 4.42969 4.9043 4.42969C4.91396 4.42969 4.92188 4.41123 4.92188 4.38867C4.92188 4.36611 4.92978 4.34766 4.93945 4.34766C4.94912 4.34766 4.95703 4.31997 4.95703 4.28613C4.95703 4.25229 4.96494 4.22461 4.97461 4.22461C4.98428 4.22461 4.99219 4.19692 4.99219 4.16309C4.99219 4.12925 5.0001 4.10156 5.00977 4.10156C5.01943 4.10156 5.02734 4.05542 5.02734 3.99902C5.02734 3.94263 5.03525 3.89648 5.04492 3.89648C5.0558 3.89648 5.0625 3.78712 5.0625 3.60938C5.0625 3.43163 5.0558 3.32227 5.04492 3.32227C5.03525 3.32227 5.02734 3.27612 5.02734 3.21973C5.02734 3.16333 5.01943 3.11719 5.00977 3.11719C5.0001 3.11719 4.99219 3.0895 4.99219 3.05566C4.99219 3.02183 4.98428 2.99414 4.97461 2.99414C4.96494 2.99414 4.95703 2.96645 4.95703 2.93262C4.95703 2.89878 4.94912 2.87109 4.93945 2.87109C4.92978 2.87109 4.92188 2.85264 4.92188 2.83008C4.92188 2.80752 4.91396 2.78906 4.9043 2.78906C4.89463 2.78906 4.88672 2.77061 4.88672 2.74805C4.88672 2.72549 4.87881 2.70703 4.86914 2.70703C4.85947 2.70703 4.85156 2.68857 4.85156 2.66602C4.85156 2.64346 4.84365 2.625 4.83398 2.625C4.82432 2.625 4.81641 2.60857 4.81641 2.58852C4.81641 2.56844 4.80059 2.53872 4.78125 2.52246C4.76191 2.5062 4.74609 2.48099 4.74609 2.46643C4.74609 2.43188 4.38428 2.00977 4.35466 2.00977C4.34218 2.00977 4.32058 1.99131 4.30664 1.96875C4.2927 1.94619 4.26723 1.92773 4.25002 1.92773C4.23283 1.92773 4.21875 1.91851 4.21875 1.90723C4.21875 1.89595 4.20293 1.88672 4.18359 1.88672C4.16426 1.88672 4.14844 1.87749 4.14844 1.86621C4.14844 1.85493 4.13262 1.8457 4.11328 1.8457C4.09395 1.8457 4.07812 1.83647 4.07812 1.8252C4.07812 1.81392 4.0623 1.80469 4.04297 1.80469C4.02363 1.80469 4.00781 1.79546 4.00781 1.78418C4.00781 1.7729 3.98408 1.76367 3.95508 1.76367C3.92607 1.76367 3.90234 1.75444 3.90234 1.74316C3.90234 1.73188 3.87861 1.72266 3.84961 1.72266C3.82061 1.72266 3.79687 1.71343 3.79687 1.70215C3.79687 1.69087 3.75732 1.68164 3.70898 1.68164C3.66064 1.68164 3.62109 1.67241 3.62109 1.66113C3.62109 1.6477 3.26953 1.64062 2.60156 1.64062C1.93359 1.64062 1.58203 1.6477 1.58203 1.66113ZM3.55078 2.31738C3.55078 2.32866 3.59033 2.33789 3.63867 2.33789C3.68701 2.33789 3.72656 2.34712 3.72656 2.3584C3.72656 2.36968 3.74238 2.37891 3.76172 2.37891C3.78105 2.37891 3.79687 2.38813 3.79687 2.39941C3.79687 2.41069 3.8127 2.41992 3.83203 2.41992C3.85137 2.41992 3.86719 2.42915 3.86719 2.44043C3.86719 2.45171 3.88301 2.46094 3.90234 2.46094C3.92168 2.46094 3.9375 2.47017 3.9375 2.48145C3.9375 2.49272 3.95158 2.50195 3.96877 2.50195C3.98598 2.50195 4.01145 2.52041 4.02539 2.54297C4.03933 2.56553 4.06106 2.58398 4.07368 2.58398C4.10354 2.58398 4.25391 2.75941 4.25391 2.79425C4.25391 2.80898 4.26973 2.83432 4.28906 2.85059C4.3084 2.86685 4.32422 2.89656 4.32422 2.91664C4.32422 2.9367 4.33213 2.95312 4.3418 2.95312C4.35146 2.95312 4.35938 2.97158 4.35938 2.99414C4.35938 3.0167 4.36728 3.03516 4.37695 3.03516C4.38662 3.03516 4.39453 3.05361 4.39453 3.07617C4.39453 3.09873 4.40244 3.11719 4.41211 3.11719C4.42178 3.11719 4.42969 3.13564 4.42969 3.1582C4.42969 3.18076 4.4376 3.19922 4.44727 3.19922C4.45693 3.19922 4.46484 3.24536 4.46484 3.30176C4.46484 3.35815 4.47275 3.4043 4.48242 3.4043C4.49297 3.4043 4.5 3.48633 4.5 3.60938C4.5 3.73242 4.49297 3.81445 4.48242 3.81445C4.47275 3.81445 4.46484 3.8606 4.46484 3.91699C4.46484 3.97339 4.45693 4.01953 4.44727 4.01953C4.4376 4.01953 4.42969 4.03799 4.42969 4.06055C4.42969 4.08311 4.42178 4.10156 4.41211 4.10156C4.40244 4.10156 4.39453 4.12002 4.39453 4.14258C4.39453 4.16514 4.38662 4.18359 4.37695 4.18359C4.36728 4.18359 4.35938 4.20205 4.35938 4.22461C4.35938 4.24717 4.35146 4.26562 4.3418 4.26562C4.33213 4.26562 4.32422 4.28205 4.32422 4.30211C4.32422 4.32219 4.3084 4.3519 4.28906 4.36816C4.26973 4.38443 4.25391 4.40977 4.25391 4.4245C4.25391 4.45934 4.10354 4.63477 4.07368 4.63477C4.06106 4.63477 4.03933 4.65322 4.02539 4.67578C4.01145 4.69834 3.98598 4.7168 3.96877 4.7168C3.95158 4.7168 3.9375 4.72603 3.9375 4.7373C3.9375 4.74858 3.92168 4.75781 3.90234 4.75781C3.88301 4.75781 3.86719 4.76704 3.86719 4.77832C3.86719 4.7896 3.85137 4.79883 3.83203 4.79883C3.8127 4.79883 3.79687 4.80806 3.79687 4.81934C3.79687 4.83062 3.78105 4.83984 3.76172 4.83984C3.74238 4.83984 3.72656 4.84907 3.72656 4.86035C3.72656 4.87163 3.68701 4.88086 3.63867 4.88086C3.59033 4.88086 3.55078 4.89009 3.55078 4.90137C3.55078 4.91474 3.27538 4.92188 2.75977 4.92188H1.96875V3.60938V2.29688H2.75977C3.27538 2.29688 3.55078 2.30401 3.55078 2.31738ZM6.22266 8.26465C6.22266 8.27593 6.19102 8.28516 6.15234 8.28516C6.11367 8.28516 6.08203 8.29438 6.08203 8.30566C6.08203 8.31694 6.0583 8.32617 6.0293 8.32617C6.00029 8.32617 5.97656 8.3354 5.97656 8.34668C5.97656 8.35796 5.96074 8.36719 5.94141 8.36719C5.92207 8.36719 5.90625 8.37642 5.90625 8.3877C5.90625 8.39897 5.89043 8.4082 5.87109 8.4082C5.85176 8.4082 5.83594 8.41743 5.83594 8.42871C5.83594 8.43999 5.82186 8.44922 5.80467 8.44922C5.78746 8.44922 5.76199 8.46768 5.74805 8.49023C5.73411 8.51279 5.71249 8.53125 5.69999 8.53125C5.67037 8.53125 5.34375 8.9123 5.34375 8.94686C5.34375 8.96144 5.32793 8.98667 5.30859 9.00293C5.28926 9.01919 5.27344 9.04891 5.27344 9.06898C5.27344 9.08904 5.26553 9.10547 5.25586 9.10547C5.24619 9.10547 5.23828 9.12393 5.23828 9.14648C5.23828 9.16904 5.23037 9.1875 5.2207 9.1875C5.21103 9.1875 5.20312 9.21519 5.20312 9.24902C5.20312 9.28286 5.19521 9.31055 5.18555 9.31055C5.17588 9.31055 5.16797 9.33823 5.16797 9.37207C5.16797 9.40591 5.16006 9.43359 5.15039 9.43359C5.14072 9.43359 5.13281 9.45205 5.13281 9.47461C5.13281 9.49717 5.1249 9.51562 5.11523 9.51562C5.10557 9.51562 5.09766 9.53408 5.09766 9.55664C5.09766 9.5792 5.08975 9.59766 5.08008 9.59766C5.07041 9.59766 5.0625 9.61611 5.0625 9.63867C5.0625 9.66123 5.05459 9.67969 5.04492 9.67969C5.03525 9.67969 5.02734 9.70737 5.02734 9.74121C5.02734 9.77505 5.01943 9.80273 5.00977 9.80273C5.0001 9.80273 4.99219 9.82119 4.99219 9.84375C4.99219 9.86631 4.98428 9.88476 4.97461 9.88476C4.96494 9.88476 4.95703 9.90322 4.95703 9.92578C4.95703 9.94834 4.94912 9.9668 4.93945 9.9668C4.92978 9.9668 4.92188 9.99448 4.92188 10.0283C4.92188 10.0622 4.91396 10.0898 4.9043 10.0898C4.89463 10.0898 4.88672 10.1083 4.88672 10.1309C4.88672 10.1534 4.87881 10.1719 4.86914 10.1719C4.85947 10.1719 4.85156 10.1903 4.85156 10.2129C4.85156 10.2354 4.84365 10.2539 4.83398 10.2539C4.82432 10.2539 4.81641 10.2724 4.81641 10.2949C4.81641 10.3175 4.8085 10.3359 4.79883 10.3359C4.78916 10.3359 4.78125 10.3636 4.78125 10.3975C4.78125 10.4313 4.77334 10.459 4.76367 10.459C4.754 10.459 4.74609 10.4774 4.74609 10.5C4.74609 10.5226 4.73818 10.541 4.72852 10.541C4.71885 10.541 4.71094 10.5595 4.71094 10.582C4.71094 10.6046 4.70303 10.623 4.69336 10.623C4.68369 10.623 4.67578 10.6415 4.67578 10.6641C4.67578 10.6866 4.66787 10.7051 4.6582 10.7051C4.64853 10.7051 4.64062 10.7328 4.64062 10.7666C4.64062 10.8004 4.63271 10.8281 4.62305 10.8281C4.61338 10.8281 4.60547 10.8466 4.60547 10.8691C4.60547 10.8917 4.59756 10.9102 4.58789 10.9102C4.57822 10.9102 4.57031 10.9286 4.57031 10.9512C4.57031 10.9737 4.5624 10.9922 4.55273 10.9922C4.54307 10.9922 4.53516 11.0199 4.53516 11.0537C4.53516 11.0875 4.52725 11.1152 4.51758 11.1152C4.50791 11.1152 4.5 11.1337 4.5 11.1562C4.5 11.1788 4.49209 11.1973 4.48242 11.1973C4.47275 11.1973 4.46484 11.2157 4.46484 11.2383C4.46484 11.2608 4.45693 11.2793 4.44727 11.2793C4.4376 11.2793 4.42969 11.2978 4.42969 11.3203C4.42969 11.3429 4.42178 11.3613 4.41211 11.3613C4.40244 11.3613 4.39453 11.389 4.39453 11.4229C4.39453 11.4567 4.38662 11.4844 4.37695 11.4844C4.36728 11.4844 4.35938 11.5028 4.35938 11.5254C4.35938 11.5479 4.35146 11.5664 4.3418 11.5664C4.33213 11.5664 4.32422 11.5849 4.32422 11.6074C4.32422 11.63 4.31631 11.6484 4.30664 11.6484C4.29697 11.6484 4.28906 11.6669 4.28906 11.6895C4.28906 11.712 4.28115 11.7305 4.27148 11.7305C4.26182 11.7305 4.25391 11.7582 4.25391 11.792C4.25391 11.8258 4.246 11.8535 4.23633 11.8535C4.22666 11.8535 4.21875 11.872 4.21875 11.8945C4.21875 11.9171 4.21084 11.9355 4.20117 11.9355C4.1915 11.9355 4.18359 11.954 4.18359 11.9766C4.18359 11.9991 4.17568 12.0176 4.16602 12.0176C4.15635 12.0176 4.14844 12.0453 4.14844 12.0791C4.14844 12.1129 4.14053 12.1406 4.13086 12.1406C4.12119 12.1406 4.11328 12.1591 4.11328 12.1816C4.11328 12.2042 4.10537 12.2227 4.0957 12.2227C4.08603 12.2227 4.07812 12.2411 4.07812 12.2637C4.07812 12.2862 4.07021 12.3047 4.06055 12.3047C4.05088 12.3047 4.04297 12.3231 4.04297 12.3457C4.04297 12.3683 4.03506 12.3867 4.02539 12.3867C4.01572 12.3867 4.00781 12.4144 4.00781 12.4482C4.00781 12.4821 3.9999 12.5098 3.99023 12.5098C3.98057 12.5098 3.97266 12.5282 3.97266 12.5508C3.97266 12.5733 3.96475 12.5918 3.95508 12.5918C3.94541 12.5918 3.9375 12.6103 3.9375 12.6328C3.9375 12.6554 3.92959 12.6738 3.91992 12.6738C3.91025 12.6738 3.90234 12.6923 3.90234 12.7148C3.90234 12.7374 3.89443 12.7559 3.88477 12.7559C3.8751 12.7559 3.86719 12.7835 3.86719 12.8174C3.86719 12.8512 3.85928 12.8789 3.84961 12.8789C3.83994 12.8789 3.83203 12.8974 3.83203 12.9199C3.83203 12.9425 3.82412 12.9609 3.81445 12.9609C3.80479 12.9609 3.79687 12.9794 3.79687 13.002C3.79687 13.0245 3.78896 13.043 3.7793 13.043C3.76963 13.043 3.76172 13.0575 3.76172 13.0752C3.76172 13.1286 3.71519 13.166 3.64871 13.166C3.61419 13.166 3.58594 13.1752 3.58594 13.1865C3.58594 13.1978 3.57012 13.207 3.55078 13.207C3.53145 13.207 3.51562 13.2163 3.51562 13.2275C3.51562 13.2388 3.4998 13.248 3.48047 13.248C3.46113 13.248 3.44531 13.2573 3.44531 13.2686C3.44531 13.2798 3.42949 13.2891 3.41016 13.2891C3.39082 13.2891 3.375 13.2983 3.375 13.3096C3.375 13.3208 3.36092 13.3301 3.34373 13.3301C3.32652 13.3301 3.30105 13.3485 3.28711 13.3711C3.27317 13.3937 3.25144 13.4121 3.23882 13.4121C3.20896 13.4121 3.05859 13.5875 3.05859 13.6224C3.05859 13.6371 3.04277 13.6624 3.02344 13.6787C3.0041 13.695 2.98828 13.7227 2.98828 13.7402C2.98828 13.7578 2.97246 13.7855 2.95312 13.8018C2.93249 13.8191 2.91797 13.8549 2.91797 13.8883C2.91797 13.9197 2.91006 13.9453 2.90039 13.9453C2.89072 13.9453 2.88281 13.9638 2.88281 13.9863C2.88281 14.0089 2.8749 14.0273 2.86523 14.0273C2.85557 14.0273 2.84766 14.0643 2.84766 14.1094C2.84766 14.1545 2.83975 14.1914 2.83008 14.1914C2.81844 14.1914 2.8125 15.21 2.8125 17.2061C2.8125 19.2021 2.81844 20.2207 2.83008 20.2207C2.83975 20.2207 2.84766 20.2484 2.84766 20.2822C2.84766 20.3161 2.85557 20.3438 2.86523 20.3438C2.8749 20.3438 2.88281 20.3694 2.88281 20.4007C2.88281 20.4342 2.89733 20.4699 2.91797 20.4873C2.9373 20.5036 2.95312 20.5289 2.95312 20.5435C2.95312 20.5782 3.17408 20.8359 3.20381 20.8359C3.21634 20.8359 3.23801 20.8544 3.25195 20.877C3.26684 20.901 3.29746 20.918 3.32615 20.918C3.35301 20.918 3.375 20.9272 3.375 20.9385C3.375 20.9498 3.39873 20.959 3.42773 20.959C3.45674 20.959 3.48047 20.9682 3.48047 20.9795C3.48047 20.9929 3.83203 21 4.5 21C5.16797 21 5.51953 20.9929 5.51953 20.9795C5.51953 20.9682 5.54326 20.959 5.57227 20.959C5.60127 20.959 5.625 20.9498 5.625 20.9385C5.625 20.9272 5.64699 20.918 5.67385 20.918C5.70254 20.918 5.73316 20.901 5.74805 20.877C5.76199 20.8544 5.78366 20.8359 5.79619 20.8359C5.82592 20.8359 6.04687 20.5782 6.04687 20.5435C6.04687 20.5289 6.0627 20.5036 6.08203 20.4873C6.10267 20.4699 6.11719 20.4342 6.11719 20.4007C6.11719 20.3694 6.1251 20.3438 6.13477 20.3438C6.14443 20.3438 6.15234 20.3161 6.15234 20.2822C6.15234 20.2484 6.16025 20.2207 6.16992 20.2207C6.18108 20.2207 6.1875 20.0635 6.1875 19.79V19.3594H10.4062H14.625V19.79C14.625 20.0635 14.6314 20.2207 14.6426 20.2207C14.6522 20.2207 14.6602 20.2484 14.6602 20.2822C14.6602 20.3161 14.6681 20.3438 14.6777 20.3438C14.6874 20.3438 14.6953 20.3694 14.6953 20.4007C14.6953 20.4342 14.7098 20.4699 14.7305 20.4873C14.7498 20.5036 14.7656 20.5289 14.7656 20.5435C14.7656 20.5782 14.9866 20.8359 15.0163 20.8359C15.0288 20.8359 15.0505 20.8544 15.0645 20.877C15.0793 20.901 15.11 20.918 15.1386 20.918C15.1655 20.918 15.1875 20.9272 15.1875 20.9385C15.1875 20.9498 15.2112 20.959 15.2402 20.959C15.2692 20.959 15.293 20.9682 15.293 20.9795C15.293 20.9929 15.6445 21 16.3125 21C16.9805 21 17.332 20.9929 17.332 20.9795C17.332 20.9682 17.3558 20.959 17.3848 20.959C17.4138 20.959 17.4375 20.9498 17.4375 20.9385C17.4375 20.9272 17.4595 20.918 17.4863 20.918C17.515 20.918 17.5457 20.901 17.5605 20.877C17.5745 20.8544 17.5962 20.8359 17.6087 20.8359C17.6384 20.8359 17.8594 20.5782 17.8594 20.5435C17.8594 20.5289 17.8752 20.5036 17.8945 20.4873C17.9152 20.4699 17.9297 20.4342 17.9297 20.4007C17.9297 20.3694 17.9376 20.3438 17.9473 20.3438C17.9569 20.3438 17.9648 20.3161 17.9648 20.2822C17.9648 20.2484 17.9728 20.2207 17.9824 20.2207C17.9941 20.2207 18 19.2021 18 17.2061C18 15.21 17.9941 14.1914 17.9824 14.1914C17.9728 14.1914 17.9648 14.1545 17.9648 14.1094C17.9648 14.0643 17.9569 14.0273 17.9473 14.0273C17.9376 14.0273 17.9297 14.0089 17.9297 13.9863C17.9297 13.9638 17.9218 13.9453 17.9121 13.9453C17.9024 13.9453 17.8945 13.9269 17.8945 13.9043C17.8945 13.8817 17.8866 13.8633 17.877 13.8633C17.8673 13.8633 17.8594 13.8448 17.8594 13.8223C17.8594 13.7997 17.8515 13.7812 17.8418 13.7812C17.8321 13.7812 17.8242 13.7648 17.8242 13.7448C17.8242 13.7247 17.8084 13.695 17.7891 13.6787C17.7697 13.6624 17.7539 13.6371 17.7539 13.6224C17.7539 13.6077 17.7185 13.5543 17.6753 13.5039C17.632 13.4534 17.5863 13.4121 17.5737 13.4121C17.5611 13.4121 17.5393 13.3937 17.5254 13.3711C17.5114 13.3485 17.4877 13.3301 17.4727 13.3301C17.4576 13.3301 17.4339 13.3116 17.4199 13.2891C17.405 13.265 17.3744 13.248 17.3457 13.248C17.3189 13.248 17.2969 13.2388 17.2969 13.2275C17.2969 13.2163 17.2811 13.207 17.2617 13.207C17.2424 13.207 17.2266 13.1978 17.2266 13.1865C17.2266 13.1752 17.1983 13.166 17.1638 13.166C17.0973 13.166 17.0508 13.1286 17.0508 13.0752C17.0508 13.0575 17.0429 13.043 17.0332 13.043C17.0235 13.043 17.0156 13.0245 17.0156 13.002C17.0156 12.9794 17.0077 12.9609 16.998 12.9609C16.9884 12.9609 16.9805 12.9425 16.9805 12.9199C16.9805 12.8974 16.9726 12.8789 16.9629 12.8789C16.9532 12.8789 16.9453 12.8604 16.9453 12.8379C16.9453 12.8153 16.9374 12.7969 16.9277 12.7969C16.9181 12.7969 16.9102 12.7692 16.9102 12.7354C16.9102 12.7015 16.9022 12.6738 16.8926 12.6738C16.8829 12.6738 16.875 12.6554 16.875 12.6328C16.875 12.6103 16.8671 12.5918 16.8574 12.5918C16.8478 12.5918 16.8398 12.5733 16.8398 12.5508C16.8398 12.5282 16.8319 12.5098 16.8223 12.5098C16.8126 12.5098 16.8047 12.4821 16.8047 12.4482C16.8047 12.4144 16.7968 12.3867 16.7871 12.3867C16.7774 12.3867 16.7695 12.3683 16.7695 12.3457C16.7695 12.3231 16.7616 12.3047 16.752 12.3047C16.7423 12.3047 16.7344 12.2862 16.7344 12.2637C16.7344 12.2411 16.7265 12.2227 16.7168 12.2227C16.7071 12.2227 16.6992 12.2042 16.6992 12.1816C16.6992 12.1591 16.6913 12.1406 16.6816 12.1406C16.672 12.1406 16.6641 12.1129 16.6641 12.0791C16.6641 12.0453 16.6562 12.0176 16.6465 12.0176C16.6368 12.0176 16.6289 11.9991 16.6289 11.9766C16.6289 11.954 16.621 11.9355 16.6113 11.9355C16.6017 11.9355 16.5938 11.9171 16.5938 11.8945C16.5938 11.872 16.5858 11.8535 16.5762 11.8535C16.5665 11.8535 16.5586 11.8258 16.5586 11.792C16.5586 11.7582 16.5507 11.7305 16.541 11.7305C16.5313 11.7305 16.5234 11.712 16.5234 11.6895C16.5234 11.6669 16.5155 11.6484 16.5059 11.6484C16.4962 11.6484 16.4883 11.63 16.4883 11.6074C16.4883 11.5849 16.4804 11.5664 16.4707 11.5664C16.461 11.5664 16.4531 11.5479 16.4531 11.5254C16.4531 11.5028 16.4452 11.4844 16.4355 11.4844C16.4259 11.4844 16.418 11.4567 16.418 11.4229C16.418 11.389 16.4101 11.3613 16.4004 11.3613C16.3907 11.3613 16.3828 11.3429 16.3828 11.3203C16.3828 11.2978 16.3749 11.2793 16.3652 11.2793C16.3556 11.2793 16.3477 11.2608 16.3477 11.2383C16.3477 11.2157 16.3397 11.1973 16.3301 11.1973C16.3204 11.1973 16.3125 11.1788 16.3125 11.1562C16.3125 11.1337 16.3046 11.1152 16.2949 11.1152C16.2853 11.1152 16.2773 11.0875 16.2773 11.0537C16.2773 11.0199 16.2694 10.9922 16.2598 10.9922C16.2501 10.9922 16.2422 10.9737 16.2422 10.9512C16.2422 10.9286 16.2343 10.9102 16.2246 10.9102C16.2149 10.9102 16.207 10.8917 16.207 10.8691C16.207 10.8466 16.1991 10.8281 16.1895 10.8281C16.1798 10.8281 16.1719 10.8004 16.1719 10.7666C16.1719 10.7328 16.164 10.7051 16.1543 10.7051C16.1446 10.7051 16.1367 10.6866 16.1367 10.6641C16.1367 10.6415 16.1288 10.623 16.1191 10.623C16.1095 10.623 16.1016 10.6046 16.1016 10.582C16.1016 10.5595 16.0937 10.541 16.084 10.541C16.0743 10.541 16.0664 10.5226 16.0664 10.5C16.0664 10.4774 16.0585 10.459 16.0488 10.459C16.0392 10.459 16.0312 10.4313 16.0312 10.3975C16.0312 10.3636 16.0233 10.3359 16.0137 10.3359C16.004 10.3359 15.9961 10.3175 15.9961 10.2949C15.9961 10.2724 15.9882 10.2539 15.9785 10.2539C15.9688 10.2539 15.9609 10.2354 15.9609 10.2129C15.9609 10.1903 15.953 10.1719 15.9434 10.1719C15.9337 10.1719 15.9258 10.1442 15.9258 10.1104C15.9258 10.0765 15.9179 10.0488 15.9082 10.0488C15.8985 10.0488 15.8906 10.0304 15.8906 10.0078C15.8906 9.98525 15.8827 9.9668 15.873 9.9668C15.8634 9.9668 15.8555 9.94834 15.8555 9.92578C15.8555 9.90322 15.8476 9.88476 15.8379 9.88476C15.8282 9.88476 15.8203 9.86631 15.8203 9.84375C15.8203 9.82119 15.8124 9.80273 15.8027 9.80273C15.7931 9.80273 15.7852 9.77505 15.7852 9.74121C15.7852 9.70737 15.7772 9.67969 15.7676 9.67969C15.7579 9.67969 15.75 9.66123 15.75 9.63867C15.75 9.61611 15.7421 9.59766 15.7324 9.59766C15.7228 9.59766 15.7148 9.5792 15.7148 9.55664C15.7148 9.53408 15.7069 9.51562 15.6973 9.51562C15.6876 9.51562 15.6797 9.49717 15.6797 9.47461C15.6797 9.45205 15.6718 9.43359 15.6621 9.43359C15.6524 9.43359 15.6445 9.40591 15.6445 9.37207C15.6445 9.33823 15.6366 9.31055 15.627 9.31055C15.6173 9.31055 15.6094 9.28286 15.6094 9.24902C15.6094 9.21519 15.6015 9.1875 15.5918 9.1875C15.5821 9.1875 15.5742 9.16904 15.5742 9.14648C15.5742 9.12393 15.5663 9.10547 15.5566 9.10547C15.547 9.10547 15.5391 9.08904 15.5391 9.06898C15.5391 9.04891 15.5232 9.01919 15.5039 9.00293C15.4846 8.98667 15.4687 8.96144 15.4687 8.94686C15.4687 8.9123 15.1421 8.53125 15.1125 8.53125C15.1 8.53125 15.0784 8.51279 15.0645 8.49023C15.0505 8.46768 15.025 8.44922 15.0078 8.44922C14.9906 8.44922 14.9766 8.43999 14.9766 8.42871C14.9766 8.41743 14.9607 8.4082 14.9414 8.4082C14.9221 8.4082 14.9062 8.39897 14.9062 8.3877C14.9062 8.37642 14.8904 8.36719 14.8711 8.36719C14.8518 8.36719 14.8359 8.35796 14.8359 8.34668C14.8359 8.3354 14.8122 8.32617 14.7832 8.32617C14.7542 8.32617 14.7305 8.31694 14.7305 8.30566C14.7305 8.29438 14.6988 8.28516 14.6602 8.28516C14.6215 8.28516 14.5898 8.27593 14.5898 8.26465C14.5898 8.25103 13.1836 8.24414 10.4062 8.24414C7.62891 8.24414 6.22266 8.25103 6.22266 8.26465ZM14.5195 8.9209C14.5195 8.93218 14.5433 8.94141 14.5723 8.94141C14.6013 8.94141 14.625 8.95063 14.625 8.96191C14.625 8.97319 14.6408 8.98242 14.6602 8.98242C14.6795 8.98242 14.6953 8.99165 14.6953 9.00293C14.6953 9.01421 14.708 9.02344 14.7234 9.02344C14.7389 9.02344 14.7737 9.05112 14.8008 9.08496C14.8279 9.1188 14.8593 9.14648 14.8706 9.14648C14.8972 9.14648 14.9414 9.1981 14.9414 9.22907C14.9414 9.24228 14.9651 9.27894 14.9941 9.31055C15.0231 9.34215 15.0469 9.38278 15.0469 9.4008C15.0469 9.41885 15.0548 9.43359 15.0645 9.43359C15.0741 9.43359 15.082 9.45205 15.082 9.47461C15.082 9.49717 15.0899 9.51562 15.0996 9.51562C15.1093 9.51562 15.1172 9.54331 15.1172 9.57715C15.1172 9.61099 15.1251 9.63867 15.1348 9.63867C15.1444 9.63867 15.1523 9.66636 15.1523 9.7002C15.1523 9.73403 15.1603 9.76172 15.1699 9.76172C15.1796 9.76172 15.1875 9.78018 15.1875 9.80273C15.1875 9.82529 15.1954 9.84375 15.2051 9.84375C15.2147 9.84375 15.2227 9.86221 15.2227 9.88476C15.2227 9.90732 15.2306 9.92578 15.2402 9.92578C15.2499 9.92578 15.2578 9.94424 15.2578 9.9668C15.2578 9.98936 15.2657 10.0078 15.2754 10.0078C15.2851 10.0078 15.293 10.0355 15.293 10.0693C15.293 10.1032 15.3009 10.1309 15.3105 10.1309C15.3202 10.1309 15.3281 10.1493 15.3281 10.1719C15.3281 10.1944 15.336 10.2129 15.3457 10.2129C15.3554 10.2129 15.3633 10.2313 15.3633 10.2539C15.3633 10.2765 15.3712 10.2949 15.3809 10.2949C15.3905 10.2949 15.3984 10.3134 15.3984 10.3359C15.3984 10.3585 15.4063 10.377 15.416 10.377C15.4257 10.377 15.4336 10.4046 15.4336 10.4385C15.4336 10.4723 15.4415 10.5 15.4512 10.5C15.4608 10.5 15.4687 10.5185 15.4687 10.541C15.4687 10.5636 15.4767 10.582 15.4863 10.582C15.496 10.582 15.5039 10.6005 15.5039 10.623C15.5039 10.6456 15.5118 10.6641 15.5215 10.6641C15.5312 10.6641 15.5391 10.6917 15.5391 10.7256C15.5391 10.7594 15.547 10.7871 15.5566 10.7871C15.5663 10.7871 15.5742 10.8056 15.5742 10.8281C15.5742 10.8507 15.5821 10.8691 15.5918 10.8691C15.6015 10.8691 15.6094 10.8876 15.6094 10.9102C15.6094 10.9327 15.6173 10.9512 15.627 10.9512C15.6366 10.9512 15.6445 10.9696 15.6445 10.9922C15.6445 11.0147 15.6524 11.0332 15.6621 11.0332C15.6718 11.0332 15.6797 11.0609 15.6797 11.0947C15.6797 11.1286 15.6876 11.1562 15.6973 11.1562C15.7069 11.1562 15.7148 11.1747 15.7148 11.1973C15.7148 11.2198 15.7228 11.2383 15.7324 11.2383C15.7421 11.2383 15.75 11.2567 15.75 11.2793C15.75 11.3019 15.7579 11.3203 15.7676 11.3203C15.7772 11.3203 15.7852 11.3388 15.7852 11.3613C15.7852 11.3839 15.7931 11.4023 15.8027 11.4023C15.8124 11.4023 15.8203 11.43 15.8203 11.4639C15.8203 11.4977 15.8282 11.5254 15.8379 11.5254C15.8476 11.5254 15.8555 11.5438 15.8555 11.5664C15.8555 11.589 15.8634 11.6074 15.873 11.6074C15.8827 11.6074 15.8906 11.6259 15.8906 11.6484C15.8906 11.671 15.8985 11.6895 15.9082 11.6895C15.9179 11.6895 15.9258 11.7171 15.9258 11.751C15.9258 11.7848 15.9337 11.8125 15.9434 11.8125C15.953 11.8125 15.9609 11.831 15.9609 11.8535C15.9609 11.8761 15.9688 11.8945 15.9785 11.8945C15.9882 11.8945 15.9961 11.913 15.9961 11.9355C15.9961 11.9581 16.004 11.9766 16.0137 11.9766C16.0233 11.9766 16.0312 11.995 16.0312 12.0176C16.0312 12.0401 16.0392 12.0586 16.0488 12.0586C16.0585 12.0586 16.0664 12.0863 16.0664 12.1201C16.0664 12.154 16.0743 12.1816 16.084 12.1816C16.0937 12.1816 16.1016 12.2001 16.1016 12.2227C16.1016 12.2452 16.1095 12.2637 16.1191 12.2637C16.1288 12.2637 16.1367 12.2821 16.1367 12.3047C16.1367 12.3272 16.1446 12.3457 16.1543 12.3457C16.164 12.3457 16.1719 12.3734 16.1719 12.4072C16.1719 12.4411 16.1798 12.4688 16.1895 12.4688C16.1991 12.4688 16.207 12.4872 16.207 12.5098C16.207 12.5323 16.2149 12.5508 16.2246 12.5508C16.2343 12.5508 16.2422 12.5692 16.2422 12.5918C16.2422 12.6144 16.2501 12.6328 16.2598 12.6328C16.2694 12.6328 16.2773 12.6513 16.2773 12.6738C16.2773 12.6964 16.2853 12.7148 16.2949 12.7148C16.3046 12.7148 16.3125 12.7425 16.3125 12.7764C16.3125 12.8102 16.3204 12.8379 16.3301 12.8379C16.3397 12.8379 16.3477 12.8563 16.3477 12.8789C16.3477 12.9015 16.3556 12.9199 16.3652 12.9199C16.3749 12.9199 16.3828 12.9384 16.3828 12.9609C16.3828 12.9835 16.3907 13.002 16.4004 13.002C16.4101 13.002 16.418 13.0296 16.418 13.0635V13.125H10.3887C6.38086 13.125 4.35938 13.1181 4.35938 13.1045C4.35938 13.0932 4.36728 13.084 4.37695 13.084C4.38662 13.084 4.39453 13.0655 4.39453 13.043C4.39453 13.0204 4.40244 13.002 4.41211 13.002C4.42178 13.002 4.42969 12.9835 4.42969 12.9609C4.42969 12.9384 4.4376 12.9199 4.44727 12.9199C4.45693 12.9199 4.46484 12.9015 4.46484 12.8789C4.46484 12.8563 4.47275 12.8379 4.48242 12.8379C4.49209 12.8379 4.5 12.8102 4.5 12.7764C4.5 12.7425 4.50791 12.7148 4.51758 12.7148C4.52725 12.7148 4.53516 12.6964 4.53516 12.6738C4.53516 12.6513 4.54307 12.6328 4.55273 12.6328C4.5624 12.6328 4.57031 12.6144 4.57031 12.5918C4.57031 12.5692 4.57822 12.5508 4.58789 12.5508C4.59756 12.5508 4.60547 12.5323 4.60547 12.5098C4.60547 12.4872 4.61338 12.4688 4.62305 12.4688C4.63271 12.4688 4.64062 12.4411 4.64062 12.4072C4.64062 12.3734 4.64853 12.3457 4.6582 12.3457C4.66787 12.3457 4.67578 12.3272 4.67578 12.3047C4.67578 12.2821 4.68369 12.2637 4.69336 12.2637C4.70303 12.2637 4.71094 12.2452 4.71094 12.2227C4.71094 12.2001 4.71885 12.1816 4.72852 12.1816C4.73818 12.1816 4.74609 12.154 4.74609 12.1201C4.74609 12.0863 4.754 12.0586 4.76367 12.0586C4.77334 12.0586 4.78125 12.0401 4.78125 12.0176C4.78125 11.995 4.78916 11.9766 4.79883 11.9766C4.8085 11.9766 4.81641 11.9581 4.81641 11.9355C4.81641 11.913 4.82432 11.8945 4.83398 11.8945C4.84365 11.8945 4.85156 11.8761 4.85156 11.8535C4.85156 11.831 4.85947 11.8125 4.86914 11.8125C4.87881 11.8125 4.88672 11.7848 4.88672 11.751C4.88672 11.7171 4.89463 11.6895 4.9043 11.6895C4.91396 11.6895 4.92188 11.671 4.92188 11.6484C4.92188 11.6259 4.92978 11.6074 4.93945 11.6074C4.94912 11.6074 4.95703 11.589 4.95703 11.5664C4.95703 11.5438 4.96494 11.5254 4.97461 11.5254C4.98428 11.5254 4.99219 11.5069 4.99219 11.4844C4.99219 11.4618 5.0001 11.4434 5.00977 11.4434C5.01943 11.4434 5.02734 11.4157 5.02734 11.3818C5.02734 11.348 5.03525 11.3203 5.04492 11.3203C5.05459 11.3203 5.0625 11.3019 5.0625 11.2793C5.0625 11.2567 5.07041 11.2383 5.08008 11.2383C5.08975 11.2383 5.09766 11.2198 5.09766 11.1973C5.09766 11.1747 5.10557 11.1562 5.11523 11.1562C5.1249 11.1562 5.13281 11.1286 5.13281 11.0947C5.13281 11.0609 5.14072 11.0332 5.15039 11.0332C5.16006 11.0332 5.16797 11.0147 5.16797 10.9922C5.16797 10.9696 5.17588 10.9512 5.18555 10.9512C5.19521 10.9512 5.20312 10.9327 5.20312 10.9102C5.20312 10.8876 5.21103 10.8691 5.2207 10.8691C5.23037 10.8691 5.23828 10.8507 5.23828 10.8281C5.23828 10.8056 5.24619 10.7871 5.25586 10.7871C5.26553 10.7871 5.27344 10.7594 5.27344 10.7256C5.27344 10.6917 5.28135 10.6641 5.29102 10.6641C5.30068 10.6641 5.30859 10.6456 5.30859 10.623C5.30859 10.6005 5.3165 10.582 5.32617 10.582C5.33584 10.582 5.34375 10.5636 5.34375 10.541C5.34375 10.5185 5.35166 10.5 5.36133 10.5C5.371 10.5 5.37891 10.4723 5.37891 10.4385C5.37891 10.4046 5.38682 10.377 5.39648 10.377C5.40615 10.377 5.41406 10.3585 5.41406 10.3359C5.41406 10.3134 5.42197 10.2949 5.43164 10.2949C5.44131 10.2949 5.44922 10.2765 5.44922 10.2539C5.44922 10.2313 5.45713 10.2129 5.4668 10.2129C5.47646 10.2129 5.48438 10.1944 5.48438 10.1719C5.48438 10.1493 5.49228 10.1309 5.50195 10.1309C5.51162 10.1309 5.51953 10.1032 5.51953 10.0693C5.51953 10.0355 5.52744 10.0078 5.53711 10.0078C5.54678 10.0078 5.55469 9.98936 5.55469 9.9668C5.55469 9.94424 5.5626 9.92578 5.57227 9.92578C5.58193 9.92578 5.58984 9.90732 5.58984 9.88476C5.58984 9.86221 5.59775 9.84375 5.60742 9.84375C5.61709 9.84375 5.625 9.81606 5.625 9.78223C5.625 9.74839 5.63291 9.7207 5.64258 9.7207C5.65225 9.7207 5.66016 9.70225 5.66016 9.67969C5.66016 9.65713 5.66807 9.63867 5.67773 9.63867C5.6874 9.63867 5.69531 9.61099 5.69531 9.57715C5.69531 9.54331 5.70322 9.51562 5.71289 9.51562C5.72256 9.51562 5.73047 9.49717 5.73047 9.47461C5.73047 9.45205 5.73838 9.43359 5.74805 9.43359C5.75771 9.43359 5.76562 9.41885 5.76562 9.4008C5.76562 9.38278 5.78935 9.34215 5.81836 9.31055C5.84736 9.27894 5.87109 9.24228 5.87109 9.22907C5.87109 9.21588 5.8824 9.19189 5.89621 9.17579C5.91001 9.15967 5.93058 9.14648 5.94188 9.14648C5.9532 9.14648 5.98463 9.1188 6.01172 9.08496C6.03881 9.05112 6.07363 9.02344 6.08908 9.02344C6.10455 9.02344 6.11719 9.01421 6.11719 9.00293C6.11719 8.99165 6.13301 8.98242 6.15234 8.98242C6.17168 8.98242 6.1875 8.97319 6.1875 8.96191C6.1875 8.95063 6.21123 8.94141 6.24023 8.94141C6.26924 8.94141 6.29297 8.93218 6.29297 8.9209C6.29297 8.90728 7.67579 8.90039 10.4062 8.90039C13.1367 8.90039 14.5195 8.90728 14.5195 8.9209ZM17.0156 13.8018C17.0156 13.813 17.0394 13.8223 17.0684 13.8223C17.0974 13.8223 17.1211 13.8315 17.1211 13.8428C17.1211 13.8541 17.1331 13.8633 17.1478 13.8633C17.1827 13.8633 17.3672 14.0786 17.3672 14.1192C17.3672 14.1363 17.3751 14.1504 17.3848 14.1504C17.3944 14.1504 17.4023 14.1781 17.4023 14.2119C17.4023 14.2458 17.4103 14.2734 17.4199 14.2734C17.4315 14.2734 17.4375 14.9434 17.4375 16.2422C17.4375 17.541 17.4315 18.2109 17.4199 18.2109C17.4103 18.2109 17.4023 18.2386 17.4023 18.2725C17.4023 18.3063 17.3944 18.334 17.3848 18.334C17.3751 18.334 17.3672 18.348 17.3672 18.3652C17.3672 18.4058 17.1827 18.6211 17.1478 18.6211C17.1331 18.6211 17.1211 18.6303 17.1211 18.6416C17.1211 18.6529 17.0974 18.6621 17.0684 18.6621C17.0394 18.6621 17.0156 18.6713 17.0156 18.6826C17.0156 18.6962 16.4498 18.7031 15.3532 18.7031C13.5891 18.7031 13.6406 18.7059 13.6406 18.6123C13.6406 18.5946 13.6327 18.5801 13.623 18.5801C13.6134 18.5801 13.6055 18.5616 13.6055 18.5391C13.6055 18.5165 13.5976 18.498 13.5879 18.498C13.5782 18.498 13.5703 18.4796 13.5703 18.457C13.5703 18.4345 13.5624 18.416 13.5527 18.416C13.5431 18.416 13.5352 18.3976 13.5352 18.375C13.5352 18.3524 13.5272 18.334 13.5176 18.334C13.5079 18.334 13.5 18.3155 13.5 18.293C13.5 18.2704 13.4921 18.252 13.4824 18.252C13.4728 18.252 13.4648 18.2335 13.4648 18.2109C13.4648 18.1884 13.4569 18.1699 13.4473 18.1699C13.4376 18.1699 13.4297 18.1515 13.4297 18.1289C13.4297 18.1063 13.4218 18.0879 13.4121 18.0879C13.4024 18.0879 13.3945 18.0694 13.3945 18.0469C13.3945 18.0243 13.3866 18.0059 13.377 18.0059C13.3673 18.0059 13.3594 17.9874 13.3594 17.9648C13.3594 17.9423 13.3515 17.9238 13.3418 17.9238C13.3321 17.9238 13.3242 17.9054 13.3242 17.8828C13.3242 17.8603 13.3163 17.8418 13.3066 17.8418C13.297 17.8418 13.2891 17.8233 13.2891 17.8008C13.2891 17.7782 13.2812 17.7598 13.2715 17.7598C13.2618 17.7598 13.2539 17.7413 13.2539 17.7188C13.2539 17.6962 13.246 17.6777 13.2363 17.6777C13.2267 17.6777 13.2187 17.6593 13.2187 17.6367C13.2187 17.6142 13.2108 17.5957 13.2012 17.5957C13.1915 17.5957 13.1836 17.5814 13.1836 17.564C13.1836 17.523 13.1053 17.4316 13.0701 17.4316C13.0552 17.4316 13.043 17.4224 13.043 17.4111C13.043 17.3976 12.1523 17.3906 10.4062 17.3906C8.66016 17.3906 7.76953 17.3976 7.76953 17.4111C7.76953 17.4224 7.75731 17.4316 7.74237 17.4316C7.7072 17.4316 7.62891 17.523 7.62891 17.564C7.62891 17.5814 7.621 17.5957 7.61133 17.5957C7.60166 17.5957 7.59375 17.6142 7.59375 17.6367C7.59375 17.6593 7.58584 17.6777 7.57617 17.6777C7.5665 17.6777 7.55859 17.6962 7.55859 17.7188C7.55859 17.7413 7.55068 17.7598 7.54102 17.7598C7.53135 17.7598 7.52344 17.7782 7.52344 17.8008C7.52344 17.8233 7.51553 17.8418 7.50586 17.8418C7.49619 17.8418 7.48828 17.8603 7.48828 17.8828C7.48828 17.9054 7.48037 17.9238 7.4707 17.9238C7.46103 17.9238 7.45312 17.9423 7.45312 17.9648C7.45312 17.9874 7.44521 18.0059 7.43555 18.0059C7.42588 18.0059 7.41797 18.0243 7.41797 18.0469C7.41797 18.0694 7.41006 18.0879 7.40039 18.0879C7.39072 18.0879 7.38281 18.1063 7.38281 18.1289C7.38281 18.1515 7.3749 18.1699 7.36523 18.1699C7.35557 18.1699 7.34766 18.1884 7.34766 18.2109C7.34766 18.2335 7.33975 18.252 7.33008 18.252C7.32041 18.252 7.3125 18.2704 7.3125 18.293C7.3125 18.3155 7.30459 18.334 7.29492 18.334C7.28525 18.334 7.27734 18.3524 7.27734 18.375C7.27734 18.3976 7.26943 18.416 7.25977 18.416C7.2501 18.416 7.24219 18.4345 7.24219 18.457C7.24219 18.4796 7.23428 18.498 7.22461 18.498C7.21494 18.498 7.20703 18.5165 7.20703 18.5391C7.20703 18.5616 7.19912 18.5801 7.18945 18.5801C7.17978 18.5801 7.17187 18.5946 7.17187 18.6123C7.17187 18.7059 7.22341 18.7031 5.45926 18.7031C4.36272 18.7031 3.79687 18.6962 3.79687 18.6826C3.79687 18.6713 3.77314 18.6621 3.74414 18.6621C3.71514 18.6621 3.69141 18.6529 3.69141 18.6416C3.69141 18.6303 3.67936 18.6211 3.66465 18.6211C3.62985 18.6211 3.44531 18.4058 3.44531 18.3652C3.44531 18.348 3.4374 18.334 3.42773 18.334C3.41807 18.334 3.41016 18.3063 3.41016 18.2725C3.41016 18.2386 3.40225 18.2109 3.39258 18.2109C3.38098 18.2109 3.375 17.541 3.375 16.2422C3.375 14.9434 3.38098 14.2734 3.39258 14.2734C3.40225 14.2734 3.41016 14.2458 3.41016 14.2119C3.41016 14.1781 3.41807 14.1504 3.42773 14.1504C3.4374 14.1504 3.44531 14.1363 3.44531 14.1192C3.44531 14.0786 3.62985 13.8633 3.66465 13.8633C3.67936 13.8633 3.69141 13.8541 3.69141 13.8428C3.69141 13.8315 3.71514 13.8223 3.74414 13.8223C3.77314 13.8223 3.79687 13.813 3.79687 13.8018C3.79687 13.7881 6.01172 13.7812 10.4062 13.7812C14.8008 13.7812 17.0156 13.7881 17.0156 13.8018ZM4.11328 14.7861C4.11328 14.7974 4.10106 14.8066 4.08612 14.8066C4.05095 14.8066 3.97266 14.898 3.97266 14.939C3.97266 14.9564 3.96475 14.9707 3.95508 14.9707C3.94385 14.9707 3.9375 15.1484 3.9375 15.4629C3.9375 15.7773 3.94385 15.9551 3.95508 15.9551C3.96475 15.9551 3.97266 15.9828 3.97266 16.0166C3.97266 16.0504 3.98057 16.0781 3.99023 16.0781C3.9999 16.0781 4.00781 16.1038 4.00781 16.1351C4.00781 16.1686 4.02233 16.2043 4.04297 16.2217C4.0623 16.2379 4.07812 16.2632 4.07812 16.2779C4.07812 16.3125 4.29908 16.5703 4.32881 16.5703C4.34134 16.5703 4.36301 16.5888 4.37695 16.6113C4.39184 16.6354 4.42246 16.6523 4.45115 16.6523C4.47801 16.6523 4.5 16.6616 4.5 16.6729C4.5 16.6841 4.52373 16.6934 4.55273 16.6934C4.58174 16.6934 4.60547 16.7026 4.60547 16.7139C4.60547 16.7273 4.94531 16.7344 5.58984 16.7344C6.23438 16.7344 6.57422 16.7273 6.57422 16.7139C6.57422 16.7026 6.58644 16.6934 6.60138 16.6934C6.63655 16.6934 6.71484 16.602 6.71484 16.561C6.71484 16.5435 6.72275 16.5293 6.73242 16.5293C6.74365 16.5293 6.75 16.3516 6.75 16.0371C6.75 15.7227 6.74365 15.5449 6.73242 15.5449C6.72275 15.5449 6.71484 15.5172 6.71484 15.4834C6.71484 15.4496 6.70693 15.4219 6.69727 15.4219C6.6876 15.4219 6.67969 15.3962 6.67969 15.3649C6.67969 15.3314 6.66517 15.2957 6.64453 15.2783C6.6252 15.2621 6.60937 15.2368 6.60937 15.2221C6.60937 15.1875 6.38842 14.9297 6.35869 14.9297C6.34616 14.9297 6.32449 14.9112 6.31055 14.8887C6.29566 14.8646 6.26504 14.8477 6.23635 14.8477C6.20949 14.8477 6.1875 14.8384 6.1875 14.8271C6.1875 14.8159 6.16377 14.8066 6.13477 14.8066C6.10576 14.8066 6.08203 14.7974 6.08203 14.7861C6.08203 14.7727 5.74219 14.7656 5.09766 14.7656C4.45312 14.7656 4.11328 14.7727 4.11328 14.7861ZM14.7305 14.7861C14.7305 14.7974 14.7067 14.8066 14.6777 14.8066C14.6487 14.8066 14.625 14.8159 14.625 14.8271C14.625 14.8384 14.603 14.8477 14.5761 14.8477C14.5475 14.8477 14.5168 14.8646 14.502 14.8887C14.488 14.9112 14.4663 14.9297 14.4538 14.9297C14.4413 14.9297 14.3797 14.9895 14.317 15.0626C14.2544 15.1357 14.2031 15.2075 14.2031 15.2221C14.2031 15.2368 14.1873 15.2621 14.168 15.2783C14.1473 15.2957 14.1328 15.3314 14.1328 15.3649C14.1328 15.3962 14.1249 15.4219 14.1152 15.4219C14.1056 15.4219 14.0977 15.4496 14.0977 15.4834C14.0977 15.5172 14.0897 15.5449 14.0801 15.5449C14.0688 15.5449 14.0625 15.7227 14.0625 16.0371C14.0625 16.3516 14.0688 16.5293 14.0801 16.5293C14.0897 16.5293 14.0977 16.5435 14.0977 16.561C14.0977 16.602 14.1759 16.6934 14.2111 16.6934C14.2261 16.6934 14.2383 16.7026 14.2383 16.7139C14.2383 16.7273 14.5781 16.7344 15.2227 16.7344C15.8672 16.7344 16.207 16.7273 16.207 16.7139C16.207 16.7026 16.2308 16.6934 16.2598 16.6934C16.2888 16.6934 16.3125 16.6841 16.3125 16.6729C16.3125 16.6616 16.3345 16.6523 16.3613 16.6523C16.39 16.6523 16.4207 16.6354 16.4355 16.6113C16.4495 16.5888 16.4712 16.5703 16.4837 16.5703C16.4962 16.5703 16.5578 16.5105 16.6205 16.4374C16.6831 16.3643 16.7344 16.2925 16.7344 16.2779C16.7344 16.2632 16.7502 16.2379 16.7695 16.2217C16.7902 16.2043 16.8047 16.1686 16.8047 16.1351C16.8047 16.1038 16.8126 16.0781 16.8223 16.0781C16.8319 16.0781 16.8398 16.0504 16.8398 16.0166C16.8398 15.9828 16.8478 15.9551 16.8574 15.9551C16.8687 15.9551 16.875 15.7773 16.875 15.4629C16.875 15.1484 16.8687 14.9707 16.8574 14.9707C16.8478 14.9707 16.8398 14.9564 16.8398 14.939C16.8398 14.898 16.7615 14.8066 16.7264 14.8066C16.7114 14.8066 16.6992 14.7974 16.6992 14.7861C16.6992 14.7727 16.3594 14.7656 15.7148 14.7656C15.0703 14.7656 14.7305 14.7727 14.7305 14.7861ZM6.01172 15.4424C6.01172 15.4537 6.02394 15.4629 6.03888 15.4629C6.07405 15.4629 6.15234 15.5542 6.15234 15.5953C6.15234 15.6127 6.16025 15.627 6.16992 15.627C6.18057 15.627 6.1875 15.7158 6.1875 15.8525V16.0781H5.43164C4.93945 16.0781 4.67578 16.071 4.67578 16.0576C4.67578 16.0463 4.66356 16.0371 4.64862 16.0371C4.61345 16.0371 4.53516 15.9458 4.53516 15.9047C4.53516 15.8873 4.52725 15.873 4.51758 15.873C4.50693 15.873 4.5 15.7842 4.5 15.6475V15.4219H5.25586C5.74805 15.4219 6.01172 15.429 6.01172 15.4424ZM16.3125 15.6475C16.3125 15.7842 16.3056 15.873 16.2949 15.873C16.2853 15.873 16.2773 15.8873 16.2773 15.9047C16.2773 15.9458 16.199 16.0371 16.1639 16.0371C16.1489 16.0371 16.1367 16.0463 16.1367 16.0576C16.1367 16.071 15.873 16.0781 15.3809 16.0781H14.625V15.8525C14.625 15.7158 14.6319 15.627 14.6426 15.627C14.6522 15.627 14.6602 15.6127 14.6602 15.5953C14.6602 15.5778 14.6796 15.5409 14.7033 15.5132C14.727 15.4856 14.7587 15.4629 14.7736 15.4629C14.7886 15.4629 14.8008 15.4537 14.8008 15.4424C14.8008 15.429 15.0645 15.4219 15.5566 15.4219H16.3125V15.6475ZM7.76953 16.0986C7.76953 16.1099 7.75731 16.1191 7.74237 16.1191C7.7072 16.1191 7.62891 16.2105 7.62891 16.2515C7.62891 16.2689 7.621 16.2832 7.61133 16.2832C7.60155 16.2832 7.59375 16.3379 7.59375 16.4062C7.59375 16.4746 7.60155 16.5293 7.61133 16.5293C7.621 16.5293 7.62891 16.5435 7.62891 16.561C7.62891 16.602 7.7072 16.6934 7.74237 16.6934C7.75731 16.6934 7.76953 16.7026 7.76953 16.7139C7.76953 16.7274 8.66016 16.7344 10.4062 16.7344C12.1523 16.7344 13.043 16.7274 13.043 16.7139C13.043 16.7026 13.0552 16.6934 13.0701 16.6934C13.1053 16.6934 13.1836 16.602 13.1836 16.561C13.1836 16.5435 13.1915 16.5293 13.2012 16.5293C13.2109 16.5293 13.2187 16.4746 13.2187 16.4062C13.2187 16.3379 13.2109 16.2832 13.2012 16.2832C13.1915 16.2832 13.1836 16.2689 13.1836 16.2515C13.1836 16.2105 13.1053 16.1191 13.0701 16.1191C13.0552 16.1191 13.043 16.1099 13.043 16.0986C13.043 16.0851 12.1523 16.0781 10.4062 16.0781C8.66016 16.0781 7.76953 16.0851 7.76953 16.0986ZM5.23828 17.4111C5.23828 17.4224 5.22606 17.4316 5.21112 17.4316C5.17595 17.4316 5.09766 17.523 5.09766 17.564C5.09766 17.5814 5.08975 17.5957 5.08008 17.5957C5.0703 17.5957 5.0625 17.6504 5.0625 17.7188C5.0625 17.7871 5.0703 17.8418 5.08008 17.8418C5.08975 17.8418 5.09766 17.856 5.09766 17.8735C5.09766 17.9145 5.17595 18.0059 5.21112 18.0059C5.22606 18.0059 5.23828 18.0151 5.23828 18.0264C5.23828 18.0397 5.47265 18.0469 5.90625 18.0469C6.33985 18.0469 6.57422 18.0397 6.57422 18.0264C6.57422 18.0151 6.58644 18.0059 6.60138 18.0059C6.63655 18.0059 6.71484 17.9145 6.71484 17.8735C6.71484 17.856 6.72275 17.8418 6.73242 17.8418C6.74219 17.8418 6.75 17.7871 6.75 17.7188C6.75 17.6504 6.74219 17.5957 6.73242 17.5957C6.72275 17.5957 6.71484 17.5814 6.71484 17.564C6.71484 17.523 6.63655 17.4316 6.60138 17.4316C6.58644 17.4316 6.57422 17.4224 6.57422 17.4111C6.57422 17.3978 6.33985 17.3906 5.90625 17.3906C5.47265 17.3906 5.23828 17.3978 5.23828 17.4111ZM14.2383 17.4111C14.2383 17.4224 14.2261 17.4316 14.2111 17.4316C14.1962 17.4316 14.1645 17.4543 14.1408 17.482C14.1171 17.5097 14.0977 17.5466 14.0977 17.564C14.0977 17.5814 14.0897 17.5957 14.0801 17.5957C14.0703 17.5957 14.0625 17.6504 14.0625 17.7188C14.0625 17.7871 14.0703 17.8418 14.0801 17.8418C14.0897 17.8418 14.0977 17.856 14.0977 17.8735C14.0977 17.9145 14.1759 18.0059 14.2111 18.0059C14.2261 18.0059 14.2383 18.0151 14.2383 18.0264C14.2383 18.0397 14.4726 18.0469 14.9062 18.0469C15.3398 18.0469 15.5742 18.0397 15.5742 18.0264C15.5742 18.0151 15.5864 18.0059 15.6014 18.0059C15.6365 18.0059 15.7148 17.9145 15.7148 17.8735C15.7148 17.856 15.7228 17.8418 15.7324 17.8418C15.7422 17.8418 15.75 17.7871 15.75 17.7188C15.75 17.6504 15.7422 17.5957 15.7324 17.5957C15.7228 17.5957 15.7148 17.5814 15.7148 17.564C15.7148 17.523 15.6365 17.4316 15.6014 17.4316C15.5864 17.4316 15.5742 17.4224 15.5742 17.4111C15.5742 17.3978 15.3398 17.3906 14.9062 17.3906C14.4726 17.3906 14.2383 17.3978 14.2383 17.4111ZM12.7718 18.0762C12.7856 18.0923 12.7969 18.12 12.7969 18.1377C12.7969 18.1554 12.8048 18.1699 12.8145 18.1699C12.8241 18.1699 12.832 18.1884 12.832 18.2109C12.832 18.2335 12.8399 18.252 12.8496 18.252C12.8593 18.252 12.8672 18.2704 12.8672 18.293C12.8672 18.3155 12.8751 18.334 12.8848 18.334C12.8944 18.334 12.9023 18.3524 12.9023 18.375C12.9023 18.3976 12.9103 18.416 12.9199 18.416C12.9296 18.416 12.9375 18.4345 12.9375 18.457C12.9375 18.4796 12.9454 18.498 12.9551 18.498C12.9647 18.498 12.9727 18.5165 12.9727 18.5391C12.9727 18.5616 12.9806 18.5801 12.9902 18.5801C12.9999 18.5801 13.0078 18.5985 13.0078 18.6211C13.0078 18.6437 13.0157 18.6621 13.0254 18.6621C13.0351 18.6621 13.043 18.6713 13.043 18.6826C13.043 18.6962 12.1523 18.7031 10.4062 18.7031C8.66016 18.7031 7.76953 18.6962 7.76953 18.6826C7.76953 18.6713 7.77744 18.6621 7.78711 18.6621C7.79678 18.6621 7.80469 18.6437 7.80469 18.6211C7.80469 18.5985 7.8126 18.5801 7.82227 18.5801C7.83193 18.5801 7.83984 18.5616 7.83984 18.5391C7.83984 18.5165 7.84775 18.498 7.85742 18.498C7.86709 18.498 7.875 18.4796 7.875 18.457C7.875 18.4345 7.88291 18.416 7.89258 18.416C7.90225 18.416 7.91016 18.3976 7.91016 18.375C7.91016 18.3524 7.91807 18.334 7.92773 18.334C7.9374 18.334 7.94531 18.3155 7.94531 18.293C7.94531 18.2704 7.95322 18.252 7.96289 18.252C7.97256 18.252 7.98047 18.2335 7.98047 18.2109C7.98047 18.1884 7.98838 18.1699 7.99805 18.1699C8.00771 18.1699 8.01562 18.1557 8.01562 18.1383C8.01562 18.0446 7.91395 18.0485 10.4031 18.0477C12.4114 18.047 12.7502 18.0511 12.7718 18.0762ZM3.44531 19.2158C3.44531 19.2271 3.46113 19.2363 3.48047 19.2363C3.4998 19.2363 3.51562 19.2456 3.51562 19.2568C3.51562 19.2681 3.53936 19.2773 3.56836 19.2773C3.59736 19.2773 3.62109 19.2866 3.62109 19.2979C3.62109 19.3091 3.65273 19.3184 3.69141 19.3184C3.73008 19.3184 3.76172 19.3276 3.76172 19.3389C3.76172 19.3523 4.08398 19.3594 4.69336 19.3594H5.625V19.749C5.625 19.9951 5.61853 20.1387 5.60742 20.1387C5.59775 20.1387 5.58984 20.1529 5.58984 20.1704C5.58984 20.2114 5.51155 20.3027 5.47638 20.3027C5.46144 20.3027 5.44922 20.312 5.44922 20.3232C5.44922 20.3367 5.12109 20.3438 4.5 20.3438C3.87891 20.3438 3.55078 20.3367 3.55078 20.3232C3.55078 20.312 3.53856 20.3027 3.52362 20.3027C3.48845 20.3027 3.41016 20.2114 3.41016 20.1704C3.41016 20.1529 3.40225 20.1387 3.39258 20.1387C3.38136 20.1387 3.375 19.9678 3.375 19.667C3.375 19.209 3.37602 19.1953 3.41016 19.1953C3.42949 19.1953 3.44531 19.2045 3.44531 19.2158ZM17.4375 19.667C17.4375 19.9678 17.4311 20.1387 17.4199 20.1387C17.4103 20.1387 17.4023 20.1529 17.4023 20.1704C17.4023 20.2114 17.324 20.3027 17.2889 20.3027C17.2739 20.3027 17.2617 20.312 17.2617 20.3232C17.2617 20.3367 16.9336 20.3438 16.3125 20.3438C15.6914 20.3438 15.3633 20.3367 15.3633 20.3232C15.3633 20.312 15.3511 20.3027 15.3361 20.3027C15.3009 20.3027 15.2227 20.2114 15.2227 20.1704C15.2227 20.1529 15.2147 20.1387 15.2051 20.1387C15.194 20.1387 15.1875 19.9951 15.1875 19.749V19.3594H16.1191C16.7285 19.3594 17.0508 19.3523 17.0508 19.3389C17.0508 19.3276 17.0824 19.3184 17.1211 19.3184C17.1598 19.3184 17.1914 19.3091 17.1914 19.2979C17.1914 19.2866 17.2151 19.2773 17.2441 19.2773C17.2731 19.2773 17.2969 19.2681 17.2969 19.2568C17.2969 19.2456 17.3127 19.2363 17.332 19.2363C17.3514 19.2363 17.3672 19.2271 17.3672 19.2158C17.3672 19.2045 17.383 19.1953 17.4023 19.1953C17.4365 19.1953 17.4375 19.209 17.4375 19.667Z" fill="#0089B1"/>
</svg>
