<svg width="20" height="18" viewBox="0 0 20 18" fill="none" xmlns="http://www.w3.org/2000/svg">
<path fill-rule="evenodd" clip-rule="evenodd" d="M0.742188 0.0230919C0.742188 0.0357924 0.707031 0.0461838 0.664062 0.0461838C0.621094 0.0461838 0.585938 0.0565751 0.585938 0.0692757C0.585938 0.0819762 0.568359 0.0923676 0.546875 0.0923676C0.525391 0.0923676 0.507812 0.102759 0.507812 0.115459C0.507812 0.12816 0.490234 0.138551 0.46875 0.138551C0.447266 0.138551 0.429688 0.148943 0.429688 0.161643C0.429688 0.174344 0.416309 0.184735 0.399961 0.184735C0.361289 0.184735 0.15625 0.427154 0.15625 0.472876C0.15625 0.492204 0.147461 0.508022 0.136719 0.508022C0.125977 0.508022 0.117188 0.528804 0.117188 0.554205C0.117188 0.579606 0.108398 0.600389 0.0976562 0.600389C0.0869141 0.600389 0.078125 0.621172 0.078125 0.646573C0.078125 0.671974 0.0693359 0.692757 0.0585938 0.692757C0.0478516 0.692757 0.0390625 0.723931 0.0390625 0.762032C0.0390625 0.800134 0.0302734 0.831308 0.0195312 0.831308C0.0065625 0.831308 0 3.01735 0 7.34322C0 11.6691 0.0065625 13.8551 0.0195312 13.8551C0.0302734 13.8551 0.0390625 13.8863 0.0390625 13.9244C0.0390625 13.9625 0.0478516 13.9937 0.0585938 13.9937C0.0693359 13.9937 0.078125 14.0145 0.078125 14.0399C0.078125 14.0653 0.0869141 14.0861 0.0976562 14.0861C0.108398 14.0861 0.117188 14.1068 0.117188 14.1322C0.117188 14.1576 0.125977 14.1784 0.136719 14.1784C0.147461 14.1784 0.15625 14.1942 0.15625 14.2136C0.15625 14.2593 0.361289 14.5017 0.399961 14.5017C0.416309 14.5017 0.429688 14.5121 0.429688 14.5248C0.429688 14.5375 0.447266 14.5479 0.46875 14.5479C0.490234 14.5479 0.507812 14.5583 0.507812 14.571C0.507812 14.5837 0.525391 14.5941 0.546875 14.5941C0.568359 14.5941 0.585938 14.6045 0.585938 14.6172C0.585938 14.6299 0.612305 14.6403 0.644531 14.6403C0.676758 14.6403 0.703125 14.6506 0.703125 14.6633C0.703125 14.6784 1.0026 14.6864 1.5625 14.6864C2.33697 14.6864 2.42188 14.6901 2.42188 14.7234C2.42188 14.7437 2.39551 14.7894 2.36328 14.825C2.33105 14.8606 2.30469 14.904 2.30469 14.9215C2.30469 14.939 2.28711 14.9683 2.26562 14.9866C2.24414 15.0049 2.22656 15.0361 2.22656 15.0559C2.22656 15.0757 2.20898 15.1069 2.1875 15.1252C2.16602 15.1435 2.14844 15.1747 2.14844 15.1945C2.14844 15.2143 2.13086 15.2454 2.10938 15.2637C2.08789 15.282 2.07031 15.3114 2.07031 15.3289C2.07031 15.3463 2.04395 15.3898 2.01172 15.4254C1.97949 15.461 1.95312 15.5067 1.95312 15.527C1.95312 15.5473 1.94434 15.5639 1.93359 15.5639C1.92285 15.5639 1.91406 15.5847 1.91406 15.6101C1.91406 15.6355 1.90527 15.6563 1.89453 15.6563C1.88379 15.6563 1.875 15.6771 1.875 15.7025C1.875 15.7279 1.86621 15.7487 1.85547 15.7487C1.84473 15.7487 1.83594 15.7902 1.83594 15.841C1.83594 15.8918 1.82715 15.9334 1.81641 15.9334C1.80502 15.9334 1.79688 16.0104 1.79688 16.1181C1.79688 16.2259 1.80502 16.3029 1.81641 16.3029C1.82715 16.3029 1.83594 16.3444 1.83594 16.3952C1.83594 16.446 1.84473 16.4876 1.85547 16.4876C1.86621 16.4876 1.875 16.5188 1.875 16.5569C1.875 16.595 1.88379 16.6262 1.89453 16.6262C1.90527 16.6262 1.91406 16.6428 1.91406 16.6631C1.91406 16.6834 1.94043 16.7291 1.97266 16.7647C2.00488 16.8003 2.03125 16.8413 2.03125 16.8559C2.03125 16.8922 2.12129 16.9956 2.15301 16.9956C2.16723 16.9956 2.19154 17.0164 2.20703 17.0418C2.22252 17.0672 2.25082 17.088 2.26994 17.088C2.28904 17.088 2.30469 17.0984 2.30469 17.1111C2.30469 17.1238 2.32227 17.1342 2.34375 17.1342C2.36523 17.1342 2.38281 17.1446 2.38281 17.1573C2.38281 17.17 2.40039 17.1804 2.42188 17.1804C2.44336 17.1804 2.46094 17.1908 2.46094 17.2035C2.46094 17.2162 2.50488 17.2265 2.55859 17.2265C2.6123 17.2265 2.65625 17.2369 2.65625 17.2496C2.65625 17.2623 2.7002 17.2727 2.75391 17.2727C2.80762 17.2727 2.85156 17.2623 2.85156 17.2496C2.85156 17.2369 2.89551 17.2265 2.94922 17.2265C3.00293 17.2265 3.04688 17.2162 3.04688 17.2035C3.04688 17.1908 3.06445 17.1804 3.08594 17.1804C3.10742 17.1804 3.125 17.17 3.125 17.1573C3.125 17.1446 3.14258 17.1342 3.16406 17.1342C3.18555 17.1342 3.20313 17.1238 3.20313 17.1111C3.20313 17.0984 3.21877 17.088 3.23787 17.088C3.25699 17.088 3.28529 17.0672 3.30078 17.0418C3.31627 17.0164 3.34059 16.9956 3.3548 16.9956C3.38652 16.9956 3.47656 16.8922 3.47656 16.8559C3.47656 16.8413 3.50293 16.8003 3.53516 16.7647C3.56738 16.7291 3.59375 16.6857 3.59375 16.6682C3.59375 16.6507 3.61133 16.6214 3.63281 16.6031C3.6543 16.5848 3.67188 16.5536 3.67188 16.5338C3.67188 16.514 3.68945 16.4828 3.71094 16.4645C3.73242 16.4462 3.75 16.4169 3.75 16.3994C3.75 16.3819 3.77637 16.3385 3.80859 16.3029C3.84082 16.2673 3.86719 16.2238 3.86719 16.2063C3.86719 16.1888 3.88477 16.1595 3.90625 16.1412C3.92773 16.1229 3.94531 16.0917 3.94531 16.072C3.94531 16.0522 3.96289 16.021 3.98438 16.0027C4.00586 15.9844 4.02344 15.9532 4.02344 15.9334C4.02344 15.9136 4.04102 15.8824 4.0625 15.8641C4.08398 15.8458 4.10156 15.8165 4.10156 15.799C4.10156 15.7815 4.12793 15.7381 4.16016 15.7025C4.19238 15.6669 4.21875 15.6234 4.21875 15.606C4.21875 15.5885 4.23633 15.5592 4.25781 15.5408C4.2793 15.5225 4.29688 15.4914 4.29688 15.4716C4.29688 15.4518 4.31445 15.4206 4.33594 15.4023C4.35742 15.384 4.375 15.3528 4.375 15.333C4.375 15.3132 4.39258 15.282 4.41406 15.2637C4.43555 15.2454 4.45312 15.2143 4.45312 15.1945C4.45312 15.1747 4.4707 15.1435 4.49219 15.1252C4.51367 15.1069 4.53125 15.0776 4.53125 15.0601C4.53125 15.0426 4.55762 14.9991 4.58984 14.9635C4.62207 14.928 4.64844 14.8845 4.64844 14.867C4.64844 14.8495 4.66602 14.8202 4.6875 14.8019C4.70898 14.7836 4.72656 14.7501 4.72656 14.7275C4.72656 14.6882 4.95768 14.6864 10 14.6864C15.0423 14.6864 15.2734 14.6882 15.2734 14.7275C15.2734 14.7501 15.291 14.7836 15.3125 14.8019C15.334 14.8202 15.3516 14.8495 15.3516 14.867C15.3516 14.8845 15.3779 14.928 15.4102 14.9635C15.4424 14.9991 15.4688 15.0426 15.4688 15.0601C15.4688 15.0776 15.4863 15.1069 15.5078 15.1252C15.5293 15.1435 15.5469 15.1747 15.5469 15.1945C15.5469 15.2143 15.5645 15.2454 15.5859 15.2637C15.6074 15.282 15.625 15.3132 15.625 15.333C15.625 15.3528 15.6426 15.384 15.6641 15.4023C15.6855 15.4206 15.7031 15.4518 15.7031 15.4716C15.7031 15.4914 15.7207 15.5225 15.7422 15.5408C15.7637 15.5592 15.7813 15.5885 15.7813 15.606C15.7813 15.6234 15.8076 15.6669 15.8398 15.7025C15.8721 15.7381 15.8984 15.7815 15.8984 15.799C15.8984 15.8165 15.916 15.8458 15.9375 15.8641C15.959 15.8824 15.9766 15.9136 15.9766 15.9334C15.9766 15.9532 15.9941 15.9844 16.0156 16.0027C16.0371 16.021 16.0547 16.0522 16.0547 16.072C16.0547 16.0917 16.0723 16.1229 16.0938 16.1412C16.1152 16.1595 16.1328 16.1888 16.1328 16.2063C16.1328 16.2238 16.1592 16.2673 16.1914 16.3029C16.2236 16.3385 16.25 16.3819 16.25 16.3994C16.25 16.4169 16.2676 16.4462 16.2891 16.4645C16.3105 16.4828 16.3281 16.514 16.3281 16.5338C16.3281 16.5536 16.3457 16.5848 16.3672 16.6031C16.3887 16.6214 16.4062 16.6507 16.4062 16.6682C16.4062 16.6857 16.4326 16.7291 16.4648 16.7647C16.4971 16.8003 16.5234 16.8413 16.5234 16.8559C16.5234 16.8922 16.6135 16.9956 16.6452 16.9956C16.6594 16.9956 16.6837 17.0164 16.6992 17.0418C16.7147 17.0672 16.743 17.088 16.7621 17.088C16.7812 17.088 16.7969 17.0984 16.7969 17.1111C16.7969 17.1238 16.8145 17.1342 16.8359 17.1342C16.8574 17.1342 16.875 17.1446 16.875 17.1573C16.875 17.17 16.8926 17.1804 16.9141 17.1804C16.9355 17.1804 16.9531 17.1908 16.9531 17.2035C16.9531 17.2162 16.9971 17.2265 17.0508 17.2265C17.1045 17.2265 17.1484 17.2369 17.1484 17.2496C17.1484 17.2623 17.1836 17.2727 17.2266 17.2727C17.2695 17.2727 17.3047 17.2623 17.3047 17.2496C17.3047 17.2368 17.3568 17.2265 17.4219 17.2265C17.487 17.2265 17.5391 17.2163 17.5391 17.2035C17.5391 17.1908 17.5566 17.1804 17.5781 17.1804C17.5996 17.1804 17.6172 17.17 17.6172 17.1573C17.6172 17.1446 17.6348 17.1342 17.6562 17.1342C17.6777 17.1342 17.6953 17.1238 17.6953 17.1111C17.6953 17.0984 17.711 17.088 17.7301 17.088C17.7492 17.088 17.7775 17.0672 17.793 17.0418C17.8085 17.0164 17.8328 16.9956 17.847 16.9956C17.8805 16.9956 17.9688 16.8913 17.9688 16.8517C17.9688 16.8349 17.9863 16.8061 18.0078 16.7878C18.0293 16.7695 18.0469 16.7383 18.0469 16.7185C18.0469 16.6987 18.0645 16.6676 18.0859 16.6493C18.1089 16.6297 18.125 16.5895 18.125 16.5518C18.125 16.5165 18.1338 16.4876 18.1445 16.4876C18.1553 16.4876 18.1641 16.446 18.1641 16.3952C18.1641 16.3444 18.1729 16.3029 18.1836 16.3029C18.1947 16.3029 18.2031 16.2336 18.2031 16.1412C18.2031 16.0489 18.1947 15.9796 18.1836 15.9796C18.1729 15.9796 18.1641 15.9276 18.1641 15.8641C18.1641 15.8006 18.1553 15.7487 18.1445 15.7487C18.1338 15.7487 18.125 15.7279 18.125 15.7025C18.125 15.6771 18.1162 15.6563 18.1055 15.6563C18.0947 15.6563 18.0859 15.6355 18.0859 15.6101C18.0859 15.5847 18.0771 15.5639 18.0664 15.5639C18.0557 15.5639 18.0469 15.5473 18.0469 15.527C18.0469 15.5067 18.0205 15.461 17.9883 15.4254C17.9561 15.3898 17.9297 15.3463 17.9297 15.3289C17.9297 15.3114 17.9121 15.282 17.8906 15.2637C17.8691 15.2454 17.8516 15.2143 17.8516 15.1945C17.8516 15.1747 17.834 15.1435 17.8125 15.1252C17.791 15.1069 17.7734 15.0757 17.7734 15.0559C17.7734 15.0361 17.7559 15.0049 17.7344 14.9866C17.7129 14.9683 17.6953 14.939 17.6953 14.9215C17.6953 14.904 17.6689 14.8606 17.6367 14.825C17.6045 14.7894 17.5781 14.7437 17.5781 14.7234C17.5781 14.6901 17.663 14.6864 18.4375 14.6864C18.9974 14.6864 19.2969 14.6784 19.2969 14.6633C19.2969 14.6506 19.3232 14.6403 19.3555 14.6403C19.3877 14.6403 19.4141 14.6299 19.4141 14.6172C19.4141 14.6045 19.4316 14.5941 19.4531 14.5941C19.4746 14.5941 19.4922 14.5837 19.4922 14.571C19.4922 14.5583 19.5098 14.5479 19.5312 14.5479C19.5527 14.5479 19.5703 14.5375 19.5703 14.5248C19.5703 14.5121 19.5837 14.5017 19.6 14.5017C19.6387 14.5017 19.8438 14.2593 19.8438 14.2136C19.8438 14.1942 19.8525 14.1784 19.8633 14.1784C19.874 14.1784 19.8828 14.1576 19.8828 14.1322C19.8828 14.1068 19.8916 14.0861 19.9023 14.0861C19.9131 14.0861 19.9219 14.0653 19.9219 14.0399C19.9219 14.0145 19.9307 13.9937 19.9414 13.9937C19.9521 13.9937 19.9609 13.9625 19.9609 13.9244C19.9609 13.8863 19.9697 13.8551 19.9805 13.8551C19.9934 13.8551 20 11.6691 20 7.34322C20 3.01735 19.9934 0.831308 19.9805 0.831308C19.9697 0.831308 19.9609 0.800134 19.9609 0.762032C19.9609 0.723931 19.9521 0.692757 19.9414 0.692757C19.9307 0.692757 19.9219 0.671974 19.9219 0.646573C19.9219 0.621172 19.9131 0.600389 19.9023 0.600389C19.8916 0.600389 19.8828 0.579606 19.8828 0.554205C19.8828 0.528804 19.874 0.508022 19.8633 0.508022C19.8525 0.508022 19.8438 0.492204 19.8438 0.472876C19.8438 0.427154 19.6387 0.184735 19.6 0.184735C19.5837 0.184735 19.5703 0.174344 19.5703 0.161643C19.5703 0.148943 19.5527 0.138551 19.5312 0.138551C19.5098 0.138551 19.4922 0.12816 19.4922 0.115459C19.4922 0.102759 19.4746 0.0923676 19.4531 0.0923676C19.4316 0.0923676 19.4141 0.0819762 19.4141 0.0692757C19.4141 0.0565751 19.3789 0.0461838 19.3359 0.0461838C19.293 0.0461838 19.2578 0.0357924 19.2578 0.0230919C19.2578 0.00773578 16.1588 0 10 0C3.84115 0 0.742188 0.00773578 0.742188 0.0230919ZM19.2188 0.669665C19.2188 0.682365 19.2322 0.692757 19.2487 0.692757C19.2876 0.692757 19.4141 0.8423 19.4141 0.888276C19.4141 0.907742 19.4229 0.923675 19.4336 0.923675C19.4466 0.923675 19.4531 3.07891 19.4531 7.34322C19.4531 11.6075 19.4466 13.7628 19.4336 13.7628C19.4229 13.7628 19.4141 13.7787 19.4141 13.7982C19.4141 13.8441 19.2876 13.9937 19.2487 13.9937C19.2322 13.9937 19.2188 14.0041 19.2188 14.0168C19.2188 14.0321 16.1328 14.0399 10 14.0399C3.86719 14.0399 0.78125 14.0321 0.78125 14.0168C0.78125 14.0041 0.767773 13.9937 0.751309 13.9937C0.712422 13.9937 0.585938 13.8441 0.585938 13.7982C0.585938 13.7787 0.577148 13.7628 0.566406 13.7628C0.553438 13.7628 0.546875 11.6075 0.546875 7.34322C0.546875 3.07891 0.553438 0.923675 0.566406 0.923675C0.577148 0.923675 0.585938 0.907742 0.585938 0.888276C0.585938 0.8423 0.712422 0.692757 0.751309 0.692757C0.767773 0.692757 0.78125 0.682365 0.78125 0.669665C0.78125 0.654309 3.86719 0.646573 10 0.646573C16.1328 0.646573 19.2188 0.654309 19.2188 0.669665ZM1.44531 1.50097C1.44531 1.51367 1.43174 1.52406 1.41514 1.52406C1.37605 1.52406 1.28906 1.62692 1.28906 1.67312C1.28906 1.69275 1.28027 1.7088 1.26953 1.7088C1.25656 1.7088 1.25 3.60638 1.25 7.35537V13.002L1.33738 13.1052L1.42475 13.2086H10H18.5753L18.6626 13.1052L18.75 13.002V7.35537C18.75 3.60638 18.7434 1.7088 18.7305 1.7088C18.7197 1.7088 18.7109 1.69275 18.7109 1.67312C18.7109 1.62692 18.6239 1.52406 18.5849 1.52406C18.5683 1.52406 18.5547 1.51367 18.5547 1.50097C18.5547 1.48562 15.6901 1.47788 10 1.47788C4.3099 1.47788 1.44531 1.48562 1.44531 1.50097ZM18.2031 7.34322V12.562H10H1.79688V7.34322V2.12445H10H18.2031V7.34322ZM6.27441 5.11578C6.21607 5.18801 6.21094 5.20655 6.21094 5.34512C6.21094 5.43022 6.21943 5.49587 6.23047 5.49587C6.24121 5.49587 6.25 5.51665 6.25 5.54205C6.25 5.57283 6.26303 5.58824 6.28906 5.58824C6.31055 5.58824 6.32812 5.59863 6.32812 5.61133C6.32812 5.62403 6.3457 5.63442 6.36719 5.63442C6.38867 5.63442 6.40625 5.64481 6.40625 5.65751C6.40625 5.67241 6.62109 5.6806 7.01172 5.6806H7.61719V7.58645V9.49231L7.6849 9.57235C7.74727 9.6461 7.76193 9.65241 7.87109 9.65241C7.98025 9.65241 7.99492 9.6461 8.05729 9.57235C8.09453 9.52834 8.125 9.47638 8.125 9.45689C8.125 9.43742 8.13379 9.42149 8.14453 9.42149C8.15738 9.42149 8.16406 8.78261 8.16406 7.55105V5.6806H8.75C9.1276 5.6806 9.33594 5.67238 9.33594 5.65751C9.33594 5.64481 9.3583 5.63442 9.38564 5.63442C9.44047 5.63442 9.53125 5.54148 9.53125 5.48536C9.53125 5.46573 9.54004 5.44969 9.55078 5.44969C9.56152 5.44969 9.57031 5.40002 9.57031 5.33933C9.57031 5.25546 9.56094 5.22098 9.53125 5.19567C9.50977 5.17736 9.49219 5.1439 9.49219 5.1213C9.49219 5.09562 9.47756 5.08021 9.45312 5.08021C9.43164 5.08021 9.41406 5.06982 9.41406 5.05712C9.41406 5.04191 8.88924 5.03456 7.87598 5.03562L6.33789 5.03719L6.27441 5.11578ZM10.5859 5.05712C10.5859 5.06982 10.5684 5.08021 10.5469 5.08021C10.5224 5.08021 10.5078 5.09562 10.5078 5.1213C10.5078 5.1439 10.4902 5.17736 10.4688 5.19567C10.4391 5.22098 10.4297 5.25546 10.4297 5.33933C10.4297 5.40002 10.4385 5.44969 10.4492 5.44969C10.46 5.44969 10.4688 5.47047 10.4688 5.49587C10.4688 5.52127 10.4775 5.54205 10.4883 5.54205C10.499 5.54205 10.5078 5.57323 10.5078 5.61133C10.5078 5.64943 10.5166 5.6806 10.5273 5.6806C10.5381 5.6806 10.5469 5.70139 10.5469 5.72679C10.5469 5.75219 10.5557 5.77297 10.5664 5.77297C10.5771 5.77297 10.5859 5.80415 10.5859 5.84225C10.5859 5.88035 10.5947 5.91152 10.6055 5.91152C10.6162 5.91152 10.625 5.93231 10.625 5.95771C10.625 5.98311 10.6338 6.00389 10.6445 6.00389C10.6553 6.00389 10.6641 6.02467 10.6641 6.05007C10.6641 6.07548 10.6729 6.09626 10.6836 6.09626C10.6943 6.09626 10.7031 6.12743 10.7031 6.16553C10.7031 6.20364 10.7119 6.23481 10.7227 6.23481C10.7334 6.23481 10.7422 6.25559 10.7422 6.28099C10.7422 6.30639 10.751 6.32718 10.7617 6.32718C10.7725 6.32718 10.7813 6.35835 10.7813 6.39645C10.7813 6.43455 10.79 6.46573 10.8008 6.46573C10.8115 6.46573 10.8203 6.48651 10.8203 6.51191C10.8203 6.53731 10.8291 6.5581 10.8398 6.5581C10.8506 6.5581 10.8594 6.57888 10.8594 6.60428C10.8594 6.62968 10.8682 6.65046 10.8789 6.65046C10.8896 6.65046 10.8984 6.68164 10.8984 6.71974C10.8984 6.75784 10.9072 6.78901 10.918 6.78901C10.9287 6.78901 10.9375 6.8098 10.9375 6.8352C10.9375 6.8606 10.9463 6.88138 10.957 6.88138C10.9678 6.88138 10.9766 6.91256 10.9766 6.95066C10.9766 6.98876 10.9854 7.01993 10.9961 7.01993C11.0068 7.01993 11.0156 7.04072 11.0156 7.06612C11.0156 7.09152 11.0244 7.1123 11.0352 7.1123C11.0459 7.1123 11.0547 7.13308 11.0547 7.15849C11.0547 7.18389 11.0635 7.20467 11.0742 7.20467C11.085 7.20467 11.0938 7.23584 11.0938 7.27394C11.0938 7.31205 11.1025 7.34322 11.1133 7.34322C11.124 7.34322 11.1328 7.364 11.1328 7.3894C11.1328 7.4148 11.1416 7.43559 11.1523 7.43559C11.1631 7.43559 11.1719 7.46676 11.1719 7.50486C11.1719 7.54296 11.1807 7.57414 11.1914 7.57414C11.2021 7.57414 11.2109 7.59492 11.2109 7.62032C11.2109 7.64572 11.2197 7.66651 11.2305 7.66651C11.2412 7.66651 11.25 7.68729 11.25 7.71269C11.25 7.73809 11.2588 7.75887 11.2695 7.75887C11.2803 7.75887 11.2891 7.79005 11.2891 7.82815C11.2891 7.86625 11.2979 7.89743 11.3086 7.89743C11.3193 7.89743 11.3281 7.91821 11.3281 7.94361C11.3281 7.96901 11.3369 7.98979 11.3477 7.98979C11.3584 7.98979 11.3672 8.02097 11.3672 8.05907C11.3672 8.09717 11.376 8.12834 11.3867 8.12834C11.3975 8.12834 11.4063 8.14913 11.4063 8.17453C11.4063 8.19993 11.415 8.22071 11.4258 8.22071C11.4365 8.22071 11.4453 8.24149 11.4453 8.2669C11.4453 8.2923 11.4541 8.31308 11.4648 8.31308C11.4756 8.31308 11.4844 8.34425 11.4844 8.38236C11.4844 8.42046 11.4932 8.45163 11.5039 8.45163C11.5146 8.45163 11.5234 8.47241 11.5234 8.49782C11.5234 8.52322 11.5322 8.544 11.543 8.544C11.5537 8.544 11.5625 8.56478 11.5625 8.59018C11.5625 8.61558 11.5713 8.63637 11.582 8.63637C11.5928 8.63637 11.6016 8.66754 11.6016 8.70564C11.6016 8.74374 11.6104 8.77492 11.6211 8.77492C11.6318 8.77492 11.6406 8.7957 11.6406 8.8211C11.6406 8.8465 11.6494 8.86728 11.6602 8.86728C11.6709 8.86728 11.6797 8.89846 11.6797 8.93656C11.6797 8.97466 11.6885 9.00584 11.6992 9.00584C11.71 9.00584 11.7188 9.02662 11.7188 9.05202C11.7188 9.07742 11.7275 9.0982 11.7383 9.0982C11.749 9.0982 11.7578 9.11899 11.7578 9.14439C11.7578 9.16979 11.7666 9.19057 11.7773 9.19057C11.7881 9.19057 11.7969 9.22175 11.7969 9.25985C11.7969 9.29795 11.8057 9.32912 11.8164 9.32912C11.8271 9.32912 11.8359 9.34991 11.8359 9.37531C11.8359 9.40071 11.8447 9.42149 11.8555 9.42149C11.8662 9.42149 11.875 9.43742 11.875 9.45689C11.875 9.47638 11.9055 9.52834 11.9427 9.57235C12.0051 9.6461 12.0197 9.65241 12.1289 9.65241C12.2381 9.65241 12.2527 9.6461 12.3151 9.57235C12.3567 9.52314 12.3828 9.46978 12.3828 9.4338C12.3828 9.40163 12.3916 9.37531 12.4023 9.37531C12.4131 9.37531 12.4219 9.35452 12.4219 9.32912C12.4219 9.30372 12.4307 9.28294 12.4414 9.28294C12.4521 9.28294 12.4609 9.26216 12.4609 9.23675C12.4609 9.21135 12.4697 9.19057 12.4805 9.19057C12.4912 9.19057 12.5 9.1594 12.5 9.12129C12.5 9.08319 12.5088 9.05202 12.5195 9.05202C12.5303 9.05202 12.5391 9.03124 12.5391 9.00584C12.5391 8.98044 12.5479 8.95965 12.5586 8.95965C12.5693 8.95965 12.5781 8.92848 12.5781 8.89038C12.5781 8.85227 12.5869 8.8211 12.5977 8.8211C12.6084 8.8211 12.6172 8.80032 12.6172 8.77492C12.6172 8.74952 12.626 8.72873 12.6367 8.72873C12.6475 8.72873 12.6562 8.70795 12.6562 8.68255C12.6562 8.65715 12.665 8.63637 12.6758 8.63637C12.6865 8.63637 12.6953 8.60519 12.6953 8.56709C12.6953 8.52899 12.7041 8.49782 12.7148 8.49782C12.7256 8.49782 12.7344 8.47703 12.7344 8.45163C12.7344 8.42623 12.7432 8.40545 12.7539 8.40545C12.7646 8.40545 12.7734 8.37427 12.7734 8.33617C12.7734 8.29807 12.7822 8.2669 12.793 8.2669C12.8037 8.2669 12.8125 8.24611 12.8125 8.22071C12.8125 8.19531 12.8213 8.17453 12.832 8.17453C12.8428 8.17453 12.8516 8.15375 12.8516 8.12834C12.8516 8.10294 12.8604 8.08216 12.8711 8.08216C12.8818 8.08216 12.8906 8.05099 12.8906 8.01289C12.8906 7.97478 12.8994 7.94361 12.9102 7.94361C12.9209 7.94361 12.9297 7.92283 12.9297 7.89743C12.9297 7.87202 12.9385 7.85124 12.9492 7.85124C12.96 7.85124 12.9688 7.82007 12.9688 7.78197C12.9688 7.74386 12.9775 7.71269 12.9883 7.71269C12.999 7.71269 13.0078 7.69191 13.0078 7.66651C13.0078 7.64111 13.0166 7.62032 13.0273 7.62032C13.0381 7.62032 13.0469 7.59954 13.0469 7.57414C13.0469 7.54874 13.0557 7.52796 13.0664 7.52796C13.0771 7.52796 13.0859 7.49678 13.0859 7.45868C13.0859 7.42058 13.0947 7.3894 13.1055 7.3894C13.1162 7.3894 13.125 7.36862 13.125 7.34322C13.125 7.31782 13.1338 7.29704 13.1445 7.29704C13.1553 7.29704 13.1641 7.26586 13.1641 7.22776C13.1641 7.18966 13.1729 7.15849 13.1836 7.15849C13.1943 7.15849 13.2031 7.1377 13.2031 7.1123C13.2031 7.0869 13.2119 7.06612 13.2227 7.06612C13.2334 7.06612 13.2422 7.04533 13.2422 7.01993C13.2422 6.99453 13.251 6.97375 13.2617 6.97375C13.2725 6.97375 13.2813 6.94258 13.2813 6.90447C13.2813 6.86637 13.29 6.8352 13.3008 6.8352C13.3115 6.8352 13.3203 6.81442 13.3203 6.78901C13.3203 6.76361 13.3291 6.74283 13.3398 6.74283C13.3506 6.74283 13.3594 6.71166 13.3594 6.67356C13.3594 6.63545 13.3682 6.60428 13.3789 6.60428C13.3896 6.60428 13.3984 6.5835 13.3984 6.5581C13.3984 6.53269 13.4072 6.51191 13.418 6.51191C13.4287 6.51191 13.4375 6.49113 13.4375 6.46573C13.4375 6.44033 13.4463 6.41954 13.457 6.41954C13.4678 6.41954 13.4766 6.38837 13.4766 6.35027C13.4766 6.31217 13.4854 6.28099 13.4961 6.28099C13.5068 6.28099 13.5156 6.26021 13.5156 6.23481C13.5156 6.20941 13.5244 6.18863 13.5352 6.18863C13.5459 6.18863 13.5547 6.15745 13.5547 6.11935C13.5547 6.08125 13.5635 6.05007 13.5742 6.05007C13.585 6.05007 13.5938 6.02929 13.5938 6.00389C13.5938 5.97849 13.6025 5.95771 13.6133 5.95771C13.624 5.95771 13.6328 5.93692 13.6328 5.91152C13.6328 5.88612 13.6416 5.86534 13.6523 5.86534C13.6631 5.86534 13.6719 5.83417 13.6719 5.79606C13.6719 5.75796 13.6807 5.72679 13.6914 5.72679C13.7021 5.72679 13.7109 5.70601 13.7109 5.6806C13.7109 5.6552 13.7197 5.63442 13.7305 5.63442C13.7412 5.63442 13.75 5.60325 13.75 5.56515C13.75 5.52704 13.7588 5.49587 13.7695 5.49587C13.7803 5.49587 13.7891 5.46557 13.7891 5.42851C13.7891 5.39147 13.8001 5.3551 13.8135 5.34769C13.833 5.33693 13.833 5.33152 13.8135 5.32076C13.8001 5.31335 13.7891 5.28183 13.7891 5.2507C13.7891 5.21694 13.7618 5.16187 13.7213 5.11409C13.659 5.04034 13.6443 5.03403 13.5352 5.03403C13.426 5.03403 13.4113 5.04034 13.349 5.11409C13.3117 5.1581 13.2813 5.21006 13.2813 5.22955C13.2813 5.24902 13.2725 5.26495 13.2617 5.26495C13.251 5.26495 13.2422 5.29612 13.2422 5.33423C13.2422 5.37233 13.2334 5.4035 13.2227 5.4035C13.2119 5.4035 13.2031 5.42428 13.2031 5.44969C13.2031 5.47509 13.1943 5.49587 13.1836 5.49587C13.1729 5.49587 13.1641 5.51665 13.1641 5.54205C13.1641 5.56745 13.1553 5.58824 13.1445 5.58824C13.1338 5.58824 13.125 5.61941 13.125 5.65751C13.125 5.69561 13.1162 5.72679 13.1055 5.72679C13.0947 5.72679 13.0859 5.74757 13.0859 5.77297C13.0859 5.79837 13.0771 5.81916 13.0664 5.81916C13.0557 5.81916 13.0469 5.85033 13.0469 5.88843C13.0469 5.92653 13.0381 5.95771 13.0273 5.95771C13.0166 5.95771 13.0078 5.97849 13.0078 6.00389C13.0078 6.02929 12.999 6.05007 12.9883 6.05007C12.9775 6.05007 12.9688 6.07086 12.9688 6.09626C12.9688 6.12166 12.96 6.14244 12.9492 6.14244C12.9385 6.14244 12.9297 6.17362 12.9297 6.21172C12.9297 6.24982 12.9209 6.28099 12.9102 6.28099C12.8994 6.28099 12.8906 6.30178 12.8906 6.32718C12.8906 6.35258 12.8818 6.37336 12.8711 6.37336C12.8604 6.37336 12.8516 6.40453 12.8516 6.44264C12.8516 6.48074 12.8428 6.51191 12.832 6.51191C12.8213 6.51191 12.8125 6.53269 12.8125 6.5581C12.8125 6.5835 12.8037 6.60428 12.793 6.60428C12.7822 6.60428 12.7734 6.62506 12.7734 6.65046C12.7734 6.67586 12.7646 6.69665 12.7539 6.69665C12.7432 6.69665 12.7344 6.72782 12.7344 6.76592C12.7344 6.80402 12.7256 6.8352 12.7148 6.8352C12.7041 6.8352 12.6953 6.85598 12.6953 6.88138C12.6953 6.90678 12.6865 6.92757 12.6758 6.92757C12.665 6.92757 12.6562 6.95874 12.6562 6.99684C12.6562 7.03494 12.6475 7.06612 12.6367 7.06612C12.626 7.06612 12.6172 7.0869 12.6172 7.1123C12.6172 7.1377 12.6084 7.15849 12.5977 7.15849C12.5869 7.15849 12.5781 7.17927 12.5781 7.20467C12.5781 7.23007 12.5693 7.25085 12.5586 7.25085C12.5479 7.25085 12.5391 7.28203 12.5391 7.32013C12.5391 7.35823 12.5303 7.3894 12.5195 7.3894C12.5088 7.3894 12.5 7.41019 12.5 7.43559C12.5 7.46099 12.4912 7.48177 12.4805 7.48177C12.4697 7.48177 12.4609 7.51295 12.4609 7.55105C12.4609 7.58915 12.4521 7.62032 12.4414 7.62032C12.4307 7.62032 12.4219 7.64111 12.4219 7.66651C12.4219 7.69191 12.4131 7.71269 12.4023 7.71269C12.3916 7.71269 12.3828 7.73347 12.3828 7.75887C12.3828 7.78428 12.374 7.80506 12.3633 7.80506C12.3525 7.80506 12.3438 7.83623 12.3438 7.87433C12.3438 7.91244 12.335 7.94361 12.3242 7.94361C12.3135 7.94361 12.3047 7.96439 12.3047 7.98979C12.3047 8.01519 12.2959 8.03598 12.2852 8.03598C12.2744 8.03598 12.2656 8.06715 12.2656 8.10525C12.2656 8.14335 12.2568 8.17453 12.2461 8.17453C12.2354 8.17453 12.2266 8.19531 12.2266 8.22071C12.2266 8.24611 12.2178 8.2669 12.207 8.2669C12.1963 8.2669 12.1875 8.28768 12.1875 8.31308C12.1875 8.33848 12.1787 8.35926 12.168 8.35926C12.1572 8.35926 12.1484 8.39044 12.1484 8.42854C12.1484 8.46664 12.1396 8.49782 12.1289 8.49782C12.1182 8.49782 12.1094 8.47703 12.1094 8.45163C12.1094 8.42623 12.1006 8.40545 12.0898 8.40545C12.0791 8.40545 12.0703 8.38466 12.0703 8.35926C12.0703 8.33386 12.0615 8.31308 12.0508 8.31308C12.04 8.31308 12.0312 8.28191 12.0312 8.2438C12.0312 8.2057 12.0225 8.17453 12.0117 8.17453C12.001 8.17453 11.9922 8.15375 11.9922 8.12834C11.9922 8.10294 11.9834 8.08216 11.9727 8.08216C11.9619 8.08216 11.9531 8.06138 11.9531 8.03598C11.9531 8.01058 11.9443 7.98979 11.9336 7.98979C11.9229 7.98979 11.9141 7.95862 11.9141 7.92052C11.9141 7.88242 11.9053 7.85124 11.8945 7.85124C11.8838 7.85124 11.875 7.83046 11.875 7.80506C11.875 7.77966 11.8662 7.75887 11.8555 7.75887C11.8447 7.75887 11.8359 7.73809 11.8359 7.71269C11.8359 7.68729 11.8271 7.66651 11.8164 7.66651C11.8057 7.66651 11.7969 7.63533 11.7969 7.59723C11.7969 7.55913 11.7881 7.52796 11.7773 7.52796C11.7666 7.52796 11.7578 7.50717 11.7578 7.48177C11.7578 7.45637 11.749 7.43559 11.7383 7.43559C11.7275 7.43559 11.7188 7.40441 11.7188 7.36631C11.7188 7.32821 11.71 7.29704 11.6992 7.29704C11.6885 7.29704 11.6797 7.27625 11.6797 7.25085C11.6797 7.22545 11.6709 7.20467 11.6602 7.20467C11.6494 7.20467 11.6406 7.18389 11.6406 7.15849C11.6406 7.13308 11.6318 7.1123 11.6211 7.1123C11.6104 7.1123 11.6016 7.08113 11.6016 7.04303C11.6016 7.00492 11.5928 6.97375 11.582 6.97375C11.5713 6.97375 11.5625 6.95297 11.5625 6.92757C11.5625 6.90216 11.5537 6.88138 11.543 6.88138C11.5322 6.88138 11.5234 6.85021 11.5234 6.81211C11.5234 6.774 11.5146 6.74283 11.5039 6.74283C11.4932 6.74283 11.4844 6.72205 11.4844 6.69665C11.4844 6.67125 11.4756 6.65046 11.4648 6.65046C11.4541 6.65046 11.4453 6.62968 11.4453 6.60428C11.4453 6.57888 11.4365 6.5581 11.4258 6.5581C11.415 6.5581 11.4063 6.52692 11.4063 6.48882C11.4063 6.45072 11.3975 6.41954 11.3867 6.41954C11.376 6.41954 11.3672 6.39876 11.3672 6.37336C11.3672 6.34796 11.3584 6.32718 11.3477 6.32718C11.3369 6.32718 11.3281 6.296 11.3281 6.2579C11.3281 6.2198 11.3193 6.18863 11.3086 6.18863C11.2979 6.18863 11.2891 6.16784 11.2891 6.14244C11.2891 6.11704 11.2803 6.09626 11.2695 6.09626C11.2588 6.09626 11.25 6.07548 11.25 6.05007C11.25 6.02467 11.2412 6.00389 11.2305 6.00389C11.2197 6.00389 11.2109 5.97272 11.2109 5.93462C11.2109 5.89651 11.2021 5.86534 11.1914 5.86534C11.1807 5.86534 11.1719 5.84456 11.1719 5.81916C11.1719 5.79375 11.1631 5.77297 11.1523 5.77297C11.1416 5.77297 11.1328 5.7418 11.1328 5.7037C11.1328 5.6656 11.124 5.63442 11.1133 5.63442C11.1025 5.63442 11.0938 5.61364 11.0938 5.58824C11.0938 5.56284 11.085 5.54205 11.0742 5.54205C11.0635 5.54205 11.0547 5.52127 11.0547 5.49587C11.0547 5.47047 11.0459 5.44969 11.0352 5.44969C11.0244 5.44969 11.0156 5.41851 11.0156 5.38041C11.0156 5.34231 11.0068 5.31113 10.9961 5.31113C10.9854 5.31113 10.9766 5.29035 10.9766 5.26495C10.9766 5.23955 10.9678 5.21877 10.957 5.21877C10.9463 5.21877 10.9375 5.20244 10.9375 5.18249C10.9375 5.13582 10.8905 5.08021 10.851 5.08021C10.8341 5.08021 10.8203 5.06982 10.8203 5.05712C10.8203 5.04428 10.7682 5.03403 10.7031 5.03403C10.638 5.03403 10.5859 5.04428 10.5859 5.05712ZM4.0625 14.7275C4.0625 14.7501 4.04492 14.7836 4.02344 14.8019C4.00195 14.8202 3.98438 14.8495 3.98438 14.867C3.98438 14.8845 3.95801 14.928 3.92578 14.9635C3.89355 14.9991 3.86719 15.0426 3.86719 15.0601C3.86719 15.0776 3.84961 15.1069 3.82813 15.1252C3.80664 15.1435 3.78906 15.1747 3.78906 15.1945C3.78906 15.2143 3.77148 15.2454 3.75 15.2637C3.72852 15.282 3.71094 15.3132 3.71094 15.333C3.71094 15.3528 3.69336 15.384 3.67188 15.4023C3.65039 15.4206 3.63281 15.4499 3.63281 15.4674C3.63281 15.4849 3.60645 15.5283 3.57422 15.5639C3.54199 15.5995 3.51562 15.643 3.51562 15.6605C3.51562 15.678 3.49805 15.7073 3.47656 15.7256C3.45508 15.7439 3.4375 15.7751 3.4375 15.7949C3.4375 15.8146 3.41992 15.8458 3.39844 15.8641C3.37695 15.8824 3.35938 15.9136 3.35938 15.9334C3.35938 15.9532 3.3418 15.9844 3.32031 16.0027C3.29883 16.021 3.28125 16.0522 3.28125 16.072C3.28125 16.0917 3.26367 16.1229 3.24219 16.1412C3.2207 16.1595 3.20313 16.1888 3.20313 16.2063C3.20313 16.2238 3.17676 16.2673 3.14453 16.3029C3.1123 16.3385 3.08594 16.3795 3.08594 16.394C3.08594 16.4329 2.99492 16.5338 2.95986 16.5338C2.94326 16.5338 2.92969 16.5442 2.92969 16.5569C2.92969 16.5696 2.91211 16.58 2.89062 16.58C2.86914 16.58 2.85156 16.5904 2.85156 16.6031C2.85156 16.6159 2.79947 16.6262 2.73438 16.6262C2.66928 16.6262 2.61719 16.6159 2.61719 16.6031C2.61719 16.5904 2.60377 16.58 2.58738 16.58C2.54861 16.58 2.38281 16.3839 2.38281 16.3381C2.38281 16.3187 2.37402 16.3029 2.36328 16.3029C2.35213 16.3029 2.34375 16.2336 2.34375 16.1412C2.34375 16.0489 2.35213 15.9796 2.36328 15.9796C2.37402 15.9796 2.38281 15.9611 2.38281 15.9385C2.38281 15.9159 2.40039 15.8824 2.42188 15.8641C2.44336 15.8458 2.46094 15.8146 2.46094 15.7949C2.46094 15.7751 2.47852 15.7439 2.5 15.7256C2.52148 15.7073 2.53906 15.6761 2.53906 15.6563C2.53906 15.6365 2.55664 15.6053 2.57813 15.587C2.59961 15.5687 2.61719 15.5394 2.61719 15.5219C2.61719 15.5044 2.64355 15.461 2.67578 15.4254C2.70801 15.3898 2.73438 15.3463 2.73438 15.3289C2.73438 15.3114 2.75195 15.282 2.77344 15.2637C2.79492 15.2454 2.8125 15.2143 2.8125 15.1945C2.8125 15.1747 2.83008 15.1435 2.85156 15.1252C2.87305 15.1069 2.89062 15.0757 2.89062 15.0559C2.89062 15.0361 2.9082 15.0049 2.92969 14.9866C2.95117 14.9683 2.96875 14.939 2.96875 14.9215C2.96875 14.904 2.99512 14.8606 3.02734 14.825C3.05957 14.7894 3.08594 14.7437 3.08594 14.7234C3.08594 14.6905 3.1398 14.6864 3.57422 14.6864C4.02928 14.6864 4.0625 14.6892 4.0625 14.7275ZM16.9141 14.7234C16.9141 14.7437 16.9404 14.7894 16.9727 14.825C17.0049 14.8606 17.0312 14.904 17.0312 14.9215C17.0312 14.939 17.0488 14.9683 17.0703 14.9866C17.0918 15.0049 17.1094 15.0361 17.1094 15.0559C17.1094 15.0757 17.127 15.1069 17.1484 15.1252C17.1699 15.1435 17.1875 15.1747 17.1875 15.1945C17.1875 15.2143 17.2051 15.2454 17.2266 15.2637C17.248 15.282 17.2656 15.3114 17.2656 15.3289C17.2656 15.3463 17.292 15.3898 17.3242 15.4254C17.3564 15.461 17.3828 15.5044 17.3828 15.5219C17.3828 15.5394 17.4004 15.5687 17.4219 15.587C17.4434 15.6053 17.4609 15.6365 17.4609 15.6563C17.4609 15.6761 17.4785 15.7073 17.5 15.7256C17.5215 15.7439 17.5391 15.7751 17.5391 15.7949C17.5391 15.8146 17.5566 15.8458 17.5781 15.8641C17.5996 15.8824 17.6172 15.9159 17.6172 15.9385C17.6172 15.9611 17.626 15.9796 17.6367 15.9796C17.6479 15.9796 17.6562 16.0489 17.6562 16.1412C17.6562 16.2336 17.6479 16.3029 17.6367 16.3029C17.626 16.3029 17.6172 16.3187 17.6172 16.3381C17.6172 16.3575 17.5779 16.4199 17.5298 16.4767C17.4818 16.5335 17.429 16.58 17.4126 16.58C17.3962 16.58 17.3828 16.5904 17.3828 16.6031C17.3828 16.6159 17.3307 16.6262 17.2656 16.6262C17.2005 16.6262 17.1484 16.6159 17.1484 16.6031C17.1484 16.5904 17.1309 16.58 17.1094 16.58C17.0879 16.58 17.0703 16.5696 17.0703 16.5569C17.0703 16.5442 17.0567 16.5338 17.0401 16.5338C17.0051 16.5338 16.9141 16.4329 16.9141 16.394C16.9141 16.3795 16.8877 16.3385 16.8555 16.3029C16.8232 16.2673 16.7969 16.2238 16.7969 16.2063C16.7969 16.1888 16.7793 16.1595 16.7578 16.1412C16.7363 16.1229 16.7188 16.0917 16.7188 16.072C16.7188 16.0522 16.7012 16.021 16.6797 16.0027C16.6582 15.9844 16.6406 15.9532 16.6406 15.9334C16.6406 15.9136 16.623 15.8824 16.6016 15.8641C16.5801 15.8458 16.5625 15.8146 16.5625 15.7949C16.5625 15.7751 16.5449 15.7439 16.5234 15.7256C16.502 15.7073 16.4844 15.678 16.4844 15.6605C16.4844 15.643 16.458 15.5995 16.4258 15.5639C16.3936 15.5283 16.3672 15.4849 16.3672 15.4674C16.3672 15.4499 16.3496 15.4206 16.3281 15.4023C16.3066 15.384 16.2891 15.3528 16.2891 15.333C16.2891 15.3132 16.2715 15.282 16.25 15.2637C16.2285 15.2454 16.2109 15.2143 16.2109 15.1945C16.2109 15.1747 16.1934 15.1435 16.1719 15.1252C16.1504 15.1069 16.1328 15.0776 16.1328 15.0601C16.1328 15.0426 16.1064 14.9991 16.0742 14.9635C16.042 14.928 16.0156 14.8845 16.0156 14.867C16.0156 14.8495 15.998 14.8202 15.9766 14.8019C15.9551 14.7836 15.9375 14.7501 15.9375 14.7275C15.9375 14.6892 15.9707 14.6864 16.4258 14.6864C16.8602 14.6864 16.9141 14.6905 16.9141 14.7234Z" fill="#0089B1"/>
</svg>
