<svg width="32" height="23" viewBox="0 0 32 23" fill="none" xmlns="http://www.w3.org/2000/svg">
<path fill-rule="evenodd" clip-rule="evenodd" d="M1.1875 0.0307487C1.1875 0.0476604 1.13125 0.0614973 1.0625 0.0614973C0.99375 0.0614973 0.9375 0.0753342 0.9375 0.092246C0.9375 0.109158 0.909375 0.122995 0.875 0.122995C0.840625 0.122995 0.8125 0.136832 0.8125 0.153743C0.8125 0.170655 0.784375 0.184492 0.75 0.184492C0.715625 0.184492 0.6875 0.198329 0.6875 0.215241C0.6875 0.232152 0.666094 0.245989 0.639938 0.245989C0.578063 0.245989 0.25 0.568789 0.25 0.629671C0.25 0.655408 0.235938 0.676471 0.21875 0.676471C0.201563 0.676471 0.1875 0.704144 0.1875 0.737968C0.1875 0.771791 0.173438 0.799465 0.15625 0.799465C0.139062 0.799465 0.125 0.827139 0.125 0.860963C0.125 0.894786 0.110938 0.92246 0.09375 0.92246C0.0765625 0.92246 0.0625 0.963971 0.0625 1.01471C0.0625 1.06544 0.0484375 1.10695 0.03125 1.10695C0.0105 1.10695 0 4.01784 0 9.77807C0 15.5383 0.0105 18.4492 0.03125 18.4492C0.0484375 18.4492 0.0625 18.4907 0.0625 18.5414C0.0625 18.5922 0.0765625 18.6337 0.09375 18.6337C0.110938 18.6337 0.125 18.6614 0.125 18.6952C0.125 18.729 0.139062 18.7567 0.15625 18.7567C0.173438 18.7567 0.1875 18.7844 0.1875 18.8182C0.1875 18.852 0.201563 18.8797 0.21875 18.8797C0.235938 18.8797 0.25 18.9007 0.25 18.9265C0.25 18.9874 0.578063 19.3102 0.639938 19.3102C0.666094 19.3102 0.6875 19.324 0.6875 19.3409C0.6875 19.3578 0.715625 19.3717 0.75 19.3717C0.784375 19.3717 0.8125 19.3855 0.8125 19.4024C0.8125 19.4193 0.840625 19.4332 0.875 19.4332C0.909375 19.4332 0.9375 19.447 0.9375 19.4639C0.9375 19.4808 0.979688 19.4947 1.03125 19.4947C1.08281 19.4947 1.125 19.5085 1.125 19.5254C1.125 19.5454 1.60416 19.5561 2.5 19.5561C3.73916 19.5561 3.875 19.561 3.875 19.6053C3.875 19.6323 3.83281 19.6933 3.78125 19.7406C3.72969 19.788 3.6875 19.8459 3.6875 19.8692C3.6875 19.8925 3.65937 19.9315 3.625 19.9559C3.59063 19.9803 3.5625 20.0218 3.5625 20.0481C3.5625 20.0745 3.53437 20.116 3.5 20.1404C3.46563 20.1648 3.4375 20.2063 3.4375 20.2326C3.4375 20.259 3.40938 20.3005 3.375 20.3249C3.34063 20.3492 3.3125 20.3883 3.3125 20.4116C3.3125 20.4349 3.27031 20.4927 3.21875 20.5401C3.16719 20.5875 3.125 20.6484 3.125 20.6754C3.125 20.7025 3.11094 20.7246 3.09375 20.7246C3.07656 20.7246 3.0625 20.7523 3.0625 20.7861C3.0625 20.8199 3.04844 20.8476 3.03125 20.8476C3.01406 20.8476 3 20.8753 3 20.9091C3 20.9429 2.98594 20.9706 2.96875 20.9706C2.95156 20.9706 2.9375 21.0259 2.9375 21.0936C2.9375 21.1612 2.92344 21.2166 2.90625 21.2166C2.88803 21.2166 2.875 21.3191 2.875 21.4626C2.875 21.6061 2.88803 21.7086 2.90625 21.7086C2.92344 21.7086 2.9375 21.7639 2.9375 21.8316C2.9375 21.8992 2.95156 21.9545 2.96875 21.9545C2.98594 21.9545 3 21.9961 3 22.0468C3 22.0975 3.01406 22.139 3.03125 22.139C3.04844 22.139 3.0625 22.1611 3.0625 22.1882C3.0625 22.2152 3.10469 22.2761 3.15625 22.3235C3.20781 22.3709 3.25 22.4255 3.25 22.4449C3.25 22.4934 3.39406 22.631 3.44481 22.631C3.46756 22.631 3.50647 22.6587 3.53125 22.6925C3.55603 22.7263 3.60131 22.754 3.63191 22.754C3.66247 22.754 3.6875 22.7678 3.6875 22.7848C3.6875 22.8017 3.71563 22.8155 3.75 22.8155C3.78438 22.8155 3.8125 22.8293 3.8125 22.8463C3.8125 22.8632 3.84062 22.877 3.875 22.877C3.90937 22.877 3.9375 22.8908 3.9375 22.9078C3.9375 22.9247 4.00781 22.9385 4.09375 22.9385C4.17969 22.9385 4.25 22.9523 4.25 22.9692C4.25 22.9862 4.32031 23 4.40625 23C4.49219 23 4.5625 22.9862 4.5625 22.9692C4.5625 22.9523 4.63281 22.9385 4.71875 22.9385C4.80469 22.9385 4.875 22.9247 4.875 22.9078C4.875 22.8908 4.90313 22.877 4.9375 22.877C4.97188 22.877 5 22.8632 5 22.8463C5 22.8293 5.02812 22.8155 5.0625 22.8155C5.09687 22.8155 5.125 22.8017 5.125 22.7848C5.125 22.7678 5.15003 22.754 5.18059 22.754C5.21119 22.754 5.25647 22.7263 5.28125 22.6925C5.30603 22.6587 5.34494 22.631 5.36769 22.631C5.41844 22.631 5.5625 22.4934 5.5625 22.4449C5.5625 22.4255 5.60469 22.3709 5.65625 22.3235C5.70781 22.2761 5.75 22.2183 5.75 22.195C5.75 22.1717 5.77813 22.1327 5.8125 22.1083C5.84688 22.0839 5.875 22.0424 5.875 22.016C5.875 21.9897 5.90313 21.9482 5.9375 21.9238C5.97188 21.8994 6 21.8604 6 21.8371C6 21.8138 6.04219 21.7559 6.09375 21.7086C6.14531 21.6612 6.1875 21.6033 6.1875 21.58C6.1875 21.5567 6.21562 21.5177 6.25 21.4933C6.28438 21.4689 6.3125 21.4274 6.3125 21.4011C6.3125 21.3747 6.34063 21.3332 6.375 21.3088C6.40938 21.2844 6.4375 21.2429 6.4375 21.2166C6.4375 21.1902 6.46562 21.1487 6.5 21.1243C6.53437 21.0999 6.5625 21.0609 6.5625 21.0376C6.5625 21.0143 6.60469 20.9565 6.65625 20.9091C6.70781 20.8617 6.75 20.8038 6.75 20.7806C6.75 20.7573 6.77813 20.7182 6.8125 20.6938C6.84688 20.6695 6.875 20.628 6.875 20.6016C6.875 20.5753 6.90313 20.5337 6.9375 20.5094C6.97188 20.485 7 20.4435 7 20.4171C7 20.3908 7.02812 20.3492 7.0625 20.3249C7.09688 20.3005 7.125 20.259 7.125 20.2326C7.125 20.2063 7.15313 20.1648 7.1875 20.1404C7.22188 20.116 7.25 20.077 7.25 20.0537C7.25 20.0304 7.29219 19.9725 7.34375 19.9251C7.39531 19.8777 7.4375 19.8199 7.4375 19.7966C7.4375 19.7733 7.46563 19.7343 7.5 19.7099C7.53438 19.6855 7.5625 19.641 7.5625 19.6109C7.5625 19.5585 7.93228 19.5561 16 19.5561C24.0677 19.5561 24.4375 19.5585 24.4375 19.6109C24.4375 19.641 24.4656 19.6855 24.5 19.7099C24.5344 19.7343 24.5625 19.7733 24.5625 19.7966C24.5625 19.8199 24.6047 19.8777 24.6562 19.9251C24.7078 19.9725 24.75 20.0304 24.75 20.0537C24.75 20.077 24.7781 20.116 24.8125 20.1404C24.8469 20.1648 24.875 20.2063 24.875 20.2326C24.875 20.259 24.9031 20.3005 24.9375 20.3249C24.9719 20.3492 25 20.3908 25 20.4171C25 20.4435 25.0281 20.485 25.0625 20.5094C25.0969 20.5337 25.125 20.5753 25.125 20.6016C25.125 20.628 25.1531 20.6695 25.1875 20.6938C25.2219 20.7182 25.25 20.7573 25.25 20.7806C25.25 20.8038 25.2922 20.8617 25.3438 20.9091C25.3953 20.9565 25.4375 21.0143 25.4375 21.0376C25.4375 21.0609 25.4656 21.0999 25.5 21.1243C25.5344 21.1487 25.5625 21.1902 25.5625 21.2166C25.5625 21.2429 25.5906 21.2844 25.625 21.3088C25.6594 21.3332 25.6875 21.3747 25.6875 21.4011C25.6875 21.4274 25.7156 21.4689 25.75 21.4933C25.7844 21.5177 25.8125 21.5567 25.8125 21.58C25.8125 21.6033 25.8547 21.6612 25.9062 21.7086C25.9578 21.7559 26 21.8138 26 21.8371C26 21.8604 26.0281 21.8994 26.0625 21.9238C26.0969 21.9482 26.125 21.9897 26.125 22.016C26.125 22.0424 26.1531 22.0839 26.1875 22.1083C26.2219 22.1327 26.25 22.1717 26.25 22.195C26.25 22.2183 26.2922 22.2761 26.3438 22.3235C26.3953 22.3709 26.4375 22.4255 26.4375 22.4449C26.4375 22.4934 26.5816 22.631 26.6323 22.631C26.6551 22.631 26.694 22.6587 26.7188 22.6925C26.7435 22.7263 26.7888 22.754 26.8194 22.754C26.85 22.754 26.875 22.7678 26.875 22.7848C26.875 22.8017 26.9031 22.8155 26.9375 22.8155C26.9719 22.8155 27 22.8293 27 22.8463C27 22.8632 27.0281 22.877 27.0625 22.877C27.0969 22.877 27.125 22.8908 27.125 22.9078C27.125 22.9247 27.1953 22.9385 27.2812 22.9385C27.3672 22.9385 27.4375 22.9523 27.4375 22.9692C27.4375 22.9862 27.4937 23 27.5625 23C27.6313 23 27.6875 22.9862 27.6875 22.9692C27.6875 22.9522 27.7708 22.9385 27.875 22.9385C27.9792 22.9385 28.0625 22.9248 28.0625 22.9078C28.0625 22.8908 28.0906 22.877 28.125 22.877C28.1594 22.877 28.1875 22.8632 28.1875 22.8463C28.1875 22.8293 28.2156 22.8155 28.25 22.8155C28.2844 22.8155 28.3125 22.8017 28.3125 22.7848C28.3125 22.7678 28.3375 22.754 28.3681 22.754C28.3987 22.754 28.444 22.7263 28.4688 22.6925C28.4935 22.6587 28.5324 22.631 28.5552 22.631C28.6088 22.631 28.75 22.4921 28.75 22.4393C28.75 22.4169 28.7781 22.3787 28.8125 22.3543C28.8469 22.3299 28.875 22.2884 28.875 22.262C28.875 22.2357 28.9031 22.1942 28.9375 22.1698C28.9742 22.1437 29 22.0902 29 22.04C29 21.993 29.0141 21.9545 29.0312 21.9545C29.0484 21.9545 29.0625 21.8992 29.0625 21.8316C29.0625 21.7639 29.0766 21.7086 29.0938 21.7086C29.1116 21.7086 29.125 21.6163 29.125 21.4933C29.125 21.3703 29.1116 21.2781 29.0938 21.2781C29.0766 21.2781 29.0625 21.2089 29.0625 21.1243C29.0625 21.0398 29.0484 20.9706 29.0312 20.9706C29.0141 20.9706 29 20.9429 29 20.9091C29 20.8753 28.9859 20.8476 28.9688 20.8476C28.9516 20.8476 28.9375 20.8199 28.9375 20.7861C28.9375 20.7523 28.9234 20.7246 28.9062 20.7246C28.8891 20.7246 28.875 20.7025 28.875 20.6754C28.875 20.6484 28.8328 20.5875 28.7812 20.5401C28.7297 20.4927 28.6875 20.4349 28.6875 20.4116C28.6875 20.3883 28.6594 20.3492 28.625 20.3249C28.5906 20.3005 28.5625 20.259 28.5625 20.2326C28.5625 20.2063 28.5344 20.1648 28.5 20.1404C28.4656 20.116 28.4375 20.0745 28.4375 20.0481C28.4375 20.0218 28.4094 19.9803 28.375 19.9559C28.3406 19.9315 28.3125 19.8925 28.3125 19.8692C28.3125 19.8459 28.2703 19.788 28.2188 19.7406C28.1672 19.6933 28.125 19.6323 28.125 19.6053C28.125 19.561 28.2608 19.5561 29.5 19.5561C30.3958 19.5561 30.875 19.5454 30.875 19.5254C30.875 19.5085 30.9172 19.4947 30.9687 19.4947C31.0203 19.4947 31.0625 19.4808 31.0625 19.4639C31.0625 19.447 31.0906 19.4332 31.125 19.4332C31.1594 19.4332 31.1875 19.4193 31.1875 19.4024C31.1875 19.3855 31.2156 19.3717 31.25 19.3717C31.2844 19.3717 31.3125 19.3578 31.3125 19.3409C31.3125 19.324 31.3339 19.3102 31.3601 19.3102C31.4219 19.3102 31.75 18.9874 31.75 18.9265C31.75 18.9007 31.7641 18.8797 31.7812 18.8797C31.7984 18.8797 31.8125 18.852 31.8125 18.8182C31.8125 18.7844 31.8266 18.7567 31.8438 18.7567C31.8609 18.7567 31.875 18.729 31.875 18.6952C31.875 18.6614 31.8891 18.6337 31.9062 18.6337C31.9234 18.6337 31.9375 18.5922 31.9375 18.5414C31.9375 18.4907 31.9516 18.4492 31.9688 18.4492C31.9895 18.4492 32 15.5383 32 9.77807C32 4.01784 31.9895 1.10695 31.9688 1.10695C31.9516 1.10695 31.9375 1.06544 31.9375 1.01471C31.9375 0.963971 31.9234 0.92246 31.9062 0.92246C31.8891 0.92246 31.875 0.894786 31.875 0.860963C31.875 0.827139 31.8609 0.799465 31.8438 0.799465C31.8266 0.799465 31.8125 0.771791 31.8125 0.737968C31.8125 0.704144 31.7984 0.676471 31.7812 0.676471C31.7641 0.676471 31.75 0.655408 31.75 0.629671C31.75 0.568789 31.4219 0.245989 31.3601 0.245989C31.3339 0.245989 31.3125 0.232152 31.3125 0.215241C31.3125 0.198329 31.2844 0.184492 31.25 0.184492C31.2156 0.184492 31.1875 0.170655 31.1875 0.153743C31.1875 0.136832 31.1594 0.122995 31.125 0.122995C31.0906 0.122995 31.0625 0.109158 31.0625 0.092246C31.0625 0.0753342 31.0062 0.0614973 30.9375 0.0614973C30.8687 0.0614973 30.8125 0.0476604 30.8125 0.0307487C30.8125 0.0103008 25.8542 0 16 0C6.14584 0 1.1875 0.0103008 1.1875 0.0307487ZM30.75 0.891711C30.75 0.908623 30.7716 0.92246 30.7979 0.92246C30.8601 0.92246 31.0625 1.12159 31.0625 1.18281C31.0625 1.20873 31.0766 1.22995 31.0938 1.22995C31.1145 1.22995 31.125 4.09981 31.125 9.77807C31.125 15.4563 31.1145 18.3262 31.0938 18.3262C31.0766 18.3262 31.0625 18.3474 31.0625 18.3733C31.0625 18.4346 30.8601 18.6337 30.7979 18.6337C30.7716 18.6337 30.75 18.6475 30.75 18.6644C30.75 18.6849 25.8125 18.6952 16 18.6952C6.1875 18.6952 1.25 18.6849 1.25 18.6644C1.25 18.6475 1.22844 18.6337 1.20209 18.6337C1.13988 18.6337 0.9375 18.4346 0.9375 18.3733C0.9375 18.3474 0.923437 18.3262 0.90625 18.3262C0.8855 18.3262 0.875 15.4563 0.875 9.77807C0.875 4.09981 0.8855 1.22995 0.90625 1.22995C0.923437 1.22995 0.9375 1.20873 0.9375 1.18281C0.9375 1.12159 1.13988 0.92246 1.20209 0.92246C1.22844 0.92246 1.25 0.908623 1.25 0.891711C1.25 0.871263 6.1875 0.860963 16 0.860963C25.8125 0.860963 30.75 0.871263 30.75 0.891711ZM2.3125 1.99866C2.3125 2.01557 2.29078 2.02941 2.26422 2.02941C2.20169 2.02941 2.0625 2.16637 2.0625 2.22789C2.0625 2.25403 2.04844 2.2754 2.03125 2.2754C2.0105 2.2754 2 4.80217 2 9.79425V17.3131L2.13981 17.4507L2.27959 17.5882H16H29.7204L29.8602 17.4507L30 17.3131V9.79425C30 4.80217 29.9895 2.2754 29.9688 2.2754C29.9516 2.2754 29.9375 2.25403 29.9375 2.22789C29.9375 2.16637 29.7983 2.02941 29.7358 2.02941C29.7092 2.02941 29.6875 2.01557 29.6875 1.99866C29.6875 1.97822 25.1042 1.96791 16 1.96791C6.89584 1.96791 2.3125 1.97822 2.3125 1.99866ZM29.125 9.77807V16.7273H16H2.875V9.77807V2.82888H16H29.125V9.77807ZM10.0391 6.81206C9.94572 6.90824 9.9375 6.93293 9.9375 7.11745C9.9375 7.23076 9.95109 7.31818 9.96875 7.31818C9.98594 7.31818 10 7.34586 10 7.37968C10 7.42067 10.0208 7.44118 10.0625 7.44118C10.0969 7.44118 10.125 7.45501 10.125 7.47192C10.125 7.48884 10.1531 7.50267 10.1875 7.50267C10.2219 7.50267 10.25 7.51651 10.25 7.53342C10.25 7.55326 10.5938 7.56417 11.2188 7.56417H12.1875V10.1019V12.6398L12.2958 12.7463C12.3956 12.8445 12.4191 12.8529 12.5938 12.8529C12.7684 12.8529 12.7919 12.8445 12.8917 12.7463C12.9512 12.6877 13 12.6185 13 12.5926C13 12.5667 13.0141 12.5455 13.0312 12.5455C13.0518 12.5455 13.0625 11.6947 13.0625 10.0548V7.56417H14C14.6042 7.56417 14.9375 7.55322 14.9375 7.53342C14.9375 7.51651 14.9733 7.50267 15.017 7.50267C15.1048 7.50267 15.25 7.37891 15.25 7.30419C15.25 7.27806 15.2641 7.25668 15.2812 7.25668C15.2984 7.25668 15.3125 7.19054 15.3125 7.10974C15.3125 6.99806 15.2975 6.95215 15.25 6.91845C15.2156 6.89407 15.1875 6.84951 15.1875 6.81941C15.1875 6.78521 15.1641 6.76471 15.125 6.76471C15.0906 6.76471 15.0625 6.75087 15.0625 6.73396C15.0625 6.71369 14.2228 6.70392 12.6016 6.70533L10.1406 6.70742L10.0391 6.81206ZM16.9375 6.73396C16.9375 6.75087 16.9094 6.76471 16.875 6.76471C16.8359 6.76471 16.8125 6.78521 16.8125 6.81941C16.8125 6.84951 16.7844 6.89407 16.75 6.91845C16.7025 6.95215 16.6875 6.99806 16.6875 7.10974C16.6875 7.19054 16.7016 7.25668 16.7188 7.25668C16.7359 7.25668 16.75 7.28436 16.75 7.31818C16.75 7.35201 16.7641 7.37968 16.7812 7.37968C16.7984 7.37968 16.8125 7.42119 16.8125 7.47192C16.8125 7.52266 16.8266 7.56417 16.8438 7.56417C16.8609 7.56417 16.875 7.59184 16.875 7.62567C16.875 7.65949 16.8891 7.68717 16.9063 7.68717C16.9234 7.68717 16.9375 7.72868 16.9375 7.77941C16.9375 7.83015 16.9516 7.87166 16.9688 7.87166C16.9859 7.87166 17 7.89933 17 7.93316C17 7.96698 17.0141 7.99465 17.0312 7.99465C17.0484 7.99465 17.0625 8.02233 17.0625 8.05615C17.0625 8.08997 17.0766 8.11765 17.0938 8.11765C17.1109 8.11765 17.125 8.15916 17.125 8.20989C17.125 8.26063 17.1391 8.30214 17.1562 8.30214C17.1734 8.30214 17.1875 8.32981 17.1875 8.36364C17.1875 8.39746 17.2016 8.42513 17.2188 8.42513C17.2359 8.42513 17.25 8.46664 17.25 8.51738C17.25 8.56811 17.2641 8.60963 17.2812 8.60963C17.2984 8.60963 17.3125 8.6373 17.3125 8.67112C17.3125 8.70495 17.3266 8.73262 17.3438 8.73262C17.3609 8.73262 17.375 8.76029 17.375 8.79412C17.375 8.82794 17.3891 8.85561 17.4062 8.85561C17.4234 8.85561 17.4375 8.89713 17.4375 8.94786C17.4375 8.9986 17.4516 9.04011 17.4688 9.04011C17.4859 9.04011 17.5 9.06778 17.5 9.1016C17.5 9.13543 17.5141 9.1631 17.5312 9.1631C17.5484 9.1631 17.5625 9.20461 17.5625 9.25535C17.5625 9.30608 17.5766 9.34759 17.5938 9.34759C17.6109 9.34759 17.625 9.37527 17.625 9.40909C17.625 9.44291 17.6391 9.47059 17.6562 9.47059C17.6734 9.47059 17.6875 9.49826 17.6875 9.53209C17.6875 9.56591 17.7016 9.59358 17.7188 9.59358C17.7359 9.59358 17.75 9.63509 17.75 9.68583C17.75 9.73656 17.7641 9.77807 17.7812 9.77807C17.7984 9.77807 17.8125 9.80575 17.8125 9.83957C17.8125 9.87339 17.8266 9.90107 17.8438 9.90107C17.8609 9.90107 17.875 9.94258 17.875 9.99331C17.875 10.0441 17.8891 10.0856 17.9062 10.0856C17.9234 10.0856 17.9375 10.1132 17.9375 10.1471C17.9375 10.1809 17.9516 10.2086 17.9688 10.2086C17.9859 10.2086 18 10.2362 18 10.2701C18 10.3039 18.0141 10.3315 18.0312 10.3315C18.0484 10.3315 18.0625 10.3731 18.0625 10.4238C18.0625 10.4745 18.0766 10.516 18.0938 10.516C18.1109 10.516 18.125 10.5437 18.125 10.5775C18.125 10.6114 18.1391 10.639 18.1562 10.639C18.1734 10.639 18.1875 10.6805 18.1875 10.7313C18.1875 10.782 18.2016 10.8235 18.2188 10.8235C18.2359 10.8235 18.25 10.8512 18.25 10.885C18.25 10.9188 18.2641 10.9465 18.2812 10.9465C18.2984 10.9465 18.3125 10.9742 18.3125 11.008C18.3125 11.0418 18.3266 11.0695 18.3438 11.0695C18.3609 11.0695 18.375 11.111 18.375 11.1618C18.375 11.2125 18.3891 11.254 18.4062 11.254C18.4234 11.254 18.4375 11.2817 18.4375 11.3155C18.4375 11.3493 18.4516 11.377 18.4688 11.377C18.4859 11.377 18.5 11.4047 18.5 11.4385C18.5 11.4723 18.5141 11.5 18.5312 11.5C18.5484 11.5 18.5625 11.5415 18.5625 11.5922C18.5625 11.643 18.5766 11.6845 18.5938 11.6845C18.6109 11.6845 18.625 11.7122 18.625 11.746C18.625 11.7798 18.6391 11.8075 18.6562 11.8075C18.6734 11.8075 18.6875 11.849 18.6875 11.8997C18.6875 11.9505 18.7016 11.992 18.7188 11.992C18.7359 11.992 18.75 12.0197 18.75 12.0535C18.75 12.0873 18.7641 12.115 18.7812 12.115C18.7984 12.115 18.8125 12.1426 18.8125 12.1765C18.8125 12.2103 18.8266 12.238 18.8438 12.238C18.8609 12.238 18.875 12.2795 18.875 12.3302C18.875 12.3809 18.8891 12.4225 18.9062 12.4225C18.9234 12.4225 18.9375 12.4501 18.9375 12.484C18.9375 12.5178 18.9516 12.5455 18.9688 12.5455C18.9859 12.5455 19 12.5667 19 12.5926C19 12.6185 19.0487 12.6877 19.1083 12.7463C19.2081 12.8445 19.2316 12.8529 19.4062 12.8529C19.5809 12.8529 19.6044 12.8445 19.7042 12.7463C19.7708 12.6808 19.8125 12.6097 19.8125 12.5618C19.8125 12.519 19.8266 12.484 19.8438 12.484C19.8609 12.484 19.875 12.4563 19.875 12.4225C19.875 12.3886 19.8891 12.361 19.9062 12.361C19.9234 12.361 19.9375 12.3333 19.9375 12.2995C19.9375 12.2656 19.9516 12.238 19.9688 12.238C19.9859 12.238 20 12.1965 20 12.1457C20 12.095 20.0141 12.0535 20.0312 12.0535C20.0484 12.0535 20.0625 12.0258 20.0625 11.992C20.0625 11.9582 20.0766 11.9305 20.0938 11.9305C20.1109 11.9305 20.125 11.889 20.125 11.8382C20.125 11.7875 20.1391 11.746 20.1563 11.746C20.1734 11.746 20.1875 11.7183 20.1875 11.6845C20.1875 11.6507 20.2016 11.623 20.2188 11.623C20.2359 11.623 20.25 11.5953 20.25 11.5615C20.25 11.5277 20.2641 11.5 20.2812 11.5C20.2984 11.5 20.3125 11.4585 20.3125 11.4078C20.3125 11.357 20.3266 11.3155 20.3438 11.3155C20.3609 11.3155 20.375 11.2878 20.375 11.254C20.375 11.2202 20.3891 11.1925 20.4062 11.1925C20.4234 11.1925 20.4375 11.151 20.4375 11.1003C20.4375 11.0495 20.4516 11.008 20.4688 11.008C20.4859 11.008 20.5 10.9803 20.5 10.9465C20.5 10.9127 20.5141 10.885 20.5313 10.885C20.5484 10.885 20.5625 10.8574 20.5625 10.8235C20.5625 10.7897 20.5766 10.762 20.5938 10.762C20.6109 10.762 20.625 10.7205 20.625 10.6698C20.625 10.6191 20.6391 10.5775 20.6562 10.5775C20.6734 10.5775 20.6875 10.5499 20.6875 10.516C20.6875 10.4822 20.7016 10.4545 20.7188 10.4545C20.7359 10.4545 20.75 10.413 20.75 10.3623C20.75 10.3116 20.7641 10.2701 20.7812 10.2701C20.7984 10.2701 20.8125 10.2424 20.8125 10.2086C20.8125 10.1747 20.8266 10.1471 20.8438 10.1471C20.8609 10.1471 20.875 10.1194 20.875 10.0856C20.875 10.0517 20.8891 10.0241 20.9063 10.0241C20.9234 10.0241 20.9375 9.98255 20.9375 9.93182C20.9375 9.88108 20.9516 9.83957 20.9688 9.83957C20.9859 9.83957 21 9.8119 21 9.77807C21 9.74425 21.0141 9.71658 21.0312 9.71658C21.0484 9.71658 21.0625 9.67507 21.0625 9.62433C21.0625 9.5736 21.0766 9.53209 21.0938 9.53209C21.1109 9.53209 21.125 9.50441 21.125 9.47059C21.125 9.43676 21.1391 9.40909 21.1562 9.40909C21.1734 9.40909 21.1875 9.38142 21.1875 9.34759C21.1875 9.31377 21.2016 9.2861 21.2188 9.2861C21.2359 9.2861 21.25 9.24459 21.25 9.19385C21.25 9.14312 21.2641 9.1016 21.2812 9.1016C21.2984 9.1016 21.3125 9.07393 21.3125 9.04011C21.3125 9.00628 21.3266 8.97861 21.3438 8.97861C21.3609 8.97861 21.375 8.9371 21.375 8.88636C21.375 8.83563 21.3891 8.79412 21.4062 8.79412C21.4234 8.79412 21.4375 8.76644 21.4375 8.73262C21.4375 8.6988 21.4516 8.67112 21.4688 8.67112C21.4859 8.67112 21.5 8.64345 21.5 8.60963C21.5 8.5758 21.5141 8.54813 21.5312 8.54813C21.5484 8.54813 21.5625 8.50662 21.5625 8.45588C21.5625 8.40515 21.5766 8.36364 21.5938 8.36364C21.6109 8.36364 21.625 8.33596 21.625 8.30214C21.625 8.26832 21.6391 8.24064 21.6562 8.24064C21.6734 8.24064 21.6875 8.19913 21.6875 8.14839C21.6875 8.09766 21.7016 8.05615 21.7188 8.05615C21.7359 8.05615 21.75 8.02848 21.75 7.99465C21.75 7.96083 21.7641 7.93316 21.7812 7.93316C21.7984 7.93316 21.8125 7.90548 21.8125 7.87166C21.8125 7.83783 21.8266 7.81016 21.8438 7.81016C21.8609 7.81016 21.875 7.76865 21.875 7.71791C21.875 7.66718 21.8891 7.62567 21.9062 7.62567C21.9234 7.62567 21.9375 7.59799 21.9375 7.56417C21.9375 7.53035 21.9516 7.50267 21.9688 7.50267C21.9859 7.50267 22 7.46116 22 7.41043C22 7.35969 22.0141 7.31818 22.0312 7.31818C22.0484 7.31818 22.0625 7.27784 22.0625 7.22849C22.0625 7.17917 22.0801 7.13074 22.1016 7.12087C22.1328 7.10654 22.1328 7.09934 22.1016 7.08501C22.0801 7.07514 22.0625 7.03317 22.0625 6.99172C22.0625 6.94677 22.0188 6.87343 21.9542 6.80981C21.8544 6.7116 21.8309 6.70321 21.6562 6.70321C21.4816 6.70321 21.4581 6.7116 21.3583 6.80981C21.2987 6.86842 21.25 6.93761 21.25 6.96356C21.25 6.98948 21.2359 7.01069 21.2188 7.01069C21.2016 7.01069 21.1875 7.05221 21.1875 7.10294C21.1875 7.15368 21.1734 7.19519 21.1562 7.19519C21.1391 7.19519 21.125 7.22286 21.125 7.25668C21.125 7.29051 21.1109 7.31818 21.0938 7.31818C21.0766 7.31818 21.0625 7.34586 21.0625 7.37968C21.0625 7.4135 21.0484 7.44118 21.0312 7.44118C21.0141 7.44118 21 7.48269 21 7.53342C21 7.58416 20.9859 7.62567 20.9688 7.62567C20.9516 7.62567 20.9375 7.65334 20.9375 7.68717C20.9375 7.72099 20.9234 7.74866 20.9063 7.74866C20.8891 7.74866 20.875 7.79017 20.875 7.84091C20.875 7.89164 20.8609 7.93316 20.8438 7.93316C20.8266 7.93316 20.8125 7.96083 20.8125 7.99465C20.8125 8.02848 20.7984 8.05615 20.7812 8.05615C20.7641 8.05615 20.75 8.08382 20.75 8.11765C20.75 8.15147 20.7359 8.17914 20.7188 8.17914C20.7016 8.17914 20.6875 8.22065 20.6875 8.27139C20.6875 8.32213 20.6734 8.36364 20.6562 8.36364C20.6391 8.36364 20.625 8.39131 20.625 8.42513C20.625 8.45896 20.6109 8.48663 20.5938 8.48663C20.5766 8.48663 20.5625 8.52814 20.5625 8.57888C20.5625 8.62961 20.5484 8.67112 20.5313 8.67112C20.5141 8.67112 20.5 8.6988 20.5 8.73262C20.5 8.76644 20.4859 8.79412 20.4688 8.79412C20.4516 8.79412 20.4375 8.82179 20.4375 8.85561C20.4375 8.88944 20.4234 8.91711 20.4062 8.91711C20.3891 8.91711 20.375 8.95862 20.375 9.00936C20.375 9.06009 20.3609 9.1016 20.3438 9.1016C20.3266 9.1016 20.3125 9.12928 20.3125 9.1631C20.3125 9.19693 20.2984 9.2246 20.2812 9.2246C20.2641 9.2246 20.25 9.26611 20.25 9.31684C20.25 9.36758 20.2359 9.40909 20.2188 9.40909C20.2016 9.40909 20.1875 9.43676 20.1875 9.47059C20.1875 9.50441 20.1734 9.53209 20.1563 9.53209C20.1391 9.53209 20.125 9.55976 20.125 9.59358C20.125 9.62741 20.1109 9.65508 20.0938 9.65508C20.0766 9.65508 20.0625 9.69659 20.0625 9.74733C20.0625 9.79806 20.0484 9.83957 20.0312 9.83957C20.0141 9.83957 20 9.86725 20 9.90107C20 9.93489 19.9859 9.96257 19.9688 9.96257C19.9516 9.96257 19.9375 10.0041 19.9375 10.0548C19.9375 10.1055 19.9234 10.1471 19.9062 10.1471C19.8891 10.1471 19.875 10.1747 19.875 10.2086C19.875 10.2424 19.8609 10.2701 19.8438 10.2701C19.8266 10.2701 19.8125 10.2977 19.8125 10.3315C19.8125 10.3654 19.7984 10.393 19.7813 10.393C19.7641 10.393 19.75 10.4346 19.75 10.4853C19.75 10.536 19.7359 10.5775 19.7188 10.5775C19.7016 10.5775 19.6875 10.6052 19.6875 10.639C19.6875 10.6729 19.6734 10.7005 19.6562 10.7005C19.6391 10.7005 19.625 10.742 19.625 10.7928C19.625 10.8435 19.6109 10.885 19.5938 10.885C19.5766 10.885 19.5625 10.9127 19.5625 10.9465C19.5625 10.9803 19.5484 11.008 19.5312 11.008C19.5141 11.008 19.5 11.0357 19.5 11.0695C19.5 11.1033 19.4859 11.131 19.4688 11.131C19.4516 11.131 19.4375 11.1725 19.4375 11.2233C19.4375 11.274 19.4234 11.3155 19.4062 11.3155C19.3891 11.3155 19.375 11.2878 19.375 11.254C19.375 11.2202 19.3609 11.1925 19.3438 11.1925C19.3266 11.1925 19.3125 11.1648 19.3125 11.131C19.3125 11.0972 19.2984 11.0695 19.2812 11.0695C19.2641 11.0695 19.25 11.028 19.25 10.9773C19.25 10.9265 19.2359 10.885 19.2188 10.885C19.2016 10.885 19.1875 10.8574 19.1875 10.8235C19.1875 10.7897 19.1734 10.762 19.1562 10.762C19.1391 10.762 19.125 10.7344 19.125 10.7005C19.125 10.6667 19.1109 10.639 19.0938 10.639C19.0766 10.639 19.0625 10.5975 19.0625 10.5468C19.0625 10.4961 19.0484 10.4545 19.0312 10.4545C19.0141 10.4545 19 10.4269 19 10.393C19 10.3592 18.9859 10.3315 18.9688 10.3315C18.9516 10.3315 18.9375 10.3039 18.9375 10.2701C18.9375 10.2362 18.9234 10.2086 18.9062 10.2086C18.8891 10.2086 18.875 10.167 18.875 10.1163C18.875 10.0656 18.8609 10.0241 18.8438 10.0241C18.8266 10.0241 18.8125 9.99639 18.8125 9.96257C18.8125 9.92874 18.7984 9.90107 18.7812 9.90107C18.7641 9.90107 18.75 9.85956 18.75 9.80882C18.75 9.75809 18.7359 9.71658 18.7188 9.71658C18.7016 9.71658 18.6875 9.6889 18.6875 9.65508C18.6875 9.62126 18.6734 9.59358 18.6562 9.59358C18.6391 9.59358 18.625 9.56591 18.625 9.53209C18.625 9.49826 18.6109 9.47059 18.5938 9.47059C18.5766 9.47059 18.5625 9.42908 18.5625 9.37834C18.5625 9.32761 18.5484 9.2861 18.5312 9.2861C18.5141 9.2861 18.5 9.25842 18.5 9.2246C18.5 9.19077 18.4859 9.1631 18.4688 9.1631C18.4516 9.1631 18.4375 9.12159 18.4375 9.07086C18.4375 9.02012 18.4234 8.97861 18.4062 8.97861C18.3891 8.97861 18.375 8.95094 18.375 8.91711C18.375 8.88329 18.3609 8.85561 18.3438 8.85561C18.3266 8.85561 18.3125 8.82794 18.3125 8.79412C18.3125 8.76029 18.2984 8.73262 18.2812 8.73262C18.2641 8.73262 18.25 8.69111 18.25 8.64037C18.25 8.58964 18.2359 8.54813 18.2188 8.54813C18.2016 8.54813 18.1875 8.52045 18.1875 8.48663C18.1875 8.45281 18.1734 8.42513 18.1562 8.42513C18.1391 8.42513 18.125 8.38362 18.125 8.33289C18.125 8.28215 18.1109 8.24064 18.0938 8.24064C18.0766 8.24064 18.0625 8.21297 18.0625 8.17914C18.0625 8.14532 18.0484 8.11765 18.0312 8.11765C18.0141 8.11765 18 8.08997 18 8.05615C18 8.02233 17.9859 7.99465 17.9688 7.99465C17.9516 7.99465 17.9375 7.95314 17.9375 7.90241C17.9375 7.85167 17.9234 7.81016 17.9062 7.81016C17.8891 7.81016 17.875 7.78249 17.875 7.74866C17.875 7.71484 17.8609 7.68717 17.8438 7.68717C17.8266 7.68717 17.8125 7.64566 17.8125 7.59492C17.8125 7.54418 17.7984 7.50267 17.7812 7.50267C17.7641 7.50267 17.75 7.475 17.75 7.44118C17.75 7.40735 17.7359 7.37968 17.7188 7.37968C17.7016 7.37968 17.6875 7.35201 17.6875 7.31818C17.6875 7.28436 17.6734 7.25668 17.6562 7.25668C17.6391 7.25668 17.625 7.21517 17.625 7.16444C17.625 7.1137 17.6109 7.07219 17.5938 7.07219C17.5766 7.07219 17.5625 7.04452 17.5625 7.01069C17.5625 6.97687 17.5484 6.9492 17.5312 6.9492C17.5141 6.9492 17.5 6.92746 17.5 6.90089C17.5 6.83875 17.4247 6.76471 17.3616 6.76471C17.3346 6.76471 17.3125 6.75087 17.3125 6.73396C17.3125 6.71686 17.2292 6.70321 17.125 6.70321C17.0208 6.70321 16.9375 6.71686 16.9375 6.73396ZM6.5 19.6109C6.5 19.641 6.47188 19.6855 6.4375 19.7099C6.40312 19.7343 6.375 19.7733 6.375 19.7966C6.375 19.8199 6.33281 19.8777 6.28125 19.9251C6.22969 19.9725 6.1875 20.0304 6.1875 20.0537C6.1875 20.077 6.15938 20.116 6.125 20.1404C6.09063 20.1648 6.0625 20.2063 6.0625 20.2326C6.0625 20.259 6.03438 20.3005 6 20.3249C5.96563 20.3492 5.9375 20.3908 5.9375 20.4171C5.9375 20.4435 5.90937 20.485 5.875 20.5094C5.84062 20.5337 5.8125 20.5728 5.8125 20.5961C5.8125 20.6193 5.77031 20.6772 5.71875 20.7246C5.66719 20.772 5.625 20.8299 5.625 20.8531C5.625 20.8764 5.59688 20.9155 5.5625 20.9398C5.52813 20.9642 5.5 21.0057 5.5 21.0321C5.5 21.0584 5.47188 21.0999 5.4375 21.1243C5.40312 21.1487 5.375 21.1902 5.375 21.2166C5.375 21.2429 5.34688 21.2844 5.3125 21.3088C5.27813 21.3332 5.25 21.3747 5.25 21.4011C5.25 21.4274 5.22188 21.4689 5.1875 21.4933C5.15313 21.5177 5.125 21.5567 5.125 21.58C5.125 21.6033 5.08281 21.6612 5.03125 21.7086C4.97969 21.7559 4.9375 21.8106 4.9375 21.8299C4.9375 21.8817 4.79187 22.016 4.73578 22.016C4.70922 22.016 4.6875 22.0299 4.6875 22.0468C4.6875 22.0637 4.65938 22.0775 4.625 22.0775C4.59062 22.0775 4.5625 22.0914 4.5625 22.1083C4.5625 22.1254 4.47916 22.139 4.375 22.139C4.27084 22.139 4.1875 22.1254 4.1875 22.1083C4.1875 22.0914 4.16603 22.0775 4.13981 22.0775C4.07778 22.0775 3.8125 21.8165 3.8125 21.7555C3.8125 21.7297 3.79844 21.7086 3.78125 21.7086C3.76341 21.7086 3.75 21.6163 3.75 21.4933C3.75 21.3703 3.76341 21.2781 3.78125 21.2781C3.79844 21.2781 3.8125 21.2534 3.8125 21.2234C3.8125 21.1933 3.84062 21.1487 3.875 21.1243C3.90937 21.0999 3.9375 21.0584 3.9375 21.0321C3.9375 21.0057 3.96563 20.9642 4 20.9398C4.03438 20.9155 4.0625 20.8739 4.0625 20.8476C4.0625 20.8212 4.09063 20.7797 4.125 20.7553C4.15938 20.731 4.1875 20.6919 4.1875 20.6686C4.1875 20.6454 4.22969 20.5875 4.28125 20.5401C4.33281 20.4927 4.375 20.4349 4.375 20.4116C4.375 20.3883 4.40312 20.3492 4.4375 20.3249C4.47188 20.3005 4.5 20.259 4.5 20.2326C4.5 20.2063 4.52813 20.1648 4.5625 20.1404C4.59688 20.116 4.625 20.0745 4.625 20.0481C4.625 20.0218 4.65312 19.9803 4.6875 19.9559C4.72187 19.9315 4.75 19.8925 4.75 19.8692C4.75 19.8459 4.79219 19.788 4.84375 19.7406C4.89531 19.6933 4.9375 19.6323 4.9375 19.6053C4.9375 19.5616 5.02369 19.5561 5.71875 19.5561C6.44684 19.5561 6.5 19.5599 6.5 19.6109ZM27.0625 19.6053C27.0625 19.6323 27.1047 19.6933 27.1562 19.7406C27.2078 19.788 27.25 19.8459 27.25 19.8692C27.25 19.8925 27.2781 19.9315 27.3125 19.9559C27.3469 19.9803 27.375 20.0218 27.375 20.0481C27.375 20.0745 27.4031 20.116 27.4375 20.1404C27.4719 20.1648 27.5 20.2063 27.5 20.2326C27.5 20.259 27.5281 20.3005 27.5625 20.3249C27.5969 20.3492 27.625 20.3883 27.625 20.4116C27.625 20.4349 27.6672 20.4927 27.7188 20.5401C27.7703 20.5875 27.8125 20.6454 27.8125 20.6686C27.8125 20.6919 27.8406 20.731 27.875 20.7553C27.9094 20.7797 27.9375 20.8212 27.9375 20.8476C27.9375 20.8739 27.9656 20.9155 28 20.9398C28.0344 20.9642 28.0625 21.0057 28.0625 21.0321C28.0625 21.0584 28.0906 21.0999 28.125 21.1243C28.1594 21.1487 28.1875 21.1933 28.1875 21.2234C28.1875 21.2534 28.2016 21.2781 28.2188 21.2781C28.2366 21.2781 28.25 21.3703 28.25 21.4933C28.25 21.6163 28.2366 21.7086 28.2188 21.7086C28.2016 21.7086 28.1875 21.7297 28.1875 21.7555C28.1875 21.7813 28.1246 21.8643 28.0477 21.94C27.9708 22.0156 27.8864 22.0775 27.8602 22.0775C27.834 22.0775 27.8125 22.0914 27.8125 22.1083C27.8125 22.1254 27.7292 22.139 27.625 22.139C27.5208 22.139 27.4375 22.1254 27.4375 22.1083C27.4375 22.0914 27.4094 22.0775 27.375 22.0775C27.3406 22.0775 27.3125 22.0637 27.3125 22.0468C27.3125 22.0299 27.2908 22.016 27.2642 22.016C27.2081 22.016 27.0625 21.8817 27.0625 21.8299C27.0625 21.8106 27.0203 21.7559 26.9688 21.7086C26.9172 21.6612 26.875 21.6033 26.875 21.58C26.875 21.5567 26.8469 21.5177 26.8125 21.4933C26.7781 21.4689 26.75 21.4274 26.75 21.4011C26.75 21.3747 26.7219 21.3332 26.6875 21.3088C26.6531 21.2844 26.625 21.2429 26.625 21.2166C26.625 21.1902 26.5969 21.1487 26.5625 21.1243C26.5281 21.0999 26.5 21.0584 26.5 21.0321C26.5 21.0057 26.4719 20.9642 26.4375 20.9398C26.4031 20.9155 26.375 20.8764 26.375 20.8531C26.375 20.8299 26.3328 20.772 26.2812 20.7246C26.2297 20.6772 26.1875 20.6193 26.1875 20.5961C26.1875 20.5728 26.1594 20.5337 26.125 20.5094C26.0906 20.485 26.0625 20.4435 26.0625 20.4171C26.0625 20.3908 26.0344 20.3492 26 20.3249C25.9656 20.3005 25.9375 20.259 25.9375 20.2326C25.9375 20.2063 25.9094 20.1648 25.875 20.1404C25.8406 20.116 25.8125 20.077 25.8125 20.0537C25.8125 20.0304 25.7703 19.9725 25.7188 19.9251C25.6672 19.8777 25.625 19.8199 25.625 19.7966C25.625 19.7733 25.5969 19.7343 25.5625 19.7099C25.5281 19.6855 25.5 19.641 25.5 19.6109C25.5 19.5599 25.5532 19.5561 26.2812 19.5561C26.9763 19.5561 27.0625 19.5616 27.0625 19.6053Z" fill="#0089B1"/>
</svg>
