<svg width="19" height="16" viewBox="0 0 19 16" fill="none" xmlns="http://www.w3.org/2000/svg">
<path fill-rule="evenodd" clip-rule="evenodd" d="M9.05469 0.0204082C9.05469 0.0332653 8.93098 0.0408163 8.7207 0.0408163C8.51042 0.0408163 8.38672 0.0483674 8.38672 0.0612245C8.38672 0.0734694 8.3125 0.0816327 8.20117 0.0816327C8.08984 0.0816327 8.01562 0.0897959 8.01562 0.102041C8.01562 0.113939 7.95378 0.122449 7.86719 0.122449C7.78059 0.122449 7.71875 0.130959 7.71875 0.142857C7.71875 0.15451 7.66309 0.163265 7.58887 0.163265C7.51465 0.163265 7.45898 0.17202 7.45898 0.183673C7.45898 0.19502 7.4095 0.204082 7.34766 0.204082C7.28581 0.204082 7.23633 0.213143 7.23633 0.22449C7.23633 0.235837 7.18684 0.244898 7.125 0.244898C7.06316 0.244898 7.01367 0.253959 7.01367 0.265306C7.01367 0.276531 6.97192 0.285714 6.9209 0.285714C6.86987 0.285714 6.82812 0.294898 6.82812 0.306122C6.82812 0.317347 6.79473 0.326531 6.75391 0.326531C6.71309 0.326531 6.67969 0.335714 6.67969 0.346939C6.67969 0.358163 6.63794 0.367347 6.58691 0.367347C6.53589 0.367347 6.49414 0.376531 6.49414 0.387755C6.49414 0.39898 6.46074 0.408163 6.41992 0.408163C6.3791 0.408163 6.3457 0.417347 6.3457 0.428571C6.3457 0.439796 6.3123 0.44898 6.27148 0.44898C6.23066 0.44898 6.19727 0.458163 6.19727 0.469388C6.19727 0.480612 6.16387 0.489796 6.12305 0.489796C6.08223 0.489796 6.04883 0.49898 6.04883 0.510204C6.04883 0.521429 6.01543 0.530612 5.97461 0.530612C5.93379 0.530612 5.90039 0.539796 5.90039 0.55102C5.90039 0.562245 5.87534 0.571429 5.84473 0.571429C5.81411 0.571429 5.78906 0.580612 5.78906 0.591837C5.78906 0.603061 5.75566 0.612245 5.71484 0.612245C5.67402 0.612245 5.64062 0.621429 5.64062 0.632653C5.64062 0.643878 5.61558 0.653061 5.58496 0.653061C5.55435 0.653061 5.5293 0.662245 5.5293 0.673469C5.5293 0.684694 5.50425 0.693878 5.47363 0.693878C5.44302 0.693878 5.41797 0.703061 5.41797 0.714286C5.41797 0.72551 5.39292 0.734694 5.3623 0.734694C5.33169 0.734694 5.30664 0.743878 5.30664 0.755102C5.30664 0.766327 5.28159 0.77551 5.25098 0.77551C5.22036 0.77551 5.19531 0.784694 5.19531 0.795918C5.19531 0.807143 5.17026 0.816327 5.13965 0.816327C5.10903 0.816327 5.08398 0.82551 5.08398 0.836735C5.08398 0.847959 5.05894 0.857143 5.02832 0.857143C4.9977 0.857143 4.97266 0.866327 4.97266 0.877551C4.97266 0.888776 4.95596 0.897959 4.93555 0.897959C4.91514 0.897959 4.89844 0.907143 4.89844 0.918367C4.89844 0.929592 4.87339 0.938776 4.84277 0.938776C4.81216 0.938776 4.78711 0.947959 4.78711 0.959184C4.78711 0.970408 4.76206 0.979592 4.73145 0.979592C4.70083 0.979592 4.67578 0.988776 4.67578 1C4.67578 1.01122 4.65908 1.02041 4.63867 1.02041C4.61826 1.02041 4.60156 1.02959 4.60156 1.04082C4.60156 1.05204 4.57651 1.06122 4.5459 1.06122C4.51528 1.06122 4.49023 1.07041 4.49023 1.08163C4.49023 1.09286 4.47354 1.10204 4.45312 1.10204C4.43271 1.10204 4.41602 1.11122 4.41602 1.12245C4.41602 1.13367 4.39097 1.14286 4.36035 1.14286C4.32974 1.14286 4.30469 1.15204 4.30469 1.16327C4.30469 1.17449 4.28799 1.18367 4.26758 1.18367C4.24717 1.18367 4.23047 1.19286 4.23047 1.20408C4.23047 1.21531 4.21377 1.22449 4.19336 1.22449C4.17295 1.22449 4.15625 1.23367 4.15625 1.2449C4.15625 1.25612 4.1312 1.26531 4.10059 1.26531C4.06997 1.26531 4.04492 1.27449 4.04492 1.28571C4.04492 1.29694 4.02822 1.30612 4.00781 1.30612C3.9874 1.30612 3.9707 1.31531 3.9707 1.32653C3.9707 1.33776 3.954 1.34694 3.93359 1.34694C3.91318 1.34694 3.89648 1.35612 3.89648 1.36735C3.89648 1.37857 3.87979 1.38776 3.85938 1.38776C3.83896 1.38776 3.82227 1.39694 3.82227 1.40816C3.82227 1.41939 3.80557 1.42857 3.78516 1.42857C3.76475 1.42857 3.74805 1.43776 3.74805 1.44898C3.74805 1.4602 3.73135 1.46939 3.71094 1.46939C3.69053 1.46939 3.67383 1.47857 3.67383 1.4898C3.67383 1.50102 3.65713 1.5102 3.63672 1.5102C3.61631 1.5102 3.59961 1.51939 3.59961 1.53061C3.59961 1.54184 3.58291 1.55102 3.5625 1.55102C3.54209 1.55102 3.52539 1.5602 3.52539 1.57143C3.52539 1.58265 3.50869 1.59184 3.48828 1.59184C3.46787 1.59184 3.45117 1.60102 3.45117 1.61224C3.45117 1.62347 3.43447 1.63265 3.41406 1.63265C3.39365 1.63265 3.37695 1.64184 3.37695 1.65306C3.37695 1.66429 3.36025 1.67347 3.33984 1.67347C3.31943 1.67347 3.30273 1.68265 3.30273 1.69388C3.30273 1.7051 3.28604 1.71429 3.26562 1.71429C3.24521 1.71429 3.22852 1.72347 3.22852 1.73469C3.22852 1.74592 3.21182 1.7551 3.19141 1.7551C3.171 1.7551 3.1543 1.76429 3.1543 1.77551C3.1543 1.78673 3.13943 1.79592 3.12129 1.79592C3.10312 1.79592 3.07624 1.81429 3.06152 1.83673C3.04681 1.85918 3.01992 1.87755 3.00176 1.87755C2.98361 1.87755 2.96875 1.88673 2.96875 1.89796C2.96875 1.90918 2.95205 1.91837 2.93164 1.91837C2.91123 1.91837 2.89453 1.92755 2.89453 1.93878C2.89453 1.95 2.87783 1.95918 2.85742 1.95918C2.83701 1.95918 2.82031 1.96837 2.82031 1.97959C2.82031 1.99082 2.80545 2 2.7873 2C2.76914 2 2.74225 2.01837 2.72754 2.04082C2.71283 2.06327 2.68778 2.08163 2.67188 2.08163C2.65597 2.08163 2.63092 2.1 2.61621 2.12245C2.6015 2.1449 2.57461 2.16327 2.55645 2.16327C2.5383 2.16327 2.52344 2.17245 2.52344 2.18367C2.52344 2.1949 2.50858 2.20408 2.49043 2.20408C2.47226 2.20408 2.44538 2.22245 2.43066 2.2449C2.41595 2.26735 2.3909 2.28571 2.375 2.28571C2.3591 2.28571 2.33405 2.30408 2.31934 2.32653C2.30462 2.34898 2.27774 2.36735 2.25957 2.36735C2.24142 2.36735 2.22656 2.37653 2.22656 2.38776C2.22656 2.39898 2.21322 2.40816 2.19689 2.40816C2.18058 2.40816 2.14383 2.43571 2.11523 2.46939C2.08664 2.50306 2.05172 2.53061 2.03768 2.53061C2.02361 2.53061 2.00007 2.54898 1.98535 2.57143C1.97064 2.59388 1.94559 2.61225 1.92969 2.61225C1.91379 2.61225 1.88874 2.63061 1.87402 2.65306C1.85931 2.67551 1.83426 2.69388 1.81836 2.69388C1.80246 2.69388 1.77741 2.71224 1.7627 2.73469C1.74798 2.75714 1.72462 2.77551 1.71076 2.77551C1.6969 2.77551 1.65348 2.81225 1.61426 2.85714C1.57503 2.90204 1.53312 2.93878 1.52111 2.93878C1.50909 2.93878 1.47586 2.96633 1.44727 3C1.41867 3.03367 1.38527 3.06122 1.37305 3.06122C1.36082 3.06122 1.32742 3.08878 1.29883 3.12245C1.27024 3.15612 1.23712 3.18367 1.22524 3.18367C1.21337 3.18367 1.16299 3.22959 1.11328 3.28571C1.06357 3.34184 1.01357 3.38776 1.00214 3.38776C0.99069 3.38776 0.932169 3.44286 0.87207 3.5102C0.811972 3.57755 0.753747 3.63265 0.74267 3.63265C0.731593 3.63265 0.622844 3.74286 0.500977 3.87755C0.379109 4.01225 0.270602 4.12245 0.259821 4.12245C0.231674 4.12245 0.0742188 4.29996 0.0742188 4.33169C0.0742188 4.34635 0.0575195 4.37157 0.0371094 4.38776C0.00736621 4.41133 0 4.44059 0 4.53512C0 4.60014 0.00833105 4.65306 0.0185547 4.65306C0.0287598 4.65306 0.0371094 4.66725 0.0371094 4.68459C0.0371094 4.72543 0.119752 4.81633 0.15688 4.81633C0.172651 4.81633 0.185547 4.82551 0.185547 4.83673C0.185547 4.84808 0.235032 4.85714 0.296875 4.85714C0.358718 4.85714 0.408203 4.84808 0.408203 4.83673C0.408203 4.82551 0.421266 4.81633 0.437241 4.81633C0.453217 4.81633 0.506933 4.77041 0.556641 4.71429C0.606349 4.65816 0.656149 4.61225 0.667301 4.61225C0.678471 4.61225 0.787313 4.50204 0.90918 4.36735C1.03105 4.23265 1.1398 4.12245 1.15087 4.12245C1.16195 4.12245 1.22017 4.06735 1.28027 4C1.34037 3.93265 1.399 3.87755 1.41058 3.87755C1.42216 3.87755 1.46371 3.84082 1.50293 3.79592C1.54215 3.75102 1.5839 3.71429 1.5957 3.71429C1.6075 3.71429 1.64925 3.67755 1.68848 3.63265C1.7277 3.58776 1.76962 3.55102 1.78162 3.55102C1.79364 3.55102 1.82688 3.52347 1.85547 3.4898C1.88406 3.45612 1.91746 3.42857 1.92969 3.42857C1.94192 3.42857 1.97531 3.40102 2.00391 3.36735C2.0325 3.33367 2.06742 3.30612 2.08146 3.30612C2.09553 3.30612 2.11908 3.28776 2.13379 3.26531C2.1485 3.24286 2.17355 3.22449 2.18945 3.22449C2.20535 3.22449 2.2304 3.20612 2.24512 3.18367C2.25983 3.16122 2.28338 3.14286 2.29744 3.14286C2.31149 3.14286 2.34641 3.11531 2.375 3.08163C2.40359 3.04796 2.43851 3.02041 2.45256 3.02041C2.46662 3.02041 2.49017 3.00204 2.50488 2.97959C2.5196 2.95714 2.54648 2.93878 2.56465 2.93878C2.58279 2.93878 2.59766 2.92959 2.59766 2.91837C2.59766 2.90714 2.61252 2.89796 2.63067 2.89796C2.64883 2.89796 2.67572 2.87959 2.69043 2.85714C2.70514 2.83469 2.73019 2.81633 2.74609 2.81633C2.762 2.81633 2.78704 2.79796 2.80176 2.77551C2.81647 2.75306 2.84336 2.73469 2.86152 2.73469C2.87967 2.73469 2.89453 2.72551 2.89453 2.71429C2.89453 2.70306 2.90939 2.69388 2.92754 2.69388C2.94571 2.69388 2.97259 2.67551 2.9873 2.65306C3.00202 2.63061 3.0289 2.61225 3.04707 2.61225C3.06522 2.61225 3.08008 2.60306 3.08008 2.59184C3.08008 2.58061 3.09494 2.57143 3.11309 2.57143C3.13125 2.57143 3.15814 2.55306 3.17285 2.53061C3.18757 2.50816 3.21445 2.4898 3.23262 2.4898C3.25076 2.4898 3.26562 2.48061 3.26562 2.46939C3.26562 2.45816 3.28232 2.44898 3.30273 2.44898C3.32314 2.44898 3.33984 2.4398 3.33984 2.42857C3.33984 2.41735 3.35654 2.40816 3.37695 2.40816C3.39736 2.40816 3.41406 2.39898 3.41406 2.38776C3.41406 2.37653 3.42893 2.36735 3.44707 2.36735C3.46524 2.36735 3.49212 2.34898 3.50684 2.32653C3.52155 2.30408 3.54844 2.28571 3.5666 2.28571C3.58475 2.28571 3.59961 2.27653 3.59961 2.26531C3.59961 2.25408 3.61631 2.2449 3.63672 2.2449C3.65713 2.2449 3.67383 2.23571 3.67383 2.22449C3.67383 2.21327 3.69053 2.20408 3.71094 2.20408C3.73135 2.20408 3.74805 2.1949 3.74805 2.18367C3.74805 2.17245 3.76475 2.16327 3.78516 2.16327C3.80557 2.16327 3.82227 2.15408 3.82227 2.14286C3.82227 2.13163 3.83896 2.12245 3.85938 2.12245C3.87979 2.12245 3.89648 2.11327 3.89648 2.10204C3.89648 2.09082 3.91318 2.08163 3.93359 2.08163C3.954 2.08163 3.9707 2.07245 3.9707 2.06122C3.9707 2.05 3.9874 2.04082 4.00781 2.04082C4.02822 2.04082 4.04492 2.03163 4.04492 2.02041C4.04492 2.00918 4.06162 2 4.08203 2C4.10244 2 4.11914 1.99082 4.11914 1.97959C4.11914 1.96837 4.14419 1.95918 4.1748 1.95918C4.20542 1.95918 4.23047 1.95 4.23047 1.93878C4.23047 1.92755 4.24717 1.91837 4.26758 1.91837C4.28799 1.91837 4.30469 1.90918 4.30469 1.89796C4.30469 1.88673 4.32139 1.87755 4.3418 1.87755C4.36221 1.87755 4.37891 1.86837 4.37891 1.85714C4.37891 1.84592 4.40396 1.83673 4.43457 1.83673C4.46519 1.83673 4.49023 1.82755 4.49023 1.81633C4.49023 1.8051 4.50693 1.79592 4.52734 1.79592C4.54775 1.79592 4.56445 1.78673 4.56445 1.77551C4.56445 1.76429 4.58115 1.7551 4.60156 1.7551C4.62197 1.7551 4.63867 1.74592 4.63867 1.73469C4.63867 1.72347 4.66372 1.71429 4.69434 1.71429C4.72495 1.71429 4.75 1.7051 4.75 1.69388C4.75 1.68265 4.7667 1.67347 4.78711 1.67347C4.80752 1.67347 4.82422 1.66429 4.82422 1.65306C4.82422 1.64184 4.84927 1.63265 4.87988 1.63265C4.9105 1.63265 4.93555 1.62347 4.93555 1.61224C4.93555 1.60102 4.95225 1.59184 4.97266 1.59184C4.99307 1.59184 5.00977 1.58265 5.00977 1.57143C5.00977 1.5602 5.03481 1.55102 5.06543 1.55102C5.09604 1.55102 5.12109 1.54184 5.12109 1.53061C5.12109 1.51939 5.14614 1.5102 5.17676 1.5102C5.20737 1.5102 5.23242 1.50102 5.23242 1.4898C5.23242 1.47857 5.25747 1.46939 5.28809 1.46939C5.3187 1.46939 5.34375 1.4602 5.34375 1.44898C5.34375 1.43776 5.3688 1.42857 5.39941 1.42857C5.43003 1.42857 5.45508 1.41939 5.45508 1.40816C5.45508 1.39694 5.48013 1.38776 5.51074 1.38776C5.54136 1.38776 5.56641 1.37857 5.56641 1.36735C5.56641 1.35612 5.59146 1.34694 5.62207 1.34694C5.65269 1.34694 5.67773 1.33776 5.67773 1.32653C5.67773 1.31531 5.70278 1.30612 5.7334 1.30612C5.76401 1.30612 5.78906 1.29694 5.78906 1.28571C5.78906 1.27449 5.81411 1.26531 5.84473 1.26531C5.87534 1.26531 5.90039 1.25612 5.90039 1.2449C5.90039 1.23367 5.93379 1.22449 5.97461 1.22449C6.01543 1.22449 6.04883 1.21531 6.04883 1.20408C6.04883 1.19286 6.07388 1.18367 6.10449 1.18367C6.13511 1.18367 6.16016 1.17449 6.16016 1.16327C6.16016 1.15204 6.19355 1.14286 6.23438 1.14286C6.2752 1.14286 6.30859 1.13367 6.30859 1.12245C6.30859 1.11122 6.34199 1.10204 6.38281 1.10204C6.42363 1.10204 6.45703 1.09286 6.45703 1.08163C6.45703 1.07041 6.49043 1.06122 6.53125 1.06122C6.57207 1.06122 6.60547 1.05204 6.60547 1.04082C6.60547 1.02959 6.64722 1.02041 6.69824 1.02041C6.74927 1.02041 6.79102 1.01122 6.79102 1C6.79102 0.988776 6.82441 0.979592 6.86523 0.979592C6.90605 0.979592 6.93945 0.970408 6.93945 0.959184C6.93945 0.947959 6.9812 0.938776 7.03223 0.938776C7.08325 0.938776 7.125 0.929592 7.125 0.918367C7.125 0.90702 7.17449 0.897959 7.23633 0.897959C7.29817 0.897959 7.34766 0.888898 7.34766 0.877551C7.34766 0.866204 7.39714 0.857143 7.45898 0.857143C7.52083 0.857143 7.57031 0.848082 7.57031 0.836735C7.57031 0.824837 7.63216 0.816327 7.71875 0.816327C7.80534 0.816327 7.86719 0.807816 7.86719 0.795918C7.86719 0.78402 7.92903 0.77551 8.01562 0.77551C8.10222 0.77551 8.16406 0.767 8.16406 0.755102C8.16406 0.742633 8.25066 0.734694 8.38672 0.734694C8.52278 0.734694 8.60938 0.726755 8.60938 0.714286C8.60938 0.700959 8.91863 0.693878 9.5 0.693878C10.0814 0.693878 10.3906 0.700959 10.3906 0.714286C10.3906 0.726755 10.4772 0.734694 10.6133 0.734694C10.7493 0.734694 10.8359 0.742633 10.8359 0.755102C10.8359 0.767 10.8978 0.77551 10.9844 0.77551C11.071 0.77551 11.1328 0.78402 11.1328 0.795918C11.1328 0.807816 11.1947 0.816327 11.2812 0.816327C11.3678 0.816327 11.4297 0.824837 11.4297 0.836735C11.4297 0.848082 11.4792 0.857143 11.541 0.857143C11.6029 0.857143 11.6523 0.866204 11.6523 0.877551C11.6523 0.888898 11.7018 0.897959 11.7637 0.897959C11.8255 0.897959 11.875 0.90702 11.875 0.918367C11.875 0.929592 11.9084 0.938776 11.9492 0.938776C11.99 0.938776 12.0234 0.947959 12.0234 0.959184C12.0234 0.970408 12.0652 0.979592 12.1162 0.979592C12.1672 0.979592 12.209 0.988776 12.209 1C12.209 1.01122 12.2507 1.02041 12.3018 1.02041C12.3528 1.02041 12.3945 1.02959 12.3945 1.04082C12.3945 1.05204 12.4279 1.06122 12.4688 1.06122C12.5096 1.06122 12.543 1.07041 12.543 1.08163C12.543 1.09286 12.5764 1.10204 12.6172 1.10204C12.658 1.10204 12.6914 1.11122 12.6914 1.12245C12.6914 1.13367 12.7165 1.14286 12.7471 1.14286C12.7777 1.14286 12.8027 1.15204 12.8027 1.16327C12.8027 1.17449 12.8361 1.18367 12.877 1.18367C12.9178 1.18367 12.9512 1.19286 12.9512 1.20408C12.9512 1.21531 12.9846 1.22449 13.0254 1.22449C13.0662 1.22449 13.0996 1.23367 13.0996 1.2449C13.0996 1.25612 13.1247 1.26531 13.1553 1.26531C13.1859 1.26531 13.2109 1.27449 13.2109 1.28571C13.2109 1.29694 13.236 1.30612 13.2666 1.30612C13.2972 1.30612 13.3223 1.31531 13.3223 1.32653C13.3223 1.33776 13.3473 1.34694 13.3779 1.34694C13.4085 1.34694 13.4336 1.35612 13.4336 1.36735C13.4336 1.37857 13.4586 1.38776 13.4893 1.38776C13.5199 1.38776 13.5449 1.39694 13.5449 1.40816C13.5449 1.41939 13.57 1.42857 13.6006 1.42857C13.6312 1.42857 13.6562 1.43776 13.6562 1.44898C13.6562 1.4602 13.6813 1.46939 13.7119 1.46939C13.7425 1.46939 13.7676 1.47857 13.7676 1.4898C13.7676 1.50102 13.7926 1.5102 13.8232 1.5102C13.8539 1.5102 13.8789 1.51939 13.8789 1.53061C13.8789 1.54184 13.8956 1.55102 13.916 1.55102C13.9364 1.55102 13.9531 1.5602 13.9531 1.57143C13.9531 1.58265 13.9782 1.59184 14.0088 1.59184C14.0394 1.59184 14.0645 1.60102 14.0645 1.61224C14.0645 1.62347 14.0895 1.63265 14.1201 1.63265C14.1507 1.63265 14.1758 1.64184 14.1758 1.65306C14.1758 1.66429 14.1925 1.67347 14.2129 1.67347C14.2333 1.67347 14.25 1.68265 14.25 1.69388C14.25 1.7051 14.275 1.71429 14.3057 1.71429C14.3363 1.71429 14.3613 1.72347 14.3613 1.73469C14.3613 1.74592 14.378 1.7551 14.3984 1.7551C14.4188 1.7551 14.4355 1.76429 14.4355 1.77551C14.4355 1.78673 14.4522 1.79592 14.4727 1.79592C14.4931 1.79592 14.5098 1.8051 14.5098 1.81633C14.5098 1.82755 14.5348 1.83673 14.5654 1.83673C14.596 1.83673 14.6211 1.84592 14.6211 1.85714C14.6211 1.86837 14.6378 1.87755 14.6582 1.87755C14.6786 1.87755 14.6953 1.88673 14.6953 1.89796C14.6953 1.90918 14.712 1.91837 14.7324 1.91837C14.7528 1.91837 14.7695 1.92755 14.7695 1.93878C14.7695 1.95 14.7862 1.95918 14.8066 1.95918C14.8271 1.95918 14.8438 1.96837 14.8438 1.97959C14.8438 1.99082 14.8604 2 14.8809 2C14.9013 2 14.918 2.00918 14.918 2.02041C14.918 2.03163 14.9347 2.04082 14.9551 2.04082C14.9755 2.04082 14.9922 2.05 14.9922 2.06122C14.9922 2.07245 15.0172 2.08163 15.0479 2.08163C15.0785 2.08163 15.1035 2.09082 15.1035 2.10204C15.1035 2.11327 15.1202 2.12245 15.1406 2.12245C15.161 2.12245 15.1777 2.13163 15.1777 2.14286C15.1777 2.15408 15.1944 2.16327 15.2148 2.16327C15.2353 2.16327 15.252 2.17245 15.252 2.18367C15.252 2.1949 15.2687 2.20408 15.2891 2.20408C15.3095 2.20408 15.3262 2.21327 15.3262 2.22449C15.3262 2.23571 15.341 2.2449 15.3592 2.2449C15.3773 2.2449 15.4042 2.26327 15.4189 2.28571C15.4337 2.30816 15.4605 2.32653 15.4787 2.32653C15.4969 2.32653 15.5117 2.33571 15.5117 2.34694C15.5117 2.35816 15.5284 2.36735 15.5488 2.36735C15.5692 2.36735 15.5859 2.37653 15.5859 2.38776C15.5859 2.39898 15.6026 2.40816 15.623 2.40816C15.6435 2.40816 15.6602 2.41735 15.6602 2.42857C15.6602 2.4398 15.675 2.44898 15.6932 2.44898C15.7113 2.44898 15.7382 2.46735 15.7529 2.4898C15.7676 2.51225 15.7945 2.53061 15.8127 2.53061C15.8308 2.53061 15.8457 2.5398 15.8457 2.55102C15.8457 2.56225 15.8624 2.57143 15.8828 2.57143C15.9032 2.57143 15.9199 2.58061 15.9199 2.59184C15.9199 2.60306 15.9348 2.61225 15.9529 2.61225C15.9711 2.61225 15.998 2.63061 16.0127 2.65306C16.0274 2.67551 16.0525 2.69388 16.0684 2.69388C16.0843 2.69388 16.1093 2.71224 16.124 2.73469C16.1387 2.75714 16.1656 2.77551 16.1838 2.77551C16.2019 2.77551 16.2168 2.78469 16.2168 2.79592C16.2168 2.80714 16.2317 2.81633 16.2498 2.81633C16.268 2.81633 16.2949 2.83469 16.3096 2.85714C16.3243 2.87959 16.3493 2.89796 16.3652 2.89796C16.3811 2.89796 16.4062 2.91633 16.4209 2.93878C16.4356 2.96122 16.4607 2.97959 16.4766 2.97959C16.4925 2.97959 16.5175 2.99796 16.5322 3.02041C16.5469 3.04286 16.572 3.06122 16.5879 3.06122C16.6038 3.06122 16.6288 3.07959 16.6436 3.10204C16.6583 3.12449 16.6833 3.14286 16.6992 3.14286C16.7151 3.14286 16.7402 3.16122 16.7549 3.18367C16.7696 3.20612 16.7931 3.22449 16.8072 3.22449C16.8213 3.22449 16.8562 3.25204 16.8848 3.28571C16.9134 3.31939 16.9468 3.34694 16.959 3.34694C16.9712 3.34694 17.0046 3.37449 17.0332 3.40816C17.0618 3.44184 17.0952 3.46939 17.1074 3.46939C17.1196 3.46939 17.153 3.49694 17.1816 3.53061C17.2102 3.56429 17.2436 3.59184 17.2559 3.59184C17.2681 3.59184 17.3015 3.61939 17.3301 3.65306C17.3587 3.68674 17.3918 3.71429 17.4037 3.71429C17.4155 3.71429 17.4659 3.7602 17.5156 3.81633C17.5653 3.87245 17.6153 3.91837 17.6268 3.91837C17.6382 3.91837 17.6967 3.97347 17.7568 4.04082C17.8169 4.10816 17.8751 4.16327 17.8862 4.16327C17.8972 4.16327 18.0227 4.29184 18.165 4.44898C18.3074 4.60612 18.4332 4.73469 18.4447 4.73469C18.4562 4.73469 18.489 4.76225 18.5176 4.79592C18.5652 4.85198 18.5799 4.85714 18.692 4.85714C18.7613 4.85714 18.8145 4.84829 18.8145 4.83673C18.8145 4.82551 18.8273 4.81633 18.8431 4.81633C18.8802 4.81633 18.9629 4.72543 18.9629 4.68459C18.9629 4.66725 18.9712 4.65306 18.9814 4.65306C18.9916 4.65306 19 4.60714 19 4.55102C19 4.4949 18.9916 4.44898 18.9814 4.44898C18.9712 4.44898 18.9629 4.43061 18.9629 4.40816C18.9629 4.38571 18.9545 4.36735 18.9443 4.36735C18.9341 4.36735 18.9258 4.35327 18.9258 4.33606C18.9258 4.30078 18.8077 4.16327 18.7775 4.16327C18.7666 4.16327 18.6497 4.04388 18.5176 3.89796C18.3855 3.75204 18.2683 3.63265 18.2573 3.63265C18.2462 3.63265 18.188 3.57755 18.1279 3.5102C18.0678 3.44286 18.0092 3.38776 17.9976 3.38776C17.986 3.38776 17.9445 3.35102 17.9053 3.30612C17.866 3.26122 17.8243 3.22449 17.8125 3.22449C17.8007 3.22449 17.759 3.18776 17.7197 3.14286C17.6805 3.09796 17.6386 3.06122 17.6266 3.06122C17.6146 3.06122 17.5813 3.03367 17.5527 3C17.5241 2.96633 17.4907 2.93878 17.4785 2.93878C17.4663 2.93878 17.4329 2.91122 17.4043 2.87755C17.3757 2.84388 17.3408 2.81633 17.3267 2.81633C17.3127 2.81633 17.2891 2.79796 17.2744 2.77551C17.2597 2.75306 17.2362 2.73469 17.2221 2.73469C17.208 2.73469 17.1731 2.70714 17.1445 2.67347C17.1159 2.6398 17.081 2.61225 17.067 2.61225C17.0529 2.61225 17.0294 2.59388 17.0146 2.57143C16.9999 2.54898 16.9749 2.53061 16.959 2.53061C16.9431 2.53061 16.918 2.51225 16.9033 2.4898C16.8886 2.46735 16.8636 2.44898 16.8477 2.44898C16.8318 2.44898 16.8067 2.43061 16.792 2.40816C16.7773 2.38571 16.7522 2.36735 16.7363 2.36735C16.7204 2.36735 16.6954 2.34898 16.6807 2.32653C16.666 2.30408 16.6391 2.28571 16.6209 2.28571C16.6028 2.28571 16.5879 2.27653 16.5879 2.26531C16.5879 2.25408 16.573 2.2449 16.5549 2.2449C16.5367 2.2449 16.5098 2.22653 16.4951 2.20408C16.4804 2.18163 16.4554 2.16327 16.4395 2.16327C16.4236 2.16327 16.3985 2.1449 16.3838 2.12245C16.3691 2.1 16.3422 2.08163 16.324 2.08163C16.3059 2.08163 16.291 2.07245 16.291 2.06122C16.291 2.05 16.2762 2.04082 16.258 2.04082C16.2398 2.04082 16.213 2.02245 16.1982 2C16.1835 1.97755 16.1566 1.95918 16.1385 1.95918C16.1203 1.95918 16.1055 1.95 16.1055 1.93878C16.1055 1.92755 16.0888 1.91837 16.0684 1.91837C16.0479 1.91837 16.0312 1.90918 16.0312 1.89796C16.0312 1.88673 16.0146 1.87755 15.9941 1.87755C15.9737 1.87755 15.957 1.86837 15.957 1.85714C15.957 1.84592 15.9422 1.83673 15.924 1.83673C15.9059 1.83673 15.879 1.81837 15.8643 1.79592C15.8495 1.77347 15.8227 1.7551 15.8045 1.7551C15.7863 1.7551 15.7715 1.74592 15.7715 1.73469C15.7715 1.72347 15.7548 1.71429 15.7344 1.71429C15.714 1.71429 15.6973 1.7051 15.6973 1.69388C15.6973 1.68265 15.6806 1.67347 15.6602 1.67347C15.6397 1.67347 15.623 1.66429 15.623 1.65306C15.623 1.64184 15.6063 1.63265 15.5859 1.63265C15.5655 1.63265 15.5488 1.62347 15.5488 1.61224C15.5488 1.60102 15.5321 1.59184 15.5117 1.59184C15.4913 1.59184 15.4746 1.58265 15.4746 1.57143C15.4746 1.5602 15.4579 1.55102 15.4375 1.55102C15.4171 1.55102 15.4004 1.54184 15.4004 1.53061C15.4004 1.51939 15.3837 1.5102 15.3633 1.5102C15.3429 1.5102 15.3262 1.50102 15.3262 1.4898C15.3262 1.47857 15.3095 1.46939 15.2891 1.46939C15.2687 1.46939 15.252 1.4602 15.252 1.44898C15.252 1.43776 15.2353 1.42857 15.2148 1.42857C15.1944 1.42857 15.1777 1.41939 15.1777 1.40816C15.1777 1.39694 15.161 1.38776 15.1406 1.38776C15.1202 1.38776 15.1035 1.37857 15.1035 1.36735C15.1035 1.35612 15.0868 1.34694 15.0664 1.34694C15.046 1.34694 15.0293 1.33776 15.0293 1.32653C15.0293 1.31531 15.0042 1.30612 14.9736 1.30612C14.943 1.30612 14.918 1.29694 14.918 1.28571C14.918 1.27449 14.9013 1.26531 14.8809 1.26531C14.8604 1.26531 14.8438 1.25612 14.8438 1.2449C14.8438 1.23367 14.8271 1.22449 14.8066 1.22449C14.7862 1.22449 14.7695 1.21531 14.7695 1.20408C14.7695 1.19286 14.7528 1.18367 14.7324 1.18367C14.712 1.18367 14.6953 1.17449 14.6953 1.16327C14.6953 1.15204 14.6703 1.14286 14.6396 1.14286C14.609 1.14286 14.584 1.13367 14.584 1.12245C14.584 1.11122 14.5673 1.10204 14.5469 1.10204C14.5265 1.10204 14.5098 1.09286 14.5098 1.08163C14.5098 1.07041 14.4847 1.06122 14.4541 1.06122C14.4235 1.06122 14.3984 1.05204 14.3984 1.04082C14.3984 1.02959 14.3817 1.02041 14.3613 1.02041C14.3409 1.02041 14.3242 1.01122 14.3242 1C14.3242 0.988776 14.2992 0.979592 14.2686 0.979592C14.2379 0.979592 14.2129 0.970408 14.2129 0.959184C14.2129 0.947959 14.1878 0.938776 14.1572 0.938776C14.1266 0.938776 14.1016 0.929592 14.1016 0.918367C14.1016 0.907143 14.0849 0.897959 14.0645 0.897959C14.044 0.897959 14.0273 0.888776 14.0273 0.877551C14.0273 0.866327 14.0023 0.857143 13.9717 0.857143C13.9411 0.857143 13.916 0.847959 13.916 0.836735C13.916 0.82551 13.891 0.816327 13.8604 0.816327C13.8297 0.816327 13.8047 0.807143 13.8047 0.795918C13.8047 0.784694 13.7796 0.77551 13.749 0.77551C13.7184 0.77551 13.6934 0.766327 13.6934 0.755102C13.6934 0.743878 13.6683 0.734694 13.6377 0.734694C13.6071 0.734694 13.582 0.72551 13.582 0.714286C13.582 0.703061 13.557 0.693878 13.5264 0.693878C13.4958 0.693878 13.4707 0.684694 13.4707 0.673469C13.4707 0.662245 13.4457 0.653061 13.415 0.653061C13.3844 0.653061 13.3594 0.643878 13.3594 0.632653C13.3594 0.621429 13.326 0.612245 13.2852 0.612245C13.2443 0.612245 13.2109 0.603061 13.2109 0.591837C13.2109 0.580612 13.1859 0.571429 13.1553 0.571429C13.1247 0.571429 13.0996 0.562245 13.0996 0.55102C13.0996 0.539796 13.0662 0.530612 13.0254 0.530612C12.9846 0.530612 12.9512 0.521429 12.9512 0.510204C12.9512 0.49898 12.9178 0.489796 12.877 0.489796C12.8361 0.489796 12.8027 0.480612 12.8027 0.469388C12.8027 0.458163 12.7693 0.44898 12.7285 0.44898C12.6877 0.44898 12.6543 0.439796 12.6543 0.428571C12.6543 0.417347 12.6209 0.408163 12.5801 0.408163C12.5393 0.408163 12.5059 0.39898 12.5059 0.387755C12.5059 0.376531 12.4641 0.367347 12.4131 0.367347C12.3621 0.367347 12.3203 0.358163 12.3203 0.346939C12.3203 0.335714 12.2869 0.326531 12.2461 0.326531C12.2053 0.326531 12.1719 0.317347 12.1719 0.306122C12.1719 0.294898 12.1301 0.285714 12.0791 0.285714C12.0281 0.285714 11.9863 0.276531 11.9863 0.265306C11.9863 0.253959 11.9368 0.244898 11.875 0.244898C11.8132 0.244898 11.7637 0.235837 11.7637 0.22449C11.7637 0.213143 11.7142 0.204082 11.6523 0.204082C11.5905 0.204082 11.541 0.19502 11.541 0.183673C11.541 0.17202 11.4854 0.163265 11.4111 0.163265C11.3369 0.163265 11.2812 0.15451 11.2812 0.142857C11.2812 0.130959 11.2194 0.122449 11.1328 0.122449C11.0462 0.122449 10.9844 0.113939 10.9844 0.102041C10.9844 0.0896735 10.904 0.0816327 10.7803 0.0816327C10.6566 0.0816327 10.5762 0.0735918 10.5762 0.0612245C10.5762 0.0483674 10.4525 0.0408163 10.2422 0.0408163C10.0319 0.0408163 9.9082 0.0332653 9.9082 0.0204082C9.9082 0.00738776 9.75359 0 9.48145 0C9.2093 0 9.05469 0.00738776 9.05469 0.0204082ZM8.60938 2.71429C8.60938 2.72653 8.53516 2.73469 8.42383 2.73469C8.3125 2.73469 8.23828 2.74286 8.23828 2.7551C8.23828 2.767 8.17644 2.77551 8.08984 2.77551C8.00325 2.77551 7.94141 2.78402 7.94141 2.79592C7.94141 2.80727 7.89192 2.81633 7.83008 2.81633C7.76824 2.81633 7.71875 2.82539 7.71875 2.83674C7.71875 2.84808 7.66926 2.85714 7.60742 2.85714C7.54558 2.85714 7.49609 2.8662 7.49609 2.87755C7.49609 2.88878 7.45435 2.89796 7.40332 2.89796C7.3523 2.89796 7.31055 2.90714 7.31055 2.91837C7.31055 2.92959 7.2688 2.93878 7.21777 2.93878C7.16675 2.93878 7.125 2.94796 7.125 2.95918C7.125 2.97041 7.0916 2.97959 7.05078 2.97959C7.00996 2.97959 6.97656 2.98878 6.97656 3C6.97656 3.01122 6.93481 3.02041 6.88379 3.02041C6.83276 3.02041 6.79102 3.02959 6.79102 3.04082C6.79102 3.05204 6.76597 3.06122 6.73535 3.06122C6.70474 3.06122 6.67969 3.07041 6.67969 3.08163C6.67969 3.09286 6.64629 3.10204 6.60547 3.10204C6.56465 3.10204 6.53125 3.11122 6.53125 3.12245C6.53125 3.13367 6.5062 3.14286 6.47559 3.14286C6.44497 3.14286 6.41992 3.15204 6.41992 3.16327C6.41992 3.17449 6.38652 3.18367 6.3457 3.18367C6.30488 3.18367 6.27148 3.19286 6.27148 3.20408C6.27148 3.21531 6.24644 3.22449 6.21582 3.22449C6.1852 3.22449 6.16016 3.23367 6.16016 3.2449C6.16016 3.25612 6.13511 3.26531 6.10449 3.26531C6.07388 3.26531 6.04883 3.27449 6.04883 3.28571C6.04883 3.29694 6.02378 3.30612 5.99316 3.30612C5.96255 3.30612 5.9375 3.31531 5.9375 3.32653C5.9375 3.33776 5.91245 3.34694 5.88184 3.34694C5.85122 3.34694 5.82617 3.35612 5.82617 3.36735C5.82617 3.37857 5.80947 3.38776 5.78906 3.38776C5.76865 3.38776 5.75195 3.39694 5.75195 3.40816C5.75195 3.41939 5.7269 3.42857 5.69629 3.42857C5.66567 3.42857 5.64062 3.43776 5.64062 3.44898C5.64062 3.4602 5.61558 3.46939 5.58496 3.46939C5.55435 3.46939 5.5293 3.47857 5.5293 3.4898C5.5293 3.50102 5.5126 3.5102 5.49219 3.5102C5.47178 3.5102 5.45508 3.51939 5.45508 3.53061C5.45508 3.54184 5.43003 3.55102 5.39941 3.55102C5.3688 3.55102 5.34375 3.5602 5.34375 3.57143C5.34375 3.58265 5.32705 3.59184 5.30664 3.59184C5.28623 3.59184 5.26953 3.60102 5.26953 3.61225C5.26953 3.62347 5.25283 3.63265 5.23242 3.63265C5.21201 3.63265 5.19531 3.64184 5.19531 3.65306C5.19531 3.66429 5.17026 3.67347 5.13965 3.67347C5.10903 3.67347 5.08398 3.68265 5.08398 3.69388C5.08398 3.7051 5.06729 3.71429 5.04688 3.71429C5.02646 3.71429 5.00977 3.72347 5.00977 3.73469C5.00977 3.74592 4.99307 3.7551 4.97266 3.7551C4.95225 3.7551 4.93555 3.76429 4.93555 3.77551C4.93555 3.78674 4.91885 3.79592 4.89844 3.79592C4.87803 3.79592 4.86133 3.8051 4.86133 3.81633C4.86133 3.82755 4.84463 3.83674 4.82422 3.83674C4.80381 3.83674 4.78711 3.84592 4.78711 3.85714C4.78711 3.86837 4.77041 3.87755 4.75 3.87755C4.72959 3.87755 4.71289 3.88673 4.71289 3.89796C4.71289 3.90918 4.69619 3.91837 4.67578 3.91837C4.65537 3.91837 4.63867 3.92755 4.63867 3.93878C4.63867 3.95 4.62197 3.95918 4.60156 3.95918C4.58115 3.95918 4.56445 3.96837 4.56445 3.97959C4.56445 3.99082 4.54775 4 4.52734 4C4.50693 4 4.49023 4.00918 4.49023 4.02041C4.49023 4.03163 4.47354 4.04082 4.45312 4.04082C4.43271 4.04082 4.41602 4.05 4.41602 4.06122C4.41602 4.07245 4.39932 4.08163 4.37891 4.08163C4.3585 4.08163 4.3418 4.09082 4.3418 4.10204C4.3418 4.11327 4.3251 4.12245 4.30469 4.12245C4.28428 4.12245 4.26758 4.13163 4.26758 4.14286C4.26758 4.15408 4.25272 4.16327 4.23457 4.16327C4.2164 4.16327 4.18952 4.18163 4.1748 4.20408C4.16009 4.22653 4.13321 4.2449 4.11504 4.2449C4.09689 4.2449 4.08203 4.25408 4.08203 4.26531C4.08203 4.27653 4.06533 4.28571 4.04492 4.28571C4.02451 4.28571 4.00781 4.2949 4.00781 4.30612C4.00781 4.31735 3.99295 4.32653 3.9748 4.32653C3.95664 4.32653 3.92975 4.3449 3.91504 4.36735C3.90033 4.3898 3.87344 4.40816 3.85527 4.40816C3.83713 4.40816 3.82227 4.41735 3.82227 4.42857C3.82227 4.4398 3.8074 4.44898 3.78926 4.44898C3.77109 4.44898 3.74421 4.46735 3.72949 4.4898C3.71478 4.51225 3.68973 4.53061 3.67383 4.53061C3.65793 4.53061 3.63288 4.54898 3.61816 4.57143C3.60345 4.59388 3.5784 4.61225 3.5625 4.61225C3.5466 4.61225 3.52155 4.63061 3.50684 4.65306C3.49212 4.67551 3.46707 4.69388 3.45117 4.69388C3.43527 4.69388 3.41022 4.71225 3.39551 4.73469C3.38079 4.75714 3.35575 4.77551 3.33984 4.77551C3.32394 4.77551 3.29889 4.79388 3.28418 4.81633C3.26947 4.83878 3.24592 4.85714 3.23186 4.85714C3.21781 4.85714 3.18289 4.88469 3.1543 4.91837C3.1257 4.95204 3.09078 4.97959 3.07674 4.97959C3.06267 4.97959 3.03913 4.99796 3.02441 5.02041C3.0097 5.04286 2.98634 5.06122 2.97248 5.06122C2.95862 5.06122 2.9152 5.09796 2.87598 5.14286C2.83675 5.18776 2.795 5.22449 2.7832 5.22449C2.7714 5.22449 2.72965 5.26123 2.69043 5.30612C2.65121 5.35102 2.60966 5.38776 2.59808 5.38776C2.5865 5.38776 2.52787 5.44286 2.46777 5.5102C2.40767 5.57755 2.34962 5.63265 2.33876 5.63265C2.30785 5.63265 1.74414 6.26129 1.74414 6.29576C1.74414 6.31267 1.73579 6.32653 1.72559 6.32653C1.71538 6.32653 1.70703 6.36327 1.70703 6.40816C1.70703 6.45306 1.71538 6.4898 1.72559 6.4898C1.73579 6.4898 1.74414 6.51316 1.74414 6.54174C1.74414 6.59902 1.81882 6.69388 1.86391 6.69388C1.87968 6.69388 1.89258 6.70306 1.89258 6.71429C1.89258 6.72588 1.94687 6.73469 2.01836 6.73469C2.12286 6.73469 2.14867 6.7278 2.1709 6.69388C2.18561 6.67143 2.20855 6.65306 2.22189 6.65306C2.23523 6.65306 2.35422 6.53367 2.48633 6.38776C2.61844 6.24184 2.73557 6.12245 2.74661 6.12245C2.75767 6.12245 2.81588 6.06735 2.87598 6C2.93608 5.93265 2.99489 5.87755 3.00666 5.87755C3.01844 5.87755 3.05149 5.85 3.08008 5.81633C3.10867 5.78265 3.1419 5.7551 3.15393 5.7551C3.16593 5.7551 3.20785 5.71837 3.24707 5.67347C3.2863 5.62857 3.32821 5.59184 3.34021 5.59184C3.35224 5.59184 3.38547 5.56429 3.41406 5.53061C3.44266 5.49694 3.47758 5.46939 3.49162 5.46939C3.50569 5.46939 3.52923 5.45102 3.54395 5.42857C3.55866 5.40612 3.58371 5.38776 3.59961 5.38776C3.61551 5.38776 3.64056 5.36939 3.65527 5.34694C3.66999 5.32449 3.69504 5.30612 3.71094 5.30612C3.72684 5.30612 3.75189 5.28776 3.7666 5.26531C3.78132 5.24286 3.80636 5.22449 3.82227 5.22449C3.83817 5.22449 3.86322 5.20612 3.87793 5.18367C3.89264 5.16122 3.91769 5.14286 3.93359 5.14286C3.9495 5.14286 3.97454 5.12449 3.98926 5.10204C4.00397 5.07959 4.02902 5.06122 4.04492 5.06122C4.06082 5.06122 4.08587 5.04286 4.10059 5.02041C4.1153 4.99796 4.14219 4.97959 4.16035 4.97959C4.1785 4.97959 4.19336 4.97041 4.19336 4.95918C4.19336 4.94796 4.20822 4.93878 4.22637 4.93878C4.24453 4.93878 4.27142 4.92041 4.28613 4.89796C4.30085 4.87551 4.32773 4.85714 4.3459 4.85714C4.36404 4.85714 4.37891 4.84796 4.37891 4.83673C4.37891 4.82551 4.39561 4.81633 4.41602 4.81633C4.43643 4.81633 4.45312 4.80714 4.45312 4.79592C4.45312 4.78469 4.46982 4.77551 4.49023 4.77551C4.51064 4.77551 4.52734 4.76633 4.52734 4.7551C4.52734 4.74388 4.54221 4.73469 4.56035 4.73469C4.57852 4.73469 4.6054 4.71633 4.62012 4.69388C4.63483 4.67143 4.66172 4.65306 4.67988 4.65306C4.69803 4.65306 4.71289 4.64388 4.71289 4.63265C4.71289 4.62143 4.72959 4.61225 4.75 4.61225C4.77041 4.61225 4.78711 4.60306 4.78711 4.59184C4.78711 4.58061 4.80381 4.57143 4.82422 4.57143C4.84463 4.57143 4.86133 4.56225 4.86133 4.55102C4.86133 4.5398 4.87803 4.53061 4.89844 4.53061C4.91885 4.53061 4.93555 4.52143 4.93555 4.5102C4.93555 4.49898 4.95225 4.4898 4.97266 4.4898C4.99307 4.4898 5.00977 4.48061 5.00977 4.46939C5.00977 4.45816 5.02646 4.44898 5.04688 4.44898C5.06729 4.44898 5.08398 4.4398 5.08398 4.42857C5.08398 4.41735 5.10068 4.40816 5.12109 4.40816C5.1415 4.40816 5.1582 4.39898 5.1582 4.38776C5.1582 4.37653 5.18325 4.36735 5.21387 4.36735C5.24448 4.36735 5.26953 4.35816 5.26953 4.34694C5.26953 4.33571 5.28623 4.32653 5.30664 4.32653C5.32705 4.32653 5.34375 4.31735 5.34375 4.30612C5.34375 4.2949 5.36045 4.28571 5.38086 4.28571C5.40127 4.28571 5.41797 4.27653 5.41797 4.26531C5.41797 4.25408 5.43467 4.2449 5.45508 4.2449C5.47549 4.2449 5.49219 4.23571 5.49219 4.22449C5.49219 4.21327 5.51724 4.20408 5.54785 4.20408C5.57847 4.20408 5.60352 4.1949 5.60352 4.18367C5.60352 4.17245 5.62021 4.16327 5.64062 4.16327C5.66104 4.16327 5.67773 4.15408 5.67773 4.14286C5.67773 4.13163 5.70278 4.12245 5.7334 4.12245C5.76401 4.12245 5.78906 4.11327 5.78906 4.10204C5.78906 4.09082 5.81411 4.08163 5.84473 4.08163C5.87534 4.08163 5.90039 4.07245 5.90039 4.06122C5.90039 4.05 5.91709 4.04082 5.9375 4.04082C5.95791 4.04082 5.97461 4.03163 5.97461 4.02041C5.97461 4.00918 5.99966 4 6.03027 4C6.06089 4 6.08594 3.99082 6.08594 3.97959C6.08594 3.96837 6.11099 3.95918 6.1416 3.95918C6.17222 3.95918 6.19727 3.95 6.19727 3.93878C6.19727 3.92755 6.22231 3.91837 6.25293 3.91837C6.28355 3.91837 6.30859 3.90918 6.30859 3.89796C6.30859 3.88673 6.33364 3.87755 6.36426 3.87755C6.39487 3.87755 6.41992 3.86837 6.41992 3.85714C6.41992 3.84592 6.44497 3.83674 6.47559 3.83674C6.5062 3.83674 6.53125 3.82755 6.53125 3.81633C6.53125 3.8051 6.56465 3.79592 6.60547 3.79592C6.64629 3.79592 6.67969 3.78674 6.67969 3.77551C6.67969 3.76429 6.71309 3.7551 6.75391 3.7551C6.79473 3.7551 6.82812 3.74592 6.82812 3.73469C6.82812 3.72347 6.85317 3.71429 6.88379 3.71429C6.9144 3.71429 6.93945 3.7051 6.93945 3.69388C6.93945 3.68265 6.97285 3.67347 7.01367 3.67347C7.05449 3.67347 7.08789 3.66429 7.08789 3.65306C7.08789 3.64184 7.12964 3.63265 7.18066 3.63265C7.23169 3.63265 7.27344 3.62347 7.27344 3.61225C7.27344 3.60102 7.30684 3.59184 7.34766 3.59184C7.38848 3.59184 7.42188 3.58265 7.42188 3.57143C7.42188 3.5602 7.46362 3.55102 7.51465 3.55102C7.56567 3.55102 7.60742 3.54184 7.60742 3.53061C7.60742 3.51927 7.65691 3.5102 7.71875 3.5102C7.78059 3.5102 7.83008 3.50114 7.83008 3.4898C7.83008 3.47814 7.88574 3.46939 7.95996 3.46939C8.03418 3.46939 8.08984 3.46063 8.08984 3.44898C8.08984 3.43708 8.15169 3.42857 8.23828 3.42857C8.32488 3.42857 8.38672 3.42006 8.38672 3.40816C8.38672 3.39569 8.47331 3.38776 8.60938 3.38776C8.74544 3.38776 8.83203 3.37982 8.83203 3.36735C8.83203 3.35412 9.06706 3.34694 9.5 3.34694C9.93294 3.34694 10.168 3.35412 10.168 3.36735C10.168 3.37982 10.2546 3.38776 10.3906 3.38776C10.5267 3.38776 10.6133 3.39569 10.6133 3.40816C10.6133 3.42006 10.6751 3.42857 10.7617 3.42857C10.8483 3.42857 10.9102 3.43708 10.9102 3.44898C10.9102 3.46063 10.9658 3.46939 11.04 3.46939C11.1143 3.46939 11.1699 3.47814 11.1699 3.4898C11.1699 3.50114 11.2194 3.5102 11.2812 3.5102C11.3431 3.5102 11.3926 3.51927 11.3926 3.53061C11.3926 3.54184 11.4343 3.55102 11.4854 3.55102C11.5364 3.55102 11.5781 3.5602 11.5781 3.57143C11.5781 3.58265 11.6115 3.59184 11.6523 3.59184C11.6932 3.59184 11.7266 3.60102 11.7266 3.61225C11.7266 3.62347 11.7683 3.63265 11.8193 3.63265C11.8704 3.63265 11.9121 3.64184 11.9121 3.65306C11.9121 3.66429 11.9455 3.67347 11.9863 3.67347C12.0271 3.67347 12.0605 3.68265 12.0605 3.69388C12.0605 3.7051 12.0856 3.71429 12.1162 3.71429C12.1468 3.71429 12.1719 3.72347 12.1719 3.73469C12.1719 3.74592 12.2053 3.7551 12.2461 3.7551C12.2869 3.7551 12.3203 3.76429 12.3203 3.77551C12.3203 3.78674 12.3537 3.79592 12.3945 3.79592C12.4354 3.79592 12.4688 3.8051 12.4688 3.81633C12.4688 3.82755 12.4938 3.83674 12.5244 3.83674C12.555 3.83674 12.5801 3.84592 12.5801 3.85714C12.5801 3.86837 12.6051 3.87755 12.6357 3.87755C12.6664 3.87755 12.6914 3.88673 12.6914 3.89796C12.6914 3.90918 12.7165 3.91837 12.7471 3.91837C12.7777 3.91837 12.8027 3.92755 12.8027 3.93878C12.8027 3.95 12.8278 3.95918 12.8584 3.95918C12.889 3.95918 12.9141 3.96837 12.9141 3.97959C12.9141 3.99082 12.9391 4 12.9697 4C13.0003 4 13.0254 4.00918 13.0254 4.02041C13.0254 4.03163 13.0421 4.04082 13.0625 4.04082C13.0829 4.04082 13.0996 4.05 13.0996 4.06122C13.0996 4.07245 13.1247 4.08163 13.1553 4.08163C13.1859 4.08163 13.2109 4.09082 13.2109 4.10204C13.2109 4.11327 13.236 4.12245 13.2666 4.12245C13.2972 4.12245 13.3223 4.13163 13.3223 4.14286C13.3223 4.15408 13.339 4.16327 13.3594 4.16327C13.3798 4.16327 13.3965 4.17245 13.3965 4.18367C13.3965 4.1949 13.4132 4.20408 13.4336 4.20408C13.454 4.20408 13.4707 4.21327 13.4707 4.22449C13.4707 4.23571 13.4958 4.2449 13.5264 4.2449C13.557 4.2449 13.582 4.25408 13.582 4.26531C13.582 4.27653 13.5987 4.28571 13.6191 4.28571C13.6396 4.28571 13.6562 4.2949 13.6562 4.30612C13.6562 4.31735 13.6729 4.32653 13.6934 4.32653C13.7138 4.32653 13.7305 4.33571 13.7305 4.34694C13.7305 4.35816 13.7555 4.36735 13.7861 4.36735C13.8167 4.36735 13.8418 4.37653 13.8418 4.38776C13.8418 4.39898 13.8585 4.40816 13.8789 4.40816C13.8993 4.40816 13.916 4.41735 13.916 4.42857C13.916 4.4398 13.9327 4.44898 13.9531 4.44898C13.9735 4.44898 13.9902 4.45816 13.9902 4.46939C13.9902 4.48061 14.0069 4.4898 14.0273 4.4898C14.0478 4.4898 14.0645 4.49898 14.0645 4.5102C14.0645 4.52143 14.0812 4.53061 14.1016 4.53061C14.122 4.53061 14.1387 4.5398 14.1387 4.55102C14.1387 4.56225 14.1554 4.57143 14.1758 4.57143C14.1962 4.57143 14.2129 4.58061 14.2129 4.59184C14.2129 4.60306 14.2296 4.61225 14.25 4.61225C14.2704 4.61225 14.2871 4.62143 14.2871 4.63265C14.2871 4.64388 14.302 4.65306 14.3201 4.65306C14.3383 4.65306 14.3652 4.67143 14.3799 4.69388C14.3946 4.71633 14.4215 4.73469 14.4396 4.73469C14.4578 4.73469 14.4727 4.74388 14.4727 4.7551C14.4727 4.76633 14.4894 4.77551 14.5098 4.77551C14.5302 4.77551 14.5469 4.78469 14.5469 4.79592C14.5469 4.80714 14.5636 4.81633 14.584 4.81633C14.6044 4.81633 14.6211 4.82551 14.6211 4.83673C14.6211 4.84796 14.636 4.85714 14.6541 4.85714C14.6723 4.85714 14.6992 4.87551 14.7139 4.89796C14.7286 4.92041 14.7536 4.93878 14.7695 4.93878C14.7854 4.93878 14.8105 4.95714 14.8252 4.97959C14.8399 5.00204 14.8668 5.02041 14.885 5.02041C14.9031 5.02041 14.918 5.02959 14.918 5.04082C14.918 5.05204 14.9328 5.06122 14.951 5.06122C14.9691 5.06122 14.996 5.07959 15.0107 5.10204C15.0255 5.12449 15.0505 5.14286 15.0664 5.14286C15.0823 5.14286 15.1074 5.16122 15.1221 5.18367C15.1368 5.20612 15.1618 5.22449 15.1777 5.22449C15.1936 5.22449 15.2187 5.24286 15.2334 5.26531C15.2481 5.28776 15.2732 5.30612 15.2891 5.30612C15.305 5.30612 15.33 5.32449 15.3447 5.34694C15.3594 5.36939 15.383 5.38776 15.3971 5.38776C15.4111 5.38776 15.446 5.41531 15.4746 5.44898C15.5032 5.48265 15.5366 5.5102 15.5488 5.5102C15.5611 5.5102 15.5945 5.53776 15.623 5.57143C15.6516 5.6051 15.685 5.63265 15.6973 5.63265C15.7095 5.63265 15.7429 5.6602 15.7715 5.69388C15.8001 5.72755 15.8333 5.7551 15.8453 5.7551C15.8573 5.7551 15.8993 5.79184 15.9385 5.83673C15.9777 5.88163 16.0192 5.91837 16.0308 5.91837C16.0424 5.91837 16.101 5.97347 16.1611 6.04082C16.2212 6.10816 16.2795 6.16327 16.2905 6.16327C16.3016 6.16327 16.4104 6.27347 16.5322 6.40816C16.6541 6.54286 16.7647 6.65306 16.7781 6.65306C16.7914 6.65306 16.8144 6.67143 16.8291 6.69388C16.8513 6.7278 16.8771 6.73469 16.9816 6.73469C17.0531 6.73469 17.1074 6.72588 17.1074 6.71429C17.1074 6.70306 17.1205 6.69388 17.1366 6.69388C17.1741 6.69388 17.2188 6.64474 17.2188 6.60349C17.2188 6.58586 17.2271 6.57143 17.2373 6.57143C17.2475 6.57143 17.2559 6.55306 17.2559 6.53061C17.2559 6.50816 17.2642 6.4898 17.2744 6.4898C17.2846 6.4898 17.293 6.46225 17.293 6.42857C17.293 6.3949 17.2846 6.36735 17.2744 6.36735C17.2642 6.36735 17.2559 6.34431 17.2559 6.31616C17.2559 6.27733 17.1865 6.18867 16.9684 5.94882C16.8103 5.77492 16.6721 5.63265 16.6612 5.63265C16.6504 5.63265 16.5923 5.57755 16.5322 5.5102C16.4721 5.44286 16.4135 5.38776 16.4019 5.38776C16.3903 5.38776 16.3488 5.35102 16.3096 5.30612C16.2703 5.26123 16.2284 5.22449 16.2164 5.22449C16.2044 5.22449 16.1712 5.19694 16.1426 5.16327C16.114 5.12959 16.0806 5.10204 16.0684 5.10204C16.0561 5.10204 16.0227 5.07449 15.9941 5.04082C15.9655 5.00714 15.9321 4.97959 15.9199 4.97959C15.9077 4.97959 15.8743 4.95204 15.8457 4.91837C15.8171 4.88469 15.7822 4.85714 15.7681 4.85714C15.7541 4.85714 15.7305 4.83878 15.7158 4.81633C15.7011 4.79388 15.6761 4.77551 15.6602 4.77551C15.6443 4.77551 15.6192 4.75714 15.6045 4.73469C15.5898 4.71225 15.5647 4.69388 15.5488 4.69388C15.5329 4.69388 15.5079 4.67551 15.4932 4.65306C15.4785 4.63061 15.4534 4.61225 15.4375 4.61225C15.4216 4.61225 15.3966 4.59388 15.3818 4.57143C15.3671 4.54898 15.3421 4.53061 15.3262 4.53061C15.3103 4.53061 15.2852 4.51225 15.2705 4.4898C15.2558 4.46735 15.2289 4.44898 15.2107 4.44898C15.1926 4.44898 15.1777 4.4398 15.1777 4.42857C15.1777 4.41735 15.1629 4.40816 15.1447 4.40816C15.1266 4.40816 15.0997 4.3898 15.085 4.36735C15.0702 4.3449 15.0434 4.32653 15.0252 4.32653C15.007 4.32653 14.9922 4.31735 14.9922 4.30612C14.9922 4.2949 14.9755 4.28571 14.9551 4.28571C14.9347 4.28571 14.918 4.27653 14.918 4.26531C14.918 4.25408 14.9031 4.2449 14.885 4.2449C14.8668 4.2449 14.8399 4.22653 14.8252 4.20408C14.8105 4.18163 14.7836 4.16327 14.7654 4.16327C14.7473 4.16327 14.7324 4.15408 14.7324 4.14286C14.7324 4.13163 14.7157 4.12245 14.6953 4.12245C14.6749 4.12245 14.6582 4.11327 14.6582 4.10204C14.6582 4.09082 14.6415 4.08163 14.6211 4.08163C14.6007 4.08163 14.584 4.07245 14.584 4.06122C14.584 4.05 14.5673 4.04082 14.5469 4.04082C14.5265 4.04082 14.5098 4.03163 14.5098 4.02041C14.5098 4.00918 14.4931 4 14.4727 4C14.4522 4 14.4355 3.99082 14.4355 3.97959C14.4355 3.96837 14.4188 3.95918 14.3984 3.95918C14.378 3.95918 14.3613 3.95 14.3613 3.93878C14.3613 3.92755 14.3446 3.91837 14.3242 3.91837C14.3038 3.91837 14.2871 3.90918 14.2871 3.89796C14.2871 3.88673 14.2704 3.87755 14.25 3.87755C14.2296 3.87755 14.2129 3.86837 14.2129 3.85714C14.2129 3.84592 14.1962 3.83674 14.1758 3.83674C14.1554 3.83674 14.1387 3.82755 14.1387 3.81633C14.1387 3.8051 14.122 3.79592 14.1016 3.79592C14.0812 3.79592 14.0645 3.78674 14.0645 3.77551C14.0645 3.76429 14.0478 3.7551 14.0273 3.7551C14.0069 3.7551 13.9902 3.74592 13.9902 3.73469C13.9902 3.72347 13.9735 3.71429 13.9531 3.71429C13.9327 3.71429 13.916 3.7051 13.916 3.69388C13.916 3.68265 13.891 3.67347 13.8604 3.67347C13.8297 3.67347 13.8047 3.66429 13.8047 3.65306C13.8047 3.64184 13.788 3.63265 13.7676 3.63265C13.7472 3.63265 13.7305 3.62347 13.7305 3.61225C13.7305 3.60102 13.7138 3.59184 13.6934 3.59184C13.6729 3.59184 13.6562 3.58265 13.6562 3.57143C13.6562 3.5602 13.6312 3.55102 13.6006 3.55102C13.57 3.55102 13.5449 3.54184 13.5449 3.53061C13.5449 3.51939 13.5282 3.5102 13.5078 3.5102C13.4874 3.5102 13.4707 3.50102 13.4707 3.4898C13.4707 3.47857 13.4457 3.46939 13.415 3.46939C13.3844 3.46939 13.3594 3.4602 13.3594 3.44898C13.3594 3.43776 13.3343 3.42857 13.3037 3.42857C13.2731 3.42857 13.248 3.41939 13.248 3.40816C13.248 3.39694 13.2313 3.38776 13.2109 3.38776C13.1905 3.38776 13.1738 3.37857 13.1738 3.36735C13.1738 3.35612 13.1488 3.34694 13.1182 3.34694C13.0875 3.34694 13.0625 3.33776 13.0625 3.32653C13.0625 3.31531 13.0375 3.30612 13.0068 3.30612C12.9762 3.30612 12.9512 3.29694 12.9512 3.28571C12.9512 3.27449 12.9261 3.26531 12.8955 3.26531C12.8649 3.26531 12.8398 3.25612 12.8398 3.2449C12.8398 3.23367 12.8148 3.22449 12.7842 3.22449C12.7536 3.22449 12.7285 3.21531 12.7285 3.20408C12.7285 3.19286 12.6951 3.18367 12.6543 3.18367C12.6135 3.18367 12.5801 3.17449 12.5801 3.16327C12.5801 3.15204 12.555 3.14286 12.5244 3.14286C12.4938 3.14286 12.4688 3.13367 12.4688 3.12245C12.4688 3.11122 12.4354 3.10204 12.3945 3.10204C12.3537 3.10204 12.3203 3.09286 12.3203 3.08163C12.3203 3.07041 12.2869 3.06122 12.2461 3.06122C12.2053 3.06122 12.1719 3.05204 12.1719 3.04082C12.1719 3.02959 12.1385 3.02041 12.0977 3.02041C12.0568 3.02041 12.0234 3.01122 12.0234 3C12.0234 2.98878 11.99 2.97959 11.9492 2.97959C11.9084 2.97959 11.875 2.97041 11.875 2.95918C11.875 2.94796 11.8333 2.93878 11.7822 2.93878C11.7312 2.93878 11.6895 2.92959 11.6895 2.91837C11.6895 2.90714 11.6477 2.89796 11.5967 2.89796C11.5457 2.89796 11.5039 2.88878 11.5039 2.87755C11.5039 2.8662 11.4544 2.85714 11.3926 2.85714C11.3307 2.85714 11.2812 2.84808 11.2812 2.83674C11.2812 2.82539 11.2318 2.81633 11.1699 2.81633C11.1081 2.81633 11.0586 2.80727 11.0586 2.79592C11.0586 2.78402 10.9968 2.77551 10.9102 2.77551C10.8236 2.77551 10.7617 2.767 10.7617 2.7551C10.7617 2.74273 10.6813 2.73469 10.5576 2.73469C10.4339 2.73469 10.3535 2.72665 10.3535 2.71429C10.3535 2.70098 10.0505 2.69388 9.48145 2.69388C8.91243 2.69388 8.60938 2.70098 8.60938 2.71429ZM8.83203 5.36735C8.83203 5.37959 8.75781 5.38776 8.64648 5.38776C8.53516 5.38776 8.46094 5.39592 8.46094 5.40816C8.46094 5.42006 8.39909 5.42857 8.3125 5.42857C8.22591 5.42857 8.16406 5.43708 8.16406 5.44898C8.16406 5.4602 8.12231 5.46939 8.07129 5.46939C8.02026 5.46939 7.97852 5.47857 7.97852 5.4898C7.97852 5.50102 7.93677 5.5102 7.88574 5.5102C7.83472 5.5102 7.79297 5.51939 7.79297 5.53061C7.79297 5.54184 7.75122 5.55102 7.7002 5.55102C7.64917 5.55102 7.60742 5.5602 7.60742 5.57143C7.60742 5.58265 7.57402 5.59184 7.5332 5.59184C7.49238 5.59184 7.45898 5.60102 7.45898 5.61225C7.45898 5.62347 7.42559 5.63265 7.38477 5.63265C7.34395 5.63265 7.31055 5.64184 7.31055 5.65306C7.31055 5.66429 7.27715 5.67347 7.23633 5.67347C7.19551 5.67347 7.16211 5.68265 7.16211 5.69388C7.16211 5.7051 7.13706 5.71429 7.10645 5.71429C7.07583 5.71429 7.05078 5.72347 7.05078 5.73469C7.05078 5.74592 7.02573 5.7551 6.99512 5.7551C6.9645 5.7551 6.93945 5.76429 6.93945 5.77551C6.93945 5.78674 6.9144 5.79592 6.88379 5.79592C6.85317 5.79592 6.82812 5.8051 6.82812 5.81633C6.82812 5.82755 6.80308 5.83673 6.77246 5.83673C6.74185 5.83673 6.7168 5.84592 6.7168 5.85714C6.7168 5.86837 6.69175 5.87755 6.66113 5.87755C6.63052 5.87755 6.60547 5.88673 6.60547 5.89796C6.60547 5.90918 6.58042 5.91837 6.54981 5.91837C6.51919 5.91837 6.49414 5.92755 6.49414 5.93878C6.49414 5.95 6.47744 5.95918 6.45703 5.95918C6.43662 5.95918 6.41992 5.96837 6.41992 5.97959C6.41992 5.99082 6.39487 6 6.36426 6C6.33364 6 6.30859 6.00918 6.30859 6.02041C6.30859 6.03163 6.29189 6.04082 6.27148 6.04082C6.25107 6.04082 6.23438 6.05 6.23438 6.06122C6.23438 6.07245 6.20933 6.08163 6.17871 6.08163C6.1481 6.08163 6.12305 6.09082 6.12305 6.10204C6.12305 6.11327 6.10635 6.12245 6.08594 6.12245C6.06553 6.12245 6.04883 6.13163 6.04883 6.14286C6.04883 6.15408 6.03213 6.16327 6.01172 6.16327C5.99131 6.16327 5.97461 6.17245 5.97461 6.18367C5.97461 6.1949 5.95791 6.20408 5.9375 6.20408C5.91709 6.20408 5.90039 6.21327 5.90039 6.22449C5.90039 6.23571 5.88369 6.2449 5.86328 6.2449C5.84287 6.2449 5.82617 6.25408 5.82617 6.26531C5.82617 6.27653 5.80947 6.28571 5.78906 6.28571C5.76865 6.28571 5.75195 6.2949 5.75195 6.30612C5.75195 6.31735 5.73525 6.32653 5.71484 6.32653C5.69443 6.32653 5.67773 6.33571 5.67773 6.34694C5.67773 6.35816 5.66104 6.36735 5.64062 6.36735C5.62021 6.36735 5.60352 6.37653 5.60352 6.38776C5.60352 6.39898 5.58682 6.40816 5.56641 6.40816C5.546 6.40816 5.5293 6.41735 5.5293 6.42857C5.5293 6.4398 5.5126 6.44898 5.49219 6.44898C5.47178 6.44898 5.45508 6.45816 5.45508 6.46939C5.45508 6.48061 5.43838 6.4898 5.41797 6.4898C5.39756 6.4898 5.38086 6.49898 5.38086 6.5102C5.38086 6.52143 5.366 6.53061 5.34785 6.53061C5.32969 6.53061 5.3028 6.54898 5.28809 6.57143C5.27337 6.59388 5.24649 6.61225 5.22832 6.61225C5.21018 6.61225 5.19531 6.62143 5.19531 6.63265C5.19531 6.64388 5.18045 6.65306 5.1623 6.65306C5.14414 6.65306 5.11725 6.67143 5.10254 6.69388C5.08783 6.71633 5.06094 6.73469 5.04277 6.73469C5.02463 6.73469 5.00977 6.74388 5.00977 6.7551C5.00977 6.76633 4.9949 6.77551 4.97676 6.77551C4.95859 6.77551 4.93171 6.79388 4.91699 6.81633C4.90228 6.83878 4.87723 6.85714 4.86133 6.85714C4.84543 6.85714 4.82038 6.87551 4.80566 6.89796C4.79095 6.92041 4.7659 6.93878 4.75 6.93878C4.7341 6.93878 4.70905 6.95714 4.69434 6.97959C4.67962 7.00204 4.65608 7.02041 4.64201 7.02041C4.62797 7.02041 4.59305 7.04796 4.56445 7.08163C4.53586 7.11531 4.50246 7.14286 4.49023 7.14286C4.47801 7.14286 4.44461 7.17041 4.41602 7.20408C4.38742 7.23776 4.35419 7.26531 4.34217 7.26531C4.33016 7.26531 4.28825 7.30204 4.24902 7.34694C4.2098 7.39184 4.16825 7.42857 4.15668 7.42857C4.1451 7.42857 4.08647 7.48367 4.02637 7.55102C3.96627 7.61837 3.90819 7.67347 3.89732 7.67347C3.88643 7.67347 3.78161 7.77898 3.66435 7.90794C3.5057 8.08245 3.45117 8.15553 3.45117 8.19365C3.45117 8.22184 3.44282 8.2449 3.43262 8.2449C3.42241 8.2449 3.41406 8.27245 3.41406 8.30612C3.41406 8.3398 3.42241 8.36735 3.43262 8.36735C3.44282 8.36735 3.45117 8.39061 3.45117 8.41904C3.45117 8.49898 3.56413 8.61225 3.64383 8.61225C3.67904 8.61225 3.71272 8.62374 3.71867 8.63776C3.72732 8.65816 3.73166 8.65816 3.74031 8.63776C3.74627 8.62374 3.77549 8.61225 3.80525 8.61225C3.83503 8.61225 3.85938 8.60306 3.85938 8.59184C3.85938 8.58061 3.8722 8.57143 3.88786 8.57143C3.90352 8.57143 3.99924 8.47959 4.10059 8.36735C4.20193 8.2551 4.29394 8.16327 4.30508 8.16327C4.31619 8.16327 4.37447 8.10816 4.43457 8.04082C4.49467 7.97347 4.55349 7.91837 4.56525 7.91837C4.57703 7.91837 4.61008 7.89082 4.63867 7.85714C4.66726 7.82347 4.70066 7.79592 4.71289 7.79592C4.72512 7.79592 4.75852 7.76837 4.78711 7.73469C4.8157 7.70102 4.8491 7.67347 4.86133 7.67347C4.87356 7.67347 4.90695 7.64592 4.93555 7.61225C4.96414 7.57857 4.99906 7.55102 5.01311 7.55102C5.02717 7.55102 5.05072 7.53265 5.06543 7.5102C5.08014 7.48776 5.10519 7.46939 5.12109 7.46939C5.137 7.46939 5.16204 7.45102 5.17676 7.42857C5.19147 7.40612 5.21652 7.38776 5.23242 7.38776C5.24832 7.38776 5.27337 7.36939 5.28809 7.34694C5.3028 7.32449 5.32969 7.30612 5.34785 7.30612C5.366 7.30612 5.38086 7.29694 5.38086 7.28571C5.38086 7.27449 5.39572 7.26531 5.41387 7.26531C5.43203 7.26531 5.45892 7.24694 5.47363 7.22449C5.48835 7.20204 5.51523 7.18367 5.5334 7.18367C5.55154 7.18367 5.56641 7.17449 5.56641 7.16327C5.56641 7.15204 5.58311 7.14286 5.60352 7.14286C5.62393 7.14286 5.64062 7.13367 5.64062 7.12245C5.64062 7.11122 5.65549 7.10204 5.67363 7.10204C5.6918 7.10204 5.71868 7.08367 5.7334 7.06122C5.74811 7.03878 5.775 7.02041 5.79316 7.02041C5.81131 7.02041 5.82617 7.01122 5.82617 7C5.82617 6.98878 5.84287 6.97959 5.86328 6.97959C5.88369 6.97959 5.90039 6.97041 5.90039 6.95918C5.90039 6.94796 5.91709 6.93878 5.9375 6.93878C5.95791 6.93878 5.97461 6.92959 5.97461 6.91837C5.97461 6.90714 5.99131 6.89796 6.01172 6.89796C6.03213 6.89796 6.04883 6.88878 6.04883 6.87755C6.04883 6.86633 6.06553 6.85714 6.08594 6.85714C6.10635 6.85714 6.12305 6.84796 6.12305 6.83674C6.12305 6.82551 6.13975 6.81633 6.16016 6.81633C6.18057 6.81633 6.19727 6.80714 6.19727 6.79592C6.19727 6.78469 6.22231 6.77551 6.25293 6.77551C6.28355 6.77551 6.30859 6.76633 6.30859 6.7551C6.30859 6.74388 6.32529 6.73469 6.3457 6.73469C6.36611 6.73469 6.38281 6.72551 6.38281 6.71429C6.38281 6.70306 6.39951 6.69388 6.41992 6.69388C6.44033 6.69388 6.45703 6.68469 6.45703 6.67347C6.45703 6.66225 6.48208 6.65306 6.5127 6.65306C6.54331 6.65306 6.56836 6.64388 6.56836 6.63265C6.56836 6.62143 6.58506 6.61225 6.60547 6.61225C6.62588 6.61225 6.64258 6.60306 6.64258 6.59184C6.64258 6.58061 6.66763 6.57143 6.69824 6.57143C6.72886 6.57143 6.75391 6.56225 6.75391 6.55102C6.75391 6.5398 6.77061 6.53061 6.79102 6.53061C6.81143 6.53061 6.82812 6.52143 6.82812 6.5102C6.82812 6.49898 6.85317 6.4898 6.88379 6.4898C6.9144 6.4898 6.93945 6.48061 6.93945 6.46939C6.93945 6.45816 6.9645 6.44898 6.99512 6.44898C7.02573 6.44898 7.05078 6.4398 7.05078 6.42857C7.05078 6.41735 7.07583 6.40816 7.10645 6.40816C7.13706 6.40816 7.16211 6.39898 7.16211 6.38776C7.16211 6.37653 7.19551 6.36735 7.23633 6.36735C7.27715 6.36735 7.31055 6.35816 7.31055 6.34694C7.31055 6.33571 7.34395 6.32653 7.38477 6.32653C7.42559 6.32653 7.45898 6.31735 7.45898 6.30612C7.45898 6.2949 7.49238 6.28571 7.5332 6.28571C7.57402 6.28571 7.60742 6.27653 7.60742 6.26531C7.60742 6.25408 7.64082 6.2449 7.68164 6.2449C7.72246 6.2449 7.75586 6.23571 7.75586 6.22449C7.75586 6.21327 7.78926 6.20408 7.83008 6.20408C7.8709 6.20408 7.9043 6.1949 7.9043 6.18367C7.9043 6.17233 7.95378 6.16327 8.01562 6.16327C8.07747 6.16327 8.12695 6.1542 8.12695 6.14286C8.12695 6.13151 8.17644 6.12245 8.23828 6.12245C8.30012 6.12245 8.34961 6.11339 8.34961 6.10204C8.34961 6.09039 8.40527 6.08163 8.47949 6.08163C8.55371 6.08163 8.60938 6.07288 8.60938 6.06122C8.60938 6.04853 8.71452 6.04082 8.8877 6.04082C9.06087 6.04082 9.16602 6.0331 9.16602 6.02041C9.16602 6.00755 9.28972 6 9.5 6C9.71028 6 9.83398 6.00755 9.83398 6.02041C9.83398 6.03304 9.93294 6.04082 10.0938 6.04082C10.2546 6.04082 10.3535 6.04859 10.3535 6.06122C10.3535 6.07288 10.4092 6.08163 10.4834 6.08163C10.5576 6.08163 10.6133 6.09039 10.6133 6.10204C10.6133 6.11369 10.6689 6.12245 10.7432 6.12245C10.8174 6.12245 10.873 6.1312 10.873 6.14286C10.873 6.1542 10.9225 6.16327 10.9844 6.16327C11.0462 6.16327 11.0957 6.17233 11.0957 6.18367C11.0957 6.1949 11.1291 6.20408 11.1699 6.20408C11.2107 6.20408 11.2441 6.21327 11.2441 6.22449C11.2441 6.23571 11.2775 6.2449 11.3184 6.2449C11.3592 6.2449 11.3926 6.25408 11.3926 6.26531C11.3926 6.27653 11.426 6.28571 11.4668 6.28571C11.5076 6.28571 11.541 6.2949 11.541 6.30612C11.541 6.31735 11.5744 6.32653 11.6152 6.32653C11.6561 6.32653 11.6895 6.33571 11.6895 6.34694C11.6895 6.35816 11.7145 6.36735 11.7451 6.36735C11.7757 6.36735 11.8008 6.37653 11.8008 6.38776C11.8008 6.39898 11.8342 6.40816 11.875 6.40816C11.9158 6.40816 11.9492 6.41735 11.9492 6.42857C11.9492 6.4398 11.9743 6.44898 12.0049 6.44898C12.0355 6.44898 12.0605 6.45816 12.0605 6.46939C12.0605 6.48061 12.0772 6.4898 12.0977 6.4898C12.1181 6.4898 12.1348 6.49898 12.1348 6.5102C12.1348 6.52143 12.1598 6.53061 12.1904 6.53061C12.221 6.53061 12.2461 6.5398 12.2461 6.55102C12.2461 6.56225 12.2711 6.57143 12.3018 6.57143C12.3324 6.57143 12.3574 6.58061 12.3574 6.59184C12.3574 6.60306 12.3741 6.61225 12.3945 6.61225C12.4149 6.61225 12.4316 6.62143 12.4316 6.63265C12.4316 6.64388 12.4567 6.65306 12.4873 6.65306C12.5179 6.65306 12.543 6.66225 12.543 6.67347C12.543 6.68469 12.5597 6.69388 12.5801 6.69388C12.6005 6.69388 12.6172 6.70306 12.6172 6.71429C12.6172 6.72551 12.6339 6.73469 12.6543 6.73469C12.6747 6.73469 12.6914 6.74388 12.6914 6.7551C12.6914 6.76633 12.7165 6.77551 12.7471 6.77551C12.7777 6.77551 12.8027 6.78469 12.8027 6.79592C12.8027 6.80714 12.8194 6.81633 12.8398 6.81633C12.8603 6.81633 12.877 6.82551 12.877 6.83674C12.877 6.84796 12.8937 6.85714 12.9141 6.85714C12.9345 6.85714 12.9512 6.86633 12.9512 6.87755C12.9512 6.88878 12.9679 6.89796 12.9883 6.89796C13.0087 6.89796 13.0254 6.90714 13.0254 6.91837C13.0254 6.92959 13.0421 6.93878 13.0625 6.93878C13.0829 6.93878 13.0996 6.94796 13.0996 6.95918C13.0996 6.97041 13.1163 6.97959 13.1367 6.97959C13.1571 6.97959 13.1738 6.98878 13.1738 7C13.1738 7.01122 13.1887 7.02041 13.2068 7.02041C13.225 7.02041 13.2519 7.03878 13.2666 7.06122C13.2813 7.08367 13.3082 7.10204 13.3264 7.10204C13.3445 7.10204 13.3594 7.11122 13.3594 7.12245C13.3594 7.13367 13.3761 7.14286 13.3965 7.14286C13.4169 7.14286 13.4336 7.15204 13.4336 7.16327C13.4336 7.17449 13.4485 7.18367 13.4666 7.18367C13.4848 7.18367 13.5117 7.20204 13.5264 7.22449C13.5411 7.24694 13.5661 7.26531 13.582 7.26531C13.5979 7.26531 13.623 7.28367 13.6377 7.30612C13.6524 7.32857 13.6793 7.34694 13.6975 7.34694C13.7156 7.34694 13.7305 7.35612 13.7305 7.36735C13.7305 7.37857 13.7453 7.38776 13.7635 7.38776C13.7816 7.38776 13.8085 7.40612 13.8232 7.42857C13.838 7.45102 13.8615 7.46939 13.8756 7.46939C13.8896 7.46939 13.9245 7.49694 13.9531 7.53061C13.9817 7.56429 14.0166 7.59184 14.0307 7.59184C14.0447 7.59184 14.0683 7.6102 14.083 7.63265C14.0977 7.6551 14.1213 7.67347 14.1353 7.67347C14.1494 7.67347 14.1843 7.70102 14.2129 7.73469C14.2415 7.76837 14.2747 7.79592 14.2867 7.79592C14.2987 7.79592 14.3407 7.83265 14.3799 7.87755C14.4191 7.92245 14.4607 7.95918 14.4722 7.95918C14.4838 7.95918 14.5424 8.01429 14.6025 8.08163C14.6626 8.14898 14.7209 8.20408 14.7321 8.20408C14.7433 8.20408 14.8269 8.28674 14.918 8.38776C15.009 8.48878 15.0964 8.57143 15.1121 8.57143C15.1278 8.57143 15.1406 8.58061 15.1406 8.59184C15.1406 8.60306 15.165 8.61225 15.1947 8.61225C15.2245 8.61225 15.2537 8.62374 15.2597 8.63776C15.2683 8.65816 15.2727 8.65816 15.2813 8.63776C15.2873 8.62374 15.321 8.61225 15.3562 8.61225C15.4359 8.61225 15.5488 8.49898 15.5488 8.41904C15.5488 8.39061 15.5572 8.36735 15.5674 8.36735C15.5776 8.36735 15.5859 8.3398 15.5859 8.30612C15.5859 8.27245 15.5776 8.2449 15.5674 8.2449C15.5572 8.2449 15.5488 8.22184 15.5488 8.19365C15.5488 8.15553 15.4943 8.08245 15.3357 7.90794C15.2184 7.77898 15.1136 7.67347 15.1027 7.67347C15.0918 7.67347 15.0337 7.61837 14.9736 7.55102C14.9135 7.48367 14.8549 7.42857 14.8433 7.42857C14.8317 7.42857 14.7902 7.39184 14.751 7.34694C14.7118 7.30204 14.6698 7.26531 14.6578 7.26531C14.6458 7.26531 14.6126 7.23776 14.584 7.20408C14.5554 7.17041 14.5205 7.14286 14.5064 7.14286C14.4924 7.14286 14.4688 7.12449 14.4541 7.10204C14.4394 7.07959 14.4158 7.06122 14.4018 7.06122C14.3877 7.06122 14.3528 7.03367 14.3242 7C14.2956 6.96633 14.2607 6.93878 14.2467 6.93878C14.2326 6.93878 14.2091 6.92041 14.1943 6.89796C14.1796 6.87551 14.1546 6.85714 14.1387 6.85714C14.1228 6.85714 14.0977 6.83878 14.083 6.81633C14.0683 6.79388 14.0414 6.77551 14.0232 6.77551C14.0051 6.77551 13.9902 6.76633 13.9902 6.7551C13.9902 6.74388 13.9754 6.73469 13.9572 6.73469C13.9391 6.73469 13.9122 6.71633 13.8975 6.69388C13.8827 6.67143 13.8559 6.65306 13.8377 6.65306C13.8196 6.65306 13.8047 6.64388 13.8047 6.63265C13.8047 6.62143 13.7898 6.61225 13.7717 6.61225C13.7535 6.61225 13.7266 6.59388 13.7119 6.57143C13.6972 6.54898 13.6703 6.53061 13.6521 6.53061C13.634 6.53061 13.6191 6.52143 13.6191 6.5102C13.6191 6.49898 13.6024 6.4898 13.582 6.4898C13.5616 6.4898 13.5449 6.48061 13.5449 6.46939C13.5449 6.45816 13.5282 6.44898 13.5078 6.44898C13.4874 6.44898 13.4707 6.4398 13.4707 6.42857C13.4707 6.41735 13.454 6.40816 13.4336 6.40816C13.4132 6.40816 13.3965 6.39898 13.3965 6.38776C13.3965 6.37653 13.3798 6.36735 13.3594 6.36735C13.339 6.36735 13.3223 6.35816 13.3223 6.34694C13.3223 6.33571 13.3056 6.32653 13.2852 6.32653C13.2647 6.32653 13.248 6.31735 13.248 6.30612C13.248 6.2949 13.2313 6.28571 13.2109 6.28571C13.1905 6.28571 13.1738 6.27653 13.1738 6.26531C13.1738 6.25408 13.1571 6.2449 13.1367 6.2449C13.1163 6.2449 13.0996 6.23571 13.0996 6.22449C13.0996 6.21327 13.0829 6.20408 13.0625 6.20408C13.0421 6.20408 13.0254 6.1949 13.0254 6.18367C13.0254 6.17245 13.0087 6.16327 12.9883 6.16327C12.9679 6.16327 12.9512 6.15408 12.9512 6.14286C12.9512 6.13163 12.9345 6.12245 12.9141 6.12245C12.8937 6.12245 12.877 6.11327 12.877 6.10204C12.877 6.09082 12.8519 6.08163 12.8213 6.08163C12.7907 6.08163 12.7656 6.07245 12.7656 6.06122C12.7656 6.05 12.7489 6.04082 12.7285 6.04082C12.7081 6.04082 12.6914 6.03163 12.6914 6.02041C12.6914 6.00918 12.6664 6 12.6357 6C12.6051 6 12.5801 5.99082 12.5801 5.97959C12.5801 5.96837 12.5634 5.95918 12.543 5.95918C12.5226 5.95918 12.5059 5.95 12.5059 5.93878C12.5059 5.92755 12.4808 5.91837 12.4502 5.91837C12.4196 5.91837 12.3945 5.90918 12.3945 5.89796C12.3945 5.88673 12.3695 5.87755 12.3389 5.87755C12.3083 5.87755 12.2832 5.86837 12.2832 5.85714C12.2832 5.84592 12.2582 5.83673 12.2275 5.83673C12.1969 5.83673 12.1719 5.82755 12.1719 5.81633C12.1719 5.8051 12.1468 5.79592 12.1162 5.79592C12.0856 5.79592 12.0605 5.78674 12.0605 5.77551C12.0605 5.76429 12.0355 5.7551 12.0049 5.7551C11.9743 5.7551 11.9492 5.74592 11.9492 5.73469C11.9492 5.72347 11.9242 5.71429 11.8936 5.71429C11.8629 5.71429 11.8379 5.7051 11.8379 5.69388C11.8379 5.68265 11.8045 5.67347 11.7637 5.67347C11.7229 5.67347 11.6895 5.66429 11.6895 5.65306C11.6895 5.64184 11.6561 5.63265 11.6152 5.63265C11.5744 5.63265 11.541 5.62347 11.541 5.61225C11.541 5.60102 11.5076 5.59184 11.4668 5.59184C11.426 5.59184 11.3926 5.58265 11.3926 5.57143C11.3926 5.5602 11.3508 5.55102 11.2998 5.55102C11.2488 5.55102 11.207 5.54184 11.207 5.53061C11.207 5.51939 11.1653 5.5102 11.1143 5.5102C11.0632 5.5102 11.0215 5.50102 11.0215 5.4898C11.0215 5.47845 10.972 5.46939 10.9102 5.46939C10.8483 5.46939 10.7988 5.46033 10.7988 5.44898C10.7988 5.43733 10.7432 5.42857 10.6689 5.42857C10.5947 5.42857 10.5391 5.41982 10.5391 5.40816C10.5391 5.39592 10.4648 5.38776 10.3535 5.38776C10.2422 5.38776 10.168 5.37959 10.168 5.36735C10.168 5.35412 9.93294 5.34694 9.5 5.34694C9.06706 5.34694 8.83203 5.35412 8.83203 5.36735ZM9.12891 8.02041C9.12891 8.03278 9.04851 8.04082 8.9248 8.04082C8.8011 8.04082 8.7207 8.04886 8.7207 8.06122C8.7207 8.07288 8.66504 8.08163 8.59082 8.08163C8.5166 8.08163 8.46094 8.09039 8.46094 8.10204C8.46094 8.11339 8.41145 8.12245 8.34961 8.12245C8.28777 8.12245 8.23828 8.13151 8.23828 8.14286C8.23828 8.15408 8.20488 8.16327 8.16406 8.16327C8.12324 8.16327 8.08984 8.17245 8.08984 8.18367C8.08984 8.1949 8.05645 8.20408 8.01562 8.20408C7.9748 8.20408 7.94141 8.21327 7.94141 8.22449C7.94141 8.23571 7.90801 8.2449 7.86719 8.2449C7.82637 8.2449 7.79297 8.25408 7.79297 8.26531C7.79297 8.27653 7.76792 8.28572 7.7373 8.28572C7.70669 8.28572 7.68164 8.2949 7.68164 8.30612C7.68164 8.31735 7.65659 8.32653 7.62598 8.32653C7.59536 8.32653 7.57031 8.33572 7.57031 8.34694C7.57031 8.35816 7.55361 8.36735 7.5332 8.36735C7.51279 8.36735 7.49609 8.37653 7.49609 8.38776C7.49609 8.39898 7.47105 8.40816 7.44043 8.40816C7.40981 8.40816 7.38477 8.41735 7.38477 8.42857C7.38477 8.4398 7.35972 8.44898 7.3291 8.44898C7.29849 8.44898 7.27344 8.45816 7.27344 8.46939C7.27344 8.48061 7.24839 8.4898 7.21777 8.4898C7.18716 8.4898 7.16211 8.49898 7.16211 8.5102C7.16211 8.52143 7.14541 8.53061 7.125 8.53061C7.10459 8.53061 7.08789 8.5398 7.08789 8.55102C7.08789 8.56225 7.07119 8.57143 7.05078 8.57143C7.03037 8.57143 7.01367 8.58061 7.01367 8.59184C7.01367 8.60306 6.99697 8.61225 6.97656 8.61225C6.95615 8.61225 6.93945 8.62143 6.93945 8.63265C6.93945 8.64388 6.92275 8.65306 6.90234 8.65306C6.88193 8.65306 6.86523 8.66225 6.86523 8.67347C6.86523 8.68469 6.84854 8.69388 6.82812 8.69388C6.80771 8.69388 6.79102 8.70306 6.79102 8.71429C6.79102 8.72551 6.77432 8.73469 6.75391 8.73469C6.7335 8.73469 6.7168 8.74388 6.7168 8.7551C6.7168 8.76633 6.7001 8.77551 6.67969 8.77551C6.65928 8.77551 6.64258 8.78469 6.64258 8.79592C6.64258 8.80714 6.62588 8.81633 6.60547 8.81633C6.58506 8.81633 6.56836 8.82551 6.56836 8.83674C6.56836 8.84796 6.5535 8.85714 6.53535 8.85714C6.51719 8.85714 6.4903 8.87551 6.47559 8.89796C6.46087 8.92041 6.43399 8.93878 6.41582 8.93878C6.39768 8.93878 6.38281 8.94796 6.38281 8.95918C6.38281 8.97041 6.36795 8.97959 6.3498 8.97959C6.33164 8.97959 6.30475 8.99796 6.29004 9.02041C6.27533 9.04286 6.24844 9.06122 6.23027 9.06122C6.21213 9.06122 6.19727 9.07041 6.19727 9.08163C6.19727 9.09286 6.18392 9.10204 6.1676 9.10204C6.15129 9.10204 6.11453 9.12959 6.08594 9.16327C6.05734 9.19694 6.02395 9.22449 6.01172 9.22449C5.99949 9.22449 5.96609 9.25204 5.9375 9.28572C5.90891 9.31939 5.87551 9.34694 5.86328 9.34694C5.85105 9.34694 5.81766 9.37449 5.78906 9.40816C5.76047 9.44184 5.72748 9.46939 5.71579 9.46939C5.70408 9.46939 5.63686 9.53367 5.56641 9.61225C5.49595 9.69082 5.42938 9.7551 5.41847 9.7551C5.38778 9.7551 5.19531 9.97476 5.19531 10.0098C5.19531 10.0268 5.18696 10.0408 5.17676 10.0408C5.16655 10.0408 5.1582 10.0676 5.1582 10.1003C5.1582 10.1331 5.14778 10.1652 5.13501 10.1718C5.11646 10.1813 5.11646 10.1861 5.13501 10.1956C5.14778 10.2021 5.1582 10.2343 5.1582 10.267C5.1582 10.2998 5.16655 10.3265 5.17676 10.3265C5.18696 10.3265 5.19531 10.341 5.19531 10.3586C5.19531 10.3998 5.23999 10.449 5.27749 10.449C5.29352 10.449 5.30664 10.4582 5.30664 10.4694C5.30664 10.4806 5.331 10.4898 5.36076 10.4898C5.39053 10.4898 5.41975 10.5013 5.42571 10.5153C5.43435 10.5357 5.43869 10.5357 5.44734 10.5153C5.4533 10.5013 5.48252 10.4898 5.51228 10.4898C5.54206 10.4898 5.56641 10.4806 5.56641 10.4694C5.56641 10.4582 5.57947 10.449 5.59544 10.449C5.61142 10.449 5.66514 10.4031 5.71484 10.3469C5.76455 10.2908 5.8145 10.2449 5.82586 10.2449C5.83723 10.2449 5.90416 10.1806 5.97461 10.102C6.04506 10.0235 6.11229 9.95918 6.12399 9.95918C6.13568 9.95918 6.16867 9.93163 6.19727 9.89796C6.22586 9.86429 6.26078 9.83674 6.27482 9.83674C6.28889 9.83674 6.31243 9.81837 6.32715 9.79592C6.34186 9.77347 6.36541 9.7551 6.37947 9.7551C6.39352 9.7551 6.42844 9.72755 6.45703 9.69388C6.48562 9.6602 6.52238 9.63265 6.53869 9.63265C6.55502 9.63265 6.56836 9.62347 6.56836 9.61225C6.56836 9.60102 6.58322 9.59184 6.60137 9.59184C6.61953 9.59184 6.64642 9.57347 6.66113 9.55102C6.67585 9.52857 6.70273 9.51021 6.7209 9.51021C6.73904 9.51021 6.75391 9.50102 6.75391 9.4898C6.75391 9.47857 6.76877 9.46939 6.78691 9.46939C6.80508 9.46939 6.83197 9.45102 6.84668 9.42857C6.86139 9.40612 6.88828 9.38776 6.90644 9.38776C6.92459 9.38776 6.93945 9.37857 6.93945 9.36735C6.93945 9.35612 6.95615 9.34694 6.97656 9.34694C6.99697 9.34694 7.01367 9.33776 7.01367 9.32653C7.01367 9.31531 7.03037 9.30612 7.05078 9.30612C7.07119 9.30612 7.08789 9.29694 7.08789 9.28572C7.08789 9.27449 7.10459 9.26531 7.125 9.26531C7.14541 9.26531 7.16211 9.25612 7.16211 9.2449C7.16211 9.23367 7.18716 9.22449 7.21777 9.22449C7.24839 9.22449 7.27344 9.21531 7.27344 9.20408C7.27344 9.19286 7.29014 9.18367 7.31055 9.18367C7.33096 9.18367 7.34766 9.17449 7.34766 9.16327C7.34766 9.15204 7.36436 9.14286 7.38477 9.14286C7.40518 9.14286 7.42188 9.13367 7.42188 9.12245C7.42188 9.11123 7.43857 9.10204 7.45898 9.10204C7.47939 9.10204 7.49609 9.09286 7.49609 9.08163C7.49609 9.07041 7.52114 9.06122 7.55176 9.06122C7.58237 9.06122 7.60742 9.05204 7.60742 9.04082C7.60742 9.02959 7.63247 9.02041 7.66309 9.02041C7.6937 9.02041 7.71875 9.01122 7.71875 9C7.71875 8.98878 7.7438 8.97959 7.77441 8.97959C7.80503 8.97959 7.83008 8.97041 7.83008 8.95918C7.83008 8.94796 7.85513 8.93878 7.88574 8.93878C7.91636 8.93878 7.94141 8.92959 7.94141 8.91837C7.94141 8.90714 7.9748 8.89796 8.01562 8.89796C8.05645 8.89796 8.08984 8.88878 8.08984 8.87755C8.08984 8.86633 8.12324 8.85714 8.16406 8.85714C8.20488 8.85714 8.23828 8.84796 8.23828 8.83674C8.23828 8.82551 8.27168 8.81633 8.3125 8.81633C8.35332 8.81633 8.38672 8.80714 8.38672 8.79592C8.38672 8.78469 8.42847 8.77551 8.47949 8.77551C8.53052 8.77551 8.57227 8.76633 8.57227 8.7551C8.57227 8.74345 8.62793 8.73469 8.70215 8.73469C8.77637 8.73469 8.83203 8.72594 8.83203 8.71429C8.83203 8.70165 8.93098 8.69388 9.0918 8.69388C9.25261 8.69388 9.35156 8.6861 9.35156 8.67347C9.35156 8.66157 9.41341 8.65306 9.5 8.65306C9.58659 8.65306 9.64844 8.66157 9.64844 8.67347C9.64844 8.6861 9.74739 8.69388 9.9082 8.69388C10.069 8.69388 10.168 8.70165 10.168 8.71429C10.168 8.72594 10.2236 8.73469 10.2979 8.73469C10.3721 8.73469 10.4277 8.74345 10.4277 8.7551C10.4277 8.76633 10.4695 8.77551 10.5205 8.77551C10.5715 8.77551 10.6133 8.78469 10.6133 8.79592C10.6133 8.80714 10.6467 8.81633 10.6875 8.81633C10.7283 8.81633 10.7617 8.82551 10.7617 8.83674C10.7617 8.84796 10.7951 8.85714 10.8359 8.85714C10.8768 8.85714 10.9102 8.86633 10.9102 8.87755C10.9102 8.88878 10.9436 8.89796 10.9844 8.89796C11.0252 8.89796 11.0586 8.90714 11.0586 8.91837C11.0586 8.92959 11.0836 8.93878 11.1143 8.93878C11.1449 8.93878 11.1699 8.94796 11.1699 8.95918C11.1699 8.97041 11.195 8.97959 11.2256 8.97959C11.2562 8.97959 11.2812 8.98878 11.2812 9C11.2812 9.01122 11.3063 9.02041 11.3369 9.02041C11.3675 9.02041 11.3926 9.02959 11.3926 9.04082C11.3926 9.05204 11.4176 9.06122 11.4482 9.06122C11.4789 9.06122 11.5039 9.07041 11.5039 9.08163C11.5039 9.09286 11.5206 9.10204 11.541 9.10204C11.5614 9.10204 11.5781 9.11123 11.5781 9.12245C11.5781 9.13367 11.5948 9.14286 11.6152 9.14286C11.6356 9.14286 11.6523 9.15204 11.6523 9.16327C11.6523 9.17449 11.669 9.18367 11.6895 9.18367C11.7099 9.18367 11.7266 9.19286 11.7266 9.20408C11.7266 9.21531 11.7516 9.22449 11.7822 9.22449C11.8128 9.22449 11.8379 9.23367 11.8379 9.2449C11.8379 9.25612 11.8546 9.26531 11.875 9.26531C11.8954 9.26531 11.9121 9.27449 11.9121 9.28572C11.9121 9.29694 11.9288 9.30612 11.9492 9.30612C11.9696 9.30612 11.9863 9.31531 11.9863 9.32653C11.9863 9.33776 12.003 9.34694 12.0234 9.34694C12.0438 9.34694 12.0605 9.35612 12.0605 9.36735C12.0605 9.37857 12.0754 9.38776 12.0936 9.38776C12.1117 9.38776 12.1386 9.40612 12.1533 9.42857C12.168 9.45102 12.1949 9.46939 12.2131 9.46939C12.2312 9.46939 12.2461 9.47857 12.2461 9.4898C12.2461 9.50102 12.261 9.51021 12.2791 9.51021C12.2973 9.51021 12.3242 9.52857 12.3389 9.55102C12.3536 9.57347 12.3805 9.59184 12.3986 9.59184C12.4168 9.59184 12.4316 9.60102 12.4316 9.61225C12.4316 9.62347 12.445 9.63265 12.4613 9.63265C12.4776 9.63265 12.5144 9.6602 12.543 9.69388C12.5716 9.72755 12.605 9.7551 12.6172 9.7551C12.6294 9.7551 12.6628 9.78265 12.6914 9.81633C12.72 9.85 12.7549 9.87755 12.769 9.87755C12.783 9.87755 12.8066 9.89592 12.8213 9.91837C12.836 9.94082 12.8591 9.95918 12.8726 9.95918C12.8861 9.95918 12.9632 10.0327 13.0439 10.1224C13.1247 10.2122 13.2 10.2857 13.2113 10.2857C13.2226 10.2857 13.2726 10.3316 13.3223 10.3878C13.3965 10.4716 13.4241 10.4898 13.4772 10.4898C13.5128 10.4898 13.5467 10.5013 13.5527 10.5153C13.5613 10.5357 13.5656 10.5357 13.5743 10.5153C13.5802 10.5013 13.6095 10.4898 13.6392 10.4898C13.669 10.4898 13.6934 10.4806 13.6934 10.4694C13.6934 10.4582 13.7065 10.449 13.7225 10.449C13.76 10.449 13.8047 10.3998 13.8047 10.3586C13.8047 10.341 13.813 10.3265 13.8232 10.3265C13.8334 10.3265 13.8418 10.2998 13.8418 10.267C13.8418 10.2343 13.8522 10.2021 13.865 10.1956C13.8835 10.1861 13.8835 10.1813 13.865 10.1718C13.8522 10.1652 13.8418 10.1331 13.8418 10.1003C13.8418 10.0676 13.8334 10.0408 13.8232 10.0408C13.813 10.0408 13.8047 10.0268 13.8047 10.0097C13.8047 9.97451 13.6494 9.79592 13.6188 9.79592C13.6079 9.79592 13.5329 9.72245 13.4521 9.63265C13.3714 9.54286 13.2958 9.46939 13.2841 9.46939C13.2725 9.46939 13.2395 9.44184 13.2109 9.40816C13.1823 9.37449 13.1489 9.34694 13.1367 9.34694C13.1245 9.34694 13.0911 9.31939 13.0625 9.28572C13.0339 9.25204 13.0005 9.22449 12.9883 9.22449C12.9761 9.22449 12.9427 9.19694 12.9141 9.16327C12.8855 9.12959 12.8487 9.10204 12.8324 9.10204C12.8161 9.10204 12.8027 9.09286 12.8027 9.08163C12.8027 9.07041 12.7879 9.06122 12.7697 9.06122C12.7516 9.06122 12.7247 9.04286 12.71 9.02041C12.6952 8.99796 12.6684 8.97959 12.6502 8.97959C12.632 8.97959 12.6172 8.97041 12.6172 8.95918C12.6172 8.94796 12.6023 8.93878 12.5842 8.93878C12.566 8.93878 12.5391 8.92041 12.5244 8.89796C12.5097 8.87551 12.4828 8.85714 12.4647 8.85714C12.4465 8.85714 12.4316 8.84796 12.4316 8.83674C12.4316 8.82551 12.4149 8.81633 12.3945 8.81633C12.3741 8.81633 12.3574 8.80714 12.3574 8.79592C12.3574 8.78469 12.3407 8.77551 12.3203 8.77551C12.2999 8.77551 12.2832 8.76633 12.2832 8.7551C12.2832 8.74388 12.2665 8.73469 12.2461 8.73469C12.2257 8.73469 12.209 8.72551 12.209 8.71429C12.209 8.70306 12.1923 8.69388 12.1719 8.69388C12.1515 8.69388 12.1348 8.68469 12.1348 8.67347C12.1348 8.66225 12.1181 8.65306 12.0977 8.65306C12.0772 8.65306 12.0605 8.64388 12.0605 8.63265C12.0605 8.62143 12.0438 8.61225 12.0234 8.61225C12.003 8.61225 11.9863 8.60306 11.9863 8.59184C11.9863 8.58061 11.9696 8.57143 11.9492 8.57143C11.9288 8.57143 11.9121 8.56225 11.9121 8.55102C11.9121 8.5398 11.8954 8.53061 11.875 8.53061C11.8546 8.53061 11.8379 8.52143 11.8379 8.5102C11.8379 8.49898 11.8128 8.4898 11.7822 8.4898C11.7516 8.4898 11.7266 8.48061 11.7266 8.46939C11.7266 8.45816 11.7015 8.44898 11.6709 8.44898C11.6403 8.44898 11.6152 8.4398 11.6152 8.42857C11.6152 8.41735 11.5902 8.40816 11.5596 8.40816C11.529 8.40816 11.5039 8.39898 11.5039 8.38776C11.5039 8.37653 11.4872 8.36735 11.4668 8.36735C11.4464 8.36735 11.4297 8.35816 11.4297 8.34694C11.4297 8.33572 11.4046 8.32653 11.374 8.32653C11.3434 8.32653 11.3184 8.31735 11.3184 8.30612C11.3184 8.2949 11.285 8.28572 11.2441 8.28572C11.2033 8.28572 11.1699 8.27653 11.1699 8.26531C11.1699 8.25408 11.1365 8.2449 11.0957 8.2449C11.0549 8.2449 11.0215 8.23571 11.0215 8.22449C11.0215 8.21327 10.9881 8.20408 10.9473 8.20408C10.9064 8.20408 10.873 8.1949 10.873 8.18367C10.873 8.17245 10.8396 8.16327 10.7988 8.16327C10.758 8.16327 10.7246 8.15408 10.7246 8.14286C10.7246 8.13163 10.6829 8.12245 10.6318 8.12245C10.5808 8.12245 10.5391 8.11327 10.5391 8.10204C10.5391 8.09039 10.4834 8.08163 10.4092 8.08163C10.335 8.08163 10.2793 8.07288 10.2793 8.06122C10.2793 8.04886 10.1989 8.04082 10.0752 8.04082C9.95149 8.04082 9.87109 8.03278 9.87109 8.02041C9.87109 8.00749 9.73503 8 9.5 8C9.26497 8 9.12891 8.00749 9.12891 8.02041ZM9.31445 10.6735C9.31445 10.6857 9.24023 10.6939 9.12891 10.6939C9.01758 10.6939 8.94336 10.702 8.94336 10.7143C8.94336 10.7256 8.89387 10.7347 8.83203 10.7347C8.77019 10.7347 8.7207 10.7438 8.7207 10.7551C8.7207 10.7663 8.6873 10.7755 8.64648 10.7755C8.60566 10.7755 8.57227 10.7847 8.57227 10.7959C8.57227 10.8071 8.53887 10.8163 8.49805 10.8163C8.45723 10.8163 8.42383 10.8255 8.42383 10.8367C8.42383 10.848 8.40713 10.8571 8.38672 10.8571C8.36631 10.8571 8.34961 10.8663 8.34961 10.8776C8.34961 10.8888 8.32456 10.898 8.29395 10.898C8.26333 10.898 8.23828 10.9071 8.23828 10.9184C8.23828 10.9296 8.21323 10.9388 8.18262 10.9388C8.152 10.9388 8.12695 10.948 8.12695 10.9592C8.12695 10.9704 8.11025 10.9796 8.08984 10.9796C8.06943 10.9796 8.05273 10.9888 8.05273 11C8.05273 11.0112 8.03604 11.0204 8.01562 11.0204C7.99521 11.0204 7.97852 11.0296 7.97852 11.0408C7.97852 11.052 7.96182 11.0612 7.94141 11.0612C7.921 11.0612 7.9043 11.0704 7.9043 11.0816C7.9043 11.0929 7.88109 11.102 7.85273 11.102C7.82245 11.102 7.79013 11.1189 7.77441 11.1429C7.7597 11.1653 7.73281 11.1837 7.71465 11.1837C7.6965 11.1837 7.68164 11.1929 7.68164 11.2041C7.68164 11.2153 7.66678 11.2245 7.64863 11.2245C7.63047 11.2245 7.60358 11.2429 7.58887 11.2653C7.57415 11.2878 7.5491 11.3061 7.5332 11.3061C7.5173 11.3061 7.49225 11.3245 7.47754 11.3469C7.46283 11.3694 7.43778 11.3878 7.42188 11.3878C7.40597 11.3878 7.38092 11.4061 7.36621 11.4286C7.3515 11.451 7.32832 11.4694 7.3147 11.4694C7.30108 11.4694 7.24076 11.5245 7.18066 11.5918C7.12057 11.6592 7.0623 11.7143 7.05119 11.7143C7.02052 11.7143 6.90234 11.8515 6.90234 11.8871C6.90234 11.9043 6.89399 11.9184 6.88379 11.9184C6.87358 11.9184 6.86523 11.9367 6.86523 11.9592C6.86523 11.9816 6.85688 12 6.84668 12C6.83647 12 6.82812 12.0276 6.82812 12.0612C6.82812 12.0949 6.83647 12.1224 6.84668 12.1224C6.85688 12.1224 6.86523 12.1457 6.86523 12.1741C6.86523 12.2316 6.97558 12.3673 7.02234 12.3673C7.03798 12.3673 7.05078 12.3765 7.05078 12.3878C7.05078 12.399 7.09253 12.4082 7.14355 12.4082C7.19458 12.4082 7.23633 12.399 7.23633 12.3878C7.23633 12.3765 7.2495 12.3673 7.26561 12.3673C7.28173 12.3673 7.32699 12.3306 7.36621 12.2857C7.40544 12.2408 7.44707 12.2041 7.45874 12.2041C7.4704 12.2041 7.5206 12.1582 7.57031 12.102C7.62002 12.0459 7.6704 12 7.68227 12C7.69415 12 7.72727 11.9724 7.75586 11.9388C7.78445 11.9051 7.82121 11.8776 7.83752 11.8776C7.85385 11.8776 7.86719 11.8684 7.86719 11.8571C7.86719 11.8459 7.88205 11.8367 7.9002 11.8367C7.91836 11.8367 7.94525 11.8184 7.95996 11.7959C7.97467 11.7735 8.00156 11.7551 8.01973 11.7551C8.03787 11.7551 8.05273 11.7459 8.05273 11.7347C8.05273 11.7235 8.06943 11.7143 8.08984 11.7143C8.11025 11.7143 8.12695 11.7051 8.12695 11.6939C8.12695 11.6827 8.14365 11.6735 8.16406 11.6735C8.18447 11.6735 8.20117 11.6643 8.20117 11.6531C8.20117 11.6418 8.21787 11.6327 8.23828 11.6327C8.25869 11.6327 8.27539 11.6235 8.27539 11.6122C8.27539 11.601 8.29209 11.5918 8.3125 11.5918C8.33291 11.5918 8.34961 11.5827 8.34961 11.5714C8.34961 11.5602 8.37466 11.551 8.40527 11.551C8.43589 11.551 8.46094 11.5418 8.46094 11.5306C8.46094 11.5194 8.48599 11.5102 8.5166 11.5102C8.54722 11.5102 8.57227 11.501 8.57227 11.4898C8.57227 11.4786 8.60566 11.4694 8.64648 11.4694C8.6873 11.4694 8.7207 11.4602 8.7207 11.449C8.7207 11.4378 8.7541 11.4286 8.79492 11.4286C8.83574 11.4286 8.86914 11.4194 8.86914 11.4082C8.86914 11.3969 8.91089 11.3878 8.96191 11.3878C9.01294 11.3878 9.05469 11.3786 9.05469 11.3673C9.05469 11.3543 9.2155 11.3469 9.5 11.3469C9.7845 11.3469 9.94531 11.3543 9.94531 11.3673C9.94531 11.3786 9.98706 11.3878 10.0381 11.3878C10.0891 11.3878 10.1309 11.3969 10.1309 11.4082C10.1309 11.4194 10.1643 11.4286 10.2051 11.4286C10.2459 11.4286 10.2793 11.4378 10.2793 11.449C10.2793 11.4602 10.3127 11.4694 10.3535 11.4694C10.3943 11.4694 10.4277 11.4786 10.4277 11.4898C10.4277 11.501 10.4528 11.5102 10.4834 11.5102C10.514 11.5102 10.5391 11.5194 10.5391 11.5306C10.5391 11.5418 10.5558 11.551 10.5762 11.551C10.5966 11.551 10.6133 11.5602 10.6133 11.5714C10.6133 11.5827 10.6383 11.5918 10.6689 11.5918C10.6996 11.5918 10.7246 11.601 10.7246 11.6122C10.7246 11.6235 10.7413 11.6327 10.7617 11.6327C10.7821 11.6327 10.7988 11.6418 10.7988 11.6531C10.7988 11.6643 10.8155 11.6735 10.8359 11.6735C10.8563 11.6735 10.873 11.6827 10.873 11.6939C10.873 11.7051 10.8897 11.7143 10.9102 11.7143C10.9306 11.7143 10.9473 11.7235 10.9473 11.7347C10.9473 11.7459 10.9621 11.7551 10.9803 11.7551C10.9984 11.7551 11.0253 11.7735 11.04 11.7959C11.0548 11.8184 11.0816 11.8367 11.0998 11.8367C11.118 11.8367 11.1328 11.8459 11.1328 11.8571C11.1328 11.8684 11.1462 11.8776 11.1625 11.8776C11.1788 11.8776 11.2155 11.9051 11.2441 11.9388C11.2727 11.9724 11.3058 12 11.3176 12C11.3293 12 11.3881 12.0551 11.4482 12.1224C11.5083 12.1898 11.5672 12.2449 11.5789 12.2449C11.5907 12.2449 11.6238 12.2724 11.6523 12.3061C11.6809 12.3398 11.7177 12.3673 11.734 12.3673C11.7503 12.3673 11.7637 12.3765 11.7637 12.3878C11.7637 12.399 11.8054 12.4082 11.8564 12.4082C11.9075 12.4082 11.9492 12.399 11.9492 12.3878C11.9492 12.3765 11.962 12.3673 11.9777 12.3673C12.0244 12.3673 12.1348 12.2316 12.1348 12.1741C12.1348 12.1457 12.1431 12.1224 12.1533 12.1224C12.1635 12.1224 12.1719 12.1041 12.1719 12.0816C12.1719 12.0592 12.1635 12.0408 12.1533 12.0408C12.1431 12.0408 12.1348 12.0133 12.1348 11.9796C12.1348 11.9459 12.1264 11.9184 12.1162 11.9184C12.106 11.9184 12.0977 11.9043 12.0977 11.8871C12.0977 11.8513 11.9794 11.7143 11.9486 11.7143C11.9374 11.7143 11.8876 11.6684 11.8379 11.6122C11.7882 11.5561 11.7378 11.5102 11.7259 11.5102C11.7141 11.5102 11.6809 11.4827 11.6523 11.449C11.6238 11.4153 11.5888 11.3878 11.5748 11.3878C11.5607 11.3878 11.5372 11.3694 11.5225 11.3469C11.5077 11.3245 11.4827 11.3061 11.4668 11.3061C11.4509 11.3061 11.4258 11.2878 11.4111 11.2653C11.3964 11.2429 11.3695 11.2245 11.3514 11.2245C11.3332 11.2245 11.3184 11.2153 11.3184 11.2041C11.3184 11.1929 11.3035 11.1837 11.2854 11.1837C11.2672 11.1837 11.2403 11.1653 11.2256 11.1429C11.2099 11.1189 11.1775 11.102 11.1473 11.102C11.1189 11.102 11.0957 11.0929 11.0957 11.0816C11.0957 11.0704 11.079 11.0612 11.0586 11.0612C11.0382 11.0612 11.0215 11.052 11.0215 11.0408C11.0215 11.0296 11.0048 11.0204 10.9844 11.0204C10.964 11.0204 10.9473 11.0112 10.9473 11C10.9473 10.9888 10.9306 10.9796 10.9102 10.9796C10.8897 10.9796 10.873 10.9704 10.873 10.9592C10.873 10.948 10.848 10.9388 10.8174 10.9388C10.7868 10.9388 10.7617 10.9296 10.7617 10.9184C10.7617 10.9071 10.7367 10.898 10.7061 10.898C10.6754 10.898 10.6504 10.8888 10.6504 10.8776C10.6504 10.8663 10.6253 10.8571 10.5947 10.8571C10.5641 10.8571 10.5391 10.848 10.5391 10.8367C10.5391 10.8255 10.514 10.8163 10.4834 10.8163C10.4528 10.8163 10.4277 10.8071 10.4277 10.7959C10.4277 10.7847 10.3943 10.7755 10.3535 10.7755C10.3127 10.7755 10.2793 10.7663 10.2793 10.7551C10.2793 10.7438 10.2298 10.7347 10.168 10.7347C10.1061 10.7347 10.0566 10.7256 10.0566 10.7143C10.0566 10.702 9.98242 10.6939 9.87109 10.6939C9.75977 10.6939 9.68555 10.6857 9.68555 10.6735C9.68555 10.6612 9.61133 10.6531 9.5 10.6531C9.38867 10.6531 9.31445 10.6612 9.31445 10.6735ZM9.24023 13.3673C9.24023 13.3786 9.21519 13.3878 9.18457 13.3878C9.15396 13.3878 9.12891 13.3969 9.12891 13.4082C9.12891 13.4194 9.10386 13.4286 9.07324 13.4286C9.04263 13.4286 9.01758 13.4378 9.01758 13.449C9.01758 13.4602 9.00088 13.4694 8.98047 13.4694C8.96006 13.4694 8.94336 13.4786 8.94336 13.4898C8.94336 13.501 8.92666 13.5102 8.90625 13.5102C8.88584 13.5102 8.86914 13.5194 8.86914 13.5306C8.86914 13.5418 8.85651 13.551 8.84105 13.551C8.80689 13.551 8.49805 13.8867 8.49805 13.9238C8.49805 13.9383 8.48135 13.9634 8.46094 13.9796C8.44053 13.9958 8.42383 14.0253 8.42383 14.0453C8.42383 14.0653 8.41548 14.0816 8.40527 14.0816C8.39507 14.0816 8.38672 14.1092 8.38672 14.1429C8.38672 14.1765 8.37837 14.2041 8.36816 14.2041C8.35796 14.2041 8.34961 14.2316 8.34961 14.2653C8.34961 14.299 8.34126 14.3265 8.33105 14.3265C8.32046 14.3265 8.3125 14.3878 8.3125 14.4694C8.3125 14.551 8.30454 14.6122 8.29395 14.6122C8.28374 14.6122 8.27539 14.6398 8.27539 14.6735C8.27539 14.7071 8.28374 14.7347 8.29395 14.7347C8.30426 14.7347 8.3125 14.7891 8.3125 14.8571C8.3125 14.9252 8.32074 14.9796 8.33105 14.9796C8.34126 14.9796 8.34961 15.0163 8.34961 15.0612C8.34961 15.1061 8.35796 15.1429 8.36816 15.1429C8.37837 15.1429 8.38672 15.1612 8.38672 15.1837C8.38672 15.2061 8.39507 15.2245 8.40527 15.2245C8.41548 15.2245 8.42383 15.2429 8.42383 15.2653C8.42383 15.2878 8.43218 15.3061 8.44238 15.3061C8.45259 15.3061 8.46094 15.3208 8.46094 15.3388C8.46094 15.3567 8.48599 15.3971 8.5166 15.4286C8.54722 15.46 8.57227 15.4962 8.57227 15.5089C8.57227 15.5389 8.6946 15.6735 8.72191 15.6735C8.73347 15.6735 8.76633 15.701 8.79492 15.7347C8.82351 15.7684 8.86027 15.7959 8.87658 15.7959C8.89291 15.7959 8.90625 15.8051 8.90625 15.8163C8.90625 15.8276 8.92295 15.8367 8.94336 15.8367C8.96377 15.8367 8.98047 15.8459 8.98047 15.8571C8.98047 15.8684 8.99717 15.8776 9.01758 15.8776C9.03799 15.8776 9.05469 15.8867 9.05469 15.898C9.05469 15.9092 9.07974 15.9184 9.11035 15.9184C9.14097 15.9184 9.16602 15.9276 9.16602 15.9388C9.16602 15.9501 9.2155 15.9592 9.27734 15.9592C9.33919 15.9592 9.38867 15.9682 9.38867 15.9796C9.38867 15.9909 9.43816 16 9.5 16C9.56184 16 9.61133 15.9909 9.61133 15.9796C9.61133 15.9684 9.65308 15.9592 9.7041 15.9592C9.75513 15.9592 9.79688 15.95 9.79688 15.9388C9.79688 15.9276 9.83027 15.9184 9.87109 15.9184C9.91191 15.9184 9.94531 15.9092 9.94531 15.898C9.94531 15.8867 9.96201 15.8776 9.98242 15.8776C10.0028 15.8776 10.0195 15.8684 10.0195 15.8571C10.0195 15.8459 10.0362 15.8367 10.0566 15.8367C10.0771 15.8367 10.0938 15.8276 10.0938 15.8163C10.0938 15.8051 10.1069 15.7959 10.123 15.7959C10.1392 15.7959 10.1844 15.7592 10.2236 15.7143C10.2629 15.6694 10.3045 15.6327 10.3163 15.6327C10.3438 15.6327 10.3906 15.5812 10.3906 15.5509C10.3906 15.538 10.424 15.4921 10.4648 15.449C10.5057 15.4058 10.5391 15.3561 10.5391 15.3383C10.5391 15.3206 10.5474 15.3061 10.5576 15.3061C10.5678 15.3061 10.5762 15.2878 10.5762 15.2653C10.5762 15.2429 10.5845 15.2245 10.5947 15.2245C10.6049 15.2245 10.6133 15.1969 10.6133 15.1633C10.6133 15.1296 10.6216 15.102 10.6318 15.102C10.642 15.102 10.6504 15.0745 10.6504 15.0408C10.6504 15.0071 10.6587 14.9796 10.6689 14.9796C10.6795 14.9796 10.6875 14.9184 10.6875 14.8367C10.6875 14.7551 10.6955 14.6939 10.7061 14.6939C10.7163 14.6939 10.7246 14.6755 10.7246 14.6531C10.7246 14.6306 10.7163 14.6122 10.7061 14.6122C10.6955 14.6122 10.6875 14.551 10.6875 14.4694C10.6875 14.3878 10.6795 14.3265 10.6689 14.3265C10.6587 14.3265 10.6504 14.299 10.6504 14.2653C10.6504 14.2316 10.642 14.2041 10.6318 14.2041C10.6216 14.2041 10.6133 14.1857 10.6133 14.1633C10.6133 14.1408 10.6049 14.1224 10.5947 14.1224C10.5845 14.1224 10.5762 14.1041 10.5762 14.0816C10.5762 14.0592 10.5678 14.0408 10.5576 14.0408C10.5474 14.0408 10.5391 14.0224 10.5391 14C10.5391 13.9776 10.5307 13.9592 10.5205 13.9592C10.5103 13.9592 10.502 13.9453 10.502 13.9282C10.502 13.8906 10.2339 13.5918 10.2002 13.5918C10.187 13.5918 10.1641 13.5735 10.1494 13.551C10.1347 13.5286 10.1078 13.5102 10.0896 13.5102C10.0715 13.5102 10.0566 13.501 10.0566 13.4898C10.0566 13.4786 10.0399 13.4694 10.0195 13.4694C9.99912 13.4694 9.98242 13.4602 9.98242 13.449C9.98242 13.4378 9.95737 13.4286 9.92676 13.4286C9.89614 13.4286 9.87109 13.4194 9.87109 13.4082C9.87109 13.3969 9.8377 13.3878 9.79688 13.3878C9.75605 13.3878 9.72266 13.3786 9.72266 13.3673C9.72266 13.3548 9.62988 13.3469 9.48145 13.3469C9.33301 13.3469 9.24023 13.3548 9.24023 13.3673ZM9.64844 14.0204C9.64844 14.0316 9.67349 14.0408 9.7041 14.0408C9.73472 14.0408 9.75977 14.05 9.75977 14.0612C9.75977 14.0724 9.77248 14.0816 9.788 14.0816C9.82474 14.0816 10.0195 14.2959 10.0195 14.3363C10.0195 14.3534 10.0279 14.3673 10.0381 14.3673C10.0483 14.3673 10.0566 14.3857 10.0566 14.4082C10.0566 14.4306 10.065 14.449 10.0752 14.449C10.0863 14.449 10.0938 14.5306 10.0938 14.6531C10.0938 14.7755 10.0863 14.8571 10.0752 14.8571C10.065 14.8571 10.0566 14.8755 10.0566 14.898C10.0566 14.9204 10.0483 14.9388 10.0381 14.9388C10.0279 14.9388 10.0195 14.9551 10.0195 14.9751C10.0195 14.9951 10.0028 15.0246 9.98242 15.0408C9.96201 15.057 9.94531 15.0866 9.94531 15.1066C9.94531 15.1265 9.93197 15.1429 9.91564 15.1429C9.89933 15.1429 9.86258 15.1704 9.83398 15.2041C9.80201 15.2417 9.76342 15.2653 9.73377 15.2653C9.70724 15.2653 9.68555 15.2745 9.68555 15.2857C9.68555 15.298 9.61133 15.3061 9.5 15.3061C9.38867 15.3061 9.31445 15.298 9.31445 15.2857C9.31445 15.2745 9.29124 15.2653 9.26289 15.2653C9.23261 15.2653 9.20029 15.2485 9.18457 15.2245C9.16986 15.202 9.14676 15.1837 9.13325 15.1837C9.10139 15.1837 9.01758 15.0915 9.01758 15.0564C9.01758 15.0416 9.00088 15.0162 8.98047 15C8.95869 14.9827 8.94336 14.9472 8.94336 14.9139C8.94336 14.8827 8.93501 14.8571 8.9248 14.8571C8.91367 14.8571 8.90625 14.7755 8.90625 14.6531C8.90625 14.5306 8.91367 14.449 8.9248 14.449C8.93501 14.449 8.94336 14.4306 8.94336 14.4082C8.94336 14.3857 8.95171 14.3673 8.96191 14.3673C8.97212 14.3673 8.98047 14.3534 8.98047 14.3363C8.98047 14.2959 9.17526 14.0816 9.21199 14.0816C9.22752 14.0816 9.24023 14.0724 9.24023 14.0612C9.24023 14.05 9.26528 14.0408 9.2959 14.0408C9.32651 14.0408 9.35156 14.0316 9.35156 14.0204C9.35156 14.0085 9.41341 14 9.5 14C9.58659 14 9.64844 14.0085 9.64844 14.0204Z" fill="#0089B1"/>
</svg>
