<svg width="31" height="24" viewBox="0 0 31 24" fill="none" xmlns="http://www.w3.org/2000/svg">
<path fill-rule="evenodd" clip-rule="evenodd" d="M14.7734 0.0306122C14.7734 0.049898 14.5716 0.0612245 14.2285 0.0612245C13.8854 0.0612245 13.6836 0.072551 13.6836 0.0918367C13.6836 0.110204 13.5625 0.122449 13.3809 0.122449C13.1992 0.122449 13.0781 0.134694 13.0781 0.153061C13.0781 0.170908 12.9772 0.183673 12.8359 0.183673C12.6947 0.183673 12.5938 0.196439 12.5938 0.214286C12.5938 0.231765 12.5029 0.244898 12.3818 0.244898C12.2607 0.244898 12.1699 0.258031 12.1699 0.27551C12.1699 0.292531 12.0892 0.306122 11.9883 0.306122C11.8874 0.306122 11.8066 0.319714 11.8066 0.336735C11.8066 0.353755 11.7259 0.367347 11.625 0.367347C11.5241 0.367347 11.4434 0.380939 11.4434 0.397959C11.4434 0.414796 11.3752 0.428571 11.292 0.428571C11.2087 0.428571 11.1406 0.442347 11.1406 0.459184C11.1406 0.47602 11.0861 0.489796 11.0195 0.489796C10.9529 0.489796 10.8984 0.503571 10.8984 0.520408C10.8984 0.537245 10.8303 0.55102 10.7471 0.55102C10.6638 0.55102 10.5957 0.564796 10.5957 0.581633C10.5957 0.598469 10.5412 0.612245 10.4746 0.612245C10.408 0.612245 10.3535 0.62602 10.3535 0.642857C10.3535 0.659694 10.299 0.673469 10.2324 0.673469C10.1658 0.673469 10.1113 0.687245 10.1113 0.704082C10.1113 0.720918 10.0568 0.734694 9.99023 0.734694C9.92363 0.734694 9.86914 0.748469 9.86914 0.765306C9.86914 0.782143 9.81465 0.795918 9.74805 0.795918C9.68145 0.795918 9.62695 0.809694 9.62695 0.826531C9.62695 0.843367 9.58608 0.857143 9.53613 0.857143C9.48618 0.857143 9.44531 0.870918 9.44531 0.887755C9.44531 0.904592 9.39082 0.918367 9.32422 0.918367C9.25762 0.918367 9.20312 0.932143 9.20312 0.94898C9.20312 0.965816 9.16226 0.979592 9.1123 0.979592C9.06235 0.979592 9.02148 0.993367 9.02148 1.0102C9.02148 1.02704 8.98061 1.04082 8.93066 1.04082C8.88071 1.04082 8.83984 1.05459 8.83984 1.07143C8.83984 1.08827 8.79897 1.10204 8.74902 1.10204C8.69907 1.10204 8.6582 1.11582 8.6582 1.13265C8.6582 1.14949 8.61733 1.16327 8.56738 1.16327C8.51743 1.16327 8.47656 1.17704 8.47656 1.19388C8.47656 1.21071 8.43569 1.22449 8.38574 1.22449C8.33579 1.22449 8.29492 1.23827 8.29492 1.2551C8.29492 1.27194 8.25405 1.28571 8.2041 1.28571C8.15415 1.28571 8.11328 1.29949 8.11328 1.31633C8.11328 1.33316 8.08603 1.34694 8.05273 1.34694C8.01943 1.34694 7.99219 1.36071 7.99219 1.37755C7.99219 1.39439 7.95132 1.40816 7.90137 1.40816C7.85142 1.40816 7.81055 1.42194 7.81055 1.43878C7.81055 1.45561 7.76968 1.46939 7.71973 1.46939C7.66978 1.46939 7.62891 1.48316 7.62891 1.5C7.62891 1.51684 7.60166 1.53061 7.56836 1.53061C7.53506 1.53061 7.50781 1.54439 7.50781 1.56122C7.50781 1.57806 7.46694 1.59184 7.41699 1.59184C7.36704 1.59184 7.32617 1.60561 7.32617 1.62245C7.32617 1.63929 7.29893 1.65306 7.26562 1.65306C7.23232 1.65306 7.20508 1.66684 7.20508 1.68367C7.20508 1.70051 7.16421 1.71429 7.11426 1.71429C7.06431 1.71429 7.02344 1.72806 7.02344 1.7449C7.02344 1.76173 6.99619 1.77551 6.96289 1.77551C6.92959 1.77551 6.90234 1.78929 6.90234 1.80612C6.90234 1.82296 6.8751 1.83673 6.8418 1.83673C6.8085 1.83673 6.78125 1.85051 6.78125 1.86735C6.78125 1.88418 6.74038 1.89796 6.69043 1.89796C6.64048 1.89796 6.59961 1.91173 6.59961 1.92857C6.59961 1.94541 6.57236 1.95918 6.53906 1.95918C6.50576 1.95918 6.47852 1.97296 6.47852 1.9898C6.47852 2.00663 6.45127 2.02041 6.41797 2.02041C6.38467 2.02041 6.35742 2.03418 6.35742 2.05102C6.35742 2.06786 6.33018 2.08163 6.29688 2.08163C6.26357 2.08163 6.23633 2.09541 6.23633 2.11224C6.23633 2.12908 6.20908 2.14286 6.17578 2.14286C6.14248 2.14286 6.11523 2.15663 6.11523 2.17347C6.11523 2.19031 6.08799 2.20408 6.05469 2.20408C6.02139 2.20408 5.99414 2.21786 5.99414 2.23469C5.99414 2.25153 5.96689 2.26531 5.93359 2.26531C5.90029 2.26531 5.87305 2.27908 5.87305 2.29592C5.87305 2.31276 5.8458 2.32653 5.8125 2.32653C5.7792 2.32653 5.75195 2.34031 5.75195 2.35714C5.75195 2.37398 5.72471 2.38776 5.69141 2.38776C5.65811 2.38776 5.63086 2.40153 5.63086 2.41837C5.63086 2.4352 5.60361 2.44898 5.57031 2.44898C5.53701 2.44898 5.50977 2.46276 5.50977 2.47959C5.50977 2.49643 5.48252 2.5102 5.44922 2.5102C5.41592 2.5102 5.38867 2.52398 5.38867 2.54082C5.38867 2.55765 5.36143 2.57143 5.32812 2.57143C5.29482 2.57143 5.26758 2.5852 5.26758 2.60204C5.26758 2.61888 5.24033 2.63265 5.20703 2.63265C5.17373 2.63265 5.14648 2.64643 5.14648 2.66327C5.14648 2.6801 5.12224 2.69388 5.09263 2.69388C5.06299 2.69388 5.01912 2.72143 4.99512 2.7551C4.97111 2.78878 4.92724 2.81633 4.89761 2.81633C4.868 2.81633 4.84375 2.8301 4.84375 2.84694C4.84375 2.86378 4.8165 2.87755 4.7832 2.87755C4.7499 2.87755 4.72266 2.89133 4.72266 2.90816C4.72266 2.925 4.69541 2.93878 4.66211 2.93878C4.62881 2.93878 4.60156 2.95255 4.60156 2.96939C4.60156 2.98622 4.57731 3 4.54771 3C4.51807 3 4.4742 3.02755 4.4502 3.06122C4.42619 3.0949 4.38532 3.12245 4.35938 3.12245C4.33343 3.12245 4.29256 3.15 4.26855 3.18367C4.24455 3.21735 4.20068 3.2449 4.17104 3.2449C4.14144 3.2449 4.11719 3.25867 4.11719 3.27551C4.11719 3.29235 4.09294 3.30612 4.06333 3.30612C4.03369 3.30612 3.98983 3.33367 3.96582 3.36735C3.94181 3.40102 3.90094 3.42857 3.875 3.42857C3.84906 3.42857 3.80819 3.45612 3.78418 3.4898C3.76017 3.52347 3.71631 3.55102 3.68667 3.55102C3.65706 3.55102 3.63281 3.5648 3.63281 3.58163C3.63281 3.59847 3.61105 3.61225 3.58441 3.61225C3.55779 3.61225 3.49782 3.65357 3.45117 3.70408C3.40452 3.75459 3.34755 3.79592 3.32463 3.79592C3.30168 3.79592 3.26326 3.82347 3.23926 3.85714C3.21525 3.89082 3.17438 3.91837 3.14844 3.91837C3.12249 3.91837 3.08162 3.94592 3.05762 3.97959C3.03361 4.01327 2.99274 4.04082 2.9668 4.04082C2.94085 4.04082 2.89998 4.06837 2.87598 4.10204C2.85197 4.13571 2.81386 4.16327 2.79124 4.16327C2.76863 4.16327 2.69779 4.21837 2.63379 4.28571C2.56979 4.35306 2.5014 4.40816 2.48182 4.40816C2.4622 4.40816 2.40798 4.44949 2.36133 4.5C2.31468 4.55051 2.26018 4.59184 2.24023 4.59184C2.22028 4.59184 2.16579 4.63316 2.11914 4.68367C2.07249 4.73418 2.01845 4.77551 1.99908 4.77551C1.9797 4.77551 1.89751 4.84439 1.81641 4.92857C1.7353 5.01275 1.65372 5.08163 1.63507 5.08163C1.61639 5.08163 1.52091 5.16429 1.42285 5.26531C1.3248 5.36633 1.2298 5.44898 1.21172 5.44898C1.19365 5.44898 1.01622 5.61429 0.817383 5.81633C0.618547 6.01837 0.441508 6.18367 0.423919 6.18367C0.377994 6.18367 0.121094 6.44994 0.121094 6.49754C0.121094 6.51952 0.0938477 6.55736 0.0605469 6.58163C0.0120186 6.61699 0 6.66089 0 6.80268C0 6.90021 0.0135928 6.97959 0.0302734 6.97959C0.0469238 6.97959 0.0605469 7.00087 0.0605469 7.02689C0.0605469 7.08814 0.195385 7.22449 0.255962 7.22449C0.281694 7.22449 0.302734 7.23827 0.302734 7.2551C0.302734 7.27212 0.383474 7.28571 0.484375 7.28571C0.585276 7.28571 0.666016 7.27212 0.666016 7.2551C0.666016 7.23827 0.687328 7.22449 0.713394 7.22449C0.739459 7.22449 0.827101 7.15561 0.908203 7.07143C0.989306 6.98725 1.07056 6.91837 1.08875 6.91837C1.10698 6.91837 1.28456 6.75306 1.4834 6.55102C1.68223 6.34898 1.85967 6.18367 1.87774 6.18367C1.89581 6.18367 1.99081 6.10102 2.08887 6C2.18692 5.89898 2.28259 5.81633 2.30148 5.81633C2.32037 5.81633 2.38815 5.76122 2.45215 5.69388C2.51615 5.62653 2.58426 5.57143 2.60352 5.57143C2.62277 5.57143 2.69088 5.51633 2.75488 5.44898C2.81888 5.38163 2.88727 5.32653 2.90686 5.32653C2.92647 5.32653 2.98069 5.2852 3.02734 5.23469C3.07399 5.18418 3.12849 5.14286 3.14844 5.14286C3.16839 5.14286 3.22288 5.10153 3.26953 5.05102C3.31618 5.00051 3.37316 4.95918 3.39607 4.95918C3.41902 4.95918 3.45744 4.93163 3.48145 4.89796C3.50545 4.86429 3.54632 4.83673 3.57227 4.83673C3.59821 4.83673 3.63908 4.80918 3.66309 4.77551C3.68709 4.74184 3.72551 4.71429 3.74846 4.71429C3.77137 4.71429 3.82835 4.67296 3.875 4.62245C3.92165 4.57194 3.97863 4.53061 4.00154 4.53061C4.02449 4.53061 4.06291 4.50306 4.08691 4.46939C4.11092 4.43571 4.15479 4.40816 4.18442 4.40816C4.21403 4.40816 4.23828 4.39439 4.23828 4.37755C4.23828 4.36071 4.26253 4.34694 4.29214 4.34694C4.32178 4.34694 4.36564 4.31939 4.38965 4.28571C4.41366 4.25204 4.45452 4.22449 4.48047 4.22449C4.50641 4.22449 4.54728 4.19694 4.57129 4.16327C4.5953 4.12959 4.63916 4.10204 4.6688 4.10204C4.69841 4.10204 4.72266 4.08827 4.72266 4.07143C4.72266 4.05459 4.74691 4.04082 4.77651 4.04082C4.80615 4.04082 4.85002 4.01327 4.87402 3.97959C4.89803 3.94592 4.9419 3.91837 4.97153 3.91837C5.00114 3.91837 5.02539 3.90459 5.02539 3.88776C5.02539 3.87092 5.04964 3.85714 5.07925 3.85714C5.10888 3.85714 5.15275 3.82959 5.17676 3.79592C5.20076 3.76225 5.24463 3.73469 5.27427 3.73469C5.30388 3.73469 5.32812 3.72092 5.32812 3.70408C5.32812 3.68725 5.35537 3.67347 5.38867 3.67347C5.42197 3.67347 5.44922 3.65969 5.44922 3.64286C5.44922 3.62602 5.47646 3.61225 5.50977 3.61225C5.54307 3.61225 5.57031 3.59847 5.57031 3.58163C5.57031 3.5648 5.59456 3.55102 5.62417 3.55102C5.65381 3.55102 5.69767 3.52347 5.72168 3.4898C5.74569 3.45612 5.78955 3.42857 5.81919 3.42857C5.8488 3.42857 5.87305 3.4148 5.87305 3.39796C5.87305 3.38112 5.90029 3.36735 5.93359 3.36735C5.96689 3.36735 5.99414 3.35357 5.99414 3.33673C5.99414 3.3199 6.02139 3.30612 6.05469 3.30612C6.08799 3.30612 6.11523 3.29235 6.11523 3.27551C6.11523 3.25867 6.14248 3.2449 6.17578 3.2449C6.20908 3.2449 6.23633 3.23112 6.23633 3.21429C6.23633 3.19745 6.26357 3.18367 6.29688 3.18367C6.33018 3.18367 6.35742 3.1699 6.35742 3.15306C6.35742 3.13622 6.38467 3.12245 6.41797 3.12245C6.45127 3.12245 6.47852 3.10867 6.47852 3.09184C6.47852 3.075 6.50576 3.06122 6.53906 3.06122C6.57236 3.06122 6.59961 3.04745 6.59961 3.03061C6.59961 3.01378 6.62686 3 6.66016 3C6.69346 3 6.7207 2.98622 6.7207 2.96939C6.7207 2.95255 6.76157 2.93878 6.81152 2.93878C6.86147 2.93878 6.90234 2.925 6.90234 2.90816C6.90234 2.89133 6.92959 2.87755 6.96289 2.87755C6.99619 2.87755 7.02344 2.86378 7.02344 2.84694C7.02344 2.8301 7.05068 2.81633 7.08398 2.81633C7.11728 2.81633 7.14453 2.80255 7.14453 2.78571C7.14453 2.76888 7.1854 2.7551 7.23535 2.7551C7.2853 2.7551 7.32617 2.74133 7.32617 2.72449C7.32617 2.70765 7.35342 2.69388 7.38672 2.69388C7.42002 2.69388 7.44727 2.6801 7.44727 2.66327C7.44727 2.64643 7.47451 2.63265 7.50781 2.63265C7.54111 2.63265 7.56836 2.61888 7.56836 2.60204C7.56836 2.5852 7.60923 2.57143 7.65918 2.57143C7.70913 2.57143 7.75 2.55765 7.75 2.54082C7.75 2.52398 7.77725 2.5102 7.81055 2.5102C7.84385 2.5102 7.87109 2.49643 7.87109 2.47959C7.87109 2.46276 7.91196 2.44898 7.96191 2.44898C8.01187 2.44898 8.05273 2.4352 8.05273 2.41837C8.05273 2.40153 8.07998 2.38776 8.11328 2.38776C8.14658 2.38776 8.17383 2.37398 8.17383 2.35714C8.17383 2.34031 8.2147 2.32653 8.26465 2.32653C8.3146 2.32653 8.35547 2.31276 8.35547 2.29592C8.35547 2.27908 8.39634 2.26531 8.44629 2.26531C8.49624 2.26531 8.53711 2.25153 8.53711 2.23469C8.53711 2.21786 8.57798 2.20408 8.62793 2.20408C8.67788 2.20408 8.71875 2.19031 8.71875 2.17347C8.71875 2.15663 8.75962 2.14286 8.80957 2.14286C8.85952 2.14286 8.90039 2.12908 8.90039 2.11224C8.90039 2.09541 8.94126 2.08163 8.99121 2.08163C9.04116 2.08163 9.08203 2.06786 9.08203 2.05102C9.08203 2.03418 9.1229 2.02041 9.17285 2.02041C9.2228 2.02041 9.26367 2.00663 9.26367 1.9898C9.26367 1.97296 9.30454 1.95918 9.35449 1.95918C9.40444 1.95918 9.44531 1.94541 9.44531 1.92857C9.44531 1.91173 9.48618 1.89796 9.53613 1.89796C9.58608 1.89796 9.62695 1.88418 9.62695 1.86735C9.62695 1.85051 9.68145 1.83673 9.74805 1.83673C9.81465 1.83673 9.86914 1.82296 9.86914 1.80612C9.86914 1.78929 9.91001 1.77551 9.95996 1.77551C10.0099 1.77551 10.0508 1.76173 10.0508 1.7449C10.0508 1.72806 10.1053 1.71429 10.1719 1.71429C10.2385 1.71429 10.293 1.70051 10.293 1.68367C10.293 1.66684 10.3475 1.65306 10.4141 1.65306C10.4807 1.65306 10.5352 1.63929 10.5352 1.62245C10.5352 1.60561 10.5896 1.59184 10.6562 1.59184C10.7229 1.59184 10.7773 1.57806 10.7773 1.56122C10.7773 1.54439 10.8455 1.53061 10.9287 1.53061C11.012 1.53061 11.0801 1.51684 11.0801 1.5C11.0801 1.48316 11.1346 1.46939 11.2012 1.46939C11.2678 1.46939 11.3223 1.45561 11.3223 1.43878C11.3223 1.42194 11.3904 1.40816 11.4736 1.40816C11.5569 1.40816 11.625 1.39439 11.625 1.37755C11.625 1.36053 11.7057 1.34694 11.8066 1.34694C11.9075 1.34694 11.9883 1.33335 11.9883 1.31633C11.9883 1.29931 12.069 1.28571 12.1699 1.28571C12.2708 1.28571 12.3516 1.27212 12.3516 1.2551C12.3516 1.23726 12.4525 1.22449 12.5938 1.22449C12.735 1.22449 12.8359 1.21172 12.8359 1.19388C12.8359 1.17603 12.9368 1.16327 13.0781 1.16327C13.2194 1.16327 13.3203 1.1505 13.3203 1.13265C13.3203 1.11395 13.4616 1.10204 13.6836 1.10204C13.9056 1.10204 14.0469 1.09013 14.0469 1.07143C14.0469 1.05144 14.5514 1.04082 15.5 1.04082C16.4486 1.04082 16.9531 1.05144 16.9531 1.07143C16.9531 1.09013 17.0944 1.10204 17.3164 1.10204C17.5384 1.10204 17.6797 1.11395 17.6797 1.13265C17.6797 1.1505 17.7806 1.16327 17.9219 1.16327C18.0632 1.16327 18.1641 1.17603 18.1641 1.19388C18.1641 1.21172 18.265 1.22449 18.4062 1.22449C18.5475 1.22449 18.6484 1.23726 18.6484 1.2551C18.6484 1.27212 18.7292 1.28571 18.8301 1.28571C18.931 1.28571 19.0117 1.29931 19.0117 1.31633C19.0117 1.33335 19.0925 1.34694 19.1934 1.34694C19.2943 1.34694 19.375 1.36053 19.375 1.37755C19.375 1.39439 19.4295 1.40816 19.4961 1.40816C19.5627 1.40816 19.6172 1.42194 19.6172 1.43878C19.6172 1.45561 19.6853 1.46939 19.7686 1.46939C19.8518 1.46939 19.9199 1.48316 19.9199 1.5C19.9199 1.51684 19.988 1.53061 20.0713 1.53061C20.1545 1.53061 20.2227 1.54439 20.2227 1.56122C20.2227 1.57806 20.2771 1.59184 20.3438 1.59184C20.4104 1.59184 20.4648 1.60561 20.4648 1.62245C20.4648 1.63929 20.5193 1.65306 20.5859 1.65306C20.6525 1.65306 20.707 1.66684 20.707 1.68367C20.707 1.70051 20.7479 1.71429 20.7979 1.71429C20.8478 1.71429 20.8887 1.72806 20.8887 1.7449C20.8887 1.76173 20.9432 1.77551 21.0098 1.77551C21.0764 1.77551 21.1309 1.78929 21.1309 1.80612C21.1309 1.82296 21.1854 1.83673 21.252 1.83673C21.3186 1.83673 21.373 1.85051 21.373 1.86735C21.373 1.88418 21.4139 1.89796 21.4639 1.89796C21.5138 1.89796 21.5547 1.91173 21.5547 1.92857C21.5547 1.94541 21.5956 1.95918 21.6455 1.95918C21.6955 1.95918 21.7363 1.97296 21.7363 1.9898C21.7363 2.00663 21.7772 2.02041 21.8271 2.02041C21.8771 2.02041 21.918 2.03418 21.918 2.05102C21.918 2.06786 21.9588 2.08163 22.0088 2.08163C22.0587 2.08163 22.0996 2.09541 22.0996 2.11224C22.0996 2.12908 22.1405 2.14286 22.1904 2.14286C22.2404 2.14286 22.2812 2.15663 22.2812 2.17347C22.2812 2.19031 22.3221 2.20408 22.3721 2.20408C22.422 2.20408 22.4629 2.21786 22.4629 2.23469C22.4629 2.25153 22.5038 2.26531 22.5537 2.26531C22.6037 2.26531 22.6445 2.27908 22.6445 2.29592C22.6445 2.31276 22.6718 2.32653 22.7051 2.32653C22.7384 2.32653 22.7656 2.34031 22.7656 2.35714C22.7656 2.37398 22.8065 2.38776 22.8564 2.38776C22.9064 2.38776 22.9473 2.40153 22.9473 2.41837C22.9473 2.4352 22.9881 2.44898 23.0381 2.44898C23.088 2.44898 23.1289 2.46276 23.1289 2.47959C23.1289 2.49643 23.1562 2.5102 23.1895 2.5102C23.2228 2.5102 23.25 2.52398 23.25 2.54082C23.25 2.55765 23.2909 2.57143 23.3408 2.57143C23.3908 2.57143 23.4316 2.5852 23.4316 2.60204C23.4316 2.61888 23.4589 2.63265 23.4922 2.63265C23.5255 2.63265 23.5527 2.64643 23.5527 2.66327C23.5527 2.6801 23.58 2.69388 23.6133 2.69388C23.6466 2.69388 23.6738 2.70765 23.6738 2.72449C23.6738 2.74133 23.7147 2.7551 23.7646 2.7551C23.8146 2.7551 23.8555 2.76888 23.8555 2.78571C23.8555 2.80255 23.8827 2.81633 23.916 2.81633C23.9493 2.81633 23.9766 2.8301 23.9766 2.84694C23.9766 2.86378 24.0038 2.87755 24.0371 2.87755C24.0704 2.87755 24.0977 2.89133 24.0977 2.90816C24.0977 2.925 24.1249 2.93878 24.1582 2.93878C24.1915 2.93878 24.2187 2.95255 24.2187 2.96939C24.2187 2.98622 24.246 3 24.2793 3C24.3126 3 24.3398 3.01378 24.3398 3.03061C24.3398 3.04745 24.3671 3.06122 24.4004 3.06122C24.4337 3.06122 24.4609 3.075 24.4609 3.09184C24.4609 3.10867 24.5018 3.12245 24.5518 3.12245C24.6017 3.12245 24.6426 3.13622 24.6426 3.15306C24.6426 3.1699 24.6698 3.18367 24.7031 3.18367C24.7364 3.18367 24.7637 3.19745 24.7637 3.21429C24.7637 3.23112 24.7909 3.2449 24.8242 3.2449C24.8575 3.2449 24.8848 3.25867 24.8848 3.27551C24.8848 3.29235 24.912 3.30612 24.9453 3.30612C24.9786 3.30612 25.0059 3.3199 25.0059 3.33673C25.0059 3.35357 25.0301 3.36735 25.0597 3.36735C25.0894 3.36735 25.1332 3.3949 25.1572 3.42857C25.1812 3.46224 25.2251 3.4898 25.2547 3.4898C25.2843 3.4898 25.3086 3.50357 25.3086 3.52041C25.3086 3.53725 25.3358 3.55102 25.3691 3.55102C25.4024 3.55102 25.4297 3.5648 25.4297 3.58163C25.4297 3.59847 25.4569 3.61225 25.4902 3.61225C25.5235 3.61225 25.5508 3.62602 25.5508 3.64286C25.5508 3.65969 25.575 3.67347 25.6046 3.67347C25.6343 3.67347 25.6781 3.70102 25.7021 3.73469C25.7262 3.76837 25.77 3.79592 25.7997 3.79592C25.8293 3.79592 25.8535 3.80969 25.8535 3.82653C25.8535 3.84337 25.8808 3.85714 25.9141 3.85714C25.9474 3.85714 25.9746 3.87092 25.9746 3.88776C25.9746 3.90459 25.9989 3.91837 26.0285 3.91837C26.0581 3.91837 26.102 3.94592 26.126 3.97959C26.15 4.01327 26.1909 4.04082 26.2168 4.04082C26.2427 4.04082 26.2836 4.06837 26.3076 4.10204C26.3316 4.13571 26.3755 4.16327 26.4051 4.16327C26.4347 4.16327 26.459 4.17704 26.459 4.19388C26.459 4.21071 26.4832 4.22449 26.5128 4.22449C26.5425 4.22449 26.5863 4.25204 26.6104 4.28571C26.6344 4.31939 26.6752 4.34694 26.7012 4.34694C26.7271 4.34694 26.768 4.37449 26.792 4.40816C26.816 4.44184 26.8569 4.46939 26.8828 4.46939C26.9088 4.46939 26.9496 4.49694 26.9736 4.53061C26.9976 4.56429 27.0385 4.59184 27.0645 4.59184C27.0904 4.59184 27.1313 4.61939 27.1553 4.65306C27.1793 4.68673 27.2201 4.71429 27.2461 4.71429C27.272 4.71429 27.3129 4.74184 27.3369 4.77551C27.3609 4.80918 27.3993 4.83673 27.4223 4.83673C27.4452 4.83673 27.5022 4.87806 27.5488 4.92857C27.5955 4.97908 27.65 5.02041 27.6699 5.02041C27.6899 5.02041 27.7444 5.06173 27.791 5.11225C27.8377 5.16276 27.8922 5.20408 27.9121 5.20408C27.9321 5.20408 27.9866 5.24541 28.0332 5.29592C28.0799 5.34643 28.1343 5.38775 28.1543 5.38775C28.1742 5.38775 28.2287 5.42908 28.2754 5.47959C28.322 5.5301 28.3761 5.57143 28.3955 5.57143C28.4148 5.57143 28.497 5.64031 28.5781 5.72449C28.6592 5.80867 28.7408 5.87755 28.7595 5.87755C28.7781 5.87755 28.8736 5.9602 28.9717 6.06122C29.0697 6.16225 29.1647 6.2449 29.1827 6.2449C29.2007 6.2449 29.4054 6.43776 29.6377 6.67347C29.87 6.90918 30.0753 7.10204 30.094 7.10204C30.1127 7.10204 30.1662 7.14337 30.2129 7.19388C30.2906 7.27797 30.3146 7.28571 30.4975 7.28571C30.6105 7.28571 30.6973 7.27243 30.6973 7.2551C30.6973 7.23827 30.7183 7.22449 30.744 7.22449C30.8046 7.22449 30.9395 7.08814 30.9395 7.02689C30.9395 7.00087 30.9531 6.97959 30.9697 6.97959C30.9864 6.97959 31 6.91071 31 6.82653C31 6.74235 30.9864 6.67347 30.9697 6.67347C30.9531 6.67347 30.9395 6.64592 30.9395 6.61225C30.9395 6.57857 30.9258 6.55102 30.9092 6.55102C30.8925 6.55102 30.8789 6.5299 30.8789 6.50409C30.8789 6.45116 30.6863 6.2449 30.6369 6.2449C30.6192 6.2449 30.4284 6.06582 30.2129 5.84694C29.9973 5.62806 29.8062 5.44898 29.7882 5.44898C29.7702 5.44898 29.6752 5.36633 29.5771 5.26531C29.4791 5.16429 29.3834 5.08163 29.3645 5.08163C29.3456 5.08163 29.2779 5.02653 29.2139 4.95918C29.1499 4.89184 29.0818 4.83673 29.0625 4.83673C29.0432 4.83673 28.9751 4.78163 28.9111 4.71429C28.8471 4.64694 28.7787 4.59184 28.7592 4.59184C28.7395 4.59184 28.6853 4.55051 28.6387 4.5C28.592 4.44949 28.5375 4.40816 28.5176 4.40816C28.4976 4.40816 28.4431 4.36684 28.3965 4.31633C28.3498 4.26582 28.2929 4.22449 28.2699 4.22449C28.247 4.22449 28.2086 4.19694 28.1846 4.16327C28.1606 4.12959 28.1221 4.10204 28.0992 4.10204C28.0763 4.10204 28.0193 4.06071 27.9727 4.0102C27.926 3.95969 27.869 3.91837 27.8461 3.91837C27.8232 3.91837 27.7847 3.89082 27.7607 3.85714C27.7367 3.82347 27.6959 3.79592 27.6699 3.79592C27.644 3.79592 27.6031 3.76837 27.5791 3.73469C27.5551 3.70102 27.5142 3.67347 27.4883 3.67347C27.4623 3.67347 27.4215 3.64592 27.3975 3.61225C27.3735 3.57857 27.3326 3.55102 27.3066 3.55102C27.2807 3.55102 27.2398 3.52347 27.2158 3.4898C27.1918 3.45612 27.1479 3.42857 27.1183 3.42857C27.0887 3.42857 27.0645 3.4148 27.0645 3.39796C27.0645 3.38112 27.0402 3.36735 27.0106 3.36735C26.981 3.36735 26.9371 3.3398 26.9131 3.30612C26.8891 3.27245 26.8482 3.2449 26.8223 3.2449C26.7963 3.2449 26.7555 3.21735 26.7314 3.18367C26.7074 3.15 26.6636 3.12245 26.6339 3.12245C26.6043 3.12245 26.5801 3.10867 26.5801 3.09184C26.5801 3.075 26.5558 3.06122 26.5262 3.06122C26.4966 3.06122 26.4527 3.03367 26.4287 3C26.4047 2.96633 26.3608 2.93878 26.3312 2.93878C26.3016 2.93878 26.2773 2.925 26.2773 2.90816C26.2773 2.89133 26.2501 2.87755 26.2168 2.87755C26.1835 2.87755 26.1562 2.86378 26.1562 2.84694C26.1562 2.8301 26.129 2.81633 26.0957 2.81633C26.0624 2.81633 26.0352 2.80255 26.0352 2.78571C26.0352 2.76888 26.0109 2.7551 25.9813 2.7551C25.9517 2.7551 25.9078 2.72755 25.8838 2.69388C25.8598 2.6602 25.8159 2.63265 25.7863 2.63265C25.7567 2.63265 25.7324 2.61888 25.7324 2.60204C25.7324 2.5852 25.7052 2.57143 25.6719 2.57143C25.6386 2.57143 25.6113 2.55765 25.6113 2.54082C25.6113 2.52398 25.5841 2.5102 25.5508 2.5102C25.5175 2.5102 25.4902 2.49643 25.4902 2.47959C25.4902 2.46276 25.463 2.44898 25.4297 2.44898C25.3964 2.44898 25.3691 2.4352 25.3691 2.41837C25.3691 2.40153 25.3419 2.38776 25.3086 2.38776C25.2753 2.38776 25.248 2.37398 25.248 2.35714C25.248 2.34031 25.2208 2.32653 25.1875 2.32653C25.1542 2.32653 25.127 2.31276 25.127 2.29592C25.127 2.27908 25.0997 2.26531 25.0664 2.26531C25.0331 2.26531 25.0059 2.25153 25.0059 2.23469C25.0059 2.21786 24.9786 2.20408 24.9453 2.20408C24.912 2.20408 24.8848 2.19031 24.8848 2.17347C24.8848 2.15663 24.8575 2.14286 24.8242 2.14286C24.7909 2.14286 24.7637 2.12908 24.7637 2.11224C24.7637 2.09541 24.7364 2.08163 24.7031 2.08163C24.6698 2.08163 24.6426 2.06786 24.6426 2.05102C24.6426 2.03418 24.6153 2.02041 24.582 2.02041C24.5487 2.02041 24.5215 2.00663 24.5215 1.9898C24.5215 1.97296 24.4806 1.95918 24.4307 1.95918C24.3807 1.95918 24.3398 1.94541 24.3398 1.92857C24.3398 1.91173 24.3126 1.89796 24.2793 1.89796C24.246 1.89796 24.2187 1.88418 24.2187 1.86735C24.2187 1.85051 24.1915 1.83673 24.1582 1.83673C24.1249 1.83673 24.0977 1.82296 24.0977 1.80612C24.0977 1.78929 24.0704 1.77551 24.0371 1.77551C24.0038 1.77551 23.9766 1.76173 23.9766 1.7449C23.9766 1.72806 23.9357 1.71429 23.8857 1.71429C23.8358 1.71429 23.7949 1.70051 23.7949 1.68367C23.7949 1.66684 23.7677 1.65306 23.7344 1.65306C23.7011 1.65306 23.6738 1.63929 23.6738 1.62245C23.6738 1.60561 23.633 1.59184 23.583 1.59184C23.5331 1.59184 23.4922 1.57806 23.4922 1.56122C23.4922 1.54439 23.4649 1.53061 23.4316 1.53061C23.3983 1.53061 23.3711 1.51684 23.3711 1.5C23.3711 1.48316 23.3302 1.46939 23.2803 1.46939C23.2303 1.46939 23.1895 1.45561 23.1895 1.43878C23.1895 1.42194 23.1486 1.40816 23.0986 1.40816C23.0487 1.40816 23.0078 1.39439 23.0078 1.37755C23.0078 1.36071 22.9806 1.34694 22.9473 1.34694C22.914 1.34694 22.8867 1.33316 22.8867 1.31633C22.8867 1.29949 22.8458 1.28571 22.7959 1.28571C22.7459 1.28571 22.7051 1.27194 22.7051 1.2551C22.7051 1.23827 22.6642 1.22449 22.6143 1.22449C22.5643 1.22449 22.5234 1.21071 22.5234 1.19388C22.5234 1.17704 22.4826 1.16327 22.4326 1.16327C22.3827 1.16327 22.3418 1.14949 22.3418 1.13265C22.3418 1.11582 22.3009 1.10204 22.251 1.10204C22.201 1.10204 22.1602 1.08827 22.1602 1.07143C22.1602 1.05459 22.1193 1.04082 22.0693 1.04082C22.0194 1.04082 21.9785 1.02704 21.9785 1.0102C21.9785 0.993367 21.9376 0.979592 21.8877 0.979592C21.8377 0.979592 21.7969 0.965816 21.7969 0.94898C21.7969 0.932143 21.7424 0.918367 21.6758 0.918367C21.6092 0.918367 21.5547 0.904592 21.5547 0.887755C21.5547 0.870918 21.5138 0.857143 21.4639 0.857143C21.4139 0.857143 21.373 0.843367 21.373 0.826531C21.373 0.809694 21.3186 0.795918 21.252 0.795918C21.1854 0.795918 21.1309 0.782143 21.1309 0.765306C21.1309 0.748469 21.0764 0.734694 21.0098 0.734694C20.9432 0.734694 20.8887 0.720918 20.8887 0.704082C20.8887 0.687245 20.8342 0.673469 20.7676 0.673469C20.701 0.673469 20.6465 0.659694 20.6465 0.642857C20.6465 0.62602 20.592 0.612245 20.5254 0.612245C20.4588 0.612245 20.4043 0.598469 20.4043 0.581633C20.4043 0.564796 20.3362 0.55102 20.2529 0.55102C20.1697 0.55102 20.1016 0.537245 20.1016 0.520408C20.1016 0.503571 20.0471 0.489796 19.9805 0.489796C19.9139 0.489796 19.8594 0.47602 19.8594 0.459184C19.8594 0.442347 19.7913 0.428571 19.708 0.428571C19.6248 0.428571 19.5566 0.414796 19.5566 0.397959C19.5566 0.380939 19.4759 0.367347 19.375 0.367347C19.2741 0.367347 19.1934 0.353755 19.1934 0.336735C19.1934 0.319714 19.1126 0.306122 19.0117 0.306122C18.9108 0.306122 18.8301 0.292531 18.8301 0.27551C18.8301 0.258031 18.7393 0.244898 18.6182 0.244898C18.4971 0.244898 18.4062 0.231765 18.4062 0.214286C18.4062 0.196439 18.3053 0.183673 18.1641 0.183673C18.0228 0.183673 17.9219 0.170908 17.9219 0.153061C17.9219 0.13451 17.7907 0.122449 17.5889 0.122449C17.387 0.122449 17.2559 0.110388 17.2559 0.0918367C17.2559 0.072551 17.054 0.0612245 16.7109 0.0612245C16.3678 0.0612245 16.166 0.049898 16.166 0.0306122C16.166 0.0110816 15.9137 0 15.4697 0C15.0257 0 14.7734 0.0110816 14.7734 0.0306122ZM14.0469 4.07143C14.0469 4.0898 13.9258 4.10204 13.7441 4.10204C13.5625 4.10204 13.4414 4.11429 13.4414 4.13265C13.4414 4.1505 13.3405 4.16327 13.1992 4.16327C13.0579 4.16327 12.957 4.17603 12.957 4.19388C12.957 4.2109 12.8763 4.22449 12.7754 4.22449C12.6745 4.22449 12.5938 4.23808 12.5938 4.2551C12.5938 4.27212 12.513 4.28571 12.4121 4.28571C12.3112 4.28571 12.2305 4.29931 12.2305 4.31633C12.2305 4.33316 12.1624 4.34694 12.0791 4.34694C11.9958 4.34694 11.9277 4.36071 11.9277 4.37755C11.9277 4.39439 11.8596 4.40816 11.7764 4.40816C11.6931 4.40816 11.625 4.42194 11.625 4.43878C11.625 4.45561 11.5705 4.46939 11.5039 4.46939C11.4373 4.46939 11.3828 4.48316 11.3828 4.5C11.3828 4.51684 11.3147 4.53061 11.2314 4.53061C11.1482 4.53061 11.0801 4.54439 11.0801 4.56122C11.0801 4.57806 11.0392 4.59184 10.9893 4.59184C10.9393 4.59184 10.8984 4.60561 10.8984 4.62245C10.8984 4.63929 10.8439 4.65306 10.7773 4.65306C10.7107 4.65306 10.6562 4.66684 10.6562 4.68367C10.6562 4.70051 10.6154 4.71429 10.5654 4.71429C10.5155 4.71429 10.4746 4.72806 10.4746 4.7449C10.4746 4.76173 10.4201 4.77551 10.3535 4.77551C10.2869 4.77551 10.2324 4.78929 10.2324 4.80612C10.2324 4.82296 10.1916 4.83673 10.1416 4.83673C10.0917 4.83673 10.0508 4.85051 10.0508 4.86735C10.0508 4.88418 10.0099 4.89796 9.95996 4.89796C9.91001 4.89796 9.86914 4.91173 9.86914 4.92857C9.86914 4.94541 9.82827 4.95918 9.77832 4.95918C9.72837 4.95918 9.6875 4.97296 9.6875 4.9898C9.6875 5.00663 9.64663 5.02041 9.59668 5.02041C9.54673 5.02041 9.50586 5.03418 9.50586 5.05102C9.50586 5.06786 9.47861 5.08163 9.44531 5.08163C9.41201 5.08163 9.38476 5.09541 9.38476 5.11225C9.38476 5.12908 9.3439 5.14286 9.29394 5.14286C9.24399 5.14286 9.20312 5.15663 9.20312 5.17347C9.20312 5.19031 9.16226 5.20408 9.1123 5.20408C9.06235 5.20408 9.02148 5.21786 9.02148 5.23469C9.02148 5.25153 8.99424 5.26531 8.96094 5.26531C8.92764 5.26531 8.90039 5.27908 8.90039 5.29592C8.90039 5.31276 8.85952 5.32653 8.80957 5.32653C8.75962 5.32653 8.71875 5.34031 8.71875 5.35714C8.71875 5.37398 8.6915 5.38775 8.6582 5.38775C8.6249 5.38775 8.59766 5.40153 8.59766 5.41837C8.59766 5.4352 8.57041 5.44898 8.53711 5.44898C8.50381 5.44898 8.47656 5.46276 8.47656 5.47959C8.47656 5.49643 8.43569 5.5102 8.38574 5.5102C8.33579 5.5102 8.29492 5.52398 8.29492 5.54082C8.29492 5.55765 8.26768 5.57143 8.23438 5.57143C8.20107 5.57143 8.17383 5.5852 8.17383 5.60204C8.17383 5.61888 8.14658 5.63265 8.11328 5.63265C8.07998 5.63265 8.05273 5.64643 8.05273 5.66327C8.05273 5.6801 8.02549 5.69388 7.99219 5.69388C7.95889 5.69388 7.93164 5.70765 7.93164 5.72449C7.93164 5.74133 7.90439 5.7551 7.87109 5.7551C7.83779 5.7551 7.81055 5.76888 7.81055 5.78571C7.81055 5.80255 7.7833 5.81633 7.75 5.81633C7.7167 5.81633 7.68945 5.8301 7.68945 5.84694C7.68945 5.86378 7.66221 5.87755 7.62891 5.87755C7.5956 5.87755 7.56836 5.89133 7.56836 5.90816C7.56836 5.925 7.54111 5.93878 7.50781 5.93878C7.47451 5.93878 7.44727 5.95255 7.44727 5.96939C7.44727 5.98622 7.42002 6 7.38672 6C7.35342 6 7.32617 6.01378 7.32617 6.03061C7.32617 6.04745 7.29893 6.06122 7.26562 6.06122C7.23232 6.06122 7.20508 6.075 7.20508 6.09184C7.20508 6.10867 7.17783 6.12245 7.14453 6.12245C7.11123 6.12245 7.08398 6.13622 7.08398 6.15306C7.08398 6.1699 7.05674 6.18367 7.02344 6.18367C6.99014 6.18367 6.96289 6.19745 6.96289 6.21429C6.96289 6.23112 6.93864 6.2449 6.90903 6.2449C6.8794 6.2449 6.83553 6.27245 6.81152 6.30612C6.78752 6.3398 6.74365 6.36735 6.71401 6.36735C6.68441 6.36735 6.66016 6.38112 6.66016 6.39796C6.66016 6.4148 6.63291 6.42857 6.59961 6.42857C6.56631 6.42857 6.53906 6.44235 6.53906 6.45918C6.53906 6.47602 6.51481 6.4898 6.48521 6.4898C6.45557 6.4898 6.4117 6.51735 6.3877 6.55102C6.36369 6.58469 6.31982 6.61225 6.29018 6.61225C6.26058 6.61225 6.23633 6.62602 6.23633 6.64286C6.23633 6.65969 6.21208 6.67347 6.18247 6.67347C6.15283 6.67347 6.10897 6.70102 6.08496 6.73469C6.06095 6.76837 6.02008 6.79592 5.99414 6.79592C5.9682 6.79592 5.92733 6.82347 5.90332 6.85714C5.87931 6.89082 5.83844 6.91837 5.8125 6.91837C5.78656 6.91837 5.74569 6.94592 5.72168 6.97959C5.69767 7.01327 5.6568 7.04082 5.63086 7.04082C5.60491 7.04082 5.56405 7.06837 5.54004 7.10204C5.51603 7.13571 5.47516 7.16327 5.44922 7.16327C5.42327 7.16327 5.38241 7.19082 5.3584 7.22449C5.33439 7.25816 5.29597 7.28571 5.27303 7.28571C5.25011 7.28571 5.19314 7.32704 5.14648 7.37755C5.09983 7.42806 5.04286 7.46939 5.01994 7.46939C4.99699 7.46939 4.95858 7.49694 4.93457 7.53061C4.91056 7.56429 4.87245 7.59184 4.84983 7.59184C4.82722 7.59184 4.75638 7.64694 4.69238 7.71429C4.62838 7.78163 4.56027 7.83673 4.54102 7.83673C4.52176 7.83673 4.45365 7.89184 4.38965 7.95918C4.32565 8.02653 4.25787 8.08163 4.23898 8.08163C4.22009 8.08163 4.12442 8.16429 4.02637 8.26531C3.92831 8.36633 3.83359 8.44898 3.81588 8.44898C3.76544 8.44898 2.8457 9.39193 2.8457 9.44363C2.8457 9.46901 2.83208 9.4898 2.81543 9.4898C2.79878 9.4898 2.78516 9.5449 2.78516 9.61225C2.78516 9.67959 2.79878 9.73469 2.81543 9.73469C2.83208 9.73469 2.8457 9.76974 2.8457 9.8126C2.8457 9.89853 2.96755 10.0408 3.04112 10.0408C3.06685 10.0408 3.08789 10.0546 3.08789 10.0714C3.08789 10.0888 3.17647 10.102 3.29311 10.102C3.46361 10.102 3.50572 10.0917 3.54199 10.0408C3.566 10.0071 3.60342 9.97959 3.62518 9.97959C3.64695 9.97959 3.84109 9.80051 4.05664 9.58163C4.27219 9.36275 4.4633 9.18367 4.48132 9.18367C4.49936 9.18367 4.59433 9.10102 4.69238 9C4.79044 8.89898 4.88641 8.81633 4.9056 8.81633C4.92482 8.81633 4.97874 8.775 5.02539 8.72449C5.07204 8.67398 5.12626 8.63265 5.14588 8.63265C5.16547 8.63265 5.23385 8.57755 5.29785 8.5102C5.36185 8.44286 5.43024 8.38776 5.44982 8.38776C5.46944 8.38776 5.52366 8.34643 5.57031 8.29592C5.61696 8.24541 5.67394 8.20408 5.69686 8.20408C5.7198 8.20408 5.75822 8.17653 5.78223 8.14286C5.80623 8.10918 5.8471 8.08163 5.87305 8.08163C5.89899 8.08163 5.93986 8.05408 5.96387 8.02041C5.98787 7.98673 6.02874 7.95918 6.05469 7.95918C6.08063 7.95918 6.1215 7.93163 6.14551 7.89796C6.16951 7.86429 6.21038 7.83673 6.23633 7.83673C6.26227 7.83673 6.30314 7.80918 6.32715 7.77551C6.35115 7.74184 6.39202 7.71429 6.41797 7.71429C6.44391 7.71429 6.48478 7.68674 6.50879 7.65306C6.5328 7.61939 6.57367 7.59184 6.59961 7.59184C6.62555 7.59184 6.66642 7.56429 6.69043 7.53061C6.71444 7.49694 6.7583 7.46939 6.78794 7.46939C6.81755 7.46939 6.8418 7.45561 6.8418 7.43878C6.8418 7.42194 6.86605 7.40816 6.89565 7.40816C6.92529 7.40816 6.96916 7.38061 6.99316 7.34694C7.01717 7.31327 7.06104 7.28571 7.09067 7.28571C7.12028 7.28571 7.14453 7.27194 7.14453 7.2551C7.14453 7.23827 7.17178 7.22449 7.20508 7.22449C7.23838 7.22449 7.26562 7.21071 7.26562 7.19388C7.26562 7.17704 7.29287 7.16327 7.32617 7.16327C7.35947 7.16327 7.38672 7.14949 7.38672 7.13265C7.38672 7.11582 7.41097 7.10204 7.44058 7.10204C7.47021 7.10204 7.51408 7.07449 7.53809 7.04082C7.56209 7.00714 7.60596 6.97959 7.6356 6.97959C7.6652 6.97959 7.68945 6.96582 7.68945 6.94898C7.68945 6.93214 7.7167 6.91837 7.75 6.91837C7.7833 6.91837 7.81055 6.90459 7.81055 6.88776C7.81055 6.87092 7.83779 6.85714 7.87109 6.85714C7.90439 6.85714 7.93164 6.84337 7.93164 6.82653C7.93164 6.80969 7.95889 6.79592 7.99219 6.79592C8.02549 6.79592 8.05273 6.78214 8.05273 6.76531C8.05273 6.74847 8.07998 6.73469 8.11328 6.73469C8.14658 6.73469 8.17383 6.72092 8.17383 6.70408C8.17383 6.68724 8.20107 6.67347 8.23438 6.67347C8.26768 6.67347 8.29492 6.65969 8.29492 6.64286C8.29492 6.62602 8.32217 6.61225 8.35547 6.61225C8.38877 6.61225 8.41602 6.59847 8.41602 6.58163C8.41602 6.5648 8.45688 6.55102 8.50684 6.55102C8.55679 6.55102 8.59766 6.53724 8.59766 6.52041C8.59766 6.50357 8.6249 6.4898 8.6582 6.4898C8.6915 6.4898 8.71875 6.47602 8.71875 6.45918C8.71875 6.44235 8.746 6.42857 8.7793 6.42857C8.8126 6.42857 8.83984 6.4148 8.83984 6.39796C8.83984 6.38112 8.86709 6.36735 8.90039 6.36735C8.93369 6.36735 8.96094 6.35357 8.96094 6.33673C8.96094 6.3199 9.00181 6.30612 9.05176 6.30612C9.10171 6.30612 9.14258 6.29235 9.14258 6.27551C9.14258 6.25867 9.16982 6.2449 9.20312 6.2449C9.23643 6.2449 9.26367 6.23112 9.26367 6.21429C9.26367 6.19745 9.30454 6.18367 9.35449 6.18367C9.40444 6.18367 9.44531 6.1699 9.44531 6.15306C9.44531 6.13622 9.48618 6.12245 9.53613 6.12245C9.58608 6.12245 9.62695 6.10867 9.62695 6.09184C9.62695 6.075 9.6542 6.06122 9.6875 6.06122C9.7208 6.06122 9.74805 6.04745 9.74805 6.03061C9.74805 6.01378 9.78892 6 9.83887 6C9.88882 6 9.92969 5.98622 9.92969 5.96939C9.92969 5.95255 9.97056 5.93878 10.0205 5.93878C10.0705 5.93878 10.1113 5.925 10.1113 5.90816C10.1113 5.89133 10.1522 5.87755 10.2021 5.87755C10.2521 5.87755 10.293 5.86378 10.293 5.84694C10.293 5.8301 10.3338 5.81633 10.3838 5.81633C10.4337 5.81633 10.4746 5.80255 10.4746 5.78571C10.4746 5.76888 10.5155 5.7551 10.5654 5.7551C10.6154 5.7551 10.6562 5.74133 10.6562 5.72449C10.6562 5.70765 10.7107 5.69388 10.7773 5.69388C10.8439 5.69388 10.8984 5.6801 10.8984 5.66327C10.8984 5.64643 10.9529 5.63265 11.0195 5.63265C11.0861 5.63265 11.1406 5.61888 11.1406 5.60204C11.1406 5.5852 11.1815 5.57143 11.2314 5.57143C11.2814 5.57143 11.3223 5.55765 11.3223 5.54082C11.3223 5.52398 11.3768 5.5102 11.4434 5.5102C11.51 5.5102 11.5645 5.49643 11.5645 5.47959C11.5645 5.46276 11.6326 5.44898 11.7158 5.44898C11.7991 5.44898 11.8672 5.4352 11.8672 5.41837C11.8672 5.40153 11.9217 5.38775 11.9883 5.38775C12.0549 5.38775 12.1094 5.37398 12.1094 5.35714C12.1094 5.34031 12.1775 5.32653 12.2607 5.32653C12.344 5.32653 12.4121 5.31276 12.4121 5.29592C12.4121 5.2789 12.4928 5.26531 12.5938 5.26531C12.6947 5.26531 12.7754 5.25171 12.7754 5.23469C12.7754 5.21721 12.8662 5.20408 12.9873 5.20408C13.1084 5.20408 13.1992 5.19095 13.1992 5.17347C13.1992 5.15562 13.3001 5.14286 13.4414 5.14286C13.5827 5.14286 13.6836 5.13009 13.6836 5.11225C13.6836 5.09354 13.8249 5.08163 14.0469 5.08163C14.2689 5.08163 14.4102 5.06972 14.4102 5.05102C14.4102 5.03118 14.7936 5.02041 15.5 5.02041C16.2064 5.02041 16.5898 5.03118 16.5898 5.05102C16.5898 5.06972 16.7311 5.08163 16.9531 5.08163C17.1751 5.08163 17.3164 5.09354 17.3164 5.11225C17.3164 5.13009 17.4173 5.14286 17.5586 5.14286C17.6999 5.14286 17.8008 5.15562 17.8008 5.17347C17.8008 5.19095 17.8916 5.20408 18.0127 5.20408C18.1338 5.20408 18.2246 5.21721 18.2246 5.23469C18.2246 5.25171 18.3053 5.26531 18.4062 5.26531C18.5072 5.26531 18.5879 5.2789 18.5879 5.29592C18.5879 5.31276 18.656 5.32653 18.7393 5.32653C18.8225 5.32653 18.8906 5.34031 18.8906 5.35714C18.8906 5.37398 18.9451 5.38775 19.0117 5.38775C19.0783 5.38775 19.1328 5.40153 19.1328 5.41837C19.1328 5.4352 19.2009 5.44898 19.2842 5.44898C19.3674 5.44898 19.4355 5.46276 19.4355 5.47959C19.4355 5.49643 19.49 5.5102 19.5566 5.5102C19.6232 5.5102 19.6777 5.52398 19.6777 5.54082C19.6777 5.55765 19.7186 5.57143 19.7686 5.57143C19.8185 5.57143 19.8594 5.5852 19.8594 5.60204C19.8594 5.61888 19.9139 5.63265 19.9805 5.63265C20.0471 5.63265 20.1016 5.64643 20.1016 5.66327C20.1016 5.6801 20.1561 5.69388 20.2227 5.69388C20.2893 5.69388 20.3438 5.70765 20.3438 5.72449C20.3438 5.74133 20.3846 5.7551 20.4346 5.7551C20.4845 5.7551 20.5254 5.76888 20.5254 5.78571C20.5254 5.80255 20.5663 5.81633 20.6162 5.81633C20.6662 5.81633 20.707 5.8301 20.707 5.84694C20.707 5.86378 20.7479 5.87755 20.7979 5.87755C20.8478 5.87755 20.8887 5.89133 20.8887 5.90816C20.8887 5.925 20.9295 5.93878 20.9795 5.93878C21.0294 5.93878 21.0703 5.95255 21.0703 5.96939C21.0703 5.98622 21.1112 6 21.1611 6C21.2111 6 21.252 6.01378 21.252 6.03061C21.252 6.04745 21.2792 6.06122 21.3125 6.06122C21.3458 6.06122 21.373 6.075 21.373 6.09184C21.373 6.10867 21.4139 6.12245 21.4639 6.12245C21.5138 6.12245 21.5547 6.13622 21.5547 6.15306C21.5547 6.1699 21.5956 6.18367 21.6455 6.18367C21.6955 6.18367 21.7363 6.19745 21.7363 6.21429C21.7363 6.23112 21.7636 6.2449 21.7969 6.2449C21.8302 6.2449 21.8574 6.25867 21.8574 6.27551C21.8574 6.29235 21.8847 6.30612 21.918 6.30612C21.9513 6.30612 21.9785 6.3199 21.9785 6.33673C21.9785 6.35357 22.0194 6.36735 22.0693 6.36735C22.1193 6.36735 22.1602 6.38112 22.1602 6.39796C22.1602 6.4148 22.1874 6.42857 22.2207 6.42857C22.254 6.42857 22.2812 6.44235 22.2812 6.45918C22.2812 6.47602 22.3085 6.4898 22.3418 6.4898C22.3751 6.4898 22.4023 6.50357 22.4023 6.52041C22.4023 6.53724 22.4432 6.55102 22.4932 6.55102C22.5431 6.55102 22.584 6.5648 22.584 6.58163C22.584 6.59847 22.6112 6.61225 22.6445 6.61225C22.6778 6.61225 22.7051 6.62602 22.7051 6.64286C22.7051 6.65969 22.7323 6.67347 22.7656 6.67347C22.7989 6.67347 22.8262 6.68724 22.8262 6.70408C22.8262 6.72092 22.8534 6.73469 22.8867 6.73469C22.92 6.73469 22.9473 6.74847 22.9473 6.76531C22.9473 6.78214 22.9745 6.79592 23.0078 6.79592C23.0411 6.79592 23.0684 6.80969 23.0684 6.82653C23.0684 6.84337 23.0956 6.85714 23.1289 6.85714C23.1622 6.85714 23.1895 6.87092 23.1895 6.88776C23.1895 6.90459 23.2167 6.91837 23.25 6.91837C23.2833 6.91837 23.3105 6.93214 23.3105 6.94898C23.3105 6.96582 23.3348 6.97959 23.3644 6.97959C23.394 6.97959 23.4379 7.00714 23.4619 7.04082C23.4859 7.07449 23.5298 7.10204 23.5594 7.10204C23.589 7.10204 23.6133 7.11582 23.6133 7.13265C23.6133 7.14949 23.6405 7.16327 23.6738 7.16327C23.7071 7.16327 23.7344 7.17704 23.7344 7.19388C23.7344 7.21071 23.7616 7.22449 23.7949 7.22449C23.8282 7.22449 23.8555 7.23827 23.8555 7.2551C23.8555 7.27194 23.8797 7.28571 23.9093 7.28571C23.939 7.28571 23.9828 7.31327 24.0068 7.34694C24.0308 7.38061 24.0717 7.40816 24.0977 7.40816C24.1236 7.40816 24.1645 7.43571 24.1885 7.46939C24.2125 7.50306 24.2563 7.53061 24.286 7.53061C24.3156 7.53061 24.3398 7.54439 24.3398 7.56122C24.3398 7.57806 24.3641 7.59184 24.3937 7.59184C24.4233 7.59184 24.4672 7.61939 24.4912 7.65306C24.5152 7.68674 24.5561 7.71429 24.582 7.71429C24.608 7.71429 24.6488 7.74184 24.6729 7.77551C24.6969 7.80918 24.7377 7.83673 24.7637 7.83673C24.7896 7.83673 24.8305 7.86429 24.8545 7.89796C24.8785 7.93163 24.9194 7.95918 24.9453 7.95918C24.9713 7.95918 25.0121 7.98673 25.0361 8.02041C25.0601 8.05408 25.0986 8.08163 25.1215 8.08163C25.1444 8.08163 25.2014 8.12296 25.248 8.17347C25.2947 8.22398 25.3492 8.26531 25.3691 8.26531C25.3891 8.26531 25.4436 8.30663 25.4902 8.35714C25.5369 8.40765 25.5914 8.44898 25.6113 8.44898C25.6313 8.44898 25.6858 8.49031 25.7324 8.54082C25.7791 8.59133 25.8333 8.63265 25.8529 8.63265C25.8725 8.63265 25.9409 8.68776 26.0049 8.7551C26.0689 8.82245 26.1367 8.87755 26.1556 8.87755C26.1744 8.87755 26.2701 8.9602 26.3682 9.06122C26.4662 9.16225 26.5612 9.2449 26.5793 9.2449C26.5974 9.2449 26.7748 9.4102 26.9736 9.61225C27.1725 9.81429 27.353 9.97959 27.3748 9.97959C27.3966 9.97959 27.434 10.0071 27.458 10.0408C27.4943 10.0917 27.5364 10.102 27.7069 10.102C27.8235 10.102 27.9121 10.0888 27.9121 10.0714C27.9121 10.0546 27.9335 10.0408 27.9597 10.0408C28.0209 10.0408 28.0938 9.9671 28.0938 9.90524C28.0938 9.87879 28.1074 9.85714 28.124 9.85714C28.1407 9.85714 28.1543 9.82959 28.1543 9.79592C28.1543 9.76225 28.1679 9.73469 28.1846 9.73469C28.2012 9.73469 28.2148 9.69337 28.2148 9.64286C28.2148 9.59235 28.2012 9.55102 28.1846 9.55102C28.1679 9.55102 28.1543 9.51646 28.1543 9.47425C28.1543 9.41599 28.0411 9.28301 27.6853 8.92323C27.4273 8.66238 27.2018 8.44898 27.1841 8.44898C27.1664 8.44898 27.0717 8.36633 26.9736 8.26531C26.8756 8.16429 26.7799 8.08163 26.761 8.08163C26.7421 8.08163 26.6744 8.02653 26.6104 7.95918C26.5464 7.89184 26.478 7.83673 26.4584 7.83673C26.4388 7.83673 26.3845 7.79541 26.3379 7.7449C26.2912 7.69439 26.2367 7.65306 26.2168 7.65306C26.1968 7.65306 26.1424 7.61173 26.0957 7.56122C26.0491 7.51071 25.9946 7.46939 25.9746 7.46939C25.9547 7.46939 25.9002 7.42806 25.8535 7.37755C25.8069 7.32704 25.7499 7.28571 25.727 7.28571C25.704 7.28571 25.6656 7.25816 25.6416 7.22449C25.6176 7.19082 25.5767 7.16327 25.5508 7.16327C25.5248 7.16327 25.484 7.13571 25.46 7.10204C25.436 7.06837 25.3951 7.04082 25.3691 7.04082C25.3432 7.04082 25.3023 7.01327 25.2783 6.97959C25.2543 6.94592 25.2134 6.91837 25.1875 6.91837C25.1616 6.91837 25.1207 6.89082 25.0967 6.85714C25.0727 6.82347 25.0318 6.79592 25.0059 6.79592C24.9799 6.79592 24.939 6.76837 24.915 6.73469C24.891 6.70102 24.8472 6.67347 24.8175 6.67347C24.7879 6.67347 24.7637 6.65969 24.7637 6.64286C24.7637 6.62602 24.7394 6.61225 24.7098 6.61225C24.6802 6.61225 24.6363 6.58469 24.6123 6.55102C24.5883 6.51735 24.5444 6.4898 24.5148 6.4898C24.4852 6.4898 24.4609 6.47602 24.4609 6.45918C24.4609 6.44235 24.4337 6.42857 24.4004 6.42857C24.3671 6.42857 24.3398 6.4148 24.3398 6.39796C24.3398 6.38112 24.3156 6.36735 24.286 6.36735C24.2563 6.36735 24.2125 6.3398 24.1885 6.30612C24.1645 6.27245 24.1206 6.2449 24.091 6.2449C24.0614 6.2449 24.0371 6.23112 24.0371 6.21429C24.0371 6.19745 24.0099 6.18367 23.9766 6.18367C23.9433 6.18367 23.916 6.1699 23.916 6.15306C23.916 6.13622 23.8888 6.12245 23.8555 6.12245C23.8222 6.12245 23.7949 6.10867 23.7949 6.09184C23.7949 6.075 23.7677 6.06122 23.7344 6.06122C23.7011 6.06122 23.6738 6.04745 23.6738 6.03061C23.6738 6.01378 23.6466 6 23.6133 6C23.58 6 23.5527 5.98622 23.5527 5.96939C23.5527 5.95255 23.5255 5.93878 23.4922 5.93878C23.4589 5.93878 23.4316 5.925 23.4316 5.90816C23.4316 5.89133 23.4044 5.87755 23.3711 5.87755C23.3378 5.87755 23.3105 5.86378 23.3105 5.84694C23.3105 5.8301 23.2833 5.81633 23.25 5.81633C23.2167 5.81633 23.1895 5.80255 23.1895 5.78571C23.1895 5.76888 23.1622 5.7551 23.1289 5.7551C23.0956 5.7551 23.0684 5.74133 23.0684 5.72449C23.0684 5.70765 23.0411 5.69388 23.0078 5.69388C22.9745 5.69388 22.9473 5.6801 22.9473 5.66327C22.9473 5.64643 22.92 5.63265 22.8867 5.63265C22.8534 5.63265 22.8262 5.61888 22.8262 5.60204C22.8262 5.5852 22.7989 5.57143 22.7656 5.57143C22.7323 5.57143 22.7051 5.55765 22.7051 5.54082C22.7051 5.52398 22.6642 5.5102 22.6143 5.5102C22.5643 5.5102 22.5234 5.49643 22.5234 5.47959C22.5234 5.46276 22.4962 5.44898 22.4629 5.44898C22.4296 5.44898 22.4023 5.4352 22.4023 5.41837C22.4023 5.40153 22.3751 5.38775 22.3418 5.38775C22.3085 5.38775 22.2812 5.37398 22.2812 5.35714C22.2812 5.34031 22.2404 5.32653 22.1904 5.32653C22.1405 5.32653 22.0996 5.31276 22.0996 5.29592C22.0996 5.27908 22.0724 5.26531 22.0391 5.26531C22.0058 5.26531 21.9785 5.25153 21.9785 5.23469C21.9785 5.21786 21.9376 5.20408 21.8877 5.20408C21.8377 5.20408 21.7969 5.19031 21.7969 5.17347C21.7969 5.15663 21.756 5.14286 21.7061 5.14286C21.6561 5.14286 21.6152 5.12908 21.6152 5.11225C21.6152 5.09541 21.588 5.08163 21.5547 5.08163C21.5214 5.08163 21.4941 5.06786 21.4941 5.05102C21.4941 5.03418 21.4533 5.02041 21.4033 5.02041C21.3534 5.02041 21.3125 5.00663 21.3125 4.9898C21.3125 4.97296 21.2716 4.95918 21.2217 4.95918C21.1717 4.95918 21.1309 4.94541 21.1309 4.92857C21.1309 4.91173 21.09 4.89796 21.04 4.89796C20.9901 4.89796 20.9492 4.88418 20.9492 4.86735C20.9492 4.85051 20.9083 4.83673 20.8584 4.83673C20.8084 4.83673 20.7676 4.82296 20.7676 4.80612C20.7676 4.78929 20.7131 4.77551 20.6465 4.77551C20.5799 4.77551 20.5254 4.76173 20.5254 4.7449C20.5254 4.72806 20.4845 4.71429 20.4346 4.71429C20.3846 4.71429 20.3438 4.70051 20.3438 4.68367C20.3438 4.66684 20.2893 4.65306 20.2227 4.65306C20.1561 4.65306 20.1016 4.63929 20.1016 4.62245C20.1016 4.60561 20.0471 4.59184 19.9805 4.59184C19.9139 4.59184 19.8594 4.57806 19.8594 4.56122C19.8594 4.54439 19.8049 4.53061 19.7383 4.53061C19.6717 4.53061 19.6172 4.51684 19.6172 4.5C19.6172 4.48316 19.5627 4.46939 19.4961 4.46939C19.4295 4.46939 19.375 4.45561 19.375 4.43878C19.375 4.42194 19.3069 4.40816 19.2236 4.40816C19.1404 4.40816 19.0723 4.39439 19.0723 4.37755C19.0723 4.36071 19.0042 4.34694 18.9209 4.34694C18.8376 4.34694 18.7695 4.33316 18.7695 4.31633C18.7695 4.29931 18.6888 4.28571 18.5879 4.28571C18.487 4.28571 18.4062 4.27212 18.4062 4.2551C18.4062 4.23808 18.3255 4.22449 18.2246 4.22449C18.1237 4.22449 18.043 4.2109 18.043 4.19388C18.043 4.17603 17.9421 4.16327 17.8008 4.16327C17.6595 4.16327 17.5586 4.1505 17.5586 4.13265C17.5586 4.1141 17.4274 4.10204 17.2256 4.10204C17.0238 4.10204 16.8926 4.08998 16.8926 4.07143C16.8926 4.05147 16.3981 4.04082 15.4697 4.04082C14.5413 4.04082 14.0469 4.05147 14.0469 4.07143ZM14.4102 8.05102C14.4102 8.06939 14.2891 8.08163 14.1074 8.08163C13.9258 8.08163 13.8047 8.09388 13.8047 8.11225C13.8047 8.13009 13.7038 8.14286 13.5625 8.14286C13.4212 8.14286 13.3203 8.15562 13.3203 8.17347C13.3203 8.19031 13.2522 8.20408 13.1689 8.20408C13.0857 8.20408 13.0176 8.21786 13.0176 8.23469C13.0176 8.25153 12.9495 8.26531 12.8662 8.26531C12.783 8.26531 12.7148 8.27908 12.7148 8.29592C12.7148 8.31276 12.6467 8.32653 12.5635 8.32653C12.4802 8.32653 12.4121 8.34031 12.4121 8.35714C12.4121 8.37398 12.3576 8.38776 12.291 8.38776C12.2244 8.38776 12.1699 8.40153 12.1699 8.41837C12.1699 8.4352 12.1154 8.44898 12.0488 8.44898C11.9822 8.44898 11.9277 8.46276 11.9277 8.47959C11.9277 8.49643 11.8732 8.5102 11.8066 8.5102C11.74 8.5102 11.6855 8.52398 11.6855 8.54082C11.6855 8.55765 11.6447 8.57143 11.5947 8.57143C11.5448 8.57143 11.5039 8.5852 11.5039 8.60204C11.5039 8.61888 11.463 8.63265 11.4131 8.63265C11.3631 8.63265 11.3223 8.64643 11.3223 8.66327C11.3223 8.6801 11.2814 8.69388 11.2314 8.69388C11.1815 8.69388 11.1406 8.70765 11.1406 8.72449C11.1406 8.74133 11.0998 8.7551 11.0498 8.7551C10.9999 8.7551 10.959 8.76888 10.959 8.78572C10.959 8.80255 10.9181 8.81633 10.8682 8.81633C10.8182 8.81633 10.7773 8.8301 10.7773 8.84694C10.7773 8.86378 10.7365 8.87755 10.6865 8.87755C10.6366 8.87755 10.5957 8.89133 10.5957 8.90816C10.5957 8.925 10.5685 8.93878 10.5352 8.93878C10.5019 8.93878 10.4746 8.95255 10.4746 8.96939C10.4746 8.98623 10.4337 9 10.3838 9C10.3338 9 10.293 9.01378 10.293 9.03061C10.293 9.04745 10.2657 9.06122 10.2324 9.06122C10.1991 9.06122 10.1719 9.075 10.1719 9.09184C10.1719 9.10867 10.131 9.12245 10.0811 9.12245C10.0311 9.12245 9.99023 9.13622 9.99023 9.15306C9.99023 9.1699 9.96299 9.18367 9.92969 9.18367C9.89639 9.18367 9.86914 9.19745 9.86914 9.21429C9.86914 9.23112 9.84189 9.2449 9.80859 9.2449C9.77529 9.2449 9.74805 9.25867 9.74805 9.27551C9.74805 9.29235 9.7208 9.30612 9.6875 9.30612C9.6542 9.30612 9.62695 9.3199 9.62695 9.33673C9.62695 9.35357 9.59971 9.36735 9.56641 9.36735C9.53311 9.36735 9.50586 9.38112 9.50586 9.39796C9.50586 9.4148 9.47861 9.42857 9.44531 9.42857C9.41201 9.42857 9.38476 9.44235 9.38476 9.45918C9.38476 9.47602 9.35752 9.4898 9.32422 9.4898C9.29092 9.4898 9.26367 9.50357 9.26367 9.52041C9.26367 9.53724 9.23643 9.55102 9.20312 9.55102C9.16982 9.55102 9.14258 9.5648 9.14258 9.58163C9.14258 9.59847 9.11533 9.61225 9.08203 9.61225C9.04873 9.61225 9.02148 9.62602 9.02148 9.64286C9.02148 9.65969 8.99424 9.67347 8.96094 9.67347C8.92764 9.67347 8.90039 9.68725 8.90039 9.70408C8.90039 9.72092 8.87314 9.73469 8.83984 9.73469C8.80654 9.73469 8.7793 9.74847 8.7793 9.76531C8.7793 9.78214 8.75505 9.79592 8.72544 9.79592C8.6958 9.79592 8.65194 9.82347 8.62793 9.85714C8.60392 9.89082 8.56006 9.91837 8.53042 9.91837C8.50081 9.91837 8.47656 9.93214 8.47656 9.94898C8.47656 9.96582 8.45231 9.97959 8.42271 9.97959C8.39307 9.97959 8.3492 10.0071 8.3252 10.0408C8.30119 10.0745 8.25732 10.102 8.22768 10.102C8.19808 10.102 8.17383 10.1158 8.17383 10.1327C8.17383 10.1495 8.14958 10.1633 8.11997 10.1633C8.09033 10.1633 8.04647 10.1908 8.02246 10.2245C7.99845 10.2582 7.95758 10.2857 7.93164 10.2857C7.9057 10.2857 7.86483 10.3133 7.84082 10.3469C7.81681 10.3806 7.77594 10.4082 7.75 10.4082C7.72406 10.4082 7.68319 10.4357 7.65918 10.4694C7.63517 10.5031 7.59676 10.5306 7.57381 10.5306C7.55089 10.5306 7.49392 10.5719 7.44727 10.6224C7.40061 10.673 7.34612 10.7143 7.32617 10.7143C7.30622 10.7143 7.25173 10.7556 7.20508 10.8061C7.15843 10.8566 7.10421 10.898 7.08459 10.898C7.065 10.898 6.99662 10.9531 6.93262 11.0204C6.86862 11.0878 6.80084 11.1429 6.78195 11.1429C6.76306 11.1429 6.66739 11.2255 6.56934 11.3265C6.47128 11.4276 6.37652 11.5102 6.35878 11.5102C6.34101 11.5102 6.17 11.6685 5.97867 11.8619C5.71983 12.1237 5.63086 12.2333 5.63086 12.2905C5.63086 12.3328 5.61724 12.3673 5.60059 12.3673C5.58394 12.3673 5.57031 12.4087 5.57031 12.4592C5.57031 12.5097 5.58394 12.551 5.60059 12.551C5.61724 12.551 5.63086 12.5859 5.63086 12.6286C5.63086 12.7485 5.81516 12.9184 5.94519 12.9184C6.00265 12.9184 6.05759 12.9356 6.06731 12.9566C6.08142 12.9872 6.0885 12.9872 6.10261 12.9566C6.11233 12.9356 6.16001 12.9184 6.20857 12.9184C6.25716 12.9184 6.29688 12.9046 6.29688 12.8878C6.29688 12.8709 6.31779 12.8571 6.34334 12.8571C6.3689 12.8571 6.52508 12.7194 6.69043 12.551C6.85578 12.3827 7.00591 12.2449 7.02407 12.2449C7.04221 12.2449 7.1373 12.1622 7.23535 12.0612C7.33341 11.9602 7.42937 11.8776 7.44857 11.8776C7.46779 11.8776 7.52171 11.8362 7.56836 11.7857C7.61501 11.7352 7.6695 11.6939 7.68945 11.6939C7.7094 11.6939 7.7639 11.6526 7.81055 11.602C7.8572 11.5515 7.91169 11.5102 7.93164 11.5102C7.95159 11.5102 8.00608 11.4689 8.05273 11.4184C8.09939 11.3679 8.15636 11.3265 8.17928 11.3265C8.20222 11.3265 8.24064 11.299 8.26465 11.2653C8.28865 11.2316 8.32952 11.2041 8.35547 11.2041C8.38141 11.2041 8.42228 11.1765 8.44629 11.1429C8.4703 11.1092 8.51117 11.0816 8.53711 11.0816C8.56305 11.0816 8.60392 11.0541 8.62793 11.0204C8.65194 10.9867 8.6958 10.9592 8.72544 10.9592C8.75505 10.9592 8.7793 10.9454 8.7793 10.9286C8.7793 10.9117 8.80354 10.898 8.83315 10.898C8.86279 10.898 8.90666 10.8704 8.93066 10.8367C8.95467 10.8031 8.99854 10.7755 9.02817 10.7755C9.05778 10.7755 9.08203 10.7617 9.08203 10.7449C9.08203 10.7281 9.10928 10.7143 9.14258 10.7143C9.17588 10.7143 9.20312 10.7005 9.20312 10.6837C9.20312 10.6668 9.22737 10.6531 9.25698 10.6531C9.28662 10.6531 9.33049 10.6255 9.35449 10.5918C9.3785 10.5582 9.42237 10.5306 9.452 10.5306C9.48161 10.5306 9.50586 10.5168 9.50586 10.5C9.50586 10.4832 9.53311 10.4694 9.56641 10.4694C9.59971 10.4694 9.62695 10.4556 9.62695 10.4388C9.62695 10.4219 9.6542 10.4082 9.6875 10.4082C9.7208 10.4082 9.74805 10.3944 9.74805 10.3776C9.74805 10.3607 9.77529 10.3469 9.80859 10.3469C9.84189 10.3469 9.86914 10.3332 9.86914 10.3163C9.86914 10.2995 9.89639 10.2857 9.92969 10.2857C9.96299 10.2857 9.99023 10.2719 9.99023 10.2551C9.99023 10.2383 10.0175 10.2245 10.0508 10.2245C10.0841 10.2245 10.1113 10.2107 10.1113 10.1939C10.1113 10.177 10.1522 10.1633 10.2021 10.1633C10.2521 10.1633 10.293 10.1495 10.293 10.1327C10.293 10.1158 10.3202 10.102 10.3535 10.102C10.3868 10.102 10.4141 10.0883 10.4141 10.0714C10.4141 10.0546 10.4413 10.0408 10.4746 10.0408C10.5079 10.0408 10.5352 10.027 10.5352 10.0102C10.5352 9.99337 10.576 9.97959 10.626 9.97959C10.6759 9.97959 10.7168 9.96582 10.7168 9.94898C10.7168 9.93214 10.744 9.91837 10.7773 9.91837C10.8106 9.91837 10.8379 9.90459 10.8379 9.88776C10.8379 9.87092 10.8788 9.85714 10.9287 9.85714C10.9787 9.85714 11.0195 9.84337 11.0195 9.82653C11.0195 9.80969 11.0468 9.79592 11.0801 9.79592C11.1134 9.79592 11.1406 9.78214 11.1406 9.76531C11.1406 9.74847 11.1815 9.73469 11.2314 9.73469C11.2814 9.73469 11.3223 9.72092 11.3223 9.70408C11.3223 9.68725 11.3631 9.67347 11.4131 9.67347C11.463 9.67347 11.5039 9.65969 11.5039 9.64286C11.5039 9.62602 11.5448 9.61225 11.5947 9.61225C11.6447 9.61225 11.6855 9.59847 11.6855 9.58163C11.6855 9.5648 11.74 9.55102 11.8066 9.55102C11.8732 9.55102 11.9277 9.53724 11.9277 9.52041C11.9277 9.50357 11.9822 9.4898 12.0488 9.4898C12.1154 9.4898 12.1699 9.47602 12.1699 9.45918C12.1699 9.44235 12.2244 9.42857 12.291 9.42857C12.3576 9.42857 12.4121 9.4148 12.4121 9.39796C12.4121 9.38112 12.4666 9.36735 12.5332 9.36735C12.5998 9.36735 12.6543 9.35357 12.6543 9.33673C12.6543 9.3199 12.7088 9.30612 12.7754 9.30612C12.842 9.30612 12.8965 9.29235 12.8965 9.27551C12.8965 9.25849 12.9772 9.2449 13.0781 9.2449C13.179 9.2449 13.2598 9.23131 13.2598 9.21429C13.2598 9.19727 13.3405 9.18367 13.4414 9.18367C13.5423 9.18367 13.623 9.17008 13.623 9.15306C13.623 9.13558 13.7139 9.12245 13.835 9.12245C13.9561 9.12245 14.0469 9.10932 14.0469 9.09184C14.0469 9.0728 14.2184 9.06122 14.501 9.06122C14.7835 9.06122 14.9551 9.04965 14.9551 9.03061C14.9551 9.01133 15.1569 9 15.5 9C15.8431 9 16.0449 9.01133 16.0449 9.03061C16.0449 9.04956 16.2064 9.06122 16.4688 9.06122C16.7311 9.06122 16.8926 9.07289 16.8926 9.09184C16.8926 9.10932 16.9834 9.12245 17.1045 9.12245C17.2256 9.12245 17.3164 9.13558 17.3164 9.15306C17.3164 9.17054 17.4072 9.18367 17.5283 9.18367C17.6494 9.18367 17.7402 9.19681 17.7402 9.21429C17.7402 9.23131 17.821 9.2449 17.9219 9.2449C18.0228 9.2449 18.1035 9.25849 18.1035 9.27551C18.1035 9.29235 18.158 9.30612 18.2246 9.30612C18.2912 9.30612 18.3457 9.3199 18.3457 9.33673C18.3457 9.35357 18.4002 9.36735 18.4668 9.36735C18.5334 9.36735 18.5879 9.38112 18.5879 9.39796C18.5879 9.4148 18.6424 9.42857 18.709 9.42857C18.7756 9.42857 18.8301 9.44235 18.8301 9.45918C18.8301 9.47602 18.8846 9.4898 18.9512 9.4898C19.0178 9.4898 19.0723 9.50357 19.0723 9.52041C19.0723 9.53724 19.1131 9.55102 19.1631 9.55102C19.213 9.55102 19.2539 9.5648 19.2539 9.58163C19.2539 9.59847 19.3084 9.61225 19.375 9.61225C19.4416 9.61225 19.4961 9.62602 19.4961 9.64286C19.4961 9.65969 19.537 9.67347 19.5869 9.67347C19.6369 9.67347 19.6777 9.68725 19.6777 9.70408C19.6777 9.72092 19.705 9.73469 19.7383 9.73469C19.7716 9.73469 19.7988 9.74847 19.7988 9.76531C19.7988 9.78214 19.8397 9.79592 19.8896 9.79592C19.9396 9.79592 19.9805 9.80969 19.9805 9.82653C19.9805 9.84337 20.0213 9.85714 20.0713 9.85714C20.1212 9.85714 20.1621 9.87092 20.1621 9.88776C20.1621 9.90459 20.1894 9.91837 20.2227 9.91837C20.256 9.91837 20.2832 9.93214 20.2832 9.94898C20.2832 9.96582 20.3241 9.97959 20.374 9.97959C20.424 9.97959 20.4648 9.99337 20.4648 10.0102C20.4648 10.027 20.4921 10.0408 20.5254 10.0408C20.5587 10.0408 20.5859 10.0546 20.5859 10.0714C20.5859 10.0883 20.6132 10.102 20.6465 10.102C20.6798 10.102 20.707 10.1158 20.707 10.1327C20.707 10.1495 20.7479 10.1633 20.7979 10.1633C20.8478 10.1633 20.8887 10.177 20.8887 10.1939C20.8887 10.2107 20.9159 10.2245 20.9492 10.2245C20.9825 10.2245 21.0098 10.2383 21.0098 10.2551C21.0098 10.2719 21.037 10.2857 21.0703 10.2857C21.1036 10.2857 21.1309 10.2995 21.1309 10.3163C21.1309 10.3332 21.1581 10.3469 21.1914 10.3469C21.2247 10.3469 21.252 10.3607 21.252 10.3776C21.252 10.3944 21.2792 10.4082 21.3125 10.4082C21.3458 10.4082 21.373 10.4219 21.373 10.4388C21.373 10.4556 21.4003 10.4694 21.4336 10.4694C21.4669 10.4694 21.4941 10.4832 21.4941 10.5C21.4941 10.5168 21.5184 10.5306 21.548 10.5306C21.5776 10.5306 21.6215 10.5582 21.6455 10.5918C21.6695 10.6255 21.7134 10.6531 21.743 10.6531C21.7726 10.6531 21.7969 10.6668 21.7969 10.6837C21.7969 10.7005 21.8241 10.7143 21.8574 10.7143C21.8907 10.7143 21.918 10.7281 21.918 10.7449C21.918 10.7617 21.9422 10.7755 21.9718 10.7755C22.0015 10.7755 22.0453 10.8031 22.0693 10.8367C22.0933 10.8704 22.1342 10.898 22.1602 10.898C22.1861 10.898 22.227 10.9255 22.251 10.9592C22.275 10.9929 22.3188 11.0204 22.3485 11.0204C22.3781 11.0204 22.4023 11.0342 22.4023 11.051C22.4023 11.0679 22.4266 11.0816 22.4562 11.0816C22.4858 11.0816 22.5297 11.1092 22.5537 11.1429C22.5777 11.1765 22.6161 11.2041 22.6391 11.2041C22.662 11.2041 22.719 11.2454 22.7656 11.2959C22.8123 11.3464 22.8692 11.3878 22.8922 11.3878C22.9151 11.3878 22.9535 11.4153 22.9775 11.449C23.0015 11.4827 23.04 11.5102 23.0629 11.5102C23.0858 11.5102 23.1428 11.5515 23.1895 11.602C23.2361 11.6526 23.2903 11.6939 23.3099 11.6939C23.3295 11.6939 23.3979 11.749 23.4619 11.8163C23.5259 11.8837 23.5937 11.9388 23.6126 11.9388C23.6315 11.9388 23.7271 12.0214 23.8252 12.1224C23.9233 12.2235 24.0184 12.3061 24.0366 12.3061C24.0548 12.3061 24.1913 12.4301 24.3398 12.5816C24.4884 12.7332 24.6309 12.8571 24.6566 12.8571C24.6822 12.8571 24.7031 12.8709 24.7031 12.8878C24.7031 12.9046 24.7429 12.9184 24.7914 12.9184C24.84 12.9184 24.8877 12.9356 24.8974 12.9566C24.9115 12.9872 24.9186 12.9872 24.9327 12.9566C24.9424 12.9356 24.9974 12.9184 25.0548 12.9184C25.1848 12.9184 25.3691 12.7485 25.3691 12.6286C25.3691 12.5859 25.3828 12.551 25.3994 12.551C25.4161 12.551 25.4297 12.5097 25.4297 12.4592C25.4297 12.4087 25.4161 12.3673 25.3994 12.3673C25.3828 12.3673 25.3691 12.3328 25.3691 12.2905C25.3691 12.2333 25.2802 12.1237 25.0213 11.8619C24.83 11.6685 24.659 11.5102 24.6412 11.5102C24.6235 11.5102 24.5287 11.4276 24.4307 11.3265C24.3326 11.2255 24.2369 11.1429 24.2181 11.1429C24.1992 11.1429 24.1314 11.0878 24.0674 11.0204C24.0034 10.9531 23.935 10.898 23.9154 10.898C23.8958 10.898 23.8416 10.8566 23.7949 10.8061C23.7483 10.7556 23.6913 10.7143 23.6684 10.7143C23.6454 10.7143 23.607 10.6867 23.583 10.6531C23.559 10.6194 23.5206 10.5918 23.4976 10.5918C23.4747 10.5918 23.4177 10.5505 23.3711 10.5C23.3244 10.4495 23.2675 10.4082 23.2446 10.4082C23.2216 10.4082 23.1832 10.3806 23.1592 10.3469C23.1352 10.3133 23.0943 10.2857 23.0684 10.2857C23.0424 10.2857 23.0015 10.2582 22.9775 10.2245C22.9535 10.1908 22.9097 10.1633 22.88 10.1633C22.8504 10.1633 22.8262 10.1495 22.8262 10.1327C22.8262 10.1158 22.8019 10.102 22.7723 10.102C22.7427 10.102 22.6988 10.0745 22.6748 10.0408C22.6508 10.0071 22.6069 9.97959 22.5773 9.97959C22.5477 9.97959 22.5234 9.96582 22.5234 9.94898C22.5234 9.93214 22.4992 9.91837 22.4696 9.91837C22.4399 9.91837 22.3961 9.89082 22.3721 9.85714C22.3481 9.82347 22.3042 9.79592 22.2746 9.79592C22.245 9.79592 22.2207 9.78214 22.2207 9.76531C22.2207 9.74847 22.1935 9.73469 22.1602 9.73469C22.1269 9.73469 22.0996 9.72092 22.0996 9.70408C22.0996 9.68725 22.0724 9.67347 22.0391 9.67347C22.0058 9.67347 21.9785 9.65969 21.9785 9.64286C21.9785 9.62602 21.9513 9.61225 21.918 9.61225C21.8847 9.61225 21.8574 9.59847 21.8574 9.58163C21.8574 9.5648 21.8302 9.55102 21.7969 9.55102C21.7636 9.55102 21.7363 9.53724 21.7363 9.52041C21.7363 9.50357 21.7091 9.4898 21.6758 9.4898C21.6425 9.4898 21.6152 9.47602 21.6152 9.45918C21.6152 9.44235 21.588 9.42857 21.5547 9.42857C21.5214 9.42857 21.4941 9.4148 21.4941 9.39796C21.4941 9.38112 21.4669 9.36735 21.4336 9.36735C21.4003 9.36735 21.373 9.35357 21.373 9.33673C21.373 9.3199 21.3458 9.30612 21.3125 9.30612C21.2792 9.30612 21.252 9.29235 21.252 9.27551C21.252 9.25867 21.2247 9.2449 21.1914 9.2449C21.1581 9.2449 21.1309 9.23112 21.1309 9.21429C21.1309 9.19745 21.1036 9.18367 21.0703 9.18367C21.037 9.18367 21.0098 9.1699 21.0098 9.15306C21.0098 9.13622 20.9689 9.12245 20.9189 9.12245C20.869 9.12245 20.8281 9.10867 20.8281 9.09184C20.8281 9.075 20.8009 9.06122 20.7676 9.06122C20.7343 9.06122 20.707 9.04745 20.707 9.03061C20.707 9.01378 20.6662 9 20.6162 9C20.5663 9 20.5254 8.98623 20.5254 8.96939C20.5254 8.95255 20.4981 8.93878 20.4648 8.93878C20.4315 8.93878 20.4043 8.925 20.4043 8.90816C20.4043 8.89133 20.3634 8.87755 20.3135 8.87755C20.2635 8.87755 20.2227 8.86378 20.2227 8.84694C20.2227 8.8301 20.1818 8.81633 20.1318 8.81633C20.0819 8.81633 20.041 8.80255 20.041 8.78572C20.041 8.76888 20.0001 8.7551 19.9502 8.7551C19.9002 8.7551 19.8594 8.74133 19.8594 8.72449C19.8594 8.70765 19.8185 8.69388 19.7686 8.69388C19.7186 8.69388 19.6777 8.6801 19.6777 8.66327C19.6777 8.64643 19.6369 8.63265 19.5869 8.63265C19.537 8.63265 19.4961 8.61888 19.4961 8.60204C19.4961 8.5852 19.4552 8.57143 19.4053 8.57143C19.3553 8.57143 19.3145 8.55765 19.3145 8.54082C19.3145 8.52398 19.26 8.5102 19.1934 8.5102C19.1268 8.5102 19.0723 8.49643 19.0723 8.47959C19.0723 8.46276 19.0178 8.44898 18.9512 8.44898C18.8846 8.44898 18.8301 8.4352 18.8301 8.41837C18.8301 8.40153 18.7756 8.38776 18.709 8.38776C18.6424 8.38776 18.5879 8.37398 18.5879 8.35714C18.5879 8.34031 18.5198 8.32653 18.4365 8.32653C18.3533 8.32653 18.2852 8.31276 18.2852 8.29592C18.2852 8.27908 18.217 8.26531 18.1338 8.26531C18.0505 8.26531 17.9824 8.25153 17.9824 8.23469C17.9824 8.21767 17.9017 8.20408 17.8008 8.20408C17.6999 8.20408 17.6191 8.19049 17.6191 8.17347C17.6191 8.15599 17.5283 8.14286 17.4072 8.14286C17.2861 8.14286 17.1953 8.12972 17.1953 8.11225C17.1953 8.09388 17.0742 8.08163 16.8926 8.08163C16.7109 8.08163 16.5898 8.06939 16.5898 8.05102C16.5898 8.03118 16.2064 8.02041 15.5 8.02041C14.7936 8.02041 14.4102 8.03118 14.4102 8.05102ZM14.8945 12.0306C14.8945 12.0492 14.7634 12.0612 14.5615 12.0612C14.3597 12.0612 14.2285 12.0733 14.2285 12.0918C14.2285 12.1093 14.1377 12.1224 14.0166 12.1224C13.8955 12.1224 13.8047 12.1356 13.8047 12.1531C13.8047 12.1701 13.7239 12.1837 13.623 12.1837C13.5221 12.1837 13.4414 12.1973 13.4414 12.2143C13.4414 12.2311 13.3869 12.2449 13.3203 12.2449C13.2537 12.2449 13.1992 12.2587 13.1992 12.2755C13.1992 12.2923 13.1447 12.3061 13.0781 12.3061C13.0115 12.3061 12.957 12.3199 12.957 12.3367C12.957 12.3536 12.9025 12.3673 12.8359 12.3673C12.7693 12.3673 12.7148 12.3811 12.7148 12.398C12.7148 12.4148 12.674 12.4286 12.624 12.4286C12.5741 12.4286 12.5332 12.4423 12.5332 12.4592C12.5332 12.476 12.4923 12.4898 12.4424 12.4898C12.3924 12.4898 12.3516 12.5036 12.3516 12.5204C12.3516 12.5372 12.3243 12.551 12.291 12.551C12.2577 12.551 12.2305 12.5648 12.2305 12.5816C12.2305 12.5985 12.1896 12.6122 12.1396 12.6122C12.0897 12.6122 12.0488 12.626 12.0488 12.6429C12.0488 12.6597 12.008 12.6735 11.958 12.6735C11.9081 12.6735 11.8672 12.6872 11.8672 12.7041C11.8672 12.7209 11.8263 12.7347 11.7764 12.7347C11.7264 12.7347 11.6855 12.7485 11.6855 12.7653C11.6855 12.7821 11.6583 12.7959 11.625 12.7959C11.5917 12.7959 11.5645 12.8097 11.5645 12.8265C11.5645 12.8434 11.5372 12.8571 11.5039 12.8571C11.4706 12.8571 11.4434 12.8709 11.4434 12.8878C11.4434 12.9046 11.4161 12.9184 11.3828 12.9184C11.3495 12.9184 11.3223 12.9321 11.3223 12.949C11.3223 12.9658 11.295 12.9796 11.2617 12.9796C11.2284 12.9796 11.2012 12.9934 11.2012 13.0102C11.2012 13.027 11.1739 13.0408 11.1406 13.0408C11.1073 13.0408 11.0801 13.0546 11.0801 13.0714C11.0801 13.0883 11.0528 13.102 11.0195 13.102C10.9862 13.102 10.959 13.1158 10.959 13.1327C10.959 13.1495 10.9317 13.1633 10.8984 13.1633C10.8651 13.1633 10.8379 13.177 10.8379 13.1939C10.8379 13.2107 10.8106 13.2245 10.7773 13.2245C10.744 13.2245 10.7168 13.2383 10.7168 13.2551C10.7168 13.2719 10.6925 13.2857 10.6629 13.2857C10.6333 13.2857 10.5894 13.3133 10.5654 13.3469C10.5414 13.3806 10.4976 13.4082 10.4679 13.4082C10.4383 13.4082 10.4141 13.4219 10.4141 13.4388C10.4141 13.4556 10.3898 13.4694 10.3602 13.4694C10.3306 13.4694 10.2867 13.4969 10.2627 13.5306C10.2387 13.5643 10.1948 13.5918 10.1652 13.5918C10.1356 13.5918 10.1113 13.6056 10.1113 13.6224C10.1113 13.6393 10.0896 13.6531 10.0629 13.6531C10.0363 13.6531 9.97634 13.6944 9.92969 13.7449C9.88304 13.7954 9.82854 13.8367 9.80859 13.8367C9.78864 13.8367 9.73415 13.8781 9.6875 13.9286C9.64085 13.9791 9.58636 14.0204 9.56641 14.0204C9.54646 14.0204 9.49196 14.0617 9.44531 14.1122C9.39866 14.1628 9.34484 14.2041 9.32576 14.2041C9.30666 14.2041 9.19698 14.3005 9.08203 14.4184C8.96708 14.5362 8.85846 14.6327 8.84066 14.6327C8.79059 14.6327 8.47656 14.9621 8.47656 15.0146C8.47656 15.0403 8.46294 15.0612 8.44629 15.0612C8.42964 15.0612 8.41602 15.1014 8.41602 15.1505C8.41602 15.1996 8.399 15.2478 8.37817 15.2577C8.3479 15.2719 8.3479 15.2791 8.37817 15.2934C8.399 15.3032 8.41602 15.3514 8.41602 15.4005C8.41602 15.4496 8.42964 15.4898 8.44629 15.4898C8.46294 15.4898 8.47656 15.5114 8.47656 15.5379C8.47656 15.5998 8.54946 15.6735 8.61064 15.6735C8.6368 15.6735 8.6582 15.6872 8.6582 15.7041C8.6582 15.7209 8.69795 15.7347 8.74651 15.7347C8.79507 15.7347 8.84275 15.7519 8.85247 15.773C8.86658 15.8036 8.87366 15.8036 8.88777 15.773C8.89748 15.7519 8.94516 15.7347 8.99372 15.7347C9.04231 15.7347 9.08203 15.7209 9.08203 15.7041C9.08203 15.6872 9.10334 15.6735 9.12941 15.6735C9.15547 15.6735 9.24312 15.6046 9.32422 15.5204C9.40532 15.4362 9.48682 15.3673 9.50534 15.3673C9.5239 15.3673 9.6331 15.2709 9.74805 15.1531C9.863 15.0352 9.97268 14.9388 9.99178 14.9388C10.0109 14.9388 10.0647 14.8974 10.1113 14.8469C10.158 14.7964 10.215 14.7551 10.2379 14.7551C10.2608 14.7551 10.2992 14.7276 10.3232 14.6939C10.3472 14.6602 10.3857 14.6327 10.4086 14.6327C10.4315 14.6327 10.4885 14.5913 10.5352 14.5408C10.5818 14.4903 10.6418 14.449 10.6684 14.449C10.695 14.449 10.7168 14.4352 10.7168 14.4184C10.7168 14.4015 10.741 14.3878 10.7707 14.3878C10.8003 14.3878 10.8442 14.3602 10.8682 14.3265C10.8922 14.2929 10.936 14.2653 10.9657 14.2653C10.9953 14.2653 11.0195 14.2515 11.0195 14.2347C11.0195 14.2179 11.0438 14.2041 11.0734 14.2041C11.103 14.2041 11.1469 14.1765 11.1709 14.1429C11.1949 14.1092 11.2388 14.0816 11.2684 14.0816C11.298 14.0816 11.3223 14.0679 11.3223 14.051C11.3223 14.0342 11.3495 14.0204 11.3828 14.0204C11.4161 14.0204 11.4434 14.0066 11.4434 13.9898C11.4434 13.973 11.4706 13.9592 11.5039 13.9592C11.5372 13.9592 11.5645 13.9454 11.5645 13.9286C11.5645 13.9117 11.5917 13.898 11.625 13.898C11.6583 13.898 11.6855 13.8842 11.6855 13.8673C11.6855 13.8505 11.7264 13.8367 11.7764 13.8367C11.8263 13.8367 11.8672 13.823 11.8672 13.8061C11.8672 13.7893 11.8944 13.7755 11.9277 13.7755C11.961 13.7755 11.9883 13.7617 11.9883 13.7449C11.9883 13.7281 12.0155 13.7143 12.0488 13.7143C12.0821 13.7143 12.1094 13.7005 12.1094 13.6837C12.1094 13.6668 12.1366 13.6531 12.1699 13.6531C12.2032 13.6531 12.2305 13.6393 12.2305 13.6224C12.2305 13.6056 12.2713 13.5918 12.3213 13.5918C12.3712 13.5918 12.4121 13.5781 12.4121 13.5612C12.4121 13.5444 12.453 13.5306 12.5029 13.5306C12.5529 13.5306 12.5938 13.5168 12.5938 13.5C12.5938 13.4832 12.6346 13.4694 12.6846 13.4694C12.7345 13.4694 12.7754 13.4556 12.7754 13.4388C12.7754 13.4219 12.8163 13.4082 12.8662 13.4082C12.9162 13.4082 12.957 13.3944 12.957 13.3776C12.957 13.3607 13.0115 13.3469 13.0781 13.3469C13.1447 13.3469 13.1992 13.3332 13.1992 13.3163C13.1992 13.2995 13.2537 13.2857 13.3203 13.2857C13.3869 13.2857 13.4414 13.2719 13.4414 13.2551C13.4414 13.2383 13.4959 13.2245 13.5625 13.2245C13.6291 13.2245 13.6836 13.2107 13.6836 13.1939C13.6836 13.177 13.7517 13.1633 13.835 13.1633C13.9182 13.1633 13.9863 13.1495 13.9863 13.1327C13.9863 13.1152 14.0771 13.102 14.1982 13.102C14.3193 13.102 14.4102 13.0889 14.4102 13.0714C14.4102 13.0525 14.5716 13.0408 14.834 13.0408C15.0964 13.0408 15.2578 13.0292 15.2578 13.0102C15.2578 12.9924 15.3587 12.9796 15.5 12.9796C15.6413 12.9796 15.7422 12.9924 15.7422 13.0102C15.7422 13.0292 15.9036 13.0408 16.166 13.0408C16.4284 13.0408 16.5898 13.0525 16.5898 13.0714C16.5898 13.0889 16.6807 13.102 16.8018 13.102C16.9229 13.102 17.0137 13.1152 17.0137 13.1327C17.0137 13.1495 17.0818 13.1633 17.165 13.1633C17.2483 13.1633 17.3164 13.177 17.3164 13.1939C17.3164 13.2107 17.3709 13.2245 17.4375 13.2245C17.5041 13.2245 17.5586 13.2383 17.5586 13.2551C17.5586 13.2719 17.6131 13.2857 17.6797 13.2857C17.7463 13.2857 17.8008 13.2995 17.8008 13.3163C17.8008 13.3332 17.8553 13.3469 17.9219 13.3469C17.9885 13.3469 18.043 13.3607 18.043 13.3776C18.043 13.3944 18.0838 13.4082 18.1338 13.4082C18.1837 13.4082 18.2246 13.4219 18.2246 13.4388C18.2246 13.4556 18.2655 13.4694 18.3154 13.4694C18.3654 13.4694 18.4062 13.4832 18.4062 13.5C18.4062 13.5168 18.4471 13.5306 18.4971 13.5306C18.547 13.5306 18.5879 13.5444 18.5879 13.5612C18.5879 13.5781 18.6288 13.5918 18.6787 13.5918C18.7287 13.5918 18.7695 13.6056 18.7695 13.6224C18.7695 13.6393 18.7968 13.6531 18.8301 13.6531C18.8634 13.6531 18.8906 13.6668 18.8906 13.6837C18.8906 13.7005 18.9179 13.7143 18.9512 13.7143C18.9845 13.7143 19.0117 13.7281 19.0117 13.7449C19.0117 13.7617 19.039 13.7755 19.0723 13.7755C19.1056 13.7755 19.1328 13.7893 19.1328 13.8061C19.1328 13.823 19.1737 13.8367 19.2236 13.8367C19.2736 13.8367 19.3145 13.8505 19.3145 13.8673C19.3145 13.8842 19.3417 13.898 19.375 13.898C19.4083 13.898 19.4355 13.9117 19.4355 13.9286C19.4355 13.9454 19.4628 13.9592 19.4961 13.9592C19.5294 13.9592 19.5566 13.973 19.5566 13.9898C19.5566 14.0066 19.5839 14.0204 19.6172 14.0204C19.6505 14.0204 19.6777 14.0342 19.6777 14.051C19.6777 14.0679 19.702 14.0816 19.7316 14.0816C19.7612 14.0816 19.8051 14.1092 19.8291 14.1429C19.8531 14.1765 19.897 14.2041 19.9266 14.2041C19.9562 14.2041 19.9805 14.2179 19.9805 14.2347C19.9805 14.2515 20.0047 14.2653 20.0343 14.2653C20.064 14.2653 20.1078 14.2929 20.1318 14.3265C20.1558 14.3602 20.1997 14.3878 20.2293 14.3878C20.259 14.3878 20.2832 14.4015 20.2832 14.4184C20.2832 14.4352 20.305 14.449 20.3316 14.449C20.3582 14.449 20.4182 14.4903 20.4648 14.5408C20.5115 14.5913 20.566 14.6327 20.5859 14.6327C20.6059 14.6327 20.6604 14.674 20.707 14.7245C20.7537 14.775 20.8107 14.8163 20.8336 14.8163C20.8565 14.8163 20.8949 14.8439 20.9189 14.8776C20.943 14.9112 20.9806 14.9388 21.0026 14.9388C21.0246 14.9388 21.1504 15.049 21.2822 15.1837C21.414 15.3184 21.5369 15.4286 21.5554 15.4286C21.5738 15.4286 21.6552 15.4974 21.7363 15.5816C21.8575 15.7074 21.9025 15.7347 21.9892 15.7347C22.0471 15.7347 22.1025 15.7519 22.1122 15.773C22.1263 15.8036 22.1334 15.8036 22.1475 15.773C22.1572 15.7519 22.2049 15.7347 22.2535 15.7347C22.3021 15.7347 22.3418 15.7209 22.3418 15.7041C22.3418 15.6872 22.3632 15.6735 22.3894 15.6735C22.4505 15.6735 22.5234 15.5998 22.5234 15.5379C22.5234 15.5114 22.5371 15.4898 22.5537 15.4898C22.5704 15.4898 22.584 15.4496 22.584 15.4005C22.584 15.3514 22.601 15.3032 22.6218 15.2934C22.6521 15.2791 22.6521 15.2719 22.6218 15.2577C22.601 15.2478 22.584 15.1996 22.584 15.1505C22.584 15.1014 22.5704 15.0612 22.5537 15.0612C22.5371 15.0612 22.5234 15.0402 22.5234 15.0145C22.5234 14.9618 22.2701 14.6939 22.2202 14.6939C22.2024 14.6939 22.08 14.5837 21.9482 14.449C21.8165 14.3143 21.6931 14.2041 21.6741 14.2041C21.6551 14.2041 21.6013 14.1628 21.5547 14.1122C21.508 14.0617 21.4535 14.0204 21.4336 14.0204C21.4136 14.0204 21.3592 13.9791 21.3125 13.9286C21.2658 13.8781 21.2114 13.8367 21.1914 13.8367C21.1715 13.8367 21.117 13.7954 21.0703 13.7449C21.0237 13.6944 20.9637 13.6531 20.9371 13.6531C20.9104 13.6531 20.8887 13.6393 20.8887 13.6224C20.8887 13.6056 20.8644 13.5918 20.8348 13.5918C20.8052 13.5918 20.7613 13.5643 20.7373 13.5306C20.7133 13.4969 20.6694 13.4694 20.6398 13.4694C20.6102 13.4694 20.5859 13.4556 20.5859 13.4388C20.5859 13.4219 20.5617 13.4082 20.5321 13.4082C20.5024 13.4082 20.4586 13.3806 20.4346 13.3469C20.4106 13.3133 20.3667 13.2857 20.3371 13.2857C20.3075 13.2857 20.2832 13.2719 20.2832 13.2551C20.2832 13.2383 20.256 13.2245 20.2227 13.2245C20.1894 13.2245 20.1621 13.2107 20.1621 13.1939C20.1621 13.177 20.1349 13.1633 20.1016 13.1633C20.0683 13.1633 20.041 13.1495 20.041 13.1327C20.041 13.1158 20.0138 13.102 19.9805 13.102C19.9472 13.102 19.9199 13.0883 19.9199 13.0714C19.9199 13.0546 19.8927 13.0408 19.8594 13.0408C19.8261 13.0408 19.7988 13.027 19.7988 13.0102C19.7988 12.9934 19.7716 12.9796 19.7383 12.9796C19.705 12.9796 19.6777 12.9658 19.6777 12.949C19.6777 12.9321 19.6505 12.9184 19.6172 12.9184C19.5839 12.9184 19.5566 12.9046 19.5566 12.8878C19.5566 12.8709 19.5294 12.8571 19.4961 12.8571C19.4628 12.8571 19.4355 12.8434 19.4355 12.8265C19.4355 12.8097 19.4083 12.7959 19.375 12.7959C19.3417 12.7959 19.3145 12.7821 19.3145 12.7653C19.3145 12.7485 19.2736 12.7347 19.2236 12.7347C19.1737 12.7347 19.1328 12.7209 19.1328 12.7041C19.1328 12.6872 19.0919 12.6735 19.042 12.6735C18.992 12.6735 18.9512 12.6597 18.9512 12.6429C18.9512 12.626 18.9103 12.6122 18.8604 12.6122C18.8104 12.6122 18.7695 12.5985 18.7695 12.5816C18.7695 12.5648 18.7423 12.551 18.709 12.551C18.6757 12.551 18.6484 12.5372 18.6484 12.5204C18.6484 12.5036 18.6076 12.4898 18.5576 12.4898C18.5077 12.4898 18.4668 12.476 18.4668 12.4592C18.4668 12.4423 18.4123 12.4286 18.3457 12.4286C18.2791 12.4286 18.2246 12.4148 18.2246 12.398C18.2246 12.3811 18.1701 12.3673 18.1035 12.3673C18.0369 12.3673 17.9824 12.3536 17.9824 12.3367C17.9824 12.3199 17.9279 12.3061 17.8613 12.3061C17.7947 12.3061 17.7402 12.2923 17.7402 12.2755C17.7402 12.2587 17.6857 12.2449 17.6191 12.2449C17.5525 12.2449 17.498 12.2311 17.498 12.2143C17.498 12.1974 17.4299 12.1837 17.3467 12.1837C17.2634 12.1837 17.1953 12.1699 17.1953 12.1531C17.1953 12.1356 17.1045 12.1224 16.9834 12.1224C16.8623 12.1224 16.7715 12.1093 16.7715 12.0918C16.7715 12.0733 16.6403 12.0612 16.4385 12.0612C16.2366 12.0612 16.1055 12.0492 16.1055 12.0306C16.1055 12.0112 15.8835 12 15.5 12C15.1165 12 14.8945 12.0112 14.8945 12.0306ZM15.1973 16.0102C15.1973 16.0286 15.0762 16.0408 14.8945 16.0408C14.7129 16.0408 14.5918 16.0531 14.5918 16.0714C14.5918 16.0884 14.5111 16.102 14.4102 16.102C14.3093 16.102 14.2285 16.1156 14.2285 16.1327C14.2285 16.1495 14.174 16.1633 14.1074 16.1633C14.0408 16.1633 13.9863 16.177 13.9863 16.1939C13.9863 16.2107 13.9318 16.2245 13.8652 16.2245C13.7986 16.2245 13.7441 16.2383 13.7441 16.2551C13.7441 16.2719 13.7169 16.2857 13.6836 16.2857C13.6503 16.2857 13.623 16.2995 13.623 16.3163C13.623 16.3332 13.5822 16.3469 13.5322 16.3469C13.4823 16.3469 13.4414 16.3607 13.4414 16.3776C13.4414 16.3944 13.4005 16.4082 13.3506 16.4082C13.3006 16.4082 13.2598 16.4219 13.2598 16.4388C13.2598 16.4556 13.2325 16.4694 13.1992 16.4694C13.1659 16.4694 13.1387 16.4832 13.1387 16.5C13.1387 16.5168 13.1114 16.5306 13.0781 16.5306C13.0448 16.5306 13.0176 16.5444 13.0176 16.5612C13.0176 16.5781 12.9903 16.5918 12.957 16.5918C12.9237 16.5918 12.8965 16.6056 12.8965 16.6224C12.8965 16.6393 12.8586 16.6531 12.8124 16.6531C12.7629 16.6531 12.7102 16.6783 12.6846 16.7143C12.6606 16.748 12.6167 16.7755 12.5871 16.7755C12.5575 16.7755 12.5332 16.7893 12.5332 16.8061C12.5332 16.823 12.509 16.8367 12.4793 16.8367C12.4497 16.8367 12.4058 16.8643 12.3818 16.898C12.3578 16.9316 12.317 16.9592 12.291 16.9592C12.2651 16.9592 12.2242 16.9867 12.2002 17.0204C12.1762 17.0541 12.1353 17.0816 12.1094 17.0816C12.0834 17.0816 12.0426 17.1092 12.0186 17.1429C11.9945 17.1765 11.9567 17.2041 11.9345 17.2041C11.9123 17.2041 11.8139 17.2867 11.7158 17.3878C11.6178 17.4888 11.5227 17.5714 11.5046 17.5714C11.4545 17.5714 11.2617 17.7772 11.2617 17.8306C11.2617 17.8564 11.2481 17.8776 11.2314 17.8776C11.2148 17.8776 11.2012 17.9051 11.2012 17.9388C11.2012 17.9725 11.1875 18 11.1709 18C11.1542 18 11.1406 18.0413 11.1406 18.0918C11.1406 18.1423 11.1542 18.1837 11.1709 18.1837C11.1875 18.1837 11.2012 18.2186 11.2012 18.2612C11.2012 18.3475 11.3812 18.551 11.4575 18.551C11.483 18.551 11.5039 18.5648 11.5039 18.5816C11.5039 18.5985 11.572 18.6122 11.6553 18.6122C11.7385 18.6122 11.8066 18.5985 11.8066 18.5816C11.8066 18.5648 11.8281 18.551 11.8544 18.551C11.8807 18.551 11.9546 18.4959 12.0186 18.4286C12.0826 18.3612 12.1505 18.3061 12.1695 18.3061C12.1885 18.3061 12.2705 18.2372 12.3516 18.1531C12.4327 18.0689 12.5149 18 12.5342 18C12.5536 18 12.6076 17.9587 12.6543 17.9082C12.7009 17.8577 12.7609 17.8163 12.7875 17.8163C12.8142 17.8163 12.8359 17.8026 12.8359 17.7857C12.8359 17.7689 12.8602 17.7551 12.8898 17.7551C12.9194 17.7551 12.9633 17.7276 12.9873 17.6939C13.0113 17.6602 13.0552 17.6327 13.0848 17.6327C13.1144 17.6327 13.1387 17.6189 13.1387 17.602C13.1387 17.5852 13.1659 17.5714 13.1992 17.5714C13.2325 17.5714 13.2598 17.5577 13.2598 17.5408C13.2598 17.524 13.287 17.5102 13.3203 17.5102C13.3536 17.5102 13.3809 17.4964 13.3809 17.4796C13.3809 17.4628 13.4081 17.449 13.4414 17.449C13.4747 17.449 13.502 17.4352 13.502 17.4184C13.502 17.4015 13.5292 17.3878 13.5625 17.3878C13.5958 17.3878 13.623 17.374 13.623 17.3571C13.623 17.3403 13.6639 17.3265 13.7139 17.3265C13.7638 17.3265 13.8047 17.3128 13.8047 17.2959C13.8047 17.2791 13.8456 17.2653 13.8955 17.2653C13.9455 17.2653 13.9863 17.2515 13.9863 17.2347C13.9863 17.2179 14.0408 17.2041 14.1074 17.2041C14.174 17.2041 14.2285 17.1903 14.2285 17.1735C14.2285 17.1566 14.283 17.1429 14.3496 17.1429C14.4162 17.1429 14.4707 17.1291 14.4707 17.1122C14.4707 17.0954 14.5388 17.0816 14.6221 17.0816C14.7053 17.0816 14.7734 17.0679 14.7734 17.051C14.7734 17.0315 15.0358 17.0204 15.5 17.0204C15.9642 17.0204 16.2266 17.0315 16.2266 17.051C16.2266 17.0679 16.2947 17.0816 16.3779 17.0816C16.4612 17.0816 16.5293 17.0954 16.5293 17.1122C16.5293 17.1291 16.5838 17.1429 16.6504 17.1429C16.717 17.1429 16.7715 17.1566 16.7715 17.1735C16.7715 17.1903 16.826 17.2041 16.8926 17.2041C16.9592 17.2041 17.0137 17.2179 17.0137 17.2347C17.0137 17.2515 17.0545 17.2653 17.1045 17.2653C17.1544 17.2653 17.1953 17.2791 17.1953 17.2959C17.1953 17.3128 17.2226 17.3265 17.2559 17.3265C17.2892 17.3265 17.3164 17.3403 17.3164 17.3571C17.3164 17.374 17.3573 17.3878 17.4072 17.3878C17.4572 17.3878 17.498 17.4015 17.498 17.4184C17.498 17.4352 17.5253 17.449 17.5586 17.449C17.5919 17.449 17.6191 17.4628 17.6191 17.4796C17.6191 17.4964 17.6464 17.5102 17.6797 17.5102C17.713 17.5102 17.7402 17.524 17.7402 17.5408C17.7402 17.5577 17.7675 17.5714 17.8008 17.5714C17.8341 17.5714 17.8613 17.5852 17.8613 17.602C17.8613 17.6189 17.8856 17.6327 17.9152 17.6327C17.9448 17.6327 17.9887 17.6602 18.0127 17.6939C18.0367 17.7276 18.0806 17.7551 18.1102 17.7551C18.1398 17.7551 18.1641 17.7689 18.1641 17.7857C18.1641 17.8026 18.1858 17.8163 18.2125 17.8163C18.2391 17.8163 18.2991 17.8577 18.3457 17.9082C18.3924 17.9587 18.4463 18 18.4655 18C18.4847 18 18.5807 18.0827 18.6787 18.1837C18.7768 18.2847 18.8727 18.3673 18.8919 18.3673C18.9112 18.3673 18.9651 18.4087 19.0117 18.4592C19.0584 18.5097 19.1183 18.551 19.145 18.551C19.1716 18.551 19.1934 18.5648 19.1934 18.5816C19.1934 18.5985 19.2615 18.6122 19.3447 18.6122C19.428 18.6122 19.4961 18.5985 19.4961 18.5816C19.4961 18.5648 19.517 18.551 19.5425 18.551C19.6188 18.551 19.7988 18.3475 19.7988 18.2612C19.7988 18.2186 19.8125 18.1837 19.8291 18.1837C19.8458 18.1837 19.8594 18.1561 19.8594 18.1224C19.8594 18.0888 19.8458 18.0612 19.8291 18.0612C19.8125 18.0612 19.7988 18.0199 19.7988 17.9694C19.7988 17.9189 19.7852 17.8776 19.7686 17.8776C19.7519 17.8776 19.7383 17.8564 19.7383 17.8306C19.7383 17.777 19.5454 17.5714 19.4951 17.5714C19.4768 17.5714 19.3956 17.5026 19.3145 17.4184C19.2334 17.3342 19.1512 17.2653 19.1318 17.2653C19.1124 17.2653 19.0584 17.224 19.0117 17.1735C18.9651 17.123 18.9081 17.0816 18.8852 17.0816C18.8622 17.0816 18.8238 17.0541 18.7998 17.0204C18.7758 16.9867 18.7349 16.9592 18.709 16.9592C18.683 16.9592 18.6422 16.9316 18.6182 16.898C18.5942 16.8643 18.5503 16.8367 18.5207 16.8367C18.491 16.8367 18.4668 16.823 18.4668 16.8061C18.4668 16.7893 18.4425 16.7755 18.4129 16.7755C18.3833 16.7755 18.3394 16.748 18.3154 16.7143C18.2898 16.6783 18.2371 16.6531 18.1876 16.6531C18.1414 16.6531 18.1035 16.6393 18.1035 16.6224C18.1035 16.6056 18.0763 16.5918 18.043 16.5918C18.0097 16.5918 17.9824 16.5781 17.9824 16.5612C17.9824 16.5444 17.9552 16.5306 17.9219 16.5306C17.8886 16.5306 17.8613 16.5168 17.8613 16.5C17.8613 16.4832 17.8341 16.4694 17.8008 16.4694C17.7675 16.4694 17.7402 16.4556 17.7402 16.4388C17.7402 16.4219 17.6994 16.4082 17.6494 16.4082C17.5995 16.4082 17.5586 16.3944 17.5586 16.3776C17.5586 16.3607 17.5177 16.3469 17.4678 16.3469C17.4178 16.3469 17.377 16.3332 17.377 16.3163C17.377 16.2995 17.3361 16.2857 17.2861 16.2857C17.2362 16.2857 17.1953 16.2719 17.1953 16.2551C17.1953 16.2383 17.1544 16.2245 17.1045 16.2245C17.0545 16.2245 17.0137 16.2107 17.0137 16.1939C17.0137 16.177 16.9592 16.1633 16.8926 16.1633C16.826 16.1633 16.7715 16.1495 16.7715 16.1327C16.7715 16.1156 16.6907 16.102 16.5898 16.102C16.4889 16.102 16.4082 16.0884 16.4082 16.0714C16.4082 16.0531 16.2871 16.0408 16.1055 16.0408C15.9238 16.0408 15.8027 16.0286 15.8027 16.0102C15.8027 15.9918 15.6816 15.9796 15.5 15.9796C15.3184 15.9796 15.1973 15.9918 15.1973 16.0102ZM15.0762 20.051C15.0762 20.0679 15.0353 20.0816 14.9854 20.0816C14.9354 20.0816 14.8945 20.0954 14.8945 20.1122C14.8945 20.1291 14.8537 20.1429 14.8037 20.1429C14.7538 20.1429 14.7129 20.1566 14.7129 20.1735C14.7129 20.1903 14.6856 20.2041 14.6523 20.2041C14.619 20.2041 14.5918 20.2179 14.5918 20.2347C14.5918 20.2515 14.5646 20.2653 14.5312 20.2653C14.4979 20.2653 14.4707 20.2791 14.4707 20.2959C14.4707 20.3128 14.4501 20.3265 14.4249 20.3265C14.3691 20.3265 13.8652 20.83 13.8652 20.8857C13.8652 20.9074 13.838 20.9451 13.8047 20.9694C13.7714 20.9937 13.7441 21.038 13.7441 21.068C13.7441 21.0979 13.7305 21.1224 13.7139 21.1224C13.6972 21.1224 13.6836 21.1638 13.6836 21.2143C13.6836 21.2648 13.67 21.3061 13.6533 21.3061C13.6367 21.3061 13.623 21.3474 13.623 21.398C13.623 21.4485 13.6094 21.4898 13.5928 21.4898C13.5755 21.4898 13.5625 21.5816 13.5625 21.7041C13.5625 21.8265 13.5495 21.9184 13.5322 21.9184C13.5156 21.9184 13.502 21.9597 13.502 22.0102C13.502 22.0607 13.5156 22.102 13.5322 22.102C13.5491 22.102 13.5625 22.1837 13.5625 22.2857C13.5625 22.3877 13.5759 22.4694 13.5928 22.4694C13.6094 22.4694 13.623 22.5245 13.623 22.5918C13.623 22.6592 13.6367 22.7143 13.6533 22.7143C13.67 22.7143 13.6836 22.7418 13.6836 22.7755C13.6836 22.8092 13.6972 22.8367 13.7139 22.8367C13.7305 22.8367 13.7441 22.8643 13.7441 22.898C13.7441 22.9316 13.7578 22.9592 13.7744 22.9592C13.7911 22.9592 13.8047 22.9812 13.8047 23.0081C13.8047 23.035 13.8456 23.0957 13.8955 23.1429C13.9455 23.19 13.9863 23.2442 13.9863 23.2633C13.9863 23.3084 14.1859 23.5102 14.2305 23.5102C14.2493 23.5102 14.303 23.5515 14.3496 23.602C14.3963 23.6526 14.4562 23.6939 14.4828 23.6939C14.5095 23.6939 14.5312 23.7077 14.5312 23.7245C14.5312 23.7413 14.5585 23.7551 14.5918 23.7551C14.6251 23.7551 14.6523 23.7689 14.6523 23.7857C14.6523 23.8026 14.6796 23.8163 14.7129 23.8163C14.7462 23.8163 14.7734 23.8301 14.7734 23.8469C14.7734 23.8638 14.8143 23.8776 14.8643 23.8776C14.9142 23.8776 14.9551 23.8913 14.9551 23.9082C14.9551 23.9252 15.0358 23.9388 15.1367 23.9388C15.2376 23.9388 15.3184 23.9524 15.3184 23.9694C15.3184 23.9864 15.3991 24 15.5 24C15.6009 24 15.6816 23.9864 15.6816 23.9694C15.6816 23.9526 15.7498 23.9388 15.833 23.9388C15.9163 23.9388 15.9844 23.925 15.9844 23.9082C15.9844 23.8913 16.0389 23.8776 16.1055 23.8776C16.1721 23.8776 16.2266 23.8638 16.2266 23.8469C16.2266 23.8301 16.2538 23.8163 16.2871 23.8163C16.3204 23.8163 16.3477 23.8026 16.3477 23.7857C16.3477 23.7689 16.3749 23.7551 16.4082 23.7551C16.4415 23.7551 16.4688 23.7413 16.4688 23.7245C16.4688 23.7077 16.4902 23.6939 16.5165 23.6939C16.5428 23.6939 16.6167 23.6388 16.6807 23.5714C16.7447 23.5041 16.8127 23.449 16.8318 23.449C16.8768 23.449 16.9531 23.3718 16.9531 23.3263C16.9531 23.307 17.0076 23.2382 17.0742 23.1735C17.1408 23.1088 17.1953 23.0341 17.1953 23.0075C17.1953 22.9809 17.2089 22.9592 17.2256 22.9592C17.2422 22.9592 17.2559 22.9316 17.2559 22.898C17.2559 22.8643 17.2695 22.8367 17.2861 22.8367C17.3028 22.8367 17.3164 22.7954 17.3164 22.7449C17.3164 22.6944 17.33 22.6531 17.3467 22.6531C17.3633 22.6531 17.377 22.6117 17.377 22.5612C17.377 22.5107 17.3906 22.4694 17.4072 22.4694C17.4245 22.4694 17.4375 22.3776 17.4375 22.2551C17.4375 22.1327 17.4505 22.0408 17.4678 22.0408C17.4844 22.0408 17.498 22.0133 17.498 21.9796C17.498 21.9459 17.4844 21.9184 17.4678 21.9184C17.4505 21.9184 17.4375 21.8265 17.4375 21.7041C17.4375 21.5816 17.4245 21.4898 17.4072 21.4898C17.3906 21.4898 17.377 21.4485 17.377 21.398C17.377 21.3474 17.3633 21.3061 17.3467 21.3061C17.33 21.3061 17.3164 21.2786 17.3164 21.2449C17.3164 21.2112 17.3028 21.1837 17.2861 21.1837C17.2695 21.1837 17.2559 21.1561 17.2559 21.1224C17.2559 21.0888 17.2422 21.0612 17.2256 21.0612C17.2089 21.0612 17.1953 21.0337 17.1953 21C17.1953 20.9663 17.1817 20.9388 17.165 20.9388C17.1484 20.9388 17.1348 20.9179 17.1348 20.8924C17.1348 20.8359 16.6975 20.3878 16.6424 20.3878C16.6208 20.3878 16.5836 20.3602 16.5596 20.3265C16.5356 20.2929 16.4917 20.2653 16.4621 20.2653C16.4325 20.2653 16.4082 20.2515 16.4082 20.2347C16.4082 20.2179 16.381 20.2041 16.3477 20.2041C16.3144 20.2041 16.2871 20.1903 16.2871 20.1735C16.2871 20.1566 16.2462 20.1429 16.1963 20.1429C16.1463 20.1429 16.1055 20.1291 16.1055 20.1122C16.1055 20.0954 16.051 20.0816 15.9844 20.0816C15.9178 20.0816 15.8633 20.0679 15.8633 20.051C15.8633 20.0322 15.7119 20.0204 15.4697 20.0204C15.2275 20.0204 15.0762 20.0322 15.0762 20.051ZM15.7422 21.0306C15.7422 21.0474 15.7831 21.0612 15.833 21.0612C15.883 21.0612 15.9238 21.075 15.9238 21.0918C15.9238 21.1087 15.9446 21.1224 15.9699 21.1224C16.0298 21.1224 16.3477 21.4438 16.3477 21.5044C16.3477 21.5301 16.3613 21.551 16.3779 21.551C16.3946 21.551 16.4082 21.5786 16.4082 21.6122C16.4082 21.6459 16.4218 21.6735 16.4385 21.6735C16.4566 21.6735 16.4688 21.7959 16.4688 21.9796C16.4688 22.1633 16.4566 22.2857 16.4385 22.2857C16.4218 22.2857 16.4082 22.3133 16.4082 22.3469C16.4082 22.3806 16.3946 22.4082 16.3779 22.4082C16.3613 22.4082 16.3477 22.4327 16.3477 22.4626C16.3477 22.4926 16.3204 22.5369 16.2871 22.5612C16.2538 22.5855 16.2266 22.6299 16.2266 22.6598C16.2266 22.6898 16.2048 22.7143 16.1782 22.7143C16.1515 22.7143 16.0916 22.7556 16.0449 22.8061C15.9928 22.8626 15.9298 22.898 15.8814 22.898C15.8381 22.898 15.8027 22.9117 15.8027 22.9286C15.8027 22.9469 15.6816 22.9592 15.5 22.9592C15.3184 22.9592 15.1973 22.9469 15.1973 22.9286C15.1973 22.9117 15.1594 22.898 15.1131 22.898C15.0637 22.898 15.011 22.8727 14.9854 22.8367C14.9613 22.8031 14.9237 22.7755 14.9016 22.7755C14.8496 22.7755 14.7129 22.6372 14.7129 22.5847C14.7129 22.5624 14.6856 22.5243 14.6523 22.5C14.6168 22.4741 14.5918 22.4207 14.5918 22.3708C14.5918 22.324 14.5782 22.2857 14.5615 22.2857C14.5434 22.2857 14.5312 22.1633 14.5312 21.9796C14.5312 21.7959 14.5434 21.6735 14.5615 21.6735C14.5782 21.6735 14.5918 21.6459 14.5918 21.6122C14.5918 21.5786 14.6054 21.551 14.6221 21.551C14.6387 21.551 14.6523 21.5301 14.6523 21.5044C14.6523 21.4438 14.9702 21.1224 15.0301 21.1224C15.0554 21.1224 15.0762 21.1087 15.0762 21.0918C15.0762 21.075 15.117 21.0612 15.167 21.0612C15.2169 21.0612 15.2578 21.0474 15.2578 21.0306C15.2578 21.0128 15.3587 21 15.5 21C15.6413 21 15.7422 21.0128 15.7422 21.0306Z" fill="#0089B1"/>
</svg>
