<svg width="21" height="21" viewBox="0 0 21 21" fill="none" xmlns="http://www.w3.org/2000/svg">
<path d="M6.63398 0.833008H15.034C18.234 0.833008 20.834 3.43301 20.834 6.63301V15.033C20.834 16.5713 20.2229 18.0465 19.1352 19.1342C18.0475 20.2219 16.5722 20.833 15.034 20.833H6.63398C3.43398 20.833 0.833984 18.233 0.833984 15.033V6.63301C0.833984 5.09475 1.44505 3.6195 2.53276 2.53179C3.62048 1.44408 5.09573 0.833008 6.63398 0.833008ZM6.43398 2.83301C5.4792 2.83301 4.56353 3.21229 3.8884 3.88742C3.21327 4.56255 2.83398 5.47823 2.83398 6.43301V15.233C2.83398 17.223 4.44398 18.833 6.43398 18.833H15.234C16.1888 18.833 17.1044 18.4537 17.7796 17.7786C18.4547 17.1035 18.834 16.1878 18.834 15.233V6.43301C18.834 4.44301 17.224 2.83301 15.234 2.83301H6.43398ZM16.084 4.33301C16.4155 4.33301 16.7334 4.4647 16.9679 4.69912C17.2023 4.93354 17.334 5.25149 17.334 5.58301C17.334 5.91453 17.2023 6.23247 16.9679 6.46689C16.7334 6.70131 16.4155 6.83301 16.084 6.83301C15.7525 6.83301 15.4345 6.70131 15.2001 6.46689C14.9657 6.23247 14.834 5.91453 14.834 5.58301C14.834 5.25149 14.9657 4.93354 15.2001 4.69912C15.4345 4.4647 15.7525 4.33301 16.084 4.33301ZM10.834 5.83301C12.1601 5.83301 13.4318 6.35979 14.3695 7.29747C15.3072 8.23516 15.834 9.50693 15.834 10.833C15.834 12.1591 15.3072 13.4309 14.3695 14.3685C13.4318 15.3062 12.1601 15.833 10.834 15.833C9.5079 15.833 8.23613 15.3062 7.29845 14.3685C6.36077 13.4309 5.83398 12.1591 5.83398 10.833C5.83398 9.50693 6.36077 8.23516 7.29845 7.29747C8.23613 6.35979 9.5079 5.83301 10.834 5.83301ZM10.834 7.83301C10.0383 7.83301 9.27527 8.14908 8.71266 8.71169C8.15005 9.2743 7.83398 10.0374 7.83398 10.833C7.83398 11.6287 8.15005 12.3917 8.71266 12.9543C9.27527 13.5169 10.0383 13.833 10.834 13.833C11.6296 13.833 12.3927 13.5169 12.9553 12.9543C13.5179 12.3917 13.834 11.6287 13.834 10.833C13.834 10.0374 13.5179 9.2743 12.9553 8.71169C12.3927 8.14908 11.6296 7.83301 10.834 7.83301Z" fill="#0089B1"/>
</svg>
