<svg width="20" height="17" viewBox="0 0 20 17" fill="none" xmlns="http://www.w3.org/2000/svg">
<path fill-rule="evenodd" clip-rule="evenodd" d="M18.8672 0.0195312C18.8672 0.0302734 18.832 0.0390625 18.7891 0.0390625C18.7461 0.0390625 18.7109 0.0478516 18.7109 0.0585937C18.7109 0.0693359 18.6934 0.078125 18.6719 0.078125C18.6504 0.078125 18.6328 0.086914 18.6328 0.0976562C18.6328 0.108398 18.6064 0.117187 18.5742 0.117187C18.542 0.117187 18.5156 0.125977 18.5156 0.136719C18.5156 0.147461 18.4893 0.15625 18.457 0.15625C18.4248 0.15625 18.3984 0.165039 18.3984 0.175781C18.3984 0.186523 18.3809 0.195312 18.3594 0.195312C18.3379 0.195312 18.3203 0.204102 18.3203 0.214844C18.3203 0.225586 18.2939 0.234375 18.2617 0.234375C18.2295 0.234375 18.2031 0.243164 18.2031 0.253906C18.2031 0.264648 18.1768 0.273437 18.1445 0.273437C18.1123 0.273437 18.0859 0.282226 18.0859 0.292969C18.0859 0.303711 18.0684 0.3125 18.0469 0.3125C18.0254 0.3125 18.0078 0.321289 18.0078 0.332031C18.0078 0.342773 17.9814 0.351562 17.9492 0.351562C17.917 0.351562 17.8906 0.360351 17.8906 0.371094C17.8906 0.381836 17.873 0.390625 17.8516 0.390625C17.8301 0.390625 17.8125 0.399414 17.8125 0.410156C17.8125 0.420898 17.7861 0.429687 17.7539 0.429687C17.7217 0.429687 17.6953 0.438476 17.6953 0.449219C17.6953 0.459961 17.6689 0.46875 17.6367 0.46875C17.6045 0.46875 17.5781 0.477539 17.5781 0.488281C17.5781 0.499023 17.5605 0.507812 17.5391 0.507812C17.5176 0.507812 17.5 0.516601 17.5 0.527344C17.5 0.538086 17.4736 0.546875 17.4414 0.546875C17.4092 0.546875 17.3828 0.555664 17.3828 0.566406C17.3828 0.577148 17.3652 0.585937 17.3438 0.585937C17.3223 0.585937 17.3047 0.594726 17.3047 0.605469C17.3047 0.616211 17.2783 0.625 17.2461 0.625C17.2139 0.625 17.1875 0.633789 17.1875 0.644531C17.1875 0.655273 17.1611 0.664062 17.1289 0.664062C17.0967 0.664062 17.0703 0.672851 17.0703 0.683594C17.0703 0.694336 17.0527 0.703125 17.0312 0.703125C17.0098 0.703125 16.9922 0.711914 16.9922 0.722656C16.9922 0.733398 16.9658 0.742187 16.9336 0.742187C16.9014 0.742187 16.875 0.750976 16.875 0.761719C16.875 0.772461 16.8574 0.78125 16.8359 0.78125C16.8145 0.78125 16.7969 0.790039 16.7969 0.800781C16.7969 0.811523 16.7705 0.820312 16.7383 0.820312C16.7061 0.820312 16.6797 0.829101 16.6797 0.839844C16.6797 0.850586 16.6533 0.859375 16.6211 0.859375C16.5889 0.859375 16.5625 0.868164 16.5625 0.878906C16.5625 0.889648 16.5449 0.898437 16.5234 0.898437C16.502 0.898437 16.4844 0.907226 16.4844 0.917969C16.4844 0.928711 16.458 0.9375 16.4258 0.9375C16.3936 0.9375 16.3672 0.946289 16.3672 0.957031C16.3672 0.967773 16.3408 0.976562 16.3086 0.976562C16.2764 0.976562 16.25 0.985351 16.25 0.996093C16.25 1.00684 16.2324 1.01562 16.2109 1.01562C16.1895 1.01562 16.1719 1.02441 16.1719 1.03516C16.1719 1.0459 16.1455 1.05469 16.1133 1.05469C16.0811 1.05469 16.0547 1.06348 16.0547 1.07422C16.0547 1.08496 16.0371 1.09375 16.0156 1.09375C15.9941 1.09375 15.9766 1.10254 15.9766 1.11328C15.9766 1.12402 15.9502 1.13281 15.918 1.13281C15.8857 1.13281 15.8594 1.1416 15.8594 1.15234C15.8594 1.16309 15.833 1.17187 15.8008 1.17187C15.7686 1.17187 15.7422 1.18066 15.7422 1.19141C15.7422 1.20215 15.7246 1.21094 15.7031 1.21094C15.6816 1.21094 15.6641 1.21973 15.6641 1.23047C15.6641 1.24121 15.6377 1.25 15.6055 1.25C15.5732 1.25 15.5469 1.25879 15.5469 1.26953C15.5469 1.28027 15.5293 1.28906 15.5078 1.28906C15.4863 1.28906 15.4688 1.29785 15.4688 1.30859C15.4688 1.31934 15.4424 1.32812 15.4102 1.32812C15.3779 1.32812 15.3516 1.33691 15.3516 1.34766C15.3516 1.3584 15.3252 1.36719 15.293 1.36719C15.2607 1.36719 15.2344 1.37598 15.2344 1.38672C15.2344 1.39746 15.2168 1.40625 15.1953 1.40625C15.1738 1.40625 15.1562 1.41504 15.1562 1.42578C15.1562 1.43652 15.1299 1.44531 15.0977 1.44531C15.0654 1.44531 15.0391 1.4541 15.0391 1.46484C15.0391 1.47559 15.0127 1.48437 14.9805 1.48437C14.9482 1.48437 14.9219 1.49316 14.9219 1.50391C14.9219 1.51465 14.9043 1.52344 14.8828 1.52344C14.8613 1.52344 14.8437 1.53223 14.8437 1.54297C14.8437 1.55371 14.8174 1.5625 14.7852 1.5625C14.7529 1.5625 14.7266 1.57129 14.7266 1.58203C14.7266 1.59277 14.709 1.60156 14.6875 1.60156C14.666 1.60156 14.6484 1.61035 14.6484 1.62109C14.6484 1.63184 14.6221 1.64062 14.5898 1.64062C14.5576 1.64062 14.5312 1.64941 14.5312 1.66016C14.5312 1.6709 14.5049 1.67969 14.4727 1.67969C14.4404 1.67969 14.4141 1.68848 14.4141 1.69922C14.4141 1.70996 14.3965 1.71875 14.375 1.71875C14.3535 1.71875 14.3359 1.72754 14.3359 1.73828C14.3359 1.74902 14.3096 1.75781 14.2773 1.75781C14.2451 1.75781 14.2187 1.7666 14.2187 1.77734C14.2187 1.78809 14.2012 1.79687 14.1797 1.79687C14.1582 1.79687 14.1406 1.80566 14.1406 1.81641C14.1406 1.82715 14.1143 1.83594 14.082 1.83594C14.0498 1.83594 14.0234 1.84473 14.0234 1.85547C14.0234 1.86621 13.9971 1.875 13.9648 1.875C13.9326 1.875 13.9062 1.88379 13.9062 1.89453C13.9062 1.90527 13.8887 1.91406 13.8672 1.91406C13.8457 1.91406 13.8281 1.92285 13.8281 1.93359C13.8281 1.94434 13.8018 1.95312 13.7695 1.95312C13.7373 1.95312 13.7109 1.96191 13.7109 1.97266C13.7109 1.9834 13.6934 1.99219 13.6719 1.99219C13.6504 1.99219 13.6328 2.00098 13.6328 2.01172C13.6328 2.02246 13.6064 2.03125 13.5742 2.03125C13.542 2.03125 13.5156 2.04004 13.5156 2.05078C13.5156 2.06152 13.4893 2.07031 13.457 2.07031C13.4248 2.07031 13.3984 2.0791 13.3984 2.08984C13.3984 2.10059 13.3809 2.10937 13.3594 2.10937C13.3379 2.10937 13.3203 2.11816 13.3203 2.12891C13.3203 2.13965 13.2939 2.14844 13.2617 2.14844C13.2295 2.14844 13.2031 2.15723 13.2031 2.16797C13.2031 2.17871 13.1768 2.1875 13.1445 2.1875C13.1123 2.1875 13.0859 2.19629 13.0859 2.20703C13.0859 2.21777 13.0684 2.22656 13.0469 2.22656C13.0254 2.22656 13.0078 2.23535 13.0078 2.24609C13.0078 2.25684 12.9814 2.26562 12.9492 2.26562C12.917 2.26562 12.8906 2.27441 12.8906 2.28516C12.8906 2.2959 12.873 2.30469 12.8516 2.30469C12.8301 2.30469 12.8125 2.31348 12.8125 2.32422C12.8125 2.33496 12.7861 2.34375 12.7539 2.34375C12.7217 2.34375 12.6953 2.35254 12.6953 2.36328C12.6953 2.37402 12.6689 2.38281 12.6367 2.38281C12.6045 2.38281 12.5781 2.3916 12.5781 2.40234C12.5781 2.41309 12.5605 2.42187 12.5391 2.42187C12.5176 2.42187 12.5 2.43066 12.5 2.44141C12.5 2.45215 12.4736 2.46094 12.4414 2.46094C12.4092 2.46094 12.3828 2.46973 12.3828 2.48047C12.3828 2.49121 12.3652 2.5 12.3438 2.5C12.3223 2.5 12.3047 2.50879 12.3047 2.51953C12.3047 2.53027 12.2783 2.53906 12.2461 2.53906C12.2139 2.53906 12.1875 2.54785 12.1875 2.55859C12.1875 2.56934 12.1611 2.57812 12.1289 2.57812C12.0967 2.57812 12.0703 2.58691 12.0703 2.59766C12.0703 2.6084 12.0527 2.61719 12.0312 2.61719C12.0098 2.61719 11.9922 2.62598 11.9922 2.63672C11.9922 2.64746 11.9658 2.65625 11.9336 2.65625C11.9014 2.65625 11.875 2.66504 11.875 2.67578C11.875 2.68652 11.8574 2.69531 11.8359 2.69531C11.8145 2.69531 11.7969 2.7041 11.7969 2.71484C11.7969 2.72559 11.7705 2.73437 11.7383 2.73437C11.7061 2.73437 11.6797 2.74316 11.6797 2.75391C11.6797 2.76465 11.6533 2.77344 11.6211 2.77344C11.5889 2.77344 11.5625 2.78223 11.5625 2.79297C11.5625 2.80371 11.5449 2.8125 11.5234 2.8125C11.502 2.8125 11.4844 2.82129 11.4844 2.83203C11.4844 2.84277 11.458 2.85156 11.4258 2.85156C11.3936 2.85156 11.3672 2.86035 11.3672 2.87109C11.3672 2.88184 11.3408 2.89062 11.3086 2.89062C11.2764 2.89062 11.25 2.89941 11.25 2.91016C11.25 2.9209 11.2324 2.92969 11.2109 2.92969C11.1895 2.92969 11.1719 2.93848 11.1719 2.94922C11.1719 2.95996 11.1455 2.96875 11.1133 2.96875C11.0811 2.96875 11.0547 2.97754 11.0547 2.98828C11.0547 2.99902 11.0371 3.00781 11.0156 3.00781C10.9941 3.00781 10.9766 3.0166 10.9766 3.02734C10.9766 3.03809 10.9502 3.04687 10.918 3.04687C10.8857 3.04687 10.8594 3.05566 10.8594 3.06641C10.8594 3.07715 10.833 3.08594 10.8008 3.08594C10.7686 3.08594 10.7422 3.09473 10.7422 3.10547C10.7422 3.11621 10.7246 3.125 10.7031 3.125C10.6816 3.125 10.6641 3.13379 10.6641 3.14453C10.6641 3.15527 10.6377 3.16406 10.6055 3.16406C10.5732 3.16406 10.5469 3.17285 10.5469 3.18359C10.5469 3.19434 10.5293 3.20312 10.5078 3.20312C10.4863 3.20312 10.4688 3.21191 10.4688 3.22266C10.4688 3.2334 10.4424 3.24219 10.4102 3.24219C10.3779 3.24219 10.3516 3.25098 10.3516 3.26172C10.3516 3.27246 10.3252 3.28125 10.293 3.28125C10.2607 3.28125 10.2344 3.29004 10.2344 3.30078C10.2344 3.31152 10.2168 3.32031 10.1953 3.32031C10.1738 3.32031 10.1562 3.3291 10.1562 3.33984C10.1562 3.35059 10.1299 3.35937 10.0977 3.35937C10.0654 3.35937 10.0391 3.36816 10.0391 3.37891C10.0391 3.38965 10.0215 3.39844 10 3.39844C9.97852 3.39844 9.96094 3.40723 9.96094 3.41797C9.96094 3.42871 9.93457 3.4375 9.90234 3.4375C9.87012 3.4375 9.84375 3.44629 9.84375 3.45703C9.84375 3.46777 9.81738 3.47656 9.78516 3.47656C9.75293 3.47656 9.72656 3.48535 9.72656 3.49609C9.72656 3.50683 9.70898 3.51562 9.6875 3.51562C9.66602 3.51562 9.64844 3.52441 9.64844 3.53516C9.64844 3.5459 9.62207 3.55469 9.58984 3.55469C9.55762 3.55469 9.53125 3.56348 9.53125 3.57422C9.53125 3.58496 9.50488 3.59375 9.47266 3.59375C9.44043 3.59375 9.41406 3.60254 9.41406 3.61328C9.41406 3.62402 9.39648 3.63281 9.375 3.63281C9.35352 3.63281 9.33594 3.6416 9.33594 3.65234C9.33594 3.66308 9.30957 3.67187 9.27734 3.67187C9.24512 3.67187 9.21875 3.68066 9.21875 3.69141C9.21875 3.70215 9.20117 3.71094 9.17969 3.71094C9.1582 3.71094 9.14062 3.71973 9.14062 3.73047C9.14062 3.74121 9.11426 3.75 9.08203 3.75C9.0498 3.75 9.02344 3.75879 9.02344 3.76953C9.02344 3.78027 8.99707 3.78906 8.96484 3.78906C8.93262 3.78906 8.90625 3.79785 8.90625 3.80859C8.90625 3.81933 8.88867 3.82812 8.86719 3.82812C8.8457 3.82812 8.82812 3.83691 8.82812 3.84766C8.82812 3.8584 8.80176 3.86719 8.76953 3.86719C8.7373 3.86719 8.71094 3.87598 8.71094 3.88672C8.71094 3.89746 8.69336 3.90625 8.67188 3.90625C8.65039 3.90625 8.63281 3.91504 8.63281 3.92578C8.63281 3.93652 8.60645 3.94531 8.57422 3.94531C8.54199 3.94531 8.51562 3.9541 8.51562 3.96484C8.51562 3.97558 8.48926 3.98437 8.45703 3.98437C8.4248 3.98437 8.39844 3.99316 8.39844 4.00391C8.39844 4.01465 8.38086 4.02344 8.35938 4.02344C8.33789 4.02344 8.32031 4.03223 8.32031 4.04297C8.32031 4.05371 8.29395 4.0625 8.26172 4.0625C8.22949 4.0625 8.20312 4.07129 8.20312 4.08203C8.20312 4.09277 8.17676 4.10156 8.14453 4.10156C8.1123 4.10156 8.08594 4.11035 8.08594 4.12109C8.08594 4.13183 8.06836 4.14062 8.04688 4.14062C8.02539 4.14062 8.00781 4.14941 8.00781 4.16016C8.00781 4.1709 7.98144 4.17969 7.94922 4.17969C7.91699 4.17969 7.89062 4.18848 7.89062 4.19922C7.89062 4.20996 7.87305 4.21875 7.85156 4.21875C7.83008 4.21875 7.8125 4.22754 7.8125 4.23828C7.8125 4.24902 7.78613 4.25781 7.75391 4.25781C7.72168 4.25781 7.69531 4.2666 7.69531 4.27734C7.69531 4.28808 7.66894 4.29687 7.63672 4.29687C7.60449 4.29687 7.57812 4.30566 7.57812 4.3164C7.57812 4.32715 7.56055 4.33594 7.53906 4.33594C7.51758 4.33594 7.5 4.34473 7.5 4.35547C7.5 4.36621 7.47363 4.375 7.44141 4.375C7.40918 4.375 7.38281 4.38379 7.38281 4.39453C7.38281 4.40527 7.36523 4.41406 7.34375 4.41406C7.32227 4.41406 7.30469 4.42285 7.30469 4.43359C7.30469 4.44433 7.27832 4.45312 7.24609 4.45312C7.21387 4.45312 7.1875 4.46191 7.1875 4.47266C7.1875 4.4834 7.16113 4.49219 7.12891 4.49219C7.09668 4.49219 7.07031 4.50098 7.07031 4.51172C7.07031 4.52246 7.05273 4.53125 7.03125 4.53125C7.00977 4.53125 6.99219 4.54004 6.99219 4.55078C6.99219 4.56152 6.96582 4.57031 6.93359 4.57031C6.90137 4.57031 6.875 4.5791 6.875 4.58984C6.875 4.60058 6.85742 4.60937 6.83594 4.60937C6.81445 4.60937 6.79688 4.61816 6.79688 4.62891C6.79688 4.63965 6.77051 4.64844 6.73828 4.64844C6.70605 4.64844 6.67969 4.65723 6.67969 4.66797C6.67969 4.67871 6.65332 4.6875 6.62109 4.6875C6.58887 4.6875 6.5625 4.69629 6.5625 4.70703C6.5625 4.71777 6.54492 4.72656 6.52344 4.72656C6.50195 4.72656 6.48438 4.73535 6.48438 4.74609C6.48438 4.75683 6.45801 4.76562 6.42578 4.76562C6.39355 4.76562 6.36719 4.77441 6.36719 4.78516C6.36719 4.7959 6.34082 4.80469 6.30859 4.80469C6.27637 4.80469 6.25 4.81348 6.25 4.82422C6.25 4.83496 6.23242 4.84375 6.21094 4.84375C6.18945 4.84375 6.17188 4.85254 6.17188 4.86328C6.17188 4.87402 6.14551 4.88281 6.11328 4.88281C6.08105 4.88281 6.05469 4.8916 6.05469 4.90234C6.05469 4.91308 6.03711 4.92187 6.01562 4.92187C5.99414 4.92187 5.97656 4.93066 5.97656 4.94141C5.97656 4.95215 5.9502 4.96094 5.91797 4.96094C5.88574 4.96094 5.85938 4.96973 5.85938 4.98047C5.85938 4.99121 5.83301 5 5.80078 5C5.76855 5 5.74219 5.00879 5.74219 5.01953C5.74219 5.03027 5.72461 5.03906 5.70312 5.03906C5.68164 5.03906 5.66406 5.04785 5.66406 5.05859C5.66406 5.06933 5.6377 5.07812 5.60547 5.07812C5.57324 5.07812 5.54688 5.08691 5.54688 5.09765C5.54688 5.1084 5.5293 5.11719 5.50781 5.11719C5.48633 5.11719 5.46875 5.12598 5.46875 5.13672C5.46875 5.14746 5.44238 5.15625 5.41016 5.15625C5.37793 5.15625 5.35156 5.16504 5.35156 5.17578C5.35156 5.18652 5.3252 5.19531 5.29297 5.19531C5.26074 5.19531 5.23438 5.2041 5.23438 5.21484C5.23438 5.22558 5.2168 5.23437 5.19531 5.23437C5.17383 5.23437 5.15625 5.24316 5.15625 5.2539C5.15625 5.26465 5.12988 5.27344 5.09766 5.27344C5.06543 5.27344 5.03906 5.28223 5.03906 5.29297C5.03906 5.30371 5.02148 5.3125 5 5.3125C4.97852 5.3125 4.96094 5.32129 4.96094 5.33203C4.96094 5.34277 4.93457 5.35156 4.90234 5.35156C4.87012 5.35156 4.84375 5.36035 4.84375 5.37109C4.84375 5.38183 4.81738 5.39062 4.78516 5.39062C4.75293 5.39062 4.72656 5.39941 4.72656 5.41015C4.72656 5.4209 4.70898 5.42969 4.6875 5.42969C4.66602 5.42969 4.64844 5.43848 4.64844 5.44922C4.64844 5.45996 4.62207 5.46875 4.58984 5.46875C4.55762 5.46875 4.53125 5.47754 4.53125 5.48828C4.53125 5.49902 4.50488 5.50781 4.47266 5.50781C4.44043 5.50781 4.41406 5.5166 4.41406 5.52734C4.41406 5.53808 4.39648 5.54687 4.375 5.54687C4.35352 5.54687 4.33594 5.55566 4.33594 5.5664C4.33594 5.57715 4.30957 5.58594 4.27734 5.58594C4.24512 5.58594 4.21875 5.59473 4.21875 5.60547C4.21875 5.61621 4.20117 5.625 4.17969 5.625C4.1582 5.625 4.14062 5.63379 4.14062 5.64453C4.14062 5.65527 4.11426 5.66406 4.08203 5.66406C4.0498 5.66406 4.02344 5.67285 4.02344 5.68359C4.02344 5.69433 3.99707 5.70312 3.96484 5.70312C3.93262 5.70312 3.90625 5.71191 3.90625 5.72265C3.90625 5.7334 3.88867 5.74219 3.86719 5.74219C3.8457 5.74219 3.82812 5.75098 3.82812 5.76172C3.82812 5.77246 3.80176 5.78125 3.76953 5.78125C3.7373 5.78125 3.71094 5.79004 3.71094 5.80078C3.71094 5.81152 3.69336 5.82031 3.67187 5.82031C3.65039 5.82031 3.63281 5.8291 3.63281 5.83984C3.63281 5.85058 3.60645 5.85937 3.57422 5.85937C3.54199 5.85937 3.51562 5.86816 3.51562 5.8789C3.51562 5.88965 3.48926 5.89844 3.45703 5.89844C3.4248 5.89844 3.39844 5.90723 3.39844 5.91797C3.39844 5.92871 3.38086 5.9375 3.35938 5.9375C3.33789 5.9375 3.32031 5.94629 3.32031 5.95703C3.32031 5.96777 3.29395 5.97656 3.26172 5.97656C3.22949 5.97656 3.20312 5.98535 3.20312 5.99609C3.20312 6.00683 3.18555 6.01562 3.16406 6.01562C3.14258 6.01562 3.125 6.02441 3.125 6.03515C3.125 6.0459 3.09863 6.05469 3.06641 6.05469C3.03418 6.05469 3.00781 6.06348 3.00781 6.07422C3.00781 6.08496 2.98145 6.09375 2.94922 6.09375C2.91699 6.09375 2.89062 6.10254 2.89062 6.11328C2.89062 6.12402 2.87305 6.13281 2.85156 6.13281C2.83008 6.13281 2.8125 6.1416 2.8125 6.15234C2.8125 6.16308 2.78613 6.17187 2.75391 6.17187C2.72168 6.17187 2.69531 6.18066 2.69531 6.1914C2.69531 6.20215 2.66895 6.21094 2.63672 6.21094C2.60449 6.21094 2.57812 6.21973 2.57812 6.23047C2.57812 6.24121 2.56055 6.25 2.53906 6.25C2.51758 6.25 2.5 6.25879 2.5 6.26953C2.5 6.28027 2.47363 6.28906 2.44141 6.28906C2.40918 6.28906 2.38281 6.29785 2.38281 6.30859C2.38281 6.31933 2.36523 6.32812 2.34375 6.32812C2.32227 6.32812 2.30469 6.33691 2.30469 6.34765C2.30469 6.3584 2.27832 6.36719 2.24609 6.36719C2.21387 6.36719 2.1875 6.37598 2.1875 6.38672C2.1875 6.39746 2.16113 6.40625 2.12891 6.40625C2.09668 6.40625 2.07031 6.41504 2.07031 6.42578C2.07031 6.43652 2.05273 6.44531 2.03125 6.44531C2.00977 6.44531 1.99219 6.4541 1.99219 6.46484C1.99219 6.47558 1.96582 6.48437 1.93359 6.48437C1.90137 6.48437 1.875 6.49316 1.875 6.5039C1.875 6.51465 1.85742 6.52344 1.83594 6.52344C1.81445 6.52344 1.79687 6.53222 1.79687 6.54297C1.79687 6.55371 1.77051 6.5625 1.73828 6.5625C1.70605 6.5625 1.67969 6.57129 1.67969 6.58203C1.67969 6.59277 1.65332 6.60156 1.62109 6.60156C1.58887 6.60156 1.5625 6.61035 1.5625 6.62109C1.5625 6.63183 1.54492 6.64062 1.52344 6.64062C1.50195 6.64062 1.48438 6.64941 1.48438 6.66015C1.48438 6.6709 1.45801 6.67969 1.42578 6.67969C1.39355 6.67969 1.36719 6.68848 1.36719 6.69922C1.36719 6.70996 1.34082 6.71875 1.30859 6.71875C1.27637 6.71875 1.25 6.72754 1.25 6.73828C1.25 6.74902 1.23242 6.75781 1.21094 6.75781C1.18945 6.75781 1.17188 6.7666 1.17188 6.77734C1.17188 6.78808 1.14551 6.79687 1.11328 6.79687C1.08105 6.79687 1.05469 6.80566 1.05469 6.8164C1.05469 6.82715 1.03711 6.83594 1.01562 6.83594C0.994141 6.83594 0.976562 6.84473 0.976562 6.85547C0.976562 6.86621 0.950195 6.875 0.917969 6.875C0.885742 6.875 0.859375 6.88379 0.859375 6.89453C0.859375 6.90527 0.841797 6.91406 0.820312 6.91406C0.798828 6.91406 0.78125 6.92285 0.78125 6.93359C0.78125 6.94433 0.763672 6.95312 0.742188 6.95312C0.720703 6.95312 0.703125 6.96191 0.703125 6.97265C0.703125 6.9834 0.685547 6.99219 0.664062 6.99219C0.642578 6.99219 0.625 7.00097 0.625 7.01172C0.625 7.02246 0.607422 7.03125 0.585938 7.03125C0.564453 7.03125 0.546875 7.04004 0.546875 7.05078C0.546875 7.06152 0.529297 7.07031 0.507812 7.07031C0.486328 7.07031 0.46875 7.0791 0.46875 7.08984C0.46875 7.10058 0.454707 7.10937 0.43752 7.10937C0.420352 7.10937 0.38166 7.13574 0.351562 7.16797C0.321465 7.20019 0.286875 7.22656 0.274707 7.22656C0.244043 7.22656 0.117187 7.35625 0.117187 7.38762C0.117187 7.40172 0.0996094 7.42592 0.078125 7.4414C0.0551953 7.45795 0.0390625 7.49197 0.0390625 7.52385C0.0390625 7.55369 0.0302734 7.57812 0.0195312 7.57812C0.00867188 7.57812 0 7.63021 0 7.69531C0 7.76041 0.00867188 7.8125 0.0195312 7.8125C0.0302734 7.8125 0.0390625 7.83008 0.0390625 7.85156C0.0390625 7.87304 0.0478516 7.89062 0.0585937 7.89062C0.0693359 7.89062 0.078125 7.9042 0.078125 7.9208C0.078125 7.95586 0.163477 8.04687 0.196348 8.04687C0.208652 8.04687 0.24334 8.07324 0.273438 8.10547C0.303535 8.13769 0.342227 8.16406 0.359395 8.16406C0.376582 8.16406 0.390625 8.17285 0.390625 8.18359C0.390625 8.19433 0.408203 8.20312 0.429688 8.20312C0.451172 8.20312 0.46875 8.21191 0.46875 8.22265C0.46875 8.2334 0.486328 8.24219 0.507812 8.24219C0.529297 8.24219 0.546875 8.25097 0.546875 8.26172C0.546875 8.27246 0.573242 8.28125 0.605469 8.28125C0.637695 8.28125 0.664062 8.29004 0.664062 8.30078C0.664062 8.31152 0.69043 8.32031 0.722656 8.32031C0.754883 8.32031 0.78125 8.3291 0.78125 8.33984C0.78125 8.35058 0.807617 8.35937 0.839844 8.35937C0.87207 8.35937 0.898437 8.36816 0.898437 8.3789C0.898437 8.38965 0.933594 8.39844 0.976562 8.39844C1.01953 8.39844 1.05469 8.40722 1.05469 8.41797C1.05469 8.42871 1.08105 8.4375 1.11328 8.4375C1.14551 8.4375 1.17188 8.44629 1.17188 8.45703C1.17188 8.46777 1.19824 8.47656 1.23047 8.47656C1.2627 8.47656 1.28906 8.48535 1.28906 8.49609C1.28906 8.50683 1.31543 8.51562 1.34766 8.51562C1.37988 8.51562 1.40625 8.52441 1.40625 8.53515C1.40625 8.5459 1.44141 8.55469 1.48438 8.55469C1.52734 8.55469 1.5625 8.56347 1.5625 8.57422C1.5625 8.58496 1.58887 8.59375 1.62109 8.59375C1.65332 8.59375 1.67969 8.60254 1.67969 8.61328C1.67969 8.62402 1.70605 8.63281 1.73828 8.63281C1.77051 8.63281 1.79687 8.6416 1.79687 8.65234C1.79687 8.66308 1.82324 8.67187 1.85547 8.67187C1.8877 8.67187 1.91406 8.68066 1.91406 8.6914C1.91406 8.70215 1.94043 8.71093 1.97266 8.71093C2.00488 8.71093 2.03125 8.71972 2.03125 8.73047C2.03125 8.74121 2.06641 8.75 2.10938 8.75C2.15234 8.75 2.1875 8.75879 2.1875 8.76953C2.1875 8.78027 2.21387 8.78906 2.24609 8.78906C2.27832 8.78906 2.30469 8.79785 2.30469 8.80859C2.30469 8.81933 2.33105 8.82812 2.36328 8.82812C2.39551 8.82812 2.42188 8.83691 2.42188 8.84765C2.42188 8.8584 2.44824 8.86719 2.48047 8.86719C2.5127 8.86719 2.53906 8.87597 2.53906 8.88672C2.53906 8.89746 2.57422 8.90625 2.61719 8.90625C2.66016 8.90625 2.69531 8.91504 2.69531 8.92578C2.69531 8.93652 2.72168 8.94531 2.75391 8.94531C2.78613 8.94531 2.8125 8.9541 2.8125 8.96484C2.8125 8.97558 2.83887 8.98437 2.87109 8.98437C2.90332 8.98437 2.92969 8.99316 2.92969 9.0039C2.92969 9.01465 2.95605 9.02344 2.98828 9.02344C3.02051 9.02344 3.04688 9.03222 3.04688 9.04297C3.04688 9.05371 3.07324 9.0625 3.10547 9.0625C3.1377 9.0625 3.16406 9.07129 3.16406 9.08203C3.16406 9.09277 3.19922 9.10156 3.24219 9.10156C3.28516 9.10156 3.32031 9.11035 3.32031 9.12109C3.32031 9.13183 3.34668 9.14062 3.37891 9.14062C3.41113 9.14062 3.4375 9.14941 3.4375 9.16015C3.4375 9.1709 3.46387 9.17969 3.49609 9.17969C3.52832 9.17969 3.55469 9.18847 3.55469 9.19922C3.55469 9.20996 3.58105 9.21875 3.61328 9.21875C3.64551 9.21875 3.67187 9.22754 3.67187 9.23828C3.67187 9.24902 3.69824 9.25781 3.73047 9.25781C3.7627 9.25781 3.78906 9.2666 3.78906 9.27734C3.78906 9.28808 3.82422 9.29687 3.86719 9.29687C3.91016 9.29687 3.94531 9.30566 3.94531 9.3164C3.94531 9.32715 3.97168 9.33594 4.00391 9.33594C4.03613 9.33594 4.0625 9.34472 4.0625 9.35547C4.0625 9.36621 4.08887 9.375 4.12109 9.375C4.15332 9.375 4.17969 9.38379 4.17969 9.39453C4.17969 9.40527 4.20605 9.41406 4.23828 9.41406C4.27051 9.41406 4.29688 9.42285 4.29688 9.43359C4.29688 9.44433 4.33203 9.45312 4.375 9.45312C4.41797 9.45312 4.45312 9.46191 4.45312 9.47265C4.45312 9.4834 4.47949 9.49219 4.51172 9.49219C4.54395 9.49219 4.57031 9.50097 4.57031 9.51172C4.57031 9.52246 4.59668 9.53125 4.62891 9.53125C4.66113 9.53125 4.6875 9.54004 4.6875 9.55078C4.6875 9.56152 4.71387 9.57031 4.74609 9.57031C4.77832 9.57031 4.80469 9.5791 4.80469 9.58984C4.80469 9.60058 4.83105 9.60937 4.86328 9.60937C4.89551 9.60937 4.92188 9.61816 4.92188 9.6289C4.92188 9.63965 4.95703 9.64844 5 9.64844C5.04297 9.64844 5.07812 9.65722 5.07812 9.66797C5.07812 9.67871 5.10449 9.6875 5.13672 9.6875C5.16895 9.6875 5.19531 9.69629 5.19531 9.70703C5.19531 9.74312 5.30303 9.72775 5.33203 9.6875C5.34752 9.66601 5.37389 9.64844 5.39062 9.64844C5.40736 9.64844 5.43373 9.63086 5.44922 9.60937C5.46471 9.58789 5.49301 9.57031 5.51213 9.57031C5.53123 9.57031 5.54688 9.56152 5.54688 9.55078C5.54688 9.54004 5.56252 9.53125 5.58162 9.53125C5.60074 9.53125 5.62904 9.51367 5.64453 9.49219C5.66002 9.4707 5.68639 9.45312 5.70312 9.45312C5.71986 9.45312 5.74623 9.43554 5.76172 9.41406C5.77721 9.39258 5.80551 9.375 5.82463 9.375C5.84373 9.375 5.85938 9.36621 5.85938 9.35547C5.85938 9.34472 5.87502 9.33594 5.89412 9.33594C5.91324 9.33594 5.94154 9.31836 5.95703 9.29687C5.97252 9.27539 5.99889 9.25781 6.01562 9.25781C6.03236 9.25781 6.05873 9.24023 6.07422 9.21875C6.08971 9.19726 6.11801 9.17969 6.13713 9.17969C6.15623 9.17969 6.17188 9.1709 6.17188 9.16015C6.17188 9.14941 6.18752 9.14062 6.20662 9.14062C6.22574 9.14062 6.25404 9.12304 6.26953 9.10156C6.28502 9.08008 6.31139 9.0625 6.32812 9.0625C6.34486 9.0625 6.37123 9.04492 6.38672 9.02344C6.40221 9.00195 6.43051 8.98437 6.44963 8.98437C6.46873 8.98437 6.48438 8.97558 6.48438 8.96484C6.48438 8.9541 6.50002 8.94531 6.51912 8.94531C6.53824 8.94531 6.56654 8.92773 6.58203 8.90625C6.59752 8.88476 6.62389 8.86719 6.64062 8.86719C6.65736 8.86719 6.68373 8.84961 6.69922 8.82812C6.71471 8.80664 6.74301 8.78906 6.76213 8.78906C6.78123 8.78906 6.79688 8.78027 6.79688 8.76953C6.79688 8.75879 6.81252 8.75 6.83162 8.75C6.85074 8.75 6.87904 8.73242 6.89453 8.71093C6.91002 8.68945 6.93639 8.67187 6.95312 8.67187C6.96986 8.67187 6.99623 8.65429 7.01172 8.63281C7.02721 8.61133 7.05551 8.59375 7.07463 8.59375C7.09373 8.59375 7.10937 8.58496 7.10937 8.57422C7.10937 8.56347 7.12502 8.55469 7.14412 8.55469C7.16324 8.55469 7.19154 8.53711 7.20703 8.51562C7.22252 8.49414 7.24889 8.47656 7.26562 8.47656C7.28236 8.47656 7.30873 8.45898 7.32422 8.4375C7.33971 8.41601 7.36801 8.39844 7.38713 8.39844C7.40623 8.39844 7.42187 8.38965 7.42187 8.3789C7.42187 8.36816 7.43752 8.35937 7.45662 8.35937C7.47574 8.35937 7.50404 8.34179 7.51953 8.32031C7.53502 8.29883 7.56139 8.28125 7.57812 8.28125C7.59486 8.28125 7.62123 8.26367 7.63672 8.24219C7.65221 8.2207 7.68051 8.20312 7.69963 8.20312C7.71873 8.20312 7.73438 8.19433 7.73438 8.18359C7.73438 8.17285 7.75002 8.16406 7.76912 8.16406C7.78824 8.16406 7.81654 8.14648 7.83203 8.125C7.84752 8.10351 7.87389 8.08594 7.89062 8.08594C7.90736 8.08594 7.93373 8.06836 7.94922 8.04687C7.96471 8.02539 7.99107 8.00781 8.00781 8.00781C8.02455 8.00781 8.05092 7.99023 8.06641 7.96875C8.08189 7.94726 8.1102 7.92969 8.12932 7.92969C8.14842 7.92969 8.16406 7.9209 8.16406 7.91015C8.16406 7.89941 8.17971 7.89062 8.19881 7.89062C8.21793 7.89062 8.24623 7.87304 8.26172 7.85156C8.27721 7.83008 8.30357 7.8125 8.32031 7.8125C8.33705 7.8125 8.36342 7.79492 8.37891 7.77344C8.39439 7.75195 8.4227 7.73437 8.44182 7.73437C8.46092 7.73437 8.47656 7.72558 8.47656 7.71484C8.47656 7.7041 8.49221 7.69531 8.51131 7.69531C8.53043 7.69531 8.55873 7.67773 8.57422 7.65625C8.58971 7.63476 8.61607 7.61719 8.63281 7.61719C8.64955 7.61719 8.67592 7.59961 8.69141 7.57812C8.70689 7.55664 8.7352 7.53906 8.75432 7.53906C8.77342 7.53906 8.78906 7.53027 8.78906 7.51953C8.78906 7.50879 8.80471 7.5 8.82381 7.5C8.84293 7.5 8.87123 7.48242 8.88672 7.46094C8.90221 7.43945 8.92857 7.42187 8.94531 7.42187C8.96205 7.42187 8.98842 7.40429 9.00391 7.38281C9.01939 7.36133 9.0477 7.34375 9.06682 7.34375C9.08592 7.34375 9.10156 7.33496 9.10156 7.32422C9.10156 7.31347 9.11721 7.30469 9.13631 7.30469C9.15543 7.30469 9.18373 7.28711 9.19922 7.26562C9.21471 7.24414 9.24107 7.22656 9.25781 7.22656C9.27455 7.22656 9.30092 7.20898 9.31641 7.1875C9.33189 7.16601 9.3602 7.14844 9.37932 7.14844C9.39842 7.14844 9.41406 7.13965 9.41406 7.1289C9.41406 7.11816 9.42971 7.10937 9.44881 7.10937C9.46793 7.10937 9.49623 7.0918 9.51172 7.07031C9.52721 7.04883 9.55357 7.03125 9.57031 7.03125C9.58705 7.03125 9.61342 7.01367 9.62891 6.99219C9.64439 6.9707 9.6727 6.95312 9.69182 6.95312C9.71092 6.95312 9.72656 6.94433 9.72656 6.93359C9.72656 6.92285 9.74221 6.91406 9.76131 6.91406C9.78043 6.91406 9.80873 6.89648 9.82422 6.875C9.83971 6.85351 9.86607 6.83594 9.88281 6.83594C9.89955 6.83594 9.92592 6.81836 9.94141 6.79687C9.95689 6.77539 9.9852 6.75781 10.0043 6.75781C10.0234 6.75781 10.0391 6.74902 10.0391 6.73828C10.0391 6.72754 10.0547 6.71875 10.0738 6.71875C10.0929 6.71875 10.1212 6.70117 10.1367 6.67969C10.1522 6.6582 10.1786 6.64062 10.1953 6.64062C10.2121 6.64062 10.2384 6.62305 10.2539 6.60156C10.2694 6.58008 10.2977 6.5625 10.3168 6.5625C10.3359 6.5625 10.3516 6.55371 10.3516 6.54297C10.3516 6.53222 10.3672 6.52344 10.3863 6.52344C10.4054 6.52344 10.4337 6.50586 10.4492 6.48437C10.4647 6.46289 10.4911 6.44531 10.5078 6.44531C10.5246 6.44531 10.5509 6.42773 10.5664 6.40625C10.5819 6.38476 10.6102 6.36719 10.6293 6.36719C10.6484 6.36719 10.6641 6.3584 10.6641 6.34765C10.6641 6.33691 10.6797 6.32812 10.6988 6.32812C10.7179 6.32812 10.7462 6.31055 10.7617 6.28906C10.7772 6.26758 10.8036 6.25 10.8203 6.25C10.8371 6.25 10.8634 6.23242 10.8789 6.21094C10.8944 6.18945 10.9227 6.17187 10.9418 6.17187C10.9609 6.17187 10.9766 6.16308 10.9766 6.15234C10.9766 6.1416 10.9922 6.13281 11.0113 6.13281C11.0304 6.13281 11.0587 6.11523 11.0742 6.09375C11.0897 6.07226 11.1161 6.05469 11.1328 6.05469C11.1496 6.05469 11.1759 6.03711 11.1914 6.01562C11.2069 5.99414 11.2352 5.97656 11.2543 5.97656C11.2734 5.97656 11.2891 5.96777 11.2891 5.95703C11.2891 5.94629 11.3047 5.9375 11.3238 5.9375C11.3429 5.9375 11.3712 5.91992 11.3867 5.89844C11.4022 5.87695 11.4286 5.85937 11.4453 5.85937C11.4621 5.85937 11.4884 5.8418 11.5039 5.82031C11.5194 5.79883 11.5477 5.78125 11.5668 5.78125C11.5859 5.78125 11.6016 5.77246 11.6016 5.76172C11.6016 5.75098 11.6172 5.74219 11.6363 5.74219C11.6554 5.74219 11.6837 5.72461 11.6992 5.70312C11.7147 5.68164 11.7411 5.66406 11.7578 5.66406C11.7746 5.66406 11.8009 5.64648 11.8164 5.625C11.8319 5.60351 11.8602 5.58594 11.8793 5.58594C11.8984 5.58594 11.9141 5.57715 11.9141 5.5664C11.9141 5.55566 11.9297 5.54687 11.9488 5.54687C11.9679 5.54687 11.9962 5.5293 12.0117 5.50781C12.0272 5.48633 12.0536 5.46875 12.0703 5.46875C12.0871 5.46875 12.1134 5.45117 12.1289 5.42969C12.1444 5.4082 12.1727 5.39062 12.1918 5.39062C12.2109 5.39062 12.2266 5.38183 12.2266 5.37109C12.2266 5.36035 12.2422 5.35156 12.2613 5.35156C12.2804 5.35156 12.3087 5.33398 12.3242 5.3125C12.3397 5.29101 12.3661 5.27344 12.3828 5.27344C12.3996 5.27344 12.4259 5.25586 12.4414 5.23437C12.4569 5.21289 12.4852 5.19531 12.5043 5.19531C12.5234 5.19531 12.5391 5.18652 12.5391 5.17578C12.5391 5.16504 12.5547 5.15625 12.5738 5.15625C12.5929 5.15625 12.6212 5.13867 12.6367 5.11719C12.6522 5.0957 12.6786 5.07812 12.6953 5.07812C12.7121 5.07812 12.7384 5.06055 12.7539 5.03906C12.7694 5.01758 12.7977 5 12.8168 5C12.8359 5 12.8516 4.99121 12.8516 4.98047C12.8516 4.96973 12.8672 4.96094 12.8863 4.96094C12.9054 4.96094 12.9337 4.94336 12.9492 4.92187C12.9647 4.90039 12.9911 4.88281 13.0078 4.88281C13.0246 4.88281 13.0509 4.86523 13.0664 4.84375C13.0819 4.82226 13.1102 4.80469 13.1293 4.80469C13.1484 4.80469 13.1641 4.7959 13.1641 4.78516C13.1641 4.77441 13.1797 4.76562 13.1988 4.76562C13.2179 4.76562 13.2462 4.74805 13.2617 4.72656C13.2772 4.70508 13.3036 4.6875 13.3203 4.6875C13.3371 4.6875 13.3634 4.66992 13.3789 4.64844C13.3944 4.62695 13.4227 4.60937 13.4418 4.60937C13.4609 4.60937 13.4766 4.60058 13.4766 4.58984C13.4766 4.5791 13.4922 4.57031 13.5113 4.57031C13.5304 4.57031 13.5587 4.55273 13.5742 4.53125C13.5897 4.50976 13.6161 4.49219 13.6328 4.49219C13.6496 4.49219 13.6759 4.47461 13.6914 4.45312C13.7069 4.43164 13.7352 4.41406 13.7543 4.41406C13.7734 4.41406 13.7891 4.40527 13.7891 4.39453C13.7891 4.38379 13.8047 4.375 13.8238 4.375C13.8429 4.375 13.8712 4.35742 13.8867 4.33594C13.9022 4.31445 13.9286 4.29687 13.9453 4.29687C13.9621 4.29687 13.9884 4.2793 14.0039 4.25781C14.0194 4.23633 14.0477 4.21875 14.0668 4.21875C14.0859 4.21875 14.1016 4.20996 14.1016 4.19922C14.1016 4.18848 14.1172 4.17969 14.1363 4.17969C14.1554 4.17969 14.1837 4.16211 14.1992 4.14062C14.2147 4.11914 14.2411 4.10156 14.2578 4.10156C14.2746 4.10156 14.3009 4.08398 14.3164 4.0625C14.3319 4.04101 14.3602 4.02344 14.3793 4.02344C14.3984 4.02344 14.4141 4.01465 14.4141 4.00391C14.4141 3.99316 14.4297 3.98437 14.4488 3.98437C14.4679 3.98437 14.4962 3.9668 14.5117 3.94531C14.5272 3.92383 14.5536 3.90625 14.5703 3.90625C14.5871 3.90625 14.6134 3.88867 14.6289 3.86719C14.6444 3.8457 14.6727 3.82812 14.6918 3.82812C14.7109 3.82812 14.7266 3.81933 14.7266 3.80859C14.7266 3.79785 14.7422 3.78906 14.7613 3.78906C14.7804 3.78906 14.8087 3.77148 14.8242 3.75C14.8397 3.72851 14.8661 3.71094 14.8828 3.71094C14.8996 3.71094 14.9259 3.69336 14.9414 3.67187C14.9569 3.65039 14.9852 3.63281 15.0043 3.63281C15.0234 3.63281 15.0391 3.62402 15.0391 3.61328C15.0391 3.60254 15.0547 3.59375 15.0738 3.59375C15.0929 3.59375 15.1212 3.57617 15.1367 3.55469C15.1522 3.5332 15.1786 3.51562 15.1953 3.51562C15.2121 3.51562 15.2384 3.49805 15.2539 3.47656C15.2694 3.45508 15.2977 3.4375 15.3168 3.4375C15.3359 3.4375 15.3516 3.42871 15.3516 3.41797C15.3516 3.40723 15.3672 3.39844 15.3863 3.39844C15.4054 3.39844 15.4337 3.38086 15.4492 3.35937C15.4647 3.33789 15.4911 3.32031 15.5078 3.32031C15.5246 3.32031 15.5509 3.30273 15.5664 3.28125C15.5819 3.25976 15.6102 3.24219 15.6293 3.24219C15.6484 3.24219 15.6641 3.2334 15.6641 3.22266C15.6641 3.21191 15.6797 3.20312 15.6988 3.20312C15.7179 3.20312 15.7462 3.18555 15.7617 3.16406C15.7772 3.14258 15.8036 3.125 15.8203 3.125C15.8371 3.125 15.8634 3.10742 15.8789 3.08594C15.8954 3.06301 15.9295 3.04687 15.9613 3.04687C15.9912 3.04687 16.0156 3.03809 16.0156 3.02734C16.0156 3.0166 16.042 3.00781 16.0742 3.00781C16.1064 3.00781 16.1328 2.99902 16.1328 2.98828C16.1328 2.97713 16.1914 2.96875 16.2695 2.96875C16.3477 2.96875 16.4062 2.97713 16.4062 2.98828C16.4062 2.99902 16.4238 3.00781 16.4453 3.00781C16.4708 3.00781 16.4844 3.02084 16.4844 3.04525C16.4844 3.06584 16.4954 3.08781 16.5088 3.09408C16.5283 3.10318 16.5283 3.10775 16.5088 3.11685C16.4954 3.12312 16.4844 3.1451 16.4844 3.16568C16.4844 3.18627 16.4756 3.20312 16.4648 3.20312C16.4541 3.20312 16.4453 3.21693 16.4453 3.23381C16.4453 3.26926 16.3996 3.32031 16.3678 3.32031C16.3559 3.32031 16.2677 3.39941 16.1719 3.49609C16.076 3.59277 15.9881 3.67187 15.9766 3.67187C15.965 3.67187 15.8771 3.75098 15.7812 3.84766C15.6854 3.94433 15.5975 4.02344 15.5859 4.02344C15.5744 4.02344 15.4865 4.10254 15.3906 4.19922C15.2948 4.2959 15.2069 4.375 15.1953 4.375C15.1838 4.375 15.0959 4.4541 15 4.55078C14.9041 4.64746 14.8162 4.72656 14.8046 4.72656C14.793 4.72656 14.7139 4.79687 14.6289 4.88281C14.5439 4.96875 14.4648 5.03906 14.4532 5.03906C14.4416 5.03906 14.3537 5.11816 14.2578 5.21484C14.162 5.31152 14.0741 5.39062 14.0625 5.39062C14.0509 5.39062 13.963 5.46973 13.8672 5.5664C13.7713 5.66308 13.6834 5.74219 13.6719 5.74219C13.6603 5.74219 13.5724 5.82129 13.4766 5.91797C13.3807 6.01465 13.2928 6.09375 13.2812 6.09375C13.2697 6.09375 13.1818 6.17285 13.0859 6.26953C12.9901 6.36621 12.9021 6.44531 12.8905 6.44531C12.8789 6.44531 12.7999 6.51562 12.7148 6.60156C12.6298 6.6875 12.5508 6.75781 12.5391 6.75781C12.5275 6.75781 12.4396 6.83691 12.3438 6.93359C12.2479 7.03027 12.16 7.10937 12.1484 7.10937C12.1369 7.10937 12.049 7.18848 11.9531 7.28515C11.8573 7.38183 11.7694 7.46094 11.7578 7.46094C11.7463 7.46094 11.6584 7.54004 11.5625 7.63672C11.4666 7.7334 11.3787 7.8125 11.3671 7.8125C11.3555 7.8125 11.2764 7.88281 11.1914 7.96875C11.1064 8.05469 11.0273 8.125 11.0157 8.125C11.0041 8.125 10.9162 8.2041 10.8203 8.30078C10.7245 8.39746 10.6366 8.47656 10.625 8.47656C10.6134 8.47656 10.5255 8.55566 10.4297 8.65234C10.3338 8.74902 10.2459 8.82812 10.2344 8.82812C10.2228 8.82812 10.1349 8.90722 10.0391 9.0039C9.9432 9.10058 9.85531 9.17969 9.84375 9.17969C9.83219 9.17969 9.7443 9.25879 9.64844 9.35547C9.55258 9.45215 9.46465 9.53125 9.45305 9.53125C9.44143 9.53125 9.36236 9.60156 9.27734 9.6875C9.19232 9.77343 9.11326 9.84375 9.10164 9.84375C9.09004 9.84375 9.00211 9.92285 8.90625 10.0195C8.81039 10.1162 8.7225 10.1953 8.71094 10.1953C8.69938 10.1953 8.61148 10.2744 8.51562 10.3711C8.41977 10.4678 8.33187 10.5469 8.32031 10.5469C8.30875 10.5469 8.22086 10.626 8.125 10.7227C8.02914 10.8193 7.94096 10.8984 7.92904 10.8984C7.87914 10.8984 7.85156 10.957 7.85156 11.0631C7.85156 11.1229 7.84277 11.1719 7.83203 11.1719C7.81994 11.1719 7.8125 11.276 7.8125 11.4453C7.8125 11.6146 7.80506 11.7187 7.79297 11.7187C7.78088 11.7187 7.77344 11.8229 7.77344 11.9922C7.77344 12.1615 7.766 12.2656 7.75391 12.2656C7.74176 12.2656 7.73438 12.3763 7.73438 12.5586C7.73438 12.7409 7.72699 12.8516 7.71484 12.8516C7.70275 12.8516 7.69531 12.9557 7.69531 13.125C7.69531 13.2943 7.68787 13.3984 7.67578 13.3984C7.66369 13.3984 7.65625 13.5026 7.65625 13.6719C7.65625 13.8411 7.64881 13.9453 7.63672 13.9453C7.62463 13.9453 7.61719 14.0495 7.61719 14.2187C7.61719 14.388 7.60975 14.4922 7.59766 14.4922C7.58557 14.4922 7.57812 14.5963 7.57812 14.7656C7.57812 14.9349 7.57068 15.0391 7.55859 15.0391C7.5465 15.0391 7.53906 15.1432 7.53906 15.3125C7.53906 15.4818 7.53162 15.5859 7.51953 15.5859C7.50879 15.5859 7.5 15.5947 7.5 15.6055C7.5 15.6163 7.55209 15.625 7.61719 15.625C7.68229 15.625 7.73438 15.6163 7.73438 15.6055C7.73438 15.5947 7.76953 15.5859 7.8125 15.5859C7.85547 15.5859 7.89062 15.5771 7.89062 15.5664C7.89062 15.5557 7.91699 15.5469 7.94922 15.5469C7.98144 15.5469 8.00781 15.5381 8.00781 15.5273C8.00781 15.5166 8.02346 15.5078 8.04256 15.5078C8.06168 15.5078 8.08998 15.4902 8.10547 15.4687C8.12096 15.4473 8.1451 15.4297 8.1591 15.4297C8.17313 15.4297 8.30719 15.3066 8.45703 15.1562C8.60688 15.0059 8.73863 14.8828 8.74982 14.8828C8.76102 14.8828 8.96324 14.6894 9.19922 14.4531C9.4352 14.2168 9.63734 14.0234 9.64846 14.0234C9.65955 14.0234 9.85291 13.8389 10.0781 13.6133C10.3033 13.3877 10.4974 13.2031 10.5094 13.2031C10.5214 13.2031 10.5558 13.1768 10.5859 13.1445C10.6553 13.0703 10.7119 13.0703 10.7812 13.1445C10.8113 13.1768 10.8465 13.2031 10.8594 13.2031C10.8722 13.2031 10.9074 13.2295 10.9375 13.2617C10.9676 13.2939 11.0044 13.3203 11.0191 13.3203C11.0339 13.3203 11.0587 13.3379 11.0742 13.3594C11.0897 13.3809 11.1145 13.3984 11.1293 13.3984C11.1441 13.3984 11.1808 13.4248 11.2109 13.457C11.241 13.4893 11.2762 13.5156 11.2891 13.5156C11.3019 13.5156 11.3371 13.542 11.3672 13.5742C11.3973 13.6064 11.4324 13.6328 11.4453 13.6328C11.4582 13.6328 11.4933 13.6592 11.5234 13.6914C11.5535 13.7236 11.5903 13.75 11.6051 13.75C11.6199 13.75 11.6447 13.7676 11.6602 13.7891C11.6756 13.8105 11.7004 13.8281 11.7152 13.8281C11.73 13.8281 11.7668 13.8545 11.7969 13.8867C11.827 13.9189 11.8621 13.9453 11.875 13.9453C11.8879 13.9453 11.923 13.9717 11.9531 14.0039C11.9832 14.0361 12.0184 14.0625 12.0312 14.0625C12.0441 14.0625 12.0793 14.0889 12.1094 14.1211C12.1395 14.1533 12.1762 14.1797 12.191 14.1797C12.2058 14.1797 12.2306 14.1973 12.2461 14.2187C12.2616 14.2402 12.2864 14.2578 12.3012 14.2578C12.316 14.2578 12.3527 14.2842 12.3828 14.3164C12.4129 14.3486 12.4481 14.375 12.4609 14.375C12.4738 14.375 12.509 14.4014 12.5391 14.4336C12.5692 14.4658 12.6059 14.4922 12.6207 14.4922C12.6355 14.4922 12.6603 14.5098 12.6758 14.5312C12.6913 14.5527 12.7161 14.5703 12.7309 14.5703C12.7456 14.5703 12.7824 14.5967 12.8125 14.6289C12.8426 14.6611 12.8778 14.6875 12.8906 14.6875C12.9035 14.6875 12.9387 14.7139 12.9688 14.7461C12.9988 14.7783 13.034 14.8047 13.0469 14.8047C13.0597 14.8047 13.0949 14.8311 13.125 14.8633C13.1551 14.8955 13.1919 14.9219 13.2066 14.9219C13.2214 14.9219 13.2462 14.9394 13.2617 14.9609C13.2772 14.9824 13.302 15 13.3168 15C13.3316 15 13.3683 15.0264 13.3984 15.0586C13.4285 15.0908 13.4637 15.1172 13.4766 15.1172C13.4894 15.1172 13.5246 15.1436 13.5547 15.1758C13.5848 15.208 13.6199 15.2344 13.6328 15.2344C13.6457 15.2344 13.6808 15.2607 13.7109 15.293C13.741 15.3252 13.7778 15.3516 13.7926 15.3516C13.8074 15.3516 13.8322 15.3691 13.8477 15.3906C13.8631 15.4121 13.8879 15.4297 13.9027 15.4297C13.9175 15.4297 13.9543 15.456 13.9844 15.4883C14.0145 15.5205 14.0496 15.5469 14.0625 15.5469C14.0754 15.5469 14.1105 15.5732 14.1406 15.6055C14.1707 15.6377 14.2059 15.6641 14.2187 15.6641C14.2316 15.6641 14.2668 15.6904 14.2969 15.7227C14.327 15.7549 14.3637 15.7812 14.3785 15.7812C14.3933 15.7812 14.4181 15.7988 14.4336 15.8203C14.4491 15.8418 14.4739 15.8594 14.4887 15.8594C14.5035 15.8594 14.5402 15.8857 14.5703 15.918C14.6004 15.9502 14.6356 15.9766 14.6484 15.9766C14.6613 15.9766 14.6965 16.0029 14.7266 16.0352C14.7567 16.0674 14.7918 16.0937 14.8047 16.0937C14.8176 16.0937 14.8527 16.1201 14.8828 16.1523C14.9129 16.1846 14.9497 16.2109 14.9645 16.2109C14.9793 16.2109 15.004 16.2285 15.0195 16.25C15.035 16.2715 15.0598 16.2891 15.0746 16.2891C15.0894 16.2891 15.1262 16.3154 15.1562 16.3477C15.1863 16.3799 15.225 16.4062 15.2422 16.4062C15.2594 16.4062 15.2734 16.415 15.2734 16.4258C15.2734 16.4365 15.291 16.4453 15.3125 16.4453C15.334 16.4453 15.3516 16.4541 15.3516 16.4648C15.3516 16.4756 15.3691 16.4844 15.3906 16.4844C15.4121 16.4844 15.4297 16.4932 15.4297 16.5039C15.4297 16.5146 15.4473 16.5234 15.4688 16.5234C15.4902 16.5234 15.5078 16.5322 15.5078 16.543C15.5078 16.5537 15.5342 16.5625 15.5664 16.5625C15.5986 16.5625 15.625 16.5713 15.625 16.582C15.625 16.5928 15.6514 16.6016 15.6836 16.6016C15.7158 16.6016 15.7422 16.6103 15.7422 16.6211C15.7422 16.633 15.8333 16.6406 15.9766 16.6406C16.1198 16.6406 16.2109 16.633 16.2109 16.6211C16.2109 16.6103 16.2373 16.6016 16.2695 16.6016C16.3018 16.6016 16.3281 16.5928 16.3281 16.582C16.3281 16.5713 16.3438 16.5625 16.3629 16.5625C16.382 16.5625 16.4103 16.5449 16.4258 16.5234C16.4413 16.5019 16.4656 16.4844 16.4798 16.4844C16.5115 16.4844 16.6016 16.3969 16.6016 16.3661C16.6016 16.3538 16.6279 16.3192 16.6602 16.2891C16.6924 16.259 16.7188 16.2203 16.7188 16.2031C16.7188 16.1859 16.7275 16.1719 16.7383 16.1719C16.749 16.1719 16.7578 16.1543 16.7578 16.1328C16.7578 16.1113 16.7666 16.0937 16.7773 16.0937C16.7881 16.0937 16.7969 16.0762 16.7969 16.0547C16.7969 16.0332 16.8057 16.0156 16.8164 16.0156C16.8271 16.0156 16.8359 15.9893 16.8359 15.957C16.8359 15.9248 16.8447 15.8984 16.8555 15.8984C16.8662 15.8984 16.875 15.8633 16.875 15.8203C16.875 15.7773 16.8838 15.7422 16.8945 15.7422C16.9053 15.7422 16.9141 15.707 16.9141 15.6641C16.9141 15.6211 16.9229 15.5859 16.9336 15.5859C16.9443 15.5859 16.9531 15.5508 16.9531 15.5078C16.9531 15.4648 16.9619 15.4297 16.9727 15.4297C16.9834 15.4297 16.9922 15.3857 16.9922 15.332C16.9922 15.2783 17.001 15.2344 17.0117 15.2344C17.0225 15.2344 17.0312 15.1904 17.0312 15.1367C17.0312 15.083 17.04 15.0391 17.0508 15.0391C17.0615 15.0391 17.0703 15.0039 17.0703 14.9609C17.0703 14.918 17.0791 14.8828 17.0898 14.8828C17.1006 14.8828 17.1094 14.8389 17.1094 14.7852C17.1094 14.7314 17.1182 14.6875 17.1289 14.6875C17.1396 14.6875 17.1484 14.6436 17.1484 14.5898C17.1484 14.5361 17.1572 14.4922 17.168 14.4922C17.1787 14.4922 17.1875 14.457 17.1875 14.4141C17.1875 14.3711 17.1963 14.3359 17.207 14.3359C17.2178 14.3359 17.2266 14.292 17.2266 14.2383C17.2266 14.1846 17.2354 14.1406 17.2461 14.1406C17.2568 14.1406 17.2656 14.0967 17.2656 14.043C17.2656 13.9893 17.2744 13.9453 17.2852 13.9453C17.2959 13.9453 17.3047 13.9014 17.3047 13.8477C17.3047 13.7939 17.3135 13.75 17.3242 13.75C17.335 13.75 17.3438 13.7148 17.3438 13.6719C17.3438 13.6289 17.3525 13.5937 17.3633 13.5937C17.374 13.5937 17.3828 13.5498 17.3828 13.4961C17.3828 13.4424 17.3916 13.3984 17.4023 13.3984C17.4131 13.3984 17.4219 13.3545 17.4219 13.3008C17.4219 13.2471 17.4307 13.2031 17.4414 13.2031C17.4521 13.2031 17.4609 13.168 17.4609 13.125C17.4609 13.082 17.4697 13.0469 17.4805 13.0469C17.4912 13.0469 17.5 13.0029 17.5 12.9492C17.5 12.8955 17.5088 12.8516 17.5195 12.8516C17.5303 12.8516 17.5391 12.8076 17.5391 12.7539C17.5391 12.7002 17.5479 12.6562 17.5586 12.6562C17.5693 12.6562 17.5781 12.6211 17.5781 12.5781C17.5781 12.5352 17.5869 12.5 17.5977 12.5C17.6084 12.5 17.6172 12.4561 17.6172 12.4023C17.6172 12.3486 17.626 12.3047 17.6367 12.3047C17.6475 12.3047 17.6562 12.2607 17.6562 12.207C17.6562 12.1533 17.665 12.1094 17.6758 12.1094C17.6865 12.1094 17.6953 12.0742 17.6953 12.0312C17.6953 11.9883 17.7041 11.9531 17.7148 11.9531C17.7256 11.9531 17.7344 11.9092 17.7344 11.8555C17.7344 11.8018 17.7432 11.7578 17.7539 11.7578C17.7646 11.7578 17.7734 11.7139 17.7734 11.6602C17.7734 11.6064 17.7822 11.5625 17.793 11.5625C17.8037 11.5625 17.8125 11.5273 17.8125 11.4844C17.8125 11.4414 17.8213 11.4062 17.832 11.4062C17.8428 11.4062 17.8516 11.3623 17.8516 11.3086C17.8516 11.2549 17.8604 11.2109 17.8711 11.2109C17.8818 11.2109 17.8906 11.167 17.8906 11.1133C17.8906 11.0596 17.8994 11.0156 17.9102 11.0156C17.9209 11.0156 17.9297 10.9805 17.9297 10.9375C17.9297 10.8945 17.9385 10.8594 17.9492 10.8594C17.96 10.8594 17.9688 10.8154 17.9688 10.7617C17.9688 10.708 17.9775 10.6641 17.9883 10.6641C17.999 10.6641 18.0078 10.6201 18.0078 10.5664C18.0078 10.5127 18.0166 10.4687 18.0273 10.4687C18.0381 10.4687 18.0469 10.4248 18.0469 10.3711C18.0469 10.3174 18.0557 10.2734 18.0664 10.2734C18.0771 10.2734 18.0859 10.2383 18.0859 10.1953C18.0859 10.1523 18.0947 10.1172 18.1055 10.1172C18.1162 10.1172 18.125 10.0732 18.125 10.0195C18.125 9.96582 18.1338 9.92187 18.1445 9.92187C18.1553 9.92187 18.1641 9.87793 18.1641 9.82422C18.1641 9.7705 18.1729 9.72656 18.1836 9.72656C18.1943 9.72656 18.2031 9.6914 18.2031 9.64844C18.2031 9.60547 18.2119 9.57031 18.2227 9.57031C18.2334 9.57031 18.2422 9.52636 18.2422 9.47265C18.2422 9.41894 18.251 9.375 18.2617 9.375C18.2725 9.375 18.2812 9.33105 18.2812 9.27734C18.2812 9.22363 18.29 9.17969 18.3008 9.17969C18.3115 9.17969 18.3203 9.14453 18.3203 9.10156C18.3203 9.05859 18.3291 9.02344 18.3398 9.02344C18.3506 9.02344 18.3594 8.97949 18.3594 8.92578C18.3594 8.87207 18.3682 8.82812 18.3789 8.82812C18.3896 8.82812 18.3984 8.78418 18.3984 8.73047C18.3984 8.67676 18.4072 8.63281 18.418 8.63281C18.4287 8.63281 18.4375 8.59765 18.4375 8.55469C18.4375 8.51172 18.4463 8.47656 18.457 8.47656C18.4678 8.47656 18.4766 8.43262 18.4766 8.3789C18.4766 8.32519 18.4854 8.28125 18.4961 8.28125C18.5068 8.28125 18.5156 8.2373 18.5156 8.18359C18.5156 8.12988 18.5244 8.08594 18.5352 8.08594C18.5459 8.08594 18.5547 8.05078 18.5547 8.00781C18.5547 7.96484 18.5635 7.92969 18.5742 7.92969C18.585 7.92969 18.5938 7.88574 18.5938 7.83203C18.5938 7.77832 18.6025 7.73437 18.6133 7.73437C18.624 7.73437 18.6328 7.69043 18.6328 7.63672C18.6328 7.58301 18.6416 7.53906 18.6523 7.53906C18.6631 7.53906 18.6719 7.49512 18.6719 7.4414C18.6719 7.38769 18.6807 7.34375 18.6914 7.34375C18.7021 7.34375 18.7109 7.30859 18.7109 7.26562C18.7109 7.22265 18.7197 7.1875 18.7305 7.1875C18.7412 7.1875 18.75 7.14355 18.75 7.08984C18.75 7.03613 18.7588 6.99219 18.7695 6.99219C18.7803 6.99219 18.7891 6.94824 18.7891 6.89453C18.7891 6.84082 18.7979 6.79687 18.8086 6.79687C18.8193 6.79687 18.8281 6.76172 18.8281 6.71875C18.8281 6.67578 18.8369 6.64062 18.8477 6.64062C18.8584 6.64062 18.8672 6.59668 18.8672 6.54297C18.8672 6.48926 18.876 6.44531 18.8867 6.44531C18.8975 6.44531 18.9062 6.40137 18.9062 6.34765C18.9062 6.29394 18.915 6.25 18.9258 6.25C18.9365 6.25 18.9453 6.21484 18.9453 6.17187C18.9453 6.1289 18.9541 6.09375 18.9648 6.09375C18.9756 6.09375 18.9844 6.0498 18.9844 5.99609C18.9844 5.94238 18.9932 5.89844 19.0039 5.89844C19.0146 5.89844 19.0234 5.85449 19.0234 5.80078C19.0234 5.74707 19.0322 5.70312 19.043 5.70312C19.0537 5.70312 19.0625 5.66797 19.0625 5.625C19.0625 5.58203 19.0713 5.54687 19.082 5.54687C19.0928 5.54687 19.1016 5.50293 19.1016 5.44922C19.1016 5.39551 19.1104 5.35156 19.1211 5.35156C19.1318 5.35156 19.1406 5.30762 19.1406 5.2539C19.1406 5.20019 19.1494 5.15625 19.1602 5.15625C19.1709 5.15625 19.1797 5.12109 19.1797 5.07812C19.1797 5.03516 19.1885 5 19.1992 5C19.21 5 19.2188 4.95605 19.2188 4.90234C19.2188 4.84863 19.2275 4.80469 19.2383 4.80469C19.249 4.80469 19.2578 4.76074 19.2578 4.70703C19.2578 4.65332 19.2666 4.60937 19.2773 4.60937C19.2881 4.60937 19.2969 4.57422 19.2969 4.53125C19.2969 4.48828 19.3057 4.45312 19.3164 4.45312C19.3271 4.45312 19.3359 4.40918 19.3359 4.35547C19.3359 4.30176 19.3447 4.25781 19.3555 4.25781C19.3662 4.25781 19.375 4.21387 19.375 4.16016C19.375 4.10644 19.3838 4.0625 19.3945 4.0625C19.4053 4.0625 19.4141 4.01855 19.4141 3.96484C19.4141 3.91113 19.4229 3.86719 19.4336 3.86719C19.4443 3.86719 19.4531 3.83203 19.4531 3.78906C19.4531 3.74609 19.4619 3.71094 19.4727 3.71094C19.4834 3.71094 19.4922 3.66699 19.4922 3.61328C19.4922 3.55957 19.501 3.51562 19.5117 3.51562C19.5225 3.51562 19.5312 3.47168 19.5312 3.41797C19.5312 3.36426 19.54 3.32031 19.5508 3.32031C19.5615 3.32031 19.5703 3.28516 19.5703 3.24219C19.5703 3.19922 19.5791 3.16406 19.5898 3.16406C19.6006 3.16406 19.6094 3.12012 19.6094 3.06641C19.6094 3.01269 19.6182 2.96875 19.6289 2.96875C19.6396 2.96875 19.6484 2.9248 19.6484 2.87109C19.6484 2.81738 19.6572 2.77344 19.668 2.77344C19.6787 2.77344 19.6875 2.73828 19.6875 2.69531C19.6875 2.65234 19.6963 2.61719 19.707 2.61719C19.7178 2.61719 19.7266 2.57324 19.7266 2.51953C19.7266 2.46582 19.7354 2.42187 19.7461 2.42187C19.7568 2.42187 19.7656 2.37793 19.7656 2.32422C19.7656 2.27051 19.7744 2.22656 19.7852 2.22656C19.7959 2.22656 19.8047 2.19141 19.8047 2.14844C19.8047 2.10547 19.8135 2.07031 19.8242 2.07031C19.835 2.07031 19.8438 2.02637 19.8438 1.97266C19.8438 1.91894 19.8525 1.875 19.8633 1.875C19.874 1.875 19.8828 1.83105 19.8828 1.77734C19.8828 1.72363 19.8916 1.67969 19.9023 1.67969C19.9131 1.67969 19.9219 1.64453 19.9219 1.60156C19.9219 1.55859 19.9307 1.52344 19.9414 1.52344C19.9523 1.52344 19.9609 1.47135 19.9609 1.40625C19.9609 1.34115 19.9696 1.28906 19.9805 1.28906C19.9925 1.28906 20 1.19141 20 1.03516C20 0.878906 19.9925 0.78125 19.9805 0.78125C19.9697 0.78125 19.9609 0.737305 19.9609 0.683594C19.9609 0.629883 19.9521 0.585937 19.9414 0.585937C19.9307 0.585937 19.9219 0.568359 19.9219 0.546875C19.9219 0.525391 19.9131 0.507812 19.9023 0.507812C19.8916 0.507812 19.8828 0.483379 19.8828 0.453535C19.8828 0.42166 19.8667 0.387637 19.8438 0.371094C19.8223 0.355605 19.8047 0.331406 19.8047 0.317305C19.8047 0.283984 19.677 0.15625 19.6436 0.15625C19.6295 0.15625 19.6053 0.138672 19.5898 0.117187C19.5744 0.0957031 19.5461 0.078125 19.5269 0.078125C19.5078 0.078125 19.4922 0.0693359 19.4922 0.0585937C19.4922 0.0478516 19.4658 0.0390625 19.4336 0.0390625C19.4014 0.0390625 19.375 0.0302734 19.375 0.0195312C19.375 0.00751953 19.2773 0 19.1211 0C18.9648 0 18.8672 0.00751953 18.8672 0.0195312Z" fill="#0089B1"/>
</svg>
