<svg width="19" height="19" viewBox="0 0 19 19" fill="none" xmlns="http://www.w3.org/2000/svg">
<path d="M5.51 0H13.49C16.53 0 19 2.47 19 5.51V13.49C19 14.9513 18.4195 16.3528 17.3862 17.3862C16.3528 18.4195 14.9513 19 13.49 19H5.51C2.47 19 0 16.53 0 13.49V5.51C0 4.04866 0.580516 2.64717 1.61384 1.61384C2.64717 0.580516 4.04866 0 5.51 0ZM5.32 1.9C4.41296 1.9 3.54307 2.26032 2.90169 2.90169C2.26032 3.54307 1.9 4.41296 1.9 5.32V13.68C1.9 15.5705 3.4295 17.1 5.32 17.1H13.68C14.587 17.1 15.4569 16.7397 16.0983 16.0983C16.7397 15.4569 17.1 14.587 17.1 13.68V5.32C17.1 3.4295 15.5705 1.9 13.68 1.9H5.32ZM14.4875 3.325C14.8024 3.325 15.1045 3.45011 15.3272 3.67281C15.5499 3.89551 15.675 4.19756 15.675 4.5125C15.675 4.82744 15.5499 5.12949 15.3272 5.35219C15.1045 5.57489 14.8024 5.7 14.4875 5.7C14.1726 5.7 13.8705 5.57489 13.6478 5.35219C13.4251 5.12949 13.3 4.82744 13.3 4.5125C13.3 4.19756 13.4251 3.89551 13.6478 3.67281C13.8705 3.45011 14.1726 3.325 14.4875 3.325ZM9.5 4.75C10.7598 4.75 11.968 5.25044 12.8588 6.14124C13.7496 7.03204 14.25 8.24022 14.25 9.5C14.25 10.7598 13.7496 11.968 12.8588 12.8588C11.968 13.7496 10.7598 14.25 9.5 14.25C8.24022 14.25 7.03204 13.7496 6.14124 12.8588C5.25044 11.968 4.75 10.7598 4.75 9.5C4.75 8.24022 5.25044 7.03204 6.14124 6.14124C7.03204 5.25044 8.24022 4.75 9.5 4.75ZM9.5 6.65C8.74413 6.65 8.01922 6.95027 7.48475 7.48475C6.95027 8.01922 6.65 8.74413 6.65 9.5C6.65 10.2559 6.95027 10.9808 7.48475 11.5153C8.01922 12.0497 8.74413 12.35 9.5 12.35C10.2559 12.35 10.9808 12.0497 11.5153 11.5153C12.0497 10.9808 12.35 10.2559 12.35 9.5C12.35 8.74413 12.0497 8.01922 11.5153 7.48475C10.9808 6.95027 10.2559 6.65 9.5 6.65Z" fill="white"/>
</svg>
