<svg width="18" height="19" viewBox="0 0 18 19" fill="none" xmlns="http://www.w3.org/2000/svg">
<path fill-rule="evenodd" clip-rule="evenodd" d="M7.68164 0.0185547C7.68164 0.03004 7.58269 0.0371094 7.42188 0.0371094C7.26106 0.0371094 7.16211 0.0441787 7.16211 0.0556641C7.16211 0.0667969 7.08789 0.0742188 6.97656 0.0742188C6.86523 0.0742188 6.79102 0.0816406 6.79102 0.0927734C6.79102 0.103591 6.72917 0.111328 6.64258 0.111328C6.55598 0.111328 6.49414 0.119065 6.49414 0.129883C6.49414 0.140478 6.43848 0.148438 6.36426 0.148438C6.29004 0.148438 6.23438 0.156397 6.23438 0.166992C6.23438 0.177587 6.17871 0.185547 6.10449 0.185547C6.03027 0.185547 5.97461 0.193507 5.97461 0.204102C5.97461 0.214307 5.93286 0.222656 5.88184 0.222656C5.83081 0.222656 5.78906 0.231006 5.78906 0.241211C5.78906 0.251416 5.74731 0.259766 5.69629 0.259766C5.64526 0.259766 5.60352 0.268115 5.60352 0.27832C5.60352 0.288525 5.56177 0.296875 5.51074 0.296875C5.45972 0.296875 5.41797 0.305225 5.41797 0.31543C5.41797 0.325635 5.37622 0.333984 5.3252 0.333984C5.27417 0.333984 5.23242 0.342334 5.23242 0.352539C5.23242 0.362744 5.19902 0.371094 5.1582 0.371094C5.11738 0.371094 5.08398 0.379443 5.08398 0.389648C5.08398 0.399854 5.05059 0.408203 5.00977 0.408203C4.96895 0.408203 4.93555 0.416553 4.93555 0.426758C4.93555 0.436963 4.90215 0.445312 4.86133 0.445312C4.82051 0.445312 4.78711 0.453662 4.78711 0.463867C4.78711 0.474072 4.76206 0.482422 4.73145 0.482422C4.70083 0.482422 4.67578 0.490771 4.67578 0.500977C4.67578 0.511182 4.64238 0.519531 4.60156 0.519531C4.56074 0.519531 4.52734 0.527881 4.52734 0.538086C4.52734 0.548291 4.5023 0.556641 4.47168 0.556641C4.44106 0.556641 4.41602 0.56499 4.41602 0.575195C4.41602 0.5854 4.39097 0.59375 4.36035 0.59375C4.32974 0.59375 4.30469 0.6021 4.30469 0.612305C4.30469 0.62251 4.27964 0.630859 4.24902 0.630859C4.21841 0.630859 4.19336 0.639209 4.19336 0.649414C4.19336 0.659619 4.16831 0.667969 4.1377 0.667969C4.10708 0.667969 4.08203 0.676318 4.08203 0.686523C4.08203 0.696729 4.05698 0.705078 4.02637 0.705078C3.99575 0.705078 3.9707 0.713428 3.9707 0.723633C3.9707 0.733838 3.94565 0.742188 3.91504 0.742188C3.88442 0.742188 3.85938 0.750537 3.85938 0.760742C3.85938 0.770947 3.84268 0.779297 3.82227 0.779297C3.80186 0.779297 3.78516 0.787646 3.78516 0.797852C3.78516 0.808057 3.76011 0.816406 3.72949 0.816406C3.69888 0.816406 3.67383 0.824756 3.67383 0.834961C3.67383 0.845166 3.65713 0.853516 3.63672 0.853516C3.61631 0.853516 3.59961 0.861865 3.59961 0.87207C3.59961 0.882275 3.57456 0.890625 3.54395 0.890625C3.51333 0.890625 3.48828 0.898975 3.48828 0.90918C3.48828 0.919385 3.47158 0.927734 3.45117 0.927734C3.43076 0.927734 3.41406 0.936084 3.41406 0.946289C3.41406 0.956494 3.39736 0.964844 3.37695 0.964844C3.35654 0.964844 3.33984 0.973193 3.33984 0.983398C3.33984 0.993604 3.32314 1.00195 3.30273 1.00195C3.28232 1.00195 3.26562 1.0103 3.26562 1.02051C3.26562 1.03071 3.24893 1.03906 3.22852 1.03906C3.20811 1.03906 3.19141 1.04741 3.19141 1.05762C3.19141 1.06782 3.17471 1.07617 3.1543 1.07617C3.13389 1.07617 3.11719 1.08452 3.11719 1.09473C3.11719 1.10493 3.10049 1.11328 3.08008 1.11328C3.05967 1.11328 3.04297 1.12163 3.04297 1.13184C3.04297 1.14204 3.02627 1.15039 3.00586 1.15039C2.98545 1.15039 2.96875 1.15874 2.96875 1.16895C2.96875 1.17915 2.95205 1.1875 2.93164 1.1875C2.91123 1.1875 2.89453 1.19585 2.89453 1.20605C2.89453 1.21626 2.87967 1.22461 2.86152 1.22461C2.84336 1.22461 2.81647 1.24131 2.80176 1.26172C2.78704 1.28213 2.76016 1.29883 2.74199 1.29883C2.72385 1.29883 2.70898 1.30718 2.70898 1.31738C2.70898 1.32759 2.69412 1.33594 2.67598 1.33594C2.65781 1.33594 2.63092 1.35264 2.61621 1.37305C2.6015 1.39346 2.57645 1.41016 2.56055 1.41016C2.54465 1.41016 2.5196 1.42686 2.50488 1.44727C2.49017 1.46768 2.46512 1.48438 2.44922 1.48438C2.43332 1.48438 2.40827 1.50107 2.39355 1.52148C2.37884 1.54189 2.35529 1.55859 2.34123 1.55859C2.32718 1.55859 2.29226 1.58364 2.26367 1.61426C2.23508 1.64487 2.20185 1.66992 2.18982 1.66992C2.17782 1.66992 2.1359 1.70332 2.09668 1.74414C2.05746 1.78496 2.01623 1.81836 2.00506 1.81836C1.97873 1.81836 1.70703 2.08981 1.70703 2.11614C1.70703 2.12717 1.66528 2.17685 1.61426 2.22656C1.56323 2.27627 1.52148 2.32665 1.52148 2.33852C1.52148 2.3504 1.49644 2.38352 1.46582 2.41211C1.43521 2.4407 1.41016 2.4741 1.41016 2.48633C1.41016 2.49856 1.38511 2.53195 1.35449 2.56055C1.32388 2.58914 1.29883 2.62406 1.29883 2.63811C1.29883 2.65217 1.28213 2.67572 1.26172 2.69043C1.24131 2.70514 1.22461 2.73019 1.22461 2.74609C1.22461 2.762 1.20791 2.78704 1.1875 2.80176C1.16709 2.81647 1.15039 2.84336 1.15039 2.86152C1.15039 2.87967 1.14204 2.89453 1.13184 2.89453C1.12163 2.89453 1.11328 2.91123 1.11328 2.93164C1.11328 2.95205 1.10493 2.96875 1.09473 2.96875C1.08452 2.96875 1.07617 2.98361 1.07617 3.00176C1.07617 3.01992 1.05947 3.04681 1.03906 3.06152C1.01865 3.07624 1.00195 3.10312 1.00195 3.12129C1.00195 3.13943 0.993604 3.1543 0.983398 3.1543C0.973193 3.1543 0.964844 3.171 0.964844 3.19141C0.964844 3.21182 0.956494 3.22852 0.946289 3.22852C0.936084 3.22852 0.927734 3.24521 0.927734 3.26562C0.927734 3.28604 0.919385 3.30273 0.90918 3.30273C0.898975 3.30273 0.890625 3.31943 0.890625 3.33984C0.890625 3.36025 0.882275 3.37695 0.87207 3.37695C0.861865 3.37695 0.853516 3.39365 0.853516 3.41406C0.853516 3.43447 0.845166 3.45117 0.834961 3.45117C0.824756 3.45117 0.816406 3.47622 0.816406 3.50684C0.816406 3.53745 0.808057 3.5625 0.797852 3.5625C0.787646 3.5625 0.779297 3.5792 0.779297 3.59961C0.779297 3.62002 0.770947 3.63672 0.760742 3.63672C0.750537 3.63672 0.742188 3.65342 0.742188 3.67383C0.742188 3.69424 0.733838 3.71094 0.723633 3.71094C0.713428 3.71094 0.705078 3.73599 0.705078 3.7666C0.705078 3.79722 0.696729 3.82227 0.686523 3.82227C0.676318 3.82227 0.667969 3.83896 0.667969 3.85938C0.667969 3.87979 0.659619 3.89648 0.649414 3.89648C0.639209 3.89648 0.630859 3.92153 0.630859 3.95215C0.630859 3.98276 0.62251 4.00781 0.612305 4.00781C0.6021 4.00781 0.59375 4.03286 0.59375 4.06348C0.59375 4.09409 0.5854 4.11914 0.575195 4.11914C0.56499 4.11914 0.556641 4.14419 0.556641 4.1748C0.556641 4.20542 0.548291 4.23047 0.538086 4.23047C0.527881 4.23047 0.519531 4.25552 0.519531 4.28613C0.519531 4.31675 0.511182 4.3418 0.500977 4.3418C0.490771 4.3418 0.482422 4.36685 0.482422 4.39746C0.482422 4.42808 0.474072 4.45312 0.463867 4.45312C0.453662 4.45312 0.445312 4.48652 0.445312 4.52734C0.445312 4.56816 0.436963 4.60156 0.426758 4.60156C0.416553 4.60156 0.408203 4.63496 0.408203 4.67578C0.408203 4.7166 0.399854 4.75 0.389648 4.75C0.379443 4.75 0.371094 4.7834 0.371094 4.82422C0.371094 4.86504 0.362744 4.89844 0.352539 4.89844C0.342334 4.89844 0.333984 4.93184 0.333984 4.97266C0.333984 5.01348 0.325635 5.04688 0.31543 5.04688C0.305225 5.04688 0.296875 5.08862 0.296875 5.13965C0.296875 5.19067 0.288525 5.23242 0.27832 5.23242C0.268115 5.23242 0.259766 5.27417 0.259766 5.3252C0.259766 5.37622 0.251416 5.41797 0.241211 5.41797C0.230895 5.41797 0.222656 5.46745 0.222656 5.5293C0.222656 5.59114 0.214418 5.64062 0.204102 5.64062C0.193507 5.64062 0.185547 5.69629 0.185547 5.77051C0.185547 5.84473 0.177587 5.90039 0.166992 5.90039C0.156175 5.90039 0.148438 5.96223 0.148438 6.04883C0.148438 6.13542 0.1407 6.19727 0.129883 6.19727C0.11888 6.19727 0.111328 6.26531 0.111328 6.36426C0.111328 6.46321 0.103776 6.53125 0.0927734 6.53125C0.0812881 6.53125 0.0742188 6.6302 0.0742188 6.79102C0.0742188 6.95183 0.0671494 7.05078 0.0556641 7.05078C0.0436777 7.05078 0.0371094 7.26726 0.0371094 7.66309C0.0371094 8.05891 0.030541 8.27539 0.0185547 8.27539C0.0069209 8.27539 0 8.3929 0 8.59082C0 8.78874 0.0069209 8.90625 0.0185547 8.90625C0.0304854 8.90625 0.0371094 9.0918 0.0371094 9.42578C0.0371094 9.75977 0.0437334 9.94531 0.0556641 9.94531C0.067001 9.94531 0.0742188 10.0319 0.0742188 10.168C0.0742188 10.304 0.0814365 10.3906 0.0927734 10.3906C0.103591 10.3906 0.111328 10.4525 0.111328 10.5391C0.111328 10.6257 0.119065 10.6875 0.129883 10.6875C0.1407 10.6875 0.148438 10.7493 0.148438 10.8359C0.148438 10.9225 0.156175 10.9844 0.166992 10.9844C0.177309 10.9844 0.185547 11.0339 0.185547 11.0957C0.185547 11.1575 0.193785 11.207 0.204102 11.207C0.214307 11.207 0.222656 11.2488 0.222656 11.2998C0.222656 11.3508 0.231006 11.3926 0.241211 11.3926C0.251416 11.3926 0.259766 11.4343 0.259766 11.4854C0.259766 11.5364 0.268115 11.5781 0.27832 11.5781C0.288525 11.5781 0.296875 11.6199 0.296875 11.6709C0.296875 11.7219 0.305225 11.7637 0.31543 11.7637C0.325635 11.7637 0.333984 11.7971 0.333984 11.8379C0.333984 11.8787 0.342334 11.9121 0.352539 11.9121C0.362744 11.9121 0.371094 11.9455 0.371094 11.9863C0.371094 12.0271 0.379443 12.0605 0.389648 12.0605C0.399854 12.0605 0.408203 12.0856 0.408203 12.1162C0.408203 12.1468 0.416553 12.1719 0.426758 12.1719C0.436963 12.1719 0.445312 12.2053 0.445312 12.2461C0.445312 12.2869 0.453662 12.3203 0.463867 12.3203C0.474072 12.3203 0.482422 12.3454 0.482422 12.376C0.482422 12.4066 0.490771 12.4316 0.500977 12.4316C0.511182 12.4316 0.519531 12.4567 0.519531 12.4873C0.519531 12.5179 0.527881 12.543 0.538086 12.543C0.548291 12.543 0.556641 12.568 0.556641 12.5986C0.556641 12.6292 0.56499 12.6543 0.575195 12.6543C0.5854 12.6543 0.59375 12.6793 0.59375 12.71C0.59375 12.7406 0.6021 12.7656 0.612305 12.7656C0.62251 12.7656 0.630859 12.7823 0.630859 12.8027C0.630859 12.8231 0.639209 12.8398 0.649414 12.8398C0.659619 12.8398 0.667969 12.8649 0.667969 12.8955C0.667969 12.9261 0.676318 12.9512 0.686523 12.9512C0.696729 12.9512 0.705078 12.9679 0.705078 12.9883C0.705078 13.0087 0.713428 13.0254 0.723633 13.0254C0.733838 13.0254 0.742188 13.0421 0.742188 13.0625C0.742188 13.0829 0.750537 13.0996 0.760742 13.0996C0.770947 13.0996 0.779297 13.1163 0.779297 13.1367C0.779297 13.1571 0.787646 13.1738 0.797852 13.1738C0.808057 13.1738 0.816406 13.1989 0.816406 13.2295C0.816406 13.2601 0.824756 13.2852 0.834961 13.2852C0.845166 13.2852 0.853516 13.3019 0.853516 13.3223C0.853516 13.3427 0.861865 13.3594 0.87207 13.3594C0.882275 13.3594 0.890625 13.3761 0.890625 13.3965C0.890625 13.4169 0.898975 13.4336 0.90918 13.4336C0.919385 13.4336 0.927734 13.4503 0.927734 13.4707C0.927734 13.4911 0.936084 13.5078 0.946289 13.5078C0.956494 13.5078 0.964844 13.5227 0.964844 13.5408C0.964844 13.559 0.981543 13.5859 1.00195 13.6006C1.02236 13.6153 1.03906 13.6422 1.03906 13.6604C1.03906 13.6785 1.04741 13.6934 1.05762 13.6934C1.06782 13.6934 1.07617 13.7082 1.07617 13.7264C1.07617 13.7445 1.09287 13.7714 1.11328 13.7861C1.13369 13.8008 1.15039 13.8277 1.15039 13.8459C1.15039 13.864 1.15874 13.8789 1.16895 13.8789C1.17915 13.8789 1.1875 13.8938 1.1875 13.9119C1.1875 13.9301 1.2042 13.957 1.22461 13.9717C1.24502 13.9864 1.26172 14.0099 1.26172 14.024C1.26172 14.038 1.28677 14.073 1.31738 14.1016C1.348 14.1302 1.37305 14.1636 1.37305 14.1758C1.37305 14.188 1.3981 14.2214 1.42871 14.25C1.45933 14.2786 1.48438 14.3117 1.48438 14.3236C1.48438 14.3355 1.52612 14.3858 1.57715 14.4355C1.62817 14.4853 1.66992 14.5349 1.66992 14.5459C1.66992 14.5719 2.09019 14.9922 2.11624 14.9922C2.12722 14.9922 2.17685 15.0339 2.22656 15.085C2.27627 15.136 2.32665 15.1777 2.33852 15.1777C2.3504 15.1777 2.38352 15.2028 2.41211 15.2334C2.4407 15.264 2.47562 15.2891 2.48967 15.2891C2.50373 15.2891 2.52728 15.3058 2.54199 15.3262C2.55671 15.3466 2.58175 15.3633 2.59766 15.3633C2.61356 15.3633 2.63861 15.38 2.65332 15.4004C2.66803 15.4208 2.69308 15.4375 2.70898 15.4375C2.72489 15.4375 2.74993 15.4542 2.76465 15.4746C2.77936 15.495 2.80625 15.5117 2.82441 15.5117C2.84256 15.5117 2.85742 15.5201 2.85742 15.5303C2.85742 15.5405 2.87228 15.5488 2.89043 15.5488C2.9086 15.5488 2.93548 15.5655 2.9502 15.5859C2.96491 15.6063 2.99179 15.623 3.00996 15.623C3.02811 15.623 3.04297 15.6314 3.04297 15.6416C3.04297 15.6518 3.05967 15.6602 3.08008 15.6602C3.10049 15.6602 3.11719 15.6685 3.11719 15.6787C3.11719 15.6889 3.13389 15.6973 3.1543 15.6973C3.17471 15.6973 3.19141 15.7056 3.19141 15.7158C3.19141 15.726 3.20811 15.7344 3.22852 15.7344C3.24893 15.7344 3.26562 15.7427 3.26562 15.7529C3.26562 15.7631 3.28232 15.7715 3.30273 15.7715C3.32314 15.7715 3.33984 15.7798 3.33984 15.79C3.33984 15.8002 3.35654 15.8086 3.37695 15.8086C3.39736 15.8086 3.41406 15.8169 3.41406 15.8271C3.41406 15.8374 3.43911 15.8457 3.46973 15.8457C3.50034 15.8457 3.52539 15.8541 3.52539 15.8643C3.52539 15.8745 3.54209 15.8828 3.5625 15.8828C3.58291 15.8828 3.59961 15.8912 3.59961 15.9014C3.59961 15.9116 3.62466 15.9199 3.65527 15.9199C3.68589 15.9199 3.71094 15.9283 3.71094 15.9385C3.71094 15.9487 3.72764 15.957 3.74805 15.957C3.76846 15.957 3.78516 15.9654 3.78516 15.9756C3.78516 15.9858 3.8102 15.9941 3.84082 15.9941C3.87144 15.9941 3.89648 16.0025 3.89648 16.0127C3.89648 16.0229 3.92153 16.0312 3.95215 16.0312C3.98276 16.0312 4.00781 16.0396 4.00781 16.0498C4.00781 16.06 4.03286 16.0684 4.06348 16.0684C4.09409 16.0684 4.11914 16.0767 4.11914 16.0869C4.11914 16.0971 4.14419 16.1055 4.1748 16.1055H4.23047V17.2188C4.23047 17.9486 4.23685 18.332 4.24902 18.332C4.25923 18.332 4.26758 18.3654 4.26758 18.4062C4.26758 18.4471 4.27593 18.4805 4.28613 18.4805C4.29634 18.4805 4.30469 18.5055 4.30469 18.5361C4.30469 18.5667 4.31304 18.5918 4.32324 18.5918C4.33345 18.5918 4.3418 18.6085 4.3418 18.6289C4.3418 18.6493 4.35015 18.666 4.36035 18.666C4.37056 18.666 4.37891 18.6787 4.37891 18.6943C4.37891 18.731 4.57369 18.9258 4.61043 18.9258C4.62596 18.9258 4.63867 18.9341 4.63867 18.9443C4.63867 18.9545 4.66372 18.9629 4.69434 18.9629C4.72495 18.9629 4.75 18.9712 4.75 18.9814C4.75 18.9924 4.81804 19 4.91699 19C5.01594 19 5.08398 18.9924 5.08398 18.9814C5.08398 18.9712 5.10068 18.9629 5.12109 18.9629C5.1415 18.9629 5.1582 18.9545 5.1582 18.9443C5.1582 18.9341 5.1749 18.9258 5.19531 18.9258C5.21572 18.9258 5.23242 18.9174 5.23242 18.9072C5.23242 18.897 5.24728 18.8887 5.26543 18.8887C5.2836 18.8887 5.31048 18.872 5.3252 18.8516C5.33991 18.8312 5.36269 18.8145 5.37583 18.8145C5.40428 18.8145 5.9375 18.2854 5.9375 18.2572C5.9375 18.2465 6.0043 18.1716 6.08594 18.0908C6.16758 18.0101 6.23438 17.9347 6.23438 17.9234C6.23438 17.9121 6.27612 17.8622 6.32715 17.8125C6.37817 17.7628 6.41992 17.7128 6.41992 17.7014C6.41992 17.6899 6.47002 17.6314 6.53125 17.5713C6.59248 17.5112 6.64258 17.4527 6.64258 17.4412C6.64258 17.4298 6.68433 17.3798 6.73535 17.3301C6.78638 17.2804 6.82812 17.2303 6.82812 17.2188C6.82812 17.2072 6.86987 17.1571 6.9209 17.1074C6.97192 17.0577 7.01367 17.0076 7.01367 16.9961C7.01367 16.9846 7.05542 16.9345 7.10645 16.8848C7.15747 16.8351 7.19922 16.7849 7.19922 16.7733C7.19922 16.7109 7.25024 16.6992 7.52261 16.6992C7.69047 16.6992 7.79297 16.7063 7.79297 16.7178C7.79297 16.7299 8.13313 16.7363 8.77637 16.7363C9.4196 16.7363 9.75977 16.7299 9.75977 16.7178C9.75977 16.7063 9.85872 16.6992 10.0195 16.6992C10.1803 16.6992 10.2793 16.6922 10.2793 16.6807C10.2793 16.6695 10.3535 16.6621 10.4648 16.6621C10.5762 16.6621 10.6504 16.6547 10.6504 16.6436C10.6504 16.6326 10.7184 16.625 10.8174 16.625C10.9163 16.625 10.9844 16.6174 10.9844 16.6064C10.9844 16.5958 11.04 16.5879 11.1143 16.5879C11.1885 16.5879 11.2441 16.5799 11.2441 16.5693C11.2441 16.5587 11.2998 16.5508 11.374 16.5508C11.4482 16.5508 11.5039 16.5428 11.5039 16.5322C11.5039 16.5219 11.5534 16.5137 11.6152 16.5137C11.6771 16.5137 11.7266 16.5054 11.7266 16.4951C11.7266 16.4849 11.7683 16.4766 11.8193 16.4766C11.8704 16.4766 11.9121 16.4682 11.9121 16.458C11.9121 16.4477 11.9616 16.4395 12.0234 16.4395C12.0853 16.4395 12.1348 16.4312 12.1348 16.4209C12.1348 16.4107 12.1682 16.4023 12.209 16.4023C12.2498 16.4023 12.2832 16.394 12.2832 16.3838C12.2832 16.3736 12.3166 16.3652 12.3574 16.3652C12.3982 16.3652 12.4316 16.3569 12.4316 16.3467C12.4316 16.3365 12.465 16.3281 12.5059 16.3281C12.5467 16.3281 12.5801 16.3198 12.5801 16.3096C12.5801 16.2994 12.6135 16.291 12.6543 16.291C12.6951 16.291 12.7285 16.2827 12.7285 16.2725C12.7285 16.2623 12.7536 16.2539 12.7842 16.2539C12.8148 16.2539 12.8398 16.2456 12.8398 16.2354C12.8398 16.2251 12.8732 16.2168 12.9141 16.2168C12.9549 16.2168 12.9883 16.2084 12.9883 16.1982C12.9883 16.188 13.0217 16.1797 13.0625 16.1797C13.1033 16.1797 13.1367 16.1713 13.1367 16.1611C13.1367 16.1509 13.1618 16.1426 13.1924 16.1426C13.223 16.1426 13.248 16.1342 13.248 16.124C13.248 16.1138 13.2814 16.1055 13.3223 16.1055C13.3631 16.1055 13.3965 16.0971 13.3965 16.0869C13.3965 16.0767 13.4215 16.0684 13.4521 16.0684C13.4828 16.0684 13.5078 16.06 13.5078 16.0498C13.5078 16.0396 13.5329 16.0312 13.5635 16.0312C13.5941 16.0312 13.6191 16.0229 13.6191 16.0127C13.6191 16.0025 13.6442 15.9941 13.6748 15.9941C13.7054 15.9941 13.7305 15.9858 13.7305 15.9756C13.7305 15.9654 13.7472 15.957 13.7676 15.957C13.788 15.957 13.8047 15.9487 13.8047 15.9385C13.8047 15.9283 13.8297 15.9199 13.8604 15.9199C13.891 15.9199 13.916 15.9116 13.916 15.9014C13.916 15.8912 13.9327 15.8828 13.9531 15.8828C13.9735 15.8828 13.9902 15.8745 13.9902 15.8643C13.9902 15.8541 14.0153 15.8457 14.0459 15.8457C14.0765 15.8457 14.1016 15.8374 14.1016 15.8271C14.1016 15.8169 14.1183 15.8086 14.1387 15.8086C14.1591 15.8086 14.1758 15.8002 14.1758 15.79C14.1758 15.7798 14.1925 15.7715 14.2129 15.7715C14.2333 15.7715 14.25 15.7631 14.25 15.7529C14.25 15.7427 14.2667 15.7344 14.2871 15.7344C14.3075 15.7344 14.3242 15.726 14.3242 15.7158C14.3242 15.7056 14.3409 15.6973 14.3613 15.6973C14.3817 15.6973 14.3984 15.6889 14.3984 15.6787C14.3984 15.6685 14.4133 15.6602 14.4314 15.6602C14.4496 15.6602 14.4765 15.6435 14.4912 15.623C14.5059 15.6026 14.5328 15.5859 14.551 15.5859C14.5691 15.5859 14.584 15.5776 14.584 15.5674C14.584 15.5572 14.6007 15.5488 14.6211 15.5488C14.6415 15.5488 14.6582 15.5405 14.6582 15.5303C14.6582 15.5201 14.6731 15.5117 14.6912 15.5117C14.7094 15.5117 14.7363 15.495 14.751 15.4746C14.7657 15.4542 14.7907 15.4375 14.8066 15.4375C14.8225 15.4375 14.8476 15.4208 14.8623 15.4004C14.877 15.38 14.9006 15.3633 14.9146 15.3633C14.9287 15.3633 14.9636 15.3382 14.9922 15.3076C15.0208 15.277 15.0542 15.252 15.0664 15.252C15.0786 15.252 15.112 15.2269 15.1406 15.1963C15.1692 15.1657 15.2022 15.1406 15.2139 15.1406C15.2256 15.1406 15.2928 15.0822 15.3633 15.0107C15.4337 14.9393 15.5004 14.8809 15.5114 14.8809C15.5375 14.8809 15.6602 14.7583 15.6602 14.7323C15.6602 14.7213 15.727 14.6462 15.8086 14.5654C15.8902 14.4847 15.957 14.409 15.957 14.3974C15.957 14.3857 15.9821 14.3528 16.0127 14.3242C16.0433 14.2956 16.0684 14.2622 16.0684 14.25C16.0684 14.2378 16.0934 14.2044 16.124 14.1758C16.1546 14.1472 16.1797 14.1123 16.1797 14.0982C16.1797 14.0842 16.1964 14.0606 16.2168 14.0459C16.2372 14.0312 16.2539 14.0043 16.2539 13.9861C16.2539 13.968 16.2623 13.9531 16.2725 13.9531C16.2827 13.9531 16.291 13.9383 16.291 13.9201C16.291 13.902 16.3077 13.8751 16.3281 13.8604C16.3485 13.8456 16.3652 13.8206 16.3652 13.8047C16.3652 13.7888 16.3819 13.7637 16.4023 13.749C16.4228 13.7343 16.4395 13.7074 16.4395 13.6893C16.4395 13.6711 16.4478 13.6562 16.458 13.6562C16.4682 13.6562 16.4766 13.6396 16.4766 13.6191C16.4766 13.5987 16.4849 13.582 16.4951 13.582C16.5053 13.582 16.5137 13.5653 16.5137 13.5449C16.5137 13.5245 16.522 13.5078 16.5322 13.5078C16.5424 13.5078 16.5508 13.4911 16.5508 13.4707C16.5508 13.4503 16.5591 13.4336 16.5693 13.4336C16.5795 13.4336 16.5879 13.4169 16.5879 13.3965C16.5879 13.3761 16.5962 13.3594 16.6064 13.3594C16.6166 13.3594 16.625 13.3427 16.625 13.3223C16.625 13.3019 16.6334 13.2852 16.6436 13.2852C16.6538 13.2852 16.6621 13.2685 16.6621 13.248C16.6621 13.2276 16.6705 13.2109 16.6807 13.2109C16.6909 13.2109 16.6992 13.1859 16.6992 13.1553C16.6992 13.1247 16.7076 13.0996 16.7178 13.0996C16.728 13.0996 16.7363 13.0829 16.7363 13.0625C16.7363 13.0421 16.7447 13.0254 16.7549 13.0254C16.7651 13.0254 16.7734 13.0003 16.7734 12.9697C16.7734 12.9391 16.7818 12.9141 16.792 12.9141C16.8022 12.9141 16.8105 12.8974 16.8105 12.877C16.8105 12.8565 16.8189 12.8398 16.8291 12.8398C16.8393 12.8398 16.8477 12.8148 16.8477 12.7842C16.8477 12.7536 16.856 12.7285 16.8662 12.7285C16.8764 12.7285 16.8848 12.7035 16.8848 12.6729C16.8848 12.6422 16.8931 12.6172 16.9033 12.6172C16.9135 12.6172 16.9219 12.5921 16.9219 12.5615C16.9219 12.5309 16.9302 12.5059 16.9404 12.5059C16.9506 12.5059 16.959 12.4808 16.959 12.4502C16.959 12.4196 16.9673 12.3945 16.9775 12.3945C16.9877 12.3945 16.9961 12.3611 16.9961 12.3203C16.9961 12.2795 17.0044 12.2461 17.0146 12.2461C17.0249 12.2461 17.0332 12.2127 17.0332 12.1719C17.0332 12.1311 17.0416 12.0977 17.0518 12.0977C17.062 12.0977 17.0703 12.0643 17.0703 12.0234C17.0703 11.9826 17.0787 11.9492 17.0889 11.9492C17.0991 11.9492 17.1074 11.9158 17.1074 11.875C17.1074 11.8342 17.1158 11.8008 17.126 11.8008C17.1363 11.8008 17.1445 11.7513 17.1445 11.6895C17.1445 11.6276 17.1528 11.5781 17.1631 11.5781C17.1733 11.5781 17.1816 11.5364 17.1816 11.4854C17.1816 11.4343 17.19 11.3926 17.2002 11.3926C17.2108 11.3926 17.2188 11.3369 17.2188 11.2627C17.2188 11.1885 17.2267 11.1328 17.2373 11.1328C17.2481 11.1328 17.2559 11.071 17.2559 10.9844C17.2559 10.8978 17.2636 10.8359 17.2744 10.8359C17.2855 10.8359 17.293 10.7617 17.293 10.6504C17.293 10.5391 17.3004 10.4648 17.3115 10.4648C17.3228 10.4648 17.3301 10.3844 17.3301 10.2607C17.3301 10.137 17.3374 10.0566 17.3486 10.0566C17.36 10.0566 17.3672 9.96387 17.3672 9.81543C17.3672 9.66699 17.3743 9.57422 17.3857 9.57422C17.3975 9.57422 17.4043 9.43196 17.4043 9.18457C17.4043 8.93718 17.4111 8.79492 17.4229 8.79492C17.4348 8.79492 17.4414 8.58464 17.4414 8.20117C17.4414 7.8177 17.4348 7.60742 17.4229 7.60742C17.4111 7.60742 17.4043 7.47754 17.4043 7.25488C17.4043 7.03223 17.3975 6.90234 17.3857 6.90234C17.3745 6.90234 17.3672 6.82195 17.3672 6.69824C17.3672 6.57454 17.3599 6.49414 17.3486 6.49414C17.3376 6.49414 17.3301 6.4261 17.3301 6.32715C17.3301 6.2282 17.3225 6.16016 17.3115 6.16016C17.3009 6.16016 17.293 6.10449 17.293 6.03027C17.293 5.95605 17.285 5.90039 17.2744 5.90039C17.2638 5.90039 17.2559 5.84473 17.2559 5.77051C17.2559 5.69629 17.2479 5.64062 17.2373 5.64062C17.2271 5.64062 17.2188 5.59888 17.2188 5.54785C17.2188 5.49683 17.2104 5.45508 17.2002 5.45508C17.19 5.45508 17.1816 5.41333 17.1816 5.3623C17.1816 5.31128 17.1733 5.26953 17.1631 5.26953C17.1529 5.26953 17.1445 5.22778 17.1445 5.17676C17.1445 5.12573 17.1362 5.08398 17.126 5.08398C17.1158 5.08398 17.1074 5.05059 17.1074 5.00977C17.1074 4.96895 17.0991 4.93555 17.0889 4.93555C17.0787 4.93555 17.0703 4.90215 17.0703 4.86133C17.0703 4.82051 17.062 4.78711 17.0518 4.78711C17.0416 4.78711 17.0332 4.75371 17.0332 4.71289C17.0332 4.67207 17.0249 4.63867 17.0146 4.63867C17.0044 4.63867 16.9961 4.60527 16.9961 4.56445C16.9961 4.52363 16.9877 4.49023 16.9775 4.49023C16.9673 4.49023 16.959 4.46519 16.959 4.43457C16.959 4.40395 16.9506 4.37891 16.9404 4.37891C16.9302 4.37891 16.9219 4.35386 16.9219 4.32324C16.9219 4.29263 16.9135 4.26758 16.9033 4.26758C16.8931 4.26758 16.8848 4.24253 16.8848 4.21191C16.8848 4.1813 16.8764 4.15625 16.8662 4.15625C16.856 4.15625 16.8477 4.1312 16.8477 4.10059C16.8477 4.06997 16.8393 4.04492 16.8291 4.04492C16.8189 4.04492 16.8105 4.01987 16.8105 3.98926C16.8105 3.95864 16.8022 3.93359 16.792 3.93359C16.7818 3.93359 16.7734 3.90855 16.7734 3.87793C16.7734 3.84731 16.7651 3.82227 16.7549 3.82227C16.7447 3.82227 16.7363 3.80557 16.7363 3.78516C16.7363 3.76475 16.728 3.74805 16.7178 3.74805C16.7076 3.74805 16.6992 3.723 16.6992 3.69238C16.6992 3.66177 16.6909 3.63672 16.6807 3.63672C16.6705 3.63672 16.6621 3.62002 16.6621 3.59961C16.6621 3.5792 16.6538 3.5625 16.6436 3.5625C16.6334 3.5625 16.625 3.5458 16.625 3.52539C16.625 3.50498 16.6166 3.48828 16.6064 3.48828C16.5962 3.48828 16.5879 3.47158 16.5879 3.45117C16.5879 3.43076 16.5795 3.41406 16.5693 3.41406C16.5591 3.41406 16.5508 3.38901 16.5508 3.3584C16.5508 3.32778 16.5424 3.30273 16.5322 3.30273C16.522 3.30273 16.5137 3.28604 16.5137 3.26562C16.5137 3.24521 16.5053 3.22852 16.4951 3.22852C16.4849 3.22852 16.4766 3.21365 16.4766 3.19551C16.4766 3.17734 16.4599 3.15046 16.4395 3.13574C16.419 3.12103 16.4023 3.09414 16.4023 3.07598C16.4023 3.05783 16.394 3.04297 16.3838 3.04297C16.3736 3.04297 16.3652 3.02627 16.3652 3.00586C16.3652 2.98545 16.3569 2.96875 16.3467 2.96875C16.3365 2.96875 16.3281 2.95389 16.3281 2.93574C16.3281 2.91758 16.3114 2.89069 16.291 2.87598C16.2706 2.86126 16.2539 2.83438 16.2539 2.81621C16.2539 2.79807 16.2456 2.7832 16.2354 2.7832C16.2251 2.7832 16.2168 2.76834 16.2168 2.75019C16.2168 2.73203 16.2001 2.70514 16.1797 2.69043C16.1593 2.67572 16.1426 2.65217 16.1426 2.63811C16.1426 2.62406 16.1175 2.58914 16.0869 2.56055C16.0563 2.53195 16.0312 2.49856 16.0312 2.48633C16.0312 2.4741 16.0062 2.4407 15.9756 2.41211C15.945 2.38352 15.9199 2.35047 15.9199 2.33869C15.9199 2.32692 15.8698 2.26811 15.8086 2.20801C15.7474 2.14791 15.6973 2.0897 15.6973 2.07866C15.6973 2.05261 15.5374 1.89258 15.5113 1.89258C15.5003 1.89258 15.4337 1.83413 15.3633 1.7627C15.2928 1.69126 15.2256 1.63281 15.2139 1.63281C15.2022 1.63281 15.1692 1.60776 15.1406 1.57715C15.112 1.54653 15.0771 1.52148 15.0631 1.52148C15.049 1.52148 15.0255 1.50479 15.0107 1.48438C14.996 1.46396 14.971 1.44727 14.9551 1.44727C14.9392 1.44727 14.9141 1.43057 14.8994 1.41016C14.8847 1.38975 14.8597 1.37305 14.8438 1.37305C14.8278 1.37305 14.8028 1.35635 14.7881 1.33594C14.7734 1.31553 14.7465 1.29883 14.7283 1.29883C14.7102 1.29883 14.6953 1.29048 14.6953 1.28027C14.6953 1.27007 14.6786 1.26172 14.6582 1.26172C14.6378 1.26172 14.6211 1.25337 14.6211 1.24316C14.6211 1.23296 14.6044 1.22461 14.584 1.22461C14.5636 1.22461 14.5469 1.21626 14.5469 1.20605C14.5469 1.19585 14.532 1.1875 14.5139 1.1875C14.4957 1.1875 14.4688 1.1708 14.4541 1.15039C14.4394 1.12998 14.4125 1.11328 14.3943 1.11328C14.3762 1.11328 14.3613 1.10493 14.3613 1.09473C14.3613 1.08452 14.3363 1.07617 14.3057 1.07617C14.275 1.07617 14.25 1.06782 14.25 1.05762C14.25 1.04741 14.2333 1.03906 14.2129 1.03906C14.1925 1.03906 14.1758 1.03071 14.1758 1.02051C14.1758 1.0103 14.1591 1.00195 14.1387 1.00195C14.1183 1.00195 14.1016 0.993604 14.1016 0.983398C14.1016 0.973193 14.0849 0.964844 14.0645 0.964844C14.044 0.964844 14.0273 0.956494 14.0273 0.946289C14.0273 0.936084 14.0106 0.927734 13.9902 0.927734C13.9698 0.927734 13.9531 0.919385 13.9531 0.90918C13.9531 0.898975 13.9281 0.890625 13.8975 0.890625C13.8668 0.890625 13.8418 0.882275 13.8418 0.87207C13.8418 0.861865 13.8251 0.853516 13.8047 0.853516C13.7843 0.853516 13.7676 0.845166 13.7676 0.834961C13.7676 0.824756 13.7425 0.816406 13.7119 0.816406C13.6813 0.816406 13.6562 0.808057 13.6562 0.797852C13.6562 0.787646 13.6312 0.779297 13.6006 0.779297C13.57 0.779297 13.5449 0.770947 13.5449 0.760742C13.5449 0.750537 13.5199 0.742188 13.4893 0.742188C13.4586 0.742188 13.4336 0.733838 13.4336 0.723633C13.4336 0.713428 13.4169 0.705078 13.3965 0.705078C13.3761 0.705078 13.3594 0.696729 13.3594 0.686523C13.3594 0.676318 13.3343 0.667969 13.3037 0.667969C13.2731 0.667969 13.248 0.659619 13.248 0.649414C13.248 0.639209 13.223 0.630859 13.1924 0.630859C13.1618 0.630859 13.1367 0.62251 13.1367 0.612305C13.1367 0.6021 13.1033 0.59375 13.0625 0.59375C13.0217 0.59375 12.9883 0.5854 12.9883 0.575195C12.9883 0.56499 12.9632 0.556641 12.9326 0.556641C12.902 0.556641 12.877 0.548291 12.877 0.538086C12.877 0.527881 12.8436 0.519531 12.8027 0.519531C12.7619 0.519531 12.7285 0.511182 12.7285 0.500977C12.7285 0.490771 12.7035 0.482422 12.6729 0.482422C12.6422 0.482422 12.6172 0.474072 12.6172 0.463867C12.6172 0.453662 12.5754 0.445312 12.5244 0.445312C12.4734 0.445312 12.4316 0.436963 12.4316 0.426758C12.4316 0.416553 12.3982 0.408203 12.3574 0.408203C12.3166 0.408203 12.2832 0.399854 12.2832 0.389648C12.2832 0.379443 12.2498 0.371094 12.209 0.371094C12.1682 0.371094 12.1348 0.362744 12.1348 0.352539C12.1348 0.342334 12.093 0.333984 12.042 0.333984C11.991 0.333984 11.9492 0.325635 11.9492 0.31543C11.9492 0.305225 11.9075 0.296875 11.8564 0.296875C11.8054 0.296875 11.7637 0.288525 11.7637 0.27832C11.7637 0.268115 11.7219 0.259766 11.6709 0.259766C11.6199 0.259766 11.5781 0.251416 11.5781 0.241211C11.5781 0.230895 11.5286 0.222656 11.4668 0.222656C11.405 0.222656 11.3555 0.214418 11.3555 0.204102C11.3555 0.193507 11.2998 0.185547 11.2256 0.185547C11.1514 0.185547 11.0957 0.177587 11.0957 0.166992C11.0957 0.156676 11.0462 0.148438 10.9844 0.148438C10.9225 0.148438 10.873 0.140199 10.873 0.129883C10.873 0.11888 10.805 0.111328 10.7061 0.111328C10.6071 0.111328 10.5391 0.103776 10.5391 0.0927734C10.5391 0.0816406 10.4648 0.0742188 10.3535 0.0742188C10.2422 0.0742188 10.168 0.0667969 10.168 0.0556641C10.168 0.0441787 10.069 0.0371094 9.9082 0.0371094C9.74739 0.0371094 9.64844 0.03004 9.64844 0.0185547C9.64844 0.00641992 9.30827 0 8.66504 0C8.0218 0 7.68164 0.00641992 7.68164 0.0185547ZM9.53711 1.35449C9.53711 1.36598 9.63606 1.37305 9.79688 1.37305C9.95769 1.37305 10.0566 1.38012 10.0566 1.3916C10.0566 1.40273 10.1309 1.41016 10.2422 1.41016C10.3535 1.41016 10.4277 1.41758 10.4277 1.42871C10.4277 1.43953 10.4896 1.44727 10.5762 1.44727C10.6628 1.44727 10.7246 1.455 10.7246 1.46582C10.7246 1.47642 10.7803 1.48438 10.8545 1.48438C10.9287 1.48438 10.9844 1.49233 10.9844 1.50293C10.9844 1.51325 11.0339 1.52148 11.0957 1.52148C11.1575 1.52148 11.207 1.52972 11.207 1.54004C11.207 1.55036 11.2565 1.55859 11.3184 1.55859C11.3802 1.55859 11.4297 1.56683 11.4297 1.57715C11.4297 1.58735 11.4714 1.5957 11.5225 1.5957C11.5735 1.5957 11.6152 1.60405 11.6152 1.61426C11.6152 1.62446 11.657 1.63281 11.708 1.63281C11.759 1.63281 11.8008 1.64116 11.8008 1.65137C11.8008 1.66157 11.8342 1.66992 11.875 1.66992C11.9158 1.66992 11.9492 1.67827 11.9492 1.68848C11.9492 1.69868 11.9826 1.70703 12.0234 1.70703C12.0643 1.70703 12.0977 1.71538 12.0977 1.72559C12.0977 1.73579 12.1311 1.74414 12.1719 1.74414C12.2127 1.74414 12.2461 1.75249 12.2461 1.7627C12.2461 1.7729 12.2795 1.78125 12.3203 1.78125C12.3611 1.78125 12.3945 1.7896 12.3945 1.7998C12.3945 1.81001 12.4196 1.81836 12.4502 1.81836C12.4808 1.81836 12.5059 1.82671 12.5059 1.83691C12.5059 1.84712 12.5393 1.85547 12.5801 1.85547C12.6209 1.85547 12.6543 1.86382 12.6543 1.87402C12.6543 1.88423 12.6793 1.89258 12.71 1.89258C12.7406 1.89258 12.7656 1.90093 12.7656 1.91113C12.7656 1.92134 12.7907 1.92969 12.8213 1.92969C12.8519 1.92969 12.877 1.93804 12.877 1.94824C12.877 1.95845 12.902 1.9668 12.9326 1.9668C12.9632 1.9668 12.9883 1.97515 12.9883 1.98535C12.9883 1.99556 13.0133 2.00391 13.0439 2.00391C13.0746 2.00391 13.0996 2.01226 13.0996 2.02246C13.0996 2.03267 13.1247 2.04102 13.1553 2.04102C13.1859 2.04102 13.2109 2.04937 13.2109 2.05957C13.2109 2.06978 13.2276 2.07812 13.248 2.07812C13.2685 2.07812 13.2852 2.08647 13.2852 2.09668C13.2852 2.10688 13.3019 2.11523 13.3223 2.11523C13.3427 2.11523 13.3594 2.12358 13.3594 2.13379C13.3594 2.14399 13.3844 2.15234 13.415 2.15234C13.4457 2.15234 13.4707 2.16069 13.4707 2.1709C13.4707 2.1811 13.4874 2.18945 13.5078 2.18945C13.5282 2.18945 13.5449 2.1978 13.5449 2.20801C13.5449 2.21821 13.5616 2.22656 13.582 2.22656C13.6024 2.22656 13.6191 2.23491 13.6191 2.24512C13.6191 2.25532 13.6358 2.26367 13.6562 2.26367C13.6767 2.26367 13.6934 2.27202 13.6934 2.28223C13.6934 2.29243 13.7101 2.30078 13.7305 2.30078C13.7509 2.30078 13.7676 2.30913 13.7676 2.31934C13.7676 2.32954 13.7843 2.33789 13.8047 2.33789C13.8251 2.33789 13.8418 2.34624 13.8418 2.35645C13.8418 2.36665 13.8585 2.375 13.8789 2.375C13.8993 2.375 13.916 2.38335 13.916 2.39355C13.916 2.40376 13.9309 2.41211 13.949 2.41211C13.9672 2.41211 13.9941 2.42881 14.0088 2.44922C14.0235 2.46963 14.0504 2.48633 14.0686 2.48633C14.0867 2.48633 14.1016 2.49468 14.1016 2.50488C14.1016 2.51509 14.1149 2.52344 14.1312 2.52344C14.1475 2.52344 14.1843 2.54849 14.2129 2.5791C14.2415 2.60972 14.2749 2.63477 14.2871 2.63477C14.2993 2.63477 14.3327 2.65981 14.3613 2.69043C14.3899 2.72105 14.4226 2.74609 14.434 2.74609C14.4606 2.74609 14.8066 3.09175 14.8066 3.11841C14.8066 3.12954 14.84 3.17074 14.8809 3.20996C14.9217 3.24919 14.9551 3.2926 14.9551 3.30646C14.9551 3.32032 14.9718 3.34368 14.9922 3.3584C15.0126 3.37311 15.0293 3.39816 15.0293 3.41406C15.0293 3.42996 15.046 3.45501 15.0664 3.46973C15.0868 3.48444 15.1035 3.50949 15.1035 3.52539C15.1035 3.54129 15.1202 3.56634 15.1406 3.58105C15.161 3.59577 15.1777 3.62265 15.1777 3.64082C15.1777 3.65897 15.1861 3.67383 15.1963 3.67383C15.2065 3.67383 15.2148 3.69053 15.2148 3.71094C15.2148 3.73135 15.2232 3.74805 15.2334 3.74805C15.2436 3.74805 15.252 3.76475 15.252 3.78516C15.252 3.80557 15.2603 3.82227 15.2705 3.82227C15.2807 3.82227 15.2891 3.83896 15.2891 3.85938C15.2891 3.87979 15.2974 3.89648 15.3076 3.89648C15.3178 3.89648 15.3262 3.91318 15.3262 3.93359C15.3262 3.954 15.3345 3.9707 15.3447 3.9707C15.3549 3.9707 15.3633 3.9874 15.3633 4.00781C15.3633 4.02822 15.3716 4.04492 15.3818 4.04492C15.392 4.04492 15.4004 4.06162 15.4004 4.08203C15.4004 4.10244 15.4087 4.11914 15.4189 4.11914C15.4292 4.11914 15.4375 4.13584 15.4375 4.15625C15.4375 4.17666 15.4458 4.19336 15.4561 4.19336C15.4663 4.19336 15.4746 4.21841 15.4746 4.24902C15.4746 4.27964 15.483 4.30469 15.4932 4.30469C15.5034 4.30469 15.5117 4.32139 15.5117 4.3418C15.5117 4.36221 15.5201 4.37891 15.5303 4.37891C15.5405 4.37891 15.5488 4.40395 15.5488 4.43457C15.5488 4.46519 15.5572 4.49023 15.5674 4.49023C15.5776 4.49023 15.5859 4.51528 15.5859 4.5459C15.5859 4.57651 15.5943 4.60156 15.6045 4.60156C15.6147 4.60156 15.623 4.62661 15.623 4.65723C15.623 4.68784 15.6314 4.71289 15.6416 4.71289C15.6518 4.71289 15.6602 4.73794 15.6602 4.76855C15.6602 4.79917 15.6685 4.82422 15.6787 4.82422C15.6889 4.82422 15.6973 4.84927 15.6973 4.87988C15.6973 4.9105 15.7056 4.93555 15.7158 4.93555C15.726 4.93555 15.7344 4.96895 15.7344 5.00977C15.7344 5.05059 15.7427 5.08398 15.7529 5.08398C15.7631 5.08398 15.7715 5.11738 15.7715 5.1582C15.7715 5.19902 15.7798 5.23242 15.79 5.23242C15.8002 5.23242 15.8086 5.26582 15.8086 5.30664C15.8086 5.34746 15.8169 5.38086 15.8271 5.38086C15.8374 5.38086 15.8457 5.42261 15.8457 5.47363C15.8457 5.52466 15.8541 5.56641 15.8643 5.56641C15.8745 5.56641 15.8828 5.60815 15.8828 5.65918C15.8828 5.71021 15.8912 5.75195 15.9014 5.75195C15.9117 5.75195 15.9199 5.80144 15.9199 5.86328C15.9199 5.92512 15.9282 5.97461 15.9385 5.97461C15.9491 5.97461 15.957 6.03027 15.957 6.10449C15.957 6.17871 15.965 6.23438 15.9756 6.23438C15.9864 6.23438 15.9941 6.29622 15.9941 6.38281C15.9941 6.46941 16.0019 6.53125 16.0127 6.53125C16.0238 6.53125 16.0312 6.60547 16.0312 6.7168C16.0312 6.82812 16.0387 6.90234 16.0498 6.90234C16.0614 6.90234 16.0684 7.01985 16.0684 7.21777C16.0684 7.4157 16.0753 7.5332 16.0869 7.5332C16.099 7.5332 16.1055 7.78679 16.1055 8.25684C16.1055 8.72688 16.099 8.98047 16.0869 8.98047C16.0752 8.98047 16.0684 9.11035 16.0684 9.33301C16.0684 9.55566 16.0615 9.68555 16.0498 9.68555C16.0385 9.68555 16.0312 9.77214 16.0312 9.9082C16.0312 10.0443 16.024 10.1309 16.0127 10.1309C16.0014 10.1309 15.9941 10.2175 15.9941 10.3535C15.9941 10.4896 15.9869 10.5762 15.9756 10.5762C15.965 10.5762 15.957 10.6318 15.957 10.7061C15.957 10.7803 15.9491 10.8359 15.9385 10.8359C15.9279 10.8359 15.9199 10.8916 15.9199 10.9658C15.9199 11.04 15.912 11.0957 15.9014 11.0957C15.8912 11.0957 15.8828 11.1375 15.8828 11.1885C15.8828 11.2395 15.8745 11.2812 15.8643 11.2812C15.8541 11.2812 15.8457 11.3146 15.8457 11.3555C15.8457 11.3963 15.8374 11.4297 15.8271 11.4297C15.8169 11.4297 15.8086 11.4714 15.8086 11.5225C15.8086 11.5735 15.8002 11.6152 15.79 11.6152C15.7798 11.6152 15.7715 11.6403 15.7715 11.6709C15.7715 11.7015 15.7631 11.7266 15.7529 11.7266C15.7427 11.7266 15.7344 11.76 15.7344 11.8008C15.7344 11.8416 15.726 11.875 15.7158 11.875C15.7056 11.875 15.6973 11.9 15.6973 11.9307C15.6973 11.9613 15.6889 11.9863 15.6787 11.9863C15.6685 11.9863 15.6602 12.0114 15.6602 12.042C15.6602 12.0726 15.6518 12.0977 15.6416 12.0977C15.6314 12.0977 15.623 12.1227 15.623 12.1533C15.623 12.1839 15.6147 12.209 15.6045 12.209C15.5943 12.209 15.5859 12.2257 15.5859 12.2461C15.5859 12.2665 15.5776 12.2832 15.5674 12.2832C15.5572 12.2832 15.5488 12.3083 15.5488 12.3389C15.5488 12.3695 15.5405 12.3945 15.5303 12.3945C15.5201 12.3945 15.5117 12.4112 15.5117 12.4316C15.5117 12.4521 15.5034 12.4688 15.4932 12.4688C15.483 12.4688 15.4746 12.4854 15.4746 12.5059C15.4746 12.5263 15.4663 12.543 15.4561 12.543C15.4458 12.543 15.4375 12.5597 15.4375 12.5801C15.4375 12.6005 15.4292 12.6172 15.4189 12.6172C15.4087 12.6172 15.4004 12.6339 15.4004 12.6543C15.4004 12.6747 15.392 12.6914 15.3818 12.6914C15.3716 12.6914 15.3633 12.7081 15.3633 12.7285C15.3633 12.7489 15.3549 12.7656 15.3447 12.7656C15.3345 12.7656 15.3262 12.7823 15.3262 12.8027C15.3262 12.8231 15.3178 12.8398 15.3076 12.8398C15.2974 12.8398 15.2891 12.8565 15.2891 12.877C15.2891 12.8974 15.2807 12.9141 15.2705 12.9141C15.2603 12.9141 15.252 12.9289 15.252 12.9471C15.252 12.9652 15.2353 12.9921 15.2148 13.0068C15.1944 13.0216 15.1777 13.0466 15.1777 13.0625C15.1777 13.0784 15.161 13.1034 15.1406 13.1182C15.1202 13.1329 15.1035 13.1579 15.1035 13.1738C15.1035 13.1897 15.0868 13.2148 15.0664 13.2295C15.046 13.2442 15.0293 13.2676 15.0293 13.2814C15.0293 13.2953 14.9959 13.3387 14.9551 13.3779C14.9143 13.4172 14.8809 13.4583 14.8809 13.4694C14.8809 13.4958 14.3864 13.9902 14.36 13.9902C14.349 13.9902 14.3078 14.0236 14.2686 14.0645C14.2293 14.1053 14.1859 14.1387 14.1721 14.1387C14.1582 14.1387 14.1348 14.1554 14.1201 14.1758C14.1054 14.1962 14.0804 14.2129 14.0645 14.2129C14.0486 14.2129 14.0235 14.2296 14.0088 14.25C13.9941 14.2704 13.9672 14.2871 13.949 14.2871C13.9309 14.2871 13.916 14.2955 13.916 14.3057C13.916 14.3159 13.9012 14.3242 13.883 14.3242C13.8648 14.3242 13.838 14.3409 13.8232 14.3613C13.8085 14.3817 13.7816 14.3984 13.7635 14.3984C13.7453 14.3984 13.7305 14.4068 13.7305 14.417C13.7305 14.4272 13.7138 14.4355 13.6934 14.4355C13.6729 14.4355 13.6562 14.4439 13.6562 14.4541C13.6562 14.4643 13.6396 14.4727 13.6191 14.4727C13.5987 14.4727 13.582 14.481 13.582 14.4912C13.582 14.5014 13.5653 14.5098 13.5449 14.5098C13.5245 14.5098 13.5078 14.5181 13.5078 14.5283C13.5078 14.5385 13.4911 14.5469 13.4707 14.5469C13.4503 14.5469 13.4336 14.5552 13.4336 14.5654C13.4336 14.5756 13.4085 14.584 13.3779 14.584C13.3473 14.584 13.3223 14.5923 13.3223 14.6025C13.3223 14.6127 13.3056 14.6211 13.2852 14.6211C13.2647 14.6211 13.248 14.6294 13.248 14.6396C13.248 14.6499 13.223 14.6582 13.1924 14.6582C13.1618 14.6582 13.1367 14.6666 13.1367 14.6768C13.1367 14.687 13.1117 14.6953 13.0811 14.6953C13.0504 14.6953 13.0254 14.7037 13.0254 14.7139C13.0254 14.7241 13.0003 14.7324 12.9697 14.7324C12.9391 14.7324 12.9141 14.7408 12.9141 14.751C12.9141 14.7612 12.8807 14.7695 12.8398 14.7695C12.799 14.7695 12.7656 14.7779 12.7656 14.7881C12.7656 14.7983 12.7322 14.8066 12.6914 14.8066C12.6506 14.8066 12.6172 14.815 12.6172 14.8252C12.6172 14.8354 12.5838 14.8438 12.543 14.8438C12.5021 14.8438 12.4688 14.8521 12.4688 14.8623C12.4688 14.8725 12.4437 14.8809 12.4131 14.8809C12.3825 14.8809 12.3574 14.8892 12.3574 14.8994C12.3574 14.9096 12.324 14.918 12.2832 14.918C12.2424 14.918 12.209 14.9263 12.209 14.9365C12.209 14.9467 12.1756 14.9551 12.1348 14.9551C12.0939 14.9551 12.0605 14.9634 12.0605 14.9736C12.0605 14.9838 12.0271 14.9922 11.9863 14.9922C11.9455 14.9922 11.9121 15.0005 11.9121 15.0107C11.9121 15.0209 11.8704 15.0293 11.8193 15.0293C11.7683 15.0293 11.7266 15.0376 11.7266 15.0479C11.7266 15.0581 11.6848 15.0664 11.6338 15.0664C11.5828 15.0664 11.541 15.0748 11.541 15.085C11.541 15.0952 11.4993 15.1035 11.4482 15.1035C11.3972 15.1035 11.3555 15.1119 11.3555 15.1221C11.3555 15.1324 11.306 15.1406 11.2441 15.1406C11.1823 15.1406 11.1328 15.1489 11.1328 15.1592C11.1328 15.1695 11.0833 15.1777 11.0215 15.1777C10.9596 15.1777 10.9102 15.186 10.9102 15.1963C10.9102 15.2069 10.8545 15.2148 10.7803 15.2148C10.7061 15.2148 10.6504 15.2228 10.6504 15.2334C10.6504 15.2444 10.5824 15.252 10.4834 15.252C10.3844 15.252 10.3164 15.2595 10.3164 15.2705C10.3164 15.2816 10.2422 15.2891 10.1309 15.2891C10.0195 15.2891 9.94531 15.2965 9.94531 15.3076C9.94531 15.3191 9.84636 15.3262 9.68555 15.3262C9.52473 15.3262 9.42578 15.3332 9.42578 15.3447C9.42578 15.3568 9.13509 15.3633 8.59082 15.3633C8.04656 15.3633 7.75586 15.3568 7.75586 15.3447C7.75586 15.3345 7.71806 15.3262 7.67188 15.3262C7.59714 15.3262 7.57874 15.3353 7.50489 15.4092C7.45923 15.4548 7.42188 15.5014 7.42188 15.5127C7.42188 15.524 7.38848 15.5653 7.34766 15.6045C7.30684 15.6437 7.27344 15.6855 7.27344 15.6973C7.27344 15.7091 7.24004 15.7508 7.19922 15.79C7.1584 15.8293 7.125 15.8709 7.125 15.8826C7.125 15.8942 7.08325 15.9444 7.03223 15.9941C6.9812 16.0438 6.93945 16.0941 6.93945 16.1057C6.93945 16.1174 6.90605 16.159 6.86523 16.1982C6.82441 16.2375 6.79102 16.2792 6.79102 16.291C6.79102 16.3028 6.75762 16.3446 6.7168 16.3838C6.67598 16.423 6.64258 16.4647 6.64258 16.4763C6.64258 16.488 6.60083 16.5382 6.5498 16.5879C6.49878 16.6376 6.45703 16.6877 6.45703 16.6992C6.45703 16.7107 6.41528 16.7608 6.36426 16.8105C6.31323 16.8603 6.27148 16.9104 6.27148 16.9219C6.27148 16.9334 6.22974 16.9835 6.17871 17.0332C6.12769 17.0829 6.08594 17.133 6.08594 17.1445C6.08594 17.1561 6.04419 17.2062 5.99316 17.2559C5.94214 17.3056 5.90039 17.3557 5.90039 17.3672C5.90039 17.3787 5.85864 17.4288 5.80762 17.4785C5.75659 17.5282 5.71484 17.5782 5.71484 17.5897C5.71484 17.6011 5.66475 17.6596 5.60352 17.7197C5.54228 17.7798 5.49219 17.8382 5.49219 17.8494C5.49219 17.8606 5.42539 17.9358 5.34375 18.0166C5.26211 18.0974 5.19531 18.1724 5.19531 18.1834C5.19531 18.2139 5.07046 18.332 5.03821 18.332C5.02257 18.332 5.00977 18.3404 5.00977 18.3506C5.00977 18.3608 4.97182 18.3691 4.92543 18.3691C4.81674 18.3691 4.75 18.3095 4.75 18.2123C4.75 18.1761 4.74165 18.1465 4.73145 18.1465C4.71942 18.1465 4.71289 17.9115 4.71289 17.4785C4.71289 17.0456 4.71942 16.8105 4.73145 16.8105C4.74358 16.8105 4.75 16.4792 4.75 15.8537C4.75 14.7961 4.75562 14.8438 4.63071 14.8438C4.59427 14.8438 4.56445 14.8354 4.56445 14.8252C4.56445 14.815 4.5394 14.8066 4.50879 14.8066C4.47817 14.8066 4.45312 14.7983 4.45312 14.7881C4.45312 14.7779 4.43643 14.7695 4.41602 14.7695C4.39561 14.7695 4.37891 14.7612 4.37891 14.751C4.37891 14.7408 4.35386 14.7324 4.32324 14.7324C4.29263 14.7324 4.26758 14.7241 4.26758 14.7139C4.26758 14.7037 4.25088 14.6953 4.23047 14.6953C4.21006 14.6953 4.19336 14.687 4.19336 14.6768C4.19336 14.6666 4.16831 14.6582 4.1377 14.6582C4.10708 14.6582 4.08203 14.6499 4.08203 14.6396C4.08203 14.6294 4.06533 14.6211 4.04492 14.6211C4.02451 14.6211 4.00781 14.6127 4.00781 14.6025C4.00781 14.5923 3.99111 14.584 3.9707 14.584C3.95029 14.584 3.93359 14.5756 3.93359 14.5654C3.93359 14.5552 3.91689 14.5469 3.89648 14.5469C3.87607 14.5469 3.85938 14.5385 3.85938 14.5283C3.85938 14.5181 3.84268 14.5098 3.82227 14.5098C3.80186 14.5098 3.78516 14.5014 3.78516 14.4912C3.78516 14.481 3.76846 14.4727 3.74805 14.4727C3.72764 14.4727 3.71094 14.4643 3.71094 14.4541C3.71094 14.4439 3.69608 14.4355 3.67793 14.4355C3.65976 14.4355 3.63288 14.4188 3.61816 14.3984C3.60345 14.378 3.5784 14.3613 3.5625 14.3613C3.5466 14.3613 3.52155 14.3446 3.50684 14.3242C3.49212 14.3038 3.46524 14.2871 3.44707 14.2871C3.42893 14.2871 3.41406 14.2788 3.41406 14.2686C3.41406 14.2583 3.40072 14.25 3.38439 14.25C3.36808 14.25 3.33133 14.225 3.30273 14.1943C3.27414 14.1637 3.24091 14.1387 3.22889 14.1387C3.21688 14.1387 3.17497 14.1053 3.13574 14.0645C3.09652 14.0236 3.05534 13.9902 3.04423 13.9902C3.01785 13.9902 2.59766 13.57 2.59766 13.5437C2.59766 13.5325 2.56426 13.4914 2.52344 13.4521C2.48262 13.4129 2.44922 13.371 2.44922 13.359C2.44922 13.347 2.42417 13.3137 2.39355 13.2852C2.36294 13.2566 2.33789 13.2216 2.33789 13.2076C2.33789 13.1935 2.32119 13.17 2.30078 13.1553C2.28037 13.1406 2.26367 13.1155 2.26367 13.0996C2.26367 13.0837 2.24697 13.0587 2.22656 13.0439C2.20615 13.0292 2.18945 13.0023 2.18945 12.9842C2.18945 12.966 2.1811 12.9512 2.1709 12.9512C2.16069 12.9512 2.15234 12.9345 2.15234 12.9141C2.15234 12.8937 2.14399 12.877 2.13379 12.877C2.12358 12.877 2.11523 12.8603 2.11523 12.8398C2.11523 12.8194 2.10688 12.8027 2.09668 12.8027C2.08647 12.8027 2.07812 12.7879 2.07812 12.7697C2.07812 12.7516 2.06143 12.7247 2.04102 12.71C2.01923 12.6942 2.00391 12.6619 2.00391 12.6316C2.00391 12.6033 1.99556 12.5801 1.98535 12.5801C1.97515 12.5801 1.9668 12.5634 1.9668 12.543C1.9668 12.5226 1.95845 12.5059 1.94824 12.5059C1.93804 12.5059 1.92969 12.4892 1.92969 12.4688C1.92969 12.4483 1.92134 12.4316 1.91113 12.4316C1.90093 12.4316 1.89258 12.4149 1.89258 12.3945C1.89258 12.3741 1.88423 12.3574 1.87402 12.3574C1.86382 12.3574 1.85547 12.3324 1.85547 12.3018C1.85547 12.2711 1.84712 12.2461 1.83691 12.2461C1.82671 12.2461 1.81836 12.2294 1.81836 12.209C1.81836 12.1886 1.81001 12.1719 1.7998 12.1719C1.7896 12.1719 1.78125 12.1468 1.78125 12.1162C1.78125 12.0856 1.7729 12.0605 1.7627 12.0605C1.75249 12.0605 1.74414 12.0355 1.74414 12.0049C1.74414 11.9743 1.73579 11.9492 1.72559 11.9492C1.71538 11.9492 1.70703 11.9242 1.70703 11.8936C1.70703 11.8629 1.69868 11.8379 1.68848 11.8379C1.67827 11.8379 1.66992 11.8128 1.66992 11.7822C1.66992 11.7516 1.66157 11.7266 1.65137 11.7266C1.64116 11.7266 1.63281 11.6932 1.63281 11.6523C1.63281 11.6115 1.62446 11.5781 1.61426 11.5781C1.60405 11.5781 1.5957 11.5447 1.5957 11.5039C1.5957 11.4631 1.58735 11.4297 1.57715 11.4297C1.56694 11.4297 1.55859 11.3963 1.55859 11.3555C1.55859 11.3146 1.55024 11.2812 1.54004 11.2812C1.52983 11.2812 1.52148 11.2395 1.52148 11.1885C1.52148 11.1375 1.51313 11.0957 1.50293 11.0957C1.49261 11.0957 1.48438 11.0462 1.48438 10.9844C1.48438 10.9225 1.47614 10.873 1.46582 10.873C1.45523 10.873 1.44727 10.8174 1.44727 10.7432C1.44727 10.6689 1.43931 10.6133 1.42871 10.6133C1.41789 10.6133 1.41016 10.5514 1.41016 10.4648C1.41016 10.3782 1.40242 10.3164 1.3916 10.3164C1.38019 10.3164 1.37305 10.2236 1.37305 10.0752C1.37305 9.92676 1.3659 9.83398 1.35449 9.83398C1.34232 9.83398 1.33594 9.42578 1.33594 8.64648C1.33594 7.86719 1.34232 7.45898 1.35449 7.45898C1.36609 7.45898 1.37305 7.34766 1.37305 7.16211C1.37305 6.97656 1.38 6.86523 1.3916 6.86523C1.40273 6.86523 1.41016 6.79102 1.41016 6.67969C1.41016 6.56836 1.41758 6.49414 1.42871 6.49414C1.43953 6.49414 1.44727 6.4323 1.44727 6.3457C1.44727 6.25911 1.455 6.19727 1.46582 6.19727C1.47642 6.19727 1.48438 6.1416 1.48438 6.06738C1.48438 5.99316 1.49233 5.9375 1.50293 5.9375C1.51313 5.9375 1.52148 5.89575 1.52148 5.84473C1.52148 5.7937 1.52983 5.75195 1.54004 5.75195C1.55024 5.75195 1.55859 5.71021 1.55859 5.65918C1.55859 5.60815 1.56694 5.56641 1.57715 5.56641C1.58735 5.56641 1.5957 5.52466 1.5957 5.47363C1.5957 5.42261 1.60405 5.38086 1.61426 5.38086C1.62446 5.38086 1.63281 5.34746 1.63281 5.30664C1.63281 5.26582 1.64116 5.23242 1.65137 5.23242C1.66157 5.23242 1.66992 5.20737 1.66992 5.17676C1.66992 5.14614 1.67827 5.12109 1.68848 5.12109C1.69868 5.12109 1.70703 5.0877 1.70703 5.04688C1.70703 5.00605 1.71538 4.97266 1.72559 4.97266C1.73579 4.97266 1.74414 4.94761 1.74414 4.91699C1.74414 4.88638 1.75249 4.86133 1.7627 4.86133C1.7729 4.86133 1.78125 4.83628 1.78125 4.80566C1.78125 4.77505 1.7896 4.75 1.7998 4.75C1.81001 4.75 1.81836 4.72495 1.81836 4.69434C1.81836 4.66372 1.82671 4.63867 1.83691 4.63867C1.84712 4.63867 1.85547 4.61362 1.85547 4.58301C1.85547 4.55239 1.86382 4.52734 1.87402 4.52734C1.88423 4.52734 1.89258 4.51064 1.89258 4.49023C1.89258 4.46982 1.90093 4.45312 1.91113 4.45312C1.92134 4.45312 1.92969 4.43643 1.92969 4.41602C1.92969 4.39561 1.93804 4.37891 1.94824 4.37891C1.95845 4.37891 1.9668 4.35386 1.9668 4.32324C1.9668 4.29263 1.97515 4.26758 1.98535 4.26758C1.99556 4.26758 2.00391 4.25088 2.00391 4.23047C2.00391 4.21006 2.01226 4.19336 2.02246 4.19336C2.03267 4.19336 2.04102 4.17666 2.04102 4.15625C2.04102 4.13584 2.04937 4.11914 2.05957 4.11914C2.06978 4.11914 2.07812 4.10244 2.07812 4.08203C2.07812 4.06162 2.08647 4.04492 2.09668 4.04492C2.10688 4.04492 2.11523 4.02822 2.11523 4.00781C2.11523 3.9874 2.12358 3.9707 2.13379 3.9707C2.14399 3.9707 2.15234 3.954 2.15234 3.93359C2.15234 3.91318 2.16069 3.89648 2.1709 3.89648C2.1811 3.89648 2.18945 3.88162 2.18945 3.86348C2.18945 3.84531 2.20615 3.81842 2.22656 3.80371C2.24697 3.789 2.26367 3.76211 2.26367 3.74395C2.26367 3.7258 2.27202 3.71094 2.28223 3.71094C2.29243 3.71094 2.30078 3.69607 2.30078 3.67793C2.30078 3.65976 2.31748 3.63288 2.33789 3.61816C2.3583 3.60345 2.375 3.5784 2.375 3.5625C2.375 3.5466 2.3917 3.52155 2.41211 3.50684C2.43252 3.49212 2.44922 3.46876 2.44922 3.4549C2.44922 3.44104 2.48262 3.39762 2.52344 3.3584C2.56426 3.31917 2.59766 3.27763 2.59766 3.26605C2.59766 3.25447 2.64775 3.19584 2.70898 3.13574C2.77021 3.07564 2.82031 3.01727 2.82031 3.00604C2.82031 2.97944 2.90535 2.89453 2.93199 2.89453C2.94333 2.89453 2.99326 2.85278 3.04297 2.80176C3.09268 2.75073 3.14305 2.70898 3.15493 2.70898C3.1668 2.70898 3.19992 2.68394 3.22852 2.65332C3.25711 2.6227 3.29203 2.59766 3.30607 2.59766C3.32014 2.59766 3.34368 2.58096 3.3584 2.56055C3.37311 2.54014 3.4 2.52344 3.41816 2.52344C3.43631 2.52344 3.45117 2.51509 3.45117 2.50488C3.45117 2.49468 3.46603 2.48633 3.48418 2.48633C3.50235 2.48633 3.52923 2.46963 3.54395 2.44922C3.55866 2.42881 3.58554 2.41211 3.60371 2.41211C3.62186 2.41211 3.63672 2.40376 3.63672 2.39355C3.63672 2.38335 3.65158 2.375 3.66973 2.375C3.68789 2.375 3.71478 2.3583 3.72949 2.33789C3.74421 2.31748 3.77109 2.30078 3.78926 2.30078C3.8074 2.30078 3.82227 2.29243 3.82227 2.28223C3.82227 2.27202 3.83896 2.26367 3.85938 2.26367C3.87979 2.26367 3.89648 2.25532 3.89648 2.24512C3.89648 2.23491 3.91318 2.22656 3.93359 2.22656C3.954 2.22656 3.9707 2.21821 3.9707 2.20801C3.9707 2.1978 3.9874 2.18945 4.00781 2.18945C4.02822 2.18945 4.04492 2.1811 4.04492 2.1709C4.04492 2.16069 4.06997 2.15234 4.10059 2.15234C4.1312 2.15234 4.15625 2.14399 4.15625 2.13379C4.15625 2.12358 4.17295 2.11523 4.19336 2.11523C4.21377 2.11523 4.23047 2.10688 4.23047 2.09668C4.23047 2.08647 4.24717 2.07812 4.26758 2.07812C4.28799 2.07812 4.30469 2.06978 4.30469 2.05957C4.30469 2.04937 4.32974 2.04102 4.36035 2.04102C4.39097 2.04102 4.41602 2.03267 4.41602 2.02246C4.41602 2.01226 4.43271 2.00391 4.45312 2.00391C4.47354 2.00391 4.49023 1.99556 4.49023 1.98535C4.49023 1.97515 4.51528 1.9668 4.5459 1.9668C4.57651 1.9668 4.60156 1.95845 4.60156 1.94824C4.60156 1.93804 4.62661 1.92969 4.65723 1.92969C4.68784 1.92969 4.71289 1.92134 4.71289 1.91113C4.71289 1.90093 4.73794 1.89258 4.76855 1.89258C4.79917 1.89258 4.82422 1.88423 4.82422 1.87402C4.82422 1.86382 4.84927 1.85547 4.87988 1.85547C4.9105 1.85547 4.93555 1.84712 4.93555 1.83691C4.93555 1.82671 4.9606 1.81836 4.99121 1.81836C5.02183 1.81836 5.04688 1.81001 5.04688 1.7998C5.04688 1.7896 5.07192 1.78125 5.10254 1.78125C5.13315 1.78125 5.1582 1.7729 5.1582 1.7627C5.1582 1.75249 5.1916 1.74414 5.23242 1.74414C5.27324 1.74414 5.30664 1.73579 5.30664 1.72559C5.30664 1.71538 5.34004 1.70703 5.38086 1.70703C5.42168 1.70703 5.45508 1.69868 5.45508 1.68848C5.45508 1.67827 5.48848 1.66992 5.5293 1.66992C5.57012 1.66992 5.60352 1.66157 5.60352 1.65137C5.60352 1.64116 5.64526 1.63281 5.69629 1.63281C5.74731 1.63281 5.78906 1.62446 5.78906 1.61426C5.78906 1.60405 5.82246 1.5957 5.86328 1.5957C5.9041 1.5957 5.9375 1.58735 5.9375 1.57715C5.9375 1.56694 5.97925 1.55859 6.03027 1.55859C6.0813 1.55859 6.12305 1.55024 6.12305 1.54004C6.12305 1.52972 6.17253 1.52148 6.23438 1.52148C6.29622 1.52148 6.3457 1.51325 6.3457 1.50293C6.3457 1.49233 6.40137 1.48438 6.47559 1.48438C6.5498 1.48438 6.60547 1.47642 6.60547 1.46582C6.60547 1.45523 6.66113 1.44727 6.73535 1.44727C6.80957 1.44727 6.86523 1.43931 6.86523 1.42871C6.86523 1.41758 6.93945 1.41016 7.05078 1.41016C7.16211 1.41016 7.23633 1.40273 7.23633 1.3916C7.23633 1.38019 7.3291 1.37305 7.47754 1.37305C7.62598 1.37305 7.71875 1.3659 7.71875 1.35449C7.71875 1.34238 8.03418 1.33594 8.62793 1.33594C9.22168 1.33594 9.53711 1.34238 9.53711 1.35449ZM8.49805 3.43262C8.49805 3.44282 8.48135 3.45117 8.46094 3.45117C8.4362 3.45117 8.42383 3.46355 8.42383 3.48828C8.42383 3.50869 8.41548 3.52539 8.40527 3.52539C8.39479 3.52539 8.38672 3.57823 8.38672 3.64683C8.38672 3.75105 8.39318 3.77475 8.43227 3.81382C8.45732 3.83887 8.49907 3.85938 8.52504 3.85938C8.55102 3.85938 8.57227 3.86772 8.57227 3.87793C8.57227 3.88947 8.67741 3.89648 8.85059 3.89648C9.02376 3.89648 9.12891 3.9035 9.12891 3.91504C9.12891 3.92563 9.18457 3.93359 9.25879 3.93359C9.33301 3.93359 9.38867 3.94155 9.38867 3.95215C9.38867 3.96235 9.43042 3.9707 9.48145 3.9707C9.53247 3.9707 9.57422 3.97905 9.57422 3.98926C9.57422 3.99946 9.61597 4.00781 9.66699 4.00781C9.71802 4.00781 9.75977 4.01616 9.75977 4.02637C9.75977 4.03657 9.78481 4.04492 9.81543 4.04492C9.84604 4.04492 9.87109 4.05327 9.87109 4.06348C9.87109 4.07368 9.90449 4.08203 9.94531 4.08203C9.98613 4.08203 10.0195 4.09038 10.0195 4.10059C10.0195 4.11079 10.0446 4.11914 10.0752 4.11914C10.1058 4.11914 10.1309 4.12749 10.1309 4.1377C10.1309 4.1479 10.1476 4.15625 10.168 4.15625C10.1884 4.15625 10.2051 4.1646 10.2051 4.1748C10.2051 4.18501 10.2301 4.19336 10.2607 4.19336C10.2914 4.19336 10.3164 4.20171 10.3164 4.21191C10.3164 4.22212 10.3331 4.23047 10.3535 4.23047C10.3739 4.23047 10.3906 4.23882 10.3906 4.24902C10.3906 4.25923 10.4073 4.26758 10.4277 4.26758C10.4481 4.26758 10.4648 4.27593 10.4648 4.28613C10.4648 4.29634 10.4815 4.30469 10.502 4.30469C10.5224 4.30469 10.5391 4.31304 10.5391 4.32324C10.5391 4.33345 10.5623 4.3418 10.5906 4.3418C10.6209 4.3418 10.6532 4.35712 10.6689 4.37891C10.6837 4.39932 10.7105 4.41602 10.7287 4.41602C10.7469 4.41602 10.7617 4.42437 10.7617 4.43457C10.7617 4.44478 10.7784 4.45312 10.7988 4.45312C10.8192 4.45312 10.8359 4.46147 10.8359 4.47168C10.8359 4.48188 10.8508 4.49023 10.8689 4.49023C10.8871 4.49023 10.914 4.50693 10.9287 4.52734C10.9434 4.54775 10.9685 4.56445 10.9844 4.56445C11.0003 4.56445 11.0253 4.58115 11.04 4.60156C11.0548 4.62197 11.0783 4.63867 11.0924 4.63867C11.1064 4.63867 11.1413 4.66372 11.1699 4.69434C11.1985 4.72495 11.2317 4.75 11.2438 4.75C11.2558 4.75 11.2977 4.7834 11.3369 4.82422C11.3761 4.86504 11.4173 4.89844 11.4284 4.89844C11.4548 4.89844 11.8379 5.28148 11.8379 5.30788C11.8379 5.319 11.8713 5.36019 11.9121 5.39941C11.9529 5.43864 11.9863 5.48055 11.9863 5.49256C11.9863 5.50458 12.0114 5.53781 12.042 5.56641C12.0726 5.595 12.0977 5.62992 12.0977 5.64396C12.0977 5.65803 12.1144 5.68158 12.1348 5.69629C12.1552 5.711 12.1719 5.73789 12.1719 5.75605C12.1719 5.7742 12.1802 5.78906 12.1904 5.78906C12.2006 5.78906 12.209 5.80392 12.209 5.82207C12.209 5.84024 12.2257 5.86712 12.2461 5.88184C12.2665 5.89655 12.2832 5.92344 12.2832 5.9416C12.2832 5.95975 12.2916 5.97461 12.3018 5.97461C12.312 5.97461 12.3203 5.99131 12.3203 6.01172C12.3203 6.03213 12.3287 6.04883 12.3389 6.04883C12.3491 6.04883 12.3574 6.06553 12.3574 6.08594C12.3574 6.10635 12.3658 6.12305 12.376 6.12305C12.3862 6.12305 12.3945 6.13975 12.3945 6.16016C12.3945 6.18057 12.4029 6.19727 12.4131 6.19727C12.4233 6.19727 12.4316 6.21396 12.4316 6.23438C12.4316 6.25479 12.44 6.27148 12.4502 6.27148C12.4604 6.27148 12.4688 6.28818 12.4688 6.30859C12.4688 6.329 12.4771 6.3457 12.4873 6.3457C12.4975 6.3457 12.5059 6.3624 12.5059 6.38281C12.5059 6.40322 12.5142 6.41992 12.5244 6.41992C12.5346 6.41992 12.543 6.44497 12.543 6.47559C12.543 6.5062 12.5513 6.53125 12.5615 6.53125C12.5717 6.53125 12.5801 6.54795 12.5801 6.56836C12.5801 6.58877 12.5884 6.60547 12.5986 6.60547C12.6088 6.60547 12.6172 6.63052 12.6172 6.66113C12.6172 6.69175 12.6255 6.7168 12.6357 6.7168C12.6459 6.7168 12.6543 6.74185 12.6543 6.77246C12.6543 6.80308 12.6626 6.82812 12.6729 6.82812C12.6831 6.82812 12.6914 6.86152 12.6914 6.90234C12.6914 6.94316 12.6998 6.97656 12.71 6.97656C12.7202 6.97656 12.7285 7.00161 12.7285 7.03223C12.7285 7.06284 12.7369 7.08789 12.7471 7.08789C12.7573 7.08789 12.7656 7.12129 12.7656 7.16211C12.7656 7.20293 12.774 7.23633 12.7842 7.23633C12.7944 7.23633 12.8027 7.27808 12.8027 7.3291C12.8027 7.38013 12.8111 7.42188 12.8213 7.42188C12.8316 7.42188 12.8398 7.47136 12.8398 7.5332C12.8398 7.59505 12.8481 7.64453 12.8584 7.64453C12.869 7.64453 12.877 7.7002 12.877 7.77441C12.877 7.84863 12.8849 7.9043 12.8955 7.9043C12.9071 7.9043 12.9141 8.0218 12.9141 8.21973C12.9141 8.41765 12.921 8.53516 12.9326 8.53516C12.9428 8.53516 12.9512 8.57332 12.9512 8.61997C12.9512 8.70753 12.9811 8.75781 13.0334 8.75781C13.0494 8.75781 13.0625 8.76616 13.0625 8.77637C13.0625 8.78657 13.1087 8.79492 13.1652 8.79492C13.2576 8.79492 13.2743 8.7885 13.3322 8.73059L13.3965 8.66628V8.39661C13.3965 8.22921 13.3895 8.12695 13.3779 8.12695C13.3668 8.12695 13.3594 8.05273 13.3594 7.94141C13.3594 7.83008 13.352 7.75586 13.3408 7.75586C13.3302 7.75586 13.3223 7.7002 13.3223 7.62598C13.3223 7.55176 13.3143 7.49609 13.3037 7.49609C13.2935 7.49609 13.2852 7.45435 13.2852 7.40332C13.2852 7.35229 13.2768 7.31055 13.2666 7.31055C13.2564 7.31055 13.248 7.2688 13.248 7.21777C13.248 7.16675 13.2397 7.125 13.2295 7.125C13.2193 7.125 13.2109 7.0916 13.2109 7.05078C13.2109 7.00996 13.2026 6.97656 13.1924 6.97656C13.1822 6.97656 13.1738 6.94316 13.1738 6.90234C13.1738 6.86152 13.1655 6.82812 13.1553 6.82812C13.1451 6.82812 13.1367 6.80308 13.1367 6.77246C13.1367 6.74185 13.1284 6.7168 13.1182 6.7168C13.108 6.7168 13.0996 6.69175 13.0996 6.66113C13.0996 6.63052 13.0913 6.60547 13.0811 6.60547C13.0708 6.60547 13.0625 6.58042 13.0625 6.5498C13.0625 6.51919 13.0542 6.49414 13.0439 6.49414C13.0337 6.49414 13.0254 6.46909 13.0254 6.43848C13.0254 6.40786 13.017 6.38281 13.0068 6.38281C12.9966 6.38281 12.9883 6.36611 12.9883 6.3457C12.9883 6.32529 12.9799 6.30859 12.9697 6.30859C12.9595 6.30859 12.9512 6.28355 12.9512 6.25293C12.9512 6.22231 12.9428 6.19727 12.9326 6.19727C12.9224 6.19727 12.9141 6.18057 12.9141 6.16016C12.9141 6.13975 12.9057 6.12305 12.8955 6.12305C12.8853 6.12305 12.877 6.10635 12.877 6.08594C12.877 6.06553 12.8686 6.04883 12.8584 6.04883C12.8482 6.04883 12.8398 6.03213 12.8398 6.01172C12.8398 5.99131 12.8315 5.97461 12.8213 5.97461C12.8111 5.97461 12.8027 5.95791 12.8027 5.9375C12.8027 5.91709 12.7944 5.90039 12.7842 5.90039C12.774 5.90039 12.7656 5.88369 12.7656 5.86328C12.7656 5.84287 12.7573 5.82617 12.7471 5.82617C12.7369 5.82617 12.7285 5.80947 12.7285 5.78906C12.7285 5.76865 12.7202 5.75195 12.71 5.75195C12.6998 5.75195 12.6914 5.73709 12.6914 5.71894C12.6914 5.70078 12.6747 5.67389 12.6543 5.65918C12.6339 5.64447 12.6172 5.61758 12.6172 5.59941C12.6172 5.58127 12.6088 5.56641 12.5986 5.56641C12.5884 5.56641 12.5801 5.55154 12.5801 5.5334C12.5801 5.51523 12.5634 5.48835 12.543 5.47363C12.5226 5.45892 12.5059 5.43387 12.5059 5.41797C12.5059 5.40207 12.4892 5.37702 12.4688 5.3623C12.4483 5.34759 12.4316 5.32404 12.4316 5.30998C12.4316 5.29593 12.4066 5.26101 12.376 5.23242C12.3454 5.20383 12.3203 5.17071 12.3203 5.15883C12.3203 5.14696 12.2786 5.09658 12.2275 5.04688C12.1765 4.99717 12.1348 4.94751 12.1348 4.93651C12.1348 4.91042 11.7888 4.56445 11.7627 4.56445C11.7517 4.56445 11.7021 4.52271 11.6523 4.47168C11.6026 4.42065 11.5523 4.37891 11.5404 4.37891C11.5285 4.37891 11.4954 4.35386 11.4668 4.32324C11.4382 4.29263 11.4033 4.26758 11.3892 4.26758C11.3752 4.26758 11.3516 4.25088 11.3369 4.23047C11.3222 4.21006 11.2972 4.19336 11.2812 4.19336C11.2653 4.19336 11.2403 4.17666 11.2256 4.15625C11.2109 4.13584 11.1858 4.11914 11.1699 4.11914C11.154 4.11914 11.129 4.10244 11.1143 4.08203C11.0995 4.06162 11.0727 4.04492 11.0545 4.04492C11.0363 4.04492 11.0215 4.03657 11.0215 4.02637C11.0215 4.01616 11.0048 4.00781 10.9844 4.00781C10.964 4.00781 10.9473 3.99946 10.9473 3.98926C10.9473 3.97905 10.9306 3.9707 10.9102 3.9707C10.8897 3.9707 10.873 3.96235 10.873 3.95215C10.873 3.94194 10.8563 3.93359 10.8359 3.93359C10.8155 3.93359 10.7988 3.92524 10.7988 3.91504C10.7988 3.90483 10.7821 3.89648 10.7617 3.89648C10.7413 3.89648 10.7246 3.88813 10.7246 3.87793C10.7246 3.86772 10.7079 3.85938 10.6875 3.85938C10.6671 3.85938 10.6504 3.85103 10.6504 3.84082C10.6504 3.83062 10.6337 3.82227 10.6133 3.82227C10.5929 3.82227 10.5762 3.81392 10.5762 3.80371C10.5762 3.79351 10.5511 3.78516 10.5205 3.78516C10.4899 3.78516 10.4648 3.77681 10.4648 3.7666C10.4648 3.7564 10.4481 3.74805 10.4277 3.74805C10.4073 3.74805 10.3906 3.7397 10.3906 3.72949C10.3906 3.71929 10.3656 3.71094 10.335 3.71094C10.3043 3.71094 10.2793 3.70259 10.2793 3.69238C10.2793 3.68218 10.2542 3.67383 10.2236 3.67383C10.193 3.67383 10.168 3.66548 10.168 3.65527C10.168 3.64507 10.1429 3.63672 10.1123 3.63672C10.0817 3.63672 10.0566 3.62837 10.0566 3.61816C10.0566 3.60796 10.0316 3.59961 10.001 3.59961C9.97036 3.59961 9.94531 3.59126 9.94531 3.58105C9.94531 3.57085 9.91191 3.5625 9.87109 3.5625C9.83027 3.5625 9.79688 3.55415 9.79688 3.54395C9.79688 3.53374 9.75513 3.52539 9.7041 3.52539C9.65308 3.52539 9.61133 3.51704 9.61133 3.50684C9.61133 3.49663 9.56958 3.48828 9.51855 3.48828C9.46753 3.48828 9.42578 3.47993 9.42578 3.46973C9.42578 3.45891 9.36394 3.45117 9.27734 3.45117C9.19075 3.45117 9.12891 3.44343 9.12891 3.43262C9.12891 3.42098 9.0114 3.41406 8.81348 3.41406C8.61555 3.41406 8.49805 3.42098 8.49805 3.43262ZM5.45508 3.95215C5.45508 3.96235 5.41333 3.9707 5.3623 3.9707C5.31128 3.9707 5.26953 3.97905 5.26953 3.98926C5.26953 3.99946 5.24448 4.00781 5.21387 4.00781C5.18325 4.00781 5.1582 4.01616 5.1582 4.02637C5.1582 4.03657 5.1415 4.04492 5.12109 4.04492C5.10068 4.04492 5.08398 4.05327 5.08398 4.06348C5.08398 4.07368 5.06912 4.08203 5.05098 4.08203C5.03281 4.08203 5.00592 4.09873 4.99121 4.11914C4.9765 4.13955 4.95145 4.15625 4.93555 4.15625C4.91965 4.15625 4.8946 4.17295 4.87988 4.19336C4.86517 4.21377 4.84162 4.23047 4.82756 4.23047C4.81351 4.23047 4.77859 4.25552 4.75 4.28613C4.72141 4.31675 4.68875 4.3418 4.67743 4.3418C4.66611 4.3418 4.55258 4.44609 4.42511 4.57354C4.29766 4.70102 4.19336 4.81455 4.19336 4.82587C4.19336 4.83719 4.16831 4.86984 4.1377 4.89844C4.10708 4.92703 4.08203 4.96379 4.08203 4.9801C4.08203 4.99642 4.07368 5.00977 4.06348 5.00977C4.05327 5.00977 4.04492 5.02646 4.04492 5.04688C4.04492 5.06729 4.03657 5.08398 4.02637 5.08398C4.01616 5.08398 4.00781 5.10068 4.00781 5.12109C4.00781 5.1415 3.99946 5.1582 3.98926 5.1582C3.97905 5.1582 3.9707 5.1749 3.9707 5.19531C3.9707 5.21572 3.96235 5.23242 3.95215 5.23242C3.94194 5.23242 3.93359 5.25747 3.93359 5.28809C3.93359 5.3187 3.92524 5.34375 3.91504 5.34375C3.90483 5.34375 3.89648 5.3688 3.89648 5.39941C3.89648 5.43003 3.88813 5.45508 3.87793 5.45508C3.86669 5.45508 3.85938 5.53548 3.85938 5.65918C3.85938 5.78288 3.86669 5.86328 3.87793 5.86328C3.88813 5.86328 3.89648 5.89668 3.89648 5.9375C3.89648 5.97832 3.90483 6.01172 3.91504 6.01172C3.92524 6.01172 3.93359 6.02842 3.93359 6.04883C3.93359 6.06924 3.94194 6.08594 3.95215 6.08594C3.96235 6.08594 3.9707 6.10264 3.9707 6.12305C3.9707 6.14346 3.97905 6.16016 3.98926 6.16016C3.99946 6.16016 4.00781 6.17686 4.00781 6.19727C4.00781 6.21768 4.01616 6.23438 4.02637 6.23438C4.03657 6.23438 4.04492 6.25942 4.04492 6.29004C4.04492 6.32065 4.05327 6.3457 4.06348 6.3457C4.07368 6.3457 4.08203 6.3624 4.08203 6.38281C4.08203 6.40322 4.09038 6.41992 4.10059 6.41992C4.11079 6.41992 4.11914 6.44497 4.11914 6.47559C4.11914 6.5062 4.12749 6.53125 4.1377 6.53125C4.1479 6.53125 4.15625 6.54795 4.15625 6.56836C4.15625 6.58877 4.1646 6.60547 4.1748 6.60547C4.18501 6.60547 4.19336 6.62217 4.19336 6.64258C4.19336 6.66299 4.20171 6.67969 4.21191 6.67969C4.22212 6.67969 4.23047 6.70474 4.23047 6.73535C4.23047 6.76597 4.23882 6.79102 4.24902 6.79102C4.25923 6.79102 4.26758 6.80771 4.26758 6.82812C4.26758 6.84854 4.27593 6.86523 4.28613 6.86523C4.29634 6.86523 4.30469 6.88193 4.30469 6.90234C4.30469 6.92275 4.31304 6.93945 4.32324 6.93945C4.33345 6.93945 4.3418 6.9645 4.3418 6.99512C4.3418 7.02573 4.35015 7.05078 4.36035 7.05078C4.37056 7.05078 4.37891 7.06748 4.37891 7.08789C4.37891 7.1083 4.38726 7.125 4.39746 7.125C4.40767 7.125 4.41602 7.1417 4.41602 7.16211C4.41602 7.18252 4.42437 7.19922 4.43457 7.19922C4.44478 7.19922 4.45312 7.21592 4.45312 7.23633C4.45312 7.25674 4.46147 7.27344 4.47168 7.27344C4.48188 7.27344 4.49023 7.29849 4.49023 7.3291C4.49023 7.35972 4.49858 7.38477 4.50879 7.38477C4.51899 7.38477 4.52734 7.40146 4.52734 7.42188C4.52734 7.44229 4.53569 7.45898 4.5459 7.45898C4.5561 7.45898 4.56445 7.47568 4.56445 7.49609C4.56445 7.5165 4.5728 7.5332 4.58301 7.5332C4.59321 7.5332 4.60156 7.5499 4.60156 7.57031C4.60156 7.59072 4.60991 7.60742 4.62012 7.60742C4.63032 7.60742 4.63867 7.62412 4.63867 7.64453C4.63867 7.66494 4.64702 7.68164 4.65723 7.68164C4.66743 7.68164 4.67578 7.69834 4.67578 7.71875C4.67578 7.73916 4.68413 7.75586 4.69434 7.75586C4.70454 7.75586 4.71289 7.77256 4.71289 7.79297C4.71289 7.81338 4.72124 7.83008 4.73145 7.83008C4.74165 7.83008 4.75 7.84678 4.75 7.86719C4.75 7.8876 4.75835 7.9043 4.76855 7.9043C4.77876 7.9043 4.78711 7.921 4.78711 7.94141C4.78711 7.96182 4.79546 7.97852 4.80566 7.97852C4.81587 7.97852 4.82422 7.99521 4.82422 8.01562C4.82422 8.03604 4.83257 8.05273 4.84277 8.05273C4.85298 8.05273 4.86133 8.06943 4.86133 8.08984C4.86133 8.11025 4.86968 8.12695 4.87988 8.12695C4.89009 8.12695 4.89844 8.14365 4.89844 8.16406C4.89844 8.18447 4.90679 8.20117 4.91699 8.20117C4.9272 8.20117 4.93555 8.21603 4.93555 8.23418C4.93555 8.25235 4.95225 8.27923 4.97266 8.29395C4.99307 8.30866 5.00977 8.33555 5.00977 8.35371C5.00977 8.37186 5.01812 8.38672 5.02832 8.38672C5.03853 8.38672 5.04688 8.40342 5.04688 8.42383C5.04688 8.44424 5.05522 8.46094 5.06543 8.46094C5.07563 8.46094 5.08398 8.47764 5.08398 8.49805C5.08398 8.51846 5.09233 8.53516 5.10254 8.53516C5.11274 8.53516 5.12109 8.55002 5.12109 8.56816C5.12109 8.58633 5.13779 8.61322 5.1582 8.62793C5.17861 8.64264 5.19531 8.66769 5.19531 8.68359C5.19531 8.6995 5.21201 8.72454 5.23242 8.73926C5.25283 8.75397 5.26953 8.78086 5.26953 8.79902C5.26953 8.81717 5.27788 8.83203 5.28809 8.83203C5.29829 8.83203 5.30664 8.84689 5.30664 8.86504C5.30664 8.8832 5.32334 8.91009 5.34375 8.9248C5.36416 8.93952 5.38086 8.96457 5.38086 8.98047C5.38086 8.99637 5.39756 9.02142 5.41797 9.03613C5.43838 9.05085 5.45508 9.0759 5.45508 9.0918C5.45508 9.1077 5.47178 9.13275 5.49219 9.14746C5.5126 9.16218 5.5293 9.18722 5.5293 9.20312C5.5293 9.21903 5.546 9.24407 5.56641 9.25879C5.58682 9.2735 5.60352 9.29855 5.60352 9.31445C5.60352 9.33035 5.62021 9.3554 5.64062 9.37012C5.66104 9.38483 5.67773 9.40838 5.67773 9.42244C5.67773 9.43649 5.70278 9.47141 5.7334 9.5C5.76401 9.52859 5.78906 9.56199 5.78906 9.57422C5.78906 9.58645 5.81411 9.61984 5.84473 9.64844C5.87534 9.67703 5.90039 9.71043 5.90039 9.72266C5.90039 9.73488 5.92544 9.76828 5.95605 9.79688C5.98667 9.82547 6.01172 9.85859 6.01172 9.87046C6.01172 9.88234 6.05347 9.93271 6.10449 9.98242C6.15552 10.0321 6.19727 10.0821 6.19727 10.0936C6.19727 10.105 6.24736 10.1635 6.30859 10.2236C6.36982 10.2837 6.41992 10.3418 6.41992 10.3526C6.41992 10.3783 7.06299 11.0215 7.08865 11.0215C7.09943 11.0215 7.16588 11.0799 7.23633 11.1514C7.30678 11.2228 7.37382 11.2812 7.38532 11.2812C7.39683 11.2812 7.43831 11.3146 7.47754 11.3555C7.51676 11.3963 7.55851 11.4297 7.57031 11.4297C7.58211 11.4297 7.62386 11.4631 7.66309 11.5039C7.70231 11.5447 7.74423 11.5781 7.75623 11.5781C7.76825 11.5781 7.80149 11.6032 7.83008 11.6338C7.85867 11.6644 7.89359 11.6895 7.90764 11.6895C7.9217 11.6895 7.94525 11.7062 7.95996 11.7266C7.97467 11.747 7.99822 11.7637 8.01229 11.7637C8.02633 11.7637 8.06125 11.7887 8.08984 11.8193C8.11844 11.85 8.15336 11.875 8.1674 11.875C8.18147 11.875 8.20501 11.8917 8.21973 11.9121C8.23444 11.9325 8.25949 11.9492 8.27539 11.9492C8.29129 11.9492 8.31634 11.9659 8.33105 11.9863C8.34577 12.0067 8.37082 12.0234 8.38672 12.0234C8.40262 12.0234 8.42767 12.0401 8.44238 12.0605C8.4571 12.081 8.48398 12.0977 8.50215 12.0977C8.52029 12.0977 8.53516 12.106 8.53516 12.1162C8.53516 12.1264 8.55002 12.1348 8.56816 12.1348C8.58633 12.1348 8.61322 12.1515 8.62793 12.1719C8.64264 12.1923 8.66769 12.209 8.68359 12.209C8.6995 12.209 8.72454 12.2257 8.73926 12.2461C8.75397 12.2665 8.78086 12.2832 8.79902 12.2832C8.81717 12.2832 8.83203 12.2916 8.83203 12.3018C8.83203 12.312 8.84689 12.3203 8.86504 12.3203C8.8832 12.3203 8.91009 12.337 8.9248 12.3574C8.93952 12.3778 8.9664 12.3945 8.98457 12.3945C9.00272 12.3945 9.01758 12.4029 9.01758 12.4131C9.01758 12.4233 9.03244 12.4316 9.05059 12.4316C9.06875 12.4316 9.09564 12.4483 9.11035 12.4688C9.12507 12.4892 9.15195 12.5059 9.17012 12.5059C9.18826 12.5059 9.20312 12.5142 9.20312 12.5244C9.20312 12.5346 9.21799 12.543 9.23613 12.543C9.2543 12.543 9.28118 12.5597 9.2959 12.5801C9.31061 12.6005 9.3375 12.6172 9.35566 12.6172C9.37381 12.6172 9.38867 12.6255 9.38867 12.6357C9.38867 12.6459 9.40537 12.6543 9.42578 12.6543C9.44619 12.6543 9.46289 12.6626 9.46289 12.6729C9.46289 12.6831 9.47959 12.6914 9.5 12.6914C9.52041 12.6914 9.53711 12.6998 9.53711 12.71C9.53711 12.7202 9.55381 12.7285 9.57422 12.7285C9.59463 12.7285 9.61133 12.7369 9.61133 12.7471C9.61133 12.7573 9.62619 12.7656 9.64434 12.7656C9.6625 12.7656 9.68939 12.7823 9.7041 12.8027C9.71882 12.8231 9.7457 12.8398 9.76387 12.8398C9.78201 12.8398 9.79688 12.8482 9.79688 12.8584C9.79688 12.8686 9.81357 12.877 9.83398 12.877C9.85439 12.877 9.87109 12.8853 9.87109 12.8955C9.87109 12.9057 9.88779 12.9141 9.9082 12.9141C9.92861 12.9141 9.94531 12.9224 9.94531 12.9326C9.94531 12.9428 9.96201 12.9512 9.98242 12.9512C10.0028 12.9512 10.0195 12.9595 10.0195 12.9697C10.0195 12.9799 10.0362 12.9883 10.0566 12.9883C10.0771 12.9883 10.0938 12.9966 10.0938 13.0068C10.0938 13.017 10.1104 13.0254 10.1309 13.0254C10.1513 13.0254 10.168 13.0337 10.168 13.0439C10.168 13.0542 10.1847 13.0625 10.2051 13.0625C10.2255 13.0625 10.2422 13.0708 10.2422 13.0811C10.2422 13.0913 10.2589 13.0996 10.2793 13.0996C10.2997 13.0996 10.3164 13.108 10.3164 13.1182C10.3164 13.1284 10.3331 13.1367 10.3535 13.1367C10.3739 13.1367 10.3906 13.1451 10.3906 13.1553C10.3906 13.1655 10.4157 13.1738 10.4463 13.1738C10.4769 13.1738 10.502 13.1822 10.502 13.1924C10.502 13.2026 10.5187 13.2109 10.5391 13.2109C10.5595 13.2109 10.5762 13.2193 10.5762 13.2295C10.5762 13.2397 10.5929 13.248 10.6133 13.248C10.6337 13.248 10.6504 13.2564 10.6504 13.2666C10.6504 13.2768 10.6754 13.2852 10.7061 13.2852C10.7367 13.2852 10.7617 13.2935 10.7617 13.3037C10.7617 13.3139 10.7784 13.3223 10.7988 13.3223C10.8192 13.3223 10.8359 13.3306 10.8359 13.3408C10.8359 13.351 10.861 13.3594 10.8916 13.3594C10.9222 13.3594 10.9473 13.3677 10.9473 13.3779C10.9473 13.3881 10.9723 13.3965 11.0029 13.3965C11.0335 13.3965 11.0586 13.4048 11.0586 13.415C11.0586 13.4252 11.0753 13.4336 11.0957 13.4336C11.1161 13.4336 11.1328 13.4419 11.1328 13.4521C11.1328 13.4624 11.1746 13.4707 11.2256 13.4707C11.2766 13.4707 11.3184 13.4791 11.3184 13.4893C11.3184 13.4996 11.3678 13.5078 11.4297 13.5078C11.4915 13.5078 11.541 13.4996 11.541 13.4893C11.541 13.4791 11.5828 13.4707 11.6338 13.4707C11.6848 13.4707 11.7266 13.4624 11.7266 13.4521C11.7266 13.4419 11.7433 13.4336 11.7637 13.4336C11.7841 13.4336 11.8008 13.4252 11.8008 13.415C11.8008 13.4048 11.8258 13.3965 11.8564 13.3965C11.8871 13.3965 11.9121 13.3881 11.9121 13.3779C11.9121 13.3677 11.927 13.3594 11.9451 13.3594C11.9633 13.3594 11.9902 13.3427 12.0049 13.3223C12.0196 13.3019 12.0446 13.2852 12.0605 13.2852C12.0764 13.2852 12.1015 13.2685 12.1162 13.248C12.1309 13.2276 12.1537 13.2109 12.1669 13.2109C12.196 13.2109 12.6543 12.7558 12.6543 12.7269C12.6543 12.7155 12.6793 12.6829 12.71 12.6543C12.7406 12.6257 12.7656 12.5908 12.7656 12.5767C12.7656 12.5627 12.7823 12.5391 12.8027 12.5244C12.8231 12.5097 12.8398 12.4847 12.8398 12.4688C12.8398 12.4528 12.8565 12.4278 12.877 12.4131C12.8974 12.3984 12.9141 12.3715 12.9141 12.3533C12.9141 12.3352 12.9224 12.3203 12.9326 12.3203C12.9428 12.3203 12.9512 12.3036 12.9512 12.2832C12.9512 12.2628 12.9595 12.2461 12.9697 12.2461C12.9799 12.2461 12.9883 12.2294 12.9883 12.209C12.9883 12.1886 12.9966 12.1719 13.0068 12.1719C13.017 12.1719 13.0254 12.1552 13.0254 12.1348C13.0254 12.1144 13.0337 12.0977 13.0439 12.0977C13.0542 12.0977 13.0625 12.0559 13.0625 12.0049C13.0625 11.9539 13.0708 11.9121 13.0811 11.9121C13.0913 11.9121 13.0996 11.8704 13.0996 11.8193C13.0996 11.7683 13.0913 11.7266 13.0811 11.7266C13.0708 11.7266 13.0625 11.6932 13.0625 11.6523C13.0625 11.6115 13.0542 11.5781 13.0439 11.5781C13.0337 11.5781 13.0254 11.5648 13.0254 11.5485C13.0254 11.5321 13.0003 11.4954 12.9697 11.4668C12.9391 11.4382 12.9141 11.4014 12.9141 11.3851C12.9141 11.3688 12.9012 11.3555 12.8855 11.3555C12.8698 11.3555 12.7825 11.2803 12.6914 11.1885C12.6003 11.0966 12.5165 11.0215 12.5051 11.0215C12.4937 11.0215 12.4523 10.9881 12.4131 10.9473C12.3739 10.9064 12.3319 10.873 12.3199 10.873C12.3079 10.873 12.2747 10.848 12.2461 10.8174C12.2175 10.7868 12.1843 10.7617 12.1722 10.7617C12.1602 10.7617 12.1183 10.7283 12.0791 10.6875C12.0399 10.6467 11.9965 10.6133 11.9826 10.6133C11.9687 10.6133 11.9454 10.5966 11.9307 10.5762C11.9159 10.5558 11.8909 10.5391 11.875 10.5391C11.8591 10.5391 11.8341 10.5224 11.8193 10.502C11.8046 10.4815 11.7796 10.4648 11.7637 10.4648C11.7478 10.4648 11.7227 10.4481 11.708 10.4277C11.6933 10.4073 11.6682 10.3906 11.6523 10.3906C11.6364 10.3906 11.6114 10.3739 11.5967 10.3535C11.582 10.3331 11.5569 10.3164 11.541 10.3164C11.5251 10.3164 11.5001 10.2997 11.4854 10.2793C11.4706 10.2589 11.4438 10.2422 11.4256 10.2422C11.4074 10.2422 11.3926 10.2338 11.3926 10.2236C11.3926 10.2134 11.3777 10.2051 11.3596 10.2051C11.3414 10.2051 11.3145 10.1884 11.2998 10.168C11.2851 10.1476 11.2582 10.1309 11.24 10.1309C11.2219 10.1309 11.207 10.1225 11.207 10.1123C11.207 10.1021 11.1903 10.0938 11.1699 10.0938C11.1495 10.0938 11.1328 10.0854 11.1328 10.0752C11.1328 10.065 11.1161 10.0566 11.0957 10.0566C11.0753 10.0566 11.0586 10.0483 11.0586 10.0381C11.0586 10.0279 11.0168 10.0195 10.9658 10.0195C10.9148 10.0195 10.873 10.0112 10.873 10.001C10.873 9.99077 10.8396 9.98242 10.7988 9.98242C10.758 9.98242 10.7246 9.99077 10.7246 10.001C10.7246 10.0112 10.6912 10.0195 10.6504 10.0195C10.6096 10.0195 10.5762 10.0279 10.5762 10.0381C10.5762 10.0483 10.5511 10.0566 10.5205 10.0566C10.4899 10.0566 10.4648 10.065 10.4648 10.0752C10.4648 10.0854 10.4521 10.0938 10.4366 10.0938C10.4042 10.0938 10.2051 10.2865 10.2051 10.3178C10.2051 10.3293 10.18 10.362 10.1494 10.3906C10.1188 10.4192 10.0938 10.4524 10.0938 10.4645C10.0938 10.4765 10.0604 10.5184 10.0195 10.5576C9.97871 10.5968 9.94531 10.6382 9.94531 10.6496C9.94531 10.6806 9.82085 10.7988 9.78821 10.7988C9.77257 10.7988 9.75977 10.8072 9.75977 10.8174C9.75977 10.8276 9.74307 10.8359 9.72266 10.8359C9.70225 10.8359 9.68555 10.8443 9.68555 10.8545C9.68555 10.8647 9.6438 10.873 9.59277 10.873C9.54175 10.873 9.5 10.8814 9.5 10.8916C9.5 10.9018 9.4833 10.9102 9.46289 10.9102C9.44248 10.9102 9.42578 10.9018 9.42578 10.8916C9.42578 10.8814 9.39238 10.873 9.35156 10.873C9.31074 10.873 9.27734 10.8647 9.27734 10.8545C9.27734 10.8443 9.25229 10.8359 9.22168 10.8359C9.19106 10.8359 9.16602 10.8276 9.16602 10.8174C9.16602 10.8072 9.14097 10.7988 9.11035 10.7988C9.07974 10.7988 9.05469 10.7905 9.05469 10.7803C9.05469 10.7701 9.03799 10.7617 9.01758 10.7617C8.99717 10.7617 8.98047 10.7534 8.98047 10.7432C8.98047 10.733 8.95542 10.7246 8.9248 10.7246C8.89419 10.7246 8.86914 10.7163 8.86914 10.7061C8.86914 10.6958 8.85244 10.6875 8.83203 10.6875C8.81162 10.6875 8.79492 10.6792 8.79492 10.6689C8.79492 10.6587 8.77822 10.6504 8.75781 10.6504C8.7374 10.6504 8.7207 10.642 8.7207 10.6318C8.7207 10.6216 8.704 10.6133 8.68359 10.6133C8.66318 10.6133 8.64648 10.6049 8.64648 10.5947C8.64648 10.5845 8.62979 10.5762 8.60938 10.5762C8.58896 10.5762 8.57227 10.5678 8.57227 10.5576C8.57227 10.5474 8.55557 10.5391 8.53516 10.5391C8.51475 10.5391 8.49805 10.5307 8.49805 10.5205C8.49805 10.5103 8.48318 10.502 8.46504 10.502C8.44687 10.502 8.41999 10.4853 8.40527 10.4648C8.39056 10.4444 8.36367 10.4277 8.34551 10.4277C8.32736 10.4277 8.3125 10.4194 8.3125 10.4092C8.3125 10.399 8.29916 10.3906 8.28283 10.3906C8.26652 10.3906 8.22976 10.3656 8.20117 10.335C8.17258 10.3043 8.13766 10.2793 8.12361 10.2793C8.10955 10.2793 8.086 10.2626 8.07129 10.2422C8.05657 10.2218 8.03333 10.2051 8.0196 10.2051C8.00588 10.2051 7.954 10.1633 7.9043 10.1123C7.85459 10.0613 7.80492 10.0195 7.79391 10.0195C7.76777 10.0195 7.45898 9.71074 7.45898 9.6846C7.45898 9.6736 7.41724 9.62393 7.36621 9.57422C7.31519 9.52451 7.27344 9.47413 7.27344 9.46226C7.27344 9.45039 7.24839 9.41726 7.21777 9.38867C7.18716 9.36008 7.16211 9.32516 7.16211 9.31111C7.16211 9.29705 7.14541 9.2735 7.125 9.25879C7.10459 9.24407 7.08789 9.22053 7.08789 9.20646C7.08789 9.19242 7.06284 9.1575 7.03223 9.12891C7.00161 9.10031 6.97656 9.06356 6.97656 9.04725C6.97656 9.03092 6.96821 9.01758 6.95801 9.01758C6.9478 9.01758 6.93945 9.00272 6.93945 8.98457C6.93945 8.9664 6.92275 8.93952 6.90234 8.9248C6.88193 8.91009 6.86523 8.8832 6.86523 8.86504C6.86523 8.84689 6.85688 8.83203 6.84668 8.83203C6.83647 8.83203 6.82812 8.81533 6.82812 8.79492C6.82812 8.77451 6.81978 8.75781 6.80957 8.75781C6.79937 8.75781 6.79102 8.74111 6.79102 8.7207C6.79102 8.70029 6.78267 8.68359 6.77246 8.68359C6.76226 8.68359 6.75391 8.66689 6.75391 8.64648C6.75391 8.62607 6.74556 8.60938 6.73535 8.60938C6.72515 8.60938 6.7168 8.59268 6.7168 8.57227C6.7168 8.55186 6.70845 8.53516 6.69824 8.53516C6.68804 8.53516 6.67969 8.51846 6.67969 8.49805C6.67969 8.47764 6.67134 8.46094 6.66113 8.46094C6.65093 8.46094 6.64258 8.44424 6.64258 8.42383C6.64258 8.40342 6.63423 8.38672 6.62402 8.38672C6.61382 8.38672 6.60547 8.37002 6.60547 8.34961C6.60547 8.3292 6.59712 8.3125 6.58691 8.3125C6.57671 8.3125 6.56836 8.2958 6.56836 8.27539C6.56836 8.25498 6.56001 8.23828 6.5498 8.23828C6.5396 8.23828 6.53125 8.21323 6.53125 8.18262C6.53125 8.152 6.5229 8.12695 6.5127 8.12695C6.50249 8.12695 6.49414 8.11025 6.49414 8.08984C6.49414 8.06943 6.48579 8.05273 6.47559 8.05273C6.46538 8.05273 6.45703 8.02769 6.45703 7.99707C6.45703 7.96645 6.44868 7.94141 6.43848 7.94141C6.42827 7.94141 6.41992 7.91636 6.41992 7.88574C6.41992 7.85513 6.41157 7.83008 6.40137 7.83008C6.39077 7.83008 6.38281 7.77441 6.38281 7.7002C6.38281 7.62598 6.39077 7.57031 6.40137 7.57031C6.41157 7.57031 6.41992 7.54526 6.41992 7.51465C6.41992 7.48403 6.42827 7.45898 6.43848 7.45898C6.44868 7.45898 6.45703 7.44229 6.45703 7.42188C6.45703 7.40146 6.46538 7.38477 6.47559 7.38477C6.48579 7.38477 6.49414 7.37202 6.49414 7.35645C6.49414 7.32424 6.64954 7.16211 6.68041 7.16211C6.69154 7.16211 6.74131 7.12036 6.79102 7.06934C6.84072 7.01831 6.89045 6.97656 6.90155 6.97656C6.93244 6.97656 7.125 6.77704 7.125 6.74504C7.125 6.72951 7.13335 6.7168 7.14355 6.7168C7.15376 6.7168 7.16211 6.7001 7.16211 6.67969C7.16211 6.65928 7.17046 6.64258 7.18066 6.64258C7.19087 6.64258 7.19922 6.61753 7.19922 6.58691C7.19922 6.5563 7.20757 6.53125 7.21777 6.53125C7.22911 6.53125 7.23633 6.44466 7.23633 6.30859C7.23633 6.17253 7.22911 6.08594 7.21777 6.08594C7.20757 6.08594 7.19922 6.06089 7.19922 6.03027C7.19922 5.99966 7.19087 5.97461 7.18066 5.97461C7.17046 5.97461 7.16211 5.95975 7.16211 5.9416C7.16211 5.92344 7.14541 5.89655 7.125 5.88184C7.10459 5.86712 7.08789 5.84024 7.08789 5.82207C7.08789 5.80392 7.07954 5.78906 7.06934 5.78906C7.05913 5.78906 7.05078 5.77236 7.05078 5.75195C7.05078 5.73154 7.04243 5.71484 7.03223 5.71484C7.02202 5.71484 7.01367 5.69998 7.01367 5.68184C7.01367 5.66367 6.99697 5.63678 6.97656 5.62207C6.95615 5.60736 6.93945 5.58047 6.93945 5.56231C6.93945 5.54416 6.9311 5.5293 6.9209 5.5293C6.91069 5.5293 6.90234 5.51443 6.90234 5.49629C6.90234 5.47812 6.88564 5.45124 6.86523 5.43652C6.84482 5.42181 6.82812 5.39492 6.82812 5.37676C6.82812 5.35861 6.81978 5.34375 6.80957 5.34375C6.79937 5.34375 6.79102 5.32889 6.79102 5.31074C6.79102 5.29258 6.77432 5.26569 6.75391 5.25098C6.7335 5.23626 6.7168 5.21121 6.7168 5.19531C6.7168 5.17941 6.7001 5.15436 6.67969 5.13965C6.65928 5.12493 6.64258 5.10139 6.64258 5.08732C6.64258 5.07328 6.61753 5.03836 6.58691 5.00977C6.5563 4.98117 6.53125 4.94625 6.53125 4.93221C6.53125 4.91814 6.51455 4.8946 6.49414 4.87988C6.47373 4.86517 6.45703 4.84181 6.45703 4.82795C6.45703 4.81409 6.42363 4.77067 6.38281 4.73145C6.34199 4.69222 6.30859 4.65047 6.30859 4.63867C6.30859 4.62687 6.2752 4.58512 6.23438 4.5459C6.19355 4.50667 6.16016 4.46493 6.16016 4.45312C6.16016 4.44132 6.12676 4.39958 6.08594 4.36035C6.04512 4.32113 6.01172 4.27986 6.01172 4.26864C6.01172 4.23754 5.81237 4.04492 5.78019 4.04492C5.76466 4.04492 5.75195 4.03657 5.75195 4.02637C5.75195 4.01616 5.73525 4.00781 5.71484 4.00781C5.69443 4.00781 5.67773 3.99946 5.67773 3.98926C5.67773 3.97905 5.63599 3.9707 5.58496 3.9707C5.53394 3.9707 5.49219 3.96235 5.49219 3.95215C5.49219 3.94194 5.48384 3.93359 5.47363 3.93359C5.46343 3.93359 5.45508 3.94194 5.45508 3.95215ZM8.94336 4.65723C8.94336 4.66743 8.93046 4.67578 8.91469 4.67578C8.89892 4.67578 8.86552 4.69628 8.84047 4.72133C8.80138 4.76041 8.79492 4.7841 8.79492 4.88832C8.79492 4.95692 8.80299 5.00977 8.81348 5.00977C8.82368 5.00977 8.83203 5.02646 8.83203 5.04688C8.83203 5.07161 8.84441 5.08398 8.86914 5.08398C8.88955 5.08398 8.90625 5.09233 8.90625 5.10254C8.90625 5.11286 8.95574 5.12109 9.01758 5.12109C9.07942 5.12109 9.12891 5.12933 9.12891 5.13965C9.12891 5.15024 9.18457 5.1582 9.25879 5.1582C9.33301 5.1582 9.38867 5.16616 9.38867 5.17676C9.38867 5.18696 9.43042 5.19531 9.48145 5.19531C9.53247 5.19531 9.57422 5.20366 9.57422 5.21387C9.57422 5.22407 9.60762 5.23242 9.64844 5.23242C9.68926 5.23242 9.72266 5.24077 9.72266 5.25098C9.72266 5.26118 9.74771 5.26953 9.77832 5.26953C9.80894 5.26953 9.83398 5.27788 9.83398 5.28809C9.83398 5.29829 9.85903 5.30664 9.88965 5.30664C9.92026 5.30664 9.94531 5.31499 9.94531 5.3252C9.94531 5.3354 9.97036 5.34375 10.001 5.34375C10.0316 5.34375 10.0566 5.3521 10.0566 5.3623C10.0566 5.37251 10.0733 5.38086 10.0938 5.38086C10.1142 5.38086 10.1309 5.38921 10.1309 5.39941C10.1309 5.40962 10.1476 5.41797 10.168 5.41797C10.1884 5.41797 10.2051 5.42632 10.2051 5.43652C10.2051 5.44673 10.2218 5.45508 10.2422 5.45508C10.2626 5.45508 10.2793 5.46343 10.2793 5.47363C10.2793 5.48384 10.296 5.49219 10.3164 5.49219C10.3368 5.49219 10.3535 5.50054 10.3535 5.51074C10.3535 5.52095 10.3684 5.5293 10.3865 5.5293C10.4047 5.5293 10.4316 5.546 10.4463 5.56641C10.461 5.58682 10.4861 5.60352 10.502 5.60352C10.5179 5.60352 10.5429 5.62021 10.5576 5.64062C10.5723 5.66104 10.5959 5.67773 10.6099 5.67773C10.624 5.67773 10.6589 5.70278 10.6875 5.7334C10.7161 5.76401 10.7488 5.78906 10.7601 5.78906C10.7871 5.78906 11.0957 6.09766 11.0957 6.12462C11.0957 6.13598 11.1208 6.16867 11.1514 6.19727C11.182 6.22586 11.207 6.26078 11.207 6.27482C11.207 6.28889 11.2237 6.31243 11.2441 6.32715C11.2646 6.34186 11.2812 6.36875 11.2812 6.38691C11.2812 6.40506 11.2896 6.41992 11.2998 6.41992C11.31 6.41992 11.3184 6.43478 11.3184 6.45293C11.3184 6.4711 11.3351 6.49798 11.3555 6.5127C11.3759 6.52741 11.3926 6.5543 11.3926 6.57246C11.3926 6.59061 11.4009 6.60547 11.4111 6.60547C11.4213 6.60547 11.4297 6.62217 11.4297 6.64258C11.4297 6.66299 11.438 6.67969 11.4482 6.67969C11.4584 6.67969 11.4668 6.70474 11.4668 6.73535C11.4668 6.76597 11.4751 6.79102 11.4854 6.79102C11.4956 6.79102 11.5039 6.80771 11.5039 6.82812C11.5039 6.84854 11.5123 6.86523 11.5225 6.86523C11.5327 6.86523 11.541 6.89028 11.541 6.9209C11.541 6.95151 11.5494 6.97656 11.5596 6.97656C11.5698 6.97656 11.5781 7.00996 11.5781 7.05078C11.5781 7.0916 11.5865 7.125 11.5967 7.125C11.6069 7.125 11.6152 7.1584 11.6152 7.19922C11.6152 7.24004 11.6236 7.27344 11.6338 7.27344C11.644 7.27344 11.6523 7.31519 11.6523 7.36621C11.6523 7.41724 11.6607 7.45898 11.6709 7.45898C11.6821 7.45898 11.6895 7.53938 11.6895 7.66309C11.6895 7.78679 11.6968 7.86719 11.708 7.86719C11.7189 7.86719 11.7266 7.93233 11.7266 8.02551C11.7266 8.18145 11.7275 8.18482 11.7909 8.24817C11.8454 8.30265 11.8681 8.3125 11.9393 8.3125C11.9856 8.3125 12.0234 8.30415 12.0234 8.29395C12.0234 8.28374 12.0366 8.27539 12.0526 8.27539C12.0901 8.27539 12.1348 8.23071 12.1348 8.19321C12.1348 8.17718 12.1431 8.16406 12.1533 8.16406C12.1649 8.16406 12.1719 8.05273 12.1719 7.86719C12.1719 7.68164 12.1649 7.57031 12.1533 7.57031C12.1427 7.57031 12.1348 7.51465 12.1348 7.44043C12.1348 7.36621 12.1268 7.31055 12.1162 7.31055C12.106 7.31055 12.0977 7.2688 12.0977 7.21777C12.0977 7.16675 12.0893 7.125 12.0791 7.125C12.0689 7.125 12.0605 7.0916 12.0605 7.05078C12.0605 7.00996 12.0522 6.97656 12.042 6.97656C12.0318 6.97656 12.0234 6.95151 12.0234 6.9209C12.0234 6.89028 12.0151 6.86523 12.0049 6.86523C11.9947 6.86523 11.9863 6.84019 11.9863 6.80957C11.9863 6.77895 11.978 6.75391 11.9678 6.75391C11.9576 6.75391 11.9492 6.72886 11.9492 6.69824C11.9492 6.66763 11.9409 6.64258 11.9307 6.64258C11.9205 6.64258 11.9121 6.62588 11.9121 6.60547C11.9121 6.58506 11.9038 6.56836 11.8936 6.56836C11.8833 6.56836 11.875 6.54331 11.875 6.5127C11.875 6.48208 11.8667 6.45703 11.8564 6.45703C11.8462 6.45703 11.8379 6.44033 11.8379 6.41992C11.8379 6.39951 11.8295 6.38281 11.8193 6.38281C11.8091 6.38281 11.8008 6.36611 11.8008 6.3457C11.8008 6.32529 11.7924 6.30859 11.7822 6.30859C11.772 6.30859 11.7637 6.29373 11.7637 6.27559C11.7637 6.25742 11.747 6.23053 11.7266 6.21582C11.7062 6.20111 11.6895 6.17606 11.6895 6.16016C11.6895 6.14425 11.6728 6.11921 11.6523 6.10449C11.6319 6.08978 11.6152 6.06473 11.6152 6.04883C11.6152 6.03293 11.5985 6.00788 11.5781 5.99316C11.5577 5.97845 11.541 5.95509 11.541 5.94123C11.541 5.92737 11.5076 5.88395 11.4668 5.84473C11.426 5.8055 11.3926 5.76429 11.3926 5.75314C11.3926 5.72646 11.0837 5.41797 11.057 5.41797C11.0457 5.41797 11.013 5.39292 10.9844 5.3623C10.9558 5.33169 10.9224 5.30664 10.9102 5.30664C10.8979 5.30664 10.8645 5.28159 10.8359 5.25098C10.8073 5.22036 10.7706 5.19531 10.7543 5.19531C10.738 5.19531 10.7246 5.18696 10.7246 5.17676C10.7246 5.16655 10.7097 5.1582 10.6916 5.1582C10.6734 5.1582 10.6466 5.1415 10.6318 5.12109C10.6171 5.10068 10.5902 5.08398 10.5721 5.08398C10.5539 5.08398 10.5391 5.07563 10.5391 5.06543C10.5391 5.05522 10.5224 5.04688 10.502 5.04688C10.4815 5.04688 10.4648 5.03853 10.4648 5.02832C10.4648 5.01812 10.4481 5.00977 10.4277 5.00977C10.4073 5.00977 10.3906 5.00142 10.3906 4.99121C10.3906 4.98101 10.3739 4.97266 10.3535 4.97266C10.3331 4.97266 10.3164 4.96431 10.3164 4.9541C10.3164 4.9439 10.2914 4.93555 10.2607 4.93555C10.2301 4.93555 10.2051 4.9272 10.2051 4.91699C10.2051 4.90679 10.1884 4.89844 10.168 4.89844C10.1476 4.89844 10.1309 4.89009 10.1309 4.87988C10.1309 4.86968 10.1058 4.86133 10.0752 4.86133C10.0446 4.86133 10.0195 4.85298 10.0195 4.84277C10.0195 4.83257 9.99448 4.82422 9.96387 4.82422C9.93325 4.82422 9.9082 4.81587 9.9082 4.80566C9.9082 4.79546 9.8748 4.78711 9.83398 4.78711C9.79316 4.78711 9.75977 4.77876 9.75977 4.76855C9.75977 4.75835 9.72637 4.75 9.68555 4.75C9.64473 4.75 9.61133 4.74165 9.61133 4.73145C9.61133 4.72124 9.56958 4.71289 9.51855 4.71289C9.46753 4.71289 9.42578 4.70454 9.42578 4.69434C9.42578 4.68352 9.36394 4.67578 9.27734 4.67578C9.19075 4.67578 9.12891 4.66804 9.12891 4.65723C9.12891 4.64702 9.08716 4.63867 9.03613 4.63867C8.98511 4.63867 8.94336 4.64702 8.94336 4.65723ZM9.27734 5.95605C9.27734 5.96626 9.26423 5.97461 9.24819 5.97461C9.2107 5.97461 9.16602 6.01929 9.16602 6.05679C9.16602 6.07282 9.15767 6.08594 9.14746 6.08594C9.13726 6.08594 9.12891 6.12769 9.12891 6.17871C9.12891 6.22974 9.13726 6.27148 9.14746 6.27148C9.15767 6.27148 9.16602 6.2846 9.16602 6.30063C9.16602 6.31668 9.17795 6.34173 9.19253 6.3563C9.2071 6.37088 9.23214 6.38281 9.24819 6.38281C9.26423 6.38281 9.27734 6.39116 9.27734 6.40137C9.27734 6.41196 9.33301 6.41992 9.40723 6.41992C9.48145 6.41992 9.53711 6.42788 9.53711 6.43848C9.53711 6.44868 9.57886 6.45703 9.62988 6.45703C9.68091 6.45703 9.72266 6.46538 9.72266 6.47559C9.72266 6.48579 9.74771 6.49414 9.77832 6.49414C9.80894 6.49414 9.83398 6.50249 9.83398 6.5127C9.83398 6.5229 9.85068 6.53125 9.87109 6.53125C9.8915 6.53125 9.9082 6.5396 9.9082 6.5498C9.9082 6.56001 9.9249 6.56836 9.94531 6.56836C9.96572 6.56836 9.98242 6.57671 9.98242 6.58691C9.98242 6.59712 9.99508 6.60547 10.0106 6.60547C10.0472 6.60547 10.3164 6.87466 10.3164 6.91132C10.3164 6.9268 10.3248 6.93945 10.335 6.93945C10.3452 6.93945 10.3535 6.95615 10.3535 6.97656C10.3535 6.99697 10.3619 7.01367 10.3721 7.01367C10.3823 7.01367 10.3906 7.03037 10.3906 7.05078C10.3906 7.07119 10.399 7.08789 10.4092 7.08789C10.4194 7.08789 10.4277 7.11294 10.4277 7.14355C10.4277 7.17417 10.4361 7.19922 10.4463 7.19922C10.4565 7.19922 10.4648 7.23262 10.4648 7.27344C10.4648 7.31426 10.4732 7.34766 10.4834 7.34766C10.4944 7.34766 10.502 7.4157 10.502 7.51465C10.502 7.6136 10.5095 7.68164 10.5205 7.68164C10.5307 7.68164 10.5391 7.70279 10.5391 7.72864C10.5391 7.75755 10.5639 7.80043 10.6034 7.83997C10.6579 7.89444 10.6806 7.9043 10.7518 7.9043C10.7981 7.9043 10.8359 7.89595 10.8359 7.88574C10.8359 7.87554 10.8491 7.86719 10.8651 7.86719C10.9026 7.86719 10.9473 7.82251 10.9473 7.78501C10.9473 7.76898 10.9556 7.75586 10.9658 7.75586C10.9766 7.75586 10.9844 7.69402 10.9844 7.60742C10.9844 7.52083 10.9766 7.45898 10.9658 7.45898C10.9555 7.45898 10.9473 7.4095 10.9473 7.34766C10.9473 7.28581 10.939 7.23633 10.9287 7.23633C10.9185 7.23633 10.9102 7.20293 10.9102 7.16211C10.9102 7.12129 10.9018 7.08789 10.8916 7.08789C10.8814 7.08789 10.873 7.05449 10.873 7.01367C10.873 6.97285 10.8647 6.93945 10.8545 6.93945C10.8443 6.93945 10.8359 6.92275 10.8359 6.90234C10.8359 6.88193 10.8276 6.86523 10.8174 6.86523C10.8072 6.86523 10.7988 6.84854 10.7988 6.82812C10.7988 6.80771 10.7905 6.79102 10.7803 6.79102C10.7701 6.79102 10.7617 6.77432 10.7617 6.75391C10.7617 6.7335 10.7534 6.7168 10.7432 6.7168C10.733 6.7168 10.7246 6.70193 10.7246 6.68379C10.7246 6.66562 10.7079 6.63874 10.6875 6.62402C10.6671 6.60931 10.6504 6.58649 10.6504 6.57329C10.6504 6.53956 10.3044 6.19727 10.2703 6.19727C10.2548 6.19727 10.2422 6.18892 10.2422 6.17871C10.2422 6.16851 10.2255 6.16016 10.2051 6.16016C10.1847 6.16016 10.168 6.15181 10.168 6.1416C10.168 6.1314 10.1513 6.12305 10.1309 6.12305C10.1104 6.12305 10.0938 6.1147 10.0938 6.10449C10.0938 6.09429 10.0771 6.08594 10.0566 6.08594C10.0362 6.08594 10.0195 6.07759 10.0195 6.06738C10.0195 6.05718 9.99448 6.04883 9.96387 6.04883C9.93325 6.04883 9.9082 6.04048 9.9082 6.03027C9.9082 6.02007 9.8748 6.01172 9.83398 6.01172C9.79316 6.01172 9.75977 6.00337 9.75977 5.99316C9.75977 5.98296 9.71802 5.97461 9.66699 5.97461C9.61597 5.97461 9.57422 5.96626 9.57422 5.95605C9.57422 5.94524 9.51238 5.9375 9.42578 5.9375C9.33919 5.9375 9.27734 5.94524 9.27734 5.95605Z" fill="white"/>
</svg>
