<svg width="20" height="19" viewBox="0 0 20 19" fill="none" xmlns="http://www.w3.org/2000/svg">
<path fill-rule="evenodd" clip-rule="evenodd" d="M9.74401 0.0197917C9.74401 0.0316667 9.66484 0.0395833 9.54609 0.0395833C9.42734 0.0395833 9.34818 0.0475 9.34818 0.059375C9.34818 0.0709135 9.28221 0.0791667 9.18984 0.0791667C9.09748 0.0791667 9.03151 0.0874198 9.03151 0.0989583C9.03151 0.109844 8.98698 0.11875 8.93255 0.11875C8.87812 0.11875 8.83359 0.127656 8.83359 0.138542C8.83359 0.149546 8.78081 0.158333 8.71484 0.158333C8.64888 0.158333 8.59609 0.167121 8.59609 0.178125C8.59609 0.18901 8.56047 0.197917 8.51693 0.197917C8.47338 0.197917 8.43776 0.206823 8.43776 0.217708C8.43776 0.228594 8.39323 0.2375 8.3388 0.2375C8.28437 0.2375 8.23984 0.246406 8.23984 0.257292C8.23984 0.268177 8.20422 0.277083 8.16068 0.277083C8.11713 0.277083 8.08151 0.28599 8.08151 0.296875C8.08151 0.30776 8.05479 0.316667 8.02213 0.316667C7.98948 0.316667 7.96276 0.325573 7.96276 0.336458C7.96276 0.347344 7.92713 0.35625 7.88359 0.35625C7.84005 0.35625 7.80443 0.365156 7.80443 0.376042C7.80443 0.386927 7.77771 0.395833 7.74505 0.395833C7.7124 0.395833 7.68568 0.40474 7.68568 0.415625C7.68568 0.42651 7.65896 0.435417 7.6263 0.435417C7.59365 0.435417 7.56693 0.444323 7.56693 0.455208C7.56693 0.466094 7.54021 0.475 7.50755 0.475C7.4749 0.475 7.44818 0.483906 7.44818 0.494792C7.44818 0.505677 7.42146 0.514583 7.3888 0.514583C7.35615 0.514583 7.32943 0.52349 7.32943 0.534375C7.32943 0.54526 7.30271 0.554167 7.27005 0.554167C7.2374 0.554167 7.21068 0.563073 7.21068 0.573958C7.21068 0.584844 7.19286 0.59375 7.17109 0.59375C7.14932 0.59375 7.13151 0.602656 7.13151 0.613542C7.13151 0.624427 7.10479 0.633333 7.07213 0.633333C7.03948 0.633333 7.01276 0.64224 7.01276 0.653125C7.01276 0.66401 6.99495 0.672917 6.97318 0.672917C6.95141 0.672917 6.93359 0.681823 6.93359 0.692708C6.93359 0.703594 6.90687 0.7125 6.87422 0.7125C6.84156 0.7125 6.81484 0.721406 6.81484 0.732292C6.81484 0.743177 6.79703 0.752083 6.77526 0.752083C6.75349 0.752083 6.73568 0.76099 6.73568 0.771875C6.73568 0.78276 6.71786 0.791667 6.69609 0.791667C6.67432 0.791667 6.65651 0.800573 6.65651 0.811458C6.65651 0.822344 6.62979 0.83125 6.59713 0.83125C6.56448 0.83125 6.53776 0.840156 6.53776 0.851042C6.53776 0.861927 6.51995 0.870833 6.49818 0.870833C6.47641 0.870833 6.45859 0.87974 6.45859 0.890625C6.45859 0.90151 6.44078 0.910417 6.41901 0.910417C6.39724 0.910417 6.37943 0.919323 6.37943 0.930208C6.37943 0.941094 6.36161 0.95 6.33984 0.95C6.31807 0.95 6.30026 0.958906 6.30026 0.969792C6.30026 0.980677 6.28245 0.989583 6.26068 0.989583C6.23891 0.989583 6.22109 0.99849 6.22109 1.00937C6.22109 1.02026 6.20328 1.02917 6.18151 1.02917C6.15974 1.02917 6.14193 1.03807 6.14193 1.04896C6.14193 1.05984 6.12411 1.06875 6.10234 1.06875C6.08057 1.06875 6.06276 1.07766 6.06276 1.08854C6.06276 1.09943 6.04691 1.10833 6.02755 1.10833C6.00817 1.10833 5.9795 1.12615 5.9638 1.14792C5.94811 1.16969 5.91943 1.1875 5.90005 1.1875C5.8807 1.1875 5.86484 1.19641 5.86484 1.20729C5.86484 1.21818 5.84703 1.22708 5.82526 1.22708C5.80349 1.22708 5.78568 1.23599 5.78568 1.24687C5.78568 1.25776 5.76982 1.26667 5.75047 1.26667C5.73109 1.26667 5.70241 1.28448 5.68672 1.30625C5.67102 1.32802 5.64234 1.34583 5.62297 1.34583C5.60361 1.34583 5.58776 1.35474 5.58776 1.36563C5.58776 1.37651 5.57191 1.38542 5.55255 1.38542C5.53317 1.38542 5.5045 1.40323 5.4888 1.425C5.47311 1.44677 5.44639 1.46458 5.42943 1.46458C5.41247 1.46458 5.38575 1.4824 5.37005 1.50417C5.35436 1.52594 5.32764 1.54375 5.31068 1.54375C5.29372 1.54375 5.267 1.56156 5.2513 1.58333C5.23561 1.6051 5.20889 1.62292 5.19193 1.62292C5.17497 1.62292 5.14825 1.64073 5.13255 1.6625C5.11686 1.68427 5.09174 1.70208 5.07674 1.70208C5.06176 1.70208 5.02451 1.7288 4.99401 1.76146C4.96351 1.79411 4.92626 1.82083 4.91128 1.82083C4.89628 1.82083 4.87116 1.83865 4.85547 1.86042C4.83977 1.88219 4.81486 1.9 4.80007 1.9C4.78529 1.9 4.73897 1.93562 4.69713 1.97917C4.6553 2.02271 4.61088 2.05833 4.59843 2.05833C4.586 2.05833 4.53245 2.10286 4.47943 2.15729C4.4264 2.21172 4.37326 2.25625 4.36133 2.25625C4.3494 2.25625 4.24222 2.35422 4.12318 2.47396C4.00413 2.5937 3.89714 2.69167 3.8854 2.69167C3.85773 2.69167 3.76693 2.78247 3.76693 2.81014C3.76693 2.82188 3.66896 2.92887 3.54922 3.04792C3.42948 3.16696 3.33151 3.27414 3.33151 3.28607C3.33151 3.298 3.28698 3.35114 3.23255 3.40417C3.17812 3.45719 3.13359 3.51074 3.13359 3.52317C3.13359 3.53562 3.09797 3.58004 3.05443 3.62188C3.01089 3.66371 2.97526 3.71003 2.97526 3.72481C2.97526 3.7396 2.95745 3.76451 2.93568 3.78021C2.91391 3.7959 2.89609 3.82102 2.89609 3.83602C2.89609 3.851 2.86937 3.88825 2.83672 3.91875C2.80406 3.94925 2.77734 3.9865 2.77734 4.00148C2.77734 4.01648 2.75953 4.0416 2.73776 4.05729C2.71599 4.07299 2.69818 4.09971 2.69818 4.11667C2.69818 4.13363 2.68036 4.16035 2.65859 4.17604C2.63682 4.19174 2.61901 4.21846 2.61901 4.23542C2.61901 4.25238 2.6012 4.2791 2.57943 4.29479C2.55766 4.31049 2.53984 4.3372 2.53984 4.35417C2.53984 4.37113 2.52203 4.39785 2.50026 4.41354C2.47849 4.42924 2.46068 4.45791 2.46068 4.47729C2.46068 4.49665 2.45177 4.5125 2.44089 4.5125C2.43 4.5125 2.42109 4.52835 2.42109 4.54771C2.42109 4.56709 2.40328 4.59576 2.38151 4.61146C2.35974 4.62715 2.34193 4.65583 2.34193 4.67521C2.34193 4.69456 2.33302 4.71042 2.32214 4.71042C2.31125 4.71042 2.30234 4.72627 2.30234 4.74563C2.30234 4.765 2.28453 4.79368 2.26276 4.80937C2.24099 4.82507 2.22318 4.85375 2.22318 4.87312C2.22318 4.89248 2.21427 4.90833 2.20339 4.90833C2.1925 4.90833 2.18359 4.92615 2.18359 4.94792C2.18359 4.96969 2.17469 4.9875 2.1638 4.9875C2.15292 4.9875 2.14401 5.00531 2.14401 5.02708C2.14401 5.04885 2.1351 5.06667 2.12422 5.06667C2.11333 5.06667 2.10443 5.08448 2.10443 5.10625C2.10443 5.12802 2.09552 5.14583 2.08464 5.14583C2.07375 5.14583 2.06484 5.16365 2.06484 5.18542C2.06484 5.20719 2.05594 5.225 2.04505 5.225C2.03417 5.225 2.02526 5.24281 2.02526 5.26458C2.02526 5.28635 2.01635 5.30417 2.00547 5.30417C1.99458 5.30417 1.98568 5.32198 1.98568 5.34375C1.98568 5.36552 1.97677 5.38333 1.96589 5.38333C1.955 5.38333 1.94609 5.40115 1.94609 5.42292C1.94609 5.44469 1.93719 5.4625 1.9263 5.4625C1.91542 5.4625 1.90651 5.48922 1.90651 5.52187C1.90651 5.55453 1.8976 5.58125 1.88672 5.58125C1.87583 5.58125 1.86693 5.59906 1.86693 5.62083C1.86693 5.6426 1.85802 5.66042 1.84714 5.66042C1.83625 5.66042 1.82734 5.67823 1.82734 5.7C1.82734 5.72177 1.81844 5.73958 1.80755 5.73958C1.79667 5.73958 1.78776 5.7574 1.78776 5.77917C1.78776 5.80094 1.77885 5.81875 1.76797 5.81875C1.75708 5.81875 1.74818 5.84547 1.74818 5.87812C1.74818 5.91078 1.73927 5.9375 1.72839 5.9375C1.7175 5.9375 1.70859 5.95531 1.70859 5.97708C1.70859 5.99885 1.69969 6.01667 1.6888 6.01667C1.67792 6.01667 1.66901 6.04339 1.66901 6.07604C1.66901 6.1087 1.6601 6.13542 1.64922 6.13542C1.63833 6.13542 1.62943 6.16214 1.62943 6.19479C1.62943 6.22745 1.62052 6.25417 1.60964 6.25417C1.59875 6.25417 1.58984 6.28089 1.58984 6.31354C1.58984 6.3462 1.58094 6.37292 1.57005 6.37292C1.55917 6.37292 1.55026 6.39964 1.55026 6.43229C1.55026 6.46495 1.54135 6.49167 1.53047 6.49167C1.51958 6.49167 1.51068 6.51839 1.51068 6.55104C1.51068 6.5837 1.50177 6.61042 1.49089 6.61042C1.48 6.61042 1.47109 6.63714 1.47109 6.66979C1.47109 6.70245 1.46219 6.72917 1.4513 6.72917C1.44042 6.72917 1.43151 6.76479 1.43151 6.80833C1.43151 6.85187 1.4226 6.8875 1.41172 6.8875C1.40083 6.8875 1.39193 6.91422 1.39193 6.94688C1.39193 6.97953 1.38302 7.00625 1.37214 7.00625C1.36125 7.00625 1.35234 7.04187 1.35234 7.08542C1.35234 7.12896 1.34344 7.16458 1.33255 7.16458C1.32167 7.16458 1.31276 7.20911 1.31276 7.26354C1.31276 7.31797 1.30385 7.3625 1.29297 7.3625C1.28208 7.3625 1.27318 7.39812 1.27318 7.44167C1.27318 7.48521 1.26427 7.52083 1.25339 7.52083C1.2425 7.52083 1.23359 7.56536 1.23359 7.61979C1.23359 7.67422 1.22469 7.71875 1.2138 7.71875C1.2028 7.71875 1.19401 7.77153 1.19401 7.8375C1.19401 7.90347 1.18522 7.95625 1.17422 7.95625C1.16292 7.95625 1.15443 8.01562 1.15443 8.09479C1.15443 8.17396 1.14594 8.23333 1.13464 8.23333C1.12276 8.23333 1.11484 8.3125 1.11484 8.43125C1.11484 8.55 1.10693 8.62917 1.09505 8.62917C1.08219 8.62917 1.07526 8.89966 1.07526 9.40104C1.07526 9.90242 1.08219 10.1729 1.09505 10.1729C1.10693 10.1729 1.11484 10.2521 1.11484 10.3708C1.11484 10.4896 1.12276 10.5687 1.13464 10.5687C1.14594 10.5687 1.15443 10.6281 1.15443 10.7073C1.15443 10.7865 1.16292 10.8458 1.17422 10.8458C1.18522 10.8458 1.19401 10.8986 1.19401 10.9646C1.19401 11.0305 1.2028 11.0833 1.2138 11.0833C1.22469 11.0833 1.23359 11.1279 1.23359 11.1823C1.23359 11.2367 1.2425 11.2812 1.25339 11.2812C1.26427 11.2812 1.27318 11.3258 1.27318 11.3802C1.27318 11.4346 1.28208 11.4792 1.29297 11.4792C1.30385 11.4792 1.31276 11.5148 1.31276 11.5583C1.31276 11.6019 1.32167 11.6375 1.33255 11.6375C1.34344 11.6375 1.35234 11.6731 1.35234 11.7167C1.35234 11.7602 1.36125 11.7958 1.37214 11.7958C1.38302 11.7958 1.39193 11.8315 1.39193 11.875C1.39193 11.9185 1.40083 11.9542 1.41172 11.9542C1.4226 11.9542 1.43151 11.9809 1.43151 12.0135C1.43151 12.0462 1.44042 12.0729 1.4513 12.0729C1.46219 12.0729 1.47109 12.1085 1.47109 12.1521C1.47109 12.1956 1.48 12.2312 1.49089 12.2312C1.50177 12.2312 1.51068 12.258 1.51068 12.2906C1.51068 12.3233 1.51958 12.35 1.53047 12.35C1.54135 12.35 1.55026 12.3767 1.55026 12.4094C1.55026 12.442 1.55917 12.4688 1.57005 12.4688C1.58094 12.4688 1.58984 12.4955 1.58984 12.5281C1.58984 12.5608 1.59875 12.5875 1.60964 12.5875C1.62052 12.5875 1.62943 12.6053 1.62943 12.6271C1.62943 12.6489 1.63833 12.6667 1.64922 12.6667C1.6601 12.6667 1.66901 12.6934 1.66901 12.726C1.66901 12.7587 1.67792 12.7854 1.6888 12.7854C1.69969 12.7854 1.70859 12.8121 1.70859 12.8448C1.70859 12.8774 1.7175 12.9042 1.72839 12.9042C1.73927 12.9042 1.74818 12.922 1.74818 12.9437C1.74818 12.9655 1.75708 12.9833 1.76797 12.9833C1.77885 12.9833 1.78776 13.0011 1.78776 13.0229C1.78776 13.0447 1.79667 13.0625 1.80755 13.0625C1.81844 13.0625 1.82734 13.0892 1.82734 13.1219C1.82734 13.1545 1.83625 13.1812 1.84714 13.1812C1.85802 13.1812 1.86693 13.1991 1.86693 13.2208C1.86693 13.2426 1.87583 13.2604 1.88672 13.2604C1.8976 13.2604 1.90651 13.2782 1.90651 13.3C1.90651 13.3218 1.91542 13.3396 1.9263 13.3396C1.93719 13.3396 1.94609 13.3574 1.94609 13.3792C1.94609 13.4009 1.955 13.4187 1.96589 13.4187C1.97677 13.4187 1.98568 13.4455 1.98568 13.4781C1.98568 13.5108 1.99458 13.5375 2.00547 13.5375C2.01635 13.5375 2.02526 13.5553 2.02526 13.5771C2.02526 13.5989 2.03417 13.6167 2.04505 13.6167C2.05594 13.6167 2.06484 13.6325 2.06484 13.6519C2.06484 13.6713 2.08266 13.6999 2.10443 13.7156C2.1262 13.7313 2.14401 13.76 2.14401 13.7794C2.14401 13.7987 2.15292 13.8146 2.1638 13.8146C2.17469 13.8146 2.18359 13.8324 2.18359 13.8542C2.18359 13.8759 2.1925 13.8938 2.20339 13.8938C2.21427 13.8938 2.22318 13.9116 2.22318 13.9333C2.22318 13.9551 2.23208 13.9729 2.24297 13.9729C2.25385 13.9729 2.26276 13.9907 2.26276 14.0125C2.26276 14.0343 2.27167 14.0521 2.28255 14.0521C2.29344 14.0521 2.30234 14.0966 2.30234 14.151C2.30234 14.2055 2.29344 14.25 2.28255 14.25C2.27167 14.25 2.26276 14.2856 2.26276 14.3292C2.26276 14.3727 2.25385 14.4083 2.24297 14.4083C2.23208 14.4083 2.22318 14.4351 2.22318 14.4677C2.22318 14.5004 2.21427 14.5271 2.20339 14.5271C2.1925 14.5271 2.18359 14.5627 2.18359 14.6062C2.18359 14.6498 2.17469 14.6854 2.1638 14.6854C2.15292 14.6854 2.14401 14.721 2.14401 14.7646C2.14401 14.8081 2.1351 14.8438 2.12422 14.8438C2.11333 14.8438 2.10443 14.8705 2.10443 14.9031C2.10443 14.9358 2.09552 14.9625 2.08464 14.9625C2.07375 14.9625 2.06484 14.9981 2.06484 15.0417C2.06484 15.0852 2.05594 15.1208 2.04505 15.1208C2.03417 15.1208 2.02526 15.1476 2.02526 15.1802C2.02526 15.2129 2.01635 15.2396 2.00547 15.2396C1.99458 15.2396 1.98568 15.2752 1.98568 15.3187C1.98568 15.3623 1.97677 15.3979 1.96589 15.3979C1.955 15.3979 1.94609 15.4335 1.94609 15.4771C1.94609 15.5206 1.93719 15.5562 1.9263 15.5562C1.91542 15.5562 1.90651 15.583 1.90651 15.6156C1.90651 15.6483 1.8976 15.675 1.88672 15.675C1.87583 15.675 1.86693 15.7106 1.86693 15.7542C1.86693 15.7977 1.85802 15.8333 1.84714 15.8333C1.83625 15.8333 1.82734 15.869 1.82734 15.9125C1.82734 15.956 1.81844 15.9917 1.80755 15.9917C1.79667 15.9917 1.78776 16.0184 1.78776 16.051C1.78776 16.0837 1.77885 16.1104 1.76797 16.1104C1.75708 16.1104 1.74818 16.146 1.74818 16.1896C1.74818 16.2331 1.73927 16.2687 1.72839 16.2687C1.7175 16.2687 1.70859 16.3044 1.70859 16.3479C1.70859 16.3915 1.69969 16.4271 1.6888 16.4271C1.67792 16.4271 1.66901 16.4538 1.66901 16.4865C1.66901 16.5191 1.6601 16.5458 1.64922 16.5458C1.63833 16.5458 1.62943 16.5815 1.62943 16.625C1.62943 16.6685 1.62052 16.7042 1.60964 16.7042C1.59875 16.7042 1.58984 16.7398 1.58984 16.7833C1.58984 16.8269 1.58094 16.8625 1.57005 16.8625C1.55917 16.8625 1.55026 16.8892 1.55026 16.9219C1.55026 16.9545 1.54135 16.9812 1.53047 16.9812C1.51958 16.9812 1.51068 17.0169 1.51068 17.0604C1.51068 17.104 1.50177 17.1396 1.49089 17.1396C1.48 17.1396 1.47109 17.1752 1.47109 17.2188C1.47109 17.2623 1.46219 17.2979 1.4513 17.2979C1.44042 17.2979 1.43151 17.3246 1.43151 17.3573C1.43151 17.3899 1.4226 17.4167 1.41172 17.4167C1.40083 17.4167 1.39193 17.4523 1.39193 17.4958C1.39193 17.5394 1.38302 17.575 1.37214 17.575C1.36125 17.575 1.35234 17.6106 1.35234 17.6542C1.35234 17.6977 1.34344 17.7333 1.33255 17.7333C1.32167 17.7333 1.31276 17.7601 1.31276 17.7927C1.31276 17.8254 1.30385 17.8521 1.29297 17.8521C1.28208 17.8521 1.27318 17.8877 1.27318 17.9312C1.27318 17.9748 1.26427 18.0104 1.25339 18.0104C1.2425 18.0104 1.23359 18.046 1.23359 18.0896C1.23359 18.1331 1.22469 18.1687 1.2138 18.1687C1.20292 18.1687 1.19401 18.1955 1.19401 18.2281C1.19401 18.2608 1.1851 18.2875 1.17422 18.2875C1.16333 18.2875 1.15443 18.3231 1.15443 18.3667C1.15443 18.4102 1.14552 18.4458 1.13464 18.4458C1.12375 18.4458 1.11484 18.4726 1.11484 18.5052C1.11484 18.5379 1.10594 18.5646 1.09505 18.5646C1.08417 18.5646 1.07526 18.6002 1.07526 18.6437C1.07526 18.6873 1.06635 18.7229 1.05547 18.7229C1.04458 18.7229 1.03568 18.7585 1.03568 18.8021C1.03568 18.8456 1.02677 18.8813 1.01589 18.8813C1.005 18.8813 0.996094 18.908 0.996094 18.9406C0.996094 18.9733 1.005 19 1.01589 19C1.02677 19 1.03568 18.9911 1.03568 18.9802C1.03568 18.9693 1.0713 18.9604 1.11484 18.9604C1.15839 18.9604 1.19401 18.9515 1.19401 18.9406C1.19401 18.9297 1.22073 18.9208 1.25339 18.9208C1.28604 18.9208 1.31276 18.9119 1.31276 18.901C1.31276 18.8902 1.34839 18.8813 1.39193 18.8813C1.43547 18.8813 1.47109 18.8723 1.47109 18.8615C1.47109 18.8506 1.50672 18.8417 1.55026 18.8417C1.5938 18.8417 1.62943 18.8328 1.62943 18.8219C1.62943 18.811 1.66505 18.8021 1.70859 18.8021C1.75214 18.8021 1.78776 18.7932 1.78776 18.7823C1.78776 18.7714 1.82339 18.7625 1.86693 18.7625C1.91047 18.7625 1.94609 18.7536 1.94609 18.7427C1.94609 18.7318 1.97281 18.7229 2.00547 18.7229C2.03812 18.7229 2.06484 18.714 2.06484 18.7031C2.06484 18.6922 2.10047 18.6833 2.14401 18.6833C2.18755 18.6833 2.22318 18.6744 2.22318 18.6635C2.22318 18.6527 2.2588 18.6437 2.30234 18.6437C2.34589 18.6437 2.38151 18.6348 2.38151 18.624C2.38151 18.6131 2.41714 18.6042 2.46068 18.6042C2.50422 18.6042 2.53984 18.5953 2.53984 18.5844C2.53984 18.5735 2.57547 18.5646 2.61901 18.5646C2.66255 18.5646 2.69818 18.5557 2.69818 18.5448C2.69818 18.5339 2.7338 18.525 2.77734 18.525C2.82089 18.525 2.85651 18.5161 2.85651 18.5052C2.85651 18.4943 2.88323 18.4854 2.91589 18.4854C2.94854 18.4854 2.97526 18.4765 2.97526 18.4656C2.97526 18.4547 3.01089 18.4458 3.05443 18.4458C3.09797 18.4458 3.13359 18.4369 3.13359 18.426C3.13359 18.4152 3.16922 18.4062 3.21276 18.4062C3.2563 18.4062 3.29193 18.3973 3.29193 18.3865C3.29193 18.3756 3.32755 18.3667 3.37109 18.3667C3.41464 18.3667 3.45026 18.3578 3.45026 18.3469C3.45026 18.336 3.48589 18.3271 3.52943 18.3271C3.57297 18.3271 3.60859 18.3182 3.60859 18.3073C3.60859 18.2964 3.63531 18.2875 3.66797 18.2875C3.70062 18.2875 3.72734 18.2786 3.72734 18.2677C3.72734 18.2568 3.76297 18.2479 3.80651 18.2479C3.85005 18.2479 3.88568 18.239 3.88568 18.2281C3.88568 18.2172 3.9213 18.2083 3.96484 18.2083C4.00839 18.2083 4.04401 18.1994 4.04401 18.1885C4.04401 18.1777 4.07964 18.1687 4.12318 18.1687C4.16672 18.1687 4.20234 18.1598 4.20234 18.149C4.20234 18.1381 4.23797 18.1292 4.28151 18.1292C4.32505 18.1292 4.36068 18.1203 4.36068 18.1094C4.36068 18.0985 4.3874 18.0896 4.42005 18.0896C4.45271 18.0896 4.47943 18.0807 4.47943 18.0698C4.47943 18.0589 4.51505 18.05 4.55859 18.05C4.60213 18.05 4.63776 18.0411 4.63776 18.0302C4.63776 18.0193 4.67338 18.0104 4.71693 18.0104C4.76047 18.0104 4.79609 18.0015 4.79609 17.9906C4.79609 17.9797 4.83172 17.9708 4.87526 17.9708C4.9188 17.9708 4.95443 17.9619 4.95443 17.951C4.95443 17.9402 4.99005 17.9312 5.03359 17.9312C5.07714 17.9312 5.11276 17.9223 5.11276 17.9115C5.11276 17.9006 5.14839 17.8917 5.19193 17.8917C5.23547 17.8917 5.27109 17.8828 5.27109 17.8719C5.27109 17.861 5.29781 17.8521 5.33047 17.8521C5.36312 17.8521 5.38984 17.8432 5.38984 17.8323C5.38984 17.8214 5.42547 17.8125 5.46901 17.8125C5.51255 17.8125 5.54818 17.8036 5.54818 17.7927C5.54818 17.7818 5.5838 17.7729 5.62734 17.7729C5.67089 17.7729 5.70651 17.764 5.70651 17.7531C5.70651 17.7422 5.74214 17.7333 5.78568 17.7333C5.82922 17.7333 5.86484 17.7244 5.86484 17.7135C5.86484 17.7027 5.90047 17.6938 5.94401 17.6938C5.98755 17.6938 6.02318 17.7027 6.02318 17.7135C6.02318 17.7244 6.04099 17.7333 6.06276 17.7333C6.08453 17.7333 6.10234 17.7422 6.10234 17.7531C6.10234 17.764 6.12016 17.7729 6.14193 17.7729C6.1637 17.7729 6.18151 17.7818 6.18151 17.7927C6.18151 17.8036 6.19932 17.8125 6.22109 17.8125C6.24286 17.8125 6.26068 17.8214 6.26068 17.8323C6.26068 17.8432 6.27849 17.8521 6.30026 17.8521C6.32203 17.8521 6.33984 17.861 6.33984 17.8719C6.33984 17.8828 6.35766 17.8917 6.37943 17.8917C6.4012 17.8917 6.41901 17.9006 6.41901 17.9115C6.41901 17.9223 6.43682 17.9312 6.45859 17.9312C6.48036 17.9312 6.49818 17.9402 6.49818 17.951C6.49818 17.9619 6.5249 17.9708 6.55755 17.9708C6.59021 17.9708 6.61693 17.9797 6.61693 17.9906C6.61693 18.0015 6.63474 18.0104 6.65651 18.0104C6.67828 18.0104 6.69609 18.0193 6.69609 18.0302C6.69609 18.0411 6.71391 18.05 6.73568 18.05C6.75745 18.05 6.77526 18.0589 6.77526 18.0698C6.77526 18.0807 6.80198 18.0896 6.83463 18.0896C6.86729 18.0896 6.89401 18.0985 6.89401 18.1094C6.89401 18.1203 6.91182 18.1292 6.93359 18.1292C6.95536 18.1292 6.97318 18.1381 6.97318 18.149C6.97318 18.1598 6.99099 18.1687 7.01276 18.1687C7.03453 18.1687 7.05234 18.1777 7.05234 18.1885C7.05234 18.1994 7.07906 18.2083 7.11172 18.2083C7.14437 18.2083 7.17109 18.2172 7.17109 18.2281C7.17109 18.239 7.19781 18.2479 7.23047 18.2479C7.26312 18.2479 7.28984 18.2568 7.28984 18.2677C7.28984 18.2786 7.31656 18.2875 7.34922 18.2875C7.38187 18.2875 7.40859 18.2964 7.40859 18.3073C7.40859 18.3182 7.43531 18.3271 7.46797 18.3271C7.50062 18.3271 7.52734 18.336 7.52734 18.3469C7.52734 18.3578 7.55406 18.3667 7.58672 18.3667C7.61937 18.3667 7.64609 18.3756 7.64609 18.3865C7.64609 18.3973 7.67281 18.4062 7.70547 18.4062C7.73812 18.4062 7.76484 18.4152 7.76484 18.426C7.76484 18.4369 7.79156 18.4458 7.82422 18.4458C7.85687 18.4458 7.88359 18.4547 7.88359 18.4656C7.88359 18.4765 7.91922 18.4854 7.96276 18.4854C8.0063 18.4854 8.04193 18.4943 8.04193 18.5052C8.04193 18.5161 8.07755 18.525 8.12109 18.525C8.16463 18.525 8.20026 18.5339 8.20026 18.5448C8.20026 18.5557 8.23588 18.5646 8.27943 18.5646C8.32297 18.5646 8.35859 18.5735 8.35859 18.5844C8.35859 18.5953 8.40312 18.6042 8.45755 18.6042C8.51198 18.6042 8.55651 18.6131 8.55651 18.624C8.55651 18.6348 8.59213 18.6437 8.63568 18.6437C8.67922 18.6437 8.71484 18.6527 8.71484 18.6635C8.71484 18.6745 8.76763 18.6833 8.83359 18.6833C8.89956 18.6833 8.95234 18.6921 8.95234 18.7031C8.95234 18.7144 9.01172 18.7229 9.09088 18.7229C9.17005 18.7229 9.22943 18.7314 9.22943 18.7427C9.22943 18.7544 9.302 18.7625 9.40755 18.7625C9.5131 18.7625 9.58568 18.7706 9.58568 18.7823C9.58568 18.7946 9.69784 18.8021 9.88255 18.8021C10.0673 18.8021 10.1794 18.8096 10.1794 18.8219C10.1794 18.8342 10.2916 18.8417 10.4763 18.8417C10.661 18.8417 10.7732 18.8342 10.7732 18.8219C10.7732 18.8095 10.8919 18.8021 11.0898 18.8021C11.2878 18.8021 11.4065 18.7947 11.4065 18.7823C11.4065 18.7708 11.4725 18.7625 11.5648 18.7625C11.6572 18.7625 11.7232 18.7542 11.7232 18.7427C11.7232 18.7314 11.7826 18.7229 11.8617 18.7229C11.9409 18.7229 12.0003 18.7144 12.0003 18.7031C12.0003 18.6921 12.053 18.6833 12.119 18.6833C12.185 18.6833 12.2378 18.6745 12.2378 18.6635C12.2378 18.6527 12.2823 18.6437 12.3367 18.6437C12.3911 18.6437 12.4357 18.6348 12.4357 18.624C12.4357 18.6131 12.4713 18.6042 12.5148 18.6042C12.5584 18.6042 12.594 18.5953 12.594 18.5844C12.594 18.5735 12.6296 18.5646 12.6732 18.5646C12.7167 18.5646 12.7523 18.5557 12.7523 18.5448C12.7523 18.5339 12.788 18.525 12.8315 18.525C12.8751 18.525 12.9107 18.5161 12.9107 18.5052C12.9107 18.4943 12.9463 18.4854 12.9898 18.4854C13.0334 18.4854 13.069 18.4765 13.069 18.4656C13.069 18.4547 13.0957 18.4458 13.1284 18.4458C13.161 18.4458 13.1878 18.4369 13.1878 18.426C13.1878 18.4152 13.2145 18.4062 13.2471 18.4062C13.2798 18.4062 13.3065 18.3973 13.3065 18.3865C13.3065 18.3756 13.3332 18.3667 13.3659 18.3667C13.3985 18.3667 13.4253 18.3578 13.4253 18.3469C13.4253 18.336 13.452 18.3271 13.4846 18.3271C13.5173 18.3271 13.544 18.3182 13.544 18.3073C13.544 18.2964 13.5707 18.2875 13.6034 18.2875C13.636 18.2875 13.6628 18.2786 13.6628 18.2677C13.6628 18.2568 13.6895 18.2479 13.7221 18.2479C13.7548 18.2479 13.7815 18.239 13.7815 18.2281C13.7815 18.2172 13.7993 18.2083 13.8211 18.2083C13.8429 18.2083 13.8607 18.1994 13.8607 18.1885C13.8607 18.1777 13.8874 18.1687 13.9201 18.1687C13.9527 18.1687 13.9794 18.1598 13.9794 18.149C13.9794 18.1381 14.0061 18.1292 14.0388 18.1292C14.0715 18.1292 14.0982 18.1203 14.0982 18.1094C14.0982 18.0985 14.116 18.0896 14.1378 18.0896C14.1595 18.0896 14.1773 18.0807 14.1773 18.0698C14.1773 18.0589 14.1952 18.05 14.2169 18.05C14.2387 18.05 14.2565 18.0411 14.2565 18.0302C14.2565 18.0193 14.2743 18.0104 14.2961 18.0104C14.3179 18.0104 14.3357 18.0015 14.3357 17.9906C14.3357 17.9797 14.3535 17.9708 14.3753 17.9708C14.397 17.9708 14.4148 17.9619 14.4148 17.951C14.4148 17.9402 14.4416 17.9312 14.4742 17.9312C14.5069 17.9312 14.5336 17.9223 14.5336 17.9115C14.5336 17.9006 14.5514 17.8917 14.5732 17.8917C14.5949 17.8917 14.6128 17.8828 14.6128 17.8719C14.6128 17.861 14.6306 17.8521 14.6523 17.8521C14.6741 17.8521 14.6919 17.8432 14.6919 17.8323C14.6919 17.8214 14.7097 17.8125 14.7315 17.8125C14.7533 17.8125 14.7711 17.8036 14.7711 17.7927C14.7711 17.7818 14.7889 17.7729 14.8107 17.7729C14.8324 17.7729 14.8503 17.764 14.8503 17.7531C14.8503 17.7422 14.8661 17.7333 14.8855 17.7333C14.9048 17.7333 14.9335 17.7155 14.9492 17.6938C14.9649 17.672 14.9936 17.6542 15.013 17.6542C15.0323 17.6542 15.0482 17.6453 15.0482 17.6344C15.0482 17.6235 15.066 17.6146 15.0878 17.6146C15.1095 17.6146 15.1273 17.6057 15.1273 17.5948C15.1273 17.5839 15.1432 17.575 15.1626 17.575C15.1819 17.575 15.2106 17.5572 15.2263 17.5354C15.242 17.5136 15.2707 17.4958 15.29 17.4958C15.3094 17.4958 15.3253 17.4869 15.3253 17.476C15.3253 17.4652 15.3411 17.4562 15.3605 17.4562C15.3798 17.4562 15.4085 17.4384 15.4242 17.4167C15.4399 17.3949 15.4666 17.3771 15.4836 17.3771C15.5006 17.3771 15.5273 17.3593 15.543 17.3375C15.5587 17.3157 15.5873 17.2979 15.6067 17.2979C15.6261 17.2979 15.6419 17.289 15.6419 17.2781C15.6419 17.2672 15.6562 17.2583 15.6736 17.2583C15.691 17.2583 15.7302 17.2316 15.7607 17.199C15.7912 17.1663 15.8284 17.1396 15.8434 17.1396C15.8584 17.1396 15.8835 17.1218 15.8992 17.1C15.9149 17.0782 15.94 17.0604 15.955 17.0604C15.97 17.0604 16.0073 17.0337 16.0378 17.001C16.0683 16.9684 16.1039 16.9417 16.1169 16.9417C16.13 16.9417 16.1656 16.9149 16.1961 16.8823C16.2266 16.8496 16.262 16.8229 16.2749 16.8229C16.2877 16.8229 16.3324 16.7873 16.3742 16.7437C16.4161 16.7002 16.4603 16.6646 16.4726 16.6646C16.4849 16.6646 16.5564 16.6022 16.6315 16.526C16.7067 16.4498 16.7776 16.3875 16.789 16.3875C16.8163 16.3875 17.4628 15.7411 17.4628 15.7138C17.4628 15.7023 17.5251 15.6314 17.6013 15.5562C17.6775 15.4811 17.7398 15.4094 17.7398 15.3969C17.7398 15.3844 17.7666 15.3492 17.7992 15.3187C17.8319 15.2883 17.8586 15.2528 17.8586 15.24C17.8586 15.2272 17.8942 15.1825 17.9378 15.1406C17.9813 15.0988 18.0169 15.0541 18.0169 15.0413C18.0169 15.0284 18.0436 14.993 18.0763 14.9625C18.109 14.932 18.1357 14.8948 18.1357 14.8798C18.1357 14.8648 18.1535 14.8397 18.1753 14.824C18.197 14.8083 18.2148 14.7815 18.2148 14.7646C18.2148 14.7476 18.2327 14.7209 18.2544 14.7052C18.2762 14.6895 18.294 14.6628 18.294 14.6458C18.294 14.6289 18.3118 14.6022 18.3336 14.5865C18.3554 14.5708 18.3732 14.544 18.3732 14.5271C18.3732 14.5101 18.391 14.4834 18.4128 14.4677C18.4345 14.452 18.4523 14.4253 18.4523 14.4083C18.4523 14.3914 18.4702 14.3647 18.4919 14.349C18.5137 14.3333 18.5315 14.3046 18.5315 14.2852C18.5315 14.2659 18.5404 14.25 18.5513 14.25C18.5622 14.25 18.5711 14.2322 18.5711 14.2104C18.5711 14.1886 18.58 14.1708 18.5909 14.1708C18.6018 14.1708 18.6107 14.155 18.6107 14.1356C18.6107 14.1162 18.6285 14.0876 18.6503 14.0719C18.672 14.0562 18.6898 14.0275 18.6898 14.0081C18.6898 13.9888 18.6987 13.9729 18.7096 13.9729C18.7205 13.9729 18.7294 13.9551 18.7294 13.9333C18.7294 13.9116 18.7383 13.8938 18.7492 13.8938C18.7601 13.8938 18.769 13.8759 18.769 13.8542C18.769 13.8324 18.7779 13.8146 18.7888 13.8146C18.7997 13.8146 18.8086 13.7968 18.8086 13.775C18.8086 13.7532 18.8175 13.7354 18.8284 13.7354C18.8393 13.7354 18.8482 13.7176 18.8482 13.6958C18.8482 13.6741 18.8571 13.6562 18.868 13.6562C18.8789 13.6562 18.8878 13.6384 18.8878 13.6167C18.8878 13.5949 18.8967 13.5771 18.9076 13.5771C18.9184 13.5771 18.9273 13.5593 18.9273 13.5375C18.9273 13.5157 18.9362 13.4979 18.9471 13.4979C18.958 13.4979 18.9669 13.4801 18.9669 13.4583C18.9669 13.4366 18.9758 13.4187 18.9867 13.4187C18.9976 13.4187 19.0065 13.4009 19.0065 13.3792C19.0065 13.3574 19.0154 13.3396 19.0263 13.3396C19.0372 13.3396 19.0461 13.3218 19.0461 13.3C19.0461 13.2782 19.055 13.2604 19.0659 13.2604C19.0768 13.2604 19.0857 13.2426 19.0857 13.2208C19.0857 13.1991 19.0946 13.1812 19.1055 13.1812C19.1164 13.1812 19.1253 13.1634 19.1253 13.1417C19.1253 13.1199 19.1342 13.1021 19.1451 13.1021C19.1559 13.1021 19.1648 13.0754 19.1648 13.0427C19.1648 13.0101 19.1737 12.9833 19.1846 12.9833C19.1955 12.9833 19.2044 12.9655 19.2044 12.9437C19.2044 12.922 19.2133 12.9042 19.2242 12.9042C19.2351 12.9042 19.244 12.8774 19.244 12.8448C19.244 12.8121 19.2529 12.7854 19.2638 12.7854C19.2747 12.7854 19.2836 12.7587 19.2836 12.726C19.2836 12.6934 19.2925 12.6667 19.3034 12.6667C19.3143 12.6667 19.3232 12.6489 19.3232 12.6271C19.3232 12.6053 19.3321 12.5875 19.343 12.5875C19.3539 12.5875 19.3628 12.5608 19.3628 12.5281C19.3628 12.4955 19.3717 12.4688 19.3825 12.4688C19.3934 12.4688 19.4023 12.442 19.4023 12.4094C19.4023 12.3767 19.4112 12.35 19.4221 12.35C19.433 12.35 19.4419 12.3233 19.4419 12.2906C19.4419 12.258 19.4508 12.2312 19.4617 12.2312C19.4726 12.2312 19.4815 12.1956 19.4815 12.1521C19.4815 12.1085 19.4904 12.0729 19.5013 12.0729C19.5122 12.0729 19.5211 12.0462 19.5211 12.0135C19.5211 11.9809 19.53 11.9542 19.5409 11.9542C19.5518 11.9542 19.5607 11.9185 19.5607 11.875C19.5607 11.8315 19.5696 11.7958 19.5805 11.7958C19.5914 11.7958 19.6003 11.7602 19.6003 11.7167C19.6003 11.6731 19.6092 11.6375 19.6201 11.6375C19.6309 11.6375 19.6398 11.6019 19.6398 11.5583C19.6398 11.5148 19.6487 11.4792 19.6596 11.4792C19.6705 11.4792 19.6794 11.4435 19.6794 11.4C19.6794 11.3565 19.6883 11.3208 19.6992 11.3208C19.7101 11.3208 19.719 11.2763 19.719 11.2219C19.719 11.1674 19.7279 11.1229 19.7388 11.1229C19.7498 11.1229 19.7586 11.0701 19.7586 11.0042C19.7586 10.9382 19.7674 10.8854 19.7784 10.8854C19.7897 10.8854 19.7982 10.826 19.7982 10.7469C19.7982 10.6677 19.8067 10.6083 19.818 10.6083C19.8298 10.6083 19.8378 10.5292 19.8378 10.4104C19.8378 10.2917 19.8457 10.2125 19.8575 10.2125C19.8704 10.2125 19.8773 9.93542 19.8773 9.42083C19.8773 8.90625 19.8704 8.62917 19.8575 8.62917C19.8457 8.62917 19.8378 8.55 19.8378 8.43125C19.8378 8.3125 19.8298 8.23333 19.818 8.23333C19.8067 8.23333 19.7982 8.17396 19.7982 8.09479C19.7982 8.01562 19.7897 7.95625 19.7784 7.95625C19.7674 7.95625 19.7586 7.90347 19.7586 7.8375C19.7586 7.77153 19.7498 7.71875 19.7388 7.71875C19.7278 7.71875 19.719 7.66597 19.719 7.6C19.719 7.53403 19.7102 7.48125 19.6992 7.48125C19.6883 7.48125 19.6794 7.44562 19.6794 7.40208C19.6794 7.35854 19.6705 7.32292 19.6596 7.32292C19.6487 7.32292 19.6398 7.28729 19.6398 7.24375C19.6398 7.20021 19.6309 7.16458 19.6201 7.16458C19.6092 7.16458 19.6003 7.12896 19.6003 7.08542C19.6003 7.04187 19.5914 7.00625 19.5805 7.00625C19.5696 7.00625 19.5607 6.97062 19.5607 6.92708C19.5607 6.88354 19.5518 6.84792 19.5409 6.84792C19.53 6.84792 19.5211 6.81229 19.5211 6.76875C19.5211 6.72521 19.5122 6.68958 19.5013 6.68958C19.4904 6.68958 19.4815 6.66286 19.4815 6.63021C19.4815 6.59755 19.4726 6.57083 19.4617 6.57083C19.4508 6.57083 19.4419 6.54411 19.4419 6.51146C19.4419 6.4788 19.433 6.45208 19.4221 6.45208C19.4112 6.45208 19.4023 6.42536 19.4023 6.39271C19.4023 6.36005 19.3934 6.33333 19.3825 6.33333C19.3717 6.33333 19.3628 6.30661 19.3628 6.27396C19.3628 6.2413 19.3539 6.21458 19.343 6.21458C19.3321 6.21458 19.3232 6.19677 19.3232 6.175C19.3232 6.15323 19.3143 6.13542 19.3034 6.13542C19.2925 6.13542 19.2836 6.1087 19.2836 6.07604C19.2836 6.04339 19.2747 6.01667 19.2638 6.01667C19.2529 6.01667 19.244 5.98995 19.244 5.95729C19.244 5.92464 19.2351 5.89792 19.2242 5.89792C19.2133 5.89792 19.2044 5.8801 19.2044 5.85833C19.2044 5.83656 19.1955 5.81875 19.1846 5.81875C19.1737 5.81875 19.1648 5.80094 19.1648 5.77917C19.1648 5.7574 19.1559 5.73958 19.1451 5.73958C19.1342 5.73958 19.1253 5.71286 19.1253 5.68021C19.1253 5.64755 19.1164 5.62083 19.1055 5.62083C19.0946 5.62083 19.0857 5.60302 19.0857 5.58125C19.0857 5.55948 19.0768 5.54167 19.0659 5.54167C19.055 5.54167 19.0461 5.52385 19.0461 5.50208C19.0461 5.48031 19.0372 5.4625 19.0263 5.4625C19.0154 5.4625 19.0065 5.44469 19.0065 5.42292C19.0065 5.40115 18.9976 5.38333 18.9867 5.38333C18.9758 5.38333 18.9669 5.36552 18.9669 5.34375C18.9669 5.32198 18.958 5.30417 18.9471 5.30417C18.9362 5.30417 18.9273 5.28635 18.9273 5.26458C18.9273 5.24281 18.9184 5.225 18.9076 5.225C18.8967 5.225 18.8878 5.20719 18.8878 5.18542C18.8878 5.16365 18.8789 5.14583 18.868 5.14583C18.8571 5.14583 18.8482 5.12802 18.8482 5.10625C18.8482 5.08448 18.8393 5.06667 18.8284 5.06667C18.8175 5.06667 18.8086 5.04885 18.8086 5.02708C18.8086 5.00531 18.7997 4.9875 18.7888 4.9875C18.7779 4.9875 18.769 4.96969 18.769 4.94792C18.769 4.92615 18.7601 4.90833 18.7492 4.90833C18.7383 4.90833 18.7294 4.89052 18.7294 4.86875C18.7294 4.84698 18.7205 4.82917 18.7096 4.82917C18.6987 4.82917 18.6898 4.81331 18.6898 4.79396C18.6898 4.77458 18.672 4.7459 18.6503 4.73021C18.6285 4.71451 18.6107 4.68584 18.6107 4.66646C18.6107 4.6471 18.6018 4.63125 18.5909 4.63125C18.58 4.63125 18.5711 4.6154 18.5711 4.59604C18.5711 4.57666 18.5533 4.54799 18.5315 4.53229C18.5097 4.5166 18.4919 4.48792 18.4919 4.46854C18.4919 4.44919 18.483 4.43333 18.4721 4.43333C18.4612 4.43333 18.4523 4.41748 18.4523 4.39812C18.4523 4.37875 18.4345 4.35007 18.4128 4.33437C18.391 4.31868 18.3732 4.29196 18.3732 4.275C18.3732 4.25804 18.3554 4.23132 18.3336 4.21562C18.3118 4.19993 18.294 4.17321 18.294 4.15625C18.294 4.13929 18.2762 4.11257 18.2544 4.09687C18.2327 4.08118 18.2148 4.05606 18.2148 4.04106C18.2148 4.02608 18.1881 3.98883 18.1555 3.95833C18.1228 3.92783 18.0961 3.89059 18.0961 3.8756C18.0961 3.8606 18.0783 3.83549 18.0565 3.81979C18.0347 3.8041 18.0169 3.77918 18.0169 3.76439C18.0169 3.74961 17.9813 3.7033 17.9378 3.66146C17.8942 3.61962 17.8586 3.57521 17.8586 3.56276C17.8586 3.55033 17.8141 3.49677 17.7596 3.44375C17.7052 3.39073 17.6607 3.33749 17.6607 3.32544C17.6607 3.31338 17.5894 3.23303 17.5023 3.14687C17.4153 3.06072 17.344 2.98084 17.344 2.96936C17.344 2.94213 16.9352 2.53333 16.908 2.53333C16.8965 2.53333 16.8166 2.46208 16.7305 2.375C16.6443 2.28792 16.564 2.21667 16.5519 2.21667C16.5399 2.21667 16.4866 2.17214 16.4336 2.11771C16.3806 2.06328 16.3268 2.01875 16.3142 2.01875C16.3015 2.01875 16.2662 1.99203 16.2357 1.95938C16.2052 1.92672 16.1696 1.9 16.1565 1.9C16.1435 1.9 16.1078 1.87328 16.0773 1.84062C16.0468 1.80797 16.0112 1.78125 15.9982 1.78125C15.9851 1.78125 15.9495 1.75453 15.919 1.72187C15.8885 1.68922 15.8513 1.6625 15.8363 1.6625C15.8213 1.6625 15.7962 1.64469 15.7805 1.62292C15.7648 1.60115 15.7381 1.58333 15.7211 1.58333C15.7041 1.58333 15.6774 1.56552 15.6617 1.54375C15.646 1.52198 15.6193 1.50417 15.6023 1.50417C15.5854 1.50417 15.5587 1.48635 15.543 1.46458C15.5273 1.44281 15.4986 1.425 15.4792 1.425C15.4599 1.425 15.444 1.41609 15.444 1.40521C15.444 1.39432 15.4282 1.38542 15.4088 1.38542C15.3894 1.38542 15.3607 1.3676 15.3451 1.34583C15.3294 1.32406 15.3007 1.30625 15.2813 1.30625C15.2619 1.30625 15.2461 1.29734 15.2461 1.28646C15.2461 1.27557 15.2302 1.26667 15.2109 1.26667C15.1915 1.26667 15.1628 1.24885 15.1471 1.22708C15.1314 1.20531 15.1028 1.1875 15.0834 1.1875C15.064 1.1875 15.0482 1.17859 15.0482 1.16771C15.0482 1.15682 15.0304 1.14792 15.0086 1.14792C14.9868 1.14792 14.969 1.13901 14.969 1.12812C14.969 1.11724 14.9512 1.10833 14.9294 1.10833C14.9077 1.10833 14.8898 1.09943 14.8898 1.08854C14.8898 1.07766 14.872 1.06875 14.8503 1.06875C14.8285 1.06875 14.8107 1.05984 14.8107 1.04896C14.8107 1.03807 14.7929 1.02917 14.7711 1.02917C14.7493 1.02917 14.7315 1.02026 14.7315 1.00937C14.7315 0.99849 14.7137 0.989583 14.6919 0.989583C14.6702 0.989583 14.6523 0.980677 14.6523 0.969792C14.6523 0.958906 14.6345 0.95 14.6128 0.95C14.591 0.95 14.5732 0.941094 14.5732 0.930208C14.5732 0.919323 14.5554 0.910417 14.5336 0.910417C14.5118 0.910417 14.494 0.90151 14.494 0.890625C14.494 0.87974 14.4762 0.870833 14.4544 0.870833C14.4327 0.870833 14.4148 0.861927 14.4148 0.851042C14.4148 0.840156 14.397 0.83125 14.3753 0.83125C14.3535 0.83125 14.3357 0.822344 14.3357 0.811458C14.3357 0.800573 14.3179 0.791667 14.2961 0.791667C14.2743 0.791667 14.2565 0.78276 14.2565 0.771875C14.2565 0.76099 14.2298 0.752083 14.1971 0.752083C14.1645 0.752083 14.1378 0.743177 14.1378 0.732292C14.1378 0.721406 14.1199 0.7125 14.0982 0.7125C14.0764 0.7125 14.0586 0.703594 14.0586 0.692708C14.0586 0.681823 14.0319 0.672917 13.9992 0.672917C13.9666 0.672917 13.9398 0.66401 13.9398 0.653125C13.9398 0.64224 13.922 0.633333 13.9003 0.633333C13.8785 0.633333 13.8607 0.624427 13.8607 0.613542C13.8607 0.602656 13.834 0.59375 13.8013 0.59375C13.7686 0.59375 13.7419 0.584844 13.7419 0.573958C13.7419 0.563073 13.7241 0.554167 13.7023 0.554167C13.6806 0.554167 13.6628 0.54526 13.6628 0.534375C13.6628 0.52349 13.636 0.514583 13.6034 0.514583C13.5707 0.514583 13.544 0.505677 13.544 0.494792C13.544 0.483906 13.5173 0.475 13.4846 0.475C13.452 0.475 13.4253 0.466094 13.4253 0.455208C13.4253 0.444323 13.3896 0.435417 13.3461 0.435417C13.3026 0.435417 13.2669 0.42651 13.2669 0.415625C13.2669 0.40474 13.2402 0.395833 13.2076 0.395833C13.1749 0.395833 13.1482 0.386927 13.1482 0.376042C13.1482 0.365156 13.1215 0.35625 13.0888 0.35625C13.0561 0.35625 13.0294 0.347344 13.0294 0.336458C13.0294 0.325573 12.9938 0.316667 12.9503 0.316667C12.9067 0.316667 12.8711 0.30776 12.8711 0.296875C12.8711 0.28599 12.8355 0.277083 12.7919 0.277083C12.7484 0.277083 12.7128 0.268177 12.7128 0.257292C12.7128 0.246406 12.6771 0.2375 12.6336 0.2375C12.5901 0.2375 12.5544 0.228594 12.5544 0.217708C12.5544 0.206823 12.5099 0.197917 12.4555 0.197917C12.401 0.197917 12.3565 0.18901 12.3565 0.178125C12.3565 0.16724 12.312 0.158333 12.2576 0.158333C12.2031 0.158333 12.1586 0.149427 12.1586 0.138542C12.1586 0.127538 12.1058 0.11875 12.0398 0.11875C11.9739 0.11875 11.9211 0.109963 11.9211 0.0989583C11.9211 0.0874198 11.8551 0.0791667 11.7628 0.0791667C11.6704 0.0791667 11.6044 0.0709135 11.6044 0.059375C11.6044 0.0475 11.5253 0.0395833 11.4065 0.0395833C11.2878 0.0395833 11.2086 0.0316667 11.2086 0.0197917C11.2086 0.00694688 10.9513 0 10.4763 0C10.0013 0 9.74401 0.00694688 9.74401 0.0197917ZM11.0503 1.60312C11.0503 1.61512 11.136 1.62292 11.268 1.62292C11.3999 1.62292 11.4857 1.63071 11.4857 1.64271C11.4857 1.65371 11.5385 1.6625 11.6044 1.6625C11.6704 1.6625 11.7232 1.67129 11.7232 1.68229C11.7232 1.6933 11.776 1.70208 11.8419 1.70208C11.9079 1.70208 11.9607 1.71087 11.9607 1.72187C11.9607 1.73276 12.0052 1.74167 12.0596 1.74167C12.1141 1.74167 12.1586 1.75057 12.1586 1.76146C12.1586 1.77234 12.1942 1.78125 12.2378 1.78125C12.2813 1.78125 12.3169 1.79016 12.3169 1.80104C12.3169 1.81193 12.3526 1.82083 12.3961 1.82083C12.4396 1.82083 12.4753 1.82974 12.4753 1.84062C12.4753 1.85151 12.5109 1.86042 12.5544 1.86042C12.598 1.86042 12.6336 1.86932 12.6336 1.88021C12.6336 1.89109 12.6603 1.9 12.693 1.9C12.7256 1.9 12.7523 1.90891 12.7523 1.91979C12.7523 1.93068 12.7791 1.93958 12.8117 1.93958C12.8444 1.93958 12.8711 1.94849 12.8711 1.95938C12.8711 1.97026 12.9067 1.97917 12.9503 1.97917C12.9938 1.97917 13.0294 1.98807 13.0294 1.99896C13.0294 2.00984 13.0561 2.01875 13.0888 2.01875C13.1215 2.01875 13.1482 2.02766 13.1482 2.03854C13.1482 2.04943 13.166 2.05833 13.1878 2.05833C13.2095 2.05833 13.2273 2.06724 13.2273 2.07812C13.2273 2.08901 13.2541 2.09792 13.2867 2.09792C13.3194 2.09792 13.3461 2.10682 13.3461 2.11771C13.3461 2.12859 13.3639 2.1375 13.3857 2.1375C13.4074 2.1375 13.4253 2.14641 13.4253 2.15729C13.4253 2.16818 13.452 2.17708 13.4846 2.17708C13.5173 2.17708 13.544 2.18599 13.544 2.19687C13.544 2.20776 13.5618 2.21667 13.5836 2.21667C13.6054 2.21667 13.6232 2.22557 13.6232 2.23646C13.6232 2.24734 13.641 2.25625 13.6628 2.25625C13.6845 2.25625 13.7023 2.26516 13.7023 2.27604C13.7023 2.28693 13.7202 2.29583 13.7419 2.29583C13.7637 2.29583 13.7815 2.30474 13.7815 2.31562C13.7815 2.32651 13.7993 2.33542 13.8211 2.33542C13.8429 2.33542 13.8607 2.34432 13.8607 2.35521C13.8607 2.36609 13.8854 2.375 13.9157 2.375C13.948 2.375 13.9825 2.39135 13.9992 2.41458C14.0149 2.43635 14.0436 2.45417 14.063 2.45417C14.0823 2.45417 14.0982 2.46307 14.0982 2.47396C14.0982 2.48484 14.116 2.49375 14.1378 2.49375C14.1595 2.49375 14.1773 2.50266 14.1773 2.51354C14.1773 2.52443 14.1952 2.53333 14.2169 2.53333C14.2387 2.53333 14.2565 2.54224 14.2565 2.55312C14.2565 2.56401 14.2743 2.57292 14.2961 2.57292C14.3179 2.57292 14.3357 2.58182 14.3357 2.59271C14.3357 2.60359 14.3515 2.6125 14.3709 2.6125C14.3903 2.6125 14.4189 2.63031 14.4346 2.65208C14.4503 2.67385 14.479 2.69167 14.4984 2.69167C14.5177 2.69167 14.5336 2.70057 14.5336 2.71146C14.5336 2.72234 14.5494 2.73125 14.5688 2.73125C14.5882 2.73125 14.6169 2.74906 14.6326 2.77083C14.6482 2.7926 14.675 2.81042 14.6919 2.81042C14.7089 2.81042 14.7356 2.82823 14.7513 2.85C14.767 2.87177 14.7937 2.88958 14.8107 2.88958C14.8276 2.88958 14.8544 2.9074 14.8701 2.92917C14.8857 2.95094 14.9109 2.96875 14.9259 2.96875C14.9408 2.96875 14.9781 2.99547 15.0086 3.02813C15.0391 3.06078 15.0763 3.0875 15.0913 3.0875C15.1063 3.0875 15.1314 3.10531 15.1471 3.12708C15.1628 3.14885 15.1877 3.16667 15.2025 3.16667C15.2173 3.16667 15.2636 3.20229 15.3055 3.24583C15.3473 3.28938 15.3916 3.325 15.404 3.325C15.4163 3.325 15.4789 3.37844 15.543 3.44375C15.6071 3.50906 15.669 3.5625 15.6806 3.5625C15.708 3.5625 16.3148 4.16929 16.3148 4.19676C16.3148 4.20834 16.3683 4.27027 16.4336 4.33437C16.4989 4.39848 16.5523 4.46102 16.5523 4.47337C16.5523 4.48572 16.588 4.53004 16.6315 4.57188C16.6751 4.61371 16.7107 4.65842 16.7107 4.67123C16.7107 4.68405 16.7374 4.7195 16.7701 4.75C16.8027 4.7805 16.8294 4.81775 16.8294 4.83273C16.8294 4.84773 16.8472 4.87285 16.869 4.88854C16.8908 4.90424 16.9086 4.93095 16.9086 4.94792C16.9086 4.96488 16.9264 4.9916 16.9482 5.00729C16.9699 5.02299 16.9878 5.04971 16.9878 5.06667C16.9878 5.08363 17.0056 5.11035 17.0273 5.12604C17.0491 5.14174 17.0669 5.16846 17.0669 5.18542C17.0669 5.20238 17.0847 5.2291 17.1065 5.24479C17.1283 5.26049 17.1461 5.28916 17.1461 5.30854C17.1461 5.3279 17.155 5.34375 17.1659 5.34375C17.1768 5.34375 17.1857 5.3596 17.1857 5.37896C17.1857 5.39833 17.2035 5.42701 17.2253 5.44271C17.247 5.4584 17.2648 5.48708 17.2648 5.50646C17.2648 5.52581 17.2737 5.54167 17.2846 5.54167C17.2955 5.54167 17.3044 5.55948 17.3044 5.58125C17.3044 5.60302 17.3133 5.62083 17.3242 5.62083C17.3351 5.62083 17.344 5.63669 17.344 5.65604C17.344 5.67542 17.3618 5.7041 17.3836 5.71979C17.4054 5.73549 17.4232 5.76416 17.4232 5.78354C17.4232 5.8029 17.4321 5.81875 17.443 5.81875C17.4539 5.81875 17.4628 5.83656 17.4628 5.85833C17.4628 5.8801 17.4717 5.89792 17.4825 5.89792C17.4934 5.89792 17.5023 5.91573 17.5023 5.9375C17.5023 5.95927 17.5112 5.97708 17.5221 5.97708C17.533 5.97708 17.5419 5.9949 17.5419 6.01667C17.5419 6.03844 17.5508 6.05625 17.5617 6.05625C17.5726 6.05625 17.5815 6.08297 17.5815 6.11562C17.5815 6.14828 17.5904 6.175 17.6013 6.175C17.6122 6.175 17.6211 6.19281 17.6211 6.21458C17.6211 6.23635 17.63 6.25417 17.6409 6.25417C17.6518 6.25417 17.6607 6.27198 17.6607 6.29375C17.6607 6.31552 17.6696 6.33333 17.6805 6.33333C17.6914 6.33333 17.7003 6.36005 17.7003 6.39271C17.7003 6.42536 17.7092 6.45208 17.7201 6.45208C17.7309 6.45208 17.7398 6.4699 17.7398 6.49167C17.7398 6.51344 17.7487 6.53125 17.7596 6.53125C17.7705 6.53125 17.7794 6.55797 17.7794 6.59062C17.7794 6.62328 17.7883 6.65 17.7992 6.65C17.8101 6.65 17.819 6.66781 17.819 6.68958C17.819 6.71135 17.8279 6.72917 17.8388 6.72917C17.8497 6.72917 17.8586 6.75589 17.8586 6.78854C17.8586 6.8212 17.8675 6.84792 17.8784 6.84792C17.8893 6.84792 17.8982 6.87464 17.8982 6.90729C17.8982 6.93995 17.9071 6.96667 17.918 6.96667C17.9289 6.96667 17.9378 6.99339 17.9378 7.02604C17.9378 7.0587 17.9467 7.08542 17.9576 7.08542C17.9684 7.08542 17.9773 7.12104 17.9773 7.16458C17.9773 7.20813 17.9862 7.24375 17.9971 7.24375C18.008 7.24375 18.0169 7.27047 18.0169 7.30312C18.0169 7.33578 18.0258 7.3625 18.0367 7.3625C18.0476 7.3625 18.0565 7.39812 18.0565 7.44167C18.0565 7.48521 18.0654 7.52083 18.0763 7.52083C18.0872 7.52083 18.0961 7.56536 18.0961 7.61979C18.0961 7.67422 18.105 7.71875 18.1159 7.71875C18.1268 7.71875 18.1357 7.75437 18.1357 7.79792C18.1357 7.84146 18.1446 7.87708 18.1555 7.87708C18.1665 7.87708 18.1753 7.92987 18.1753 7.99583C18.1753 8.0618 18.184 8.11458 18.1951 8.11458C18.2064 8.11458 18.2148 8.17396 18.2148 8.25313C18.2148 8.33229 18.2233 8.39167 18.2346 8.39167C18.2464 8.39167 18.2544 8.46424 18.2544 8.56979C18.2544 8.67534 18.2625 8.74792 18.2742 8.74792C18.287 8.74792 18.294 8.97883 18.294 9.40104C18.294 9.82326 18.287 10.0542 18.2742 10.0542C18.2625 10.0542 18.2544 10.1267 18.2544 10.2323C18.2544 10.3378 18.2464 10.4104 18.2346 10.4104C18.2233 10.4104 18.2148 10.4698 18.2148 10.549C18.2148 10.6281 18.2064 10.6875 18.1951 10.6875C18.184 10.6875 18.1753 10.7403 18.1753 10.8062C18.1753 10.8722 18.1665 10.925 18.1555 10.925C18.1446 10.925 18.1357 10.9695 18.1357 11.024C18.1357 11.0784 18.1268 11.1229 18.1159 11.1229C18.105 11.1229 18.0961 11.1585 18.0961 11.2021C18.0961 11.2456 18.0872 11.2812 18.0763 11.2812C18.0654 11.2812 18.0565 11.3169 18.0565 11.3604C18.0565 11.404 18.0476 11.4396 18.0367 11.4396C18.0258 11.4396 18.0169 11.4663 18.0169 11.499C18.0169 11.5316 18.008 11.5583 17.9971 11.5583C17.9862 11.5583 17.9773 11.594 17.9773 11.6375C17.9773 11.681 17.9684 11.7167 17.9576 11.7167C17.9467 11.7167 17.9378 11.7434 17.9378 11.776C17.9378 11.8087 17.9289 11.8354 17.918 11.8354C17.9071 11.8354 17.8982 11.8621 17.8982 11.8948C17.8982 11.9274 17.8893 11.9542 17.8784 11.9542C17.8675 11.9542 17.8586 11.9809 17.8586 12.0135C17.8586 12.0462 17.8497 12.0729 17.8388 12.0729C17.8279 12.0729 17.819 12.0907 17.819 12.1125C17.819 12.1343 17.8101 12.1521 17.7992 12.1521C17.7883 12.1521 17.7794 12.1788 17.7794 12.2115C17.7794 12.2441 17.7705 12.2708 17.7596 12.2708C17.7487 12.2708 17.7398 12.2886 17.7398 12.3104C17.7398 12.3322 17.7309 12.35 17.7201 12.35C17.7092 12.35 17.7003 12.3767 17.7003 12.4094C17.7003 12.442 17.6914 12.4688 17.6805 12.4688C17.6696 12.4688 17.6607 12.4866 17.6607 12.5083C17.6607 12.5301 17.6518 12.5479 17.6409 12.5479C17.63 12.5479 17.6211 12.5657 17.6211 12.5875C17.6211 12.6093 17.6122 12.6271 17.6013 12.6271C17.5904 12.6271 17.5815 12.6538 17.5815 12.6865C17.5815 12.7191 17.5726 12.7458 17.5617 12.7458C17.5508 12.7458 17.5419 12.7636 17.5419 12.7854C17.5419 12.8072 17.533 12.825 17.5221 12.825C17.5112 12.825 17.5023 12.8428 17.5023 12.8646C17.5023 12.8864 17.4934 12.9042 17.4825 12.9042C17.4717 12.9042 17.4628 12.922 17.4628 12.9437C17.4628 12.9655 17.4539 12.9833 17.443 12.9833C17.4321 12.9833 17.4232 13.0011 17.4232 13.0229C17.4232 13.0447 17.4143 13.0625 17.4034 13.0625C17.3925 13.0625 17.3836 13.0784 17.3836 13.0977C17.3836 13.1171 17.3658 13.1458 17.344 13.1615C17.3222 13.1772 17.3044 13.2058 17.3044 13.2252C17.3044 13.2446 17.2955 13.2604 17.2846 13.2604C17.2737 13.2604 17.2648 13.2763 17.2648 13.2956C17.2648 13.315 17.247 13.3437 17.2253 13.3594C17.2035 13.3751 17.1857 13.4037 17.1857 13.4231C17.1857 13.4425 17.1768 13.4583 17.1659 13.4583C17.155 13.4583 17.1461 13.4742 17.1461 13.4935C17.1461 13.5129 17.1283 13.5416 17.1065 13.5573C17.0847 13.573 17.0669 13.5997 17.0669 13.6167C17.0669 13.6336 17.0491 13.6603 17.0273 13.676C17.0056 13.6917 16.9878 13.7185 16.9878 13.7354C16.9878 13.7524 16.9699 13.7791 16.9482 13.7948C16.9264 13.8105 16.9086 13.8372 16.9086 13.8542C16.9086 13.8711 16.8908 13.8978 16.869 13.9135C16.8472 13.9292 16.8294 13.9544 16.8294 13.9694C16.8294 13.9843 16.8027 14.0216 16.7701 14.0521C16.7374 14.0826 16.7107 14.1182 16.7107 14.1312C16.7107 14.1443 16.684 14.1799 16.6513 14.2104C16.6186 14.2409 16.5919 14.2762 16.5919 14.2887C16.5919 14.3013 16.5385 14.364 16.4732 14.4281C16.4079 14.4922 16.3544 14.5541 16.3544 14.5657C16.3544 14.5933 15.6288 15.3187 15.6012 15.3187C15.5895 15.3187 15.5366 15.3633 15.4836 15.4177C15.4306 15.4721 15.377 15.5167 15.3646 15.5167C15.3521 15.5167 15.3077 15.5523 15.2659 15.5958C15.224 15.6394 15.1777 15.675 15.1629 15.675C15.1482 15.675 15.1232 15.6928 15.1076 15.7146C15.0919 15.7364 15.0667 15.7542 15.0517 15.7542C15.0368 15.7542 14.9995 15.7809 14.969 15.8135C14.9385 15.8462 14.9013 15.8729 14.8863 15.8729C14.8713 15.8729 14.8462 15.8907 14.8305 15.9125C14.8148 15.9343 14.7881 15.9521 14.7711 15.9521C14.7541 15.9521 14.7274 15.9699 14.7117 15.9917C14.696 16.0134 14.6673 16.0312 14.648 16.0312C14.6286 16.0312 14.6128 16.0402 14.6128 16.051C14.6128 16.0619 14.5969 16.0708 14.5775 16.0708C14.5582 16.0708 14.5295 16.0886 14.5138 16.1104C14.4981 16.1322 14.4694 16.15 14.4501 16.15C14.4307 16.15 14.4148 16.1589 14.4148 16.1698C14.4148 16.1807 14.397 16.1896 14.3753 16.1896C14.3535 16.1896 14.3357 16.1985 14.3357 16.2094C14.3357 16.2203 14.3198 16.2292 14.3005 16.2292C14.2811 16.2292 14.2524 16.247 14.2367 16.2687C14.221 16.2905 14.1923 16.3083 14.173 16.3083C14.1536 16.3083 14.1378 16.3172 14.1378 16.3281C14.1378 16.339 14.1199 16.3479 14.0982 16.3479C14.0764 16.3479 14.0586 16.3568 14.0586 16.3677C14.0586 16.3786 14.0408 16.3875 14.019 16.3875C13.9972 16.3875 13.9794 16.3964 13.9794 16.4073C13.9794 16.4182 13.9616 16.4271 13.9398 16.4271C13.9181 16.4271 13.9003 16.436 13.9003 16.4469C13.9003 16.4578 13.8824 16.4667 13.8607 16.4667C13.8389 16.4667 13.8211 16.4756 13.8211 16.4865C13.8211 16.4973 13.8033 16.5063 13.7815 16.5063C13.7597 16.5063 13.7419 16.5152 13.7419 16.526C13.7419 16.5369 13.7152 16.5458 13.6826 16.5458C13.6499 16.5458 13.6232 16.5547 13.6232 16.5656C13.6232 16.5765 13.6054 16.5854 13.5836 16.5854C13.5618 16.5854 13.544 16.5943 13.544 16.6052C13.544 16.6161 13.5262 16.625 13.5044 16.625C13.4827 16.625 13.4648 16.6339 13.4648 16.6448C13.4648 16.6557 13.4381 16.6646 13.4055 16.6646C13.3728 16.6646 13.3461 16.6735 13.3461 16.6844C13.3461 16.6953 13.3283 16.7042 13.3065 16.7042C13.2847 16.7042 13.2669 16.7131 13.2669 16.724C13.2669 16.7348 13.2402 16.7437 13.2076 16.7437C13.1749 16.7437 13.1482 16.7527 13.1482 16.7635C13.1482 16.7744 13.1215 16.7833 13.0888 16.7833C13.0561 16.7833 13.0294 16.7922 13.0294 16.8031C13.0294 16.814 13.0027 16.8229 12.9701 16.8229C12.9374 16.8229 12.9107 16.8318 12.9107 16.8427C12.9107 16.8536 12.884 16.8625 12.8513 16.8625C12.8186 16.8625 12.7919 16.8714 12.7919 16.8823C12.7919 16.8932 12.7652 16.9021 12.7326 16.9021C12.6999 16.9021 12.6732 16.911 12.6732 16.9219C12.6732 16.9328 12.6376 16.9417 12.594 16.9417C12.5505 16.9417 12.5148 16.9506 12.5148 16.9615C12.5148 16.9723 12.4881 16.9812 12.4555 16.9812C12.4228 16.9812 12.3961 16.9902 12.3961 17.001C12.3961 17.0119 12.3516 17.0208 12.2971 17.0208C12.2427 17.0208 12.1982 17.0297 12.1982 17.0406C12.1982 17.0515 12.1626 17.0604 12.119 17.0604C12.0755 17.0604 12.0398 17.0693 12.0398 17.0802C12.0398 17.0912 11.9871 17.1 11.9211 17.1C11.8551 17.1 11.8023 17.1088 11.8023 17.1198C11.8023 17.1308 11.7496 17.1396 11.6836 17.1396C11.6176 17.1396 11.5648 17.1484 11.5648 17.1594C11.5648 17.1709 11.4989 17.1792 11.4065 17.1792C11.3141 17.1792 11.2482 17.1874 11.2482 17.199C11.2482 17.2118 10.9777 17.2188 10.4763 17.2188C9.97492 17.2188 9.70443 17.2118 9.70443 17.199C9.70443 17.1874 9.63846 17.1792 9.54609 17.1792C9.45372 17.1792 9.38776 17.1709 9.38776 17.1594C9.38776 17.1484 9.33498 17.1396 9.26901 17.1396C9.20304 17.1396 9.15026 17.1308 9.15026 17.1198C9.15026 17.1088 9.09748 17.1 9.03151 17.1C8.96554 17.1 8.91276 17.0912 8.91276 17.0802C8.91276 17.0693 8.87713 17.0604 8.83359 17.0604C8.79005 17.0604 8.75443 17.0515 8.75443 17.0406C8.75443 17.0297 8.7099 17.0208 8.65547 17.0208C8.60104 17.0208 8.55651 17.0119 8.55651 17.001C8.55651 16.9902 8.52979 16.9812 8.49713 16.9812C8.46448 16.9812 8.43776 16.9723 8.43776 16.9615C8.43776 16.9506 8.40213 16.9417 8.35859 16.9417C8.31505 16.9417 8.27943 16.9328 8.27943 16.9219C8.27943 16.911 8.25271 16.9021 8.22005 16.9021C8.1874 16.9021 8.16068 16.8932 8.16068 16.8823C8.16068 16.8714 8.13396 16.8625 8.1013 16.8625C8.06865 16.8625 8.04193 16.8536 8.04193 16.8427C8.04193 16.8318 8.01521 16.8229 7.98255 16.8229C7.94989 16.8229 7.92318 16.814 7.92318 16.8031C7.92318 16.7922 7.89646 16.7833 7.8638 16.7833C7.83115 16.7833 7.80443 16.7744 7.80443 16.7635C7.80443 16.7527 7.77771 16.7437 7.74505 16.7437C7.7124 16.7437 7.68568 16.7348 7.68568 16.724C7.68568 16.7131 7.66786 16.7042 7.64609 16.7042C7.62432 16.7042 7.60651 16.6953 7.60651 16.6844C7.60651 16.6735 7.57979 16.6646 7.54713 16.6646C7.51448 16.6646 7.48776 16.6557 7.48776 16.6448C7.48776 16.6339 7.46995 16.625 7.44818 16.625C7.42641 16.625 7.40859 16.6161 7.40859 16.6052C7.40859 16.5943 7.39078 16.5854 7.36901 16.5854C7.34724 16.5854 7.32943 16.5765 7.32943 16.5656C7.32943 16.5547 7.30271 16.5458 7.27005 16.5458C7.2374 16.5458 7.21068 16.5369 7.21068 16.526C7.21068 16.5152 7.19286 16.5063 7.17109 16.5063C7.14932 16.5063 7.13151 16.4973 7.13151 16.4865C7.13151 16.4756 7.1137 16.4667 7.09193 16.4667C7.07016 16.4667 7.05234 16.4578 7.05234 16.4469C7.05234 16.436 7.03453 16.4271 7.01276 16.4271C6.99099 16.4271 6.97318 16.4182 6.97318 16.4073C6.97318 16.3964 6.95536 16.3875 6.93359 16.3875C6.91182 16.3875 6.89401 16.3786 6.89401 16.3677C6.89401 16.3568 6.8762 16.3479 6.85443 16.3479C6.83266 16.3479 6.81484 16.339 6.81484 16.3281C6.81484 16.3172 6.79703 16.3083 6.77526 16.3083C6.75349 16.3083 6.73568 16.2994 6.73568 16.2885C6.73568 16.2777 6.71982 16.2687 6.70047 16.2687C6.68109 16.2687 6.65241 16.2509 6.63672 16.2292C6.62102 16.2074 6.59235 16.1896 6.57297 16.1896C6.55361 16.1896 6.53776 16.1807 6.53776 16.1698C6.53776 16.1589 6.51995 16.15 6.49818 16.15C6.47641 16.15 6.45859 16.1411 6.45859 16.1302C6.45859 16.1193 6.44274 16.1104 6.42338 16.1104C6.40401 16.1104 6.37533 16.0926 6.35963 16.0708C6.34394 16.0491 6.31526 16.0312 6.29589 16.0312C6.27653 16.0312 6.26068 16.0223 6.26068 16.0115C6.26068 16.0006 6.21615 15.9917 6.16172 15.9917C6.10729 15.9917 6.06276 16.0006 6.06276 16.0115C6.06276 16.0223 6.02713 16.0312 5.98359 16.0312C5.94005 16.0312 5.90443 16.0402 5.90443 16.051C5.90443 16.0619 5.87771 16.0708 5.84505 16.0708C5.8124 16.0708 5.78568 16.0797 5.78568 16.0906C5.78568 16.1015 5.75005 16.1104 5.70651 16.1104C5.66297 16.1104 5.62734 16.1193 5.62734 16.1302C5.62734 16.1411 5.59172 16.15 5.54818 16.15C5.50463 16.15 5.46901 16.1589 5.46901 16.1698C5.46901 16.1807 5.43338 16.1896 5.38984 16.1896C5.3463 16.1896 5.31068 16.1985 5.31068 16.2094C5.31068 16.2203 5.27505 16.2292 5.23151 16.2292C5.18797 16.2292 5.15234 16.2381 5.15234 16.249C5.15234 16.2598 5.12562 16.2687 5.09297 16.2687C5.06031 16.2687 5.03359 16.2777 5.03359 16.2885C5.03359 16.2994 4.99797 16.3083 4.95443 16.3083C4.91089 16.3083 4.87526 16.3172 4.87526 16.3281C4.87526 16.339 4.83963 16.3479 4.79609 16.3479C4.75255 16.3479 4.71693 16.3568 4.71693 16.3677C4.71693 16.3786 4.6813 16.3875 4.63776 16.3875C4.59422 16.3875 4.55859 16.3964 4.55859 16.4073C4.55859 16.4182 4.52297 16.4271 4.47943 16.4271C4.43588 16.4271 4.40026 16.436 4.40026 16.4469C4.40026 16.4578 4.37354 16.4667 4.34089 16.4667C4.30823 16.4667 4.28151 16.4756 4.28151 16.4865C4.28151 16.4973 4.24589 16.5063 4.20234 16.5063C4.1588 16.5063 4.12318 16.5152 4.12318 16.526C4.12318 16.5369 4.08755 16.5458 4.04401 16.5458C4.00047 16.5458 3.96484 16.5547 3.96484 16.5656C3.96484 16.5765 3.92922 16.5854 3.88568 16.5854C3.84214 16.5854 3.80651 16.5943 3.80651 16.6052C3.80651 16.6161 3.77089 16.625 3.72734 16.625C3.6838 16.625 3.64818 16.6339 3.64818 16.6448C3.64818 16.6557 3.61255 16.6646 3.56901 16.6646C3.52547 16.6646 3.48984 16.6735 3.48984 16.6844C3.48984 16.6953 3.46312 16.7042 3.43047 16.7042C3.39781 16.7042 3.37109 16.7131 3.37109 16.724C3.37109 16.7348 3.34437 16.7437 3.31172 16.7437C3.26554 16.7437 3.25234 16.735 3.25234 16.7042C3.25234 16.6824 3.26125 16.6646 3.27214 16.6646C3.28302 16.6646 3.29193 16.629 3.29193 16.5854C3.29193 16.5419 3.30083 16.5063 3.31172 16.5063C3.3226 16.5063 3.33151 16.4706 3.33151 16.4271C3.33151 16.3835 3.34042 16.3479 3.3513 16.3479C3.36219 16.3479 3.37109 16.3212 3.37109 16.2885C3.37109 16.2559 3.38 16.2292 3.39089 16.2292C3.40177 16.2292 3.41068 16.1935 3.41068 16.15C3.41068 16.1065 3.41958 16.0708 3.43047 16.0708C3.44135 16.0708 3.45026 16.0352 3.45026 15.9917C3.45026 15.9481 3.45917 15.9125 3.47005 15.9125C3.48094 15.9125 3.48984 15.8858 3.48984 15.8531C3.48984 15.8205 3.49875 15.7937 3.50964 15.7937C3.52052 15.7937 3.52943 15.7581 3.52943 15.7146C3.52943 15.671 3.53833 15.6354 3.54922 15.6354C3.5601 15.6354 3.56901 15.5998 3.56901 15.5562C3.56901 15.5127 3.57792 15.4771 3.5888 15.4771C3.59969 15.4771 3.60859 15.4504 3.60859 15.4177C3.60859 15.3851 3.6175 15.3583 3.62839 15.3583C3.63927 15.3583 3.64818 15.3227 3.64818 15.2792C3.64818 15.2356 3.65708 15.2 3.66797 15.2C3.67885 15.2 3.68776 15.1644 3.68776 15.1208C3.68776 15.0773 3.69667 15.0417 3.70755 15.0417C3.71844 15.0417 3.72734 15.0149 3.72734 14.9823C3.72734 14.9496 3.73625 14.9229 3.74714 14.9229C3.75802 14.9229 3.76693 14.8873 3.76693 14.8438C3.76693 14.8002 3.77583 14.7646 3.78672 14.7646C3.7976 14.7646 3.80651 14.7379 3.80651 14.7052C3.80651 14.6726 3.81542 14.6458 3.8263 14.6458C3.83719 14.6458 3.84609 14.6102 3.84609 14.5667C3.84609 14.5231 3.855 14.4875 3.86589 14.4875C3.87677 14.4875 3.88568 14.4519 3.88568 14.4083C3.88568 14.3648 3.89458 14.3292 3.90547 14.3292C3.91635 14.3292 3.92526 14.3024 3.92526 14.2698C3.92526 14.2371 3.93417 14.2104 3.94505 14.2104C3.95594 14.2104 3.96484 14.1748 3.96484 14.1312C3.96484 14.0877 3.97375 14.0521 3.98464 14.0521C3.99552 14.0521 4.00443 14.0172 4.00443 13.9746C4.00443 13.9319 4.01555 13.8918 4.02917 13.8855C4.04896 13.8763 4.04896 13.8716 4.02917 13.8624C4.01557 13.8561 4.00443 13.8358 4.00443 13.8173C4.00443 13.7988 3.98661 13.7709 3.96484 13.7552C3.94307 13.7395 3.92526 13.7108 3.92526 13.6915C3.92526 13.6721 3.91635 13.6562 3.90547 13.6562C3.89458 13.6562 3.88568 13.6404 3.88568 13.621C3.88568 13.6017 3.86786 13.573 3.84609 13.5573C3.82432 13.5416 3.80651 13.5149 3.80651 13.4979C3.80651 13.481 3.7887 13.4542 3.76693 13.4385C3.74516 13.4228 3.72734 13.3942 3.72734 13.3748C3.72734 13.3554 3.71844 13.3396 3.70755 13.3396C3.69667 13.3396 3.68776 13.3218 3.68776 13.3C3.68776 13.2782 3.67885 13.2604 3.66797 13.2604C3.65708 13.2604 3.64818 13.2446 3.64818 13.2252C3.64818 13.2058 3.63036 13.1772 3.60859 13.1615C3.58682 13.1458 3.56901 13.1171 3.56901 13.0977C3.56901 13.0784 3.5601 13.0625 3.54922 13.0625C3.53833 13.0625 3.52943 13.0447 3.52943 13.0229C3.52943 13.0011 3.52052 12.9833 3.50964 12.9833C3.49875 12.9833 3.48984 12.9655 3.48984 12.9437C3.48984 12.922 3.48094 12.9042 3.47005 12.9042C3.45917 12.9042 3.45026 12.8864 3.45026 12.8646C3.45026 12.8428 3.44135 12.825 3.43047 12.825C3.41958 12.825 3.41068 12.8072 3.41068 12.7854C3.41068 12.7636 3.40177 12.7458 3.39089 12.7458C3.38 12.7458 3.37109 12.7191 3.37109 12.6865C3.37109 12.6538 3.36219 12.6271 3.3513 12.6271C3.34042 12.6271 3.33151 12.6093 3.33151 12.5875C3.33151 12.5657 3.3226 12.5479 3.31172 12.5479C3.30083 12.5479 3.29193 12.5301 3.29193 12.5083C3.29193 12.4866 3.28302 12.4688 3.27214 12.4688C3.26125 12.4688 3.25234 12.4509 3.25234 12.4292C3.25234 12.4074 3.24344 12.3896 3.23255 12.3896C3.22167 12.3896 3.21276 12.3629 3.21276 12.3302C3.21276 12.2976 3.20385 12.2708 3.19297 12.2708C3.18208 12.2708 3.17318 12.2441 3.17318 12.2115C3.17318 12.1788 3.16427 12.1521 3.15339 12.1521C3.1425 12.1521 3.13359 12.1343 3.13359 12.1125C3.13359 12.0907 3.12469 12.0729 3.1138 12.0729C3.10292 12.0729 3.09401 12.0462 3.09401 12.0135C3.09401 11.9809 3.0851 11.9542 3.07422 11.9542C3.06333 11.9542 3.05443 11.9274 3.05443 11.8948C3.05443 11.8621 3.04552 11.8354 3.03464 11.8354C3.02375 11.8354 3.01484 11.8087 3.01484 11.776C3.01484 11.7434 3.00594 11.7167 2.99505 11.7167C2.98417 11.7167 2.97526 11.681 2.97526 11.6375C2.97526 11.594 2.96635 11.5583 2.95547 11.5583C2.94458 11.5583 2.93568 11.5316 2.93568 11.499C2.93568 11.4663 2.92677 11.4396 2.91589 11.4396C2.905 11.4396 2.89609 11.404 2.89609 11.3604C2.89609 11.3169 2.88719 11.2812 2.8763 11.2812C2.86542 11.2812 2.85651 11.2367 2.85651 11.1823C2.85651 11.1279 2.8476 11.0833 2.83672 11.0833C2.82583 11.0833 2.81693 11.0477 2.81693 11.0042C2.81693 10.9606 2.80802 10.925 2.79714 10.925C2.78613 10.925 2.77734 10.8722 2.77734 10.8062C2.77734 10.7403 2.76856 10.6875 2.75755 10.6875C2.74625 10.6875 2.73776 10.6281 2.73776 10.549C2.73776 10.4698 2.72927 10.4104 2.71797 10.4104C2.70623 10.4104 2.69818 10.3378 2.69818 10.2323C2.69818 10.1267 2.69012 10.0542 2.67839 10.0542C2.6656 10.0542 2.65859 9.82987 2.65859 9.42083C2.65859 9.0118 2.6656 8.7875 2.67839 8.7875C2.69026 8.7875 2.69818 8.70833 2.69818 8.58958C2.69818 8.47083 2.70609 8.39167 2.71797 8.39167C2.72927 8.39167 2.73776 8.33229 2.73776 8.25313C2.73776 8.17396 2.74625 8.11458 2.75755 8.11458C2.76844 8.11458 2.77734 8.07005 2.77734 8.01562C2.77734 7.9612 2.78625 7.91667 2.79714 7.91667C2.80802 7.91667 2.81693 7.87214 2.81693 7.81771C2.81693 7.76328 2.82583 7.71875 2.83672 7.71875C2.8476 7.71875 2.85651 7.68313 2.85651 7.63958C2.85651 7.59604 2.86542 7.56042 2.8763 7.56042C2.88719 7.56042 2.89609 7.52479 2.89609 7.48125C2.89609 7.43771 2.905 7.40208 2.91589 7.40208C2.92677 7.40208 2.93568 7.36646 2.93568 7.32292C2.93568 7.27938 2.94458 7.24375 2.95547 7.24375C2.96635 7.24375 2.97526 7.21703 2.97526 7.18437C2.97526 7.15172 2.98417 7.125 2.99505 7.125C3.00594 7.125 3.01484 7.09828 3.01484 7.06562C3.01484 7.03297 3.02375 7.00625 3.03464 7.00625C3.04552 7.00625 3.05443 6.97953 3.05443 6.94688C3.05443 6.91422 3.06333 6.8875 3.07422 6.8875C3.0851 6.8875 3.09401 6.86078 3.09401 6.82812C3.09401 6.79547 3.10292 6.76875 3.1138 6.76875C3.12469 6.76875 3.13359 6.74203 3.13359 6.70937C3.13359 6.67672 3.1425 6.65 3.15339 6.65C3.16427 6.65 3.17318 6.63219 3.17318 6.61042C3.17318 6.58865 3.18208 6.57083 3.19297 6.57083C3.20385 6.57083 3.21276 6.54411 3.21276 6.51146C3.21276 6.4788 3.22167 6.45208 3.23255 6.45208C3.24344 6.45208 3.25234 6.43427 3.25234 6.4125C3.25234 6.39073 3.26125 6.37292 3.27214 6.37292C3.28302 6.37292 3.29193 6.3462 3.29193 6.31354C3.29193 6.28089 3.30083 6.25417 3.31172 6.25417C3.3226 6.25417 3.33151 6.23635 3.33151 6.21458C3.33151 6.19281 3.34042 6.175 3.3513 6.175C3.36219 6.175 3.37109 6.15719 3.37109 6.13542C3.37109 6.11365 3.38 6.09583 3.39089 6.09583C3.40177 6.09583 3.41068 6.07802 3.41068 6.05625C3.41068 6.03448 3.41958 6.01667 3.43047 6.01667C3.44135 6.01667 3.45026 5.99885 3.45026 5.97708C3.45026 5.95531 3.45917 5.9375 3.47005 5.9375C3.48094 5.9375 3.48984 5.91969 3.48984 5.89792C3.48984 5.87615 3.49875 5.85833 3.50964 5.85833C3.52052 5.85833 3.52943 5.84052 3.52943 5.81875C3.52943 5.79698 3.53833 5.77917 3.54922 5.77917C3.5601 5.77917 3.56901 5.76135 3.56901 5.73958C3.56901 5.71781 3.57792 5.7 3.5888 5.7C3.59969 5.7 3.60859 5.68219 3.60859 5.66042C3.60859 5.63865 3.6175 5.62083 3.62839 5.62083C3.63927 5.62083 3.64818 5.60498 3.64818 5.58562C3.64818 5.56625 3.66599 5.53757 3.68776 5.52187C3.70953 5.50618 3.72734 5.4775 3.72734 5.45813C3.72734 5.43877 3.73625 5.42292 3.74714 5.42292C3.75802 5.42292 3.76693 5.40706 3.76693 5.38771C3.76693 5.36833 3.78474 5.33965 3.80651 5.32396C3.82828 5.30826 3.84609 5.28154 3.84609 5.26458C3.84609 5.24762 3.86391 5.2209 3.88568 5.20521C3.90745 5.18951 3.92526 5.16084 3.92526 5.14146C3.92526 5.1221 3.93417 5.10625 3.94505 5.10625C3.95594 5.10625 3.96484 5.09202 3.96484 5.0746C3.96484 5.05721 3.99156 5.018 4.02422 4.9875C4.05687 4.957 4.08359 4.91975 4.08359 4.90477C4.08359 4.88977 4.10141 4.86465 4.12318 4.84896C4.14495 4.83326 4.16276 4.80815 4.16276 4.79315C4.16276 4.77816 4.18948 4.74092 4.22214 4.71042C4.25479 4.67992 4.28151 4.64447 4.28151 4.63165C4.28151 4.61884 4.31714 4.57413 4.36068 4.53229C4.40422 4.49045 4.43984 4.4462 4.43984 4.43393C4.43984 4.42166 4.50219 4.35015 4.57839 4.275C4.65458 4.19985 4.71693 4.12894 4.71693 4.1174C4.71693 4.09007 5.12564 3.68125 5.15296 3.68125C5.16444 3.68125 5.24432 3.61 5.33047 3.52292C5.41662 3.43583 5.49727 3.36458 5.5097 3.36458C5.52213 3.36458 5.55726 3.33786 5.58776 3.30521C5.61826 3.27255 5.65371 3.24583 5.66653 3.24583C5.67934 3.24583 5.72405 3.21021 5.76588 3.16667C5.80772 3.12313 5.85404 3.0875 5.86882 3.0875C5.88361 3.0875 5.90852 3.06969 5.92422 3.04792C5.93991 3.02615 5.96503 3.00833 5.98003 3.00833C5.99501 3.00833 6.03226 2.98161 6.06276 2.94896C6.09326 2.9163 6.13247 2.88958 6.14986 2.88958C6.16728 2.88958 6.18151 2.88068 6.18151 2.86979C6.18151 2.85891 6.19736 2.85 6.21672 2.85C6.23609 2.85 6.26477 2.83219 6.28047 2.81042C6.29616 2.78865 6.32288 2.77083 6.33984 2.77083C6.3568 2.77083 6.38352 2.75302 6.39922 2.73125C6.41491 2.70948 6.44359 2.69167 6.46297 2.69167C6.48232 2.69167 6.49818 2.68276 6.49818 2.67188C6.49818 2.66099 6.51599 2.65208 6.53776 2.65208C6.55953 2.65208 6.57734 2.64318 6.57734 2.63229C6.57734 2.62141 6.5932 2.6125 6.61255 2.6125C6.63193 2.6125 6.66061 2.59469 6.6763 2.57292C6.692 2.55115 6.72067 2.53333 6.74005 2.53333C6.75941 2.53333 6.77526 2.52443 6.77526 2.51354C6.77526 2.50266 6.79307 2.49375 6.81484 2.49375C6.83661 2.49375 6.85443 2.48484 6.85443 2.47396C6.85443 2.46307 6.87224 2.45417 6.89401 2.45417C6.91578 2.45417 6.93359 2.44526 6.93359 2.43438C6.93359 2.42349 6.95141 2.41458 6.97318 2.41458C6.99495 2.41458 7.01276 2.40568 7.01276 2.39479C7.01276 2.38391 7.03057 2.375 7.05234 2.375C7.07411 2.375 7.09193 2.36609 7.09193 2.35521C7.09193 2.34432 7.10974 2.33542 7.13151 2.33542C7.15328 2.33542 7.17109 2.32651 7.17109 2.31562C7.17109 2.30474 7.18891 2.29583 7.21068 2.29583C7.23245 2.29583 7.25026 2.28693 7.25026 2.27604C7.25026 2.26516 7.27698 2.25625 7.30963 2.25625C7.34229 2.25625 7.36901 2.24734 7.36901 2.23646C7.36901 2.22557 7.38682 2.21667 7.40859 2.21667C7.43036 2.21667 7.44818 2.20776 7.44818 2.19687C7.44818 2.18599 7.46599 2.17708 7.48776 2.17708C7.50953 2.17708 7.52734 2.16818 7.52734 2.15729C7.52734 2.14641 7.55406 2.1375 7.58672 2.1375C7.61937 2.1375 7.64609 2.12859 7.64609 2.11771C7.64609 2.10682 7.66391 2.09792 7.68568 2.09792C7.70745 2.09792 7.72526 2.08901 7.72526 2.07812C7.72526 2.06724 7.75198 2.05833 7.78463 2.05833C7.81729 2.05833 7.84401 2.04943 7.84401 2.03854C7.84401 2.02766 7.87073 2.01875 7.90338 2.01875C7.93604 2.01875 7.96276 2.00984 7.96276 1.99896C7.96276 1.98807 7.98948 1.97917 8.02213 1.97917C8.05479 1.97917 8.08151 1.97026 8.08151 1.95938C8.08151 1.94849 8.10823 1.93958 8.14088 1.93958C8.17354 1.93958 8.20026 1.93068 8.20026 1.91979C8.20026 1.90891 8.22698 1.9 8.25963 1.9C8.29229 1.9 8.31901 1.89109 8.31901 1.88021C8.31901 1.86932 8.35463 1.86042 8.39818 1.86042C8.44172 1.86042 8.47734 1.85151 8.47734 1.84062C8.47734 1.82974 8.51297 1.82083 8.55651 1.82083C8.60005 1.82083 8.63568 1.81193 8.63568 1.80104C8.63568 1.79016 8.68021 1.78125 8.73463 1.78125C8.78906 1.78125 8.83359 1.77234 8.83359 1.76146C8.83359 1.75057 8.86922 1.74167 8.91276 1.74167C8.9563 1.74167 8.99193 1.73276 8.99193 1.72187C8.99193 1.71087 9.04471 1.70208 9.11068 1.70208C9.17664 1.70208 9.22943 1.6933 9.22943 1.68229C9.22943 1.67099 9.2888 1.6625 9.36797 1.6625C9.44713 1.6625 9.50651 1.65401 9.50651 1.64271C9.50651 1.63083 9.58568 1.62292 9.70443 1.62292C9.82318 1.62292 9.90234 1.615 9.90234 1.60312C9.90234 1.59038 10.1068 1.58333 10.4763 1.58333C10.8458 1.58333 11.0503 1.59038 11.0503 1.60312ZM6.93359 5.08646C6.93359 5.09734 6.90687 5.10625 6.87422 5.10625C6.84156 5.10625 6.81484 5.11516 6.81484 5.12604C6.81484 5.13693 6.79899 5.14583 6.77963 5.14583C6.76026 5.14583 6.73158 5.16365 6.71588 5.18542C6.70019 5.20719 6.67579 5.225 6.66167 5.225C6.63074 5.225 6.37943 5.47253 6.37943 5.50299C6.37943 5.51479 6.3349 5.56781 6.28047 5.62083C6.22604 5.67386 6.18151 5.72919 6.18151 5.74382C6.18151 5.75846 6.1637 5.78326 6.14193 5.79896C6.12016 5.81465 6.10234 5.84137 6.10234 5.85833C6.10234 5.87529 6.08453 5.90201 6.06276 5.91771C6.04099 5.9334 6.02318 5.96208 6.02318 5.98146C6.02318 6.00081 6.01427 6.01667 6.00339 6.01667C5.9925 6.01667 5.98359 6.03448 5.98359 6.05625C5.98359 6.07802 5.97469 6.09583 5.9638 6.09583C5.95292 6.09583 5.94401 6.11365 5.94401 6.13542C5.94401 6.15719 5.9351 6.175 5.92422 6.175C5.91333 6.175 5.90443 6.20172 5.90443 6.23438C5.90443 6.26703 5.89552 6.29375 5.88463 6.29375C5.87375 6.29375 5.86484 6.31156 5.86484 6.33333C5.86484 6.3551 5.85594 6.37292 5.84505 6.37292C5.83417 6.37292 5.82526 6.39964 5.82526 6.43229C5.82526 6.46495 5.81635 6.49167 5.80547 6.49167C5.79458 6.49167 5.78568 6.52729 5.78568 6.57083C5.78568 6.61438 5.77677 6.65 5.76588 6.65C5.75488 6.65 5.74609 6.70278 5.74609 6.76875C5.74609 6.83472 5.73731 6.8875 5.7263 6.8875C5.71373 6.8875 5.70651 7.03924 5.70651 7.30312C5.70651 7.56701 5.71373 7.71875 5.7263 7.71875C5.73719 7.71875 5.74609 7.76328 5.74609 7.81771C5.74609 7.87214 5.755 7.91667 5.76588 7.91667C5.77677 7.91667 5.78568 7.95229 5.78568 7.99583C5.78568 8.03938 5.79458 8.075 5.80547 8.075C5.81635 8.075 5.82526 8.11063 5.82526 8.15417C5.82526 8.19771 5.83417 8.23333 5.84505 8.23333C5.85594 8.23333 5.86484 8.26005 5.86484 8.29271C5.86484 8.32536 5.87375 8.35208 5.88463 8.35208C5.89552 8.35208 5.90443 8.3699 5.90443 8.39167C5.90443 8.41344 5.91333 8.43125 5.92422 8.43125C5.9351 8.43125 5.94401 8.45797 5.94401 8.49062C5.94401 8.52328 5.95292 8.55 5.9638 8.55C5.97469 8.55 5.98359 8.56781 5.98359 8.58958C5.98359 8.61135 5.9925 8.62917 6.00339 8.62917C6.01427 8.62917 6.02318 8.64698 6.02318 8.66875C6.02318 8.69052 6.03208 8.70833 6.04297 8.70833C6.05385 8.70833 6.06276 8.73505 6.06276 8.76771C6.06276 8.80036 6.07167 8.82708 6.08255 8.82708C6.09344 8.82708 6.10234 8.84294 6.10234 8.86229C6.10234 8.88167 6.12016 8.91035 6.14193 8.92604C6.1637 8.94174 6.18151 8.97041 6.18151 8.98979C6.18151 9.00915 6.19042 9.025 6.2013 9.025C6.21219 9.025 6.22109 9.04281 6.22109 9.06458C6.22109 9.08635 6.23 9.10417 6.24088 9.10417C6.25177 9.10417 6.26068 9.12198 6.26068 9.14375C6.26068 9.16552 6.26958 9.18333 6.28047 9.18333C6.29135 9.18333 6.30026 9.19919 6.30026 9.21854C6.30026 9.23792 6.31807 9.2666 6.33984 9.28229C6.36161 9.29799 6.37943 9.32471 6.37943 9.34167C6.37943 9.35863 6.39724 9.38535 6.41901 9.40104C6.44078 9.41674 6.45859 9.44345 6.45859 9.46042C6.45859 9.47738 6.47641 9.5041 6.49818 9.51979C6.51995 9.53549 6.53776 9.56221 6.53776 9.57917C6.53776 9.59613 6.55557 9.62285 6.57734 9.63854C6.59911 9.65424 6.61693 9.67935 6.61693 9.69435C6.61693 9.70934 6.64365 9.74658 6.6763 9.77708C6.70896 9.80758 6.73568 9.84483 6.73568 9.85981C6.73568 9.87481 6.75349 9.89993 6.77526 9.91562C6.79703 9.93132 6.81484 9.95644 6.81484 9.97144C6.81484 9.98642 6.84156 10.0237 6.87422 10.0542C6.90687 10.0847 6.93359 10.1203 6.93359 10.1333C6.93359 10.1464 6.96031 10.182 6.99297 10.2125C7.02562 10.243 7.05234 10.2784 7.05234 10.2913C7.05234 10.3041 7.08797 10.3488 7.13151 10.3906C7.17505 10.4325 7.21068 10.477 7.21068 10.4896C7.21068 10.5022 7.2463 10.5467 7.28984 10.5885C7.33338 10.6304 7.36901 10.6746 7.36901 10.6869C7.36901 10.6992 7.43135 10.7707 7.50755 10.8458C7.58375 10.921 7.64609 10.9919 7.64609 11.0033C7.64609 11.0307 8.49056 11.875 8.51792 11.875C8.52945 11.875 8.59136 11.9284 8.65547 11.9937C8.71957 12.0591 8.782 12.1125 8.79421 12.1125C8.8064 12.1125 8.85974 12.157 8.91276 12.2115C8.96578 12.2659 9.01952 12.3104 9.03218 12.3104C9.04485 12.3104 9.08018 12.3371 9.11068 12.3698C9.14118 12.4024 9.1768 12.4292 9.18984 12.4292C9.20289 12.4292 9.23851 12.4559 9.26901 12.4885C9.29951 12.5212 9.33676 12.5479 9.35174 12.5479C9.36674 12.5479 9.39186 12.5657 9.40755 12.5875C9.42325 12.6093 9.44996 12.6271 9.46693 12.6271C9.48389 12.6271 9.51061 12.6449 9.5263 12.6667C9.542 12.6884 9.56872 12.7063 9.58568 12.7063C9.60264 12.7063 9.62936 12.7241 9.64505 12.7458C9.66075 12.7676 9.68746 12.7854 9.70443 12.7854C9.72139 12.7854 9.74811 12.8032 9.7638 12.825C9.7795 12.8468 9.80817 12.8646 9.82755 12.8646C9.84691 12.8646 9.86276 12.8735 9.86276 12.8844C9.86276 12.8953 9.88057 12.9042 9.90234 12.9042C9.92411 12.9042 9.94193 12.9131 9.94193 12.924C9.94193 12.9348 9.95778 12.9437 9.97714 12.9437C9.99651 12.9437 10.0252 12.9616 10.0409 12.9833C10.0566 13.0051 10.0853 13.0229 10.1046 13.0229C10.124 13.0229 10.1398 13.0318 10.1398 13.0427C10.1398 13.0536 10.1577 13.0625 10.1794 13.0625C10.2012 13.0625 10.219 13.0714 10.219 13.0823C10.219 13.0932 10.2368 13.1021 10.2586 13.1021C10.2804 13.1021 10.2982 13.111 10.2982 13.1219C10.2982 13.1328 10.316 13.1417 10.3378 13.1417C10.3595 13.1417 10.3773 13.1506 10.3773 13.1615C10.3773 13.1723 10.3952 13.1812 10.4169 13.1812C10.4387 13.1812 10.4565 13.1902 10.4565 13.201C10.4565 13.2119 10.4743 13.2208 10.4961 13.2208C10.5179 13.2208 10.5357 13.2297 10.5357 13.2406C10.5357 13.2515 10.5535 13.2604 10.5753 13.2604C10.597 13.2604 10.6148 13.2693 10.6148 13.2802C10.6148 13.2911 10.6416 13.3 10.6742 13.3C10.7069 13.3 10.7336 13.3089 10.7336 13.3198C10.7336 13.3307 10.7514 13.3396 10.7732 13.3396C10.7949 13.3396 10.8128 13.3485 10.8128 13.3594C10.8128 13.3703 10.8395 13.3792 10.8721 13.3792C10.9048 13.3792 10.9315 13.3881 10.9315 13.399C10.9315 13.4098 10.9493 13.4187 10.9711 13.4187C10.9929 13.4187 11.0107 13.4277 11.0107 13.4385C11.0107 13.4494 11.0374 13.4583 11.0701 13.4583C11.1027 13.4583 11.1294 13.4672 11.1294 13.4781C11.1294 13.489 11.1472 13.4979 11.169 13.4979C11.1908 13.4979 11.2086 13.5068 11.2086 13.5177C11.2086 13.5286 11.2353 13.5375 11.268 13.5375C11.3006 13.5375 11.3273 13.5464 11.3273 13.5573C11.3273 13.5682 11.3452 13.5771 11.3669 13.5771C11.3887 13.5771 11.4065 13.586 11.4065 13.5969C11.4065 13.6078 11.4332 13.6167 11.4659 13.6167C11.4985 13.6167 11.5253 13.6256 11.5253 13.6365C11.5253 13.6473 11.552 13.6562 11.5846 13.6562C11.6173 13.6562 11.644 13.6652 11.644 13.676C11.644 13.6869 11.6707 13.6958 11.7034 13.6958C11.736 13.6958 11.7628 13.7047 11.7628 13.7156C11.7628 13.7265 11.7895 13.7354 11.8221 13.7354C11.8548 13.7354 11.8815 13.7443 11.8815 13.7552C11.8815 13.7661 11.9082 13.775 11.9409 13.775C11.9735 13.775 12.0003 13.7839 12.0003 13.7948C12.0003 13.8057 12.0359 13.8146 12.0794 13.8146C12.123 13.8146 12.1586 13.8235 12.1586 13.8344C12.1586 13.8453 12.1942 13.8542 12.2378 13.8542C12.2813 13.8542 12.3169 13.8631 12.3169 13.874C12.3169 13.8853 12.3763 13.8938 12.4555 13.8938C12.5346 13.8938 12.594 13.9022 12.594 13.9135C12.594 13.926 12.7193 13.9333 12.9305 13.9333C13.1416 13.9333 13.2669 13.926 13.2669 13.9135C13.2669 13.902 13.3329 13.8938 13.4253 13.8938C13.5176 13.8938 13.5836 13.8855 13.5836 13.874C13.5836 13.8631 13.6103 13.8542 13.643 13.8542C13.6756 13.8542 13.7023 13.8453 13.7023 13.8344C13.7023 13.8235 13.7291 13.8146 13.7617 13.8146C13.7944 13.8146 13.8211 13.8057 13.8211 13.7948C13.8211 13.7839 13.8478 13.775 13.8805 13.775C13.9131 13.775 13.9398 13.7661 13.9398 13.7552C13.9398 13.7443 13.9577 13.7354 13.9794 13.7354C14.0012 13.7354 14.019 13.7265 14.019 13.7156C14.019 13.7047 14.0368 13.6958 14.0586 13.6958C14.0804 13.6958 14.0982 13.6869 14.0982 13.676C14.0982 13.6652 14.116 13.6562 14.1378 13.6562C14.1595 13.6562 14.1773 13.6473 14.1773 13.6365C14.1773 13.6256 14.1932 13.6167 14.2126 13.6167C14.2319 13.6167 14.2606 13.5989 14.2763 13.5771C14.292 13.5553 14.3187 13.5375 14.3357 13.5375C14.3526 13.5375 14.3794 13.5197 14.3951 13.4979C14.4107 13.4761 14.4375 13.4583 14.4544 13.4583C14.4714 13.4583 14.4981 13.4405 14.5138 13.4187C14.5295 13.397 14.5538 13.3792 14.5679 13.3792C14.6013 13.3792 14.969 13.0114 14.969 12.9781C14.969 12.964 14.9868 12.9397 15.0086 12.924C15.0304 12.9083 15.0482 12.8796 15.0482 12.8602C15.0482 12.8409 15.0571 12.825 15.068 12.825C15.0789 12.825 15.0878 12.7983 15.0878 12.7656C15.0878 12.733 15.0967 12.7063 15.1076 12.7063C15.1184 12.7063 15.1273 12.6795 15.1273 12.6469C15.1273 12.6142 15.1362 12.5875 15.1471 12.5875C15.158 12.5875 15.1669 12.5519 15.1669 12.5083C15.1669 12.4648 15.1758 12.4292 15.1867 12.4292C15.1976 12.4292 15.2065 12.3846 15.2065 12.3302C15.2065 12.2758 15.2154 12.2312 15.2263 12.2312C15.2386 12.2312 15.2461 12.1257 15.2461 11.9542C15.2461 11.7826 15.2386 11.6771 15.2263 11.6771C15.2154 11.6771 15.2065 11.6631 15.2065 11.646C15.2065 11.6289 15.1938 11.6022 15.1782 11.5866C15.1627 11.5711 15.136 11.5583 15.1189 11.5583C15.1018 11.5583 15.0878 11.5494 15.0878 11.5385C15.0878 11.5277 15.0699 11.5188 15.0482 11.5188C15.0264 11.5188 15.0086 11.5098 15.0086 11.499C15.0086 11.4881 14.9908 11.4792 14.969 11.4792C14.9472 11.4792 14.9294 11.4703 14.9294 11.4594C14.9294 11.4485 14.9116 11.4396 14.8898 11.4396C14.8681 11.4396 14.8503 11.4307 14.8503 11.4198C14.8503 11.4089 14.8324 11.4 14.8107 11.4C14.7889 11.4 14.7711 11.3911 14.7711 11.3802C14.7711 11.3693 14.7533 11.3604 14.7315 11.3604C14.7097 11.3604 14.6919 11.3515 14.6919 11.3406C14.6919 11.3297 14.6741 11.3208 14.6523 11.3208C14.6306 11.3208 14.6128 11.3119 14.6128 11.301C14.6128 11.2902 14.5949 11.2812 14.5732 11.2812C14.5514 11.2812 14.5336 11.2723 14.5336 11.2615C14.5336 11.2506 14.5158 11.2417 14.494 11.2417C14.4722 11.2417 14.4544 11.2328 14.4544 11.2219C14.4544 11.211 14.4366 11.2021 14.4148 11.2021C14.3931 11.2021 14.3753 11.1932 14.3753 11.1823C14.3753 11.1714 14.3574 11.1625 14.3357 11.1625C14.3139 11.1625 14.2961 11.1536 14.2961 11.1427C14.2961 11.1318 14.2783 11.1229 14.2565 11.1229C14.2347 11.1229 14.2169 11.114 14.2169 11.1031C14.2169 11.0922 14.1991 11.0833 14.1773 11.0833C14.1556 11.0833 14.1378 11.0744 14.1378 11.0635C14.1378 11.0527 14.1199 11.0437 14.0982 11.0437C14.0764 11.0437 14.0586 11.0348 14.0586 11.024C14.0586 11.0131 14.0408 11.0042 14.019 11.0042C13.9972 11.0042 13.9794 10.9953 13.9794 10.9844C13.9794 10.9735 13.9616 10.9646 13.9398 10.9646C13.9181 10.9646 13.9003 10.9557 13.9003 10.9448C13.9003 10.9339 13.8824 10.925 13.8607 10.925C13.8389 10.925 13.8211 10.9161 13.8211 10.9052C13.8211 10.8943 13.8033 10.8854 13.7815 10.8854C13.7597 10.8854 13.7419 10.8765 13.7419 10.8656C13.7419 10.8547 13.7152 10.8458 13.6826 10.8458C13.6499 10.8458 13.6232 10.8369 13.6232 10.826C13.6232 10.8152 13.6054 10.8062 13.5836 10.8062C13.5618 10.8062 13.544 10.7973 13.544 10.7865C13.544 10.7756 13.5262 10.7667 13.5044 10.7667C13.4827 10.7667 13.4648 10.7578 13.4648 10.7469C13.4648 10.736 13.447 10.7271 13.4253 10.7271C13.4035 10.7271 13.3857 10.7182 13.3857 10.7073C13.3857 10.6964 13.3679 10.6875 13.3461 10.6875C13.3243 10.6875 13.3065 10.6786 13.3065 10.6677C13.3065 10.6568 13.2798 10.6479 13.2471 10.6479C13.2145 10.6479 13.1878 10.639 13.1878 10.6281C13.1878 10.6172 13.1699 10.6083 13.1482 10.6083C13.1264 10.6083 13.1086 10.5994 13.1086 10.5885C13.1086 10.5769 13.0391 10.5687 12.9397 10.5687C12.7734 10.5687 12.7698 10.5698 12.7022 10.6374C12.6645 10.6751 12.6336 10.7161 12.6336 10.7284C12.6336 10.7407 12.6069 10.7758 12.5742 10.8062C12.5416 10.8367 12.5148 10.8724 12.5148 10.8854C12.5148 10.8985 12.4881 10.9341 12.4555 10.9646C12.4228 10.9951 12.3961 11.0304 12.3961 11.0431C12.3961 11.0557 12.3516 11.1095 12.2971 11.1625C12.2427 11.2155 12.1982 11.269 12.1982 11.2812C12.1982 11.2935 12.1536 11.347 12.0992 11.4C12.0448 11.453 12.0003 11.5061 12.0003 11.5179C12.0003 11.5297 11.9515 11.5882 11.8918 11.6478C11.8178 11.7219 11.7676 11.7562 11.7335 11.7562C11.7061 11.7562 11.6836 11.7652 11.6836 11.776C11.6836 11.7869 11.6569 11.7958 11.6242 11.7958C11.5916 11.7958 11.5648 11.7869 11.5648 11.776C11.5648 11.7652 11.5381 11.7562 11.5055 11.7562C11.4728 11.7562 11.4461 11.7473 11.4461 11.7365C11.4461 11.7256 11.4283 11.7167 11.4065 11.7167C11.3847 11.7167 11.3669 11.7078 11.3669 11.6969C11.3669 11.686 11.3402 11.6771 11.3076 11.6771C11.2749 11.6771 11.2482 11.6682 11.2482 11.6573C11.2482 11.6464 11.2304 11.6375 11.2086 11.6375C11.1868 11.6375 11.169 11.6286 11.169 11.6177C11.169 11.6068 11.1512 11.5979 11.1294 11.5979C11.1077 11.5979 11.0898 11.589 11.0898 11.5781C11.0898 11.5672 11.072 11.5583 11.0503 11.5583C11.0285 11.5583 11.0107 11.5494 11.0107 11.5385C11.0107 11.5277 10.9929 11.5188 10.9711 11.5188C10.9493 11.5188 10.9315 11.5098 10.9315 11.499C10.9315 11.4881 10.9137 11.4792 10.8919 11.4792C10.8702 11.4792 10.8523 11.4703 10.8523 11.4594C10.8523 11.4485 10.8345 11.4396 10.8128 11.4396C10.791 11.4396 10.7732 11.4307 10.7732 11.4198C10.7732 11.4089 10.7554 11.4 10.7336 11.4C10.7118 11.4 10.694 11.3911 10.694 11.3802C10.694 11.3693 10.6762 11.3604 10.6544 11.3604C10.6327 11.3604 10.6148 11.3515 10.6148 11.3406C10.6148 11.3297 10.597 11.3208 10.5753 11.3208C10.5535 11.3208 10.5357 11.3119 10.5357 11.301C10.5357 11.2902 10.5198 11.2812 10.5005 11.2812C10.4811 11.2812 10.4524 11.2634 10.4367 11.2417C10.421 11.2199 10.3943 11.2021 10.3773 11.2021C10.3604 11.2021 10.3337 11.1843 10.318 11.1625C10.3023 11.1407 10.2736 11.1229 10.2542 11.1229C10.2349 11.1229 10.219 11.114 10.219 11.1031C10.219 11.0922 10.2048 11.0833 10.1874 11.0833C10.17 11.0833 10.1308 11.0566 10.1003 11.024C10.0698 10.9913 10.0341 10.9646 10.0211 10.9646C10.008 10.9646 9.97243 10.9379 9.94193 10.9052C9.91143 10.8726 9.8758 10.8458 9.86276 10.8458C9.84972 10.8458 9.81409 10.8191 9.78359 10.7865C9.75309 10.7538 9.71796 10.7271 9.70553 10.7271C9.69311 10.7271 9.61245 10.6558 9.5263 10.5687C9.44015 10.4817 9.36007 10.4104 9.34835 10.4104C9.32067 10.4104 9.18984 10.2796 9.18984 10.2519C9.18984 10.2402 9.11859 10.1601 9.03151 10.074C8.94443 9.98781 8.87318 9.90733 8.87318 9.89512C8.87318 9.88293 8.83755 9.83871 8.79401 9.79688C8.75047 9.75504 8.71484 9.71033 8.71484 9.69752C8.71484 9.6847 8.68812 9.64925 8.65547 9.61875C8.62281 9.58825 8.59609 9.55263 8.59609 9.53958C8.59609 9.52654 8.56937 9.49092 8.53672 9.46042C8.50406 9.42992 8.47734 9.39267 8.47734 9.37769C8.47734 9.36269 8.45953 9.33757 8.43776 9.32187C8.41599 9.30618 8.39818 9.27946 8.39818 9.2625C8.39818 9.24554 8.38036 9.21882 8.35859 9.20312C8.33682 9.18743 8.31901 9.15875 8.31901 9.13938C8.31901 9.12002 8.3101 9.10417 8.29922 9.10417C8.28833 9.10417 8.27943 9.08831 8.27943 9.06896C8.27943 9.04958 8.26161 9.0209 8.23984 9.00521C8.21807 8.98951 8.20026 8.96084 8.20026 8.94146C8.20026 8.9221 8.19135 8.90625 8.18047 8.90625C8.16958 8.90625 8.16068 8.88844 8.16068 8.86667C8.16068 8.8449 8.15177 8.82708 8.14088 8.82708C8.13 8.82708 8.12109 8.78255 8.12109 8.72812C8.12109 8.6737 8.13 8.62917 8.14088 8.62917C8.15177 8.62917 8.16068 8.61494 8.16068 8.59752C8.16068 8.58012 8.1874 8.54092 8.22005 8.51042C8.25271 8.47992 8.27943 8.44447 8.27943 8.43165C8.27943 8.41884 8.31505 8.37413 8.35859 8.33229C8.40213 8.29045 8.43776 8.24574 8.43776 8.23294C8.43776 8.22011 8.46448 8.18467 8.49713 8.15417C8.52979 8.12367 8.55651 8.08804 8.55651 8.075C8.55651 8.06196 8.58323 8.02633 8.61588 7.99583C8.64854 7.96533 8.67526 7.92971 8.67526 7.91667C8.67526 7.90362 8.70198 7.868 8.73463 7.8375C8.76729 7.807 8.79401 7.76779 8.79401 7.7504C8.79401 7.73298 8.80292 7.71875 8.8138 7.71875C8.82469 7.71875 8.83359 7.70094 8.83359 7.67917C8.83359 7.6574 8.8425 7.63958 8.85338 7.63958C8.86427 7.63958 8.87318 7.62177 8.87318 7.6C8.87318 7.57823 8.88208 7.56042 8.89297 7.56042C8.90397 7.56042 8.91276 7.50763 8.91276 7.44167C8.91276 7.3757 8.90397 7.32292 8.89297 7.32292C8.88208 7.32292 8.87318 7.2962 8.87318 7.26354C8.87318 7.23089 8.86427 7.20417 8.85338 7.20417C8.8425 7.20417 8.83359 7.18635 8.83359 7.16458C8.83359 7.14281 8.82469 7.125 8.8138 7.125C8.80292 7.125 8.79401 7.10719 8.79401 7.08542C8.79401 7.06365 8.7851 7.04583 8.77422 7.04583C8.76333 7.04583 8.75443 7.02802 8.75443 7.00625C8.75443 6.98448 8.74552 6.96667 8.73463 6.96667C8.72375 6.96667 8.71484 6.93995 8.71484 6.90729C8.71484 6.87464 8.70594 6.84792 8.69505 6.84792C8.68417 6.84792 8.67526 6.8301 8.67526 6.80833C8.67526 6.78656 8.66635 6.76875 8.65547 6.76875C8.64458 6.76875 8.63568 6.74203 8.63568 6.70937C8.63568 6.67672 8.62677 6.65 8.61588 6.65C8.605 6.65 8.59609 6.63219 8.59609 6.61042C8.59609 6.58865 8.58719 6.57083 8.5763 6.57083C8.56542 6.57083 8.55651 6.54411 8.55651 6.51146C8.55651 6.4788 8.5476 6.45208 8.53672 6.45208C8.52583 6.45208 8.51693 6.43427 8.51693 6.4125C8.51693 6.39073 8.50802 6.37292 8.49713 6.37292C8.48625 6.37292 8.47734 6.3551 8.47734 6.33333C8.47734 6.31156 8.46844 6.29375 8.45755 6.29375C8.44667 6.29375 8.43776 6.26703 8.43776 6.23438C8.43776 6.20172 8.42885 6.175 8.41797 6.175C8.40708 6.175 8.39818 6.15719 8.39818 6.13542C8.39818 6.11365 8.38927 6.09583 8.37838 6.09583C8.3675 6.09583 8.35859 6.06911 8.35859 6.03646C8.35859 6.0038 8.34969 5.97708 8.3388 5.97708C8.32792 5.97708 8.31901 5.95927 8.31901 5.9375C8.31901 5.91573 8.3101 5.89792 8.29922 5.89792C8.28833 5.89792 8.27943 5.8712 8.27943 5.83854C8.27943 5.80589 8.27052 5.77917 8.25963 5.77917C8.24875 5.77917 8.23984 5.76135 8.23984 5.73958C8.23984 5.71781 8.23094 5.7 8.22005 5.7C8.20917 5.7 8.20026 5.68219 8.20026 5.66042C8.20026 5.63865 8.19135 5.62083 8.18047 5.62083C8.16958 5.62083 8.16068 5.59411 8.16068 5.56146C8.16068 5.5288 8.15177 5.50208 8.14088 5.50208C8.13 5.50208 8.12109 5.48427 8.12109 5.4625C8.12109 5.44073 8.11219 5.42292 8.1013 5.42292C8.09042 5.42292 8.08151 5.4051 8.08151 5.38333C8.08151 5.36156 8.0726 5.34375 8.06172 5.34375C8.05083 5.34375 8.04193 5.33015 8.04193 5.31355C8.04193 5.27426 7.87391 5.10625 7.83463 5.10625C7.81802 5.10625 7.80443 5.09734 7.80443 5.08646C7.80443 5.07387 7.64609 5.06667 7.36901 5.06667C7.09193 5.06667 6.93359 5.07387 6.93359 5.08646Z" fill="white"/>
</svg>
