<svg width="24" height="19" viewBox="0 0 24 19" fill="none" xmlns="http://www.w3.org/2000/svg">
<path fill-rule="evenodd" clip-rule="evenodd" d="M22.4915 0.0223005C22.4915 0.0345657 22.4513 0.0446009 22.4023 0.0446009C22.3532 0.0446009 22.3131 0.0546362 22.3131 0.0669014C22.3131 0.0791667 22.293 0.0892019 22.2685 0.0892019C22.2439 0.0892019 22.2239 0.0992371 22.2239 0.111502C22.2239 0.123768 22.1938 0.133803 22.157 0.133803C22.1202 0.133803 22.0901 0.143838 22.0901 0.156103C22.0901 0.168369 22.06 0.178404 22.0232 0.178404C21.9864 0.178404 21.9563 0.188439 21.9563 0.200704C21.9563 0.212969 21.9362 0.223005 21.9117 0.223005C21.8871 0.223005 21.8671 0.23304 21.8671 0.245305C21.8671 0.25757 21.837 0.267606 21.8002 0.267606C21.7634 0.267606 21.7333 0.277641 21.7333 0.289906C21.7333 0.302171 21.7032 0.312207 21.6664 0.312207C21.6296 0.312207 21.5995 0.322242 21.5995 0.334507C21.5995 0.346772 21.5794 0.356808 21.5549 0.356808C21.5303 0.356808 21.5103 0.366843 21.5103 0.379108C21.5103 0.391373 21.4802 0.401408 21.4434 0.401408C21.4066 0.401408 21.3765 0.411444 21.3765 0.423709C21.3765 0.435974 21.3564 0.446009 21.3319 0.446009C21.3073 0.446009 21.2873 0.456045 21.2873 0.46831C21.2873 0.480575 21.2571 0.49061 21.2203 0.49061C21.1836 0.49061 21.1534 0.500646 21.1534 0.512911C21.1534 0.525176 21.1233 0.535211 21.0865 0.535211C21.0497 0.535211 21.0196 0.545246 21.0196 0.557512C21.0196 0.569777 20.9996 0.579812 20.975 0.579812C20.9505 0.579812 20.9304 0.589847 20.9304 0.602113C20.9304 0.614378 20.9003 0.624413 20.8635 0.624413C20.8267 0.624413 20.7966 0.634448 20.7966 0.646714C20.7966 0.658979 20.7766 0.669014 20.752 0.669014C20.7275 0.669014 20.7074 0.679049 20.7074 0.691315C20.7074 0.70358 20.6773 0.713615 20.6405 0.713615C20.6037 0.713615 20.5736 0.72365 20.5736 0.735915C20.5736 0.748181 20.5435 0.758216 20.5067 0.758216C20.4699 0.758216 20.4398 0.768251 20.4398 0.780516C20.4398 0.792782 20.4198 0.802817 20.3952 0.802817C20.3707 0.802817 20.3506 0.812852 20.3506 0.825117C20.3506 0.837383 20.3205 0.847418 20.2837 0.847418C20.2469 0.847418 20.2168 0.857453 20.2168 0.869718C20.2168 0.881984 20.1968 0.892019 20.1722 0.892019C20.1477 0.892019 20.1276 0.902054 20.1276 0.914319C20.1276 0.926584 20.0975 0.93662 20.0607 0.93662C20.0239 0.93662 19.9938 0.946655 19.9938 0.95892C19.9938 0.971185 19.9637 0.981221 19.9269 0.981221C19.8901 0.981221 19.86 0.991256 19.86 1.00352C19.86 1.01579 19.8399 1.02582 19.8154 1.02582C19.7909 1.02582 19.7708 1.03586 19.7708 1.04812C19.7708 1.06039 19.7407 1.07042 19.7039 1.07042C19.6671 1.07042 19.637 1.08046 19.637 1.09272C19.637 1.10499 19.6069 1.11502 19.5701 1.11502C19.5333 1.11502 19.5032 1.12506 19.5032 1.13732C19.5032 1.14959 19.4831 1.15962 19.4586 1.15962C19.4341 1.15962 19.414 1.16966 19.414 1.18192C19.414 1.19419 19.3839 1.20423 19.3471 1.20423C19.3103 1.20423 19.2802 1.21426 19.2802 1.22653C19.2802 1.23879 19.2601 1.24883 19.2356 1.24883C19.2111 1.24883 19.191 1.25886 19.191 1.27113C19.191 1.28339 19.1609 1.29343 19.1241 1.29343C19.0873 1.29343 19.0572 1.30346 19.0572 1.31573C19.0572 1.32799 19.0271 1.33803 18.9903 1.33803C18.9535 1.33803 18.9234 1.34806 18.9234 1.36033C18.9234 1.37259 18.9033 1.38263 18.8788 1.38263C18.8543 1.38263 18.8342 1.39266 18.8342 1.40493C18.8342 1.41719 18.8041 1.42723 18.7673 1.42723C18.7305 1.42723 18.7004 1.43727 18.7004 1.44953C18.7004 1.4618 18.6803 1.47183 18.6558 1.47183C18.6313 1.47183 18.6112 1.48187 18.6112 1.49413C18.6112 1.5064 18.5811 1.51643 18.5443 1.51643C18.5075 1.51643 18.4774 1.52647 18.4774 1.53873C18.4774 1.551 18.4473 1.56103 18.4105 1.56103C18.3737 1.56103 18.3436 1.57107 18.3436 1.58333C18.3436 1.5956 18.3235 1.60563 18.299 1.60563C18.2745 1.60563 18.2544 1.61567 18.2544 1.62793C18.2544 1.6402 18.2243 1.65023 18.1875 1.65023C18.1507 1.65023 18.1206 1.66027 18.1206 1.67254C18.1206 1.6848 18.0905 1.69484 18.0537 1.69484C18.0169 1.69484 17.9868 1.70487 17.9868 1.71714C17.9868 1.7294 17.9667 1.73944 17.9422 1.73944C17.9176 1.73944 17.8976 1.74947 17.8976 1.76174C17.8976 1.774 17.8675 1.78404 17.8307 1.78404C17.7939 1.78404 17.7638 1.79407 17.7638 1.80634C17.7638 1.8186 17.7437 1.82864 17.7192 1.82864C17.6946 1.82864 17.6746 1.83867 17.6746 1.85094C17.6746 1.8632 17.6445 1.87324 17.6077 1.87324C17.5709 1.87324 17.5408 1.88327 17.5408 1.89554C17.5408 1.90781 17.5107 1.91784 17.4739 1.91784C17.4371 1.91784 17.407 1.92788 17.407 1.94014C17.407 1.95241 17.3869 1.96244 17.3624 1.96244C17.3378 1.96244 17.3178 1.97248 17.3178 1.98474C17.3178 1.99701 17.2877 2.00704 17.2509 2.00704C17.2141 2.00704 17.184 2.01708 17.184 2.02934C17.184 2.04161 17.1639 2.05164 17.1394 2.05164C17.1148 2.05164 17.0948 2.06168 17.0948 2.07394C17.0948 2.08621 17.0647 2.09624 17.0279 2.09624C16.9911 2.09624 16.961 2.10628 16.961 2.11854C16.961 2.13081 16.9309 2.14085 16.8941 2.14085C16.8573 2.14085 16.8272 2.15088 16.8272 2.16315C16.8272 2.17541 16.8071 2.18545 16.7826 2.18545C16.758 2.18545 16.738 2.19548 16.738 2.20775C16.738 2.22001 16.7078 2.23005 16.6711 2.23005C16.6343 2.23005 16.6042 2.24008 16.6042 2.25235C16.6042 2.26461 16.5841 2.27465 16.5595 2.27465C16.535 2.27465 16.5149 2.28468 16.5149 2.29695C16.5149 2.30921 16.4848 2.31925 16.448 2.31925C16.4113 2.31925 16.3811 2.32928 16.3811 2.34155C16.3811 2.35381 16.351 2.36385 16.3142 2.36385C16.2774 2.36385 16.2473 2.37388 16.2473 2.38615C16.2473 2.39842 16.2273 2.40845 16.2027 2.40845C16.1782 2.40845 16.1581 2.41849 16.1581 2.43075C16.1581 2.44302 16.128 2.45305 16.0912 2.45305C16.0544 2.45305 16.0243 2.46309 16.0243 2.47535C16.0243 2.48762 15.9942 2.49765 15.9574 2.49765C15.9206 2.49765 15.8905 2.50769 15.8905 2.51995C15.8905 2.53222 15.8705 2.54225 15.8459 2.54225C15.8214 2.54225 15.8013 2.55229 15.8013 2.56455C15.8013 2.57682 15.7712 2.58685 15.7344 2.58685C15.6976 2.58685 15.6675 2.59689 15.6675 2.60915C15.6675 2.62142 15.6475 2.63146 15.6229 2.63146C15.5984 2.63146 15.5783 2.64149 15.5783 2.65376C15.5783 2.66602 15.5482 2.67606 15.5114 2.67606C15.4746 2.67606 15.4445 2.68609 15.4445 2.69836C15.4445 2.71062 15.4144 2.72066 15.3776 2.72066C15.3408 2.72066 15.3107 2.73069 15.3107 2.74296C15.3107 2.75522 15.2907 2.76526 15.2661 2.76526C15.2416 2.76526 15.2215 2.77529 15.2215 2.78756C15.2215 2.79982 15.1914 2.80986 15.1546 2.80986C15.1178 2.80986 15.0877 2.81989 15.0877 2.83216C15.0877 2.84442 15.0676 2.85446 15.0431 2.85446C15.0186 2.85446 14.9985 2.8645 14.9985 2.87676C14.9985 2.88903 14.9684 2.89906 14.9316 2.89906C14.8948 2.89906 14.8647 2.9091 14.8647 2.92136C14.8647 2.93363 14.8346 2.94366 14.7978 2.94366C14.761 2.94366 14.7309 2.9537 14.7309 2.96596C14.7309 2.97823 14.7108 2.98826 14.6863 2.98826C14.6618 2.98826 14.6417 2.9983 14.6417 3.01056C14.6417 3.02283 14.6116 3.03286 14.5748 3.03286C14.538 3.03286 14.5079 3.0429 14.5079 3.05516C14.5079 3.06743 14.4878 3.07746 14.4633 3.07746C14.4388 3.07746 14.4187 3.0875 14.4187 3.09977C14.4187 3.11203 14.3886 3.12207 14.3518 3.12207C14.315 3.12207 14.2849 3.1321 14.2849 3.14437C14.2849 3.15663 14.2548 3.16667 14.218 3.16667C14.1812 3.16667 14.1511 3.1767 14.1511 3.18897C14.1511 3.20123 14.131 3.21127 14.1065 3.21127C14.082 3.21127 14.0619 3.2213 14.0619 3.23357C14.0619 3.24583 14.0318 3.25587 13.995 3.25587C13.9582 3.25587 13.9281 3.2659 13.9281 3.27817C13.9281 3.29043 13.898 3.30047 13.8612 3.30047C13.8244 3.30047 13.7943 3.3105 13.7943 3.32277C13.7943 3.33504 13.7742 3.34507 13.7497 3.34507C13.7252 3.34507 13.7051 3.35511 13.7051 3.36737C13.7051 3.37964 13.675 3.38967 13.6382 3.38967C13.6014 3.38967 13.5713 3.39971 13.5713 3.41197C13.5713 3.42424 13.5512 3.43427 13.5267 3.43427C13.5022 3.43427 13.4821 3.44431 13.4821 3.45657C13.4821 3.46884 13.452 3.47887 13.4152 3.47887C13.3784 3.47887 13.3483 3.48891 13.3483 3.50117C13.3483 3.51344 13.3182 3.52347 13.2814 3.52347C13.2446 3.52347 13.2145 3.53351 13.2145 3.54577C13.2145 3.55804 13.1944 3.56807 13.1699 3.56807C13.1453 3.56807 13.1253 3.57811 13.1253 3.59038C13.1253 3.60264 13.0952 3.61268 13.0584 3.61268C13.0216 3.61268 12.9915 3.62271 12.9915 3.63498C12.9915 3.64724 12.9714 3.65728 12.9469 3.65728C12.9223 3.65728 12.9023 3.66731 12.9023 3.67958C12.9023 3.69184 12.8722 3.70188 12.8354 3.70188C12.7986 3.70188 12.7685 3.71191 12.7685 3.72418C12.7685 3.73644 12.7384 3.74648 12.7016 3.74648C12.6648 3.74648 12.6347 3.75651 12.6347 3.76878C12.6347 3.78104 12.6146 3.79108 12.5901 3.79108C12.5655 3.79108 12.5455 3.80112 12.5455 3.81338C12.5455 3.82565 12.5154 3.83568 12.4786 3.83568C12.4418 3.83568 12.4117 3.84572 12.4117 3.85798C12.4117 3.87025 12.3916 3.88028 12.3671 3.88028C12.3425 3.88028 12.3225 3.89032 12.3225 3.90258C12.3225 3.91485 12.2924 3.92488 12.2556 3.92488C12.2188 3.92488 12.1887 3.93492 12.1887 3.94718C12.1887 3.95945 12.1586 3.96948 12.1218 3.96948C12.085 3.96948 12.0549 3.97952 12.0549 3.99178C12.0549 4.00405 12.0348 4.01408 12.0103 4.01408C11.9857 4.01408 11.9657 4.02412 11.9657 4.03639C11.9657 4.04865 11.9355 4.05869 11.8988 4.05869C11.862 4.05869 11.8318 4.06872 11.8318 4.08099C11.8318 4.09325 11.8017 4.10329 11.7649 4.10329C11.7282 4.10329 11.698 4.11332 11.698 4.12559C11.698 4.13785 11.678 4.14789 11.6534 4.14789C11.6289 4.14789 11.6088 4.15792 11.6088 4.17019C11.6088 4.18245 11.5787 4.19249 11.5419 4.19249C11.5051 4.19249 11.475 4.20252 11.475 4.21479C11.475 4.22705 11.455 4.23709 11.4304 4.23709C11.4059 4.23709 11.3858 4.24712 11.3858 4.25939C11.3858 4.27165 11.3557 4.28169 11.3189 4.28169C11.2821 4.28169 11.252 4.29173 11.252 4.30399C11.252 4.31626 11.2219 4.32629 11.1851 4.32629C11.1483 4.32629 11.1182 4.33633 11.1182 4.34859C11.1182 4.36086 11.0982 4.37089 11.0736 4.37089C11.0491 4.37089 11.029 4.38093 11.029 4.39319C11.029 4.40546 10.9989 4.41549 10.9621 4.41549C10.9253 4.41549 10.8952 4.42553 10.8952 4.43779C10.8952 4.45006 10.8752 4.46009 10.8506 4.46009C10.8261 4.46009 10.806 4.47013 10.806 4.48239C10.806 4.49466 10.7759 4.50469 10.7391 4.50469C10.7023 4.50469 10.6722 4.51473 10.6722 4.527C10.6722 4.53926 10.6421 4.5493 10.6053 4.5493C10.5685 4.5493 10.5384 4.55933 10.5384 4.5716C10.5384 4.58386 10.5184 4.5939 10.4938 4.5939C10.4693 4.5939 10.4492 4.60393 10.4492 4.6162C10.4492 4.62846 10.4191 4.6385 10.3823 4.6385C10.3455 4.6385 10.3154 4.64853 10.3154 4.6608C10.3154 4.67306 10.2853 4.6831 10.2485 4.6831C10.2117 4.6831 10.1816 4.69313 10.1816 4.7054C10.1816 4.71766 10.1615 4.7277 10.137 4.7277C10.1125 4.7277 10.0924 4.73773 10.0924 4.75C10.0924 4.76227 10.0623 4.7723 10.0255 4.7723C9.98872 4.7723 9.95861 4.78234 9.95861 4.7946C9.95861 4.80687 9.93854 4.8169 9.91401 4.8169C9.88948 4.8169 9.86941 4.82694 9.86941 4.8392C9.86941 4.85147 9.8393 4.8615 9.80251 4.8615C9.76571 4.8615 9.73561 4.87154 9.73561 4.8838C9.73561 4.89607 9.7055 4.9061 9.6687 4.9061C9.63191 4.9061 9.6018 4.91614 9.6018 4.9284C9.6018 4.94067 9.58173 4.9507 9.5572 4.9507C9.53267 4.9507 9.5126 4.96074 9.5126 4.973C9.5126 4.98527 9.48249 4.99531 9.4457 4.99531C9.4089 4.99531 9.3788 5.00534 9.3788 5.01761C9.3788 5.02987 9.35873 5.03991 9.3342 5.03991C9.30967 5.03991 9.2896 5.04994 9.2896 5.06221C9.2896 5.07447 9.25949 5.08451 9.22269 5.08451C9.1859 5.08451 9.15579 5.09454 9.15579 5.10681C9.15579 5.11907 9.12569 5.12911 9.08889 5.12911C9.0521 5.12911 9.02199 5.13914 9.02199 5.15141C9.02199 5.16367 9.00192 5.17371 8.97739 5.17371C8.95286 5.17371 8.93279 5.18374 8.93279 5.19601C8.93279 5.20827 8.90268 5.21831 8.86589 5.21831C8.82909 5.21831 8.79899 5.22834 8.79899 5.24061C8.79899 5.25288 8.77891 5.26291 8.75438 5.26291C8.72985 5.26291 8.70978 5.27295 8.70978 5.28521C8.70978 5.29748 8.67968 5.30751 8.64288 5.30751C8.60609 5.30751 8.57598 5.31755 8.57598 5.32981C8.57598 5.34208 8.54587 5.35211 8.50908 5.35211C8.47228 5.35211 8.44218 5.36215 8.44218 5.37441C8.44218 5.38668 8.42211 5.39671 8.39758 5.39671C8.37305 5.39671 8.35298 5.40675 8.35298 5.41901C8.35298 5.43128 8.32287 5.44131 8.28607 5.44131C8.24928 5.44131 8.21917 5.45135 8.21917 5.46361C8.21917 5.47588 8.18907 5.48592 8.15227 5.48592C8.11548 5.48592 8.08537 5.49595 8.08537 5.50822C8.08537 5.52048 8.0653 5.53052 8.04077 5.53052C8.01624 5.53052 7.99617 5.54055 7.99617 5.55282C7.99617 5.56508 7.96606 5.57512 7.92927 5.57512C7.89247 5.57512 7.86237 5.58515 7.86237 5.59742C7.86237 5.60968 7.84229 5.61972 7.81776 5.61972C7.79323 5.61972 7.77316 5.62975 7.77316 5.64202C7.77316 5.65428 7.74306 5.66432 7.70626 5.66432C7.66947 5.66432 7.63936 5.67435 7.63936 5.68662C7.63936 5.69888 7.60925 5.70892 7.57246 5.70892C7.53566 5.70892 7.50556 5.71896 7.50556 5.73122C7.50556 5.74349 7.48549 5.75352 7.46096 5.75352C7.43643 5.75352 7.41636 5.76356 7.41636 5.77582C7.41636 5.78809 7.38625 5.79812 7.34945 5.79812C7.31266 5.79812 7.28255 5.80816 7.28255 5.82042C7.28255 5.83269 7.26248 5.84272 7.23795 5.84272C7.21342 5.84272 7.19335 5.85276 7.19335 5.86502C7.19335 5.87729 7.16325 5.88732 7.12645 5.88732C7.08965 5.88732 7.05955 5.89736 7.05955 5.90962C7.05955 5.92189 7.02944 5.93192 6.99265 5.93192C6.95585 5.93192 6.92575 5.94196 6.92575 5.95423C6.92575 5.96649 6.90567 5.97653 6.88114 5.97653C6.85661 5.97653 6.83654 5.98656 6.83654 5.99883C6.83654 6.01109 6.80644 6.02113 6.76964 6.02113C6.73285 6.02113 6.70274 6.03116 6.70274 6.04343C6.70274 6.05569 6.68267 6.06573 6.65814 6.06573C6.63361 6.06573 6.61354 6.07576 6.61354 6.08803C6.61354 6.10029 6.58343 6.11033 6.54664 6.11033C6.50984 6.11033 6.47974 6.12036 6.47974 6.13263C6.47974 6.14489 6.44963 6.15493 6.41283 6.15493C6.37604 6.15493 6.34593 6.16496 6.34593 6.17723C6.34593 6.1895 6.32586 6.19953 6.30133 6.19953C6.2768 6.19953 6.25673 6.20957 6.25673 6.22183C6.25673 6.2341 6.22663 6.24413 6.18983 6.24413C6.15303 6.24413 6.12293 6.25417 6.12293 6.26643C6.12293 6.2787 6.09282 6.28873 6.05603 6.28873C6.01923 6.28873 5.98913 6.29877 5.98913 6.31103C5.98913 6.3233 5.96906 6.33333 5.94452 6.33333C5.91999 6.33333 5.89992 6.34337 5.89992 6.35563C5.89992 6.3679 5.86982 6.37793 5.83302 6.37793C5.79623 6.37793 5.76612 6.38797 5.76612 6.40023C5.76612 6.4125 5.74605 6.42253 5.72152 6.42253C5.69699 6.42253 5.67692 6.43257 5.67692 6.44484C5.67692 6.4571 5.64681 6.46714 5.61002 6.46714C5.57322 6.46714 5.54312 6.47717 5.54312 6.48944C5.54312 6.5017 5.51301 6.51174 5.47621 6.51174C5.43942 6.51174 5.40931 6.52177 5.40931 6.53404C5.40931 6.5463 5.38924 6.55634 5.36471 6.55634C5.34018 6.55634 5.32011 6.56637 5.32011 6.57864C5.32011 6.5909 5.29001 6.60094 5.25321 6.60094C5.21641 6.60094 5.18631 6.61097 5.18631 6.62324C5.18631 6.6355 5.16624 6.64554 5.14171 6.64554C5.11718 6.64554 5.09711 6.65557 5.09711 6.66784C5.09711 6.68011 5.067 6.69014 5.03021 6.69014C4.99341 6.69014 4.9633 6.70018 4.9633 6.71244C4.9633 6.72471 4.9332 6.73474 4.8964 6.73474C4.85961 6.73474 4.8295 6.74478 4.8295 6.75704C4.8295 6.76931 4.80943 6.77934 4.7849 6.77934C4.76037 6.77934 4.7403 6.78938 4.7403 6.80164C4.7403 6.81391 4.71019 6.82394 4.6734 6.82394C4.6366 6.82394 4.6065 6.83398 4.6065 6.84624C4.6065 6.85851 4.58643 6.86854 4.5619 6.86854C4.53736 6.86854 4.51729 6.87858 4.51729 6.89084C4.51729 6.90311 4.48719 6.91315 4.45039 6.91315C4.4136 6.91315 4.38349 6.92318 4.38349 6.93545C4.38349 6.94771 4.35339 6.95775 4.31659 6.95775C4.27979 6.95775 4.24969 6.96778 4.24969 6.98005C4.24969 6.99231 4.22962 7.00235 4.20509 7.00235C4.18056 7.00235 4.16049 7.01238 4.16049 7.02465C4.16049 7.03691 4.13038 7.04695 4.09359 7.04695C4.05679 7.04695 4.02668 7.05698 4.02668 7.06925C4.02668 7.08151 3.99658 7.09155 3.95978 7.09155C3.92299 7.09155 3.89288 7.10158 3.89288 7.11385C3.89288 7.12611 3.87281 7.13615 3.84828 7.13615C3.82375 7.13615 3.80368 7.14619 3.80368 7.15845C3.80368 7.17072 3.77357 7.18075 3.73678 7.18075C3.69998 7.18075 3.66988 7.19079 3.66988 7.20305C3.66988 7.21532 3.64981 7.22535 3.62528 7.22535C3.60074 7.22535 3.58067 7.23539 3.58067 7.24765C3.58067 7.25992 3.55057 7.26995 3.51377 7.26995C3.47698 7.26995 3.44687 7.27999 3.44687 7.29225C3.44687 7.30452 3.41677 7.31455 3.37997 7.31455C3.34317 7.31455 3.31307 7.32459 3.31307 7.33685C3.31307 7.34912 3.293 7.35915 3.26847 7.35915C3.24394 7.35915 3.22387 7.36919 3.22387 7.38145C3.22387 7.39372 3.19376 7.40376 3.15697 7.40376C3.12017 7.40376 3.09006 7.41379 3.09006 7.42606C3.09006 7.43832 3.06999 7.44836 3.04546 7.44836C3.02093 7.44836 3.00086 7.45839 3.00086 7.47066C3.00086 7.48292 2.97076 7.49296 2.93396 7.49296C2.89717 7.49296 2.86706 7.50299 2.86706 7.51526C2.86706 7.52752 2.83695 7.53756 2.80016 7.53756C2.76336 7.53756 2.73326 7.54759 2.73326 7.55986C2.73326 7.57212 2.71319 7.58216 2.68866 7.58216C2.66413 7.58216 2.64405 7.59219 2.64405 7.60446C2.64405 7.61672 2.61395 7.62676 2.57715 7.62676C2.54036 7.62676 2.51025 7.6368 2.51025 7.64906C2.51025 7.66133 2.48015 7.67136 2.44335 7.67136C2.40655 7.67136 2.37645 7.6814 2.37645 7.69366C2.37645 7.70593 2.35638 7.71596 2.33185 7.71596C2.30732 7.71596 2.28725 7.726 2.28725 7.73826C2.28725 7.75053 2.25714 7.76056 2.22035 7.76056C2.18355 7.76056 2.15344 7.7706 2.15344 7.78286C2.15344 7.79513 2.13337 7.80516 2.10884 7.80516C2.08431 7.80516 2.06424 7.8152 2.06424 7.82746C2.06424 7.83973 2.03414 7.84976 1.99734 7.84976C1.96055 7.84976 1.93044 7.8598 1.93044 7.87207C1.93044 7.88433 1.91037 7.89437 1.88584 7.89437C1.86131 7.89437 1.84124 7.9044 1.84124 7.91667C1.84124 7.92893 1.82117 7.93897 1.79664 7.93897C1.77211 7.93897 1.75204 7.949 1.75204 7.96127C1.75204 7.97353 1.73197 7.98357 1.70743 7.98357C1.6829 7.98357 1.66283 7.9936 1.66283 8.00587C1.66283 8.01813 1.64276 8.02817 1.61823 8.02817C1.5937 8.02817 1.57363 8.0382 1.57363 8.05047C1.57363 8.06273 1.55356 8.07277 1.52903 8.07277C1.5045 8.07277 1.48443 8.0828 1.48443 8.09507C1.48443 8.10734 1.4684 8.11737 1.44877 8.11737C1.42917 8.11737 1.38499 8.14748 1.35063 8.18427C1.31626 8.22107 1.27677 8.25117 1.26287 8.25117C1.22786 8.25117 1.08302 8.39925 1.08302 8.43506C1.08302 8.45116 1.06295 8.4788 1.03842 8.49648C1.01224 8.51537 0.99382 8.55421 0.99382 8.59061C0.99382 8.62468 0.983784 8.65258 0.971519 8.65258C0.95912 8.65258 0.949219 8.71206 0.949219 8.78638C0.949219 8.86071 0.95912 8.92019 0.971519 8.92019C0.983784 8.92019 0.99382 8.94026 0.99382 8.96479C0.99382 8.98932 1.00385 9.00939 1.01612 9.00939C1.02839 9.00939 1.03842 9.02489 1.03842 9.04384C1.03842 9.08387 1.13587 9.18779 1.17341 9.18779C1.18745 9.18779 1.22706 9.2179 1.26143 9.25469C1.29579 9.29149 1.33997 9.3216 1.35957 9.3216C1.37919 9.3216 1.39523 9.33163 1.39523 9.3439C1.39523 9.35616 1.4153 9.3662 1.43983 9.3662C1.46436 9.3662 1.48443 9.37623 1.48443 9.3885C1.48443 9.40076 1.5045 9.4108 1.52903 9.4108C1.55356 9.4108 1.57363 9.42083 1.57363 9.4331C1.57363 9.44536 1.60374 9.4554 1.64053 9.4554C1.67733 9.4554 1.70743 9.46543 1.70743 9.4777C1.70743 9.48996 1.73754 9.5 1.77434 9.5C1.81113 9.5 1.84124 9.51003 1.84124 9.5223C1.84124 9.53456 1.87134 9.5446 1.90814 9.5446C1.94493 9.5446 1.97504 9.55464 1.97504 9.5669C1.97504 9.57917 2.01518 9.5892 2.06424 9.5892C2.1133 9.5892 2.15344 9.59924 2.15344 9.6115C2.15344 9.62377 2.18355 9.6338 2.22035 9.6338C2.25714 9.6338 2.28725 9.64384 2.28725 9.6561C2.28725 9.66837 2.31735 9.6784 2.35415 9.6784C2.39094 9.6784 2.42105 9.68844 2.42105 9.7007C2.42105 9.71297 2.45116 9.723 2.48795 9.723C2.52475 9.723 2.55485 9.73304 2.55485 9.74531C2.55485 9.75757 2.59499 9.76761 2.64405 9.76761C2.69312 9.76761 2.73326 9.77764 2.73326 9.78991C2.73326 9.80217 2.76336 9.81221 2.80016 9.81221C2.83695 9.81221 2.86706 9.82224 2.86706 9.83451C2.86706 9.84677 2.89717 9.85681 2.93396 9.85681C2.97076 9.85681 3.00086 9.86684 3.00086 9.87911C3.00086 9.89137 3.03097 9.90141 3.06776 9.90141C3.10456 9.90141 3.13467 9.91144 3.13467 9.92371C3.13467 9.93597 3.16477 9.94601 3.20157 9.94601C3.23836 9.94601 3.26847 9.95604 3.26847 9.96831C3.26847 9.98057 3.30861 9.99061 3.35767 9.99061C3.40673 9.99061 3.44687 10.0006 3.44687 10.0129C3.44687 10.0252 3.47698 10.0352 3.51377 10.0352C3.55057 10.0352 3.58067 10.0452 3.58067 10.0575C3.58067 10.0698 3.61078 10.0798 3.64758 10.0798C3.68437 10.0798 3.71448 10.0898 3.71448 10.1021C3.71448 10.1144 3.74458 10.1244 3.78138 10.1244C3.81817 10.1244 3.84828 10.1344 3.84828 10.1467C3.84828 10.159 3.88842 10.169 3.93748 10.169C3.98654 10.169 4.02668 10.179 4.02668 10.1913C4.02668 10.2036 4.05679 10.2136 4.09359 10.2136C4.13038 10.2136 4.16049 10.2236 4.16049 10.2359C4.16049 10.2482 4.19059 10.2582 4.22739 10.2582C4.26418 10.2582 4.29429 10.2683 4.29429 10.2805C4.29429 10.2928 4.3244 10.3028 4.36119 10.3028C4.39799 10.3028 4.42809 10.3129 4.42809 10.3251C4.42809 10.3374 4.4582 10.3474 4.49499 10.3474C4.53179 10.3474 4.5619 10.3575 4.5619 10.3697C4.5619 10.382 4.60204 10.392 4.6511 10.392C4.70016 10.392 4.7403 10.4021 4.7403 10.4143C4.7403 10.4266 4.7704 10.4366 4.8072 10.4366C4.844 10.4366 4.8741 10.4467 4.8741 10.4589C4.8741 10.4712 4.90421 10.4812 4.941 10.4812C4.9778 10.4812 5.0079 10.4913 5.0079 10.5035C5.0079 10.5158 5.03801 10.5258 5.07481 10.5258C5.1116 10.5258 5.14171 10.5359 5.14171 10.5481C5.14171 10.5604 5.17181 10.5704 5.20861 10.5704C5.2454 10.5704 5.27551 10.5805 5.27551 10.5927C5.27551 10.605 5.31565 10.615 5.36471 10.615C5.41377 10.615 5.45391 10.6251 5.45391 10.6373C5.45391 10.6496 5.48402 10.6596 5.52082 10.6596C5.55761 10.6596 5.58772 10.6697 5.58772 10.6819C5.58772 10.6942 5.61782 10.7042 5.65462 10.7042C5.69141 10.7042 5.72152 10.7143 5.72152 10.7265C5.72152 10.7388 5.75163 10.7488 5.78842 10.7488C5.82522 10.7488 5.85532 10.7589 5.85532 10.7711C5.85532 10.7834 5.89546 10.7934 5.94452 10.7934C5.99359 10.7934 6.03373 10.8035 6.03373 10.8157C6.03373 10.828 6.06383 10.838 6.10063 10.838C6.13742 10.838 6.16753 10.8481 6.16753 10.8603C6.16753 10.8726 6.19764 10.8826 6.23443 10.8826C6.27123 10.8826 6.30133 10.8927 6.30133 10.9049C6.30133 10.9172 6.33144 10.9272 6.36823 10.9272C6.40503 10.9272 6.43513 10.9373 6.43513 10.9495C6.43513 10.9618 6.46524 10.9718 6.50204 10.9718C6.53883 10.9718 6.56894 10.9819 6.56894 10.9941C6.56894 11.0064 6.60908 11.0164 6.65814 11.0164C6.7072 11.0164 6.74734 11.0265 6.74734 11.0387C6.74734 11.051 6.77745 11.061 6.81424 11.061C6.85104 11.061 6.88114 11.0711 6.88114 11.0833C6.88114 11.1245 7.00413 11.107 7.03725 11.061C7.05493 11.0365 7.08504 11.0164 7.10415 11.0164C7.12326 11.0164 7.15337 10.9964 7.17105 10.9718C7.18874 10.9473 7.22105 10.9272 7.24288 10.9272C7.26469 10.9272 7.28255 10.9172 7.28255 10.9049C7.28255 10.8927 7.30042 10.8826 7.32223 10.8826C7.34406 10.8826 7.37637 10.8626 7.39406 10.838C7.41174 10.8135 7.44184 10.7934 7.46096 10.7934C7.48007 10.7934 7.51017 10.7734 7.52786 10.7488C7.54554 10.7243 7.57786 10.7042 7.59969 10.7042C7.6215 10.7042 7.63936 10.6942 7.63936 10.6819C7.63936 10.6697 7.65722 10.6596 7.67903 10.6596C7.70086 10.6596 7.73318 10.6396 7.75086 10.615C7.76855 10.5905 7.79865 10.5704 7.81776 10.5704C7.83688 10.5704 7.86698 10.5504 7.88467 10.5258C7.90235 10.5013 7.93466 10.4812 7.9565 10.4812C7.97831 10.4812 7.99617 10.4712 7.99617 10.4589C7.99617 10.4467 8.01403 10.4366 8.03584 10.4366C8.05767 10.4366 8.08999 10.4165 8.10767 10.392C8.12535 10.3675 8.15546 10.3474 8.17457 10.3474C8.19368 10.3474 8.22379 10.3273 8.24147 10.3028C8.25916 10.2783 8.29147 10.2582 8.3133 10.2582C8.33511 10.2582 8.35298 10.2482 8.35298 10.2359C8.35298 10.2236 8.37084 10.2136 8.39265 10.2136C8.41448 10.2136 8.44679 10.1935 8.46448 10.169C8.48216 10.1445 8.51227 10.1244 8.53138 10.1244C8.55049 10.1244 8.5806 10.1043 8.59828 10.0798C8.61597 10.0553 8.64828 10.0352 8.67011 10.0352C8.69192 10.0352 8.70978 10.0252 8.70978 10.0129C8.70978 10.0006 8.72765 9.99061 8.74946 9.99061C8.77129 9.99061 8.8036 9.97054 8.82129 9.94601C8.83897 9.92148 8.86908 9.90141 8.88819 9.90141C8.9073 9.90141 8.9374 9.88134 8.95509 9.85681C8.97277 9.83228 9.00509 9.81221 9.02692 9.81221C9.04873 9.81221 9.06659 9.80217 9.06659 9.78991C9.06659 9.77764 9.08445 9.76761 9.10626 9.76761C9.1281 9.76761 9.16041 9.74753 9.17809 9.723C9.19578 9.69847 9.22588 9.6784 9.24499 9.6784C9.26411 9.6784 9.29421 9.65833 9.3119 9.6338C9.32958 9.60927 9.36189 9.5892 9.38373 9.5892C9.40554 9.5892 9.4234 9.57917 9.4234 9.5669C9.4234 9.55464 9.44126 9.5446 9.46307 9.5446C9.4849 9.5446 9.51722 9.52453 9.5349 9.5C9.55258 9.47547 9.58269 9.4554 9.6018 9.4554C9.62091 9.4554 9.65102 9.43533 9.6687 9.4108C9.68639 9.38627 9.7187 9.3662 9.74053 9.3662C9.76234 9.3662 9.78021 9.35616 9.78021 9.3439C9.78021 9.33163 9.79807 9.3216 9.81988 9.3216C9.84171 9.3216 9.87402 9.30153 9.89171 9.27699C9.90939 9.25246 9.9395 9.23239 9.95861 9.23239C9.97772 9.23239 10.0078 9.21232 10.0255 9.18779C10.0432 9.16326 10.0733 9.14319 10.0924 9.14319C10.1115 9.14319 10.1416 9.12312 10.1593 9.09859C10.177 9.07406 10.2093 9.05399 10.2311 9.05399C10.253 9.05399 10.2708 9.04395 10.2708 9.03169C10.2708 9.01942 10.2887 9.00939 10.3105 9.00939C10.3323 9.00939 10.3646 8.98932 10.3823 8.96479C10.4 8.94026 10.4301 8.92019 10.4492 8.92019C10.4683 8.92019 10.4984 8.90012 10.5161 8.87559C10.5338 8.85106 10.5661 8.83099 10.588 8.83099C10.6098 8.83099 10.6276 8.82095 10.6276 8.80869C10.6276 8.79642 10.6455 8.78638 10.6673 8.78638C10.6891 8.78638 10.7214 8.76631 10.7391 8.74178C10.7568 8.71725 10.7869 8.69718 10.806 8.69718C10.8251 8.69718 10.8552 8.67711 10.8729 8.65258C10.8906 8.62805 10.9229 8.60798 10.9448 8.60798C10.9666 8.60798 10.9844 8.59795 10.9844 8.58568C10.9844 8.57341 11.0023 8.56338 11.0241 8.56338C11.0459 8.56338 11.0782 8.54331 11.0959 8.51878C11.1136 8.49425 11.1437 8.47418 11.1628 8.47418C11.1819 8.47418 11.2121 8.45411 11.2297 8.42958C11.2474 8.40505 11.2797 8.38498 11.3016 8.38498C11.3234 8.38498 11.3412 8.37494 11.3412 8.36268C11.3412 8.35041 11.3591 8.34037 11.3809 8.34037C11.4027 8.34037 11.4351 8.3203 11.4527 8.29577C11.4704 8.27124 11.5005 8.25117 11.5196 8.25117C11.5388 8.25117 11.5689 8.2311 11.5865 8.20657C11.6042 8.18204 11.6365 8.16197 11.6584 8.16197C11.6802 8.16197 11.698 8.15194 11.698 8.13967C11.698 8.12741 11.7159 8.11737 11.7377 8.11737C11.7596 8.11737 11.7919 8.0973 11.8095 8.07277C11.8272 8.04824 11.8573 8.02817 11.8765 8.02817C11.8956 8.02817 11.9257 8.0081 11.9434 7.98357C11.961 7.95904 11.9933 7.93897 12.0152 7.93897C12.037 7.93897 12.0549 7.92893 12.0549 7.91667C12.0549 7.9044 12.0727 7.89437 12.0945 7.89437C12.1164 7.89437 12.1487 7.8743 12.1664 7.84976C12.184 7.82523 12.2141 7.80516 12.2333 7.80516C12.2524 7.80516 12.2825 7.78509 12.3002 7.76056C12.3178 7.73603 12.3502 7.71596 12.372 7.71596C12.3938 7.71596 12.4117 7.70593 12.4117 7.69366C12.4117 7.6814 12.4295 7.67136 12.4513 7.67136C12.4732 7.67136 12.5055 7.65129 12.5232 7.62676C12.5408 7.60223 12.571 7.58216 12.5901 7.58216C12.6092 7.58216 12.6393 7.56209 12.657 7.53756C12.6747 7.51303 12.707 7.49296 12.7288 7.49296C12.7506 7.49296 12.7685 7.48292 12.7685 7.47066C12.7685 7.45839 12.7863 7.44836 12.8081 7.44836C12.83 7.44836 12.8623 7.42829 12.88 7.40376C12.8977 7.37923 12.9278 7.35915 12.9469 7.35915C12.966 7.35915 12.9961 7.33908 13.0138 7.31455C13.0315 7.29002 13.0638 7.26995 13.0856 7.26995C13.1074 7.26995 13.1253 7.25992 13.1253 7.24765C13.1253 7.23539 13.1431 7.22535 13.1649 7.22535C13.1868 7.22535 13.2191 7.20528 13.2368 7.18075C13.2545 7.15622 13.2846 7.13615 13.3037 7.13615C13.3228 7.13615 13.3529 7.11608 13.3706 7.09155C13.3883 7.06702 13.4206 7.04695 13.4424 7.04695C13.4642 7.04695 13.4821 7.03691 13.4821 7.02465C13.4821 7.01238 13.4999 7.00235 13.5218 7.00235C13.5436 7.00235 13.5759 6.98228 13.5936 6.95775C13.6113 6.93322 13.6414 6.91315 13.6605 6.91315C13.6796 6.91315 13.7097 6.89307 13.7274 6.86854C13.7451 6.84401 13.7774 6.82394 13.7992 6.82394C13.821 6.82394 13.8389 6.81391 13.8389 6.80164C13.8389 6.78938 13.8568 6.77934 13.8786 6.77934C13.9004 6.77934 13.9327 6.75927 13.9504 6.73474C13.9681 6.71021 13.9982 6.69014 14.0173 6.69014C14.0364 6.69014 14.0665 6.67007 14.0842 6.64554C14.1019 6.62101 14.1342 6.60094 14.156 6.60094C14.1778 6.60094 14.1957 6.5909 14.1957 6.57864C14.1957 6.56637 14.2136 6.55634 14.2354 6.55634C14.2572 6.55634 14.2895 6.53627 14.3072 6.51174C14.3249 6.48721 14.355 6.46714 14.3741 6.46714C14.3932 6.46714 14.4233 6.44707 14.441 6.42253C14.4587 6.398 14.491 6.37793 14.5128 6.37793C14.5346 6.37793 14.5525 6.3679 14.5525 6.35563C14.5525 6.34337 14.5704 6.33333 14.5922 6.33333C14.614 6.33333 14.6463 6.31326 14.664 6.28873C14.6817 6.2642 14.7118 6.24413 14.7309 6.24413C14.75 6.24413 14.7801 6.22406 14.7978 6.19953C14.8155 6.175 14.8478 6.15493 14.8696 6.15493C14.8915 6.15493 14.9093 6.14489 14.9093 6.13263C14.9093 6.12036 14.9272 6.11033 14.949 6.11033C14.9708 6.11033 15.0031 6.09026 15.0208 6.06573C15.0385 6.0412 15.0686 6.02113 15.0877 6.02113C15.1068 6.02113 15.1369 6.00106 15.1546 5.97653C15.1723 5.952 15.2046 5.93192 15.2264 5.93192C15.2483 5.93192 15.2661 5.92189 15.2661 5.90962C15.2661 5.89736 15.284 5.88732 15.3058 5.88732C15.3276 5.88732 15.3599 5.86725 15.3776 5.84272C15.3953 5.81819 15.4254 5.79812 15.4445 5.79812C15.4636 5.79812 15.4937 5.77805 15.5114 5.75352C15.5291 5.72899 15.5614 5.70892 15.5833 5.70892C15.6051 5.70892 15.6229 5.69888 15.6229 5.68662C15.6229 5.67435 15.6408 5.66432 15.6626 5.66432C15.6844 5.66432 15.7167 5.64425 15.7344 5.61972C15.7521 5.59519 15.7822 5.57512 15.8013 5.57512C15.8204 5.57512 15.8506 5.55505 15.8682 5.53052C15.8859 5.50599 15.9182 5.48592 15.9401 5.48592C15.9619 5.48592 15.9797 5.47588 15.9797 5.46361C15.9797 5.45135 15.9976 5.44131 16.0194 5.44131C16.0412 5.44131 16.0736 5.42124 16.0912 5.39671C16.1089 5.37218 16.139 5.35211 16.1581 5.35211C16.1773 5.35211 16.2074 5.33204 16.225 5.30751C16.2427 5.28298 16.275 5.26291 16.2969 5.26291C16.3187 5.26291 16.3365 5.25288 16.3365 5.24061C16.3365 5.22834 16.3544 5.21831 16.3762 5.21831C16.398 5.21831 16.4304 5.19824 16.448 5.17371C16.4657 5.14918 16.4958 5.12911 16.5149 5.12911C16.5341 5.12911 16.5642 5.10904 16.5819 5.08451C16.5995 5.05998 16.6318 5.03991 16.6537 5.03991C16.6755 5.03991 16.6934 5.02987 16.6934 5.01761C16.6934 5.00534 16.7112 4.99531 16.733 4.99531C16.7549 4.99531 16.7872 4.97523 16.8049 4.9507C16.8225 4.92617 16.8526 4.9061 16.8718 4.9061C16.8909 4.9061 16.921 4.88603 16.9387 4.8615C16.9563 4.83697 16.9887 4.8169 17.0105 4.8169C17.0323 4.8169 17.0502 4.80687 17.0502 4.7946C17.0502 4.78234 17.068 4.7723 17.0898 4.7723C17.1117 4.7723 17.144 4.75223 17.1617 4.7277C17.1793 4.70317 17.2095 4.6831 17.2286 4.6831C17.2477 4.6831 17.2778 4.66303 17.2955 4.6385C17.3132 4.61397 17.3455 4.5939 17.3673 4.5939C17.3891 4.5939 17.407 4.58386 17.407 4.5716C17.407 4.55933 17.4248 4.5493 17.4466 4.5493C17.4685 4.5493 17.5008 4.52922 17.5185 4.50469C17.5362 4.48016 17.5663 4.46009 17.5854 4.46009C17.6045 4.46009 17.6346 4.44002 17.6523 4.41549C17.67 4.39096 17.7023 4.37089 17.7241 4.37089C17.7459 4.37089 17.7638 4.36086 17.7638 4.34859C17.7638 4.33633 17.7816 4.32629 17.8034 4.32629C17.8253 4.32629 17.8576 4.30622 17.8753 4.28169C17.893 4.25716 17.9231 4.23709 17.9422 4.23709C17.9613 4.23709 17.9914 4.21702 18.0091 4.19249C18.0268 4.16796 18.0591 4.14789 18.0809 4.14789C18.1027 4.14789 18.1206 4.13785 18.1206 4.12559C18.1206 4.11332 18.1384 4.10329 18.1603 4.10329C18.1821 4.10329 18.2144 4.08322 18.2321 4.05869C18.2498 4.03415 18.2799 4.01408 18.299 4.01408C18.3181 4.01408 18.3482 3.99401 18.3659 3.96948C18.3836 3.94495 18.4159 3.92488 18.4377 3.92488C18.4595 3.92488 18.4774 3.91485 18.4774 3.90258C18.4774 3.89032 18.4953 3.88028 18.5171 3.88028C18.5389 3.88028 18.5712 3.86021 18.5889 3.83568C18.6066 3.81115 18.6367 3.79108 18.6558 3.79108C18.6749 3.79108 18.705 3.77101 18.7227 3.74648C18.7404 3.72195 18.7727 3.70188 18.7945 3.70188C18.8163 3.70188 18.8342 3.69184 18.8342 3.67958C18.8342 3.66731 18.8521 3.65728 18.8739 3.65728C18.8957 3.65728 18.928 3.63721 18.9457 3.61268C18.9634 3.58815 18.9935 3.56807 19.0126 3.56807C19.0317 3.56807 19.0618 3.548 19.0795 3.52347C19.0984 3.49729 19.1372 3.47887 19.1736 3.47887C19.2077 3.47887 19.2356 3.46884 19.2356 3.45657C19.2356 3.44431 19.2657 3.43427 19.3025 3.43427C19.3393 3.43427 19.3694 3.42424 19.3694 3.41197C19.3694 3.39924 19.4363 3.38967 19.5255 3.38967C19.6147 3.38967 19.6816 3.39924 19.6816 3.41197C19.6816 3.42424 19.7017 3.43427 19.7262 3.43427C19.7553 3.43427 19.7708 3.44915 19.7708 3.47702C19.7708 3.50053 19.7834 3.52561 19.7987 3.53277C19.821 3.54317 19.821 3.54838 19.7987 3.55878C19.7834 3.56593 19.7708 3.59102 19.7708 3.61453C19.7708 3.63803 19.7608 3.65728 19.7485 3.65728C19.7363 3.65728 19.7262 3.67304 19.7262 3.69231C19.7262 3.73279 19.674 3.79108 19.6378 3.79108C19.6241 3.79108 19.5235 3.8814 19.414 3.99178C19.3046 4.10217 19.2042 4.19249 19.191 4.19249C19.1778 4.19249 19.0775 4.2828 18.968 4.39319C18.8585 4.50358 18.7582 4.5939 18.745 4.5939C18.7318 4.5939 18.6314 4.68421 18.522 4.7946C18.4125 4.90499 18.3122 4.99531 18.299 4.99531C18.2858 4.99531 18.1854 5.08562 18.076 5.19601C17.9665 5.3064 17.8661 5.39671 17.8529 5.39671C17.8396 5.39671 17.7493 5.47699 17.6523 5.57512C17.5552 5.67324 17.4649 5.75352 17.4517 5.75352C17.4384 5.75352 17.338 5.84384 17.2286 5.95423C17.1191 6.06461 17.0188 6.15493 17.0056 6.15493C16.9924 6.15493 16.892 6.24525 16.7826 6.35563C16.6731 6.46602 16.5728 6.55634 16.5595 6.55634C16.5463 6.55634 16.446 6.64665 16.3365 6.75704C16.2271 6.86743 16.1267 6.95775 16.1135 6.95775C16.1003 6.95775 16 7.04806 15.8905 7.15845C15.7811 7.26884 15.6807 7.35915 15.6674 7.35915C15.6542 7.35915 15.5639 7.43944 15.4668 7.53756C15.3698 7.63568 15.2795 7.71596 15.2662 7.71596C15.253 7.71596 15.1526 7.80628 15.0431 7.91667C14.9337 8.02705 14.8333 8.11737 14.8201 8.11737C14.8069 8.11737 14.7066 8.20769 14.5971 8.31808C14.4877 8.42846 14.3873 8.51878 14.3741 8.51878C14.3609 8.51878 14.2605 8.6091 14.1511 8.71948C14.0416 8.82987 13.9413 8.92019 13.928 8.92019C13.9147 8.92019 13.8245 9.00047 13.7274 9.09859C13.6303 9.19671 13.54 9.27699 13.5268 9.27699C13.5135 9.27699 13.4131 9.36731 13.3037 9.4777C13.1942 9.58809 13.0939 9.6784 13.0807 9.6784C13.0675 9.6784 12.9671 9.76872 12.8577 9.87911C12.7482 9.98949 12.6479 10.0798 12.6347 10.0798C12.6215 10.0798 12.5211 10.1701 12.4117 10.2805C12.3022 10.3909 12.2019 10.4812 12.1887 10.4812C12.1755 10.4812 12.0751 10.5715 11.9657 10.6819C11.8562 10.7923 11.7558 10.8826 11.7426 10.8826C11.7293 10.8826 11.639 10.9629 11.5419 11.061C11.4449 11.1592 11.3546 11.2394 11.3413 11.2394C11.3281 11.2394 11.2277 11.3298 11.1182 11.4401C11.0088 11.5505 10.9084 11.6408 10.8952 11.6408C10.882 11.6408 10.7817 11.7312 10.6722 11.8415C10.5628 11.9519 10.4624 12.0423 10.4492 12.0423C10.436 12.0423 10.3357 12.1326 10.2262 12.243C10.1168 12.3533 10.0161 12.4437 10.0025 12.4437C9.9455 12.4437 9.91401 12.5105 9.91401 12.6316C9.91401 12.7 9.90397 12.7559 9.89171 12.7559C9.8779 12.7559 9.86941 12.8748 9.86941 13.0681C9.86941 13.2614 9.86091 13.3803 9.84711 13.3803C9.8333 13.3803 9.82481 13.4992 9.82481 13.6925C9.82481 13.8858 9.81631 14.0047 9.80251 14.0047C9.78864 14.0047 9.78021 14.1311 9.78021 14.3392C9.78021 14.5473 9.77178 14.6737 9.75791 14.6737C9.7441 14.6737 9.73561 14.7926 9.73561 14.9859C9.73561 15.1792 9.72711 15.2981 9.7133 15.2981C9.6995 15.2981 9.691 15.417 9.691 15.6103C9.691 15.8036 9.68251 15.9225 9.6687 15.9225C9.6549 15.9225 9.6464 16.0415 9.6464 16.2347C9.6464 16.428 9.63791 16.5469 9.6241 16.5469C9.6103 16.5469 9.6018 16.6659 9.6018 16.8592C9.6018 17.0524 9.59331 17.1714 9.5795 17.1714C9.5657 17.1714 9.5572 17.2903 9.5572 17.4836C9.5572 17.6768 9.54871 17.7958 9.5349 17.7958C9.52264 17.7958 9.5126 17.8058 9.5126 17.8181C9.5126 17.8305 9.57208 17.8404 9.6464 17.8404C9.72073 17.8404 9.78021 17.8305 9.78021 17.8181C9.78021 17.8058 9.82035 17.7958 9.86941 17.7958C9.91847 17.7958 9.95861 17.7857 9.95861 17.7735C9.95861 17.7612 9.98872 17.7512 10.0255 17.7512C10.0623 17.7512 10.0924 17.7411 10.0924 17.7289C10.0924 17.7166 10.1103 17.7066 10.1321 17.7066C10.1539 17.7066 10.1862 17.6865 10.2039 17.662C10.2216 17.6374 10.2492 17.6174 10.2652 17.6174C10.2812 17.6174 10.4342 17.4769 10.6053 17.3052C10.7764 17.1335 10.9269 16.993 10.9396 16.993C10.9524 16.993 11.1833 16.7722 11.4527 16.5023C11.7222 16.2325 11.953 16.0117 11.9657 16.0117C11.9783 16.0117 12.1991 15.801 12.4563 15.5434C12.7134 15.2859 12.935 15.0751 12.9487 15.0751C12.9624 15.0751 13.0017 15.045 13.0361 15.0082C13.1152 14.9235 13.1799 14.9235 13.2591 15.0082C13.2934 15.045 13.3336 15.0751 13.3483 15.0751C13.363 15.0751 13.4031 15.1052 13.4375 15.142C13.4718 15.1788 13.5138 15.2089 13.5307 15.2089C13.5476 15.2089 13.5759 15.229 13.5936 15.2535C13.6113 15.2781 13.6396 15.2981 13.6565 15.2981C13.6734 15.2981 13.7153 15.3282 13.7497 15.365C13.7841 15.4018 13.8242 15.4319 13.8389 15.4319C13.8536 15.4319 13.8937 15.462 13.9281 15.4988C13.9625 15.5356 14.0026 15.5657 14.0173 15.5657C14.032 15.5657 14.0721 15.5958 14.1065 15.6326C14.1409 15.6694 14.1828 15.6995 14.1997 15.6995C14.2166 15.6995 14.2449 15.7196 14.2626 15.7441C14.2803 15.7687 14.3086 15.7887 14.3255 15.7887C14.3424 15.7887 14.3843 15.8188 14.4187 15.8556C14.4531 15.8924 14.4932 15.9225 14.5079 15.9225C14.5226 15.9225 14.5627 15.9526 14.5971 15.9894C14.6315 16.0262 14.6716 16.0563 14.6863 16.0563C14.701 16.0563 14.7411 16.0864 14.7755 16.1232C14.8099 16.16 14.8518 16.1901 14.8687 16.1901C14.8856 16.1901 14.9139 16.2102 14.9316 16.2347C14.9493 16.2593 14.9776 16.2793 14.9945 16.2793C15.0114 16.2793 15.0534 16.3094 15.0877 16.3462C15.1221 16.383 15.1622 16.4131 15.1769 16.4131C15.1916 16.4131 15.2318 16.4433 15.2661 16.48C15.3005 16.5168 15.3425 16.5469 15.3593 16.5469C15.3762 16.5469 15.4045 16.567 15.4222 16.5915C15.4399 16.6161 15.4682 16.6362 15.4851 16.6362C15.502 16.6362 15.544 16.6663 15.5783 16.7031C15.6127 16.7398 15.6528 16.77 15.6675 16.77C15.6822 16.77 15.7224 16.8001 15.7567 16.8369C15.7911 16.8736 15.8312 16.9038 15.8459 16.9038C15.8606 16.9038 15.9008 16.9339 15.9351 16.9707C15.9695 17.0075 16.0115 17.0376 16.0284 17.0376C16.0453 17.0376 16.0736 17.0576 16.0912 17.0822C16.1089 17.1067 16.1372 17.1268 16.1541 17.1268C16.171 17.1268 16.213 17.1569 16.2473 17.1937C16.2817 17.2305 16.3218 17.2606 16.3365 17.2606C16.3512 17.2606 16.3914 17.2907 16.4257 17.3275C16.4601 17.3643 16.5003 17.3944 16.5149 17.3944C16.5296 17.3944 16.5698 17.4245 16.6042 17.4613C16.6385 17.4981 16.6805 17.5282 16.6974 17.5282C16.7143 17.5282 16.7426 17.5482 16.7603 17.5728C16.7779 17.5973 16.8062 17.6174 16.8231 17.6174C16.84 17.6174 16.882 17.6475 16.9164 17.6843C16.9507 17.7211 16.9909 17.7512 17.0056 17.7512C17.0203 17.7512 17.0604 17.7813 17.0948 17.8181C17.1291 17.8549 17.1693 17.885 17.184 17.885C17.1987 17.885 17.2388 17.9151 17.2732 17.9519C17.3075 17.9887 17.3495 18.0188 17.3664 18.0188C17.3833 18.0188 17.4116 18.0388 17.4293 18.0634C17.447 18.0879 17.4753 18.108 17.4922 18.108C17.509 18.108 17.551 18.1381 17.5854 18.1749C17.6197 18.2117 17.6599 18.2418 17.6746 18.2418C17.6893 18.2418 17.7294 18.2719 17.7638 18.3087C17.7981 18.3455 17.8383 18.3756 17.853 18.3756C17.8677 18.3756 17.9078 18.4057 17.9422 18.4425C17.9765 18.4793 18.0185 18.5094 18.0354 18.5094C18.0523 18.5094 18.0806 18.5295 18.0983 18.554C18.116 18.5785 18.1443 18.5986 18.1612 18.5986C18.1781 18.5986 18.22 18.6287 18.2544 18.6655C18.2887 18.7023 18.3329 18.7324 18.3525 18.7324C18.3722 18.7324 18.3882 18.7424 18.3882 18.7547C18.3882 18.767 18.4083 18.777 18.4328 18.777C18.4573 18.777 18.4774 18.787 18.4774 18.7993C18.4774 18.8116 18.4975 18.8216 18.522 18.8216C18.5465 18.8216 18.5666 18.8316 18.5666 18.8439C18.5666 18.8562 18.5867 18.8662 18.6112 18.8662C18.6357 18.8662 18.6558 18.8762 18.6558 18.8885C18.6558 18.9008 18.6859 18.9108 18.7227 18.9108C18.7595 18.9108 18.7896 18.9208 18.7896 18.9331C18.7896 18.9454 18.8197 18.9554 18.8565 18.9554C18.8933 18.9554 18.9234 18.9654 18.9234 18.9777C18.9234 18.9913 19.0275 19 19.191 19C19.3545 19 19.4586 18.9913 19.4586 18.9777C19.4586 18.9654 19.4887 18.9554 19.5255 18.9554C19.5623 18.9554 19.5924 18.9454 19.5924 18.9331C19.5924 18.9208 19.6103 18.9108 19.6321 18.9108C19.6539 18.9108 19.6862 18.8907 19.7039 18.8662C19.7216 18.8417 19.7494 18.8216 19.7656 18.8216C19.8018 18.8216 19.9046 18.7218 19.9046 18.6866C19.9046 18.6726 19.9347 18.633 19.9715 18.5986C20.0083 18.5642 20.0384 18.52 20.0384 18.5004C20.0384 18.4808 20.0485 18.4648 20.0607 18.4648C20.073 18.4648 20.083 18.4447 20.083 18.4202C20.083 18.3957 20.0931 18.3756 20.1053 18.3756C20.1176 18.3756 20.1276 18.3555 20.1276 18.331C20.1276 18.3065 20.1377 18.2864 20.1499 18.2864C20.1622 18.2864 20.1722 18.2563 20.1722 18.2195C20.1722 18.1827 20.1823 18.1526 20.1945 18.1526C20.2068 18.1526 20.2168 18.1124 20.2168 18.0634C20.2168 18.0143 20.2269 17.9742 20.2391 17.9742C20.2514 17.9742 20.2614 17.934 20.2614 17.885C20.2614 17.8359 20.2715 17.7958 20.2837 17.7958C20.296 17.7958 20.306 17.7556 20.306 17.7066C20.306 17.6575 20.3161 17.6174 20.3283 17.6174C20.3406 17.6174 20.3506 17.5672 20.3506 17.5059C20.3506 17.4445 20.3607 17.3944 20.3729 17.3944C20.3852 17.3944 20.3952 17.3442 20.3952 17.2829C20.3952 17.2215 20.4053 17.1714 20.4175 17.1714C20.4298 17.1714 20.4398 17.1312 20.4398 17.0822C20.4398 17.0331 20.4499 16.993 20.4621 16.993C20.4744 16.993 20.4844 16.9428 20.4844 16.8815C20.4844 16.8201 20.4945 16.77 20.5067 16.77C20.519 16.77 20.529 16.7198 20.529 16.6585C20.529 16.5971 20.5391 16.5469 20.5513 16.5469C20.5636 16.5469 20.5736 16.5068 20.5736 16.4577C20.5736 16.4087 20.5837 16.3685 20.5959 16.3685C20.6082 16.3685 20.6182 16.3184 20.6182 16.257C20.6182 16.1957 20.6283 16.1455 20.6405 16.1455C20.6528 16.1455 20.6628 16.0954 20.6628 16.034C20.6628 15.9727 20.6729 15.9225 20.6851 15.9225C20.6974 15.9225 20.7074 15.8724 20.7074 15.811C20.7074 15.7497 20.7175 15.6995 20.7297 15.6995C20.742 15.6995 20.752 15.6594 20.752 15.6103C20.752 15.5613 20.7621 15.5211 20.7743 15.5211C20.7866 15.5211 20.7966 15.471 20.7966 15.4096C20.7966 15.3483 20.8067 15.2981 20.8189 15.2981C20.8312 15.2981 20.8412 15.2479 20.8412 15.1866C20.8412 15.1253 20.8513 15.0751 20.8635 15.0751C20.8758 15.0751 20.8858 15.035 20.8858 14.9859C20.8858 14.9369 20.8959 14.8967 20.9081 14.8967C20.9204 14.8967 20.9304 14.8465 20.9304 14.7852C20.9304 14.7239 20.9405 14.6737 20.9527 14.6737C20.965 14.6737 20.975 14.6235 20.975 14.5622C20.975 14.5009 20.9851 14.4507 20.9973 14.4507C21.0096 14.4507 21.0196 14.4106 21.0196 14.3615C21.0196 14.3124 21.0297 14.2723 21.0419 14.2723C21.0542 14.2723 21.0642 14.2221 21.0642 14.1608C21.0642 14.0995 21.0743 14.0493 21.0865 14.0493C21.0988 14.0493 21.1088 13.9991 21.1088 13.9378C21.1088 13.8765 21.1189 13.8263 21.1311 13.8263C21.1434 13.8263 21.1534 13.7861 21.1534 13.7371C21.1534 13.688 21.1635 13.6479 21.1757 13.6479C21.188 13.6479 21.198 13.5977 21.198 13.5364C21.198 13.4751 21.2081 13.4249 21.2203 13.4249C21.2326 13.4249 21.2426 13.3747 21.2426 13.3134C21.2426 13.2521 21.2527 13.2019 21.2649 13.2019C21.2772 13.2019 21.2873 13.1617 21.2873 13.1127C21.2873 13.0636 21.2973 13.0235 21.3095 13.0235C21.3218 13.0235 21.3319 12.9733 21.3319 12.912C21.3319 12.8506 21.3419 12.8005 21.3542 12.8005C21.3664 12.8005 21.3765 12.7503 21.3765 12.689C21.3765 12.6276 21.3865 12.5775 21.3988 12.5775C21.411 12.5775 21.4211 12.5373 21.4211 12.4883C21.4211 12.4392 21.4311 12.3991 21.4434 12.3991C21.4556 12.3991 21.4657 12.3489 21.4657 12.2876C21.4657 12.2262 21.4757 12.1761 21.488 12.1761C21.5002 12.1761 21.5103 12.1259 21.5103 12.0646C21.5103 12.0032 21.5203 11.9531 21.5326 11.9531C21.5448 11.9531 21.5549 11.9029 21.5549 11.8415C21.5549 11.7802 21.5649 11.73 21.5772 11.73C21.5894 11.73 21.5995 11.6899 21.5995 11.6408C21.5995 11.5918 21.6095 11.5516 21.6218 11.5516C21.634 11.5516 21.6441 11.5015 21.6441 11.4401C21.6441 11.3788 21.6541 11.3286 21.6664 11.3286C21.6786 11.3286 21.6887 11.2785 21.6887 11.2171C21.6887 11.1558 21.6987 11.1056 21.711 11.1056C21.7232 11.1056 21.7333 11.0655 21.7333 11.0164C21.7333 10.9674 21.7433 10.9272 21.7556 10.9272C21.7678 10.9272 21.7779 10.8771 21.7779 10.8157C21.7779 10.7544 21.7879 10.7042 21.8002 10.7042C21.8124 10.7042 21.8225 10.654 21.8225 10.5927C21.8225 10.5314 21.8325 10.4812 21.8448 10.4812C21.857 10.4812 21.8671 10.4411 21.8671 10.392C21.8671 10.343 21.8771 10.3028 21.8894 10.3028C21.9016 10.3028 21.9117 10.2526 21.9117 10.1913C21.9117 10.13 21.9217 10.0798 21.934 10.0798C21.9462 10.0798 21.9563 10.0296 21.9563 9.96831C21.9563 9.90698 21.9663 9.85681 21.9786 9.85681C21.9908 9.85681 22.0009 9.81667 22.0009 9.76761C22.0009 9.71854 22.0109 9.6784 22.0232 9.6784C22.0354 9.6784 22.0455 9.62823 22.0455 9.5669C22.0455 9.50558 22.0555 9.4554 22.0678 9.4554C22.08 9.4554 22.0901 9.40522 22.0901 9.3439C22.0901 9.28257 22.1001 9.23239 22.1124 9.23239C22.1246 9.23239 22.1347 9.19225 22.1347 9.14319C22.1347 9.09413 22.1447 9.05399 22.157 9.05399C22.1692 9.05399 22.1793 9.00381 22.1793 8.94249C22.1793 8.88116 22.1893 8.83099 22.2016 8.83099C22.2138 8.83099 22.2239 8.78081 22.2239 8.71948C22.2239 8.65816 22.2339 8.60798 22.2462 8.60798C22.2584 8.60798 22.2685 8.55781 22.2685 8.49648C22.2685 8.43515 22.2785 8.38498 22.2908 8.38498C22.303 8.38498 22.3131 8.34484 22.3131 8.29577C22.3131 8.24671 22.3231 8.20657 22.3354 8.20657C22.3476 8.20657 22.3577 8.1564 22.3577 8.09507C22.3577 8.03374 22.3677 7.98357 22.38 7.98357C22.3922 7.98357 22.4023 7.93339 22.4023 7.87207C22.4023 7.81074 22.4123 7.76056 22.4246 7.76056C22.4368 7.76056 22.4469 7.72042 22.4469 7.67136C22.4469 7.6223 22.4569 7.58216 22.4692 7.58216C22.4814 7.58216 22.4915 7.53198 22.4915 7.47066C22.4915 7.40933 22.5015 7.35915 22.5138 7.35915C22.526 7.35915 22.5361 7.30898 22.5361 7.24765C22.5361 7.18633 22.5461 7.13615 22.5584 7.13615C22.5706 7.13615 22.5807 7.09601 22.5807 7.04695C22.5807 6.99789 22.5907 6.95775 22.603 6.95775C22.6152 6.95775 22.6253 6.90757 22.6253 6.84624C22.6253 6.78492 22.6353 6.73474 22.6476 6.73474C22.6598 6.73474 22.6699 6.68457 22.6699 6.62324C22.6699 6.56191 22.6799 6.51174 22.6922 6.51174C22.7044 6.51174 22.7145 6.4716 22.7145 6.42253C22.7145 6.37347 22.7245 6.33333 22.7368 6.33333C22.749 6.33333 22.7591 6.28316 22.7591 6.22183C22.7591 6.1605 22.7691 6.11033 22.7814 6.11033C22.7936 6.11033 22.8037 6.06015 22.8037 5.99883C22.8037 5.9375 22.8137 5.88732 22.826 5.88732C22.8382 5.88732 22.8483 5.84718 22.8483 5.79812C22.8483 5.74906 22.8583 5.70892 22.8706 5.70892C22.8828 5.70892 22.8929 5.65874 22.8929 5.59742C22.8929 5.53609 22.9029 5.48592 22.9152 5.48592C22.9275 5.48592 22.9375 5.43574 22.9375 5.37441C22.9375 5.31309 22.9475 5.26291 22.9598 5.26291C22.9721 5.26291 22.9821 5.22277 22.9821 5.17371C22.9821 5.12465 22.9921 5.08451 23.0044 5.08451C23.0167 5.08451 23.0267 5.03433 23.0267 4.973C23.0267 4.91168 23.0367 4.8615 23.049 4.8615C23.0613 4.8615 23.0713 4.81133 23.0713 4.75C23.0713 4.68867 23.0813 4.6385 23.0936 4.6385C23.1059 4.6385 23.1159 4.58832 23.1159 4.527C23.1159 4.46567 23.1259 4.41549 23.1382 4.41549C23.1505 4.41549 23.1605 4.37535 23.1605 4.32629C23.1605 4.27723 23.1705 4.23709 23.1828 4.23709C23.1951 4.23709 23.2051 4.18691 23.2051 4.12559C23.2051 4.06426 23.2151 4.01408 23.2274 4.01408C23.2397 4.01408 23.2497 3.96391 23.2497 3.90258C23.2497 3.84126 23.2597 3.79108 23.272 3.79108C23.2843 3.79108 23.2943 3.75094 23.2943 3.70188C23.2943 3.65282 23.3043 3.61268 23.3166 3.61268C23.3289 3.61268 23.3389 3.5625 23.3389 3.50117C23.3389 3.43985 23.3489 3.38967 23.3612 3.38967C23.3735 3.38967 23.3835 3.3395 23.3835 3.27817C23.3835 3.21684 23.3935 3.16667 23.4058 3.16667C23.4181 3.16667 23.4281 3.12653 23.4281 3.07746C23.4281 3.0284 23.4381 2.98826 23.4504 2.98826C23.4627 2.98826 23.4727 2.93809 23.4727 2.87676C23.4727 2.81543 23.4827 2.76526 23.495 2.76526C23.5073 2.76526 23.5173 2.71508 23.5173 2.65376C23.5173 2.59243 23.5273 2.54225 23.5396 2.54225C23.5519 2.54225 23.5619 2.50211 23.5619 2.45305C23.5619 2.40399 23.5719 2.36385 23.5842 2.36385C23.5965 2.36385 23.6065 2.31367 23.6065 2.25235C23.6065 2.19102 23.6165 2.14085 23.6288 2.14085C23.6411 2.14085 23.6511 2.09067 23.6511 2.02934C23.6511 1.96802 23.6611 1.91784 23.6734 1.91784C23.6857 1.91784 23.6957 1.8777 23.6957 1.82864C23.6957 1.77958 23.7057 1.73944 23.718 1.73944C23.7304 1.73944 23.7403 1.67996 23.7403 1.60563C23.7403 1.53131 23.7502 1.47183 23.7626 1.47183C23.7763 1.47183 23.7849 1.36033 23.7849 1.18192C23.7849 1.00352 23.7763 0.892019 23.7626 0.892019C23.7503 0.892019 23.7403 0.841843 23.7403 0.780516C23.7403 0.71919 23.7303 0.669014 23.718 0.669014C23.7057 0.669014 23.6957 0.648944 23.6957 0.624413C23.6957 0.599883 23.6857 0.579812 23.6734 0.579812C23.6611 0.579812 23.6511 0.551914 23.6511 0.517839C23.6511 0.481445 23.6327 0.442597 23.6065 0.423709C23.582 0.406025 23.5619 0.378394 23.5619 0.362293C23.5619 0.324249 23.4161 0.178404 23.378 0.178404C23.3619 0.178404 23.3343 0.158333 23.3166 0.133803C23.2989 0.109272 23.2666 0.0892019 23.2448 0.0892019C23.223 0.0892019 23.2051 0.0791667 23.2051 0.0669014C23.2051 0.0546362 23.175 0.0446009 23.1382 0.0446009C23.1014 0.0446009 23.0713 0.0345657 23.0713 0.0223005C23.0713 0.00858568 22.9598 0 22.7814 0C22.603 0 22.4915 0.00858568 22.4915 0.0223005Z" fill="#0089B1"/>
</svg>
